<svg xmlns="http://www.w3.org/2000/svg" width="177.499" height="85.004" viewBox="0 0 177.499 85.004">
  <g id="Grupo_13615" data-name="Grupo 13615" transform="translate(-261 -11103.172)">
    <path id="Trazado_11196" data-name="Trazado 11196" d="M24.59-9.258a10.268,10.268,0,0,1-3.359,7.1A11.453,11.453,0,0,1,13.438.391,11.089,11.089,0,0,1,7.451-1.221,10.577,10.577,0,0,1,3.457-5.8,16.528,16.528,0,0,1,1.992-12.7v-2.656a16.648,16.648,0,0,1,1.426-7.09A10.745,10.745,0,0,1,7.51-27.168a11.414,11.414,0,0,1,6.162-1.66A10.966,10.966,0,0,1,21.25-26.27a10.689,10.689,0,0,1,3.34,7.227H19.668a7.025,7.025,0,0,0-1.787-4.424,5.907,5.907,0,0,0-4.209-1.357,5.772,5.772,0,0,0-4.951,2.354q-1.729,2.354-1.768,6.9v2.52q0,4.609,1.65,7.031a5.478,5.478,0,0,0,4.834,2.422A6.388,6.388,0,0,0,17.813-4.9a6.823,6.823,0,0,0,1.855-4.355ZM41.172,0a7.325,7.325,0,0,1-.547-1.973A7.388,7.388,0,0,1,35.078.391a7.456,7.456,0,0,1-5.2-1.816,5.811,5.811,0,0,1-2.012-4.492,6,6,0,0,1,2.51-5.186q2.51-1.807,7.178-1.807h2.91V-14.3a3.7,3.7,0,0,0-.918-2.627,3.639,3.639,0,0,0-2.793-.986A4.181,4.181,0,0,0,34.1-17.1a2.509,2.509,0,0,0-1.035,2.061H28.32a5.268,5.268,0,0,1,1.152-3.252,7.677,7.677,0,0,1,3.135-2.373,11.011,11.011,0,0,1,4.424-.859,8.867,8.867,0,0,1,5.918,1.865,6.652,6.652,0,0,1,2.266,5.244v9.531a10.8,10.8,0,0,0,.8,4.551V0ZM35.957-3.418A5.4,5.4,0,0,0,38.6-4.1a4.567,4.567,0,0,0,1.865-1.836V-9.922H37.91A7,7,0,0,0,33.945-9a2.974,2.974,0,0,0-1.328,2.6,2.774,2.774,0,0,0,.908,2.178A3.517,3.517,0,0,0,35.957-3.418Zm43.359-6.758H69.063V-14H79.316ZM115-5.742a2.152,2.152,0,0,0-1.045-1.934,11.113,11.113,0,0,0-3.467-1.172,17.821,17.821,0,0,1-4.043-1.289q-3.555-1.719-3.555-4.98a5.625,5.625,0,0,1,2.3-4.57,9.111,9.111,0,0,1,5.859-1.836,9.48,9.48,0,0,1,6.123,1.875,5.95,5.95,0,0,1,2.334,4.863h-4.746a2.925,2.925,0,0,0-1.016-2.275,3.892,3.892,0,0,0-2.7-.908,4.206,4.206,0,0,0-2.549.723,2.278,2.278,0,0,0-.986,1.934,1.924,1.924,0,0,0,.918,1.7,12.623,12.623,0,0,0,3.711,1.221,17.566,17.566,0,0,1,4.385,1.465A6.209,6.209,0,0,1,118.9-8.887,5.2,5.2,0,0,1,119.668-6,5.506,5.506,0,0,1,117.3-1.377,10.077,10.077,0,0,1,111.113.391a10.927,10.927,0,0,1-4.629-.937,7.618,7.618,0,0,1-3.164-2.578,6.1,6.1,0,0,1-1.133-3.535H106.8a3.344,3.344,0,0,0,1.27,2.588,4.933,4.933,0,0,0,3.105.908,4.8,4.8,0,0,0,2.852-.713A2.207,2.207,0,0,0,115-5.742ZM136.426,0a7.325,7.325,0,0,1-.547-1.973A7.388,7.388,0,0,1,130.332.391a7.456,7.456,0,0,1-5.2-1.816,5.811,5.811,0,0,1-2.012-4.492,6,6,0,0,1,2.51-5.186q2.51-1.807,7.178-1.807h2.91V-14.3a3.7,3.7,0,0,0-.918-2.627,3.639,3.639,0,0,0-2.793-.986,4.181,4.181,0,0,0-2.656.811,2.509,2.509,0,0,0-1.035,2.061h-4.746a5.268,5.268,0,0,1,1.152-3.252,7.677,7.677,0,0,1,3.135-2.373,11.011,11.011,0,0,1,4.424-.859,8.867,8.867,0,0,1,5.918,1.865,6.652,6.652,0,0,1,2.266,5.244v9.531a10.8,10.8,0,0,0,.8,4.551V0Zm-5.215-3.418a5.4,5.4,0,0,0,2.646-.684,4.567,4.567,0,0,0,1.865-1.836V-9.922h-2.559A7,7,0,0,0,129.2-9a2.974,2.974,0,0,0-1.328,2.6,2.774,2.774,0,0,0,.908,2.178A3.517,3.517,0,0,0,131.211-3.418Z" transform="translate(297 11132)" fill="#09347b"/>
    <g id="Grupo_13126" data-name="Grupo 13126" transform="translate(-4279.235 10328.742)">
      <circle id="Elipse_503" data-name="Elipse 503" cx="8.579" cy="8.579" r="8.579" transform="translate(4540.235 783.529)" fill="#26c179"/>
      <g id="Grupo_10024" data-name="Grupo 10024" transform="translate(4543.576 784.48)">
        <path id="Trazado_1490" data-name="Trazado 1490" d="M4619.155,817.733a1.125,1.125,0,0,1-.8-.33l-3.577-3.576a1.125,1.125,0,0,1,1.592-1.592l2.78,2.781,10.036-10.036a1.125,1.125,0,0,1,1.592,1.591L4619.951,817.4A1.125,1.125,0,0,1,4619.155,817.733Z" transform="translate(-4614.454 -804.651)" fill="#02255f"/>
      </g>
    </g>
    <path id="Trazado_11197" data-name="Trazado 11197" d="M7.5,0,15,13H0Z" transform="translate(330 11160) rotate(180)" fill="#26c179"/>
    <path id="Trazado_11198" data-name="Trazado 11198" d="M3.437-11.812v2.3H5.212v1.257H3.437v5.9a1.317,1.317,0,0,0,.237.857,1,1,0,0,0,.809.286,3.937,3.937,0,0,0,.773-.105V0A4.714,4.714,0,0,1,4.008.176,2.025,2.025,0,0,1,2.364-.483a2.832,2.832,0,0,1-.554-1.872v-5.9H.079V-9.51H1.811v-2.3ZM6.5-4.843a5.617,5.617,0,0,1,.549-2.514A4.1,4.1,0,0,1,8.583-9.079a4.163,4.163,0,0,1,2.237-.606,4.01,4.01,0,0,1,3.142,1.345,5.174,5.174,0,0,1,1.2,3.577v.114a5.666,5.666,0,0,1-.532,2.492A4.038,4.038,0,0,1,13.109-.439a4.211,4.211,0,0,1-2.272.615A4,4,0,0,1,7.7-1.169a5.147,5.147,0,0,1-1.2-3.56Zm1.635.193a4.068,4.068,0,0,0,.734,2.54,2.349,2.349,0,0,0,1.964.958,2.335,2.335,0,0,0,1.969-.971,4.449,4.449,0,0,0,.729-2.72,4.061,4.061,0,0,0-.743-2.536,2.361,2.361,0,0,0-1.973-.971,2.335,2.335,0,0,0-1.942.958A4.416,4.416,0,0,0,8.139-4.649ZM11.558-13.5h1.969l-2.355,2.584H9.861Zm7.181,3.99.053,1.2a3.465,3.465,0,0,1,2.848-1.371q3.015,0,3.041,3.4V0H23.054V-6.293a2.189,2.189,0,0,0-.47-1.521,1.884,1.884,0,0,0-1.437-.492,2.347,2.347,0,0,0-1.389.422,2.865,2.865,0,0,0-.932,1.107V0H17.2V-9.51ZM28.9,0H27.272V-9.51H28.9ZM27.141-12.032a.971.971,0,0,1,.242-.668.907.907,0,0,1,.716-.272.922.922,0,0,1,.721.272.96.96,0,0,1,.246.668.929.929,0,0,1-.246.659.938.938,0,0,1-.721.264.924.924,0,0,1-.716-.264A.938.938,0,0,1,27.141-12.032ZM35.314-1.151a2.342,2.342,0,0,0,1.521-.527A1.855,1.855,0,0,0,37.556-3h1.538a2.949,2.949,0,0,1-.562,1.556A3.7,3.7,0,0,1,37.147-.264a3.994,3.994,0,0,1-1.833.439,3.918,3.918,0,0,1-3.089-1.3,5.163,5.163,0,0,1-1.147-3.546v-.272a5.725,5.725,0,0,1,.51-2.47,3.883,3.883,0,0,1,1.463-1.679,4.157,4.157,0,0,1,2.254-.6,3.814,3.814,0,0,1,2.659.958A3.424,3.424,0,0,1,39.094-6.24H37.556a2.241,2.241,0,0,0-.7-1.516,2.174,2.174,0,0,0-1.551-.593,2.276,2.276,0,0,0-1.92.892,4.19,4.19,0,0,0-.681,2.58v.308a4.106,4.106,0,0,0,.677,2.531A2.287,2.287,0,0,0,35.314-1.151ZM46.793,0a3.416,3.416,0,0,1-.229-1A3.628,3.628,0,0,1,43.857.176a3.357,3.357,0,0,1-2.307-.8,2.573,2.573,0,0,1-.9-2.017,2.688,2.688,0,0,1,1.129-2.307,5.325,5.325,0,0,1,3.177-.822h1.582v-.747a1.826,1.826,0,0,0-.51-1.358,2.049,2.049,0,0,0-1.5-.505,2.371,2.371,0,0,0-1.459.439,1.3,1.3,0,0,0-.589,1.063H40.843a2.244,2.244,0,0,1,.505-1.375A3.449,3.449,0,0,1,42.719-9.3a4.613,4.613,0,0,1,1.9-.387,3.759,3.759,0,0,1,2.575.822A2.964,2.964,0,0,1,48.164-6.6v4.377A5.351,5.351,0,0,0,48.5-.141V0Zm-2.7-1.239a2.858,2.858,0,0,0,1.45-.4,2.392,2.392,0,0,0,.993-1.028V-4.614H45.264q-2.988,0-2.988,1.749a1.48,1.48,0,0,0,.51,1.2A1.959,1.959,0,0,0,44.095-1.239Z" transform="translate(294 11188)" fill="#09347b"/>
    <path id="Trazado_11199" data-name="Trazado 11199" d="M7.1,0a3.416,3.416,0,0,1-.229-1A3.628,3.628,0,0,1,4.166.176a3.357,3.357,0,0,1-2.307-.8,2.573,2.573,0,0,1-.9-2.017A2.688,2.688,0,0,1,2.087-4.944a5.325,5.325,0,0,1,3.177-.822H6.847v-.747a1.826,1.826,0,0,0-.51-1.358,2.049,2.049,0,0,0-1.5-.505,2.371,2.371,0,0,0-1.459.439,1.3,1.3,0,0,0-.589,1.063H1.151a2.244,2.244,0,0,1,.505-1.375A3.449,3.449,0,0,1,3.028-9.3a4.613,4.613,0,0,1,1.9-.387,3.759,3.759,0,0,1,2.575.822A2.964,2.964,0,0,1,8.473-6.6v4.377A5.351,5.351,0,0,0,8.807-.141V0ZM4.4-1.239a2.858,2.858,0,0,0,1.45-.4,2.392,2.392,0,0,0,.993-1.028V-4.614H5.572q-2.988,0-2.988,1.749a1.48,1.48,0,0,0,.51,1.2A1.959,1.959,0,0,0,4.4-1.239ZM5.906-13.5H7.875L5.52-10.916H4.21Zm7.321,1.688v2.3H15v1.257H13.228v5.9a1.317,1.317,0,0,0,.237.857,1,1,0,0,0,.809.286,3.937,3.937,0,0,0,.773-.105V0A4.714,4.714,0,0,1,13.8.176a2.025,2.025,0,0,1-1.644-.659A2.832,2.832,0,0,1,11.6-2.355v-5.9H9.87V-9.51H11.6v-2.3Zm3.067,6.97a5.617,5.617,0,0,1,.549-2.514,4.1,4.1,0,0,1,1.529-1.723,4.163,4.163,0,0,1,2.237-.606,4.01,4.01,0,0,1,3.142,1.345,5.174,5.174,0,0,1,1.2,3.577v.114a5.666,5.666,0,0,1-.532,2.492A4.038,4.038,0,0,1,22.9-.439a4.211,4.211,0,0,1-2.272.615,4,4,0,0,1-3.133-1.345,5.147,5.147,0,0,1-1.2-3.56Zm1.635.193a4.068,4.068,0,0,0,.734,2.54,2.349,2.349,0,0,0,1.964.958A2.335,2.335,0,0,0,22.6-2.123a4.449,4.449,0,0,0,.729-2.72,4.061,4.061,0,0,0-.743-2.536A2.361,2.361,0,0,0,20.61-8.35a2.335,2.335,0,0,0-1.942.958A4.416,4.416,0,0,0,17.93-4.649Zm10.6-4.86.053,1.2A3.465,3.465,0,0,1,31.43-9.686q3.015,0,3.041,3.4V0H32.845V-6.293a2.189,2.189,0,0,0-.47-1.521,1.884,1.884,0,0,0-1.437-.492,2.347,2.347,0,0,0-1.389.422,2.865,2.865,0,0,0-.932,1.107V0H26.991V-9.51ZM42.794,0a3.416,3.416,0,0,1-.229-1A3.628,3.628,0,0,1,39.858.176a3.357,3.357,0,0,1-2.307-.8,2.573,2.573,0,0,1-.9-2.017A2.688,2.688,0,0,1,37.78-4.944a5.325,5.325,0,0,1,3.177-.822h1.582v-.747a1.826,1.826,0,0,0-.51-1.358,2.049,2.049,0,0,0-1.5-.505,2.371,2.371,0,0,0-1.459.439,1.3,1.3,0,0,0-.589,1.063H36.844a2.244,2.244,0,0,1,.505-1.375A3.449,3.449,0,0,1,38.72-9.3a4.613,4.613,0,0,1,1.9-.387,3.759,3.759,0,0,1,2.575.822A2.964,2.964,0,0,1,44.165-6.6v4.377A5.351,5.351,0,0,0,44.5-.141V0ZM40.1-1.239a2.858,2.858,0,0,0,1.45-.4,2.392,2.392,0,0,0,.993-1.028V-4.614H41.265q-2.988,0-2.988,1.749a1.48,1.48,0,0,0,.51,1.2A1.959,1.959,0,0,0,40.1-1.239Z" transform="translate(394 11188)" fill="#09347b"/>
  </g>
</svg>
