<svg xmlns="http://www.w3.org/2000/svg" width="899.684" height="145.838" viewBox="0 0 899.684 145.838">
  <g id="Grupo_13668" data-name="Grupo 13668" transform="translate(-237.476 -5200)">
    <g id="Grupo_13600" data-name="Grupo 13600" transform="translate(0 -68)">
      <path id="Trazado_10621" data-name="Trazado 10621" d="M-.474,0l159.85,6.944L158.627,57-.635,46.309Z" transform="matrix(0.999, -0.035, 0.035, 0.999, 541.68, 5313.582)" fill="#ffe8ba"/>
      <path id="Trazado_11150" data-name="Trazado 11150" d="M10.066-4.926A6.02,6.02,0,0,1,9.013-1.211,3.376,3.376,0,0,1,6.169.186,3.127,3.127,0,0,1,3.711-.872V3.859H1.03v-13.9H3.516l.093.983a3.151,3.151,0,0,1,2.542-1.169A3.4,3.4,0,0,1,9.036-8.851a6.183,6.183,0,0,1,1.03,3.785ZM7.385-5.121a3.951,3.951,0,0,0-.5-2.162,1.617,1.617,0,0,0-1.443-.761,1.756,1.756,0,0,0-1.735.965v4.11a1.786,1.786,0,0,0,1.753.993Q7.385-1.976,7.385-5.121Zm9.982-2.4A7.284,7.284,0,0,0,16.4-7.6a1.964,1.964,0,0,0-1.995,1.03V0H11.727V-10.038h2.533l.074,1.2a2.484,2.484,0,0,1,2.236-1.382,2.809,2.809,0,0,1,.835.121ZM23.1.186a4.928,4.928,0,0,1-3.595-1.354,4.815,4.815,0,0,1-1.387-3.609v-.26a6.064,6.064,0,0,1,.584-2.7,4.289,4.289,0,0,1,1.656-1.837,4.648,4.648,0,0,1,2.445-.645,4.166,4.166,0,0,1,3.242,1.3,5.278,5.278,0,0,1,1.183,3.683v1.095H20.837a2.491,2.491,0,0,0,.784,1.577,2.37,2.37,0,0,0,1.656.594A2.894,2.894,0,0,0,25.7-3.1l1.317,1.475A4.025,4.025,0,0,1,25.383-.292,5.357,5.357,0,0,1,23.1.186Zm-.306-8.238a1.679,1.679,0,0,0-1.294.538,2.78,2.78,0,0,0-.635,1.54h3.729v-.213a1.982,1.982,0,0,0-.482-1.378A1.733,1.733,0,0,0,22.794-8.053Zm5.539,2.959a6.049,6.049,0,0,1,1.053-3.739,3.417,3.417,0,0,1,2.881-1.392,3.074,3.074,0,0,1,2.421,1.095V-14.25h2.69V0H34.957l-.13-1.067A3.155,3.155,0,0,1,32.248.186a3.407,3.407,0,0,1-2.844-1.4A6.244,6.244,0,0,1,28.333-5.093Zm2.681.195a3.952,3.952,0,0,0,.492,2.162,1.6,1.6,0,0,0,1.429.751,1.794,1.794,0,0,0,1.753-1.048V-7a1.769,1.769,0,0,0-1.735-1.048Q31.014-8.043,31.014-4.9ZM42.286,0H39.6V-10.038h2.69ZM39.438-12.636a1.32,1.32,0,0,1,.4-.993,1.516,1.516,0,0,1,1.1-.39,1.52,1.52,0,0,1,1.095.39,1.313,1.313,0,0,1,.408.993,1.316,1.316,0,0,1-.413,1,1.523,1.523,0,0,1-1.09.39,1.523,1.523,0,0,1-1.09-.39A1.316,1.316,0,0,1,39.438-12.636Zm9.231,10.66a1.759,1.759,0,0,0,1.206-.408,1.43,1.43,0,0,0,.482-1.085h2.514A3.439,3.439,0,0,1,52.315-1.6a3.673,3.673,0,0,1-1.5,1.317,4.689,4.689,0,0,1-2.1.469,4.358,4.358,0,0,1-3.4-1.368,5.415,5.415,0,0,1-1.243-3.781V-5.14a5.353,5.353,0,0,1,1.234-3.7A4.307,4.307,0,0,1,48.7-10.224a4.222,4.222,0,0,1,3.02,1.072A3.794,3.794,0,0,1,52.872-6.3H50.357a1.827,1.827,0,0,0-.482-1.266,1.613,1.613,0,0,0-1.225-.487,1.616,1.616,0,0,0-1.415.682,3.947,3.947,0,0,0-.478,2.213v.278a4,4,0,0,0,.473,2.227A1.636,1.636,0,0,0,48.669-1.976ZM60.219,0a2.977,2.977,0,0,1-.269-.9A3.244,3.244,0,0,1,57.417.186a3.564,3.564,0,0,1-2.445-.854A2.745,2.745,0,0,1,54-2.82,2.837,2.837,0,0,1,55.186-5.27,5.837,5.837,0,0,1,58.6-6.132h1.234v-.575a1.654,1.654,0,0,0-.357-1.113,1.405,1.405,0,0,0-1.127-.417,1.6,1.6,0,0,0-1.062.325,1.1,1.1,0,0,0-.385.891H54.226a2.693,2.693,0,0,1,.538-1.614A3.557,3.557,0,0,1,56.286-9.8a5.545,5.545,0,0,1,2.208-.422,4.381,4.381,0,0,1,2.946.932,3.262,3.262,0,0,1,1.09,2.621v4.351a4.8,4.8,0,0,0,.4,2.162V0ZM58-1.865A2.309,2.309,0,0,0,59.1-2.129a1.737,1.737,0,0,0,.742-.71V-4.564h-1q-2.013,0-2.143,1.392l-.009.158a1.073,1.073,0,0,0,.353.826A1.369,1.369,0,0,0,58-1.865Zm6.169-3.229a6.049,6.049,0,0,1,1.053-3.739A3.417,3.417,0,0,1,68.1-10.224a3.074,3.074,0,0,1,2.421,1.095V-14.25h2.69V0H70.8l-.13-1.067A3.155,3.155,0,0,1,68.086.186a3.407,3.407,0,0,1-2.844-1.4A6.244,6.244,0,0,1,64.171-5.093Zm2.681.195a3.952,3.952,0,0,0,.492,2.162,1.6,1.6,0,0,0,1.429.751,1.794,1.794,0,0,0,1.753-1.048V-7a1.769,1.769,0,0,0-1.735-1.048Q66.853-8.043,66.853-4.9Zm8.025-.213a5.953,5.953,0,0,1,.575-2.663,4.211,4.211,0,0,1,1.656-1.809,4.831,4.831,0,0,1,2.51-.64A4.571,4.571,0,0,1,82.935-8.98,4.989,4.989,0,0,1,84.368-5.6l.019.687A5.247,5.247,0,0,1,83.1-1.211a4.482,4.482,0,0,1-3.46,1.4,4.5,4.5,0,0,1-3.465-1.392,5.339,5.339,0,0,1-1.294-3.785Zm2.681.195A3.742,3.742,0,0,0,78.1-2.732a1.776,1.776,0,0,0,1.54.756,1.78,1.78,0,0,0,1.521-.747,4.1,4.1,0,0,0,.547-2.389,3.7,3.7,0,0,0-.547-2.171,1.78,1.78,0,0,0-1.54-.77,1.751,1.751,0,0,0-1.521.765A4.164,4.164,0,0,0,77.559-4.917Z" transform="translate(578.053 5389.499)" fill="#26c179"/>
      <path id="Trazado_11147" data-name="Trazado 11147" d="M0,0H138.4V57H0Z" transform="matrix(1, -0.017, 0.017, 1, 282.55, 5305.411)" fill="#dbffee"/>
      <path id="Trazado_11148" data-name="Trazado 11148" d="M5.3-2.3H15.41V0H2.476V-21.328H5.3ZM27.979,0A5.693,5.693,0,0,1,27.6-1.67,6.046,6.046,0,0,1,23.086.293a5.6,5.6,0,0,1-3.845-1.326,4.289,4.289,0,0,1-1.5-3.362A4.481,4.481,0,0,1,19.622-8.24a8.875,8.875,0,0,1,5.3-1.37h2.637v-1.245a3.044,3.044,0,0,0-.85-2.263,3.415,3.415,0,0,0-2.5-.842,3.952,3.952,0,0,0-2.432.732,2.158,2.158,0,0,0-.981,1.772H18.062a3.74,3.74,0,0,1,.842-2.292,5.749,5.749,0,0,1,2.285-1.75,7.688,7.688,0,0,1,3.171-.645,6.266,6.266,0,0,1,4.292,1.37A4.941,4.941,0,0,1,30.264-11v7.295A8.919,8.919,0,0,0,30.82-.234V0Zm-4.5-2.065A4.763,4.763,0,0,0,25.9-2.725a3.987,3.987,0,0,0,1.655-1.714V-7.69H25.43q-4.98,0-4.98,2.915a2.467,2.467,0,0,0,.85,1.992A3.266,3.266,0,0,0,23.481-2.065ZM43.74-4.2a2,2,0,0,0-.828-1.707,7.966,7.966,0,0,0-2.886-1.047A13.644,13.644,0,0,1,36.76-8.013a4.647,4.647,0,0,1-1.787-1.465,3.5,3.5,0,0,1-.579-2.021,4.111,4.111,0,0,1,1.648-3.3,6.436,6.436,0,0,1,4.211-1.348,6.623,6.623,0,0,1,4.373,1.392,4.42,4.42,0,0,1,1.677,3.56H43.579a2.446,2.446,0,0,0-.945-1.919,3.54,3.54,0,0,0-2.38-.806,3.7,3.7,0,0,0-2.314.645,2.029,2.029,0,0,0-.835,1.685,1.644,1.644,0,0,0,.776,1.479,9.552,9.552,0,0,0,2.805.952,14.616,14.616,0,0,1,3.289,1.084,4.8,4.8,0,0,1,1.868,1.516,3.728,3.728,0,0,1,.608,2.161,4.056,4.056,0,0,1-1.7,3.406A7.128,7.128,0,0,1,40.342.293a7.981,7.981,0,0,1-3.369-.674A5.48,5.48,0,0,1,34.68-2.263a4.537,4.537,0,0,1-.828-2.615h2.71a2.806,2.806,0,0,0,1.091,2.161,4.234,4.234,0,0,0,2.688.8,4.37,4.37,0,0,0,2.468-.623A1.913,1.913,0,0,0,43.74-4.2ZM78.223-7.749a9.49,9.49,0,0,1-1.655,5.83A5.305,5.305,0,0,1,72.085.293a5.813,5.813,0,0,1-4.541-1.831V6.094h-2.71V-15.85H67.31l.132,1.758a5.583,5.583,0,0,1,4.6-2.051,5.4,5.4,0,0,1,4.519,2.153A9.594,9.594,0,0,1,78.223-8Zm-2.71-.308A7,7,0,0,0,74.37-12.29a3.681,3.681,0,0,0-3.135-1.553,3.984,3.984,0,0,0-3.691,2.183v7.573a3.991,3.991,0,0,0,3.721,2.168,3.663,3.663,0,0,0,3.1-1.545A7.644,7.644,0,0,0,75.513-8.057ZM91.45,0a5.693,5.693,0,0,1-.381-1.67A6.046,6.046,0,0,1,86.558.293a5.6,5.6,0,0,1-3.845-1.326,4.289,4.289,0,0,1-1.5-3.362A4.481,4.481,0,0,1,83.093-8.24a8.875,8.875,0,0,1,5.3-1.37h2.637v-1.245a3.044,3.044,0,0,0-.85-2.263,3.415,3.415,0,0,0-2.5-.842,3.952,3.952,0,0,0-2.432.732,2.158,2.158,0,0,0-.981,1.772H81.533a3.74,3.74,0,0,1,.842-2.292,5.749,5.749,0,0,1,2.285-1.75,7.688,7.688,0,0,1,3.171-.645,6.266,6.266,0,0,1,4.292,1.37A4.941,4.941,0,0,1,93.735-11v7.295a8.919,8.919,0,0,0,.557,3.472V0Zm-4.5-2.065a4.763,4.763,0,0,0,2.417-.659,3.987,3.987,0,0,0,1.655-1.714V-7.69H88.9q-4.98,0-4.98,2.915a2.467,2.467,0,0,0,.85,1.992A3.266,3.266,0,0,0,86.953-2.065ZM100.928,0h-2.71V-22.5h2.71Zm3.618-8.071a9.362,9.362,0,0,1,.916-4.189,6.83,6.83,0,0,1,2.549-2.871,6.938,6.938,0,0,1,3.728-1.011,6.684,6.684,0,0,1,5.237,2.241,8.623,8.623,0,0,1,2,5.962v.19a9.443,9.443,0,0,1-.886,4.153,6.729,6.729,0,0,1-2.534,2.864A7.018,7.018,0,0,1,111.768.293a6.667,6.667,0,0,1-5.222-2.241,8.579,8.579,0,0,1-2-5.933Zm2.725.322a6.781,6.781,0,0,0,1.223,4.233,3.914,3.914,0,0,0,3.274,1.6,3.891,3.891,0,0,0,3.281-1.619,7.415,7.415,0,0,0,1.216-4.534,6.769,6.769,0,0,0-1.238-4.226,3.935,3.935,0,0,0-3.289-1.619,3.891,3.891,0,0,0-3.237,1.6A7.36,7.36,0,0,0,107.271-7.749Zm17.651-8.1L125-14.092a5.853,5.853,0,0,1,4.7-2.051q3.325,0,4.526,2.549a6,6,0,0,1,2.058-1.846,6.079,6.079,0,0,1,3-.7q5.215,0,5.3,5.522V0h-2.71V-10.459A3.639,3.639,0,0,0,141.094-13a3.419,3.419,0,0,0-2.607-.842,3.593,3.593,0,0,0-2.5.9,3.655,3.655,0,0,0-1.157,2.424V0H132.1V-10.386q0-3.457-3.384-3.457a3.626,3.626,0,0,0-3.647,2.271V0h-2.71V-15.85ZM158.452,0a5.693,5.693,0,0,1-.381-1.67A6.046,6.046,0,0,1,153.56.293a5.6,5.6,0,0,1-3.845-1.326,4.289,4.289,0,0,1-1.5-3.362A4.481,4.481,0,0,1,150.1-8.24a8.875,8.875,0,0,1,5.3-1.37h2.637v-1.245a3.044,3.044,0,0,0-.85-2.263,3.415,3.415,0,0,0-2.5-.842,3.952,3.952,0,0,0-2.432.732,2.158,2.158,0,0,0-.981,1.772h-2.725a3.74,3.74,0,0,1,.842-2.292,5.749,5.749,0,0,1,2.285-1.75,7.688,7.688,0,0,1,3.171-.645,6.266,6.266,0,0,1,4.292,1.37A4.941,4.941,0,0,1,160.737-11v7.295a8.919,8.919,0,0,0,.557,3.472V0Zm-4.5-2.065a4.763,4.763,0,0,0,2.417-.659,3.987,3.987,0,0,0,1.655-1.714V-7.69H155.9q-4.98,0-4.98,2.915a2.467,2.467,0,0,0,.85,1.992A3.266,3.266,0,0,0,153.955-2.065ZM174.214-4.2a2,2,0,0,0-.828-1.707A7.966,7.966,0,0,0,170.5-6.958a13.644,13.644,0,0,1-3.267-1.055,4.647,4.647,0,0,1-1.787-1.465,3.5,3.5,0,0,1-.579-2.021,4.111,4.111,0,0,1,1.648-3.3,6.436,6.436,0,0,1,4.211-1.348,6.623,6.623,0,0,1,4.373,1.392,4.42,4.42,0,0,1,1.677,3.56h-2.725a2.446,2.446,0,0,0-.945-1.919,3.54,3.54,0,0,0-2.38-.806,3.7,3.7,0,0,0-2.314.645,2.029,2.029,0,0,0-.835,1.685,1.644,1.644,0,0,0,.776,1.479,9.552,9.552,0,0,0,2.805.952,14.616,14.616,0,0,1,3.289,1.084,4.8,4.8,0,0,1,1.868,1.516,3.728,3.728,0,0,1,.608,2.161,4.056,4.056,0,0,1-1.7,3.406A7.128,7.128,0,0,1,170.815.293a7.981,7.981,0,0,1-3.369-.674,5.48,5.48,0,0,1-2.292-1.882,4.537,4.537,0,0,1-.828-2.615h2.71a2.806,2.806,0,0,0,1.091,2.161,4.234,4.234,0,0,0,2.688.8,4.37,4.37,0,0,0,2.468-.623A1.913,1.913,0,0,0,174.214-4.2Zm22.9,0a2,2,0,0,0-.828-1.707A7.966,7.966,0,0,0,193.4-6.958a13.644,13.644,0,0,1-3.267-1.055,4.647,4.647,0,0,1-1.787-1.465,3.5,3.5,0,0,1-.579-2.021,4.111,4.111,0,0,1,1.648-3.3,6.436,6.436,0,0,1,4.211-1.348A6.623,6.623,0,0,1,198-14.751a4.42,4.42,0,0,1,1.677,3.56h-2.725A2.446,2.446,0,0,0,196-13.11a3.54,3.54,0,0,0-2.38-.806,3.7,3.7,0,0,0-2.314.645,2.029,2.029,0,0,0-.835,1.685,1.644,1.644,0,0,0,.776,1.479,9.552,9.552,0,0,0,2.805.952,14.616,14.616,0,0,1,3.289,1.084,4.8,4.8,0,0,1,1.868,1.516,3.728,3.728,0,0,1,.608,2.161,4.056,4.056,0,0,1-1.7,3.406A7.128,7.128,0,0,1,193.711.293a7.981,7.981,0,0,1-3.369-.674,5.48,5.48,0,0,1-2.292-1.882,4.537,4.537,0,0,1-.828-2.615h2.71a2.806,2.806,0,0,0,1.091,2.161,4.234,4.234,0,0,0,2.688.8,4.37,4.37,0,0,0,2.468-.623A1.913,1.913,0,0,0,197.109-4.2Zm5.522-3.867a9.362,9.362,0,0,1,.916-4.189,6.83,6.83,0,0,1,2.549-2.871,6.938,6.938,0,0,1,3.728-1.011,6.684,6.684,0,0,1,5.237,2.241,8.623,8.623,0,0,1,2,5.962v.19a9.443,9.443,0,0,1-.886,4.153A6.729,6.729,0,0,1,213.64-.732,7.018,7.018,0,0,1,209.854.293a6.667,6.667,0,0,1-5.222-2.241,8.579,8.579,0,0,1-2-5.933Zm2.725.322a6.781,6.781,0,0,0,1.223,4.233,3.914,3.914,0,0,0,3.274,1.6,3.891,3.891,0,0,0,3.281-1.619,7.415,7.415,0,0,0,1.216-4.534,6.769,6.769,0,0,0-1.238-4.226,3.935,3.935,0,0,0-3.289-1.619,3.891,3.891,0,0,0-3.237,1.6A7.36,7.36,0,0,0,205.356-7.749Zm17.666-8.1.088,1.992a5.776,5.776,0,0,1,4.746-2.285q5.024,0,5.068,5.669V0h-2.71V-10.488a3.649,3.649,0,0,0-.784-2.534,3.141,3.141,0,0,0-2.4-.82,3.911,3.911,0,0,0-2.314.7,4.775,4.775,0,0,0-1.553,1.846V0h-2.71V-15.85ZM254.224,0a5.693,5.693,0,0,1-.381-1.67A6.046,6.046,0,0,1,249.331.293a5.6,5.6,0,0,1-3.845-1.326,4.289,4.289,0,0,1-1.5-3.362,4.481,4.481,0,0,1,1.882-3.845,8.875,8.875,0,0,1,5.3-1.37H253.8v-1.245a3.044,3.044,0,0,0-.85-2.263,3.415,3.415,0,0,0-2.5-.842,3.952,3.952,0,0,0-2.432.732,2.158,2.158,0,0,0-.981,1.772h-2.725a3.74,3.74,0,0,1,.842-2.292,5.749,5.749,0,0,1,2.285-1.75,7.688,7.688,0,0,1,3.171-.645,6.266,6.266,0,0,1,4.292,1.37A4.941,4.941,0,0,1,256.509-11v7.295a8.919,8.919,0,0,0,.557,3.472V0Zm-4.5-2.065a4.763,4.763,0,0,0,2.417-.659A3.987,3.987,0,0,0,253.8-4.438V-7.69h-2.124q-4.98,0-4.98,2.915a2.467,2.467,0,0,0,.85,1.992A3.266,3.266,0,0,0,249.727-2.065Zm16.04-1.611,3.926-12.173h2.769L266.777,0h-2.065L258.97-15.85h2.769ZM281.455.293a6.925,6.925,0,0,1-5.244-2.117,7.856,7.856,0,0,1-2.021-5.662v-.5a9.511,9.511,0,0,1,.9-4.211,7.028,7.028,0,0,1,2.52-2.9,6.335,6.335,0,0,1,3.508-1.047,5.936,5.936,0,0,1,4.8,2.036,8.816,8.816,0,0,1,1.714,5.83v1.128H276.9a5.634,5.634,0,0,0,1.37,3.787A4.305,4.305,0,0,0,281.6-1.919a4.72,4.72,0,0,0,2.432-.586,6.11,6.11,0,0,0,1.743-1.553l1.655,1.289A6.656,6.656,0,0,1,281.455.293Zm-.337-14.209a3.615,3.615,0,0,0-2.754,1.194,5.8,5.8,0,0,0-1.377,3.347h7.939V-9.58a5.162,5.162,0,0,0-1.113-3.2A3.4,3.4,0,0,0,281.118-13.916ZM300-4.2a2,2,0,0,0-.828-1.707,7.966,7.966,0,0,0-2.886-1.047,13.644,13.644,0,0,1-3.267-1.055,4.647,4.647,0,0,1-1.787-1.465,3.5,3.5,0,0,1-.579-2.021,4.111,4.111,0,0,1,1.648-3.3,6.436,6.436,0,0,1,4.211-1.348,6.623,6.623,0,0,1,4.373,1.392,4.42,4.42,0,0,1,1.677,3.56h-2.725a2.446,2.446,0,0,0-.945-1.919,3.54,3.54,0,0,0-2.38-.806,3.7,3.7,0,0,0-2.314.645,2.029,2.029,0,0,0-.835,1.685,1.644,1.644,0,0,0,.776,1.479,9.552,9.552,0,0,0,2.805.952,14.616,14.616,0,0,1,3.289,1.084A4.8,4.8,0,0,1,302.1-6.555a3.728,3.728,0,0,1,.608,2.161,4.056,4.056,0,0,1-1.7,3.406A7.128,7.128,0,0,1,296.6.293a7.981,7.981,0,0,1-3.369-.674,5.48,5.48,0,0,1-2.292-1.882,4.537,4.537,0,0,1-.828-2.615h2.71a2.806,2.806,0,0,0,1.091,2.161,4.234,4.234,0,0,0,2.688.8,4.37,4.37,0,0,0,2.468-.623A1.913,1.913,0,0,0,300-4.2Zm27.056-3.545a9.49,9.49,0,0,1-1.655,5.83A5.305,5.305,0,0,1,320.918.293a5.813,5.813,0,0,1-4.541-1.831V6.094h-2.71V-15.85h2.476l.132,1.758a5.583,5.583,0,0,1,4.6-2.051,5.4,5.4,0,0,1,4.519,2.153A9.594,9.594,0,0,1,327.056-8Zm-2.71-.308A7,7,0,0,0,323.2-12.29a3.681,3.681,0,0,0-3.135-1.553,3.984,3.984,0,0,0-3.691,2.183v7.573A3.991,3.991,0,0,0,320.1-1.919a3.663,3.663,0,0,0,3.1-1.545A7.644,7.644,0,0,0,324.346-8.057ZM337.075.293a6.925,6.925,0,0,1-5.244-2.117,7.856,7.856,0,0,1-2.021-5.662v-.5a9.511,9.511,0,0,1,.9-4.211,7.028,7.028,0,0,1,2.52-2.9,6.335,6.335,0,0,1,3.508-1.047,5.936,5.936,0,0,1,4.8,2.036,8.816,8.816,0,0,1,1.714,5.83v1.128H332.52a5.634,5.634,0,0,0,1.37,3.787,4.305,4.305,0,0,0,3.333,1.443,4.72,4.72,0,0,0,2.432-.586A6.11,6.11,0,0,0,341.4-4.058l1.655,1.289A6.656,6.656,0,0,1,337.075.293Zm-.337-14.209a3.615,3.615,0,0,0-2.754,1.194,5.8,5.8,0,0,0-1.377,3.347h7.939V-9.58a5.162,5.162,0,0,0-1.113-3.2A3.4,3.4,0,0,0,336.738-13.916Zm8.994,5.859a9.3,9.3,0,0,1,1.714-5.911,5.554,5.554,0,0,1,4.6-2.175,5.55,5.55,0,0,1,4.438,1.89l.117-1.6h2.49V6.094h-2.71V-1.465A5.687,5.687,0,0,1,352.017.293a5.466,5.466,0,0,1-4.578-2.234,9.51,9.51,0,0,1-1.707-5.925Zm2.71.308a7.052,7.052,0,0,0,1.15,4.277,3.658,3.658,0,0,0,3.1,1.553,4.058,4.058,0,0,0,3.691-2.139v-7.764a4.071,4.071,0,0,0-3.662-2.095,3.685,3.685,0,0,0-3.12,1.56A7.677,7.677,0,0,0,348.442-7.749Zm24.785,6.182a5.756,5.756,0,0,1-4.644,1.86,4.927,4.927,0,0,1-3.86-1.472,6.372,6.372,0,0,1-1.34-4.358V-15.85h2.71V-5.61q0,3.6,2.93,3.6,3.105,0,4.131-2.314V-15.85h2.71V0h-2.578Zm13.33,1.86a6.925,6.925,0,0,1-5.244-2.117,7.856,7.856,0,0,1-2.021-5.662v-.5a9.511,9.511,0,0,1,.9-4.211,7.028,7.028,0,0,1,2.52-2.9,6.335,6.335,0,0,1,3.508-1.047,5.936,5.936,0,0,1,4.8,2.036,8.816,8.816,0,0,1,1.714,5.83v1.128H382a5.634,5.634,0,0,0,1.37,3.787A4.305,4.305,0,0,0,386.7-1.919a4.72,4.72,0,0,0,2.432-.586,6.11,6.11,0,0,0,1.743-1.553l1.655,1.289A6.656,6.656,0,0,1,386.558.293Zm-.337-14.209a3.615,3.615,0,0,0-2.754,1.194,5.8,5.8,0,0,0-1.377,3.347h7.939V-9.58a5.162,5.162,0,0,0-1.113-3.2A3.4,3.4,0,0,0,386.221-13.916Zm12.217-1.934.088,1.992a5.776,5.776,0,0,1,4.746-2.285q5.024,0,5.068,5.669V0h-2.71V-10.488a3.649,3.649,0,0,0-.784-2.534,3.141,3.141,0,0,0-2.4-.82,3.911,3.911,0,0,0-2.314.7,4.775,4.775,0,0,0-1.553,1.846V0h-2.71V-15.85Zm8.965-6.182a3.642,3.642,0,0,1-.9,2.563,2.926,2.926,0,0,1-2.249.981,3.3,3.3,0,0,1-1.04-.146,5.611,5.611,0,0,1-1.15-.6,4.98,4.98,0,0,0-1.025-.549,2.509,2.509,0,0,0-.725-.1,1.344,1.344,0,0,0-1.025.461,1.673,1.673,0,0,0-.425,1.179l-1.816-.1a3.823,3.823,0,0,1,.886-2.593,2.842,2.842,0,0,1,2.249-1.025,2.731,2.731,0,0,1,.923.146,6.725,6.725,0,0,1,1.113.571,6.551,6.551,0,0,0,1.077.557,2.473,2.473,0,0,0,.828.132,1.311,1.311,0,0,0,1.047-.5,1.747,1.747,0,0,0,.417-1.157ZM422.212,0a5.693,5.693,0,0,1-.381-1.67A6.046,6.046,0,0,1,417.319.293a5.6,5.6,0,0,1-3.845-1.326,4.289,4.289,0,0,1-1.5-3.362,4.481,4.481,0,0,1,1.882-3.845,8.875,8.875,0,0,1,5.3-1.37h2.637v-1.245a3.044,3.044,0,0,0-.85-2.263,3.415,3.415,0,0,0-2.5-.842,3.952,3.952,0,0,0-2.432.732,2.158,2.158,0,0,0-.981,1.772h-2.725a3.74,3.74,0,0,1,.842-2.292,5.749,5.749,0,0,1,2.285-1.75,7.688,7.688,0,0,1,3.171-.645,6.266,6.266,0,0,1,4.292,1.37A4.941,4.941,0,0,1,424.5-11v7.295a8.919,8.919,0,0,0,.557,3.472V0Zm-4.5-2.065a4.763,4.763,0,0,0,2.417-.659,3.987,3.987,0,0,0,1.655-1.714V-7.69h-2.124q-4.98,0-4.98,2.915a2.467,2.467,0,0,0,.85,1.992A3.266,3.266,0,0,0,417.715-2.065ZM437.974-4.2a2,2,0,0,0-.828-1.707,7.966,7.966,0,0,0-2.886-1.047,13.644,13.644,0,0,1-3.267-1.055,4.647,4.647,0,0,1-1.787-1.465,3.5,3.5,0,0,1-.579-2.021,4.111,4.111,0,0,1,1.648-3.3,6.436,6.436,0,0,1,4.211-1.348,6.623,6.623,0,0,1,4.373,1.392,4.42,4.42,0,0,1,1.677,3.56h-2.725a2.446,2.446,0,0,0-.945-1.919,3.54,3.54,0,0,0-2.38-.806,3.7,3.7,0,0,0-2.314.645,2.029,2.029,0,0,0-.835,1.685,1.644,1.644,0,0,0,.776,1.479,9.552,9.552,0,0,0,2.805.952,14.616,14.616,0,0,1,3.289,1.084,4.8,4.8,0,0,1,1.868,1.516,3.728,3.728,0,0,1,.608,2.161,4.056,4.056,0,0,1-1.7,3.406A7.128,7.128,0,0,1,434.575.293a7.981,7.981,0,0,1-3.369-.674,5.48,5.48,0,0,1-2.292-1.882,4.537,4.537,0,0,1-.828-2.615h2.71a2.806,2.806,0,0,0,1.091,2.161,4.234,4.234,0,0,0,2.688.8,4.37,4.37,0,0,0,2.468-.623A1.913,1.913,0,0,0,437.974-4.2Z" transform="translate(235 5344.686)" fill="#09347b"/>
      <path id="Trazado_11149" data-name="Trazado 11149" d="M8.21-3.544a1.428,1.428,0,0,0-.557-1.211,7.3,7.3,0,0,0-2-.891,14.206,14.206,0,0,1-2.292-.923,3.744,3.744,0,0,1-2.3-3.349,3.262,3.262,0,0,1,.617-1.953,4.024,4.024,0,0,1,1.772-1.341,6.669,6.669,0,0,1,2.593-.482,6.071,6.071,0,0,1,2.579.524,4.107,4.107,0,0,1,1.758,1.48A3.872,3.872,0,0,1,11-9.519H8.22a1.821,1.821,0,0,0-.584-1.443,2.4,2.4,0,0,0-1.642-.515,2.567,2.567,0,0,0-1.586.431,1.361,1.361,0,0,0-.566,1.136A1.3,1.3,0,0,0,4.5-8.8a7.494,7.494,0,0,0,1.953.835A8.438,8.438,0,0,1,9.917-6.2,3.529,3.529,0,0,1,11-3.562,3.251,3.251,0,0,1,9.676-.812,5.808,5.808,0,0,1,6.1.186,6.9,6.9,0,0,1,3.266-.385,4.492,4.492,0,0,1,1.313-1.948a4,4,0,0,1-.673-2.3H3.433q0,2.236,2.672,2.236a2.6,2.6,0,0,0,1.549-.4A1.313,1.313,0,0,0,8.21-3.544ZM18.722-1.021A3.362,3.362,0,0,1,15.976.186a3.171,3.171,0,0,1-2.463-.928,3.96,3.96,0,0,1-.867-2.718v-6.578h2.681v6.485q0,1.568,1.429,1.568a1.937,1.937,0,0,0,1.874-.946v-7.106h2.69V0H18.8Zm7.459-9.018V.547A3.591,3.591,0,0,1,25.3,3.131a3.35,3.35,0,0,1-2.542.923A5.452,5.452,0,0,1,21.431,3.9V1.772a5.033,5.033,0,0,0,.844.083q1.215,0,1.215-1.29v-10.6Zm-2.9-2.6a1.32,1.32,0,0,1,.4-.993,1.516,1.516,0,0,1,1.1-.39,1.516,1.516,0,0,1,1.1.39,1.32,1.32,0,0,1,.4.993,1.316,1.316,0,0,1-.413,1,1.523,1.523,0,0,1-1.09.39,1.523,1.523,0,0,1-1.09-.39A1.316,1.316,0,0,1,23.277-12.636ZM32.9.186A4.928,4.928,0,0,1,29.3-1.169a4.815,4.815,0,0,1-1.387-3.609v-.26a6.064,6.064,0,0,1,.584-2.7,4.289,4.289,0,0,1,1.656-1.837,4.648,4.648,0,0,1,2.445-.645,4.166,4.166,0,0,1,3.242,1.3,5.278,5.278,0,0,1,1.183,3.683v1.095H30.634a2.491,2.491,0,0,0,.784,1.577,2.37,2.37,0,0,0,1.656.594A2.894,2.894,0,0,0,35.5-3.1l1.317,1.475A4.025,4.025,0,0,1,35.18-.292,5.357,5.357,0,0,1,32.9.186Zm-.306-8.238a1.679,1.679,0,0,0-1.294.538,2.78,2.78,0,0,0-.635,1.54h3.729v-.213a1.982,1.982,0,0,0-.482-1.378A1.733,1.733,0,0,0,32.591-8.053Zm9.166-4.453v2.468h1.716v1.967H41.757v5.01a1.2,1.2,0,0,0,.213.8,1.072,1.072,0,0,0,.816.241,4.276,4.276,0,0,0,.789-.065V-.056a5.52,5.52,0,0,1-1.624.241,2.56,2.56,0,0,1-2.876-2.848V-8.071H37.61v-1.967h1.466v-2.468Zm2.514,7.394a5.953,5.953,0,0,1,.575-2.663A4.211,4.211,0,0,1,46.5-9.583a4.831,4.831,0,0,1,2.51-.64A4.571,4.571,0,0,1,52.329-8.98,4.989,4.989,0,0,1,53.762-5.6l.019.687a5.247,5.247,0,0,1-1.29,3.706,4.482,4.482,0,0,1-3.46,1.4,4.5,4.5,0,0,1-3.465-1.392,5.339,5.339,0,0,1-1.294-3.785Zm2.681.195a3.742,3.742,0,0,0,.538,2.185,1.776,1.776,0,0,0,1.54.756,1.78,1.78,0,0,0,1.521-.747A4.1,4.1,0,0,0,51.1-5.112a3.7,3.7,0,0,0-.547-2.171,1.78,1.78,0,0,0-1.54-.77,1.751,1.751,0,0,0-1.521.765A4.164,4.164,0,0,0,46.953-4.917Z" transform="translate(296.474 5389.499)" fill="#26c179"/>
      <path id="Trazado_11151" data-name="Trazado 11151" d="M3.5-10.038l.083,1.16a3.5,3.5,0,0,1,2.885-1.345,2.913,2.913,0,0,1,2.375.937,4.372,4.372,0,0,1,.8,2.8V0H6.958V-6.42a1.739,1.739,0,0,0-.371-1.239,1.661,1.661,0,0,0-1.234-.385,1.844,1.844,0,0,0-1.7.965V0H.974V-10.038ZM17.683-1.021A3.362,3.362,0,0,1,14.937.186a3.171,3.171,0,0,1-2.463-.928,3.96,3.96,0,0,1-.867-2.718v-6.578h2.681v6.485q0,1.568,1.429,1.568a1.937,1.937,0,0,0,1.874-.946v-7.106h2.69V0H17.757Zm-1.2-13.229h2.922l-2.57,2.876h-2.18ZM26.478-1.976a1.759,1.759,0,0,0,1.206-.408,1.43,1.43,0,0,0,.482-1.085H30.68A3.439,3.439,0,0,1,30.124-1.6a3.673,3.673,0,0,1-1.5,1.317,4.689,4.689,0,0,1-2.1.469,4.358,4.358,0,0,1-3.4-1.368,5.415,5.415,0,0,1-1.243-3.781V-5.14a5.353,5.353,0,0,1,1.234-3.7,4.307,4.307,0,0,1,3.386-1.382,4.222,4.222,0,0,1,3.02,1.072A3.794,3.794,0,0,1,30.68-6.3H28.166a1.827,1.827,0,0,0-.482-1.266,1.613,1.613,0,0,0-1.225-.487,1.616,1.616,0,0,0-1.415.682,3.947,3.947,0,0,0-.478,2.213v.278a4,4,0,0,0,.473,2.227A1.636,1.636,0,0,0,26.478-1.976ZM35.041,0H32.35V-14.25h2.69Zm6.828.186a4.928,4.928,0,0,1-3.595-1.354,4.815,4.815,0,0,1-1.387-3.609v-.26a6.064,6.064,0,0,1,.584-2.7,4.289,4.289,0,0,1,1.656-1.837,4.648,4.648,0,0,1,2.445-.645,4.166,4.166,0,0,1,3.242,1.3A5.278,5.278,0,0,1,46-5.242v1.095H39.6a2.491,2.491,0,0,0,.784,1.577,2.37,2.37,0,0,0,1.656.594A2.894,2.894,0,0,0,44.466-3.1l1.317,1.475A4.025,4.025,0,0,1,44.151-.292,5.357,5.357,0,0,1,41.869.186Zm-.306-8.238a1.679,1.679,0,0,0-1.294.538,2.78,2.78,0,0,0-.635,1.54h3.729v-.213a1.982,1.982,0,0,0-.482-1.378A1.733,1.733,0,0,0,41.563-8.053ZM47.1-5.112a5.953,5.953,0,0,1,.575-2.663,4.211,4.211,0,0,1,1.656-1.809,4.831,4.831,0,0,1,2.51-.64A4.571,4.571,0,0,1,55.158-8.98,4.989,4.989,0,0,1,56.592-5.6l.019.687a5.247,5.247,0,0,1-1.29,3.706,4.482,4.482,0,0,1-3.46,1.4A4.5,4.5,0,0,1,48.4-1.206,5.339,5.339,0,0,1,47.1-4.991Zm2.681.195a3.742,3.742,0,0,0,.538,2.185,1.776,1.776,0,0,0,1.54.756,1.78,1.78,0,0,0,1.521-.747,4.1,4.1,0,0,0,.547-2.389,3.7,3.7,0,0,0-.547-2.171,1.78,1.78,0,0,0-1.54-.77,1.751,1.751,0,0,0-1.521.765A4.164,4.164,0,0,0,49.782-4.917Z" transform="translate(590.053 5303.02)" fill="#26c179"/>
    </g>
    <g id="Grupo_13601" data-name="Grupo 13601" transform="translate(0 -68)">
      <path id="Trazado_10622" data-name="Trazado 10622" d="M-.5,0,133.516,6.944,132.887,57-.635,46.309Z" transform="matrix(0.999, -0.035, 0.035, 0.999, 1001.736, 5316.377)" fill="#ffe8ba"/>
      <path id="Trazado_11145" data-name="Trazado 11145" d="M10.066-4.926A6.02,6.02,0,0,1,9.013-1.211,3.376,3.376,0,0,1,6.169.186,3.127,3.127,0,0,1,3.711-.872V3.859H1.03v-13.9H3.516l.093.983a3.151,3.151,0,0,1,2.542-1.169A3.4,3.4,0,0,1,9.036-8.851a6.183,6.183,0,0,1,1.03,3.785ZM7.385-5.121a3.951,3.951,0,0,0-.5-2.162,1.617,1.617,0,0,0-1.443-.761,1.756,1.756,0,0,0-1.735.965v4.11a1.786,1.786,0,0,0,1.753.993Q7.385-1.976,7.385-5.121Zm9.982-2.4A7.284,7.284,0,0,0,16.4-7.6a1.964,1.964,0,0,0-1.995,1.03V0H11.727V-10.038h2.533l.074,1.2a2.484,2.484,0,0,1,2.236-1.382,2.809,2.809,0,0,1,.835.121ZM23.1.186a4.928,4.928,0,0,1-3.595-1.354,4.815,4.815,0,0,1-1.387-3.609v-.26a6.064,6.064,0,0,1,.584-2.7,4.289,4.289,0,0,1,1.656-1.837,4.648,4.648,0,0,1,2.445-.645,4.166,4.166,0,0,1,3.242,1.3,5.278,5.278,0,0,1,1.183,3.683v1.095H20.837a2.491,2.491,0,0,0,.784,1.577,2.37,2.37,0,0,0,1.656.594A2.894,2.894,0,0,0,25.7-3.1l1.317,1.475A4.025,4.025,0,0,1,25.383-.292,5.357,5.357,0,0,1,23.1.186Zm-.306-8.238a1.679,1.679,0,0,0-1.294.538,2.78,2.78,0,0,0-.635,1.54h3.729v-.213a1.982,1.982,0,0,0-.482-1.378A1.733,1.733,0,0,0,22.794-8.053Zm5.539,2.959a6.049,6.049,0,0,1,1.053-3.739,3.417,3.417,0,0,1,2.881-1.392,3.074,3.074,0,0,1,2.421,1.095V-14.25h2.69V0H34.957l-.13-1.067A3.155,3.155,0,0,1,32.248.186a3.407,3.407,0,0,1-2.844-1.4A6.244,6.244,0,0,1,28.333-5.093Zm2.681.195a3.952,3.952,0,0,0,.492,2.162,1.6,1.6,0,0,0,1.429.751,1.794,1.794,0,0,0,1.753-1.048V-7a1.769,1.769,0,0,0-1.735-1.048Q31.014-8.043,31.014-4.9ZM42.286,0H39.6V-10.038h2.69ZM39.438-12.636a1.32,1.32,0,0,1,.4-.993,1.516,1.516,0,0,1,1.1-.39,1.52,1.52,0,0,1,1.095.39,1.313,1.313,0,0,1,.408.993,1.316,1.316,0,0,1-.413,1,1.523,1.523,0,0,1-1.09.39,1.523,1.523,0,0,1-1.09-.39A1.316,1.316,0,0,1,39.438-12.636Zm9.231,10.66a1.759,1.759,0,0,0,1.206-.408,1.43,1.43,0,0,0,.482-1.085h2.514A3.439,3.439,0,0,1,52.315-1.6a3.673,3.673,0,0,1-1.5,1.317,4.689,4.689,0,0,1-2.1.469,4.358,4.358,0,0,1-3.4-1.368,5.415,5.415,0,0,1-1.243-3.781V-5.14a5.353,5.353,0,0,1,1.234-3.7A4.307,4.307,0,0,1,48.7-10.224a4.222,4.222,0,0,1,3.02,1.072A3.794,3.794,0,0,1,52.872-6.3H50.357a1.827,1.827,0,0,0-.482-1.266,1.613,1.613,0,0,0-1.225-.487,1.616,1.616,0,0,0-1.415.682,3.947,3.947,0,0,0-.478,2.213v.278a4,4,0,0,0,.473,2.227A1.636,1.636,0,0,0,48.669-1.976ZM60.219,0a2.977,2.977,0,0,1-.269-.9A3.244,3.244,0,0,1,57.417.186a3.564,3.564,0,0,1-2.445-.854A2.745,2.745,0,0,1,54-2.82,2.837,2.837,0,0,1,55.186-5.27,5.837,5.837,0,0,1,58.6-6.132h1.234v-.575a1.654,1.654,0,0,0-.357-1.113,1.405,1.405,0,0,0-1.127-.417,1.6,1.6,0,0,0-1.062.325,1.1,1.1,0,0,0-.385.891H54.226a2.693,2.693,0,0,1,.538-1.614A3.557,3.557,0,0,1,56.286-9.8a5.545,5.545,0,0,1,2.208-.422,4.381,4.381,0,0,1,2.946.932,3.262,3.262,0,0,1,1.09,2.621v4.351a4.8,4.8,0,0,0,.4,2.162V0ZM58-1.865A2.309,2.309,0,0,0,59.1-2.129a1.737,1.737,0,0,0,.742-.71V-4.564h-1q-2.013,0-2.143,1.392l-.009.158a1.073,1.073,0,0,0,.353.826A1.369,1.369,0,0,0,58-1.865Zm6.169-3.229a6.049,6.049,0,0,1,1.053-3.739A3.417,3.417,0,0,1,68.1-10.224a3.074,3.074,0,0,1,2.421,1.095V-14.25h2.69V0H70.8l-.13-1.067A3.155,3.155,0,0,1,68.086.186a3.407,3.407,0,0,1-2.844-1.4A6.244,6.244,0,0,1,64.171-5.093Zm2.681.195a3.952,3.952,0,0,0,.492,2.162,1.6,1.6,0,0,0,1.429.751,1.794,1.794,0,0,0,1.753-1.048V-7a1.769,1.769,0,0,0-1.735-1.048Q66.853-8.043,66.853-4.9Zm8.025-.213a5.953,5.953,0,0,1,.575-2.663,4.211,4.211,0,0,1,1.656-1.809,4.831,4.831,0,0,1,2.51-.64A4.571,4.571,0,0,1,82.935-8.98,4.989,4.989,0,0,1,84.368-5.6l.019.687A5.247,5.247,0,0,1,83.1-1.211a4.482,4.482,0,0,1-3.46,1.4,4.5,4.5,0,0,1-3.465-1.392,5.339,5.339,0,0,1-1.294-3.785Zm2.681.195A3.742,3.742,0,0,0,78.1-2.732a1.776,1.776,0,0,0,1.54.756,1.78,1.78,0,0,0,1.521-.747,4.1,4.1,0,0,0,.547-2.389,3.7,3.7,0,0,0-.547-2.171,1.78,1.78,0,0,0-1.54-.77,1.751,1.751,0,0,0-1.521.765A4.164,4.164,0,0,0,77.559-4.917Z" transform="translate(1035.053 5392.294)" fill="#26c179"/>
      <path id="Trazado_11142" data-name="Trazado 11142" d="M0,0H78.988V57H0Z" transform="matrix(1, -0.017, 0.017, 1, 850.551, 5308.206)" fill="#dbffee"/>
      <path id="Trazado_11143" data-name="Trazado 11143" d="M5.3-2.3H15.41V0H2.476V-21.328H5.3ZM27.979,0A5.693,5.693,0,0,1,27.6-1.67,6.046,6.046,0,0,1,23.086.293a5.6,5.6,0,0,1-3.845-1.326,4.289,4.289,0,0,1-1.5-3.362A4.481,4.481,0,0,1,19.622-8.24a8.875,8.875,0,0,1,5.3-1.37h2.637v-1.245a3.044,3.044,0,0,0-.85-2.263,3.415,3.415,0,0,0-2.5-.842,3.952,3.952,0,0,0-2.432.732,2.158,2.158,0,0,0-.981,1.772H18.062a3.74,3.74,0,0,1,.842-2.292,5.749,5.749,0,0,1,2.285-1.75,7.688,7.688,0,0,1,3.171-.645,6.266,6.266,0,0,1,4.292,1.37A4.941,4.941,0,0,1,30.264-11v7.295A8.919,8.919,0,0,0,30.82-.234V0Zm-4.5-2.065A4.763,4.763,0,0,0,25.9-2.725a3.987,3.987,0,0,0,1.655-1.714V-7.69H25.43q-4.98,0-4.98,2.915a2.467,2.467,0,0,0,.85,1.992A3.266,3.266,0,0,0,23.481-2.065ZM43.74-4.2a2,2,0,0,0-.828-1.707,7.966,7.966,0,0,0-2.886-1.047A13.644,13.644,0,0,1,36.76-8.013a4.647,4.647,0,0,1-1.787-1.465,3.5,3.5,0,0,1-.579-2.021,4.111,4.111,0,0,1,1.648-3.3,6.436,6.436,0,0,1,4.211-1.348,6.623,6.623,0,0,1,4.373,1.392,4.42,4.42,0,0,1,1.677,3.56H43.579a2.446,2.446,0,0,0-.945-1.919,3.54,3.54,0,0,0-2.38-.806,3.7,3.7,0,0,0-2.314.645,2.029,2.029,0,0,0-.835,1.685,1.644,1.644,0,0,0,.776,1.479,9.552,9.552,0,0,0,2.805.952,14.616,14.616,0,0,1,3.289,1.084,4.8,4.8,0,0,1,1.868,1.516,3.728,3.728,0,0,1,.608,2.161,4.056,4.056,0,0,1-1.7,3.406A7.128,7.128,0,0,1,40.342.293a7.981,7.981,0,0,1-3.369-.674A5.48,5.48,0,0,1,34.68-2.263a4.537,4.537,0,0,1-.828-2.615h2.71a2.806,2.806,0,0,0,1.091,2.161,4.234,4.234,0,0,0,2.688.8,4.37,4.37,0,0,0,2.468-.623A1.913,1.913,0,0,0,43.74-4.2ZM67.192-1.567A5.756,5.756,0,0,1,62.549.293a4.927,4.927,0,0,1-3.86-1.472,6.372,6.372,0,0,1-1.34-4.358V-15.85h2.71V-5.61q0,3.6,2.93,3.6,3.105,0,4.131-2.314V-15.85h2.71V0H67.251ZM79.175-3.677,83.1-15.85h2.769L80.186,0H78.12L72.378-15.85h2.769ZM98.042,0a5.693,5.693,0,0,1-.381-1.67A6.046,6.046,0,0,1,93.149.293,5.6,5.6,0,0,1,89.3-1.033a4.289,4.289,0,0,1-1.5-3.362A4.481,4.481,0,0,1,89.685-8.24a8.875,8.875,0,0,1,5.3-1.37h2.637v-1.245a3.044,3.044,0,0,0-.85-2.263,3.415,3.415,0,0,0-2.5-.842,3.952,3.952,0,0,0-2.432.732,2.158,2.158,0,0,0-.981,1.772H88.125a3.74,3.74,0,0,1,.842-2.292,5.749,5.749,0,0,1,2.285-1.75,7.688,7.688,0,0,1,3.171-.645,6.266,6.266,0,0,1,4.292,1.37A4.941,4.941,0,0,1,100.327-11v7.295a8.919,8.919,0,0,0,.557,3.472V0Zm-4.5-2.065a4.763,4.763,0,0,0,2.417-.659,3.987,3.987,0,0,0,1.655-1.714V-7.69H95.493q-4.98,0-4.98,2.915a2.467,2.467,0,0,0,.85,1.992A3.266,3.266,0,0,0,93.545-2.065ZM113.8-4.2a2,2,0,0,0-.828-1.707,7.966,7.966,0,0,0-2.886-1.047,13.644,13.644,0,0,1-3.267-1.055,4.647,4.647,0,0,1-1.787-1.465,3.5,3.5,0,0,1-.579-2.021,4.111,4.111,0,0,1,1.648-3.3,6.436,6.436,0,0,1,4.211-1.348,6.623,6.623,0,0,1,4.373,1.392,4.42,4.42,0,0,1,1.677,3.56h-2.725a2.446,2.446,0,0,0-.945-1.919,3.54,3.54,0,0,0-2.38-.806,3.7,3.7,0,0,0-2.314.645,2.029,2.029,0,0,0-.835,1.685,1.644,1.644,0,0,0,.776,1.479,9.552,9.552,0,0,0,2.805.952,14.616,14.616,0,0,1,3.289,1.084,4.8,4.8,0,0,1,1.868,1.516,3.728,3.728,0,0,1,.608,2.161,4.056,4.056,0,0,1-1.7,3.406A7.128,7.128,0,0,1,110.405.293a7.981,7.981,0,0,1-3.369-.674,5.48,5.48,0,0,1-2.292-1.882,4.537,4.537,0,0,1-.828-2.615h2.71a2.806,2.806,0,0,0,1.091,2.161,4.234,4.234,0,0,0,2.688.8,4.37,4.37,0,0,0,2.468-.623A1.913,1.913,0,0,0,113.8-4.2Zm20.244,4.5A6.925,6.925,0,0,1,128.8-1.824a7.856,7.856,0,0,1-2.021-5.662v-.5a9.511,9.511,0,0,1,.9-4.211,7.028,7.028,0,0,1,2.52-2.9,6.335,6.335,0,0,1,3.508-1.047,5.936,5.936,0,0,1,4.8,2.036,8.816,8.816,0,0,1,1.714,5.83v1.128H129.492a5.634,5.634,0,0,0,1.37,3.787,4.305,4.305,0,0,0,3.333,1.443,4.72,4.72,0,0,0,2.432-.586,6.11,6.11,0,0,0,1.743-1.553l1.655,1.289A6.656,6.656,0,0,1,134.048.293Zm-.337-14.209a3.615,3.615,0,0,0-2.754,1.194,5.8,5.8,0,0,0-1.377,3.347h7.939V-9.58a5.162,5.162,0,0,0-1.113-3.2A3.4,3.4,0,0,0,133.711-13.916ZM152.593-4.2a2,2,0,0,0-.828-1.707,7.966,7.966,0,0,0-2.886-1.047,13.644,13.644,0,0,1-3.267-1.055,4.647,4.647,0,0,1-1.787-1.465,3.5,3.5,0,0,1-.579-2.021,4.111,4.111,0,0,1,1.648-3.3,6.436,6.436,0,0,1,4.211-1.348,6.623,6.623,0,0,1,4.373,1.392,4.42,4.42,0,0,1,1.677,3.56h-2.725a2.446,2.446,0,0,0-.945-1.919,3.54,3.54,0,0,0-2.38-.806,3.7,3.7,0,0,0-2.314.645,2.029,2.029,0,0,0-.835,1.685,1.644,1.644,0,0,0,.776,1.479,9.552,9.552,0,0,0,2.805.952,14.616,14.616,0,0,1,3.289,1.084,4.8,4.8,0,0,1,1.868,1.516,3.728,3.728,0,0,1,.608,2.161,4.056,4.056,0,0,1-1.7,3.406A7.128,7.128,0,0,1,149.194.293a7.981,7.981,0,0,1-3.369-.674,5.48,5.48,0,0,1-2.292-1.882,4.537,4.537,0,0,1-.828-2.615h2.71a2.806,2.806,0,0,0,1.091,2.161,4.234,4.234,0,0,0,2.688.8,4.37,4.37,0,0,0,2.468-.623A1.913,1.913,0,0,0,152.593-4.2Zm9.917-15.483v3.838h2.959v2.095H162.51v9.829a2.2,2.2,0,0,0,.4,1.428,1.666,1.666,0,0,0,1.348.476,6.561,6.561,0,0,0,1.289-.176V0a7.856,7.856,0,0,1-2.08.293,3.375,3.375,0,0,1-2.739-1.1,4.72,4.72,0,0,1-.923-3.12v-9.829h-2.886V-15.85H159.8v-3.838ZM178.418,0a5.693,5.693,0,0,1-.381-1.67A6.046,6.046,0,0,1,173.525.293a5.6,5.6,0,0,1-3.845-1.326,4.289,4.289,0,0,1-1.5-3.362,4.481,4.481,0,0,1,1.882-3.845,8.875,8.875,0,0,1,5.3-1.37h2.637v-1.245a3.044,3.044,0,0,0-.85-2.263,3.415,3.415,0,0,0-2.5-.842,3.952,3.952,0,0,0-2.432.732,2.158,2.158,0,0,0-.981,1.772H168.5a3.74,3.74,0,0,1,.842-2.292,5.749,5.749,0,0,1,2.285-1.75,7.688,7.688,0,0,1,3.171-.645,6.266,6.266,0,0,1,4.292,1.37A4.941,4.941,0,0,1,180.7-11v7.295a8.919,8.919,0,0,0,.557,3.472V0Zm-4.5-2.065a4.763,4.763,0,0,0,2.417-.659,3.987,3.987,0,0,0,1.655-1.714V-7.69h-2.124q-4.98,0-4.98,2.915a2.467,2.467,0,0,0,.85,1.992A3.266,3.266,0,0,0,173.921-2.065Zm2.5-20.435h3.281l-3.926,4.307H173.6Zm11.089,6.65.088,1.992a5.776,5.776,0,0,1,4.746-2.285q5.024,0,5.068,5.669V0h-2.71V-10.488a3.649,3.649,0,0,0-.784-2.534,3.141,3.141,0,0,0-2.4-.82,3.911,3.911,0,0,0-2.314.7,4.775,4.775,0,0,0-1.553,1.846V0h-2.71V-15.85Zm23.965,0,.073,1.758a5.853,5.853,0,0,1,4.7-2.051q3.325,0,4.526,2.549a6,6,0,0,1,2.058-1.846,6.079,6.079,0,0,1,3-.7q5.215,0,5.3,5.522V0h-2.71V-10.459A3.639,3.639,0,0,0,227.651-13a3.419,3.419,0,0,0-2.607-.842,3.593,3.593,0,0,0-2.5.9,3.655,3.655,0,0,0-1.157,2.424V0h-2.725V-10.386q0-3.457-3.384-3.457a3.626,3.626,0,0,0-3.647,2.271V0h-2.71V-15.85ZM245.01,0a5.693,5.693,0,0,1-.381-1.67A6.046,6.046,0,0,1,240.117.293a5.6,5.6,0,0,1-3.845-1.326,4.289,4.289,0,0,1-1.5-3.362,4.481,4.481,0,0,1,1.882-3.845,8.875,8.875,0,0,1,5.3-1.37h2.637v-1.245a3.044,3.044,0,0,0-.85-2.263,3.415,3.415,0,0,0-2.5-.842,3.952,3.952,0,0,0-2.432.732,2.158,2.158,0,0,0-.981,1.772h-2.725a3.74,3.74,0,0,1,.842-2.292,5.749,5.749,0,0,1,2.285-1.75,7.688,7.688,0,0,1,3.171-.645,6.266,6.266,0,0,1,4.292,1.37A4.941,4.941,0,0,1,247.295-11v7.295a8.919,8.919,0,0,0,.557,3.472V0Zm-4.5-2.065a4.763,4.763,0,0,0,2.417-.659,3.987,3.987,0,0,0,1.655-1.714V-7.69h-2.124q-4.98,0-4.98,2.915a2.467,2.467,0,0,0,.85,1.992A3.266,3.266,0,0,0,240.513-2.065Zm10.371-5.991a9.285,9.285,0,0,1,1.729-5.867,5.466,5.466,0,0,1,4.526-2.219,5.5,5.5,0,0,1,4.409,1.9V-22.5h2.71V0h-2.49l-.132-1.7A5.519,5.519,0,0,1,257.109.293a5.414,5.414,0,0,1-4.49-2.256,9.39,9.39,0,0,1-1.736-5.889Zm2.71.308a7.03,7.03,0,0,0,1.113,4.219,3.6,3.6,0,0,0,3.076,1.523,3.953,3.953,0,0,0,3.765-2.314V-11.6a3.984,3.984,0,0,0-3.735-2.241,3.616,3.616,0,0,0-3.105,1.538A7.74,7.74,0,0,0,253.594-7.749Zm24.653,6.182A5.756,5.756,0,0,1,273.6.293a4.927,4.927,0,0,1-3.86-1.472,6.372,6.372,0,0,1-1.34-4.358V-15.85h2.71V-5.61q0,3.6,2.93,3.6,3.105,0,4.131-2.314V-15.85h2.71V0h-2.578Zm14.414-11.851a8.121,8.121,0,0,0-1.333-.1,3.571,3.571,0,0,0-3.618,2.271V0H285V-15.85h2.637l.044,1.831a4.22,4.22,0,0,1,3.779-2.124,2.769,2.769,0,0,1,1.2.205ZM304.351,0a5.693,5.693,0,0,1-.381-1.67A6.046,6.046,0,0,1,299.458.293a5.6,5.6,0,0,1-3.845-1.326,4.289,4.289,0,0,1-1.5-3.362,4.481,4.481,0,0,1,1.882-3.845,8.875,8.875,0,0,1,5.3-1.37h2.637v-1.245a3.044,3.044,0,0,0-.85-2.263,3.415,3.415,0,0,0-2.5-.842,3.952,3.952,0,0,0-2.432.732,2.158,2.158,0,0,0-.981,1.772h-2.725a3.74,3.74,0,0,1,.842-2.292,5.749,5.749,0,0,1,2.285-1.75,7.688,7.688,0,0,1,3.171-.645,6.266,6.266,0,0,1,4.292,1.37A4.941,4.941,0,0,1,306.636-11v7.295a8.919,8.919,0,0,0,.557,3.472V0Zm-4.5-2.065a4.763,4.763,0,0,0,2.417-.659,3.987,3.987,0,0,0,1.655-1.714V-7.69H301.8q-4.98,0-4.98,2.915a2.467,2.467,0,0,0,.85,1.992A3.266,3.266,0,0,0,299.854-2.065ZM320.112-4.2a2,2,0,0,0-.828-1.707A7.966,7.966,0,0,0,316.4-6.958a13.644,13.644,0,0,1-3.267-1.055,4.647,4.647,0,0,1-1.787-1.465,3.5,3.5,0,0,1-.579-2.021,4.111,4.111,0,0,1,1.648-3.3,6.436,6.436,0,0,1,4.211-1.348A6.623,6.623,0,0,1,321-14.751a4.42,4.42,0,0,1,1.677,3.56h-2.725a2.446,2.446,0,0,0-.945-1.919,3.54,3.54,0,0,0-2.38-.806,3.7,3.7,0,0,0-2.314.645,2.029,2.029,0,0,0-.835,1.685,1.644,1.644,0,0,0,.776,1.479,9.552,9.552,0,0,0,2.805.952,14.616,14.616,0,0,1,3.289,1.084,4.8,4.8,0,0,1,1.868,1.516,3.728,3.728,0,0,1,.608,2.161,4.056,4.056,0,0,1-1.7,3.406A7.128,7.128,0,0,1,316.714.293a7.981,7.981,0,0,1-3.369-.674,5.48,5.48,0,0,1-2.292-1.882,4.537,4.537,0,0,1-.828-2.615h2.71a2.806,2.806,0,0,0,1.091,2.161,4.234,4.234,0,0,0,2.688.8,4.37,4.37,0,0,0,2.468-.623A1.913,1.913,0,0,0,320.112-4.2Z" transform="translate(803 5347.481)" fill="#09347b"/>
      <path id="Trazado_11146" data-name="Trazado 11146" d="M8.21-3.544a1.428,1.428,0,0,0-.557-1.211,7.3,7.3,0,0,0-2-.891,14.206,14.206,0,0,1-2.292-.923,3.744,3.744,0,0,1-2.3-3.349,3.262,3.262,0,0,1,.617-1.953,4.024,4.024,0,0,1,1.772-1.341,6.669,6.669,0,0,1,2.593-.482,6.071,6.071,0,0,1,2.579.524,4.107,4.107,0,0,1,1.758,1.48A3.872,3.872,0,0,1,11-9.519H8.22a1.821,1.821,0,0,0-.584-1.443,2.4,2.4,0,0,0-1.642-.515,2.567,2.567,0,0,0-1.586.431,1.361,1.361,0,0,0-.566,1.136A1.3,1.3,0,0,0,4.5-8.8a7.494,7.494,0,0,0,1.953.835A8.438,8.438,0,0,1,9.917-6.2,3.529,3.529,0,0,1,11-3.562,3.251,3.251,0,0,1,9.676-.812,5.808,5.808,0,0,1,6.1.186,6.9,6.9,0,0,1,3.266-.385,4.492,4.492,0,0,1,1.313-1.948a4,4,0,0,1-.673-2.3H3.433q0,2.236,2.672,2.236a2.6,2.6,0,0,0,1.549-.4A1.313,1.313,0,0,0,8.21-3.544ZM18.722-1.021A3.362,3.362,0,0,1,15.976.186a3.171,3.171,0,0,1-2.463-.928,3.96,3.96,0,0,1-.867-2.718v-6.578h2.681v6.485q0,1.568,1.429,1.568a1.937,1.937,0,0,0,1.874-.946v-7.106h2.69V0H18.8Zm7.459-9.018V.547A3.591,3.591,0,0,1,25.3,3.131a3.35,3.35,0,0,1-2.542.923A5.452,5.452,0,0,1,21.431,3.9V1.772a5.033,5.033,0,0,0,.844.083q1.215,0,1.215-1.29v-10.6Zm-2.9-2.6a1.32,1.32,0,0,1,.4-.993,1.516,1.516,0,0,1,1.1-.39,1.516,1.516,0,0,1,1.1.39,1.32,1.32,0,0,1,.4.993,1.316,1.316,0,0,1-.413,1,1.523,1.523,0,0,1-1.09.39,1.523,1.523,0,0,1-1.09-.39A1.316,1.316,0,0,1,23.277-12.636ZM32.9.186A4.928,4.928,0,0,1,29.3-1.169a4.815,4.815,0,0,1-1.387-3.609v-.26a6.064,6.064,0,0,1,.584-2.7,4.289,4.289,0,0,1,1.656-1.837,4.648,4.648,0,0,1,2.445-.645,4.166,4.166,0,0,1,3.242,1.3,5.278,5.278,0,0,1,1.183,3.683v1.095H30.634a2.491,2.491,0,0,0,.784,1.577,2.37,2.37,0,0,0,1.656.594A2.894,2.894,0,0,0,35.5-3.1l1.317,1.475A4.025,4.025,0,0,1,35.18-.292,5.357,5.357,0,0,1,32.9.186Zm-.306-8.238a1.679,1.679,0,0,0-1.294.538,2.78,2.78,0,0,0-.635,1.54h3.729v-.213a1.982,1.982,0,0,0-.482-1.378A1.733,1.733,0,0,0,32.591-8.053Zm9.166-4.453v2.468h1.716v1.967H41.757v5.01a1.2,1.2,0,0,0,.213.8,1.072,1.072,0,0,0,.816.241,4.276,4.276,0,0,0,.789-.065V-.056a5.52,5.52,0,0,1-1.624.241,2.56,2.56,0,0,1-2.876-2.848V-8.071H37.61v-1.967h1.466v-2.468Zm2.514,7.394a5.953,5.953,0,0,1,.575-2.663A4.211,4.211,0,0,1,46.5-9.583a4.831,4.831,0,0,1,2.51-.64A4.571,4.571,0,0,1,52.329-8.98,4.989,4.989,0,0,1,53.762-5.6l.019.687a5.247,5.247,0,0,1-1.29,3.706,4.482,4.482,0,0,1-3.46,1.4,4.5,4.5,0,0,1-3.465-1.392,5.339,5.339,0,0,1-1.294-3.785Zm2.681.195a3.742,3.742,0,0,0,.538,2.185,1.776,1.776,0,0,0,1.54.756,1.78,1.78,0,0,0,1.521-.747A4.1,4.1,0,0,0,51.1-5.112a3.7,3.7,0,0,0-.547-2.171,1.78,1.78,0,0,0-1.54-.77,1.751,1.751,0,0,0-1.521.765A4.164,4.164,0,0,0,46.953-4.917Z" transform="translate(864.474 5392.294)" fill="#26c179"/>
      <path id="Trazado_11144" data-name="Trazado 11144" d="M3.5-10.038l.083,1.16a3.5,3.5,0,0,1,2.885-1.345,2.913,2.913,0,0,1,2.375.937,4.372,4.372,0,0,1,.8,2.8V0H6.958V-6.42a1.739,1.739,0,0,0-.371-1.239,1.661,1.661,0,0,0-1.234-.385,1.844,1.844,0,0,0-1.7.965V0H.974V-10.038ZM17.683-1.021A3.362,3.362,0,0,1,14.937.186a3.171,3.171,0,0,1-2.463-.928,3.96,3.96,0,0,1-.867-2.718v-6.578h2.681v6.485q0,1.568,1.429,1.568a1.937,1.937,0,0,0,1.874-.946v-7.106h2.69V0H17.757Zm-1.2-13.229h2.922l-2.57,2.876h-2.18ZM26.478-1.976a1.759,1.759,0,0,0,1.206-.408,1.43,1.43,0,0,0,.482-1.085H30.68A3.439,3.439,0,0,1,30.124-1.6a3.673,3.673,0,0,1-1.5,1.317,4.689,4.689,0,0,1-2.1.469,4.358,4.358,0,0,1-3.4-1.368,5.415,5.415,0,0,1-1.243-3.781V-5.14a5.353,5.353,0,0,1,1.234-3.7,4.307,4.307,0,0,1,3.386-1.382,4.222,4.222,0,0,1,3.02,1.072A3.794,3.794,0,0,1,30.68-6.3H28.166a1.827,1.827,0,0,0-.482-1.266,1.613,1.613,0,0,0-1.225-.487,1.616,1.616,0,0,0-1.415.682,3.947,3.947,0,0,0-.478,2.213v.278a4,4,0,0,0,.473,2.227A1.636,1.636,0,0,0,26.478-1.976ZM35.041,0H32.35V-14.25h2.69Zm6.828.186a4.928,4.928,0,0,1-3.595-1.354,4.815,4.815,0,0,1-1.387-3.609v-.26a6.064,6.064,0,0,1,.584-2.7,4.289,4.289,0,0,1,1.656-1.837,4.648,4.648,0,0,1,2.445-.645,4.166,4.166,0,0,1,3.242,1.3A5.278,5.278,0,0,1,46-5.242v1.095H39.6a2.491,2.491,0,0,0,.784,1.577,2.37,2.37,0,0,0,1.656.594A2.894,2.894,0,0,0,44.466-3.1l1.317,1.475A4.025,4.025,0,0,1,44.151-.292,5.357,5.357,0,0,1,41.869.186Zm-.306-8.238a1.679,1.679,0,0,0-1.294.538,2.78,2.78,0,0,0-.635,1.54h3.729v-.213a1.982,1.982,0,0,0-.482-1.378A1.733,1.733,0,0,0,41.563-8.053ZM47.1-5.112a5.953,5.953,0,0,1,.575-2.663,4.211,4.211,0,0,1,1.656-1.809,4.831,4.831,0,0,1,2.51-.64A4.571,4.571,0,0,1,55.158-8.98,4.989,4.989,0,0,1,56.592-5.6l.019.687a5.247,5.247,0,0,1-1.29,3.706,4.482,4.482,0,0,1-3.46,1.4A4.5,4.5,0,0,1,48.4-1.206,5.339,5.339,0,0,1,47.1-4.991Zm2.681.195a3.742,3.742,0,0,0,.538,2.185,1.776,1.776,0,0,0,1.54.756,1.78,1.78,0,0,0,1.521-.747,4.1,4.1,0,0,0,.547-2.389,3.7,3.7,0,0,0-.547-2.171,1.78,1.78,0,0,0-1.54-.77,1.751,1.751,0,0,0-1.521.765A4.164,4.164,0,0,0,49.782-4.917Z" transform="translate(1044.053 5303.294)" fill="#26c179"/>
    </g>
    <path id="Trazado_11152" data-name="Trazado 11152" d="M-2543.651,7868v145.838" transform="translate(3290 -2668)" fill="none" stroke="#02255f" stroke-width="1"/>
  </g>
</svg>
