<svg xmlns="http://www.w3.org/2000/svg" width="500.827" height="213.082" viewBox="0 0 500.827 213.082">
  <g id="Grupo_13609" data-name="Grupo 13609" transform="translate(-235 -5994.165)">
    <g id="Grupo_13604" data-name="Grupo 13604">
      <path id="Trazado_10625" data-name="Trazado 10625" d="M-.5,0,134.285,6.944,133.653,57-.635,46.309Z" transform="matrix(0.999, -0.035, 0.035, 0.999, 599.635, 5998.852)" fill="#02255f"/>
      <text id="Complemento_indirecto" data-name="Complemento indirecto" transform="translate(528 6071.972)" fill="#02255f" font-size="19" font-family="Roboto-Bold, Roboto" font-weight="700"><tspan x="0" y="0">Complemento indirecto</tspan></text>
      <path id="Trazado_11178" data-name="Trazado 11178" d="M379.893,0a5.693,5.693,0,0,1-.381-1.67A6.046,6.046,0,0,1,375,.293a5.6,5.6,0,0,1-3.845-1.326,4.289,4.289,0,0,1-1.5-3.362,4.481,4.481,0,0,1,1.882-3.845,8.875,8.875,0,0,1,5.3-1.37h2.637v-1.245a3.044,3.044,0,0,0-.85-2.263,3.415,3.415,0,0,0-2.5-.842,3.952,3.952,0,0,0-2.432.732,2.158,2.158,0,0,0-.981,1.772h-2.725a3.74,3.74,0,0,1,.842-2.292A5.749,5.749,0,0,1,373.1-15.5a7.688,7.688,0,0,1,3.171-.645,6.266,6.266,0,0,1,4.292,1.37A4.941,4.941,0,0,1,382.178-11v7.295a8.919,8.919,0,0,0,.557,3.472V0Zm-4.5-2.065a4.763,4.763,0,0,0,2.417-.659,3.987,3.987,0,0,0,1.655-1.714V-7.69h-2.124q-4.98,0-4.98,2.915a2.467,2.467,0,0,0,.85,1.992A3.266,3.266,0,0,0,375.4-2.065ZM389.37,0h-2.71V-22.5h2.71Zm25.151-7.749a9.49,9.49,0,0,1-1.655,5.83A5.305,5.305,0,0,1,408.384.293a5.813,5.813,0,0,1-4.541-1.831V6.094h-2.71V-15.85h2.476l.132,1.758a5.583,5.583,0,0,1,4.6-2.051,5.4,5.4,0,0,1,4.519,2.153A9.594,9.594,0,0,1,414.521-8Zm-2.71-.308a7,7,0,0,0-1.143-4.233,3.681,3.681,0,0,0-3.135-1.553,3.984,3.984,0,0,0-3.691,2.183v7.573a3.991,3.991,0,0,0,3.721,2.168,3.663,3.663,0,0,0,3.1-1.545A7.644,7.644,0,0,0,411.812-8.057Zm15.938,6.489a5.756,5.756,0,0,1-4.644,1.86,4.927,4.927,0,0,1-3.86-1.472,6.372,6.372,0,0,1-1.34-4.358V-15.85h2.71V-5.61q0,3.6,2.93,3.6,3.105,0,4.131-2.314V-15.85h2.71V0h-2.578Zm-2.2-20.933h3.281l-3.926,4.307h-2.183ZM447.92-7.749a9.424,9.424,0,0,1-1.67,5.837,5.336,5.336,0,0,1-4.482,2.2,5.525,5.525,0,0,1-4.644-2.124L436.992,0H434.5V-22.5h2.71v8.394a5.494,5.494,0,0,1,4.526-2.036,5.368,5.368,0,0,1,4.534,2.183,9.707,9.707,0,0,1,1.648,5.977Zm-2.71-.308a7.323,7.323,0,0,0-1.069-4.277,3.54,3.54,0,0,0-3.076-1.509,3.979,3.979,0,0,0-3.853,2.49V-4.5a4.09,4.09,0,0,0,3.882,2.49,3.52,3.52,0,0,0,3.032-1.509A7.787,7.787,0,0,0,445.21-8.057ZM454.277,0h-2.71V-22.5h2.71Zm7.28,0h-2.71V-15.85h2.71Zm-2.93-20.054a1.618,1.618,0,0,1,.4-1.113,1.512,1.512,0,0,1,1.194-.454,1.536,1.536,0,0,1,1.2.454,1.6,1.6,0,0,1,.41,1.113,1.548,1.548,0,0,1-.41,1.1,1.564,1.564,0,0,1-1.2.439,1.54,1.54,0,0,1-1.194-.439A1.564,1.564,0,0,1,458.628-20.054ZM472.251-1.919a3.9,3.9,0,0,0,2.534-.879,3.092,3.092,0,0,0,1.2-2.2h2.563a4.914,4.914,0,0,1-.937,2.593,6.175,6.175,0,0,1-2.307,1.963,6.657,6.657,0,0,1-3.054.732A6.529,6.529,0,0,1,467.1-1.868a8.606,8.606,0,0,1-1.912-5.911v-.454a9.542,9.542,0,0,1,.85-4.116,6.471,6.471,0,0,1,2.439-2.8,6.928,6.928,0,0,1,3.757-1,6.357,6.357,0,0,1,4.431,1.6A5.706,5.706,0,0,1,478.55-10.4h-2.563a3.735,3.735,0,0,0-1.165-2.527,3.623,3.623,0,0,0-2.585-.989,3.793,3.793,0,0,0-3.2,1.487,6.983,6.983,0,0,0-1.135,4.3v.513A6.843,6.843,0,0,0,469.028-3.4,3.811,3.811,0,0,0,472.251-1.919Zm8.628-6.152a9.362,9.362,0,0,1,.916-4.189,6.83,6.83,0,0,1,2.549-2.871,6.938,6.938,0,0,1,3.728-1.011,6.684,6.684,0,0,1,5.237,2.241,8.623,8.623,0,0,1,2,5.962v.19a9.443,9.443,0,0,1-.886,4.153,6.729,6.729,0,0,1-2.534,2.864A7.018,7.018,0,0,1,488.1.293a6.667,6.667,0,0,1-5.222-2.241,8.579,8.579,0,0,1-2-5.933Zm2.725.322a6.781,6.781,0,0,0,1.223,4.233,3.914,3.914,0,0,0,3.274,1.6,3.891,3.891,0,0,0,3.281-1.619A7.415,7.415,0,0,0,492.6-8.071,6.769,6.769,0,0,0,491.36-12.3a3.935,3.935,0,0,0-3.289-1.619,3.891,3.891,0,0,0-3.237,1.6A7.36,7.36,0,0,0,483.6-7.749Z" transform="translate(238.827 6033.205)" fill="#fff"/>
      <path id="Trazado_11179" data-name="Trazado 11179" d="M14.531-9.858H5.288V-2.3H16.025V0H2.476V-21.328h13.4v2.314H5.288v6.855h9.243ZM22.046,0h-2.71V-22.5h2.71ZM33.164-8.057a9.315,9.315,0,0,1,1.714-5.9,5.481,5.481,0,0,1,4.541-2.19,5.452,5.452,0,0,1,4.526,2.051l.132-1.758h2.476V-.381a6.448,6.448,0,0,1-1.824,4.849,6.73,6.73,0,0,1-4.9,1.772,8.152,8.152,0,0,1-3.354-.732A5.774,5.774,0,0,1,33.97,3.5l1.406-1.626a5.3,5.3,0,0,0,4.263,2.153,4.152,4.152,0,0,0,3.083-1.113A4.255,4.255,0,0,0,43.828-.22V-1.582A5.57,5.57,0,0,1,39.39.293a5.414,5.414,0,0,1-4.5-2.241A9.794,9.794,0,0,1,33.164-8.057Zm2.725.308a7.107,7.107,0,0,0,1.1,4.211,3.57,3.57,0,0,0,3.076,1.531,3.97,3.97,0,0,0,3.765-2.329v-7.236a4.016,4.016,0,0,0-3.735-2.271A3.6,3.6,0,0,0,37-12.3,7.74,7.74,0,0,0,35.889-7.749ZM60.425,0a5.693,5.693,0,0,1-.381-1.67A6.046,6.046,0,0,1,55.532.293a5.6,5.6,0,0,1-3.845-1.326,4.289,4.289,0,0,1-1.5-3.362A4.481,4.481,0,0,1,52.068-8.24a8.875,8.875,0,0,1,5.3-1.37H60v-1.245a3.044,3.044,0,0,0-.85-2.263,3.415,3.415,0,0,0-2.5-.842,3.952,3.952,0,0,0-2.432.732,2.158,2.158,0,0,0-.981,1.772H50.508a3.74,3.74,0,0,1,.842-2.292,5.749,5.749,0,0,1,2.285-1.75,7.688,7.688,0,0,1,3.171-.645,6.266,6.266,0,0,1,4.292,1.37A4.941,4.941,0,0,1,62.71-11v7.295a8.919,8.919,0,0,0,.557,3.472V0Zm-4.5-2.065a4.763,4.763,0,0,0,2.417-.659A3.987,3.987,0,0,0,60-4.438V-7.69H57.876q-4.98,0-4.98,2.915a2.467,2.467,0,0,0,.85,1.992A3.266,3.266,0,0,0,55.928-2.065ZM69.521-15.85l.088,1.992a5.776,5.776,0,0,1,4.746-2.285q5.024,0,5.068,5.669V0h-2.71V-10.488a3.649,3.649,0,0,0-.784-2.534,3.141,3.141,0,0,0-2.4-.82,3.911,3.911,0,0,0-2.314.7,4.775,4.775,0,0,0-1.553,1.846V0h-2.71V-15.85ZM93.3,0a5.693,5.693,0,0,1-.381-1.67A6.046,6.046,0,0,1,88.4.293a5.6,5.6,0,0,1-3.845-1.326,4.289,4.289,0,0,1-1.5-3.362A4.481,4.481,0,0,1,84.939-8.24a8.875,8.875,0,0,1,5.3-1.37h2.637v-1.245a3.044,3.044,0,0,0-.85-2.263,3.415,3.415,0,0,0-2.5-.842,3.952,3.952,0,0,0-2.432.732,2.158,2.158,0,0,0-.981,1.772H83.379a3.74,3.74,0,0,1,.842-2.292,5.749,5.749,0,0,1,2.285-1.75,7.688,7.688,0,0,1,3.171-.645,6.266,6.266,0,0,1,4.292,1.37A4.941,4.941,0,0,1,95.581-11v7.295a8.919,8.919,0,0,0,.557,3.472V0ZM88.8-2.065a4.763,4.763,0,0,0,2.417-.659,3.987,3.987,0,0,0,1.655-1.714V-7.69H90.747q-4.98,0-4.98,2.915a2.467,2.467,0,0,0,.85,1.992A3.266,3.266,0,0,0,88.8-2.065ZM99.17-8.057a9.285,9.285,0,0,1,1.729-5.867,5.466,5.466,0,0,1,4.526-2.219,5.5,5.5,0,0,1,4.409,1.9V-22.5h2.71V0h-2.49l-.132-1.7A5.519,5.519,0,0,1,105.4.293a5.414,5.414,0,0,1-4.49-2.256A9.39,9.39,0,0,1,99.17-7.852Zm2.71.308a7.03,7.03,0,0,0,1.113,4.219,3.6,3.6,0,0,0,3.076,1.523,3.953,3.953,0,0,0,3.765-2.314V-11.6a3.984,3.984,0,0,0-3.735-2.241,3.616,3.616,0,0,0-3.105,1.538A7.74,7.74,0,0,0,101.88-7.749Zm14.15-.322a9.362,9.362,0,0,1,.916-4.189,6.83,6.83,0,0,1,2.549-2.871,6.938,6.938,0,0,1,3.728-1.011,6.684,6.684,0,0,1,5.237,2.241,8.623,8.623,0,0,1,2,5.962v.19a9.443,9.443,0,0,1-.886,4.153,6.729,6.729,0,0,1-2.534,2.864A7.018,7.018,0,0,1,123.252.293a6.667,6.667,0,0,1-5.222-2.241,8.579,8.579,0,0,1-2-5.933Zm2.725.322a6.781,6.781,0,0,0,1.223,4.233,3.914,3.914,0,0,0,3.274,1.6,3.891,3.891,0,0,0,3.281-1.619,7.415,7.415,0,0,0,1.216-4.534,6.769,6.769,0,0,0-1.238-4.226,3.935,3.935,0,0,0-3.289-1.619,3.891,3.891,0,0,0-3.237,1.6A7.36,7.36,0,0,0,118.755-7.749Zm22.764-5.669a8.121,8.121,0,0,0-1.333-.1,3.571,3.571,0,0,0-3.618,2.271V0h-2.71V-15.85h2.637l.044,1.831a4.22,4.22,0,0,1,3.779-2.124,2.769,2.769,0,0,1,1.2.205Zm9.2,5.347a9.362,9.362,0,0,1,.916-4.189,6.83,6.83,0,0,1,2.549-2.871,6.938,6.938,0,0,1,3.728-1.011,6.684,6.684,0,0,1,5.237,2.241,8.623,8.623,0,0,1,2,5.962v.19A9.443,9.443,0,0,1,164.26-3.6a6.729,6.729,0,0,1-2.534,2.864A7.018,7.018,0,0,1,157.939.293a6.667,6.667,0,0,1-5.222-2.241,8.579,8.579,0,0,1-2-5.933Zm2.725.322a6.781,6.781,0,0,0,1.223,4.233,3.914,3.914,0,0,0,3.274,1.6,3.891,3.891,0,0,0,3.281-1.619,7.415,7.415,0,0,0,1.216-4.534A6.769,6.769,0,0,0,161.2-12.3a3.935,3.935,0,0,0-3.289-1.619,3.891,3.891,0,0,0-3.237,1.6A7.36,7.36,0,0,0,153.442-7.749ZM169.878,0V-13.755h-2.5V-15.85h2.5v-1.626a5.4,5.4,0,0,1,1.362-3.94,5.146,5.146,0,0,1,3.853-1.392,7.112,7.112,0,0,1,1.86.249l-.146,2.2a7.783,7.783,0,0,0-1.465-.132,2.649,2.649,0,0,0-2.036.769,3.113,3.113,0,0,0-.718,2.2v1.67h3.384v2.095h-3.384V0Zm16.743-13.418a8.121,8.121,0,0,0-1.333-.1,3.571,3.571,0,0,0-3.618,2.271V0h-2.71V-15.85H181.6l.044,1.831a4.22,4.22,0,0,1,3.779-2.124,2.769,2.769,0,0,1,1.2.205ZM195.41.293a6.925,6.925,0,0,1-5.244-2.117,7.856,7.856,0,0,1-2.021-5.662v-.5a9.511,9.511,0,0,1,.9-4.211,7.028,7.028,0,0,1,2.52-2.9,6.335,6.335,0,0,1,3.508-1.047,5.936,5.936,0,0,1,4.8,2.036,8.816,8.816,0,0,1,1.714,5.83v1.128H190.854a5.634,5.634,0,0,0,1.37,3.787,4.305,4.305,0,0,0,3.333,1.443,4.72,4.72,0,0,0,2.432-.586,6.11,6.11,0,0,0,1.743-1.553l1.655,1.289A6.656,6.656,0,0,1,195.41.293Zm-.337-14.209a3.615,3.615,0,0,0-2.754,1.194,5.8,5.8,0,0,0-1.377,3.347h7.939V-9.58a5.162,5.162,0,0,0-1.113-3.2A3.4,3.4,0,0,0,195.073-13.916Zm16.011,12a3.9,3.9,0,0,0,2.534-.879,3.092,3.092,0,0,0,1.2-2.2h2.563a4.914,4.914,0,0,1-.937,2.593,6.175,6.175,0,0,1-2.307,1.963,6.657,6.657,0,0,1-3.054.732,6.529,6.529,0,0,1-5.149-2.161,8.606,8.606,0,0,1-1.912-5.911v-.454a9.542,9.542,0,0,1,.85-4.116,6.471,6.471,0,0,1,2.439-2.8,6.928,6.928,0,0,1,3.757-1,6.357,6.357,0,0,1,4.431,1.6,5.706,5.706,0,0,1,1.882,4.146h-2.563a3.735,3.735,0,0,0-1.165-2.527,3.623,3.623,0,0,0-2.585-.989,3.793,3.793,0,0,0-3.2,1.487,6.983,6.983,0,0,0-1.135,4.3v.513A6.843,6.843,0,0,0,207.861-3.4,3.811,3.811,0,0,0,211.084-1.919ZM223.374,0h-2.71V-15.85h2.71Zm-2.93-20.054a1.618,1.618,0,0,1,.4-1.113,1.512,1.512,0,0,1,1.194-.454,1.536,1.536,0,0,1,1.2.454,1.6,1.6,0,0,1,.41,1.113,1.548,1.548,0,0,1-.41,1.1,1.564,1.564,0,0,1-1.2.439,1.54,1.54,0,0,1-1.194-.439A1.564,1.564,0,0,1,220.444-20.054Zm6.548,11.982a9.362,9.362,0,0,1,.916-4.189,6.83,6.83,0,0,1,2.549-2.871,6.938,6.938,0,0,1,3.728-1.011,6.684,6.684,0,0,1,5.237,2.241,8.623,8.623,0,0,1,2,5.962v.19a9.443,9.443,0,0,1-.886,4.153A6.729,6.729,0,0,1,238-.732,7.018,7.018,0,0,1,234.214.293a6.667,6.667,0,0,1-5.222-2.241,8.579,8.579,0,0,1-2-5.933Zm2.725.322a6.781,6.781,0,0,0,1.223,4.233,3.914,3.914,0,0,0,3.274,1.6A3.891,3.891,0,0,0,237.5-3.538a7.415,7.415,0,0,0,1.216-4.534,6.769,6.769,0,0,0-1.238-4.226,3.935,3.935,0,0,0-3.289-1.619,3.891,3.891,0,0,0-3.237,1.6A7.36,7.36,0,0,0,229.717-7.749Zm5.7-14.751H238.7l-3.926,4.307h-2.183ZM258.823.293a6.925,6.925,0,0,1-5.244-2.117,7.856,7.856,0,0,1-2.021-5.662v-.5a9.511,9.511,0,0,1,.9-4.211,7.028,7.028,0,0,1,2.52-2.9,6.335,6.335,0,0,1,3.508-1.047,5.936,5.936,0,0,1,4.8,2.036A8.816,8.816,0,0,1,265-8.276v1.128H254.268a5.634,5.634,0,0,0,1.37,3.787,4.305,4.305,0,0,0,3.333,1.443A4.72,4.72,0,0,0,261.4-2.5a6.11,6.11,0,0,0,1.743-1.553L264.8-2.769A6.656,6.656,0,0,1,258.823.293Zm-.337-14.209a3.615,3.615,0,0,0-2.754,1.194,5.8,5.8,0,0,0-1.377,3.347h7.939V-9.58a5.162,5.162,0,0,0-1.113-3.2A3.4,3.4,0,0,0,258.486-13.916ZM271.084,0h-2.71V-22.5h2.71Zm15.439-19.687v3.838h2.959v2.095h-2.959v9.829a2.2,2.2,0,0,0,.4,1.428,1.666,1.666,0,0,0,1.348.476,6.561,6.561,0,0,0,1.289-.176V0a7.856,7.856,0,0,1-2.08.293,3.375,3.375,0,0,1-2.739-1.1,4.72,4.72,0,0,1-.923-3.12v-9.829h-2.886V-15.85h2.886v-3.838Zm13.784,6.27a8.121,8.121,0,0,0-1.333-.1,3.571,3.571,0,0,0-3.618,2.271V0h-2.71V-15.85h2.637l.044,1.831a4.22,4.22,0,0,1,3.779-2.124,2.769,2.769,0,0,1,1.2.205Zm1.479,5.347a9.362,9.362,0,0,1,.916-4.189,6.83,6.83,0,0,1,2.549-2.871,6.938,6.938,0,0,1,3.728-1.011,6.684,6.684,0,0,1,5.237,2.241,8.623,8.623,0,0,1,2,5.962v.19A9.443,9.443,0,0,1,315.33-3.6,6.729,6.729,0,0,1,312.8-.732,7.018,7.018,0,0,1,309.009.293a6.667,6.667,0,0,1-5.222-2.241,8.579,8.579,0,0,1-2-5.933Zm2.725.322a6.781,6.781,0,0,0,1.223,4.233,3.914,3.914,0,0,0,3.274,1.6,3.891,3.891,0,0,0,3.281-1.619,7.415,7.415,0,0,0,1.216-4.534,6.769,6.769,0,0,0-1.238-4.226,3.935,3.935,0,0,0-3.289-1.619,3.891,3.891,0,0,0-3.237,1.6A7.36,7.36,0,0,0,304.512-7.749ZM320.947,0V-13.755h-2.5V-15.85h2.5v-1.626a5.4,5.4,0,0,1,1.362-3.94,5.146,5.146,0,0,1,3.853-1.392,7.112,7.112,0,0,1,1.86.249l-.146,2.2a7.783,7.783,0,0,0-1.465-.132,2.649,2.649,0,0,0-2.036.769,3.113,3.113,0,0,0-.718,2.2v1.67h3.384v2.095h-3.384V0Zm15.308.293a6.925,6.925,0,0,1-5.244-2.117,7.856,7.856,0,0,1-2.021-5.662v-.5a9.511,9.511,0,0,1,.9-4.211,7.028,7.028,0,0,1,2.52-2.9,6.335,6.335,0,0,1,3.508-1.047,5.936,5.936,0,0,1,4.8,2.036,8.816,8.816,0,0,1,1.714,5.83v1.128H331.7a5.634,5.634,0,0,0,1.37,3.787A4.305,4.305,0,0,0,336.4-1.919a4.72,4.72,0,0,0,2.432-.586,6.11,6.11,0,0,0,1.743-1.553l1.655,1.289A6.656,6.656,0,0,1,336.255.293Zm-.337-14.209a3.615,3.615,0,0,0-2.754,1.194,5.8,5.8,0,0,0-1.377,3.347h7.939V-9.58a5.162,5.162,0,0,0-1.113-3.2A3.4,3.4,0,0,0,335.918-13.916Zm8.936,5.845a9.362,9.362,0,0,1,.916-4.189,6.83,6.83,0,0,1,2.549-2.871,6.938,6.938,0,0,1,3.728-1.011,6.684,6.684,0,0,1,5.237,2.241,8.623,8.623,0,0,1,2,5.962v.19A9.443,9.443,0,0,1,358.4-3.6a6.729,6.729,0,0,1-2.534,2.864A7.018,7.018,0,0,1,352.075.293a6.667,6.667,0,0,1-5.222-2.241,8.579,8.579,0,0,1-2-5.933Zm2.725.322A6.781,6.781,0,0,0,348.8-3.516a3.914,3.914,0,0,0,3.274,1.6,3.891,3.891,0,0,0,3.281-1.619,7.415,7.415,0,0,0,1.216-4.534,6.769,6.769,0,0,0-1.238-4.226,3.935,3.935,0,0,0-3.289-1.619,3.891,3.891,0,0,0-3.237,1.6A7.36,7.36,0,0,0,347.578-7.749Z" transform="translate(238.827 6033.059)" fill="#02255f"/>
    </g>
    <g id="Grupo_13605" data-name="Grupo 13605" transform="translate(0 -35.535)">
      <path id="Trazado_10626" data-name="Trazado 10626" d="M-.4,0,230.343,6.944,229.26,57-.635,46.309Z" transform="matrix(0.999, -0.035, 0.035, 0.999, 235.635, 6170.609)" fill="#02255f"/>
      <path id="Trazado_11182" data-name="Trazado 11182" d="M11.81-4.5A4.78,4.78,0,0,1,10.2-1.067,5.653,5.653,0,0,1,6.374.186,5.083,5.083,0,0,1,2.287-1.563,7.171,7.171,0,0,1,.8-6.364V-7.19a8.1,8.1,0,0,1,.687-3.433A5.145,5.145,0,0,1,3.447-12.9a5.5,5.5,0,0,1,2.964-.793,5.507,5.507,0,0,1,3.767,1.252,5.137,5.137,0,0,1,1.651,3.516H9.045a2.821,2.821,0,0,0-.728-1.9,2.7,2.7,0,0,0-1.906-.589,2.365,2.365,0,0,0-2.083,1,5.589,5.589,0,0,0-.71,3.094V-6.3a5.982,5.982,0,0,0,.663,3.2A2.321,2.321,0,0,0,6.374-2.087,2.748,2.748,0,0,0,8.3-2.677,2.661,2.661,0,0,0,9.027-4.5Zm1.234-.612a5.953,5.953,0,0,1,.575-2.663,4.211,4.211,0,0,1,1.656-1.809,4.831,4.831,0,0,1,2.51-.64A4.571,4.571,0,0,1,21.1-8.98,4.989,4.989,0,0,1,22.535-5.6l.019.687a5.247,5.247,0,0,1-1.29,3.706A4.482,4.482,0,0,1,17.8.186a4.5,4.5,0,0,1-3.465-1.392,5.339,5.339,0,0,1-1.294-3.785Zm2.681.195a3.742,3.742,0,0,0,.538,2.185,1.776,1.776,0,0,0,1.54.756,1.78,1.78,0,0,0,1.521-.747,4.1,4.1,0,0,0,.547-2.389,3.7,3.7,0,0,0-.547-2.171,1.78,1.78,0,0,0-1.54-.77,1.751,1.751,0,0,0-1.521.765A4.164,4.164,0,0,0,15.725-4.917Zm10.994-5.121L26.8-8.916a3.528,3.528,0,0,1,2.885-1.308A2.677,2.677,0,0,1,32.35-8.693a3.447,3.447,0,0,1,3.015-1.531,2.994,2.994,0,0,1,2.431.951,4.371,4.371,0,0,1,.8,2.862V0H35.9V-6.4a1.911,1.911,0,0,0-.334-1.248,1.48,1.48,0,0,0-1.178-.394,1.673,1.673,0,0,0-1.67,1.15L32.73,0H30.049V-6.392a1.888,1.888,0,0,0-.343-1.262,1.5,1.5,0,0,0-1.169-.39,1.738,1.738,0,0,0-1.651.946V0H24.2V-10.038ZM49.689-4.926a6.02,6.02,0,0,1-1.053,3.716,3.376,3.376,0,0,1-2.844,1.4A3.127,3.127,0,0,1,43.334-.872V3.859H40.653v-13.9H43.14l.093.983a3.151,3.151,0,0,1,2.542-1.169A3.4,3.4,0,0,1,48.66-8.851a6.183,6.183,0,0,1,1.03,3.785Zm-2.681-.195a3.951,3.951,0,0,0-.5-2.162,1.617,1.617,0,0,0-1.443-.761,1.756,1.756,0,0,0-1.735.965v4.11a1.786,1.786,0,0,0,1.753.993Q47.008-1.976,47.008-5.121ZM54.18,0h-2.69V-14.25h2.69Zm6.828.186a4.928,4.928,0,0,1-3.595-1.354,4.815,4.815,0,0,1-1.387-3.609v-.26a6.064,6.064,0,0,1,.584-2.7,4.289,4.289,0,0,1,1.656-1.837,4.648,4.648,0,0,1,2.445-.645,4.166,4.166,0,0,1,3.242,1.3,5.278,5.278,0,0,1,1.183,3.683v1.095H58.744a2.491,2.491,0,0,0,.784,1.577,2.37,2.37,0,0,0,1.656.594A2.894,2.894,0,0,0,63.605-3.1l1.317,1.475A4.025,4.025,0,0,1,63.29-.292,5.357,5.357,0,0,1,61.008.186ZM60.7-8.053a1.679,1.679,0,0,0-1.294.538,2.78,2.78,0,0,0-.635,1.54H62.5v-.213a1.982,1.982,0,0,0-.482-1.378A1.733,1.733,0,0,0,60.7-8.053Zm8.47-1.985.083,1.123a3.528,3.528,0,0,1,2.885-1.308A2.677,2.677,0,0,1,74.8-8.693a3.447,3.447,0,0,1,3.015-1.531,2.994,2.994,0,0,1,2.431.951,4.371,4.371,0,0,1,.8,2.862V0h-2.69V-6.4a1.911,1.911,0,0,0-.334-1.248,1.48,1.48,0,0,0-1.178-.394,1.673,1.673,0,0,0-1.67,1.15L75.184,0H72.5V-6.392a1.888,1.888,0,0,0-.343-1.262,1.5,1.5,0,0,0-1.169-.39,1.738,1.738,0,0,0-1.651.946V0H66.658V-10.038ZM87.727.186a4.928,4.928,0,0,1-3.595-1.354,4.815,4.815,0,0,1-1.387-3.609v-.26a6.064,6.064,0,0,1,.584-2.7,4.289,4.289,0,0,1,1.656-1.837,4.648,4.648,0,0,1,2.445-.645,4.166,4.166,0,0,1,3.242,1.3,5.278,5.278,0,0,1,1.183,3.683v1.095H85.463a2.491,2.491,0,0,0,.784,1.577,2.37,2.37,0,0,0,1.656.594A2.894,2.894,0,0,0,90.324-3.1l1.317,1.475A4.025,4.025,0,0,1,90.009-.292,5.357,5.357,0,0,1,87.727.186ZM87.42-8.053a1.679,1.679,0,0,0-1.294.538,2.78,2.78,0,0,0-.635,1.54H89.22v-.213a1.982,1.982,0,0,0-.482-1.378A1.733,1.733,0,0,0,87.42-8.053Zm8.424-1.985.083,1.16a3.5,3.5,0,0,1,2.885-1.345,2.913,2.913,0,0,1,2.375.937,4.372,4.372,0,0,1,.8,2.8V0H99.3V-6.42a1.739,1.739,0,0,0-.371-1.239A1.661,1.661,0,0,0,97.7-8.043a1.844,1.844,0,0,0-1.7.965V0H93.321V-10.038Zm11.383-2.468v2.468h1.716v1.967h-1.716v5.01a1.2,1.2,0,0,0,.213.8,1.072,1.072,0,0,0,.816.241,4.276,4.276,0,0,0,.789-.065V-.056a5.52,5.52,0,0,1-1.624.241,2.56,2.56,0,0,1-2.876-2.848V-8.071h-1.466v-1.967h1.466v-2.468Zm2.514,7.394a5.953,5.953,0,0,1,.575-2.663,4.211,4.211,0,0,1,1.656-1.809,4.831,4.831,0,0,1,2.51-.64A4.571,4.571,0,0,1,117.8-8.98,4.989,4.989,0,0,1,119.232-5.6l.019.687a5.247,5.247,0,0,1-1.29,3.706,4.482,4.482,0,0,1-3.46,1.4,4.5,4.5,0,0,1-3.465-1.392,5.339,5.339,0,0,1-1.294-3.785Zm2.681.195a3.742,3.742,0,0,0,.538,2.185,1.776,1.776,0,0,0,1.54.756,1.78,1.78,0,0,0,1.521-.747,4.1,4.1,0,0,0,.547-2.389,3.7,3.7,0,0,0-.547-2.171,1.78,1.78,0,0,0-1.54-.77,1.751,1.751,0,0,0-1.521.765A4.164,4.164,0,0,0,112.423-4.917ZM128.463,0h-2.69V-10.038h2.69Zm-2.848-12.636a1.32,1.32,0,0,1,.4-.993,1.516,1.516,0,0,1,1.1-.39,1.52,1.52,0,0,1,1.095.39,1.313,1.313,0,0,1,.408.993,1.316,1.316,0,0,1-.413,1,1.523,1.523,0,0,1-1.09.39,1.523,1.523,0,0,1-1.09-.39A1.316,1.316,0,0,1,125.615-12.636Zm7.524,2.6.083,1.16a3.5,3.5,0,0,1,2.885-1.345,2.913,2.913,0,0,1,2.375.937,4.372,4.372,0,0,1,.8,2.8V0H136.6V-6.42a1.739,1.739,0,0,0-.371-1.239,1.661,1.661,0,0,0-1.234-.385,1.844,1.844,0,0,0-1.7.965V0h-2.681V-10.038ZM140.9-5.093a6.049,6.049,0,0,1,1.053-3.739,3.417,3.417,0,0,1,2.881-1.392,3.074,3.074,0,0,1,2.421,1.095V-14.25h2.69V0h-2.421l-.13-1.067A3.155,3.155,0,0,1,144.81.186a3.407,3.407,0,0,1-2.844-1.4A6.244,6.244,0,0,1,140.9-5.093Zm2.681.195a3.952,3.952,0,0,0,.492,2.162,1.6,1.6,0,0,0,1.429.751,1.794,1.794,0,0,0,1.753-1.048V-7a1.769,1.769,0,0,0-1.735-1.048Q143.576-8.043,143.576-4.9ZM154.848,0h-2.69V-10.038h2.69ZM152-12.636a1.32,1.32,0,0,1,.4-.993,1.516,1.516,0,0,1,1.1-.39,1.52,1.52,0,0,1,1.095.39,1.313,1.313,0,0,1,.408.993,1.316,1.316,0,0,1-.413,1,1.523,1.523,0,0,1-1.09.39,1.523,1.523,0,0,1-1.09-.39A1.316,1.316,0,0,1,152-12.636Zm10.7,5.112a7.284,7.284,0,0,0-.965-.074,1.964,1.964,0,0,0-1.995,1.03V0h-2.681V-10.038h2.533l.074,1.2a2.484,2.484,0,0,1,2.236-1.382,2.809,2.809,0,0,1,.835.121ZM168.43.186a4.928,4.928,0,0,1-3.595-1.354,4.815,4.815,0,0,1-1.387-3.609v-.26a6.064,6.064,0,0,1,.584-2.7,4.289,4.289,0,0,1,1.656-1.837,4.648,4.648,0,0,1,2.445-.645,4.166,4.166,0,0,1,3.242,1.3,5.278,5.278,0,0,1,1.183,3.683v1.095h-6.392a2.491,2.491,0,0,0,.784,1.577,2.37,2.37,0,0,0,1.656.594A2.894,2.894,0,0,0,171.028-3.1l1.317,1.475a4.025,4.025,0,0,1-1.633,1.331A5.357,5.357,0,0,1,168.43.186Zm-.306-8.238a1.679,1.679,0,0,0-1.294.538,2.78,2.78,0,0,0-.635,1.54h3.729v-.213a1.982,1.982,0,0,0-.482-1.378A1.733,1.733,0,0,0,168.124-8.053Zm10.131,6.077a1.759,1.759,0,0,0,1.206-.408,1.43,1.43,0,0,0,.482-1.085h2.514A3.439,3.439,0,0,1,181.9-1.6a3.673,3.673,0,0,1-1.5,1.317,4.689,4.689,0,0,1-2.1.469,4.358,4.358,0,0,1-3.4-1.368,5.415,5.415,0,0,1-1.243-3.781V-5.14a5.353,5.353,0,0,1,1.234-3.7,4.307,4.307,0,0,1,3.386-1.382,4.222,4.222,0,0,1,3.02,1.072A3.794,3.794,0,0,1,182.458-6.3h-2.514a1.827,1.827,0,0,0-.482-1.266,1.613,1.613,0,0,0-1.225-.487,1.616,1.616,0,0,0-1.415.682,3.947,3.947,0,0,0-.478,2.213v.278a4,4,0,0,0,.473,2.227A1.636,1.636,0,0,0,178.255-1.976Zm8.943-10.53v2.468h1.716v1.967H187.2v5.01a1.2,1.2,0,0,0,.213.8,1.072,1.072,0,0,0,.816.241,4.276,4.276,0,0,0,.789-.065V-.056a5.519,5.519,0,0,1-1.624.241,2.56,2.56,0,0,1-2.876-2.848V-8.071h-1.466v-1.967h1.466v-2.468Zm2.514,7.394a5.953,5.953,0,0,1,.575-2.663,4.211,4.211,0,0,1,1.656-1.809,4.831,4.831,0,0,1,2.51-.64A4.571,4.571,0,0,1,197.77-8.98,4.989,4.989,0,0,1,199.2-5.6l.019.687a5.247,5.247,0,0,1-1.29,3.706,4.482,4.482,0,0,1-3.46,1.4,4.5,4.5,0,0,1-3.465-1.392,5.339,5.339,0,0,1-1.294-3.785Zm2.681.195a3.742,3.742,0,0,0,.538,2.185,1.776,1.776,0,0,0,1.54.756,1.78,1.78,0,0,0,1.521-.747,4.094,4.094,0,0,0,.547-2.389,3.7,3.7,0,0,0-.547-2.171,1.78,1.78,0,0,0-1.54-.77,1.751,1.751,0,0,0-1.521.765A4.164,4.164,0,0,0,192.394-4.917Z" transform="translate(243.827 6238.923)" fill="#02255f"/>
      <path id="Trazado_11180" data-name="Trazado 11180" d="M15.439,27.251a9.49,9.49,0,0,1-1.655,5.83A5.305,5.305,0,0,1,9.3,35.293a5.813,5.813,0,0,1-4.541-1.831v7.632H2.051V19.15H4.526l.132,1.758a5.583,5.583,0,0,1,4.6-2.051,5.4,5.4,0,0,1,4.519,2.153A9.594,9.594,0,0,1,15.439,27Zm-2.71-.308a7,7,0,0,0-1.143-4.233,3.681,3.681,0,0,0-3.135-1.553A3.984,3.984,0,0,0,4.761,23.34v7.573a3.991,3.991,0,0,0,3.721,2.168,3.663,3.663,0,0,0,3.1-1.545A7.644,7.644,0,0,0,12.729,26.943ZM28.667,35a5.693,5.693,0,0,1-.381-1.67,6.046,6.046,0,0,1-4.512,1.963,5.6,5.6,0,0,1-3.845-1.326,4.289,4.289,0,0,1-1.5-3.362A4.481,4.481,0,0,1,20.31,26.76a8.875,8.875,0,0,1,5.3-1.37h2.637V24.146a3.044,3.044,0,0,0-.85-2.263,3.415,3.415,0,0,0-2.5-.842,3.952,3.952,0,0,0-2.432.732,2.158,2.158,0,0,0-.981,1.772H18.75a3.74,3.74,0,0,1,.842-2.292,5.749,5.749,0,0,1,2.285-1.75,7.688,7.688,0,0,1,3.171-.645,6.266,6.266,0,0,1,4.292,1.37A4.941,4.941,0,0,1,30.952,24v7.295a8.919,8.919,0,0,0,.557,3.472V35Zm-4.5-2.065a4.763,4.763,0,0,0,2.417-.659,3.987,3.987,0,0,0,1.655-1.714V27.31H26.118q-4.98,0-4.98,2.915a2.467,2.467,0,0,0,.85,1.992A3.266,3.266,0,0,0,24.17,32.935ZM42.861,21.582a8.121,8.121,0,0,0-1.333-.1A3.571,3.571,0,0,0,37.91,23.75V35H35.2V19.15h2.637l.044,1.831a4.22,4.22,0,0,1,3.779-2.124,2.769,2.769,0,0,1,1.2.205ZM54.551,35a5.693,5.693,0,0,1-.381-1.67,6.046,6.046,0,0,1-4.512,1.963,5.6,5.6,0,0,1-3.845-1.326,4.289,4.289,0,0,1-1.5-3.362,4.481,4.481,0,0,1,1.882-3.845,8.875,8.875,0,0,1,5.3-1.37h2.637V24.146a3.044,3.044,0,0,0-.85-2.263,3.415,3.415,0,0,0-2.5-.842,3.952,3.952,0,0,0-2.432.732,2.158,2.158,0,0,0-.981,1.772H44.634a3.74,3.74,0,0,1,.842-2.292,5.749,5.749,0,0,1,2.285-1.75,7.688,7.688,0,0,1,3.171-.645,6.266,6.266,0,0,1,4.292,1.37A4.941,4.941,0,0,1,56.836,24v7.295a8.919,8.919,0,0,0,.557,3.472V35Zm-4.5-2.065a4.763,4.763,0,0,0,2.417-.659,3.987,3.987,0,0,0,1.655-1.714V27.31H52q-4.98,0-4.98,2.915a2.467,2.467,0,0,0,.85,1.992A3.266,3.266,0,0,0,50.054,32.935ZM77.739,30.8a2,2,0,0,0-.828-1.707,7.966,7.966,0,0,0-2.886-1.047,13.644,13.644,0,0,1-3.267-1.055,4.647,4.647,0,0,1-1.787-1.465,3.5,3.5,0,0,1-.579-2.021,4.111,4.111,0,0,1,1.648-3.3,6.436,6.436,0,0,1,4.211-1.348,6.623,6.623,0,0,1,4.373,1.392,4.42,4.42,0,0,1,1.677,3.56H77.578a2.446,2.446,0,0,0-.945-1.919,3.54,3.54,0,0,0-2.38-.806,3.7,3.7,0,0,0-2.314.645,2.029,2.029,0,0,0-.835,1.685,1.644,1.644,0,0,0,.776,1.479,9.552,9.552,0,0,0,2.805.952,14.616,14.616,0,0,1,3.289,1.084,4.8,4.8,0,0,1,1.868,1.516,3.728,3.728,0,0,1,.608,2.161,4.056,4.056,0,0,1-1.7,3.406,7.128,7.128,0,0,1-4.409,1.282,7.981,7.981,0,0,1-3.369-.674,5.48,5.48,0,0,1-2.292-1.882,4.537,4.537,0,0,1-.828-2.615h2.71a2.806,2.806,0,0,0,1.091,2.161,4.234,4.234,0,0,0,2.688.8,4.37,4.37,0,0,0,2.468-.623A1.913,1.913,0,0,0,77.739,30.8Zm16.025,2.637a5.756,5.756,0,0,1-4.644,1.86,4.927,4.927,0,0,1-3.86-1.472,6.372,6.372,0,0,1-1.34-4.358V19.15h2.71V29.39q0,3.6,2.93,3.6,3.105,0,4.131-2.314V19.15H96.4V35H93.823Zm19.409-2.109L117.1,19.15h2.769L114.185,35h-2.065l-5.742-15.85h2.769Zm15.688,3.97a6.925,6.925,0,0,1-5.244-2.117,7.856,7.856,0,0,1-2.021-5.662v-.5a9.511,9.511,0,0,1,.9-4.211,7.028,7.028,0,0,1,2.52-2.9,6.335,6.335,0,0,1,3.508-1.047,5.936,5.936,0,0,1,4.8,2.036,8.816,8.816,0,0,1,1.714,5.83v1.128H124.307a5.634,5.634,0,0,0,1.37,3.787,4.305,4.305,0,0,0,3.333,1.443,4.72,4.72,0,0,0,2.432-.586,6.11,6.11,0,0,0,1.743-1.553l1.655,1.289A6.656,6.656,0,0,1,128.862,35.293Zm-.337-14.209a3.615,3.615,0,0,0-2.754,1.194,5.8,5.8,0,0,0-1.377,3.347h7.939V25.42a5.162,5.162,0,0,0-1.113-3.2A3.4,3.4,0,0,0,128.525,21.084Zm12.363-.015a5.762,5.762,0,0,1,4.688-2.212q5.024,0,5.068,5.669V35h-2.71V24.512a3.649,3.649,0,0,0-.784-2.534,3.141,3.141,0,0,0-2.4-.82,3.911,3.911,0,0,0-2.314.7,4.775,4.775,0,0,0-1.553,1.846V35h-2.71V12.5h2.71ZM157.646,35h-2.725V19.15h2.725Zm.029-22.485h3.281l-3.926,4.307h-2.183Zm10.8,20.566a3.9,3.9,0,0,0,2.534-.879,3.092,3.092,0,0,0,1.2-2.2h2.563a4.914,4.914,0,0,1-.937,2.593,6.175,6.175,0,0,1-2.307,1.963,6.657,6.657,0,0,1-3.054.732,6.529,6.529,0,0,1-5.149-2.161,8.606,8.606,0,0,1-1.912-5.911v-.454a9.542,9.542,0,0,1,.85-4.116,6.471,6.471,0,0,1,2.439-2.8,6.928,6.928,0,0,1,3.757-1,6.357,6.357,0,0,1,4.431,1.6,5.706,5.706,0,0,1,1.882,4.146h-2.563a3.735,3.735,0,0,0-1.165-2.527,3.623,3.623,0,0,0-2.585-.989,3.793,3.793,0,0,0-3.2,1.487,6.983,6.983,0,0,0-1.135,4.3v.513a6.843,6.843,0,0,0,1.128,4.219A3.811,3.811,0,0,0,168.472,33.081Zm19.131.352a5.756,5.756,0,0,1-4.644,1.86,4.927,4.927,0,0,1-3.86-1.472,6.372,6.372,0,0,1-1.34-4.358V19.15h2.71V29.39q0,3.6,2.93,3.6,3.105,0,4.131-2.314V19.15h2.71V35h-2.578ZM197.3,35h-2.71V12.5h2.71Zm3.618-8.071a9.362,9.362,0,0,1,.916-4.189,6.83,6.83,0,0,1,2.549-2.871,6.938,6.938,0,0,1,3.728-1.011,6.684,6.684,0,0,1,5.237,2.241,8.623,8.623,0,0,1,2,5.962v.19a9.443,9.443,0,0,1-.886,4.153,6.729,6.729,0,0,1-2.534,2.864,7.018,7.018,0,0,1-3.787,1.025,6.667,6.667,0,0,1-5.222-2.241,8.579,8.579,0,0,1-2-5.933Zm2.725.322a6.781,6.781,0,0,0,1.223,4.233,4.145,4.145,0,0,0,6.555-.022,7.415,7.415,0,0,0,1.216-4.534A6.769,6.769,0,0,0,211.4,22.7a3.935,3.935,0,0,0-3.289-1.619,3.891,3.891,0,0,0-3.237,1.6A7.36,7.36,0,0,0,203.643,27.251Z" transform="translate(240.949 6166.287)" fill="#fff"/>
      <path id="Trazado_11181" data-name="Trazado 11181" d="M14.531-9.858H5.288V-2.3H16.025V0H2.476V-21.328h13.4v2.314H5.288v6.855h9.243ZM22.046,0h-2.71V-22.5h2.71Zm18.12-1.919A3.9,3.9,0,0,0,42.7-2.8,3.092,3.092,0,0,0,43.9-5h2.563A4.914,4.914,0,0,1,45.527-2.4,6.175,6.175,0,0,1,43.22-.439a6.657,6.657,0,0,1-3.054.732,6.529,6.529,0,0,1-5.149-2.161,8.606,8.606,0,0,1-1.912-5.911v-.454a9.542,9.542,0,0,1,.85-4.116,6.471,6.471,0,0,1,2.439-2.8,6.928,6.928,0,0,1,3.757-1,6.357,6.357,0,0,1,4.431,1.6A5.706,5.706,0,0,1,46.465-10.4H43.9a3.735,3.735,0,0,0-1.165-2.527,3.623,3.623,0,0,0-2.585-.989,3.793,3.793,0,0,0-3.2,1.487,6.983,6.983,0,0,0-1.135,4.3v.513A6.843,6.843,0,0,0,36.943-3.4,3.811,3.811,0,0,0,40.166-1.919Zm8.628-6.152a9.362,9.362,0,0,1,.916-4.189,6.83,6.83,0,0,1,2.549-2.871,6.938,6.938,0,0,1,3.728-1.011A6.684,6.684,0,0,1,61.223-13.9a8.623,8.623,0,0,1,2,5.962v.19A9.443,9.443,0,0,1,62.336-3.6,6.729,6.729,0,0,1,59.8-.732,7.018,7.018,0,0,1,56.016.293a6.667,6.667,0,0,1-5.222-2.241,8.579,8.579,0,0,1-2-5.933Zm2.725.322a6.781,6.781,0,0,0,1.223,4.233,3.914,3.914,0,0,0,3.274,1.6A3.891,3.891,0,0,0,59.3-3.538a7.415,7.415,0,0,0,1.216-4.534A6.769,6.769,0,0,0,59.275-12.3a3.935,3.935,0,0,0-3.289-1.619,3.891,3.891,0,0,0-3.237,1.6A7.36,7.36,0,0,0,51.519-7.749Zm17.666-8.1.088,1.992a5.776,5.776,0,0,1,4.746-2.285q5.024,0,5.068,5.669V0h-2.71V-10.488a3.649,3.649,0,0,0-.784-2.534,3.141,3.141,0,0,0-2.4-.82,3.911,3.911,0,0,0-2.314.7,4.775,4.775,0,0,0-1.553,1.846V0h-2.71V-15.85Zm13.33,7.793a9.285,9.285,0,0,1,1.729-5.867,5.466,5.466,0,0,1,4.526-2.219,5.5,5.5,0,0,1,4.409,1.9V-22.5h2.71V0H93.4l-.132-1.7A5.519,5.519,0,0,1,88.74.293a5.414,5.414,0,0,1-4.49-2.256,9.39,9.39,0,0,1-1.736-5.889Zm2.71.308A7.03,7.03,0,0,0,86.338-3.53a3.6,3.6,0,0,0,3.076,1.523,3.953,3.953,0,0,0,3.765-2.314V-11.6a3.984,3.984,0,0,0-3.735-2.241A3.616,3.616,0,0,0,86.338-12.3,7.74,7.74,0,0,0,85.225-7.749Zm24.653,6.182a5.756,5.756,0,0,1-4.644,1.86,4.927,4.927,0,0,1-3.86-1.472,6.372,6.372,0,0,1-1.34-4.358V-15.85h2.71V-5.61q0,3.6,2.93,3.6,3.105,0,4.131-2.314V-15.85h2.71V0h-2.578Zm13.11-.352a3.9,3.9,0,0,0,2.534-.879,3.092,3.092,0,0,0,1.2-2.2h2.563A4.914,4.914,0,0,1,128.35-2.4a6.175,6.175,0,0,1-2.307,1.963,6.657,6.657,0,0,1-3.054.732,6.529,6.529,0,0,1-5.149-2.161,8.606,8.606,0,0,1-1.912-5.911v-.454a9.542,9.542,0,0,1,.85-4.116,6.471,6.471,0,0,1,2.439-2.8,6.928,6.928,0,0,1,3.757-1,6.357,6.357,0,0,1,4.431,1.6,5.706,5.706,0,0,1,1.882,4.146h-2.563a3.735,3.735,0,0,0-1.165-2.527,3.623,3.623,0,0,0-2.585-.989,3.793,3.793,0,0,0-3.2,1.487,6.983,6.983,0,0,0-1.135,4.3v.513A6.843,6.843,0,0,0,119.766-3.4,3.811,3.811,0,0,0,122.988-1.919Zm13.022-17.769v3.838h2.959v2.095h-2.959v9.829a2.2,2.2,0,0,0,.4,1.428,1.666,1.666,0,0,0,1.348.476,6.561,6.561,0,0,0,1.289-.176V0a7.856,7.856,0,0,1-2.08.293,3.375,3.375,0,0,1-2.739-1.1,4.72,4.72,0,0,1-.923-3.12v-9.829h-2.886V-15.85H133.3v-3.838Zm5.112,11.616a9.362,9.362,0,0,1,.916-4.189,6.83,6.83,0,0,1,2.549-2.871,6.938,6.938,0,0,1,3.728-1.011,6.684,6.684,0,0,1,5.237,2.241,8.623,8.623,0,0,1,2,5.962v.19a9.443,9.443,0,0,1-.886,4.153,6.729,6.729,0,0,1-2.534,2.864A7.018,7.018,0,0,1,148.345.293a6.667,6.667,0,0,1-5.222-2.241,8.579,8.579,0,0,1-2-5.933Zm2.725.322a6.781,6.781,0,0,0,1.223,4.233,3.914,3.914,0,0,0,3.274,1.6,3.891,3.891,0,0,0,3.281-1.619,7.415,7.415,0,0,0,1.216-4.534A6.769,6.769,0,0,0,151.6-12.3a3.935,3.935,0,0,0-3.289-1.619,3.891,3.891,0,0,0-3.237,1.6A7.36,7.36,0,0,0,143.848-7.749Zm22.764-5.669a8.121,8.121,0,0,0-1.333-.1,3.571,3.571,0,0,0-3.618,2.271V0h-2.71V-15.85h2.637l.044,1.831a4.22,4.22,0,0,1,3.779-2.124,2.769,2.769,0,0,1,1.2.205Zm16.274,11.5A3.9,3.9,0,0,0,185.42-2.8a3.092,3.092,0,0,0,1.2-2.2h2.563a4.914,4.914,0,0,1-.937,2.593A6.175,6.175,0,0,1,185.94-.439a6.657,6.657,0,0,1-3.054.732,6.529,6.529,0,0,1-5.149-2.161,8.606,8.606,0,0,1-1.912-5.911v-.454a9.542,9.542,0,0,1,.85-4.116,6.471,6.471,0,0,1,2.439-2.8,6.928,6.928,0,0,1,3.757-1,6.357,6.357,0,0,1,4.431,1.6,5.706,5.706,0,0,1,1.882,4.146h-2.563a3.735,3.735,0,0,0-1.165-2.527,3.623,3.623,0,0,0-2.585-.989,3.793,3.793,0,0,0-3.2,1.487,6.983,6.983,0,0,0-1.135,4.3v.513A6.843,6.843,0,0,0,179.663-3.4,3.811,3.811,0,0,0,182.886-1.919Zm8.628-6.152a9.362,9.362,0,0,1,.916-4.189,6.83,6.83,0,0,1,2.549-2.871,6.938,6.938,0,0,1,3.728-1.011,6.684,6.684,0,0,1,5.237,2.241,8.623,8.623,0,0,1,2,5.962v.19a9.443,9.443,0,0,1-.886,4.153,6.729,6.729,0,0,1-2.534,2.864A7.018,7.018,0,0,1,198.735.293a6.667,6.667,0,0,1-5.222-2.241,8.579,8.579,0,0,1-2-5.933Zm2.725.322a6.781,6.781,0,0,0,1.223,4.233,3.914,3.914,0,0,0,3.274,1.6,3.891,3.891,0,0,0,3.281-1.619,7.415,7.415,0,0,0,1.216-4.534,6.769,6.769,0,0,0-1.238-4.226,3.935,3.935,0,0,0-3.289-1.619,3.891,3.891,0,0,0-3.237,1.6A7.36,7.36,0,0,0,194.238-7.749Zm17.651-8.1.073,1.758a5.853,5.853,0,0,1,4.7-2.051q3.325,0,4.526,2.549a6,6,0,0,1,2.058-1.846,6.079,6.079,0,0,1,3-.7q5.215,0,5.3,5.522V0h-2.71V-10.459A3.639,3.639,0,0,0,228.062-13a3.419,3.419,0,0,0-2.607-.842,3.593,3.593,0,0,0-2.5.9,3.655,3.655,0,0,0-1.157,2.424V0h-2.725V-10.386q0-3.457-3.384-3.457a3.626,3.626,0,0,0-3.647,2.271V0h-2.71V-15.85Zm37.134,8.1a9.49,9.49,0,0,1-1.655,5.83A5.305,5.305,0,0,1,242.886.293a5.813,5.813,0,0,1-4.541-1.831V6.094h-2.71V-15.85h2.476l.132,1.758a5.583,5.583,0,0,1,4.6-2.051,5.4,5.4,0,0,1,4.519,2.153A9.594,9.594,0,0,1,249.023-8Zm-2.71-.308a7,7,0,0,0-1.143-4.233,3.681,3.681,0,0,0-3.135-1.553,3.984,3.984,0,0,0-3.691,2.183v7.573a3.991,3.991,0,0,0,3.721,2.168,3.663,3.663,0,0,0,3.1-1.545A7.644,7.644,0,0,0,246.313-8.057Zm13.813-5.361a8.121,8.121,0,0,0-1.333-.1,3.571,3.571,0,0,0-3.618,2.271V0h-2.71V-15.85H255.1l.044,1.831a4.22,4.22,0,0,1,3.779-2.124,2.769,2.769,0,0,1,1.2.205Zm1.479,5.347a9.362,9.362,0,0,1,.916-4.189,6.83,6.83,0,0,1,2.549-2.871,6.938,6.938,0,0,1,3.728-1.011,6.684,6.684,0,0,1,5.237,2.241,8.623,8.623,0,0,1,2,5.962v.19a9.443,9.443,0,0,1-.886,4.153,6.729,6.729,0,0,1-2.534,2.864A7.018,7.018,0,0,1,268.828.293a6.667,6.667,0,0,1-5.222-2.241,8.579,8.579,0,0,1-2-5.933Zm2.725.322a6.781,6.781,0,0,0,1.223,4.233,3.914,3.914,0,0,0,3.274,1.6,3.891,3.891,0,0,0,3.281-1.619,7.415,7.415,0,0,0,1.216-4.534,6.769,6.769,0,0,0-1.238-4.226,3.935,3.935,0,0,0-3.289-1.619,3.891,3.891,0,0,0-3.237,1.6A7.36,7.36,0,0,0,264.331-7.749Zm5.7-14.751h3.281l-3.926,4.307H267.2Zm19.395,6.65.088,1.992a5.776,5.776,0,0,1,4.746-2.285q5.024,0,5.068,5.669V0h-2.71V-10.488a3.649,3.649,0,0,0-.784-2.534,3.141,3.141,0,0,0-2.4-.82,3.911,3.911,0,0,0-2.314.7,4.775,4.775,0,0,0-1.553,1.846V0h-2.71V-15.85ZM309.99.293a6.925,6.925,0,0,1-5.244-2.117,7.856,7.856,0,0,1-2.021-5.662v-.5a9.511,9.511,0,0,1,.9-4.211,7.028,7.028,0,0,1,2.52-2.9,6.335,6.335,0,0,1,3.508-1.047,5.936,5.936,0,0,1,4.8,2.036,8.816,8.816,0,0,1,1.714,5.83v1.128H305.435a5.634,5.634,0,0,0,1.37,3.787,4.305,4.305,0,0,0,3.333,1.443,4.72,4.72,0,0,0,2.432-.586,6.11,6.11,0,0,0,1.743-1.553l1.655,1.289A6.656,6.656,0,0,1,309.99.293Zm-.337-14.209a3.615,3.615,0,0,0-2.754,1.194,5.8,5.8,0,0,0-1.377,3.347h7.939V-9.58a5.162,5.162,0,0,0-1.113-3.2A3.4,3.4,0,0,0,309.653-13.916ZM329.092-1.567a5.756,5.756,0,0,1-4.644,1.86,4.927,4.927,0,0,1-3.86-1.472,6.372,6.372,0,0,1-1.34-4.358V-15.85h2.71V-5.61q0,3.6,2.93,3.6,3.105,0,4.131-2.314V-15.85h2.71V0H329.15Zm9.3-14.282.073,1.758a5.853,5.853,0,0,1,4.7-2.051q3.325,0,4.526,2.549a6,6,0,0,1,2.058-1.846,6.079,6.079,0,0,1,3-.7q5.215,0,5.3,5.522V0h-2.71V-10.459A3.639,3.639,0,0,0,354.565-13a3.419,3.419,0,0,0-2.607-.842,3.593,3.593,0,0,0-2.5.9,3.655,3.655,0,0,0-1.157,2.424V0h-2.725V-10.386q0-3.457-3.384-3.457a3.626,3.626,0,0,0-3.647,2.271V0h-2.71V-15.85ZM371.924,0a5.693,5.693,0,0,1-.381-1.67A6.046,6.046,0,0,1,367.031.293a5.6,5.6,0,0,1-3.845-1.326,4.289,4.289,0,0,1-1.5-3.362,4.481,4.481,0,0,1,1.882-3.845,8.875,8.875,0,0,1,5.3-1.37H371.5v-1.245a3.044,3.044,0,0,0-.85-2.263,3.415,3.415,0,0,0-2.5-.842,3.952,3.952,0,0,0-2.432.732,2.158,2.158,0,0,0-.981,1.772h-2.725a3.74,3.74,0,0,1,.842-2.292,5.749,5.749,0,0,1,2.285-1.75,7.688,7.688,0,0,1,3.171-.645,6.266,6.266,0,0,1,4.292,1.37A4.941,4.941,0,0,1,374.209-11v7.295a8.919,8.919,0,0,0,.557,3.472V0Zm-4.5-2.065a4.763,4.763,0,0,0,2.417-.659A3.987,3.987,0,0,0,371.5-4.438V-7.69h-2.124q-4.98,0-4.98,2.915a2.467,2.467,0,0,0,.85,1.992A3.266,3.266,0,0,0,367.427-2.065Zm2.5-20.435h3.281l-3.926,4.307H367.1Zm12.2,2.813v3.838h2.959v2.095h-2.959v9.829a2.2,2.2,0,0,0,.4,1.428,1.666,1.666,0,0,0,1.348.476,6.561,6.561,0,0,0,1.289-.176V0a7.856,7.856,0,0,1-2.08.293,3.375,3.375,0,0,1-2.739-1.1,4.72,4.72,0,0,1-.923-3.12v-9.829h-2.886V-15.85h2.886v-3.838ZM391.2,0h-2.71V-15.85h2.71Zm-2.93-20.054a1.618,1.618,0,0,1,.4-1.113,1.512,1.512,0,0,1,1.194-.454,1.536,1.536,0,0,1,1.2.454,1.6,1.6,0,0,1,.41,1.113,1.548,1.548,0,0,1-.41,1.1,1.564,1.564,0,0,1-1.2.439,1.54,1.54,0,0,1-1.194-.439A1.564,1.564,0,0,1,388.271-20.054ZM401.895-1.919a3.9,3.9,0,0,0,2.534-.879,3.092,3.092,0,0,0,1.2-2.2h2.563a4.914,4.914,0,0,1-.937,2.593,6.175,6.175,0,0,1-2.307,1.963,6.657,6.657,0,0,1-3.054.732,6.529,6.529,0,0,1-5.149-2.161,8.606,8.606,0,0,1-1.912-5.911v-.454a9.542,9.542,0,0,1,.85-4.116,6.471,6.471,0,0,1,2.439-2.8,6.928,6.928,0,0,1,3.757-1,6.357,6.357,0,0,1,4.431,1.6,5.706,5.706,0,0,1,1.882,4.146H405.63a3.735,3.735,0,0,0-1.165-2.527,3.623,3.623,0,0,0-2.585-.989,3.793,3.793,0,0,0-3.2,1.487,6.983,6.983,0,0,0-1.135,4.3v.513A6.843,6.843,0,0,0,398.672-3.4,3.811,3.811,0,0,0,401.895-1.919Zm8.628-6.152a9.362,9.362,0,0,1,.916-4.189,6.83,6.83,0,0,1,2.549-2.871,6.938,6.938,0,0,1,3.728-1.011,6.684,6.684,0,0,1,5.237,2.241,8.623,8.623,0,0,1,2,5.962v.19a9.443,9.443,0,0,1-.886,4.153,6.729,6.729,0,0,1-2.534,2.864A7.018,7.018,0,0,1,417.744.293a6.667,6.667,0,0,1-5.222-2.241,8.579,8.579,0,0,1-2-5.933Zm2.725.322a6.781,6.781,0,0,0,1.223,4.233,3.914,3.914,0,0,0,3.274,1.6,3.891,3.891,0,0,0,3.281-1.619,7.415,7.415,0,0,0,1.216-4.534A6.769,6.769,0,0,0,421-12.3a3.935,3.935,0,0,0-3.289-1.619,3.891,3.891,0,0,0-3.237,1.6A7.36,7.36,0,0,0,413.247-7.749ZM437.578-4.2a2,2,0,0,0-.828-1.707,7.966,7.966,0,0,0-2.886-1.047A13.644,13.644,0,0,1,430.6-8.013a4.647,4.647,0,0,1-1.787-1.465,3.5,3.5,0,0,1-.579-2.021,4.111,4.111,0,0,1,1.648-3.3,6.436,6.436,0,0,1,4.211-1.348,6.623,6.623,0,0,1,4.373,1.392,4.42,4.42,0,0,1,1.677,3.56h-2.725a2.446,2.446,0,0,0-.945-1.919,3.54,3.54,0,0,0-2.38-.806,3.7,3.7,0,0,0-2.314.645,2.029,2.029,0,0,0-.835,1.685,1.644,1.644,0,0,0,.776,1.479,9.552,9.552,0,0,0,2.805.952,14.616,14.616,0,0,1,3.289,1.084,4.8,4.8,0,0,1,1.868,1.516,3.728,3.728,0,0,1,.608,2.161,4.056,4.056,0,0,1-1.7,3.406A7.128,7.128,0,0,1,434.18.293a7.981,7.981,0,0,1-3.369-.674,5.48,5.48,0,0,1-2.292-1.882,4.537,4.537,0,0,1-.828-2.615h2.71a2.806,2.806,0,0,0,1.091,2.161,4.234,4.234,0,0,0,2.688.8,4.37,4.37,0,0,0,2.468-.623A1.913,1.913,0,0,0,437.578-4.2Z" transform="translate(232.524 6158.007)" fill="#02255f"/>
    </g>
  </g>
</svg>
