<svg xmlns="http://www.w3.org/2000/svg" width="474.917" height="176.565" viewBox="0 0 474.917 176.565">
  <g id="Grupo_13610" data-name="Grupo 13610" transform="translate(-681.769 -5703.233)">
    <g id="Grupo_13602" data-name="Grupo 13602">
      <path id="Trazado_11173" data-name="Trazado 11173" d="M10.3-8.628H5.288V0H2.461V-21.328H9.521a8.357,8.357,0,0,1,5.544,1.641,5.9,5.9,0,0,1,1.941,4.775A5.742,5.742,0,0,1,15.93-11.44a6.427,6.427,0,0,1-3,2.212l5.01,9.053V0H14.927Zm-5.01-2.3H9.609a4.88,4.88,0,0,0,3.333-1.084,3.662,3.662,0,0,0,1.238-2.9A3.856,3.856,0,0,0,13-17.944a5,5,0,0,0-3.406-1.069H5.288ZM19.8-8.071a9.362,9.362,0,0,1,.916-4.189,6.83,6.83,0,0,1,2.549-2.871A6.938,6.938,0,0,1,27-16.143,6.684,6.684,0,0,1,32.234-13.9a8.623,8.623,0,0,1,2,5.962v.19A9.443,9.443,0,0,1,33.347-3.6,6.729,6.729,0,0,1,30.813-.732,7.018,7.018,0,0,1,27.026.293,6.667,6.667,0,0,1,21.8-1.948a8.579,8.579,0,0,1-2-5.933Zm2.725.322a6.781,6.781,0,0,0,1.223,4.233,3.914,3.914,0,0,0,3.274,1.6,3.891,3.891,0,0,0,3.281-1.619,7.415,7.415,0,0,0,1.216-4.534A6.769,6.769,0,0,0,30.286-12.3,3.935,3.935,0,0,0,27-13.916a3.891,3.891,0,0,0-3.237,1.6A7.36,7.36,0,0,0,22.529-7.749Zm14.443-.308A9.285,9.285,0,0,1,38.7-13.923a5.466,5.466,0,0,1,4.526-2.219,5.5,5.5,0,0,1,4.409,1.9V-22.5h2.71V0h-2.49l-.132-1.7A5.519,5.519,0,0,1,43.2.293a5.414,5.414,0,0,1-4.49-2.256,9.39,9.39,0,0,1-1.736-5.889Zm2.71.308A7.03,7.03,0,0,0,40.8-3.53a3.6,3.6,0,0,0,3.076,1.523,3.953,3.953,0,0,0,3.765-2.314V-11.6A3.984,3.984,0,0,0,43.9-13.843,3.616,3.616,0,0,0,40.8-12.3,7.74,7.74,0,0,0,39.683-7.749Zm22.529-5.669a8.121,8.121,0,0,0-1.333-.1,3.571,3.571,0,0,0-3.618,2.271V0h-2.71V-15.85h2.637l.044,1.831a4.22,4.22,0,0,1,3.779-2.124,2.769,2.769,0,0,1,1.2.205ZM67.646,0h-2.71V-15.85h2.71Zm-2.93-20.054a1.618,1.618,0,0,1,.4-1.113,1.512,1.512,0,0,1,1.194-.454,1.536,1.536,0,0,1,1.2.454,1.6,1.6,0,0,1,.41,1.113,1.548,1.548,0,0,1-.41,1.1,1.564,1.564,0,0,1-1.2.439,1.54,1.54,0,0,1-1.194-.439A1.564,1.564,0,0,1,64.717-20.054Zm6.621,12a9.315,9.315,0,0,1,1.714-5.9,5.481,5.481,0,0,1,4.541-2.19,5.452,5.452,0,0,1,4.526,2.051l.132-1.758h2.476V-.381A6.448,6.448,0,0,1,82.9,4.468,6.73,6.73,0,0,1,78,6.24a8.152,8.152,0,0,1-3.354-.732,5.774,5.774,0,0,1-2.5-2.007L73.55,1.875a5.3,5.3,0,0,0,4.263,2.153A4.152,4.152,0,0,0,80.9,2.915,4.255,4.255,0,0,0,82-.22V-1.582A5.57,5.57,0,0,1,77.563.293a5.414,5.414,0,0,1-4.5-2.241A9.794,9.794,0,0,1,71.338-8.057Zm2.725.308a7.107,7.107,0,0,0,1.1,4.211,3.57,3.57,0,0,0,3.076,1.531A3.97,3.97,0,0,0,82-4.336v-7.236a4.016,4.016,0,0,0-3.735-2.271A3.6,3.6,0,0,0,75.176-12.3,7.74,7.74,0,0,0,74.063-7.749ZM88.1-8.071a9.362,9.362,0,0,1,.916-4.189,6.83,6.83,0,0,1,2.549-2.871,6.938,6.938,0,0,1,3.728-1.011,6.684,6.684,0,0,1,5.237,2.241,8.623,8.623,0,0,1,2,5.962v.19a9.443,9.443,0,0,1-.886,4.153A6.729,6.729,0,0,1,99.1-.732,7.018,7.018,0,0,1,95.317.293,6.667,6.667,0,0,1,90.1-1.948a8.579,8.579,0,0,1-2-5.933Zm2.725.322a6.781,6.781,0,0,0,1.223,4.233,3.914,3.914,0,0,0,3.274,1.6A3.891,3.891,0,0,0,98.6-3.538a7.415,7.415,0,0,0,1.216-4.534A6.769,6.769,0,0,0,98.577-12.3a3.935,3.935,0,0,0-3.289-1.619,3.891,3.891,0,0,0-3.237,1.6A7.36,7.36,0,0,0,90.82-7.749ZM116.294,0h-2.71V-22.5h2.71Zm10.913.293a6.925,6.925,0,0,1-5.244-2.117,7.856,7.856,0,0,1-2.021-5.662v-.5a9.511,9.511,0,0,1,.9-4.211,7.028,7.028,0,0,1,2.52-2.9,6.335,6.335,0,0,1,3.508-1.047,5.936,5.936,0,0,1,4.8,2.036,8.816,8.816,0,0,1,1.714,5.83v1.128H122.651a5.634,5.634,0,0,0,1.37,3.787,4.305,4.305,0,0,0,3.333,1.443,4.72,4.72,0,0,0,2.432-.586,6.11,6.11,0,0,0,1.743-1.553l1.655,1.289A6.656,6.656,0,0,1,127.207.293Zm-.337-14.209a3.615,3.615,0,0,0-2.754,1.194,5.8,5.8,0,0,0-1.377,3.347h7.939V-9.58a5.162,5.162,0,0,0-1.113-3.2A3.4,3.4,0,0,0,126.87-13.916ZM143.1.293a6.925,6.925,0,0,1-5.244-2.117,7.856,7.856,0,0,1-2.021-5.662v-.5a9.511,9.511,0,0,1,.9-4.211,7.028,7.028,0,0,1,2.52-2.9,6.335,6.335,0,0,1,3.508-1.047,5.936,5.936,0,0,1,4.8,2.036,8.816,8.816,0,0,1,1.714,5.83v1.128H138.545a5.634,5.634,0,0,0,1.37,3.787,4.305,4.305,0,0,0,3.333,1.443,4.72,4.72,0,0,0,2.432-.586,6.11,6.11,0,0,0,1.743-1.553l1.655,1.289A6.656,6.656,0,0,1,143.1.293Zm-.337-14.209a3.615,3.615,0,0,0-2.754,1.194,5.8,5.8,0,0,0-1.377,3.347h7.939V-9.58a5.162,5.162,0,0,0-1.113-3.2A3.4,3.4,0,0,0,142.764-13.916ZM272.725.293a6.925,6.925,0,0,1-5.244-2.117,7.856,7.856,0,0,1-2.021-5.662v-.5a9.511,9.511,0,0,1,.9-4.211,7.028,7.028,0,0,1,2.52-2.9,6.335,6.335,0,0,1,3.508-1.047,5.936,5.936,0,0,1,4.8,2.036,8.816,8.816,0,0,1,1.714,5.83v1.128H268.169a5.634,5.634,0,0,0,1.37,3.787,4.305,4.305,0,0,0,3.333,1.443A4.72,4.72,0,0,0,275.3-2.5a6.11,6.11,0,0,0,1.743-1.553L278.7-2.769A6.656,6.656,0,0,1,272.725.293Zm-.337-14.209a3.615,3.615,0,0,0-2.754,1.194,5.8,5.8,0,0,0-1.377,3.347H276.2V-9.58a5.162,5.162,0,0,0-1.113-3.2A3.4,3.4,0,0,0,272.388-13.916ZM284.6-15.85l.088,1.992a5.776,5.776,0,0,1,4.746-2.285q5.024,0,5.068,5.669V0H291.8V-10.488a3.649,3.649,0,0,0-.784-2.534,3.141,3.141,0,0,0-2.4-.82,3.911,3.911,0,0,0-2.314.7,4.775,4.775,0,0,0-1.553,1.846V0h-2.71V-15.85ZM308.965,0h-2.71V-22.5h2.71Zm14.121,0a5.693,5.693,0,0,1-.381-1.67A6.046,6.046,0,0,1,318.193.293a5.6,5.6,0,0,1-3.845-1.326,4.289,4.289,0,0,1-1.5-3.362,4.481,4.481,0,0,1,1.882-3.845,8.875,8.875,0,0,1,5.3-1.37h2.637v-1.245a3.044,3.044,0,0,0-.85-2.263,3.415,3.415,0,0,0-2.5-.842,3.952,3.952,0,0,0-2.432.732,2.158,2.158,0,0,0-.981,1.772h-2.725a3.74,3.74,0,0,1,.842-2.292A5.749,5.749,0,0,1,316.3-15.5a7.688,7.688,0,0,1,3.171-.645,6.266,6.266,0,0,1,4.292,1.37A4.941,4.941,0,0,1,325.371-11v7.295a8.919,8.919,0,0,0,.557,3.472V0Zm-4.5-2.065a4.763,4.763,0,0,0,2.417-.659,3.987,3.987,0,0,0,1.655-1.714V-7.69h-2.124q-4.98,0-4.98,2.915a2.467,2.467,0,0,0,.85,1.992A3.266,3.266,0,0,0,318.589-2.065Zm24.814.146a3.9,3.9,0,0,0,2.534-.879,3.092,3.092,0,0,0,1.2-2.2H349.7a4.914,4.914,0,0,1-.937,2.593,6.175,6.175,0,0,1-2.307,1.963A6.657,6.657,0,0,1,343.4.293a6.529,6.529,0,0,1-5.149-2.161,8.606,8.606,0,0,1-1.912-5.911v-.454a9.542,9.542,0,0,1,.85-4.116,6.471,6.471,0,0,1,2.439-2.8,6.928,6.928,0,0,1,3.757-1,6.357,6.357,0,0,1,4.431,1.6A5.706,5.706,0,0,1,349.7-10.4h-2.563a3.735,3.735,0,0,0-1.165-2.527,3.623,3.623,0,0,0-2.585-.989,3.793,3.793,0,0,0-3.2,1.487,6.983,6.983,0,0,0-1.135,4.3v.513A6.843,6.843,0,0,0,340.181-3.4,3.811,3.811,0,0,0,343.4-1.919ZM362.534,0a5.693,5.693,0,0,1-.381-1.67A6.046,6.046,0,0,1,357.642.293,5.6,5.6,0,0,1,353.8-1.033a4.289,4.289,0,0,1-1.5-3.362,4.481,4.481,0,0,1,1.882-3.845,8.875,8.875,0,0,1,5.3-1.37h2.637v-1.245a3.044,3.044,0,0,0-.85-2.263,3.415,3.415,0,0,0-2.5-.842,3.952,3.952,0,0,0-2.432.732,2.158,2.158,0,0,0-.981,1.772h-2.725a3.74,3.74,0,0,1,.842-2.292,5.749,5.749,0,0,1,2.285-1.75,7.688,7.688,0,0,1,3.171-.645,6.266,6.266,0,0,1,4.292,1.37A4.941,4.941,0,0,1,364.819-11v7.295a8.919,8.919,0,0,0,.557,3.472V0Zm-4.5-2.065a4.763,4.763,0,0,0,2.417-.659,3.987,3.987,0,0,0,1.655-1.714V-7.69h-2.124Q355-7.69,355-4.775a2.467,2.467,0,0,0,.85,1.992A3.266,3.266,0,0,0,358.037-2.065ZM371.616-15.85l.073,1.758a5.853,5.853,0,0,1,4.7-2.051q3.325,0,4.526,2.549a6,6,0,0,1,2.058-1.846,6.079,6.079,0,0,1,3-.7q5.215,0,5.3,5.522V0h-2.71V-10.459A3.639,3.639,0,0,0,387.788-13a3.419,3.419,0,0,0-2.607-.842,3.593,3.593,0,0,0-2.5.9,3.655,3.655,0,0,0-1.157,2.424V0h-2.725V-10.386q0-3.457-3.384-3.457a3.626,3.626,0,0,0-3.647,2.271V0h-2.71V-15.85ZM405.146,0a5.693,5.693,0,0,1-.381-1.67A6.046,6.046,0,0,1,400.254.293a5.6,5.6,0,0,1-3.845-1.326,4.289,4.289,0,0,1-1.5-3.362A4.481,4.481,0,0,1,396.79-8.24a8.875,8.875,0,0,1,5.3-1.37h2.637v-1.245a3.044,3.044,0,0,0-.85-2.263,3.415,3.415,0,0,0-2.5-.842,3.952,3.952,0,0,0-2.432.732,2.158,2.158,0,0,0-.981,1.772h-2.725a3.74,3.74,0,0,1,.842-2.292,5.749,5.749,0,0,1,2.285-1.75,7.688,7.688,0,0,1,3.171-.645,6.266,6.266,0,0,1,4.292,1.37A4.941,4.941,0,0,1,407.432-11v7.295a8.919,8.919,0,0,0,.557,3.472V0Zm-4.5-2.065a4.763,4.763,0,0,0,2.417-.659,3.987,3.987,0,0,0,1.655-1.714V-7.69H402.6q-4.98,0-4.98,2.915a2.467,2.467,0,0,0,.85,1.992A3.266,3.266,0,0,0,400.649-2.065Z" transform="translate(737.84 5734.08)" fill="#09347b"/>
      <path id="Sustracción_3" data-name="Sustracción 3" d="M3559.979-2543.016h0l-117.2-6.6-1.5-46.285,117.5,2.844.311,13.013c-.07.042-.141.086-.214.133a7.057,7.057,0,0,0-2.52,2.9,9.556,9.556,0,0,0-.9,4.211v.5a7.891,7.891,0,0,0,2.021,5.661,6.672,6.672,0,0,0,1.969,1.433l.531,22.193Zm-21.893-37.945a6.971,6.971,0,0,0-3.728,1.01,6.867,6.867,0,0,0-2.55,2.871,9.419,9.419,0,0,0-.915,4.19v.19a8.617,8.617,0,0,0,2,5.932,6.7,6.7,0,0,0,5.222,2.241,7.041,7.041,0,0,0,3.786-1.025,6.759,6.759,0,0,0,2.535-2.863,9.485,9.485,0,0,0,.886-4.153v-.19a8.657,8.657,0,0,0-2-5.962A6.711,6.711,0,0,0,3538.086-2580.961Zm-30.542,14.311v0a5.547,5.547,0,0,0,4.642,2.122,5.36,5.36,0,0,0,4.483-2.2,9.465,9.465,0,0,0,1.67-5.838v-.235a9.751,9.751,0,0,0-1.647-5.976,5.391,5.391,0,0,0-4.534-2.183,5.518,5.518,0,0,0-4.527,2.036v-8.394h-2.71v22.5h2.491l.132-1.828Zm-57.759-14.019v10.313a6.4,6.4,0,0,0,1.34,4.358,4.948,4.948,0,0,0,3.86,1.472,5.78,5.78,0,0,0,4.643-1.86l.059,1.566h2.578v-15.85h-2.71v11.529c-.68,1.536-2.07,2.315-4.131,2.315a2.676,2.676,0,0,1-2.2-.9,4.242,4.242,0,0,1-.732-2.7v-10.24Zm71.967,0v15.85h2.71v-11.249a3.585,3.585,0,0,1,3.619-2.271,8.109,8.109,0,0,1,1.333.1v-2.52a2.778,2.778,0,0,0-1.2-.205,4.239,4.239,0,0,0-3.78,2.123l-.044-1.831Zm-23.877,0v15.85h2.71v-15.85Zm-7.28-6.65v22.5h2.71v-22.5Zm-17.637,8.657a3.151,3.151,0,0,1,2.4.82,3.663,3.663,0,0,1,.783,2.534v10.488h2.71v-10.473a6.312,6.312,0,0,0-1.289-4.251,4.83,4.83,0,0,0-3.779-1.417,5.8,5.8,0,0,0-4.746,2.285l-.087-1.993h-2.563v15.85h2.709v-11.294a4.8,4.8,0,0,1,1.554-1.846A3.928,3.928,0,0,1,3472.959-2578.661Zm26.294-7.778a1.517,1.517,0,0,0-1.193.454,1.621,1.621,0,0,0-.4,1.114,1.565,1.565,0,0,0,.4,1.1,1.544,1.544,0,0,0,1.193.44,1.568,1.568,0,0,0,1.2-.44,1.551,1.551,0,0,0,.41-1.1,1.606,1.606,0,0,0-.41-1.114A1.54,1.54,0,0,0,3499.253-2586.439Zm38.862,19.7a3.93,3.93,0,0,1-3.273-1.6,6.81,6.81,0,0,1-1.223-4.233,7.394,7.394,0,0,1,1.231-4.571,3.905,3.905,0,0,1,3.237-1.6,3.95,3.95,0,0,1,3.288,1.619,6.8,6.8,0,0,1,1.238,4.226,7.449,7.449,0,0,1-1.216,4.534A3.907,3.907,0,0,1,3538.115-2566.737Zm-26.6-.088a4.107,4.107,0,0,1-3.882-2.49v-6.856a4,4,0,0,1,3.854-2.49,3.553,3.553,0,0,1,3.075,1.509,7.349,7.349,0,0,1,1.069,4.276,7.82,7.82,0,0,1-1.084,4.541A3.533,3.533,0,0,1,3511.514-2566.825Zm47.859-1.547,0,0a5.749,5.749,0,0,1-1.2-3.592h1.118l.086,3.592Zm-.139-5.821h-.977a6.45,6.45,0,0,1,.911-2.749l.066,2.748Z" transform="translate(-2552.16 8299.138)" fill="#26c179"/>
      <path id="Trazado_11174" data-name="Trazado 11174" d="M11.81-4.5A4.78,4.78,0,0,1,10.2-1.067,5.653,5.653,0,0,1,6.374.186,5.083,5.083,0,0,1,2.287-1.563,7.171,7.171,0,0,1,.8-6.364V-7.19a8.1,8.1,0,0,1,.687-3.433A5.145,5.145,0,0,1,3.447-12.9a5.5,5.5,0,0,1,2.964-.793,5.507,5.507,0,0,1,3.767,1.252,5.137,5.137,0,0,1,1.651,3.516H9.045a2.821,2.821,0,0,0-.728-1.9,2.7,2.7,0,0,0-1.906-.589,2.365,2.365,0,0,0-2.083,1,5.589,5.589,0,0,0-.71,3.094V-6.3a5.982,5.982,0,0,0,.663,3.2A2.321,2.321,0,0,0,6.374-2.087,2.748,2.748,0,0,0,8.3-2.677,2.661,2.661,0,0,0,9.027-4.5Zm1.234-.612a5.953,5.953,0,0,1,.575-2.663,4.211,4.211,0,0,1,1.656-1.809,4.831,4.831,0,0,1,2.51-.64A4.571,4.571,0,0,1,21.1-8.98,4.989,4.989,0,0,1,22.535-5.6l.019.687a5.247,5.247,0,0,1-1.29,3.706A4.482,4.482,0,0,1,17.8.186a4.5,4.5,0,0,1-3.465-1.392,5.339,5.339,0,0,1-1.294-3.785Zm2.681.195a3.742,3.742,0,0,0,.538,2.185,1.776,1.776,0,0,0,1.54.756,1.78,1.78,0,0,0,1.521-.747,4.1,4.1,0,0,0,.547-2.389,3.7,3.7,0,0,0-.547-2.171,1.78,1.78,0,0,0-1.54-.77,1.751,1.751,0,0,0-1.521.765A4.164,4.164,0,0,0,15.725-4.917Zm10.994-5.121L26.8-8.916a3.528,3.528,0,0,1,2.885-1.308A2.677,2.677,0,0,1,32.35-8.693a3.447,3.447,0,0,1,3.015-1.531,2.994,2.994,0,0,1,2.431.951,4.371,4.371,0,0,1,.8,2.862V0H35.9V-6.4a1.911,1.911,0,0,0-.334-1.248,1.48,1.48,0,0,0-1.178-.394,1.673,1.673,0,0,0-1.67,1.15L32.73,0H30.049V-6.392a1.888,1.888,0,0,0-.343-1.262,1.5,1.5,0,0,0-1.169-.39,1.738,1.738,0,0,0-1.651.946V0H24.2V-10.038ZM49.689-4.926a6.02,6.02,0,0,1-1.053,3.716,3.376,3.376,0,0,1-2.844,1.4A3.127,3.127,0,0,1,43.334-.872V3.859H40.653v-13.9H43.14l.093.983a3.151,3.151,0,0,1,2.542-1.169A3.4,3.4,0,0,1,48.66-8.851a6.183,6.183,0,0,1,1.03,3.785Zm-2.681-.195a3.951,3.951,0,0,0-.5-2.162,1.617,1.617,0,0,0-1.443-.761,1.756,1.756,0,0,0-1.735.965v4.11a1.786,1.786,0,0,0,1.753.993Q47.008-1.976,47.008-5.121ZM54.18,0h-2.69V-14.25h2.69Zm6.828.186a4.928,4.928,0,0,1-3.595-1.354,4.815,4.815,0,0,1-1.387-3.609v-.26a6.064,6.064,0,0,1,.584-2.7,4.289,4.289,0,0,1,1.656-1.837,4.648,4.648,0,0,1,2.445-.645,4.166,4.166,0,0,1,3.242,1.3,5.278,5.278,0,0,1,1.183,3.683v1.095H58.744a2.491,2.491,0,0,0,.784,1.577,2.37,2.37,0,0,0,1.656.594A2.894,2.894,0,0,0,63.605-3.1l1.317,1.475A4.025,4.025,0,0,1,63.29-.292,5.357,5.357,0,0,1,61.008.186ZM60.7-8.053a1.679,1.679,0,0,0-1.294.538,2.78,2.78,0,0,0-.635,1.54H62.5v-.213a1.982,1.982,0,0,0-.482-1.378A1.733,1.733,0,0,0,60.7-8.053Zm8.47-1.985.083,1.123a3.528,3.528,0,0,1,2.885-1.308A2.677,2.677,0,0,1,74.8-8.693a3.447,3.447,0,0,1,3.015-1.531,2.994,2.994,0,0,1,2.431.951,4.371,4.371,0,0,1,.8,2.862V0h-2.69V-6.4a1.911,1.911,0,0,0-.334-1.248,1.48,1.48,0,0,0-1.178-.394,1.673,1.673,0,0,0-1.67,1.15L75.184,0H72.5V-6.392a1.888,1.888,0,0,0-.343-1.262,1.5,1.5,0,0,0-1.169-.39,1.738,1.738,0,0,0-1.651.946V0H66.658V-10.038ZM87.727.186a4.928,4.928,0,0,1-3.595-1.354,4.815,4.815,0,0,1-1.387-3.609v-.26a6.064,6.064,0,0,1,.584-2.7,4.289,4.289,0,0,1,1.656-1.837,4.648,4.648,0,0,1,2.445-.645,4.166,4.166,0,0,1,3.242,1.3,5.278,5.278,0,0,1,1.183,3.683v1.095H85.463a2.491,2.491,0,0,0,.784,1.577,2.37,2.37,0,0,0,1.656.594A2.894,2.894,0,0,0,90.324-3.1l1.317,1.475A4.025,4.025,0,0,1,90.009-.292,5.357,5.357,0,0,1,87.727.186ZM87.42-8.053a1.679,1.679,0,0,0-1.294.538,2.78,2.78,0,0,0-.635,1.54H89.22v-.213a1.982,1.982,0,0,0-.482-1.378A1.733,1.733,0,0,0,87.42-8.053Zm8.424-1.985.083,1.16a3.5,3.5,0,0,1,2.885-1.345,2.913,2.913,0,0,1,2.375.937,4.372,4.372,0,0,1,.8,2.8V0H99.3V-6.42a1.739,1.739,0,0,0-.371-1.239A1.661,1.661,0,0,0,97.7-8.043a1.844,1.844,0,0,0-1.7.965V0H93.321V-10.038Zm11.383-2.468v2.468h1.716v1.967h-1.716v5.01a1.2,1.2,0,0,0,.213.8,1.072,1.072,0,0,0,.816.241,4.276,4.276,0,0,0,.789-.065V-.056a5.52,5.52,0,0,1-1.624.241,2.56,2.56,0,0,1-2.876-2.848V-8.071h-1.466v-1.967h1.466v-2.468Zm2.514,7.394a5.953,5.953,0,0,1,.575-2.663,4.211,4.211,0,0,1,1.656-1.809,4.831,4.831,0,0,1,2.51-.64A4.571,4.571,0,0,1,117.8-8.98,4.989,4.989,0,0,1,119.232-5.6l.019.687a5.247,5.247,0,0,1-1.29,3.706,4.482,4.482,0,0,1-3.46,1.4,4.5,4.5,0,0,1-3.465-1.392,5.339,5.339,0,0,1-1.294-3.785Zm2.681.195a3.742,3.742,0,0,0,.538,2.185,1.776,1.776,0,0,0,1.54.756,1.78,1.78,0,0,0,1.521-.747,4.1,4.1,0,0,0,.547-2.389,3.7,3.7,0,0,0-.547-2.171,1.78,1.78,0,0,0-1.54-.77,1.751,1.751,0,0,0-1.521.765A4.164,4.164,0,0,0,112.423-4.917Zm12.793-.176a6.049,6.049,0,0,1,1.053-3.739,3.417,3.417,0,0,1,2.881-1.392,3.074,3.074,0,0,1,2.421,1.095V-14.25h2.69V0H131.84l-.13-1.067A3.155,3.155,0,0,1,129.131.186a3.407,3.407,0,0,1-2.844-1.4A6.244,6.244,0,0,1,125.216-5.093ZM127.9-4.9a3.952,3.952,0,0,0,.492,2.162,1.6,1.6,0,0,0,1.429.751,1.794,1.794,0,0,0,1.753-1.048V-7a1.769,1.769,0,0,0-1.735-1.048Q127.9-8.043,127.9-4.9ZM139.169,0h-2.69V-10.038h2.69Zm-2.848-12.636a1.32,1.32,0,0,1,.4-.993,1.516,1.516,0,0,1,1.1-.39,1.52,1.52,0,0,1,1.095.39,1.313,1.313,0,0,1,.408.993,1.316,1.316,0,0,1-.413,1,1.523,1.523,0,0,1-1.09.39,1.523,1.523,0,0,1-1.09-.39A1.316,1.316,0,0,1,136.321-12.636Zm10.7,5.112a7.284,7.284,0,0,0-.965-.074,1.964,1.964,0,0,0-1.995,1.03V0h-2.681V-10.038h2.533l.074,1.2a2.484,2.484,0,0,1,2.236-1.382,2.809,2.809,0,0,1,.835.121ZM152.751.186a4.928,4.928,0,0,1-3.595-1.354,4.815,4.815,0,0,1-1.387-3.609v-.26a6.064,6.064,0,0,1,.584-2.7,4.289,4.289,0,0,1,1.656-1.837,4.648,4.648,0,0,1,2.445-.645,4.166,4.166,0,0,1,3.242,1.3,5.278,5.278,0,0,1,1.183,3.683v1.095h-6.392a2.491,2.491,0,0,0,.784,1.577,2.37,2.37,0,0,0,1.656.594A2.894,2.894,0,0,0,155.349-3.1l1.317,1.475a4.025,4.025,0,0,1-1.633,1.331A5.357,5.357,0,0,1,152.751.186Zm-.306-8.238a1.679,1.679,0,0,0-1.294.538,2.78,2.78,0,0,0-.635,1.54h3.729v-.213a1.982,1.982,0,0,0-.482-1.378A1.733,1.733,0,0,0,152.445-8.053Zm10.131,6.077a1.759,1.759,0,0,0,1.206-.408,1.43,1.43,0,0,0,.482-1.085h2.514a3.439,3.439,0,0,1-.557,1.869,3.673,3.673,0,0,1-1.5,1.317,4.689,4.689,0,0,1-2.1.469,4.358,4.358,0,0,1-3.4-1.368,5.415,5.415,0,0,1-1.243-3.781V-5.14a5.353,5.353,0,0,1,1.234-3.7,4.307,4.307,0,0,1,3.386-1.382,4.222,4.222,0,0,1,3.02,1.072A3.794,3.794,0,0,1,166.779-6.3h-2.514a1.827,1.827,0,0,0-.482-1.266,1.613,1.613,0,0,0-1.225-.487,1.616,1.616,0,0,0-1.415.682,3.947,3.947,0,0,0-.478,2.213v.278a4,4,0,0,0,.473,2.227A1.636,1.636,0,0,0,162.576-1.976Zm8.943-10.53v2.468h1.716v1.967H171.52v5.01a1.2,1.2,0,0,0,.213.8,1.072,1.072,0,0,0,.816.241,4.276,4.276,0,0,0,.789-.065V-.056a5.519,5.519,0,0,1-1.624.241,2.56,2.56,0,0,1-2.876-2.848V-8.071h-1.466v-1.967h1.466v-2.468Zm2.514,7.394a5.953,5.953,0,0,1,.575-2.663,4.211,4.211,0,0,1,1.656-1.809,4.831,4.831,0,0,1,2.51-.64,4.571,4.571,0,0,1,3.317,1.243A4.989,4.989,0,0,1,183.524-5.6l.019.687a5.247,5.247,0,0,1-1.29,3.706,4.482,4.482,0,0,1-3.46,1.4,4.5,4.5,0,0,1-3.465-1.392,5.339,5.339,0,0,1-1.294-3.785Zm2.681.195a3.742,3.742,0,0,0,.538,2.185,1.776,1.776,0,0,0,1.54.756,1.78,1.78,0,0,0,1.521-.747,4.094,4.094,0,0,0,.547-2.389,3.7,3.7,0,0,0-.547-2.171,1.78,1.78,0,0,0-1.54-.77,1.751,1.751,0,0,0-1.521.765A4.164,4.164,0,0,0,176.715-4.917Z" transform="translate(856.685 5773.133)" fill="#26c179"/>
    </g>
    <g id="Grupo_13603" data-name="Grupo 13603">
      <path id="Trazado_10624" data-name="Trazado 10624" d="M-.509,0,123.912,6.944,123.329,57-.635,46.309Z" transform="matrix(0.999, -0.035, 0.035, 0.999, 862.627, 5804.021)" fill="#26c179"/>
      <path id="Trazado_11177" data-name="Trazado 11177" d="M11.81-4.5A4.78,4.78,0,0,1,10.2-1.067,5.653,5.653,0,0,1,6.374.186,5.083,5.083,0,0,1,2.287-1.563,7.171,7.171,0,0,1,.8-6.364V-7.19a8.1,8.1,0,0,1,.687-3.433A5.145,5.145,0,0,1,3.447-12.9a5.5,5.5,0,0,1,2.964-.793,5.507,5.507,0,0,1,3.767,1.252,5.137,5.137,0,0,1,1.651,3.516H9.045a2.821,2.821,0,0,0-.728-1.9,2.7,2.7,0,0,0-1.906-.589,2.365,2.365,0,0,0-2.083,1,5.589,5.589,0,0,0-.71,3.094V-6.3a5.982,5.982,0,0,0,.663,3.2A2.321,2.321,0,0,0,6.374-2.087,2.748,2.748,0,0,0,8.3-2.677,2.661,2.661,0,0,0,9.027-4.5Zm1.234-.612a5.953,5.953,0,0,1,.575-2.663,4.211,4.211,0,0,1,1.656-1.809,4.831,4.831,0,0,1,2.51-.64A4.571,4.571,0,0,1,21.1-8.98,4.989,4.989,0,0,1,22.535-5.6l.019.687a5.247,5.247,0,0,1-1.29,3.706A4.482,4.482,0,0,1,17.8.186a4.5,4.5,0,0,1-3.465-1.392,5.339,5.339,0,0,1-1.294-3.785Zm2.681.195a3.742,3.742,0,0,0,.538,2.185,1.776,1.776,0,0,0,1.54.756,1.78,1.78,0,0,0,1.521-.747,4.1,4.1,0,0,0,.547-2.389,3.7,3.7,0,0,0-.547-2.171,1.78,1.78,0,0,0-1.54-.77,1.751,1.751,0,0,0-1.521.765A4.164,4.164,0,0,0,15.725-4.917Zm10.994-5.121L26.8-8.916a3.528,3.528,0,0,1,2.885-1.308A2.677,2.677,0,0,1,32.35-8.693a3.447,3.447,0,0,1,3.015-1.531,2.994,2.994,0,0,1,2.431.951,4.371,4.371,0,0,1,.8,2.862V0H35.9V-6.4a1.911,1.911,0,0,0-.334-1.248,1.48,1.48,0,0,0-1.178-.394,1.673,1.673,0,0,0-1.67,1.15L32.73,0H30.049V-6.392a1.888,1.888,0,0,0-.343-1.262,1.5,1.5,0,0,0-1.169-.39,1.738,1.738,0,0,0-1.651.946V0H24.2V-10.038ZM49.689-4.926a6.02,6.02,0,0,1-1.053,3.716,3.376,3.376,0,0,1-2.844,1.4A3.127,3.127,0,0,1,43.334-.872V3.859H40.653v-13.9H43.14l.093.983a3.151,3.151,0,0,1,2.542-1.169A3.4,3.4,0,0,1,48.66-8.851a6.183,6.183,0,0,1,1.03,3.785Zm-2.681-.195a3.951,3.951,0,0,0-.5-2.162,1.617,1.617,0,0,0-1.443-.761,1.756,1.756,0,0,0-1.735.965v4.11a1.786,1.786,0,0,0,1.753.993Q47.008-1.976,47.008-5.121ZM54.18,0h-2.69V-14.25h2.69Zm6.828.186a4.928,4.928,0,0,1-3.595-1.354,4.815,4.815,0,0,1-1.387-3.609v-.26a6.064,6.064,0,0,1,.584-2.7,4.289,4.289,0,0,1,1.656-1.837,4.648,4.648,0,0,1,2.445-.645,4.166,4.166,0,0,1,3.242,1.3,5.278,5.278,0,0,1,1.183,3.683v1.095H58.744a2.491,2.491,0,0,0,.784,1.577,2.37,2.37,0,0,0,1.656.594A2.894,2.894,0,0,0,63.605-3.1l1.317,1.475A4.025,4.025,0,0,1,63.29-.292,5.357,5.357,0,0,1,61.008.186ZM60.7-8.053a1.679,1.679,0,0,0-1.294.538,2.78,2.78,0,0,0-.635,1.54H62.5v-.213a1.982,1.982,0,0,0-.482-1.378A1.733,1.733,0,0,0,60.7-8.053Zm8.47-1.985.083,1.123a3.528,3.528,0,0,1,2.885-1.308A2.677,2.677,0,0,1,74.8-8.693a3.447,3.447,0,0,1,3.015-1.531,2.994,2.994,0,0,1,2.431.951,4.371,4.371,0,0,1,.8,2.862V0h-2.69V-6.4a1.911,1.911,0,0,0-.334-1.248,1.48,1.48,0,0,0-1.178-.394,1.673,1.673,0,0,0-1.67,1.15L75.184,0H72.5V-6.392a1.888,1.888,0,0,0-.343-1.262,1.5,1.5,0,0,0-1.169-.39,1.738,1.738,0,0,0-1.651.946V0H66.658V-10.038ZM87.727.186a4.928,4.928,0,0,1-3.595-1.354,4.815,4.815,0,0,1-1.387-3.609v-.26a6.064,6.064,0,0,1,.584-2.7,4.289,4.289,0,0,1,1.656-1.837,4.648,4.648,0,0,1,2.445-.645,4.166,4.166,0,0,1,3.242,1.3,5.278,5.278,0,0,1,1.183,3.683v1.095H85.463a2.491,2.491,0,0,0,.784,1.577,2.37,2.37,0,0,0,1.656.594A2.894,2.894,0,0,0,90.324-3.1l1.317,1.475A4.025,4.025,0,0,1,90.009-.292,5.357,5.357,0,0,1,87.727.186ZM87.42-8.053a1.679,1.679,0,0,0-1.294.538,2.78,2.78,0,0,0-.635,1.54H89.22v-.213a1.982,1.982,0,0,0-.482-1.378A1.733,1.733,0,0,0,87.42-8.053Zm8.424-1.985.083,1.16a3.5,3.5,0,0,1,2.885-1.345,2.913,2.913,0,0,1,2.375.937,4.372,4.372,0,0,1,.8,2.8V0H99.3V-6.42a1.739,1.739,0,0,0-.371-1.239A1.661,1.661,0,0,0,97.7-8.043a1.844,1.844,0,0,0-1.7.965V0H93.321V-10.038Zm11.383-2.468v2.468h1.716v1.967h-1.716v5.01a1.2,1.2,0,0,0,.213.8,1.072,1.072,0,0,0,.816.241,4.276,4.276,0,0,0,.789-.065V-.056a5.52,5.52,0,0,1-1.624.241,2.56,2.56,0,0,1-2.876-2.848V-8.071h-1.466v-1.967h1.466v-2.468Zm2.514,7.394a5.953,5.953,0,0,1,.575-2.663,4.211,4.211,0,0,1,1.656-1.809,4.831,4.831,0,0,1,2.51-.64A4.571,4.571,0,0,1,117.8-8.98,4.989,4.989,0,0,1,119.232-5.6l.019.687a5.247,5.247,0,0,1-1.29,3.706,4.482,4.482,0,0,1-3.46,1.4,4.5,4.5,0,0,1-3.465-1.392,5.339,5.339,0,0,1-1.294-3.785Zm2.681.195a3.742,3.742,0,0,0,.538,2.185,1.776,1.776,0,0,0,1.54.756,1.78,1.78,0,0,0,1.521-.747,4.1,4.1,0,0,0,.547-2.389,3.7,3.7,0,0,0-.547-2.171,1.78,1.78,0,0,0-1.54-.77,1.751,1.751,0,0,0-1.521.765A4.164,4.164,0,0,0,112.423-4.917Zm12.793-.176a6.049,6.049,0,0,1,1.053-3.739,3.417,3.417,0,0,1,2.881-1.392,3.074,3.074,0,0,1,2.421,1.095V-14.25h2.69V0H131.84l-.13-1.067A3.155,3.155,0,0,1,129.131.186a3.407,3.407,0,0,1-2.844-1.4A6.244,6.244,0,0,1,125.216-5.093ZM127.9-4.9a3.952,3.952,0,0,0,.492,2.162,1.6,1.6,0,0,0,1.429.751,1.794,1.794,0,0,0,1.753-1.048V-7a1.769,1.769,0,0,0-1.735-1.048Q127.9-8.043,127.9-4.9ZM139.169,0h-2.69V-10.038h2.69Zm-2.848-12.636a1.32,1.32,0,0,1,.4-.993,1.516,1.516,0,0,1,1.1-.39,1.52,1.52,0,0,1,1.095.39,1.313,1.313,0,0,1,.408.993,1.316,1.316,0,0,1-.413,1,1.523,1.523,0,0,1-1.09.39,1.523,1.523,0,0,1-1.09-.39A1.316,1.316,0,0,1,136.321-12.636Zm10.7,5.112a7.284,7.284,0,0,0-.965-.074,1.964,1.964,0,0,0-1.995,1.03V0h-2.681V-10.038h2.533l.074,1.2a2.484,2.484,0,0,1,2.236-1.382,2.809,2.809,0,0,1,.835.121ZM152.751.186a4.928,4.928,0,0,1-3.595-1.354,4.815,4.815,0,0,1-1.387-3.609v-.26a6.064,6.064,0,0,1,.584-2.7,4.289,4.289,0,0,1,1.656-1.837,4.648,4.648,0,0,1,2.445-.645,4.166,4.166,0,0,1,3.242,1.3,5.278,5.278,0,0,1,1.183,3.683v1.095h-6.392a2.491,2.491,0,0,0,.784,1.577,2.37,2.37,0,0,0,1.656.594A2.894,2.894,0,0,0,155.349-3.1l1.317,1.475a4.025,4.025,0,0,1-1.633,1.331A5.357,5.357,0,0,1,152.751.186Zm-.306-8.238a1.679,1.679,0,0,0-1.294.538,2.78,2.78,0,0,0-.635,1.54h3.729v-.213a1.982,1.982,0,0,0-.482-1.378A1.733,1.733,0,0,0,152.445-8.053Zm10.131,6.077a1.759,1.759,0,0,0,1.206-.408,1.43,1.43,0,0,0,.482-1.085h2.514a3.439,3.439,0,0,1-.557,1.869,3.673,3.673,0,0,1-1.5,1.317,4.689,4.689,0,0,1-2.1.469,4.358,4.358,0,0,1-3.4-1.368,5.415,5.415,0,0,1-1.243-3.781V-5.14a5.353,5.353,0,0,1,1.234-3.7,4.307,4.307,0,0,1,3.386-1.382,4.222,4.222,0,0,1,3.02,1.072A3.794,3.794,0,0,1,166.779-6.3h-2.514a1.827,1.827,0,0,0-.482-1.266,1.613,1.613,0,0,0-1.225-.487,1.616,1.616,0,0,0-1.415.682,3.947,3.947,0,0,0-.478,2.213v.278a4,4,0,0,0,.473,2.227A1.636,1.636,0,0,0,162.576-1.976Zm8.943-10.53v2.468h1.716v1.967H171.52v5.01a1.2,1.2,0,0,0,.213.8,1.072,1.072,0,0,0,.816.241,4.276,4.276,0,0,0,.789-.065V-.056a5.519,5.519,0,0,1-1.624.241,2.56,2.56,0,0,1-2.876-2.848V-8.071h-1.466v-1.967h1.466v-2.468Zm2.514,7.394a5.953,5.953,0,0,1,.575-2.663,4.211,4.211,0,0,1,1.656-1.809,4.831,4.831,0,0,1,2.51-.64,4.571,4.571,0,0,1,3.317,1.243A4.989,4.989,0,0,1,183.524-5.6l.019.687a5.247,5.247,0,0,1-1.29,3.706,4.482,4.482,0,0,1-3.46,1.4,4.5,4.5,0,0,1-3.465-1.392,5.339,5.339,0,0,1-1.294-3.785Zm2.681.195a3.742,3.742,0,0,0,.538,2.185,1.776,1.776,0,0,0,1.54.756,1.78,1.78,0,0,0,1.521-.747,4.094,4.094,0,0,0,.547-2.389,3.7,3.7,0,0,0-.547-2.171,1.78,1.78,0,0,0-1.54-.77,1.751,1.751,0,0,0-1.521.765A4.164,4.164,0,0,0,176.715-4.917Z" transform="translate(829.677 5875.939)" fill="#26c179"/>
      <path id="Trazado_11175" data-name="Trazado 11175" d="M197.813,0a5.693,5.693,0,0,1-.381-1.67A6.046,6.046,0,0,1,192.92.293a5.6,5.6,0,0,1-3.845-1.326,4.289,4.289,0,0,1-1.5-3.362,4.481,4.481,0,0,1,1.882-3.845,8.875,8.875,0,0,1,5.3-1.37h2.637v-1.245a3.044,3.044,0,0,0-.85-2.263,3.415,3.415,0,0,0-2.5-.842,3.952,3.952,0,0,0-2.432.732,2.158,2.158,0,0,0-.981,1.772H187.9a3.74,3.74,0,0,1,.842-2.292,5.749,5.749,0,0,1,2.285-1.75,7.688,7.688,0,0,1,3.171-.645,6.266,6.266,0,0,1,4.292,1.37A4.941,4.941,0,0,1,200.1-11v7.295a8.919,8.919,0,0,0,.557,3.472V0Zm-4.5-2.065a4.763,4.763,0,0,0,2.417-.659,3.987,3.987,0,0,0,1.655-1.714V-7.69h-2.124q-4.98,0-4.98,2.915a2.467,2.467,0,0,0,.85,1.992A3.266,3.266,0,0,0,193.315-2.065ZM215.83-21.328l6.973,17.4,6.973-17.4h3.647V0H230.61V-8.306l.264-8.965L223.872,0h-2.153l-6.987-17.227.278,8.921V0H212.2V-21.328ZM240.908,0H238.2V-15.85h2.71Zm-2.93-20.054a1.618,1.618,0,0,1,.4-1.113,1.512,1.512,0,0,1,1.194-.454,1.536,1.536,0,0,1,1.2.454,1.6,1.6,0,0,1,.41,1.113,1.548,1.548,0,0,1-.41,1.1,1.564,1.564,0,0,1-1.2.439,1.54,1.54,0,0,1-1.194-.439A1.564,1.564,0,0,1,237.979-20.054Zm6.621,12a9.315,9.315,0,0,1,1.714-5.9,5.481,5.481,0,0,1,4.541-2.19,5.452,5.452,0,0,1,4.526,2.051l.132-1.758h2.476V-.381a6.448,6.448,0,0,1-1.824,4.849,6.73,6.73,0,0,1-4.9,1.772,8.152,8.152,0,0,1-3.354-.732,5.774,5.774,0,0,1-2.5-2.007l1.406-1.626a5.3,5.3,0,0,0,4.263,2.153,4.152,4.152,0,0,0,3.083-1.113A4.255,4.255,0,0,0,255.264-.22V-1.582A5.57,5.57,0,0,1,250.825.293a5.414,5.414,0,0,1-4.5-2.241A9.794,9.794,0,0,1,244.6-8.057Zm2.725.308a7.107,7.107,0,0,0,1.1,4.211A3.57,3.57,0,0,0,251.5-2.007a3.97,3.97,0,0,0,3.765-2.329v-7.236a4.016,4.016,0,0,0-3.735-2.271,3.6,3.6,0,0,0-3.091,1.538A7.74,7.74,0,0,0,247.324-7.749ZM271.86-1.567a5.756,5.756,0,0,1-4.644,1.86,4.927,4.927,0,0,1-3.86-1.472,6.372,6.372,0,0,1-1.34-4.358V-15.85h2.71V-5.61q0,3.6,2.93,3.6,3.105,0,4.131-2.314V-15.85h2.71V0h-2.578ZM285.19.293a6.925,6.925,0,0,1-5.244-2.117,7.856,7.856,0,0,1-2.021-5.662v-.5a9.511,9.511,0,0,1,.9-4.211,7.028,7.028,0,0,1,2.52-2.9,6.335,6.335,0,0,1,3.508-1.047,5.936,5.936,0,0,1,4.8,2.036,8.816,8.816,0,0,1,1.714,5.83v1.128H280.635A5.634,5.634,0,0,0,282-3.362a4.305,4.305,0,0,0,3.333,1.443,4.72,4.72,0,0,0,2.432-.586,6.11,6.11,0,0,0,1.743-1.553l1.655,1.289A6.656,6.656,0,0,1,285.19.293Zm-.337-14.209a3.615,3.615,0,0,0-2.754,1.194,5.8,5.8,0,0,0-1.377,3.347h7.939V-9.58a5.162,5.162,0,0,0-1.113-3.2A3.4,3.4,0,0,0,284.854-13.916ZM297.451,0h-2.71V-22.5h2.71Z" transform="translate(680.992 5840.066)" fill="#fff"/>
      <path id="Trazado_11176" data-name="Trazado 11176" d="M11.411-21.328h2.827v15.1A6.256,6.256,0,0,1,12.4-1.436,6.862,6.862,0,0,1,7.5.293,7.053,7.053,0,0,1,2.549-1.333,5.872,5.872,0,0,1,.776-5.889H3.589a3.91,3.91,0,0,0,1,2.856A3.887,3.887,0,0,0,7.5-2.007a3.772,3.772,0,0,0,2.82-1.1,4.256,4.256,0,0,0,1.091-3.076ZM28.389-1.567A5.756,5.756,0,0,1,23.745.293a4.927,4.927,0,0,1-3.86-1.472,6.372,6.372,0,0,1-1.34-4.358V-15.85h2.71V-5.61q0,3.6,2.93,3.6,3.105,0,4.131-2.314V-15.85h2.71V0H28.447ZM44.927,0a5.693,5.693,0,0,1-.381-1.67A6.046,6.046,0,0,1,40.034.293a5.6,5.6,0,0,1-3.845-1.326,4.289,4.289,0,0,1-1.5-3.362A4.481,4.481,0,0,1,36.57-8.24a8.875,8.875,0,0,1,5.3-1.37H44.5v-1.245a3.044,3.044,0,0,0-.85-2.263,3.415,3.415,0,0,0-2.5-.842,3.952,3.952,0,0,0-2.432.732,2.158,2.158,0,0,0-.981,1.772H35.01a3.74,3.74,0,0,1,.842-2.292,5.749,5.749,0,0,1,2.285-1.75,7.688,7.688,0,0,1,3.171-.645,6.266,6.266,0,0,1,4.292,1.37A4.941,4.941,0,0,1,47.212-11v7.295a8.919,8.919,0,0,0,.557,3.472V0Zm-4.5-2.065a4.763,4.763,0,0,0,2.417-.659A3.987,3.987,0,0,0,44.5-4.438V-7.69H42.378q-4.98,0-4.98,2.915a2.467,2.467,0,0,0,.85,1.992A3.266,3.266,0,0,0,40.43-2.065ZM54.023-15.85l.088,1.992a5.776,5.776,0,0,1,4.746-2.285q5.024,0,5.068,5.669V0h-2.71V-10.488a3.649,3.649,0,0,0-.784-2.534,3.141,3.141,0,0,0-2.4-.82,3.911,3.911,0,0,0-2.314.7,4.775,4.775,0,0,0-1.553,1.846V0H51.46V-15.85ZM77.8,0a5.693,5.693,0,0,1-.381-1.67A6.046,6.046,0,0,1,72.905.293,5.6,5.6,0,0,1,69.06-1.033a4.289,4.289,0,0,1-1.5-3.362A4.481,4.481,0,0,1,69.441-8.24a8.875,8.875,0,0,1,5.3-1.37h2.637v-1.245a3.044,3.044,0,0,0-.85-2.263,3.415,3.415,0,0,0-2.5-.842,3.952,3.952,0,0,0-2.432.732,2.158,2.158,0,0,0-.981,1.772H67.881a3.74,3.74,0,0,1,.842-2.292,5.749,5.749,0,0,1,2.285-1.75,7.688,7.688,0,0,1,3.171-.645,6.266,6.266,0,0,1,4.292,1.37A4.941,4.941,0,0,1,80.083-11v7.295A8.919,8.919,0,0,0,80.64-.234V0ZM73.3-2.065a4.763,4.763,0,0,0,2.417-.659,3.987,3.987,0,0,0,1.655-1.714V-7.69H75.249q-4.98,0-4.98,2.915a2.467,2.467,0,0,0,.85,1.992A3.266,3.266,0,0,0,73.3-2.065ZM100.986-4.2a2,2,0,0,0-.828-1.707,7.966,7.966,0,0,0-2.886-1.047,13.644,13.644,0,0,1-3.267-1.055,4.647,4.647,0,0,1-1.787-1.465,3.5,3.5,0,0,1-.579-2.021,4.111,4.111,0,0,1,1.648-3.3A6.436,6.436,0,0,1,97.5-16.143a6.623,6.623,0,0,1,4.373,1.392,4.42,4.42,0,0,1,1.677,3.56h-2.725a2.446,2.446,0,0,0-.945-1.919,3.54,3.54,0,0,0-2.38-.806,3.7,3.7,0,0,0-2.314.645,2.029,2.029,0,0,0-.835,1.685,1.644,1.644,0,0,0,.776,1.479,9.552,9.552,0,0,0,2.805.952,14.616,14.616,0,0,1,3.289,1.084,4.8,4.8,0,0,1,1.868,1.516,3.728,3.728,0,0,1,.608,2.161A4.056,4.056,0,0,1,102-.989,7.128,7.128,0,0,1,97.588.293a7.981,7.981,0,0,1-3.369-.674,5.48,5.48,0,0,1-2.292-1.882A4.537,4.537,0,0,1,91.1-4.878h2.71A2.806,2.806,0,0,0,94.9-2.717a4.234,4.234,0,0,0,2.688.8,4.37,4.37,0,0,0,2.468-.623A1.913,1.913,0,0,0,100.986-4.2ZM117.012,0a5.693,5.693,0,0,1-.381-1.67A6.046,6.046,0,0,1,112.119.293a5.6,5.6,0,0,1-3.845-1.326,4.289,4.289,0,0,1-1.5-3.362,4.481,4.481,0,0,1,1.882-3.845,8.875,8.875,0,0,1,5.3-1.37h2.637v-1.245a3.044,3.044,0,0,0-.85-2.263,3.415,3.415,0,0,0-2.5-.842,3.952,3.952,0,0,0-2.432.732,2.158,2.158,0,0,0-.981,1.772h-2.725a3.74,3.74,0,0,1,.842-2.292,5.749,5.749,0,0,1,2.285-1.75,7.688,7.688,0,0,1,3.171-.645,6.266,6.266,0,0,1,4.292,1.37A4.941,4.941,0,0,1,119.3-11v7.295a8.919,8.919,0,0,0,.557,3.472V0Zm-4.5-2.065a4.763,4.763,0,0,0,2.417-.659,3.987,3.987,0,0,0,1.655-1.714V-7.69h-2.124q-4.98,0-4.98,2.915a2.467,2.467,0,0,0,.85,1.992A3.266,3.266,0,0,0,112.515-2.065ZM126.489,0h-2.71V-22.5h2.71ZM140.61-1.567a5.756,5.756,0,0,1-4.644,1.86,4.927,4.927,0,0,1-3.86-1.472,6.372,6.372,0,0,1-1.34-4.358V-15.85h2.71V-5.61q0,3.6,2.93,3.6,3.105,0,4.131-2.314V-15.85h2.71V0h-2.578ZM146.7-8.057a9.285,9.285,0,0,1,1.729-5.867,5.466,5.466,0,0,1,4.526-2.219,5.5,5.5,0,0,1,4.409,1.9V-22.5h2.71V0h-2.49l-.132-1.7A5.519,5.519,0,0,1,152.93.293a5.414,5.414,0,0,1-4.49-2.256A9.39,9.39,0,0,1,146.7-7.852Zm2.71.308a7.03,7.03,0,0,0,1.113,4.219A3.6,3.6,0,0,0,153.6-2.007a3.953,3.953,0,0,0,3.765-2.314V-11.6a3.984,3.984,0,0,0-3.735-2.241,3.616,3.616,0,0,0-3.105,1.538A7.74,7.74,0,0,0,149.414-7.749ZM174.067,0a5.693,5.693,0,0,1-.381-1.67A6.046,6.046,0,0,1,169.175.293a5.6,5.6,0,0,1-3.845-1.326,4.289,4.289,0,0,1-1.5-3.362A4.481,4.481,0,0,1,165.71-8.24a8.875,8.875,0,0,1,5.3-1.37h2.637v-1.245a3.044,3.044,0,0,0-.85-2.263,3.415,3.415,0,0,0-2.5-.842,3.952,3.952,0,0,0-2.432.732,2.158,2.158,0,0,0-.981,1.772H164.15a3.74,3.74,0,0,1,.842-2.292,5.749,5.749,0,0,1,2.285-1.75,7.688,7.688,0,0,1,3.171-.645,6.266,6.266,0,0,1,4.292,1.37A4.941,4.941,0,0,1,176.353-11v7.295a8.919,8.919,0,0,0,.557,3.472V0Zm-4.5-2.065a4.763,4.763,0,0,0,2.417-.659,3.987,3.987,0,0,0,1.655-1.714V-7.69h-2.124q-4.98,0-4.98,2.915a2.467,2.467,0,0,0,.85,1.992A3.266,3.266,0,0,0,169.57-2.065Zm146,.146a3.9,3.9,0,0,0,2.534-.879,3.092,3.092,0,0,0,1.2-2.2h2.563a4.914,4.914,0,0,1-.937,2.593,6.175,6.175,0,0,1-2.307,1.963,6.657,6.657,0,0,1-3.054.732,6.529,6.529,0,0,1-5.149-2.161,8.606,8.606,0,0,1-1.912-5.911v-.454a9.542,9.542,0,0,1,.85-4.116,6.471,6.471,0,0,1,2.439-2.8,6.928,6.928,0,0,1,3.757-1,6.357,6.357,0,0,1,4.431,1.6A5.706,5.706,0,0,1,321.87-10.4h-2.563a3.735,3.735,0,0,0-1.165-2.527,3.623,3.623,0,0,0-2.585-.989,3.793,3.793,0,0,0-3.2,1.487,6.983,6.983,0,0,0-1.135,4.3v.513A6.843,6.843,0,0,0,312.349-3.4,3.811,3.811,0,0,0,315.571-1.919Zm19.131.352a5.756,5.756,0,0,1-4.644,1.86,4.927,4.927,0,0,1-3.86-1.472,6.372,6.372,0,0,1-1.34-4.358V-15.85h2.71V-5.61q0,3.6,2.93,3.6,3.105,0,4.131-2.314V-15.85h2.71V0h-2.578ZM351.24,0a5.693,5.693,0,0,1-.381-1.67A6.046,6.046,0,0,1,346.348.293,5.6,5.6,0,0,1,342.5-1.033,4.289,4.289,0,0,1,341-4.395a4.481,4.481,0,0,1,1.882-3.845,8.875,8.875,0,0,1,5.3-1.37h2.637v-1.245a3.044,3.044,0,0,0-.85-2.263,3.415,3.415,0,0,0-2.5-.842,3.952,3.952,0,0,0-2.432.732,2.158,2.158,0,0,0-.981,1.772h-2.725a3.74,3.74,0,0,1,.842-2.292,5.749,5.749,0,0,1,2.285-1.75,7.688,7.688,0,0,1,3.171-.645,6.266,6.266,0,0,1,4.292,1.37A4.941,4.941,0,0,1,353.525-11v7.295a8.919,8.919,0,0,0,.557,3.472V0Zm-4.5-2.065a4.763,4.763,0,0,0,2.417-.659,3.987,3.987,0,0,0,1.655-1.714V-7.69h-2.124q-4.98,0-4.98,2.915a2.467,2.467,0,0,0,.85,1.992A3.266,3.266,0,0,0,346.743-2.065ZM360.337-15.85l.088,1.992a5.776,5.776,0,0,1,4.746-2.285q5.024,0,5.068,5.669V0h-2.71V-10.488a3.649,3.649,0,0,0-.784-2.534,3.141,3.141,0,0,0-2.4-.82,3.911,3.911,0,0,0-2.314.7,4.775,4.775,0,0,0-1.553,1.846V0h-2.71V-15.85Zm13.33,7.793a9.285,9.285,0,0,1,1.729-5.867,5.466,5.466,0,0,1,4.526-2.219,5.5,5.5,0,0,1,4.409,1.9V-22.5h2.71V0h-2.49l-.132-1.7A5.519,5.519,0,0,1,379.893.293a5.414,5.414,0,0,1-4.49-2.256,9.39,9.39,0,0,1-1.736-5.889Zm2.71.308A7.03,7.03,0,0,0,377.49-3.53a3.6,3.6,0,0,0,3.076,1.523,3.953,3.953,0,0,0,3.765-2.314V-11.6a3.984,3.984,0,0,0-3.735-2.241A3.616,3.616,0,0,0,377.49-12.3,7.74,7.74,0,0,0,376.377-7.749Zm14.15-.322a9.362,9.362,0,0,1,.916-4.189,6.83,6.83,0,0,1,2.549-2.871,6.938,6.938,0,0,1,3.728-1.011,6.684,6.684,0,0,1,5.237,2.241,8.623,8.623,0,0,1,2,5.962v.19A9.443,9.443,0,0,1,404.07-3.6a6.729,6.729,0,0,1-2.534,2.864A7.018,7.018,0,0,1,397.749.293a6.667,6.667,0,0,1-5.222-2.241,8.579,8.579,0,0,1-2-5.933Zm2.725.322a6.781,6.781,0,0,0,1.223,4.233,3.914,3.914,0,0,0,3.274,1.6,3.891,3.891,0,0,0,3.281-1.619,7.415,7.415,0,0,0,1.216-4.534,6.769,6.769,0,0,0-1.238-4.226,3.935,3.935,0,0,0-3.289-1.619,3.891,3.891,0,0,0-3.237,1.6A7.36,7.36,0,0,0,393.252-7.749ZM418.726,0h-2.71V-22.5h2.71Zm7.28,0H423.3V-22.5h2.71Zm10.913.293a6.925,6.925,0,0,1-5.244-2.117,7.856,7.856,0,0,1-2.021-5.662v-.5a9.511,9.511,0,0,1,.9-4.211,7.028,7.028,0,0,1,2.52-2.9,6.335,6.335,0,0,1,3.508-1.047,5.936,5.936,0,0,1,4.8,2.036,8.816,8.816,0,0,1,1.714,5.83v1.128H432.363a5.634,5.634,0,0,0,1.37,3.787,4.305,4.305,0,0,0,3.333,1.443A4.72,4.72,0,0,0,439.5-2.5a6.11,6.11,0,0,0,1.743-1.553L442.9-2.769A6.656,6.656,0,0,1,436.919.293Zm-.337-14.209a3.615,3.615,0,0,0-2.754,1.194,5.8,5.8,0,0,0-1.377,3.347h7.939V-9.58a5.162,5.162,0,0,0-1.113-3.2A3.4,3.4,0,0,0,436.582-13.916Zm9.009,5.859a9.315,9.315,0,0,1,1.714-5.9,5.481,5.481,0,0,1,4.541-2.19,5.452,5.452,0,0,1,4.526,2.051l.132-1.758h2.476V-.381a6.448,6.448,0,0,1-1.824,4.849,6.73,6.73,0,0,1-4.9,1.772,8.152,8.152,0,0,1-3.354-.732A5.774,5.774,0,0,1,446.4,3.5L447.8,1.875a5.3,5.3,0,0,0,4.263,2.153,4.152,4.152,0,0,0,3.083-1.113A4.255,4.255,0,0,0,456.255-.22V-1.582A5.57,5.57,0,0,1,451.816.293a5.414,5.414,0,0,1-4.5-2.241A9.794,9.794,0,0,1,445.591-8.057Zm2.725.308a7.107,7.107,0,0,0,1.1,4.211,3.57,3.57,0,0,0,3.076,1.531,3.97,3.97,0,0,0,3.765-2.329v-7.236a4.016,4.016,0,0,0-3.735-2.271,3.6,3.6,0,0,0-3.091,1.538A7.74,7.74,0,0,0,448.315-7.749ZM472.852,0a5.693,5.693,0,0,1-.381-1.67A6.046,6.046,0,0,1,467.959.293a5.6,5.6,0,0,1-3.845-1.326,4.289,4.289,0,0,1-1.5-3.362,4.481,4.481,0,0,1,1.882-3.845,8.875,8.875,0,0,1,5.3-1.37h2.637v-1.245a3.044,3.044,0,0,0-.85-2.263,3.415,3.415,0,0,0-2.5-.842,3.952,3.952,0,0,0-2.432.732,2.158,2.158,0,0,0-.981,1.772h-2.725a3.74,3.74,0,0,1,.842-2.292,5.749,5.749,0,0,1,2.285-1.75,7.688,7.688,0,0,1,3.171-.645,6.266,6.266,0,0,1,4.292,1.37A4.941,4.941,0,0,1,475.137-11v7.295a8.919,8.919,0,0,0,.557,3.472V0Zm-4.5-2.065a4.763,4.763,0,0,0,2.417-.659,3.987,3.987,0,0,0,1.655-1.714V-7.69H470.3q-4.98,0-4.98,2.915a2.467,2.467,0,0,0,.85,1.992A3.266,3.266,0,0,0,468.354-2.065Z" transform="translate(680.992 5840.066)" fill="#09347b"/>
    </g>
  </g>
</svg>
