<svg xmlns="http://www.w3.org/2000/svg" width="932" height="476" viewBox="0 0 932 476">
  <g id="Grupo_13665" data-name="Grupo 13665" transform="translate(-235 -3285)">
    <rect id="Rectángulo_3109" data-name="Rectángulo 3109" width="932" height="476" rx="5" transform="translate(235 3285)" fill="#f8f8f8"/>
    <g id="Grupo_13459" data-name="Grupo 13459" transform="translate(41.899 -74)">
      <path id="Trazado_10607" data-name="Trazado 10607" d="M69.5,0A69.5,69.5,0,1,1,0,69.5,69.5,69.5,0,0,1,69.5,0Z" transform="translate(312 3384)" fill="#dbffee"/>
      <path id="Trazado_10608" data-name="Trazado 10608" d="M9.448-5.3h14V0H2.856V-31.992H9.448ZM40.583,0a7.052,7.052,0,0,1-.637-2.131,7.683,7.683,0,0,1-6,2.571,8.441,8.441,0,0,1-5.79-2.021,6.5,6.5,0,0,1-2.3-5.1,6.719,6.719,0,0,1,2.8-5.8q2.8-2.021,8.1-2.043h2.922v-1.362a3.918,3.918,0,0,0-.846-2.637,3.328,3.328,0,0,0-2.67-.989,3.783,3.783,0,0,0-2.516.769,2.613,2.613,0,0,0-.912,2.109h-6.35a6.379,6.379,0,0,1,1.274-3.823,8.424,8.424,0,0,1,3.6-2.758,13.133,13.133,0,0,1,5.229-1,10.376,10.376,0,0,1,6.976,2.208A7.725,7.725,0,0,1,46.055-15.8V-5.493A11.366,11.366,0,0,0,47-.374V0ZM35.332-4.417a5.469,5.469,0,0,0,2.593-.626,4.113,4.113,0,0,0,1.758-1.681v-4.087H37.31q-4.768,0-5.076,3.3l-.022.374a2.542,2.542,0,0,0,.835,1.956A3.243,3.243,0,0,0,35.332-4.417ZM63.809-6.57A2.046,2.046,0,0,0,62.655-8.4a13.1,13.1,0,0,0-3.7-1.2q-8.481-1.78-8.481-7.207A6.533,6.533,0,0,1,53.1-22.094a10.592,10.592,0,0,1,6.866-2.12,11.4,11.4,0,0,1,7.24,2.131,6.717,6.717,0,0,1,2.714,5.537h-6.35a3.073,3.073,0,0,0-.879-2.252,3.719,3.719,0,0,0-2.747-.89,3.8,3.8,0,0,0-2.483.725,2.289,2.289,0,0,0-.879,1.846,1.957,1.957,0,0,0,1,1.7,10.285,10.285,0,0,0,3.373,1.121,27.548,27.548,0,0,1,4,1.066q5.032,1.846,5.032,6.394a6.2,6.2,0,0,1-2.791,5.262A12.038,12.038,0,0,1,59.985.439,12.573,12.573,0,0,1,54.679-.626a8.9,8.9,0,0,1-3.636-2.922,6.79,6.79,0,0,1-1.318-4.01h6.021A3.315,3.315,0,0,0,57-4.966a4.968,4.968,0,0,0,3.12.9,4.6,4.6,0,0,0,2.758-.692A2.154,2.154,0,0,0,63.809-6.57Zm29.07-23.049v5.845h4.065v4.658H92.878V-7.251a2.833,2.833,0,0,0,.505,1.89,2.538,2.538,0,0,0,1.934.571,10.127,10.127,0,0,0,1.868-.154V-.132A13.073,13.073,0,0,1,93.34.439q-6.68,0-6.812-6.746v-12.81H83.057v-4.658h3.472v-5.845ZM114.258,0a7.052,7.052,0,0,1-.637-2.131,7.683,7.683,0,0,1-6,2.571,8.441,8.441,0,0,1-5.79-2.021,6.5,6.5,0,0,1-2.3-5.1,6.719,6.719,0,0,1,2.8-5.8q2.8-2.021,8.1-2.043h2.922v-1.362a3.918,3.918,0,0,0-.846-2.637,3.328,3.328,0,0,0-2.67-.989,3.783,3.783,0,0,0-2.516.769,2.613,2.613,0,0,0-.912,2.109h-6.35a6.379,6.379,0,0,1,1.274-3.823,8.424,8.424,0,0,1,3.6-2.758,13.133,13.133,0,0,1,5.229-1,10.376,10.376,0,0,1,6.976,2.208,7.725,7.725,0,0,1,2.582,6.207V-5.493a11.366,11.366,0,0,0,.945,5.12V0Zm-5.251-4.417a5.469,5.469,0,0,0,2.593-.626,4.113,4.113,0,0,0,1.758-1.681v-4.087h-2.373q-4.768,0-5.076,3.3l-.022.374a2.542,2.542,0,0,0,.835,1.956A3.243,3.243,0,0,0,109.006-4.417Zm28.96-13.4A17.251,17.251,0,0,0,135.681-18q-3.6,0-4.724,2.439V0h-6.35V-23.774h6l.176,2.834a5.884,5.884,0,0,1,5.3-3.274,6.654,6.654,0,0,1,1.978.286Zm1.648,5.757q0-5.559,2.494-8.855a8.092,8.092,0,0,1,6.823-3.3,7.282,7.282,0,0,1,5.735,2.593V-33.75h6.372V0H155.3L155-2.527A7.473,7.473,0,0,1,148.887.439a8.07,8.07,0,0,1-6.735-3.307Q139.614-6.174,139.614-12.063Zm6.35.461a9.359,9.359,0,0,0,1.165,5.12,3.8,3.8,0,0,0,3.384,1.78,4.25,4.25,0,0,0,4.153-2.483v-9.382a4.189,4.189,0,0,0-4.109-2.483Q145.964-19.05,145.964-11.6ZM176.9.439a11.671,11.671,0,0,1-8.514-3.208,11.4,11.4,0,0,1-3.285-8.547v-.615a14.362,14.362,0,0,1,1.384-6.405,10.159,10.159,0,0,1,3.922-4.351,11.008,11.008,0,0,1,5.79-1.527,9.867,9.867,0,0,1,7.679,3.076q2.8,3.076,2.8,8.723v2.593H171.541A5.9,5.9,0,0,0,173.4-6.086a5.613,5.613,0,0,0,3.922,1.406,6.854,6.854,0,0,0,5.735-2.659l3.12,3.494a9.533,9.533,0,0,1-3.867,3.153A12.688,12.688,0,0,1,176.9.439Zm-.725-19.512a3.977,3.977,0,0,0-3.065,1.274,6.584,6.584,0,0,0-1.505,3.647h8.833v-.505a4.694,4.694,0,0,0-1.143-3.263A4.1,4.1,0,0,0,176.177-19.072Zm26.982,12.5A2.046,2.046,0,0,0,202.006-8.4a13.1,13.1,0,0,0-3.7-1.2q-8.481-1.78-8.481-7.207a6.533,6.533,0,0,1,2.626-5.284,10.592,10.592,0,0,1,6.866-2.12,11.4,11.4,0,0,1,7.24,2.131,6.717,6.717,0,0,1,2.714,5.537h-6.35a3.073,3.073,0,0,0-.879-2.252,3.719,3.719,0,0,0-2.747-.89,3.8,3.8,0,0,0-2.483.725,2.289,2.289,0,0,0-.879,1.846,1.957,1.957,0,0,0,1,1.7,10.285,10.285,0,0,0,3.373,1.121,27.548,27.548,0,0,1,4,1.066q5.032,1.846,5.032,6.394a6.2,6.2,0,0,1-2.791,5.262,12.038,12.038,0,0,1-7.207,2.01A12.573,12.573,0,0,1,194.03-.626a8.9,8.9,0,0,1-3.636-2.922,6.79,6.79,0,0,1-1.318-4.01H195.1a3.315,3.315,0,0,0,1.252,2.593,4.968,4.968,0,0,0,3.12.9,4.6,4.6,0,0,0,2.758-.692A2.154,2.154,0,0,0,203.159-6.57Zm20.479-5.493q0-5.559,2.494-8.855a8.092,8.092,0,0,1,6.823-3.3,7.282,7.282,0,0,1,5.735,2.593V-33.75h6.372V0h-5.735l-.308-2.527A7.473,7.473,0,0,1,232.91.439a8.07,8.07,0,0,1-6.735-3.307Q223.638-6.174,223.638-12.063Zm6.35.461a9.359,9.359,0,0,0,1.165,5.12,3.8,3.8,0,0,0,3.384,1.78,4.25,4.25,0,0,0,4.153-2.483v-9.382a4.189,4.189,0,0,0-4.109-2.483Q229.988-19.05,229.988-11.6ZM260.925.439a11.671,11.671,0,0,1-8.514-3.208,11.4,11.4,0,0,1-3.285-8.547v-.615a14.362,14.362,0,0,1,1.384-6.405,10.159,10.159,0,0,1,3.922-4.351,11.008,11.008,0,0,1,5.79-1.527,9.867,9.867,0,0,1,7.679,3.076q2.8,3.076,2.8,8.723v2.593H255.564a5.9,5.9,0,0,0,1.857,3.735,5.613,5.613,0,0,0,3.922,1.406,6.854,6.854,0,0,0,5.735-2.659l3.12,3.494a9.533,9.533,0,0,1-3.867,3.153A12.688,12.688,0,0,1,260.925.439ZM260.2-19.072a3.977,3.977,0,0,0-3.065,1.274,6.584,6.584,0,0,0-1.505,3.647h8.833v-.505a4.694,4.694,0,0,0-1.143-3.263A4.1,4.1,0,0,0,260.2-19.072ZM281.008,0h-6.372V-33.75h6.372Zm25.334-7.756,4.417-16.018H317.4L309.375,0h-6.064l-8.02-23.774h6.636Zm24.5,8.2a11.671,11.671,0,0,1-8.514-3.208,11.4,11.4,0,0,1-3.285-8.547v-.615a14.362,14.362,0,0,1,1.384-6.405,10.159,10.159,0,0,1,3.922-4.351,11.008,11.008,0,0,1,5.79-1.527,9.867,9.867,0,0,1,7.679,3.076q2.8,3.076,2.8,8.723v2.593H325.481a5.9,5.9,0,0,0,1.857,3.735A5.613,5.613,0,0,0,331.26-4.68a6.854,6.854,0,0,0,5.735-2.659l3.12,3.494a9.533,9.533,0,0,1-3.867,3.153A12.688,12.688,0,0,1,330.842.439Zm-.725-19.512a3.977,3.977,0,0,0-3.065,1.274,6.584,6.584,0,0,0-1.505,3.647h8.833v-.505a4.694,4.694,0,0,0-1.143-3.263A4.1,4.1,0,0,0,330.117-19.072Zm27.466,1.252A17.251,17.251,0,0,0,355.3-18q-3.6,0-4.724,2.439V0h-6.35V-23.774h6l.176,2.834a5.884,5.884,0,0,1,5.3-3.274,6.654,6.654,0,0,1,1.978.286ZM373.755,0a7.052,7.052,0,0,1-.637-2.131,7.683,7.683,0,0,1-6,2.571,8.441,8.441,0,0,1-5.79-2.021,6.5,6.5,0,0,1-2.3-5.1,6.719,6.719,0,0,1,2.8-5.8q2.8-2.021,8.1-2.043h2.922v-1.362a3.918,3.918,0,0,0-.846-2.637,3.328,3.328,0,0,0-2.67-.989,3.783,3.783,0,0,0-2.516.769,2.613,2.613,0,0,0-.912,2.109h-6.35a6.379,6.379,0,0,1,1.274-3.823,8.424,8.424,0,0,1,3.6-2.758,13.133,13.133,0,0,1,5.229-1,10.376,10.376,0,0,1,6.976,2.208,7.725,7.725,0,0,1,2.582,6.207V-5.493a11.366,11.366,0,0,0,.945,5.12V0ZM368.5-4.417a5.469,5.469,0,0,0,2.593-.626,4.113,4.113,0,0,0,1.758-1.681v-4.087h-2.373q-4.768,0-5.076,3.3l-.022.374a2.542,2.542,0,0,0,.835,1.956A3.243,3.243,0,0,0,368.5-4.417Zm21.445-19.358.2,2.747a8.3,8.3,0,0,1,6.833-3.186q3.779,0,5.625,2.219t1.89,6.636V0h-6.35V-15.205a4.12,4.12,0,0,0-.879-2.933,3.935,3.935,0,0,0-2.922-.912,4.369,4.369,0,0,0-4.021,2.285V0h-6.35V-23.774Zm18.369,11.667a14.1,14.1,0,0,1,1.362-6.306A9.973,9.973,0,0,1,413.6-22.7a11.443,11.443,0,0,1,5.944-1.516A10.826,10.826,0,0,1,427.4-21.27a11.817,11.817,0,0,1,3.395,8l.044,1.626a12.426,12.426,0,0,1-3.054,8.778,10.616,10.616,0,0,1-8.2,3.307,10.669,10.669,0,0,1-8.207-3.3q-3.065-3.3-3.065-8.965Zm6.35.461a8.863,8.863,0,0,0,1.274,5.175A4.206,4.206,0,0,0,419.59-4.68a4.216,4.216,0,0,0,3.6-1.769q1.3-1.769,1.3-5.658a8.774,8.774,0,0,0-1.3-5.142,4.216,4.216,0,0,0-3.647-1.824,4.147,4.147,0,0,0-3.6,1.813Q414.668-15.447,414.668-11.646Z" transform="translate(235 3467)" fill="#09347b"/>
      <path id="Trazado_10609" data-name="Trazado 10609" d="M8.21-3.544a1.428,1.428,0,0,0-.557-1.211,7.3,7.3,0,0,0-2-.891,14.206,14.206,0,0,1-2.292-.923,3.744,3.744,0,0,1-2.3-3.349,3.262,3.262,0,0,1,.617-1.953,4.024,4.024,0,0,1,1.772-1.341,6.669,6.669,0,0,1,2.593-.482,6.071,6.071,0,0,1,2.579.524,4.107,4.107,0,0,1,1.758,1.48A3.872,3.872,0,0,1,11-9.519H8.22a1.821,1.821,0,0,0-.584-1.443,2.4,2.4,0,0,0-1.642-.515,2.567,2.567,0,0,0-1.586.431,1.361,1.361,0,0,0-.566,1.136A1.3,1.3,0,0,0,4.5-8.8a7.494,7.494,0,0,0,1.953.835A8.438,8.438,0,0,1,9.917-6.2,3.529,3.529,0,0,1,11-3.562,3.251,3.251,0,0,1,9.676-.812,5.808,5.808,0,0,1,6.1.186,6.9,6.9,0,0,1,3.266-.385,4.492,4.492,0,0,1,1.313-1.948a4,4,0,0,1-.673-2.3H3.433q0,2.236,2.672,2.236a2.6,2.6,0,0,0,1.549-.4A1.313,1.313,0,0,0,8.21-3.544ZM18.722-1.021A3.362,3.362,0,0,1,15.976.186a3.171,3.171,0,0,1-2.463-.928,3.96,3.96,0,0,1-.867-2.718v-6.578h2.681v6.485q0,1.568,1.429,1.568a1.937,1.937,0,0,0,1.874-.946v-7.106h2.69V0H18.8Zm7.459-9.018V.547A3.591,3.591,0,0,1,25.3,3.131a3.35,3.35,0,0,1-2.542.923A5.452,5.452,0,0,1,21.431,3.9V1.772a5.033,5.033,0,0,0,.844.083q1.215,0,1.215-1.29v-10.6Zm-2.9-2.6a1.32,1.32,0,0,1,.4-.993,1.516,1.516,0,0,1,1.1-.39,1.516,1.516,0,0,1,1.1.39,1.32,1.32,0,0,1,.4.993,1.316,1.316,0,0,1-.413,1,1.523,1.523,0,0,1-1.09.39,1.523,1.523,0,0,1-1.09-.39A1.316,1.316,0,0,1,23.277-12.636ZM32.9.186A4.928,4.928,0,0,1,29.3-1.169a4.815,4.815,0,0,1-1.387-3.609v-.26a6.064,6.064,0,0,1,.584-2.7,4.289,4.289,0,0,1,1.656-1.837,4.648,4.648,0,0,1,2.445-.645,4.166,4.166,0,0,1,3.242,1.3,5.278,5.278,0,0,1,1.183,3.683v1.095H30.634a2.491,2.491,0,0,0,.784,1.577,2.37,2.37,0,0,0,1.656.594A2.894,2.894,0,0,0,35.5-3.1l1.317,1.475A4.025,4.025,0,0,1,35.18-.292,5.357,5.357,0,0,1,32.9.186Zm-.306-8.238a1.679,1.679,0,0,0-1.294.538,2.78,2.78,0,0,0-.635,1.54h3.729v-.213a1.982,1.982,0,0,0-.482-1.378A1.733,1.733,0,0,0,32.591-8.053Zm9.166-4.453v2.468h1.716v1.967H41.757v5.01a1.2,1.2,0,0,0,.213.8,1.072,1.072,0,0,0,.816.241,4.276,4.276,0,0,0,.789-.065V-.056a5.52,5.52,0,0,1-1.624.241,2.56,2.56,0,0,1-2.876-2.848V-8.071H37.61v-1.967h1.466v-2.468Zm2.514,7.394a5.953,5.953,0,0,1,.575-2.663A4.211,4.211,0,0,1,46.5-9.583a4.831,4.831,0,0,1,2.51-.64A4.571,4.571,0,0,1,52.329-8.98,4.989,4.989,0,0,1,53.762-5.6l.019.687a5.247,5.247,0,0,1-1.29,3.706,4.482,4.482,0,0,1-3.46,1.4,4.5,4.5,0,0,1-3.465-1.392,5.339,5.339,0,0,1-1.294-3.785Zm2.681.195a3.742,3.742,0,0,0,.538,2.185,1.776,1.776,0,0,0,1.54.756,1.78,1.78,0,0,0,1.521-.747A4.1,4.1,0,0,0,51.1-5.112a3.7,3.7,0,0,0-.547-2.171,1.78,1.78,0,0,0-1.54-.77,1.751,1.751,0,0,0-1.521.765A4.164,4.164,0,0,0,46.953-4.917Z" transform="translate(355 3553.5)" fill="#26c179"/>
      <path id="Trazado_10611" data-name="Trazado 10611" d="M51.5,0A51.5,51.5,0,1,1,0,51.5,51.5,51.5,0,0,1,51.5,0Z" transform="translate(692 3487.667)" fill="#ffe8ba"/>
      <path id="Trazado_10610" data-name="Trazado 10610" d="M11.47-31.992l8.218,23.2,8.174-23.2h8.657V0H29.9V-8.745l.659-15.1L21.929,0H17.4L8.789-23.818,9.448-8.745V0H2.856V-31.992ZM48.56,0H42.188V-23.774H48.56ZM41.814-29.927a3.127,3.127,0,0,1,.956-2.351,3.591,3.591,0,0,1,2.6-.923,3.6,3.6,0,0,1,2.593.923,3.109,3.109,0,0,1,.967,2.351,3.118,3.118,0,0,1-.978,2.373,3.608,3.608,0,0,1-2.582.923,3.608,3.608,0,0,1-2.582-.923A3.118,3.118,0,0,1,41.814-29.927ZM71.7,0H65.325V-33.75H71.7ZM83.628,0H77.256V-23.774h6.372ZM76.882-29.927a3.127,3.127,0,0,1,.956-2.351,3.591,3.591,0,0,1,2.6-.923,3.6,3.6,0,0,1,2.593.923A3.109,3.109,0,0,1,84-29.927a3.118,3.118,0,0,1-.978,2.373,3.608,3.608,0,0,1-2.582.923,3.608,3.608,0,0,1-2.582-.923A3.118,3.118,0,0,1,76.882-29.927Zm33.4,18.259q0,5.713-2.439,8.91a8.079,8.079,0,0,1-6.812,3.2,7.423,7.423,0,0,1-6.174-2.966L94.57,0H88.857V-33.75h6.35v12.107a7.232,7.232,0,0,1,5.779-2.571,8.146,8.146,0,0,1,6.823,3.2q2.472,3.2,2.472,9Zm-6.35-.461a9.458,9.458,0,0,0-1.143-5.262,3.864,3.864,0,0,0-3.406-1.659,4.189,4.189,0,0,0-4.175,2.483v9.382a4.245,4.245,0,0,0,4.219,2.5,3.92,3.92,0,0,0,4.043-3.032A15.642,15.642,0,0,0,103.931-12.129Zm23.621-5.691A17.251,17.251,0,0,0,125.266-18q-3.6,0-4.724,2.439V0h-6.35V-23.774h6l.176,2.834a5.884,5.884,0,0,1,5.3-3.274,6.654,6.654,0,0,1,1.978.286Zm1.274,5.713a14.1,14.1,0,0,1,1.362-6.306A9.973,9.973,0,0,1,134.11-22.7a11.443,11.443,0,0,1,5.944-1.516,10.826,10.826,0,0,1,7.855,2.944,11.817,11.817,0,0,1,3.395,8l.044,1.626a12.426,12.426,0,0,1-3.054,8.778A10.616,10.616,0,0,1,140.1.439a10.669,10.669,0,0,1-8.207-3.3q-3.065-3.3-3.065-8.965Zm6.35.461a8.863,8.863,0,0,0,1.274,5.175A4.206,4.206,0,0,0,140.1-4.68a4.216,4.216,0,0,0,3.6-1.769q1.3-1.769,1.3-5.658a8.774,8.774,0,0,0-1.3-5.142,4.216,4.216,0,0,0-3.647-1.824,4.147,4.147,0,0,0-3.6,1.813Q135.176-15.447,135.176-11.646Zm30.3-.417q0-5.559,2.494-8.855a8.092,8.092,0,0,1,6.823-3.3,7.282,7.282,0,0,1,5.735,2.593V-33.75H186.9V0h-5.735l-.308-2.527A7.473,7.473,0,0,1,174.749.439a8.07,8.07,0,0,1-6.735-3.307Q165.476-6.174,165.476-12.063Zm6.35.461a9.359,9.359,0,0,0,1.165,5.12,3.8,3.8,0,0,0,3.384,1.78,4.25,4.25,0,0,0,4.153-2.483v-9.382a4.189,4.189,0,0,0-4.109-2.483Q171.826-19.05,171.826-11.6ZM202.764.439a11.671,11.671,0,0,1-8.514-3.208,11.4,11.4,0,0,1-3.285-8.547v-.615a14.362,14.362,0,0,1,1.384-6.405,10.159,10.159,0,0,1,3.922-4.351,11.008,11.008,0,0,1,5.79-1.527,9.867,9.867,0,0,1,7.679,3.076q2.8,3.076,2.8,8.723v2.593H197.4a5.9,5.9,0,0,0,1.857,3.735,5.613,5.613,0,0,0,3.922,1.406,6.854,6.854,0,0,0,5.735-2.659l3.12,3.494a9.533,9.533,0,0,1-3.867,3.153A12.688,12.688,0,0,1,202.764.439Zm-.725-19.512a3.977,3.977,0,0,0-3.065,1.274,6.584,6.584,0,0,0-1.505,3.647H206.3v-.505a4.694,4.694,0,0,0-1.143-3.263A4.1,4.1,0,0,0,202.039-19.072Zm35.2,14.392a4.165,4.165,0,0,0,2.856-.967,3.387,3.387,0,0,0,1.143-2.571h5.955a8.145,8.145,0,0,1-1.318,4.427,8.7,8.7,0,0,1-3.549,3.12,11.106,11.106,0,0,1-4.977,1.11A10.321,10.321,0,0,1,229.307-2.8q-2.944-3.241-2.944-8.954v-.417a12.678,12.678,0,0,1,2.922-8.767,10.2,10.2,0,0,1,8.02-3.274,10,10,0,0,1,7.152,2.538,8.986,8.986,0,0,1,2.736,6.757h-5.955a4.328,4.328,0,0,0-1.143-3,3.82,3.82,0,0,0-2.9-1.154,3.826,3.826,0,0,0-3.351,1.615q-1.132,1.615-1.132,5.24v.659q0,3.669,1.121,5.273A3.875,3.875,0,0,0,237.239-4.68Zm27.817,2.263a7.963,7.963,0,0,1-6.5,2.856,7.51,7.51,0,0,1-5.834-2.2q-2.01-2.2-2.054-6.438V-23.774h6.35V-8.416q0,3.713,3.384,3.713,3.23,0,4.438-2.241V-23.774h6.372V0h-5.977ZM286.941.439a11.671,11.671,0,0,1-8.514-3.208,11.4,11.4,0,0,1-3.285-8.547v-.615a14.362,14.362,0,0,1,1.384-6.405,10.159,10.159,0,0,1,3.922-4.351,11.008,11.008,0,0,1,5.79-1.527,9.867,9.867,0,0,1,7.679,3.076q2.8,3.076,2.8,8.723v2.593H281.58a5.9,5.9,0,0,0,1.857,3.735,5.613,5.613,0,0,0,3.922,1.406,6.854,6.854,0,0,0,5.735-2.659l3.12,3.494a9.533,9.533,0,0,1-3.867,3.153A12.688,12.688,0,0,1,286.941.439Zm-.725-19.512a3.977,3.977,0,0,0-3.065,1.274,6.584,6.584,0,0,0-1.505,3.647h8.833v-.505a4.694,4.694,0,0,0-1.143-3.263A4.1,4.1,0,0,0,286.216-19.072Zm19.951-4.7.2,2.747a8.3,8.3,0,0,1,6.833-3.186q3.779,0,5.625,2.219t1.89,6.636V0h-6.35V-15.205a4.12,4.12,0,0,0-.879-2.933,3.935,3.935,0,0,0-2.922-.912,4.369,4.369,0,0,0-4.021,2.285V0h-6.35V-23.774Zm26.96-5.845v5.845h4.065v4.658h-4.065V-7.251a2.833,2.833,0,0,0,.505,1.89,2.538,2.538,0,0,0,1.934.571,10.127,10.127,0,0,0,1.868-.154V-.132a13.073,13.073,0,0,1-3.845.571q-6.68,0-6.812-6.746v-12.81h-3.472v-4.658h3.472v-5.845Zm5.955,17.512a14.1,14.1,0,0,1,1.362-6.306,9.973,9.973,0,0,1,3.922-4.285,11.443,11.443,0,0,1,5.944-1.516,10.826,10.826,0,0,1,7.855,2.944,11.817,11.817,0,0,1,3.395,8l.044,1.626a12.426,12.426,0,0,1-3.054,8.778,10.616,10.616,0,0,1-8.2,3.307,10.669,10.669,0,0,1-8.207-3.3q-3.065-3.3-3.065-8.965Zm6.35.461a8.863,8.863,0,0,0,1.274,5.175,4.206,4.206,0,0,0,3.647,1.791,4.216,4.216,0,0,0,3.6-1.769q1.3-1.769,1.3-5.658a8.774,8.774,0,0,0-1.3-5.142,4.216,4.216,0,0,0-3.647-1.824,4.147,4.147,0,0,0-3.6,1.813Q345.432-15.447,345.432-11.646ZM378.391-6.57A2.046,2.046,0,0,0,377.238-8.4a13.1,13.1,0,0,0-3.7-1.2q-8.481-1.78-8.481-7.207a6.533,6.533,0,0,1,2.626-5.284,10.592,10.592,0,0,1,6.866-2.12,11.4,11.4,0,0,1,7.24,2.131,6.717,6.717,0,0,1,2.714,5.537h-6.35a3.073,3.073,0,0,0-.879-2.252,3.719,3.719,0,0,0-2.747-.89,3.8,3.8,0,0,0-2.483.725,2.289,2.289,0,0,0-.879,1.846,1.957,1.957,0,0,0,1,1.7,10.285,10.285,0,0,0,3.373,1.121,27.548,27.548,0,0,1,4,1.066q5.032,1.846,5.032,6.394a6.2,6.2,0,0,1-2.791,5.262,12.038,12.038,0,0,1-7.207,2.01,12.573,12.573,0,0,1-5.306-1.066,8.9,8.9,0,0,1-3.636-2.922,6.79,6.79,0,0,1-1.318-4.01h6.021a3.315,3.315,0,0,0,1.252,2.593,4.968,4.968,0,0,0,3.12.9,4.6,4.6,0,0,0,2.758-.692A2.154,2.154,0,0,0,378.391-6.57Z" transform="translate(636 3552.667)" fill="#09347b"/>
      <path id="Trazado_10612" data-name="Trazado 10612" d="M12.19,0H9.407L3.989-8.888V0H1.206V-13.508H3.989L9.417-4.6v-8.906H12.19Zm8.266-1.021A3.362,3.362,0,0,1,17.71.186a3.171,3.171,0,0,1-2.463-.928A3.96,3.96,0,0,1,14.38-3.46v-6.578h2.681v6.485q0,1.568,1.429,1.568a1.937,1.937,0,0,0,1.874-.946v-7.106h2.69V0H20.531ZM19.26-14.25h2.922l-2.57,2.876h-2.18ZM29.251-1.976a1.759,1.759,0,0,0,1.206-.408A1.43,1.43,0,0,0,30.94-3.47h2.514A3.439,3.439,0,0,1,32.9-1.6,3.673,3.673,0,0,1,31.4-.283a4.689,4.689,0,0,1-2.1.469,4.358,4.358,0,0,1-3.4-1.368,5.415,5.415,0,0,1-1.243-3.781V-5.14a5.353,5.353,0,0,1,1.234-3.7,4.307,4.307,0,0,1,3.386-1.382A4.222,4.222,0,0,1,32.3-9.152,3.794,3.794,0,0,1,33.454-6.3H30.94a1.827,1.827,0,0,0-.482-1.266,1.613,1.613,0,0,0-1.225-.487,1.616,1.616,0,0,0-1.415.682,3.947,3.947,0,0,0-.478,2.213v.278a4,4,0,0,0,.473,2.227A1.636,1.636,0,0,0,29.251-1.976ZM37.814,0h-2.69V-14.25h2.69Zm6.828.186a4.928,4.928,0,0,1-3.595-1.354,4.815,4.815,0,0,1-1.387-3.609v-.26a6.064,6.064,0,0,1,.584-2.7A4.289,4.289,0,0,1,41.9-9.579a4.648,4.648,0,0,1,2.445-.645,4.166,4.166,0,0,1,3.242,1.3,5.278,5.278,0,0,1,1.183,3.683v1.095H42.379a2.491,2.491,0,0,0,.784,1.577,2.37,2.37,0,0,0,1.656.594A2.894,2.894,0,0,0,47.24-3.1l1.317,1.475A4.025,4.025,0,0,1,46.925-.292,5.357,5.357,0,0,1,44.643.186Zm-.306-8.238a1.679,1.679,0,0,0-1.294.538,2.78,2.78,0,0,0-.635,1.54h3.729v-.213a1.982,1.982,0,0,0-.482-1.378A1.733,1.733,0,0,0,44.336-8.053Zm5.539,2.941a5.953,5.953,0,0,1,.575-2.663,4.211,4.211,0,0,1,1.656-1.809,4.831,4.831,0,0,1,2.51-.64A4.571,4.571,0,0,1,57.932-8.98,4.989,4.989,0,0,1,59.366-5.6l.019.687a5.247,5.247,0,0,1-1.29,3.706,4.482,4.482,0,0,1-3.46,1.4,4.5,4.5,0,0,1-3.465-1.392,5.339,5.339,0,0,1-1.294-3.785Zm2.681.195a3.742,3.742,0,0,0,.538,2.185,1.776,1.776,0,0,0,1.54.756,1.78,1.78,0,0,0,1.521-.747A4.1,4.1,0,0,0,56.7-5.112a3.7,3.7,0,0,0-.547-2.171,1.78,1.78,0,0,0-1.54-.77,1.751,1.751,0,0,0-1.521.765A4.164,4.164,0,0,0,52.556-4.917Z" transform="translate(719 3618.167)" fill="#26c179"/>
      <path id="Trazado_10615" data-name="Trazado 10615" d="M13.474,0H10.4L4.409-9.823V0H1.333V-14.93H4.409l6,9.844V-14.93h3.066ZM22.61-1.128A3.716,3.716,0,0,1,19.575.205,3.5,3.5,0,0,1,16.852-.82a4.377,4.377,0,0,1-.959-3v-7.27h2.963v7.167q0,1.733,1.579,1.733A2.14,2.14,0,0,0,22.507-3.24v-7.854h2.974V0H22.692ZM21.287-15.75h3.23l-2.84,3.179h-2.41ZM32.331-2.184a1.944,1.944,0,0,0,1.333-.451,1.581,1.581,0,0,0,.533-1.2h2.779a3.8,3.8,0,0,1-.615,2.066A4.06,4.06,0,0,1,34.7-.313a5.183,5.183,0,0,1-2.323.518,4.817,4.817,0,0,1-3.753-1.512,5.985,5.985,0,0,1-1.374-4.178v-.195a5.917,5.917,0,0,1,1.364-4.091A4.761,4.761,0,0,1,32.361-11.3,4.667,4.667,0,0,1,35.7-10.115a4.193,4.193,0,0,1,1.277,3.153H34.2a2.02,2.02,0,0,0-.533-1.4A1.783,1.783,0,0,0,32.31-8.9a1.786,1.786,0,0,0-1.564.754A4.363,4.363,0,0,0,30.218-5.7v.308a4.418,4.418,0,0,0,.523,2.461A1.808,1.808,0,0,0,32.331-2.184ZM41.795,0H38.821V-15.75h2.974Zm7.547.205a5.447,5.447,0,0,1-3.973-1.5,5.321,5.321,0,0,1-1.533-3.989v-.287a6.7,6.7,0,0,1,.646-2.989,4.741,4.741,0,0,1,1.83-2.03,5.137,5.137,0,0,1,2.7-.713A4.6,4.6,0,0,1,52.6-9.864,5.833,5.833,0,0,1,53.9-5.793v1.21H46.84a2.753,2.753,0,0,0,.866,1.743,2.619,2.619,0,0,0,1.83.656,3.2,3.2,0,0,0,2.676-1.241l1.456,1.63a4.449,4.449,0,0,1-1.8,1.471A5.921,5.921,0,0,1,49.342.205ZM49-8.9a1.856,1.856,0,0,0-1.43.595,3.073,3.073,0,0,0-.7,1.7h4.122v-.236a2.191,2.191,0,0,0-.533-1.523A1.915,1.915,0,0,0,49-8.9Zm6.122,3.25a6.58,6.58,0,0,1,.636-2.943,4.654,4.654,0,0,1,1.83-2,5.34,5.34,0,0,1,2.774-.708,5.052,5.052,0,0,1,3.666,1.374,5.514,5.514,0,0,1,1.584,3.732l.021.759a5.8,5.8,0,0,1-1.425,4.1A4.954,4.954,0,0,1,60.385.205a4.979,4.979,0,0,1-3.83-1.538,5.9,5.9,0,0,1-1.43-4.184Zm2.963.215a4.136,4.136,0,0,0,.595,2.415,1.963,1.963,0,0,0,1.7.836,1.967,1.967,0,0,0,1.682-.825,4.526,4.526,0,0,0,.6-2.64,4.1,4.1,0,0,0-.6-2.4,1.968,1.968,0,0,0-1.7-.851,1.935,1.935,0,0,0-1.682.846A4.6,4.6,0,0,0,58.088-5.435Z" transform="translate(509 3780.5)" fill="#26c179"/>
      <path id="Trazado_10613" data-name="Trazado 10613" d="M69.5,0A69.5,69.5,0,1,1,0,69.5,69.5,69.5,0,0,1,69.5,0Z" transform="translate(472 3610)" fill="#e9dbff"/>
      <path id="Trazado_10614" data-name="Trazado 10614" d="M22.1-13.865H9.448V-5.3H24.3V0H2.856V-31.992h21.4v5.339H9.448v7.625H22.1ZM34.453,0H28.081V-33.75h6.372ZM61.831.439a11.671,11.671,0,0,1-8.514-3.208,11.4,11.4,0,0,1-3.285-8.547v-.615a14.362,14.362,0,0,1,1.384-6.405,10.159,10.159,0,0,1,3.922-4.351,11.008,11.008,0,0,1,5.79-1.527,9.867,9.867,0,0,1,7.679,3.076q2.8,3.076,2.8,8.723v2.593H56.47a5.9,5.9,0,0,0,1.857,3.735A5.613,5.613,0,0,0,62.249-4.68a6.854,6.854,0,0,0,5.735-2.659L71.1-3.845A9.533,9.533,0,0,1,67.236-.692,12.688,12.688,0,0,1,61.831.439Zm-.725-19.512A3.977,3.977,0,0,0,58.041-17.8a6.584,6.584,0,0,0-1.505,3.647h8.833v-.505a4.694,4.694,0,0,0-1.143-3.263A4.1,4.1,0,0,0,61.106-19.072Zm13.118,6.965q0-5.6,2.494-8.855a8.153,8.153,0,0,1,6.844-3.252,7.3,7.3,0,0,1,6.086,2.922l.417-2.483h5.581V9.141H89.275V-2.043A7.32,7.32,0,0,1,83.518.439a8.093,8.093,0,0,1-6.768-3.3Q74.224-6.152,74.224-12.107Zm6.35.461a9.3,9.3,0,0,0,1.2,5.186,3.835,3.835,0,0,0,3.373,1.78,4.272,4.272,0,0,0,4.131-2.329v-9.822a4.237,4.237,0,0,0-4.087-2.241,3.882,3.882,0,0,0-3.406,1.78Q80.574-15.513,80.574-11.646Zm34.3,9.229a7.963,7.963,0,0,1-6.5,2.856,7.51,7.51,0,0,1-5.834-2.2q-2.01-2.2-2.054-6.438V-23.774h6.35V-8.416q0,3.713,3.384,3.713,3.23,0,4.438-2.241V-23.774h6.372V0h-5.977ZM132.517,0h-6.372V-23.774h6.372Zm-6.746-29.927a3.127,3.127,0,0,1,.956-2.351,3.591,3.591,0,0,1,2.6-.923,3.6,3.6,0,0,1,2.593.923,3.109,3.109,0,0,1,.967,2.351,3.118,3.118,0,0,1-.978,2.373,3.608,3.608,0,0,1-2.582.923,3.608,3.608,0,0,1-2.582-.923A3.118,3.118,0,0,1,125.771-29.927Zm33.376,18.259a14.259,14.259,0,0,1-2.494,8.8A8,8,0,0,1,149.919.439a7.407,7.407,0,0,1-5.823-2.5V9.141h-6.35V-23.774h5.889l.22,2.329a7.463,7.463,0,0,1,6.021-2.769,8.05,8.05,0,0,1,6.833,3.252q2.439,3.252,2.439,8.965Zm-6.35-.461a9.357,9.357,0,0,0-1.176-5.12,3.829,3.829,0,0,0-3.417-1.8,4.158,4.158,0,0,0-4.109,2.285v9.734A4.229,4.229,0,0,0,148.25-4.68Q152.8-4.68,152.8-12.129Zm9.294.022a14.1,14.1,0,0,1,1.362-6.306,9.973,9.973,0,0,1,3.922-4.285,11.443,11.443,0,0,1,5.944-1.516,10.826,10.826,0,0,1,7.855,2.944,11.817,11.817,0,0,1,3.395,8l.044,1.626a12.426,12.426,0,0,1-3.054,8.778,10.616,10.616,0,0,1-8.2,3.307,10.669,10.669,0,0,1-8.207-3.3q-3.065-3.3-3.065-8.965Zm6.35.461a8.863,8.863,0,0,0,1.274,5.175,4.206,4.206,0,0,0,3.647,1.791,4.216,4.216,0,0,0,3.6-1.769q1.3-1.769,1.3-5.658a8.774,8.774,0,0,0-1.3-5.142,4.216,4.216,0,0,0-3.647-1.824,4.147,4.147,0,0,0-3.6,1.813Q168.442-15.447,168.442-11.646ZM209.619-4.68a4.165,4.165,0,0,0,2.856-.967,3.387,3.387,0,0,0,1.143-2.571h5.955a8.145,8.145,0,0,1-1.318,4.427,8.7,8.7,0,0,1-3.549,3.12,11.106,11.106,0,0,1-4.977,1.11A10.321,10.321,0,0,1,201.687-2.8q-2.944-3.241-2.944-8.954v-.417a12.678,12.678,0,0,1,2.922-8.767,10.2,10.2,0,0,1,8.02-3.274,10,10,0,0,1,7.152,2.538,8.986,8.986,0,0,1,2.736,6.757h-5.955a4.328,4.328,0,0,0-1.143-3,3.82,3.82,0,0,0-2.9-1.154,3.826,3.826,0,0,0-3.351,1.615q-1.132,1.615-1.132,5.24v.659q0,3.669,1.121,5.273A3.875,3.875,0,0,0,209.619-4.68Zm12.59-7.427a14.1,14.1,0,0,1,1.362-6.306,9.973,9.973,0,0,1,3.922-4.285,11.443,11.443,0,0,1,5.944-1.516,10.826,10.826,0,0,1,7.855,2.944,11.817,11.817,0,0,1,3.395,8l.044,1.626a12.426,12.426,0,0,1-3.054,8.778,10.616,10.616,0,0,1-8.2,3.307,10.669,10.669,0,0,1-8.207-3.3q-3.065-3.3-3.065-8.965Zm6.35.461a8.863,8.863,0,0,0,1.274,5.175,4.206,4.206,0,0,0,3.647,1.791,4.216,4.216,0,0,0,3.6-1.769q1.3-1.769,1.3-5.658a8.774,8.774,0,0,0-1.3-5.142,4.216,4.216,0,0,0-3.647-1.824,4.147,4.147,0,0,0-3.6,1.813Q228.56-15.447,228.56-11.646ZM255.344,0h-6.372V-33.75h6.372Zm4.241-12.107a14.1,14.1,0,0,1,1.362-6.306,9.973,9.973,0,0,1,3.922-4.285,11.443,11.443,0,0,1,5.944-1.516,10.826,10.826,0,0,1,7.855,2.944,11.817,11.817,0,0,1,3.395,8l.044,1.626a12.426,12.426,0,0,1-3.054,8.778,10.616,10.616,0,0,1-8.2,3.307,10.669,10.669,0,0,1-8.207-3.3q-3.065-3.3-3.065-8.965Zm6.35.461a8.863,8.863,0,0,0,1.274,5.175,4.206,4.206,0,0,0,3.647,1.791,4.216,4.216,0,0,0,3.6-1.769q1.3-1.769,1.3-5.658a8.774,8.774,0,0,0-1.3-5.142,4.216,4.216,0,0,0-3.647-1.824,4.147,4.147,0,0,0-3.6,1.813Q265.935-15.447,265.935-11.646Zm26.038-12.129.2,2.659a8.355,8.355,0,0,1,6.833-3.1q4.592,0,6.306,3.625a8.163,8.163,0,0,1,7.141-3.625q3.867,0,5.757,2.252t1.89,6.779V0h-6.372V-15.161a4.527,4.527,0,0,0-.791-2.955,3.506,3.506,0,0,0-2.791-.934,3.963,3.963,0,0,0-3.955,2.725L306.211,0h-6.35V-15.139a4.472,4.472,0,0,0-.813-2.988,3.54,3.54,0,0,0-2.769-.923,4.115,4.115,0,0,0-3.911,2.241V0h-6.35V-23.774ZM346.4-11.667q0,5.713-2.439,8.91a8.079,8.079,0,0,1-6.812,3.2,7.423,7.423,0,0,1-6.174-2.966L330.688,0h-5.713V-33.75h6.35v12.107a7.232,7.232,0,0,1,5.779-2.571,8.146,8.146,0,0,1,6.823,3.2q2.472,3.2,2.472,9Zm-6.35-.461a9.458,9.458,0,0,0-1.143-5.262A3.864,3.864,0,0,0,335.5-19.05a4.189,4.189,0,0,0-4.175,2.483v9.382a4.245,4.245,0,0,0,4.219,2.5,3.92,3.92,0,0,0,4.043-3.032A15.642,15.642,0,0,0,340.049-12.129ZM357.012,0H350.64V-23.774h6.372Zm-6.746-29.927a3.127,3.127,0,0,1,.956-2.351,3.591,3.591,0,0,1,2.6-.923,3.6,3.6,0,0,1,2.593.923,3.109,3.109,0,0,1,.967,2.351,3.118,3.118,0,0,1-.978,2.373,3.608,3.608,0,0,1-2.582.923,3.608,3.608,0,0,1-2.582-.923A3.118,3.118,0,0,1,350.266-29.927ZM376.018,0a7.052,7.052,0,0,1-.637-2.131,7.683,7.683,0,0,1-6,2.571,8.441,8.441,0,0,1-5.79-2.021,6.5,6.5,0,0,1-2.3-5.1,6.719,6.719,0,0,1,2.8-5.8q2.8-2.021,8.1-2.043h2.922v-1.362a3.918,3.918,0,0,0-.846-2.637,3.328,3.328,0,0,0-2.67-.989,3.783,3.783,0,0,0-2.516.769,2.613,2.613,0,0,0-.912,2.109h-6.35a6.379,6.379,0,0,1,1.274-3.823,8.424,8.424,0,0,1,3.6-2.758,13.133,13.133,0,0,1,5.229-1,10.376,10.376,0,0,1,6.976,2.208,7.725,7.725,0,0,1,2.582,6.207V-5.493a11.366,11.366,0,0,0,.945,5.12V0Zm-5.251-4.417a5.469,5.469,0,0,0,2.593-.626,4.113,4.113,0,0,0,1.758-1.681v-4.087h-2.373q-4.768,0-5.076,3.3l-.022.374a2.542,2.542,0,0,0,.835,1.956A3.243,3.243,0,0,0,370.767-4.417Zm21.445-19.358.2,2.747a8.3,8.3,0,0,1,6.833-3.186q3.779,0,5.625,2.219t1.89,6.636V0h-6.35V-15.205a4.12,4.12,0,0,0-.879-2.933,3.935,3.935,0,0,0-2.922-.912,4.369,4.369,0,0,0-4.021,2.285V0h-6.35V-23.774Zm18.369,11.667a14.1,14.1,0,0,1,1.362-6.306,9.973,9.973,0,0,1,3.922-4.285,11.443,11.443,0,0,1,5.944-1.516,10.826,10.826,0,0,1,7.855,2.944,11.817,11.817,0,0,1,3.395,8l.044,1.626a12.426,12.426,0,0,1-3.054,8.778,10.616,10.616,0,0,1-8.2,3.307,10.669,10.669,0,0,1-8.207-3.3q-3.065-3.3-3.065-8.965Zm6.35.461a8.863,8.863,0,0,0,1.274,5.175,4.206,4.206,0,0,0,3.647,1.791,4.216,4.216,0,0,0,3.6-1.769q1.3-1.769,1.3-5.658a8.774,8.774,0,0,0-1.3-5.142,4.216,4.216,0,0,0-3.647-1.824,4.147,4.147,0,0,0-3.6,1.813Q416.931-15.447,416.931-11.646Zm30.3-.417q0-5.559,2.494-8.855a8.092,8.092,0,0,1,6.823-3.3,7.282,7.282,0,0,1,5.735,2.593V-33.75h6.372V0H462.92l-.308-2.527A7.473,7.473,0,0,1,456.5.439a8.07,8.07,0,0,1-6.735-3.307Q447.231-6.174,447.231-12.063Zm6.35.461a9.359,9.359,0,0,0,1.165,5.12A3.8,3.8,0,0,0,458.13-4.7a4.25,4.25,0,0,0,4.153-2.483v-9.382a4.189,4.189,0,0,0-4.109-2.483Q453.582-19.05,453.582-11.6ZM484.519.439A11.671,11.671,0,0,1,476-2.769a11.4,11.4,0,0,1-3.285-8.547v-.615a14.362,14.362,0,0,1,1.384-6.405,10.159,10.159,0,0,1,3.922-4.351,11.008,11.008,0,0,1,5.79-1.527,9.867,9.867,0,0,1,7.679,3.076q2.8,3.076,2.8,8.723v2.593H479.158a5.9,5.9,0,0,0,1.857,3.735,5.613,5.613,0,0,0,3.922,1.406,6.854,6.854,0,0,0,5.735-2.659l3.12,3.494a9.533,9.533,0,0,1-3.867,3.153A12.688,12.688,0,0,1,484.519.439Zm-.725-19.512a3.977,3.977,0,0,0-3.065,1.274,6.584,6.584,0,0,0-1.505,3.647h8.833v-.505a4.694,4.694,0,0,0-1.143-3.263A4.1,4.1,0,0,0,483.794-19.072ZM510.842,0V-19.116H507.3v-4.658h3.538V-25.8a8.208,8.208,0,0,1,2.3-6.207,8.892,8.892,0,0,1,6.427-2.208,14.845,14.845,0,0,1,3.23.439l-.066,4.922a8.1,8.1,0,0,0-1.934-.2q-3.582,0-3.582,3.362v1.912h4.724v4.658h-4.724V0Zm28.63-2.417a7.963,7.963,0,0,1-6.5,2.856,7.51,7.51,0,0,1-5.834-2.2q-2.01-2.2-2.054-6.438V-23.774h6.35V-8.416q0,3.713,3.384,3.713,3.23,0,4.438-2.241V-23.774h6.372V0h-5.977ZM536.638-33.75h6.921l-6.086,6.812H532.31Zm21.379,4.131v5.845h4.065v4.658h-4.065V-7.251a2.833,2.833,0,0,0,.505,1.89,2.538,2.538,0,0,0,1.934.571,10.127,10.127,0,0,0,1.868-.154V-.132a13.073,13.073,0,0,1-3.845.571q-6.68,0-6.812-6.746v-12.81H548.2v-4.658h3.472v-5.845Zm29.026,17.952q0,5.713-2.439,8.91a8.079,8.079,0,0,1-6.812,3.2,7.423,7.423,0,0,1-6.174-2.966L571.333,0H565.62V-33.75h6.35v12.107a7.232,7.232,0,0,1,5.779-2.571,8.146,8.146,0,0,1,6.823,3.2q2.472,3.2,2.472,9Zm-6.35-.461a9.458,9.458,0,0,0-1.143-5.262,3.864,3.864,0,0,0-3.406-1.659,4.189,4.189,0,0,0-4.175,2.483v9.382a4.245,4.245,0,0,0,4.219,2.5,3.92,3.92,0,0,0,4.043-3.032A15.642,15.642,0,0,0,580.693-12.129Zm9.272.022a14.1,14.1,0,0,1,1.362-6.306A9.973,9.973,0,0,1,595.25-22.7a11.443,11.443,0,0,1,5.944-1.516,10.826,10.826,0,0,1,7.855,2.944,11.817,11.817,0,0,1,3.395,8l.044,1.626a12.426,12.426,0,0,1-3.054,8.778,10.616,10.616,0,0,1-8.2,3.307,10.669,10.669,0,0,1-8.207-3.3q-3.065-3.3-3.065-8.965Zm6.35.461a8.863,8.863,0,0,0,1.274,5.175,4.206,4.206,0,0,0,3.647,1.791,4.216,4.216,0,0,0,3.6-1.769q1.3-1.769,1.3-5.658a8.774,8.774,0,0,0-1.3-5.142,4.216,4.216,0,0,0-3.647-1.824,4.147,4.147,0,0,0-3.6,1.813Q596.316-15.447,596.316-11.646ZM623.1,0h-6.372V-33.75H623.1Z" transform="translate(423 3700)" fill="#09347b"/>
    </g>
  </g>
</svg>
