<svg xmlns="http://www.w3.org/2000/svg" width="932" height="221" viewBox="0 0 932 221">
  <g id="Grupo_13662" data-name="Grupo 13662" transform="translate(-234 -1420)">
    <rect id="Rectángulo_3079" data-name="Rectángulo 3079" width="932" height="221" rx="5" transform="translate(234 1420)" fill="#f5f5f5"/>
    <g id="Grupo_13644" data-name="Grupo 13644">
      <path id="Trazado_11247" data-name="Trazado 11247" d="M4.9-2.466h8.069V0H1.807V-17.773H4.9ZM22.876-1.294A4.6,4.6,0,0,1,19.165.244a4.1,4.1,0,0,1-3.253-1.257,5.349,5.349,0,0,1-1.1-3.638v-8.557h2.966v8.521q0,2.515,2.087,2.515a2.932,2.932,0,0,0,2.917-1.55v-9.485h2.966V0h-2.8ZM31.921,0H28.955V-13.208h2.966ZM28.772-16.638a1.574,1.574,0,0,1,.433-1.135,1.637,1.637,0,0,1,1.239-.452,1.658,1.658,0,0,1,1.245.452,1.562,1.562,0,0,1,.439,1.135,1.526,1.526,0,0,1-.439,1.117,1.671,1.671,0,0,1-1.245.446,1.65,1.65,0,0,1-1.239-.446A1.538,1.538,0,0,1,28.772-16.638ZM42.554-3.589A1.345,1.345,0,0,0,41.9-4.8a6.946,6.946,0,0,0-2.167-.732,11.138,11.138,0,0,1-2.527-.806,3.372,3.372,0,0,1-2.222-3.113,3.516,3.516,0,0,1,1.44-2.856,5.694,5.694,0,0,1,3.662-1.147,5.925,5.925,0,0,1,3.827,1.172,3.719,3.719,0,0,1,1.459,3.04H42.407a1.828,1.828,0,0,0-.635-1.422,2.433,2.433,0,0,0-1.685-.568,2.629,2.629,0,0,0-1.593.452,1.424,1.424,0,0,0-.616,1.208,1.2,1.2,0,0,0,.574,1.062,7.89,7.89,0,0,0,2.319.763,10.979,10.979,0,0,1,2.74.916,3.881,3.881,0,0,1,1.477,1.276,3.253,3.253,0,0,1,.482,1.807A3.441,3.441,0,0,1,43.994-.861a6.3,6.3,0,0,1-3.87,1.1,6.83,6.83,0,0,1-2.893-.586,4.761,4.761,0,0,1-1.978-1.611,3.814,3.814,0,0,1-.708-2.209h2.881a2.09,2.09,0,0,0,.793,1.617,3.083,3.083,0,0,0,1.941.568,3,3,0,0,0,1.782-.446A1.379,1.379,0,0,0,42.554-3.589Zm25.574-2.2a6.417,6.417,0,0,1-2.1,4.437A7.158,7.158,0,0,1,61.157.244,6.931,6.931,0,0,1,57.416-.763a6.61,6.61,0,0,1-2.5-2.863A10.33,10.33,0,0,1,54-7.935v-1.66a10.4,10.4,0,0,1,.891-4.431,6.716,6.716,0,0,1,2.557-2.954A7.134,7.134,0,0,1,61.3-18.018a6.853,6.853,0,0,1,4.736,1.6A6.681,6.681,0,0,1,68.127-11.9H65.051a4.39,4.39,0,0,0-1.117-2.765,3.692,3.692,0,0,0-2.631-.848,3.607,3.607,0,0,0-3.094,1.471,7.346,7.346,0,0,0-1.1,4.315v1.575A7.793,7.793,0,0,0,58.136-3.76a3.424,3.424,0,0,0,3.021,1.514,3.993,3.993,0,0,0,2.734-.818,4.265,4.265,0,0,0,1.16-2.722ZM78.491,0a4.578,4.578,0,0,1-.342-1.233A4.617,4.617,0,0,1,74.683.244,4.66,4.66,0,0,1,71.436-.891,3.632,3.632,0,0,1,70.178-3.7,3.75,3.75,0,0,1,71.747-6.94a7.6,7.6,0,0,1,4.486-1.129h1.819v-.867a2.314,2.314,0,0,0-.574-1.642,2.274,2.274,0,0,0-1.746-.616,2.613,2.613,0,0,0-1.66.507A1.568,1.568,0,0,0,73.425-9.4H70.459a3.292,3.292,0,0,1,.72-2.032,4.8,4.8,0,0,1,1.959-1.483,6.882,6.882,0,0,1,2.765-.537,5.542,5.542,0,0,1,3.7,1.166,4.157,4.157,0,0,1,1.416,3.278v5.957a6.751,6.751,0,0,0,.5,2.844V0ZM75.232-2.136a3.374,3.374,0,0,0,1.654-.427,2.854,2.854,0,0,0,1.166-1.147V-6.2h-1.6a4.373,4.373,0,0,0-2.478.574A1.859,1.859,0,0,0,73.145-4a1.733,1.733,0,0,0,.568,1.361A2.2,2.2,0,0,0,75.232-2.136ZM91.04-10.5a7.34,7.34,0,0,0-1.208-.1,2.721,2.721,0,0,0-2.747,1.563V0H84.119V-13.208h2.832l.073,1.477A3.342,3.342,0,0,1,90-13.452a2.777,2.777,0,0,1,1.05.171ZM96.069,0H93.1V-18.75h2.966Zm2.673-6.726a7.788,7.788,0,0,1,.769-3.5,5.617,5.617,0,0,1,2.161-2.393,6.088,6.088,0,0,1,3.2-.836,5.769,5.769,0,0,1,4.34,1.721,6.77,6.77,0,0,1,1.8,4.565l.012.7a7.858,7.858,0,0,1-.751,3.491A5.549,5.549,0,0,1,108.124-.6,6.132,6.132,0,0,1,104.9.244a5.729,5.729,0,0,1-4.474-1.862A7.13,7.13,0,0,1,98.743-6.58Zm2.966.256a5.322,5.322,0,0,0,.842,3.192A2.738,2.738,0,0,0,104.9-2.124,2.708,2.708,0,0,0,107.233-3.3a5.878,5.878,0,0,0,.836-3.43,5.253,5.253,0,0,0-.861-3.174,2.748,2.748,0,0,0-2.338-1.172,2.723,2.723,0,0,0-2.307,1.154A5.767,5.767,0,0,0,101.709-6.47Zm19.226,2.881a1.345,1.345,0,0,0-.653-1.208,6.946,6.946,0,0,0-2.167-.732,11.138,11.138,0,0,1-2.527-.806,3.372,3.372,0,0,1-2.222-3.113,3.516,3.516,0,0,1,1.44-2.856,5.694,5.694,0,0,1,3.662-1.147A5.925,5.925,0,0,1,122.3-12.28a3.719,3.719,0,0,1,1.459,3.04h-2.966a1.828,1.828,0,0,0-.635-1.422,2.433,2.433,0,0,0-1.685-.568,2.629,2.629,0,0,0-1.593.452,1.424,1.424,0,0,0-.616,1.208,1.2,1.2,0,0,0,.574,1.062,7.89,7.89,0,0,0,2.319.763,10.979,10.979,0,0,1,2.74.916,3.881,3.881,0,0,1,1.477,1.276,3.253,3.253,0,0,1,.482,1.807,3.441,3.441,0,0,1-1.477,2.887,6.3,6.3,0,0,1-3.87,1.1,6.83,6.83,0,0,1-2.893-.586,4.761,4.761,0,0,1-1.978-1.611,3.814,3.814,0,0,1-.708-2.209h2.881a2.09,2.09,0,0,0,.793,1.617,3.083,3.083,0,0,0,1.941.568,3,3,0,0,0,1.782-.446A1.379,1.379,0,0,0,120.935-3.589Z" transform="translate(312 1470)" fill="#26c179"/>
      <path id="Trazado_11249" data-name="Trazado 11249" d="M5.548-6.021A8.376,8.376,0,0,1,2.213-7.64a3.093,3.093,0,0,1-1.044-2.37A3.267,3.267,0,0,1,2.445-12.65a5.07,5.07,0,0,1,3.317-1.044,5.534,5.534,0,0,1,2.482.538,4.081,4.081,0,0,1,1.688,1.484,3.8,3.8,0,0,1,.6,2.069H8.739a2.457,2.457,0,0,0-.779-1.925,3.176,3.176,0,0,0-2.2-.7,3.249,3.249,0,0,0-2.055.58,1.933,1.933,0,0,0-.738,1.61,1.739,1.739,0,0,0,.7,1.4A6.876,6.876,0,0,0,6.053-7.6,11.041,11.041,0,0,1,8.688-6.554,4,4,0,0,1,10.1-5.223a3.4,3.4,0,0,1,.459,1.791A3.156,3.156,0,0,1,9.277-.8,5.459,5.459,0,0,1,5.854.186a6.349,6.349,0,0,1-2.6-.533A4.372,4.372,0,0,1,1.4-1.809,3.566,3.566,0,0,1,.742-3.915H2.533a2.326,2.326,0,0,0,.9,1.934,3.809,3.809,0,0,0,2.417.71,3.5,3.5,0,0,0,2.162-.575,1.868,1.868,0,0,0,.751-1.568,1.834,1.834,0,0,0-.7-1.535A8.022,8.022,0,0,0,5.548-6.021ZM18.768-.993A3.646,3.646,0,0,1,15.827.186a3.12,3.12,0,0,1-2.445-.932,4.036,4.036,0,0,1-.849-2.76v-6.531H14.25v6.485q0,2.282,1.855,2.282a2.569,2.569,0,0,0,2.616-1.466v-7.3h1.716V0H18.805Zm6.049-9.045V1.16q0,2.895-2.625,2.895a3.185,3.185,0,0,1-1.048-.167V2.514a3.318,3.318,0,0,0,.779.074,1.166,1.166,0,0,0,.877-.311A1.536,1.536,0,0,0,23.1,1.2V-10.038ZM22.924-12.7a1.029,1.029,0,0,1,.255-.7.938.938,0,0,1,.747-.292.973.973,0,0,1,.761.288,1.014,1.014,0,0,1,.26.705.98.98,0,0,1-.26.7.99.99,0,0,1-.761.278A.96.96,0,0,1,23.175-12,1,1,0,0,1,22.924-12.7ZM31.747.186a4.386,4.386,0,0,1-3.321-1.341,4.976,4.976,0,0,1-1.28-3.586v-.315a6.024,6.024,0,0,1,.571-2.667,4.451,4.451,0,0,1,1.6-1.837,4.012,4.012,0,0,1,2.222-.663,3.759,3.759,0,0,1,3.043,1.29,5.583,5.583,0,0,1,1.085,3.692v.714h-6.8a3.568,3.568,0,0,0,.867,2.4,2.727,2.727,0,0,0,2.111.914,2.989,2.989,0,0,0,1.54-.371,3.869,3.869,0,0,0,1.1-.983l1.048.816A4.215,4.215,0,0,1,31.747.186Zm-.213-9a2.289,2.289,0,0,0-1.744.756,3.675,3.675,0,0,0-.872,2.12h5.028v-.13a3.269,3.269,0,0,0-.705-2.027A2.155,2.155,0,0,0,31.534-8.813Zm8.442-3.655v2.431H41.85v1.327H39.976v6.225a1.39,1.39,0,0,0,.25.9,1.055,1.055,0,0,0,.854.3,4.155,4.155,0,0,0,.816-.111V0a4.976,4.976,0,0,1-1.317.186,2.137,2.137,0,0,1-1.735-.7,2.989,2.989,0,0,1-.584-1.976V-8.711H36.432v-1.327H38.26v-2.431Zm3.238,7.357a5.929,5.929,0,0,1,.58-2.653,4.325,4.325,0,0,1,1.614-1.818,4.394,4.394,0,0,1,2.361-.64A4.233,4.233,0,0,1,51.086-8.8a5.461,5.461,0,0,1,1.266,3.776v.121a5.981,5.981,0,0,1-.561,2.63,4.262,4.262,0,0,1-1.6,1.814,4.445,4.445,0,0,1-2.4.649A4.223,4.223,0,0,1,44.48-1.234a5.433,5.433,0,0,1-1.266-3.757Zm1.726.2a4.294,4.294,0,0,0,.775,2.681,2.479,2.479,0,0,0,2.073,1.011A2.464,2.464,0,0,0,49.866-2.24a4.7,4.7,0,0,0,.77-2.871,4.287,4.287,0,0,0-.784-2.677,2.492,2.492,0,0,0-2.083-1.025A2.465,2.465,0,0,0,45.719-7.8,4.661,4.661,0,0,0,44.939-4.908Z" transform="translate(345 1497)" fill="#26c179"/>
      <path id="Trazado_11250" data-name="Trazado 11250" d="M3.349-5.288V0H1.568V-13.508H6.55a5.005,5.005,0,0,1,3.474,1.132,3.837,3.837,0,0,1,1.257,3A3.786,3.786,0,0,1,10.052-6.35,5.229,5.229,0,0,1,6.531-5.288Zm0-1.457h3.2a3.2,3.2,0,0,0,2.189-.673A2.457,2.457,0,0,0,9.5-9.361a2.539,2.539,0,0,0-.761-1.93,3,3,0,0,0-2.087-.751h-3.3ZM18.137-8.5a5.143,5.143,0,0,0-.844-.065A2.262,2.262,0,0,0,15-7.125V0H13.285V-10.038h1.67l.028,1.16a2.672,2.672,0,0,1,2.394-1.345,1.753,1.753,0,0,1,.761.13ZM23.7.186a4.386,4.386,0,0,1-3.321-1.341A4.976,4.976,0,0,1,19.1-4.741v-.315a6.024,6.024,0,0,1,.571-2.667,4.451,4.451,0,0,1,1.6-1.837,4.012,4.012,0,0,1,2.222-.663,3.759,3.759,0,0,1,3.043,1.29,5.583,5.583,0,0,1,1.085,3.692v.714h-6.8a3.568,3.568,0,0,0,.867,2.4,2.727,2.727,0,0,0,2.111.914,2.989,2.989,0,0,0,1.54-.371,3.87,3.87,0,0,0,1.1-.983l1.048.816A4.215,4.215,0,0,1,23.7.186Zm-.213-9a2.289,2.289,0,0,0-1.744.756,3.675,3.675,0,0,0-.872,2.12H25.9v-.13A3.269,3.269,0,0,0,25.2-8.094,2.155,2.155,0,0,0,23.49-8.813Zm5.7,3.711a5.88,5.88,0,0,1,1.095-3.716,3.462,3.462,0,0,1,2.867-1.406A3.481,3.481,0,0,1,35.94-9.018V-14.25h1.716V0H36.08L36-1.076A3.5,3.5,0,0,1,33.129.186a3.429,3.429,0,0,1-2.844-1.429,5.947,5.947,0,0,1-1.1-3.729Zm1.716.195a4.452,4.452,0,0,0,.705,2.672,2.279,2.279,0,0,0,1.948.965A2.5,2.5,0,0,0,35.94-2.737V-7.348a2.523,2.523,0,0,0-2.366-1.419,2.29,2.29,0,0,0-1.967.974A4.9,4.9,0,0,0,30.9-4.908ZM42.184,0H40.468V-10.038h1.716ZM40.329-12.7a1.024,1.024,0,0,1,.255-.705.958.958,0,0,1,.756-.288.973.973,0,0,1,.761.288,1.014,1.014,0,0,1,.26.705.98.98,0,0,1-.26.7.99.99,0,0,1-.761.278A.975.975,0,0,1,40.584-12,.991.991,0,0,1,40.329-12.7ZM48.957-1.215a2.472,2.472,0,0,0,1.6-.557,1.958,1.958,0,0,0,.761-1.392h1.624a3.112,3.112,0,0,1-.594,1.642A3.911,3.911,0,0,1,50.891-.278a4.216,4.216,0,0,1-1.934.464A4.135,4.135,0,0,1,45.7-1.183a5.45,5.45,0,0,1-1.211-3.743v-.288a6.043,6.043,0,0,1,.538-2.607,4.1,4.1,0,0,1,1.545-1.772,4.388,4.388,0,0,1,2.38-.631,4.026,4.026,0,0,1,2.806,1.011,3.614,3.614,0,0,1,1.192,2.625H51.322a2.365,2.365,0,0,0-.738-1.6,2.294,2.294,0,0,0-1.637-.626,2.4,2.4,0,0,0-2.027.942A4.422,4.422,0,0,0,46.2-5.149v.325a4.334,4.334,0,0,0,.714,2.672A2.414,2.414,0,0,0,48.957-1.215ZM61.073,0a3.605,3.605,0,0,1-.241-1.058A3.829,3.829,0,0,1,57.974.186a3.543,3.543,0,0,1-2.435-.84,2.716,2.716,0,0,1-.951-2.129A2.838,2.838,0,0,1,55.78-5.219a5.621,5.621,0,0,1,3.354-.867H60.8v-.789a1.928,1.928,0,0,0-.538-1.433,2.163,2.163,0,0,0-1.586-.533,2.5,2.5,0,0,0-1.54.464,1.367,1.367,0,0,0-.622,1.123H54.792a2.369,2.369,0,0,1,.533-1.452,3.641,3.641,0,0,1,1.447-1.109,4.869,4.869,0,0,1,2.009-.408,3.968,3.968,0,0,1,2.718.867A3.129,3.129,0,0,1,62.52-6.967v4.62a5.649,5.649,0,0,0,.353,2.2V0ZM58.225-1.308a3.016,3.016,0,0,0,1.531-.417A2.525,2.525,0,0,0,60.8-2.811v-2.06H59.458q-3.154,0-3.154,1.846a1.562,1.562,0,0,0,.538,1.262A2.068,2.068,0,0,0,58.225-1.308ZM64.793-5.1a5.88,5.88,0,0,1,1.095-3.716,3.462,3.462,0,0,1,2.867-1.406,3.481,3.481,0,0,1,2.792,1.206V-14.25h1.716V0H71.686L71.6-1.076A3.5,3.5,0,0,1,68.736.186a3.429,3.429,0,0,1-2.844-1.429,5.947,5.947,0,0,1-1.1-3.729Zm1.716.195a4.452,4.452,0,0,0,.705,2.672,2.279,2.279,0,0,0,1.948.965,2.5,2.5,0,0,0,2.384-1.466V-7.348a2.523,2.523,0,0,0-2.366-1.419,2.29,2.29,0,0,0-1.967.974A4.9,4.9,0,0,0,66.509-4.908Zm8.962-.2a5.929,5.929,0,0,1,.58-2.653,4.326,4.326,0,0,1,1.614-1.818,4.394,4.394,0,0,1,2.361-.64A4.233,4.233,0,0,1,83.343-8.8a5.461,5.461,0,0,1,1.266,3.776v.121a5.981,5.981,0,0,1-.561,2.63,4.262,4.262,0,0,1-1.6,1.814,4.445,4.445,0,0,1-2.4.649,4.223,4.223,0,0,1-3.307-1.419,5.433,5.433,0,0,1-1.266-3.757Zm1.726.2a4.294,4.294,0,0,0,.775,2.681,2.479,2.479,0,0,0,2.073,1.011A2.464,2.464,0,0,0,82.123-2.24a4.7,4.7,0,0,0,.77-2.871,4.287,4.287,0,0,0-.784-2.677,2.492,2.492,0,0,0-2.083-1.025A2.465,2.465,0,0,0,77.976-7.8,4.661,4.661,0,0,0,77.2-4.908Z" transform="translate(484 1497)" fill="#02255f"/>
      <path id="Trazado_11248" data-name="Trazado 11248" d="M7.336.244A6.137,6.137,0,0,1,2.765-1.532a6.443,6.443,0,0,1-1.752-4.73v-.366a7.925,7.925,0,0,1,.763-3.534,5.807,5.807,0,0,1,2.142-2.423,5.664,5.664,0,0,1,3.076-.867,5.184,5.184,0,0,1,4.169,1.721A7.278,7.278,0,0,1,12.634-6.86v1.2H4A3.966,3.966,0,0,0,5.1-3.076a3.28,3.28,0,0,0,2.411.952,4.017,4.017,0,0,0,3.32-1.648l1.6,1.526A5.34,5.34,0,0,1,10.309-.409,6.631,6.631,0,0,1,7.336.244ZM6.982-11.072a2.5,2.5,0,0,0-1.971.854,4.429,4.429,0,0,0-.958,2.38H9.7v-.22a3.605,3.605,0,0,0-.793-2.252A2.479,2.479,0,0,0,6.982-11.072ZM22.339-3.589A1.345,1.345,0,0,0,21.686-4.8a6.946,6.946,0,0,0-2.167-.732,11.138,11.138,0,0,1-2.527-.806,3.372,3.372,0,0,1-2.222-3.113,3.516,3.516,0,0,1,1.44-2.856,5.694,5.694,0,0,1,3.662-1.147A5.925,5.925,0,0,1,23.7-12.28a3.719,3.719,0,0,1,1.459,3.04H22.192a1.828,1.828,0,0,0-.635-1.422,2.433,2.433,0,0,0-1.685-.568,2.629,2.629,0,0,0-1.593.452,1.424,1.424,0,0,0-.616,1.208,1.2,1.2,0,0,0,.574,1.062,7.89,7.89,0,0,0,2.319.763,10.979,10.979,0,0,1,2.74.916,3.881,3.881,0,0,1,1.477,1.276,3.253,3.253,0,0,1,.482,1.807A3.441,3.441,0,0,1,23.779-.861a6.3,6.3,0,0,1-3.87,1.1,6.83,6.83,0,0,1-2.893-.586,4.761,4.761,0,0,1-1.978-1.611,3.814,3.814,0,0,1-.708-2.209h2.881a2.09,2.09,0,0,0,.793,1.617,3.083,3.083,0,0,0,1.941.568,3,3,0,0,0,1.782-.446A1.379,1.379,0,0,0,22.339-3.589Zm9.216-12.83v3.21h2.332v2.2H31.555v7.373a1.624,1.624,0,0,0,.3,1.093,1.387,1.387,0,0,0,1.068.336,4.57,4.57,0,0,0,1.038-.122V-.037a7.306,7.306,0,0,1-1.953.281q-3.418,0-3.418-3.772v-7.483H26.416v-2.2h2.173v-3.21ZM44.043,0A4.578,4.578,0,0,1,43.7-1.233,4.617,4.617,0,0,1,40.234.244,4.66,4.66,0,0,1,36.987-.891,3.632,3.632,0,0,1,35.73-3.7,3.75,3.75,0,0,1,37.3-6.94a7.6,7.6,0,0,1,4.486-1.129H43.6v-.867a2.314,2.314,0,0,0-.574-1.642,2.274,2.274,0,0,0-1.746-.616,2.613,2.613,0,0,0-1.66.507A1.568,1.568,0,0,0,38.977-9.4H36.011a3.292,3.292,0,0,1,.72-2.032,4.8,4.8,0,0,1,1.959-1.483,6.882,6.882,0,0,1,2.765-.537,5.542,5.542,0,0,1,3.7,1.166A4.157,4.157,0,0,1,46.57-9.009v5.957a6.751,6.751,0,0,0,.5,2.844V0ZM40.784-2.136a3.374,3.374,0,0,0,1.654-.427A2.854,2.854,0,0,0,43.6-3.711V-6.2H42a4.373,4.373,0,0,0-2.478.574A1.859,1.859,0,0,0,38.7-4a1.733,1.733,0,0,0,.568,1.361A2.2,2.2,0,0,0,40.784-2.136ZM42.432-18.75h3.381l-3.381,3.7h-2.38ZM63.306-3.589A1.345,1.345,0,0,0,62.653-4.8a6.946,6.946,0,0,0-2.167-.732,11.138,11.138,0,0,1-2.527-.806,3.372,3.372,0,0,1-2.222-3.113,3.516,3.516,0,0,1,1.44-2.856,5.694,5.694,0,0,1,3.662-1.147,5.925,5.925,0,0,1,3.827,1.172,3.719,3.719,0,0,1,1.459,3.04H63.159a1.828,1.828,0,0,0-.635-1.422,2.433,2.433,0,0,0-1.685-.568,2.629,2.629,0,0,0-1.593.452A1.424,1.424,0,0,0,58.63-9.57,1.2,1.2,0,0,0,59.2-8.508a7.89,7.89,0,0,0,2.319.763,10.979,10.979,0,0,1,2.74.916,3.881,3.881,0,0,1,1.477,1.276,3.253,3.253,0,0,1,.482,1.807A3.441,3.441,0,0,1,64.746-.861a6.3,6.3,0,0,1-3.87,1.1,6.83,6.83,0,0,1-2.893-.586,4.761,4.761,0,0,1-1.978-1.611A3.814,3.814,0,0,1,55.3-4.163h2.881a2.09,2.09,0,0,0,.793,1.617,3.083,3.083,0,0,0,1.941.568A3,3,0,0,0,62.7-2.423,1.379,1.379,0,0,0,63.306-3.589ZM68.25-6.726a7.788,7.788,0,0,1,.769-3.5,5.617,5.617,0,0,1,2.161-2.393,6.088,6.088,0,0,1,3.2-.836,5.769,5.769,0,0,1,4.34,1.721,6.77,6.77,0,0,1,1.8,4.565l.012.7a7.858,7.858,0,0,1-.751,3.491A5.549,5.549,0,0,1,77.631-.6,6.132,6.132,0,0,1,74.4.244a5.729,5.729,0,0,1-4.474-1.862A7.13,7.13,0,0,1,68.25-6.58Zm2.966.256a5.322,5.322,0,0,0,.842,3.192A2.738,2.738,0,0,0,74.4-2.124,2.708,2.708,0,0,0,76.74-3.3a5.878,5.878,0,0,0,.836-3.43A5.253,5.253,0,0,0,76.715-9.9a2.748,2.748,0,0,0-2.338-1.172A2.723,2.723,0,0,0,72.07-9.918,5.767,5.767,0,0,0,71.216-6.47Zm14.575-6.738.085,1.526a4.749,4.749,0,0,1,3.845-1.77q4.126,0,4.2,4.724V0H90.955V-8.557a2.72,2.72,0,0,0-.543-1.862,2.285,2.285,0,0,0-1.776-.6A2.858,2.858,0,0,0,85.962-9.4V0H83V-13.208Zm18.066,2.71a7.34,7.34,0,0,0-1.208-.1A2.721,2.721,0,0,0,99.9-9.033V0H96.936V-13.208h2.832l.073,1.477a3.342,3.342,0,0,1,2.979-1.721,2.777,2.777,0,0,1,1.05.171ZM108.887,0H105.92V-13.208h2.966Zm-3.149-16.638a1.574,1.574,0,0,1,.433-1.135,1.637,1.637,0,0,1,1.239-.452,1.658,1.658,0,0,1,1.245.452,1.562,1.562,0,0,1,.439,1.135,1.526,1.526,0,0,1-.439,1.117,1.671,1.671,0,0,1-1.245.446,1.65,1.65,0,0,1-1.239-.446A1.538,1.538,0,0,1,105.737-16.638ZM117.932.244a6.137,6.137,0,0,1-4.572-1.776,6.443,6.443,0,0,1-1.752-4.73v-.366a7.925,7.925,0,0,1,.763-3.534,5.807,5.807,0,0,1,2.142-2.423,5.664,5.664,0,0,1,3.076-.867,5.184,5.184,0,0,1,4.169,1.721A7.278,7.278,0,0,1,123.23-6.86v1.2H114.6a3.966,3.966,0,0,0,1.093,2.588,3.28,3.28,0,0,0,2.411.952,4.017,4.017,0,0,0,3.32-1.648l1.6,1.526A5.34,5.34,0,0,1,120.9-.409,6.631,6.631,0,0,1,117.932.244Zm-.354-11.316a2.5,2.5,0,0,0-1.971.854,4.429,4.429,0,0,0-.958,2.38H120.3v-.22a3.605,3.605,0,0,0-.793-2.252A2.479,2.479,0,0,0,117.578-11.072Zm10.706-2.136.085,1.526a4.749,4.749,0,0,1,3.845-1.77q4.126,0,4.2,4.724V0h-2.966V-8.557a2.72,2.72,0,0,0-.543-1.862,2.285,2.285,0,0,0-1.776-.6A2.858,2.858,0,0,0,128.455-9.4V0h-2.966V-13.208Zm14.868-3.21v3.21h2.332v2.2h-2.332v7.373a1.624,1.624,0,0,0,.3,1.093,1.387,1.387,0,0,0,1.068.336,4.569,4.569,0,0,0,1.038-.122V-.037A7.306,7.306,0,0,1,143.6.244q-3.418,0-3.418-3.772v-7.483h-2.173v-2.2h2.173v-3.21ZM153.564.244a6.137,6.137,0,0,1-4.572-1.776,6.443,6.443,0,0,1-1.752-4.73v-.366A7.926,7.926,0,0,1,148-10.162a5.807,5.807,0,0,1,2.142-2.423,5.664,5.664,0,0,1,3.076-.867,5.184,5.184,0,0,1,4.169,1.721,7.278,7.278,0,0,1,1.471,4.871v1.2h-8.63a3.966,3.966,0,0,0,1.093,2.588,3.28,3.28,0,0,0,2.411.952,4.017,4.017,0,0,0,3.32-1.648l1.6,1.526a5.34,5.34,0,0,1-2.118,1.837A6.631,6.631,0,0,1,153.564.244Zm-.354-11.316a2.5,2.5,0,0,0-1.971.854,4.429,4.429,0,0,0-.958,2.38h5.652v-.22a3.605,3.605,0,0,0-.793-2.252A2.479,2.479,0,0,0,153.21-11.072Z" transform="translate(444 1470)" fill="#02255f"/>
    </g>
    <g id="Grupo_13645" data-name="Grupo 13645">
      <path id="Trazado_11251" data-name="Trazado 11251" d="M4.9-2.466h8.069V0H1.807V-17.773H4.9Zm9.595-4.26a7.788,7.788,0,0,1,.769-3.5,5.617,5.617,0,0,1,2.161-2.393,6.088,6.088,0,0,1,3.2-.836,5.769,5.769,0,0,1,4.34,1.721,6.77,6.77,0,0,1,1.8,4.565l.012.7a7.858,7.858,0,0,1-.751,3.491A5.549,5.549,0,0,1,23.871-.6a6.132,6.132,0,0,1-3.229.842,5.729,5.729,0,0,1-4.474-1.862A7.13,7.13,0,0,1,14.49-6.58Zm2.966.256A5.322,5.322,0,0,0,18.3-3.278a2.738,2.738,0,0,0,2.344,1.154A2.708,2.708,0,0,0,22.98-3.3a5.878,5.878,0,0,0,.836-3.43A5.253,5.253,0,0,0,22.955-9.9a2.748,2.748,0,0,0-2.338-1.172,2.723,2.723,0,0,0-2.307,1.154A5.767,5.767,0,0,0,17.456-6.47ZM36.682-3.589A1.345,1.345,0,0,0,36.029-4.8a6.946,6.946,0,0,0-2.167-.732,11.138,11.138,0,0,1-2.527-.806,3.372,3.372,0,0,1-2.222-3.113,3.516,3.516,0,0,1,1.44-2.856,5.694,5.694,0,0,1,3.662-1.147,5.925,5.925,0,0,1,3.827,1.172A3.719,3.719,0,0,1,39.5-9.241H36.536a1.828,1.828,0,0,0-.635-1.422,2.433,2.433,0,0,0-1.685-.568,2.629,2.629,0,0,0-1.593.452,1.424,1.424,0,0,0-.616,1.208,1.2,1.2,0,0,0,.574,1.062,7.89,7.89,0,0,0,2.319.763,10.979,10.979,0,0,1,2.74.916,3.881,3.881,0,0,1,1.477,1.276A3.253,3.253,0,0,1,39.6-3.748,3.441,3.441,0,0,1,38.123-.861a6.3,6.3,0,0,1-3.87,1.1A6.83,6.83,0,0,1,31.36-.342a4.761,4.761,0,0,1-1.978-1.611,3.814,3.814,0,0,1-.708-2.209h2.881a2.09,2.09,0,0,0,.793,1.617,3.083,3.083,0,0,0,1.941.568,3,3,0,0,0,1.782-.446A1.379,1.379,0,0,0,36.682-3.589Zm19.128,0A1.345,1.345,0,0,0,55.157-4.8a6.946,6.946,0,0,0-2.167-.732,11.138,11.138,0,0,1-2.527-.806,3.372,3.372,0,0,1-2.222-3.113,3.516,3.516,0,0,1,1.44-2.856,5.694,5.694,0,0,1,3.662-1.147,5.925,5.925,0,0,1,3.827,1.172,3.719,3.719,0,0,1,1.459,3.04H55.664a1.828,1.828,0,0,0-.635-1.422,2.433,2.433,0,0,0-1.685-.568,2.629,2.629,0,0,0-1.593.452,1.424,1.424,0,0,0-.616,1.208,1.2,1.2,0,0,0,.574,1.062,7.89,7.89,0,0,0,2.319.763,10.979,10.979,0,0,1,2.74.916,3.881,3.881,0,0,1,1.477,1.276,3.253,3.253,0,0,1,.482,1.807A3.441,3.441,0,0,1,57.251-.861a6.3,6.3,0,0,1-3.87,1.1,6.83,6.83,0,0,1-2.893-.586,4.761,4.761,0,0,1-1.978-1.611A3.814,3.814,0,0,1,47.8-4.163h2.881a2.09,2.09,0,0,0,.793,1.617,3.083,3.083,0,0,0,1.941.568A3,3,0,0,0,55.2-2.423,1.379,1.379,0,0,0,55.811-3.589Zm4.944-3.137a7.788,7.788,0,0,1,.769-3.5,5.617,5.617,0,0,1,2.161-2.393,6.088,6.088,0,0,1,3.2-.836,5.769,5.769,0,0,1,4.34,1.721,6.77,6.77,0,0,1,1.8,4.565l.012.7a7.858,7.858,0,0,1-.751,3.491A5.549,5.549,0,0,1,70.135-.6a6.132,6.132,0,0,1-3.229.842,5.729,5.729,0,0,1-4.474-1.862A7.13,7.13,0,0,1,60.754-6.58Zm2.966.256a5.322,5.322,0,0,0,.842,3.192,2.738,2.738,0,0,0,2.344,1.154A2.708,2.708,0,0,0,69.244-3.3a5.878,5.878,0,0,0,.836-3.43A5.253,5.253,0,0,0,69.22-9.9a2.748,2.748,0,0,0-2.338-1.172,2.723,2.723,0,0,0-2.307,1.154A5.767,5.767,0,0,0,63.721-6.47ZM78.7,0H75.732V-18.75H78.7Zm2.673-6.7a7.853,7.853,0,0,1,1.416-4.9,4.537,4.537,0,0,1,3.8-1.849,4.311,4.311,0,0,1,3.394,1.465V-18.75h2.966V0H90.259l-.146-1.367A4.373,4.373,0,0,1,86.56.244a4.512,4.512,0,0,1-3.754-1.868A8.14,8.14,0,0,1,81.372-6.7Zm2.966.256A5.5,5.5,0,0,0,85.114-3.3a2.515,2.515,0,0,0,2.2,1.129A2.8,2.8,0,0,0,89.978-3.8v-5.64a2.759,2.759,0,0,0-2.637-1.587A2.534,2.534,0,0,0,85.12-9.882,6.123,6.123,0,0,0,84.338-6.445ZM103.931,0a4.578,4.578,0,0,1-.342-1.233A4.617,4.617,0,0,1,100.122.244,4.66,4.66,0,0,1,96.875-.891,3.632,3.632,0,0,1,95.618-3.7,3.75,3.75,0,0,1,97.186-6.94a7.6,7.6,0,0,1,4.486-1.129h1.819v-.867a2.314,2.314,0,0,0-.574-1.642,2.274,2.274,0,0,0-1.746-.616,2.613,2.613,0,0,0-1.66.507A1.568,1.568,0,0,0,98.865-9.4H95.9a3.292,3.292,0,0,1,.72-2.032,4.8,4.8,0,0,1,1.959-1.483,6.882,6.882,0,0,1,2.765-.537,5.542,5.542,0,0,1,3.7,1.166,4.157,4.157,0,0,1,1.416,3.278v5.957a6.751,6.751,0,0,0,.5,2.844V0Zm-3.259-2.136a3.374,3.374,0,0,0,1.654-.427,2.854,2.854,0,0,0,1.166-1.147V-6.2h-1.6a4.373,4.373,0,0,0-2.478.574A1.859,1.859,0,0,0,98.584-4a1.733,1.733,0,0,0,.568,1.361A2.2,2.2,0,0,0,100.671-2.136ZM109.009-6.7a7.853,7.853,0,0,1,1.416-4.9,4.537,4.537,0,0,1,3.8-1.849,4.311,4.311,0,0,1,3.394,1.465V-18.75h2.966V0H117.9l-.146-1.367A4.373,4.373,0,0,1,114.2.244a4.512,4.512,0,0,1-3.754-1.868A8.14,8.14,0,0,1,109.009-6.7Zm2.966.256A5.5,5.5,0,0,0,112.75-3.3a2.515,2.515,0,0,0,2.2,1.129A2.8,2.8,0,0,0,117.615-3.8v-5.64a2.759,2.759,0,0,0-2.637-1.587,2.534,2.534,0,0,0-2.222,1.141A6.123,6.123,0,0,0,111.975-6.445Zm11.145-.281a7.788,7.788,0,0,1,.769-3.5,5.617,5.617,0,0,1,2.161-2.393,6.088,6.088,0,0,1,3.2-.836,5.769,5.769,0,0,1,4.34,1.721,6.77,6.77,0,0,1,1.8,4.565l.012.7a7.858,7.858,0,0,1-.751,3.491A5.549,5.549,0,0,1,132.5-.6a6.132,6.132,0,0,1-3.229.842A5.729,5.729,0,0,1,124.8-1.617,7.13,7.13,0,0,1,123.12-6.58Zm2.966.256a5.322,5.322,0,0,0,.842,3.192,2.738,2.738,0,0,0,2.344,1.154A2.708,2.708,0,0,0,131.61-3.3a5.878,5.878,0,0,0,.836-3.43,5.253,5.253,0,0,0-.861-3.174,2.748,2.748,0,0,0-2.338-1.172,2.723,2.723,0,0,0-2.307,1.154A5.767,5.767,0,0,0,126.086-6.47Zm19.226,2.881a1.345,1.345,0,0,0-.653-1.208,6.946,6.946,0,0,0-2.167-.732,11.139,11.139,0,0,1-2.527-.806,3.372,3.372,0,0,1-2.222-3.113,3.516,3.516,0,0,1,1.44-2.856,5.694,5.694,0,0,1,3.662-1.147,5.925,5.925,0,0,1,3.827,1.172,3.719,3.719,0,0,1,1.459,3.04h-2.966a1.828,1.828,0,0,0-.635-1.422,2.433,2.433,0,0,0-1.685-.568,2.629,2.629,0,0,0-1.593.452,1.424,1.424,0,0,0-.616,1.208,1.2,1.2,0,0,0,.574,1.062,7.89,7.89,0,0,0,2.319.763,10.979,10.979,0,0,1,2.74.916,3.881,3.881,0,0,1,1.477,1.276,3.253,3.253,0,0,1,.482,1.807,3.441,3.441,0,0,1-1.477,2.887,6.3,6.3,0,0,1-3.87,1.1,6.83,6.83,0,0,1-2.893-.586,4.761,4.761,0,0,1-1.978-1.611,3.814,3.814,0,0,1-.708-2.209h2.881a2.09,2.09,0,0,0,.793,1.617,3.083,3.083,0,0,0,1.941.568,3,3,0,0,0,1.782-.446A1.379,1.379,0,0,0,145.313-3.589Z" transform="translate(690 1471)" fill="#26c179"/>
      <path id="Trazado_11254" data-name="Trazado 11254" d="M5.548-6.021A8.376,8.376,0,0,1,2.213-7.64a3.093,3.093,0,0,1-1.044-2.37A3.267,3.267,0,0,1,2.445-12.65a5.07,5.07,0,0,1,3.317-1.044,5.534,5.534,0,0,1,2.482.538,4.081,4.081,0,0,1,1.688,1.484,3.8,3.8,0,0,1,.6,2.069H8.739a2.457,2.457,0,0,0-.779-1.925,3.176,3.176,0,0,0-2.2-.7,3.249,3.249,0,0,0-2.055.58,1.933,1.933,0,0,0-.738,1.61,1.739,1.739,0,0,0,.7,1.4A6.876,6.876,0,0,0,6.053-7.6,11.041,11.041,0,0,1,8.688-6.554,4,4,0,0,1,10.1-5.223a3.4,3.4,0,0,1,.459,1.791A3.156,3.156,0,0,1,9.277-.8,5.459,5.459,0,0,1,5.854.186a6.349,6.349,0,0,1-2.6-.533A4.372,4.372,0,0,1,1.4-1.809,3.566,3.566,0,0,1,.742-3.915H2.533a2.326,2.326,0,0,0,.9,1.934,3.809,3.809,0,0,0,2.417.71,3.5,3.5,0,0,0,2.162-.575,1.868,1.868,0,0,0,.751-1.568,1.834,1.834,0,0,0-.7-1.535A8.022,8.022,0,0,0,5.548-6.021ZM18.768-.993A3.646,3.646,0,0,1,15.827.186a3.12,3.12,0,0,1-2.445-.932,4.036,4.036,0,0,1-.849-2.76v-6.531H14.25v6.485q0,2.282,1.855,2.282a2.569,2.569,0,0,0,2.616-1.466v-7.3h1.716V0H18.805Zm6.049-9.045V1.16q0,2.895-2.625,2.895a3.185,3.185,0,0,1-1.048-.167V2.514a3.318,3.318,0,0,0,.779.074,1.166,1.166,0,0,0,.877-.311A1.536,1.536,0,0,0,23.1,1.2V-10.038ZM22.924-12.7a1.029,1.029,0,0,1,.255-.7.938.938,0,0,1,.747-.292.973.973,0,0,1,.761.288,1.014,1.014,0,0,1,.26.705.98.98,0,0,1-.26.7.99.99,0,0,1-.761.278A.96.96,0,0,1,23.175-12,1,1,0,0,1,22.924-12.7ZM31.747.186a4.386,4.386,0,0,1-3.321-1.341,4.976,4.976,0,0,1-1.28-3.586v-.315a6.024,6.024,0,0,1,.571-2.667,4.451,4.451,0,0,1,1.6-1.837,4.012,4.012,0,0,1,2.222-.663,3.759,3.759,0,0,1,3.043,1.29,5.583,5.583,0,0,1,1.085,3.692v.714h-6.8a3.568,3.568,0,0,0,.867,2.4,2.727,2.727,0,0,0,2.111.914,2.989,2.989,0,0,0,1.54-.371,3.869,3.869,0,0,0,1.1-.983l1.048.816A4.215,4.215,0,0,1,31.747.186Zm-.213-9a2.289,2.289,0,0,0-1.744.756,3.675,3.675,0,0,0-.872,2.12h5.028v-.13a3.269,3.269,0,0,0-.705-2.027A2.155,2.155,0,0,0,31.534-8.813Zm8.442-3.655v2.431H41.85v1.327H39.976v6.225a1.39,1.39,0,0,0,.25.9,1.055,1.055,0,0,0,.854.3,4.155,4.155,0,0,0,.816-.111V0a4.976,4.976,0,0,1-1.317.186,2.137,2.137,0,0,1-1.735-.7,2.989,2.989,0,0,1-.584-1.976V-8.711H36.432v-1.327H38.26v-2.431Zm3.238,7.357a5.929,5.929,0,0,1,.58-2.653,4.325,4.325,0,0,1,1.614-1.818,4.394,4.394,0,0,1,2.361-.64A4.233,4.233,0,0,1,51.086-8.8a5.461,5.461,0,0,1,1.266,3.776v.121a5.981,5.981,0,0,1-.561,2.63,4.262,4.262,0,0,1-1.6,1.814,4.445,4.445,0,0,1-2.4.649A4.223,4.223,0,0,1,44.48-1.234a5.433,5.433,0,0,1-1.266-3.757Zm1.726.2a4.294,4.294,0,0,0,.775,2.681,2.479,2.479,0,0,0,2.073,1.011A2.464,2.464,0,0,0,49.866-2.24a4.7,4.7,0,0,0,.77-2.871,4.287,4.287,0,0,0-.784-2.677,2.492,2.492,0,0,0-2.083-1.025A2.465,2.465,0,0,0,45.719-7.8,4.661,4.661,0,0,0,44.939-4.908Z" transform="translate(737.904 1497)" fill="#26c179"/>
      <path id="Trazado_11253" data-name="Trazado 11253" d="M3.349-5.288V0H1.568V-13.508H6.55a5.005,5.005,0,0,1,3.474,1.132,3.837,3.837,0,0,1,1.257,3A3.786,3.786,0,0,1,10.052-6.35,5.229,5.229,0,0,1,6.531-5.288Zm0-1.457h3.2a3.2,3.2,0,0,0,2.189-.673A2.457,2.457,0,0,0,9.5-9.361a2.539,2.539,0,0,0-.761-1.93,3,3,0,0,0-2.087-.751h-3.3ZM18.137-8.5a5.143,5.143,0,0,0-.844-.065A2.262,2.262,0,0,0,15-7.125V0H13.285V-10.038h1.67l.028,1.16a2.672,2.672,0,0,1,2.394-1.345,1.753,1.753,0,0,1,.761.13ZM23.7.186a4.386,4.386,0,0,1-3.321-1.341A4.976,4.976,0,0,1,19.1-4.741v-.315a6.024,6.024,0,0,1,.571-2.667,4.451,4.451,0,0,1,1.6-1.837,4.012,4.012,0,0,1,2.222-.663,3.759,3.759,0,0,1,3.043,1.29,5.583,5.583,0,0,1,1.085,3.692v.714h-6.8a3.568,3.568,0,0,0,.867,2.4,2.727,2.727,0,0,0,2.111.914,2.989,2.989,0,0,0,1.54-.371,3.87,3.87,0,0,0,1.1-.983l1.048.816A4.215,4.215,0,0,1,23.7.186Zm-.213-9a2.289,2.289,0,0,0-1.744.756,3.675,3.675,0,0,0-.872,2.12H25.9v-.13A3.269,3.269,0,0,0,25.2-8.094,2.155,2.155,0,0,0,23.49-8.813Zm5.7,3.711a5.88,5.88,0,0,1,1.095-3.716,3.462,3.462,0,0,1,2.867-1.406A3.481,3.481,0,0,1,35.94-9.018V-14.25h1.716V0H36.08L36-1.076A3.5,3.5,0,0,1,33.129.186a3.429,3.429,0,0,1-2.844-1.429,5.947,5.947,0,0,1-1.1-3.729Zm1.716.195a4.452,4.452,0,0,0,.705,2.672,2.279,2.279,0,0,0,1.948.965A2.5,2.5,0,0,0,35.94-2.737V-7.348a2.523,2.523,0,0,0-2.366-1.419,2.29,2.29,0,0,0-1.967.974A4.9,4.9,0,0,0,30.9-4.908ZM42.184,0H40.468V-10.038h1.716ZM40.329-12.7a1.024,1.024,0,0,1,.255-.705.958.958,0,0,1,.756-.288.973.973,0,0,1,.761.288,1.014,1.014,0,0,1,.26.705.98.98,0,0,1-.26.7.99.99,0,0,1-.761.278A.975.975,0,0,1,40.584-12,.991.991,0,0,1,40.329-12.7ZM48.957-1.215a2.472,2.472,0,0,0,1.6-.557,1.958,1.958,0,0,0,.761-1.392h1.624a3.112,3.112,0,0,1-.594,1.642A3.911,3.911,0,0,1,50.891-.278a4.216,4.216,0,0,1-1.934.464A4.135,4.135,0,0,1,45.7-1.183a5.45,5.45,0,0,1-1.211-3.743v-.288a6.043,6.043,0,0,1,.538-2.607,4.1,4.1,0,0,1,1.545-1.772,4.388,4.388,0,0,1,2.38-.631,4.026,4.026,0,0,1,2.806,1.011,3.614,3.614,0,0,1,1.192,2.625H51.322a2.365,2.365,0,0,0-.738-1.6,2.294,2.294,0,0,0-1.637-.626,2.4,2.4,0,0,0-2.027.942A4.422,4.422,0,0,0,46.2-5.149v.325a4.334,4.334,0,0,0,.714,2.672A2.414,2.414,0,0,0,48.957-1.215ZM61.073,0a3.605,3.605,0,0,1-.241-1.058A3.829,3.829,0,0,1,57.974.186a3.543,3.543,0,0,1-2.435-.84,2.716,2.716,0,0,1-.951-2.129A2.838,2.838,0,0,1,55.78-5.219a5.621,5.621,0,0,1,3.354-.867H60.8v-.789a1.928,1.928,0,0,0-.538-1.433,2.163,2.163,0,0,0-1.586-.533,2.5,2.5,0,0,0-1.54.464,1.367,1.367,0,0,0-.622,1.123H54.792a2.369,2.369,0,0,1,.533-1.452,3.641,3.641,0,0,1,1.447-1.109,4.869,4.869,0,0,1,2.009-.408,3.968,3.968,0,0,1,2.718.867A3.129,3.129,0,0,1,62.52-6.967v4.62a5.649,5.649,0,0,0,.353,2.2V0ZM58.225-1.308a3.016,3.016,0,0,0,1.531-.417A2.525,2.525,0,0,0,60.8-2.811v-2.06H59.458q-3.154,0-3.154,1.846a1.562,1.562,0,0,0,.538,1.262A2.068,2.068,0,0,0,58.225-1.308ZM64.793-5.1a5.88,5.88,0,0,1,1.095-3.716,3.462,3.462,0,0,1,2.867-1.406,3.481,3.481,0,0,1,2.792,1.206V-14.25h1.716V0H71.686L71.6-1.076A3.5,3.5,0,0,1,68.736.186a3.429,3.429,0,0,1-2.844-1.429,5.947,5.947,0,0,1-1.1-3.729Zm1.716.195a4.452,4.452,0,0,0,.705,2.672,2.279,2.279,0,0,0,1.948.965,2.5,2.5,0,0,0,2.384-1.466V-7.348a2.523,2.523,0,0,0-2.366-1.419,2.29,2.29,0,0,0-1.967.974A4.9,4.9,0,0,0,66.509-4.908Zm8.962-.2a5.929,5.929,0,0,1,.58-2.653,4.326,4.326,0,0,1,1.614-1.818,4.394,4.394,0,0,1,2.361-.64A4.233,4.233,0,0,1,83.343-8.8a5.461,5.461,0,0,1,1.266,3.776v.121a5.981,5.981,0,0,1-.561,2.63,4.262,4.262,0,0,1-1.6,1.814,4.445,4.445,0,0,1-2.4.649,4.223,4.223,0,0,1-3.307-1.419,5.433,5.433,0,0,1-1.266-3.757Zm1.726.2a4.294,4.294,0,0,0,.775,2.681,2.479,2.479,0,0,0,2.073,1.011A2.464,2.464,0,0,0,82.123-2.24a4.7,4.7,0,0,0,.77-2.871,4.287,4.287,0,0,0-.784-2.677,2.492,2.492,0,0,0-2.083-1.025A2.465,2.465,0,0,0,77.976-7.8,4.661,4.661,0,0,0,77.2-4.908Z" transform="translate(903 1497)" fill="#02255f"/>
      <path id="Trazado_11252" data-name="Trazado 11252" d="M8.923-3.589A1.345,1.345,0,0,0,8.27-4.8,6.946,6.946,0,0,0,6.1-5.53a11.138,11.138,0,0,1-2.527-.806A3.372,3.372,0,0,1,1.355-9.448,3.516,3.516,0,0,1,2.8-12.3a5.694,5.694,0,0,1,3.662-1.147,5.925,5.925,0,0,1,3.827,1.172,3.719,3.719,0,0,1,1.459,3.04H8.777a1.828,1.828,0,0,0-.635-1.422,2.433,2.433,0,0,0-1.685-.568,2.629,2.629,0,0,0-1.593.452A1.424,1.424,0,0,0,4.248-9.57a1.2,1.2,0,0,0,.574,1.062,7.89,7.89,0,0,0,2.319.763,10.979,10.979,0,0,1,2.74.916,3.881,3.881,0,0,1,1.477,1.276,3.253,3.253,0,0,1,.482,1.807A3.441,3.441,0,0,1,10.364-.861a6.3,6.3,0,0,1-3.87,1.1A6.83,6.83,0,0,1,3.6-.342,4.761,4.761,0,0,1,1.624-1.953,3.814,3.814,0,0,1,.916-4.163H3.8A2.09,2.09,0,0,0,4.59-2.545a3.083,3.083,0,0,0,1.941.568,3,3,0,0,0,1.782-.446A1.379,1.379,0,0,0,8.923-3.589ZM22.314,0a4.578,4.578,0,0,1-.342-1.233A4.617,4.617,0,0,1,18.506.244,4.66,4.66,0,0,1,15.259-.891,3.632,3.632,0,0,1,14-3.7,3.75,3.75,0,0,1,15.57-6.94a7.6,7.6,0,0,1,4.486-1.129h1.819v-.867a2.314,2.314,0,0,0-.574-1.642,2.274,2.274,0,0,0-1.746-.616,2.613,2.613,0,0,0-1.66.507A1.568,1.568,0,0,0,17.249-9.4H14.282A3.292,3.292,0,0,1,15-11.432a4.8,4.8,0,0,1,1.959-1.483,6.882,6.882,0,0,1,2.765-.537,5.542,5.542,0,0,1,3.7,1.166,4.157,4.157,0,0,1,1.416,3.278v5.957a6.751,6.751,0,0,0,.5,2.844V0ZM19.055-2.136a3.374,3.374,0,0,0,1.654-.427,2.854,2.854,0,0,0,1.166-1.147V-6.2h-1.6a4.373,4.373,0,0,0-2.478.574A1.859,1.859,0,0,0,16.968-4a1.733,1.733,0,0,0,.568,1.361A2.2,2.2,0,0,0,19.055-2.136ZM31.1,0H28.137V-18.75H31.1Zm6.384,0H34.521V-13.208h2.966ZM34.338-16.638a1.574,1.574,0,0,1,.433-1.135,1.637,1.637,0,0,1,1.239-.452,1.658,1.658,0,0,1,1.245.452,1.562,1.562,0,0,1,.439,1.135,1.526,1.526,0,0,1-.439,1.117,1.671,1.671,0,0,1-1.245.446,1.65,1.65,0,0,1-1.239-.446A1.538,1.538,0,0,1,34.338-16.638ZM46.533.244a6.137,6.137,0,0,1-4.572-1.776,6.443,6.443,0,0,1-1.752-4.73v-.366a7.925,7.925,0,0,1,.763-3.534,5.807,5.807,0,0,1,2.142-2.423,5.664,5.664,0,0,1,3.076-.867,5.184,5.184,0,0,1,4.169,1.721A7.278,7.278,0,0,1,51.831-6.86v1.2H43.2a3.966,3.966,0,0,0,1.093,2.588,3.28,3.28,0,0,0,2.411.952,4.017,4.017,0,0,0,3.32-1.648l1.6,1.526A5.34,5.34,0,0,1,49.506-.409,6.631,6.631,0,0,1,46.533.244Zm-.354-11.316a2.5,2.5,0,0,0-1.971.854,4.429,4.429,0,0,0-.958,2.38H48.9v-.22a3.605,3.605,0,0,0-.793-2.252A2.479,2.479,0,0,0,46.179-11.072Zm14.868.574a7.34,7.34,0,0,0-1.208-.1,2.721,2.721,0,0,0-2.747,1.563V0H54.126V-13.208h2.832l.073,1.477a3.342,3.342,0,0,1,2.979-1.721,2.777,2.777,0,0,1,1.05.171Zm.879,3.772a7.788,7.788,0,0,1,.769-3.5,5.617,5.617,0,0,1,2.161-2.393,6.088,6.088,0,0,1,3.2-.836,5.769,5.769,0,0,1,4.34,1.721,6.77,6.77,0,0,1,1.8,4.565l.012.7a7.858,7.858,0,0,1-.751,3.491A5.549,5.549,0,0,1,71.307-.6a6.132,6.132,0,0,1-3.229.842A5.729,5.729,0,0,1,63.6-1.617,7.13,7.13,0,0,1,61.926-6.58Zm2.966.256a5.322,5.322,0,0,0,.842,3.192,2.738,2.738,0,0,0,2.344,1.154A2.708,2.708,0,0,0,70.416-3.3a5.878,5.878,0,0,0,.836-3.43A5.253,5.253,0,0,0,70.392-9.9a2.748,2.748,0,0,0-2.338-1.172,2.723,2.723,0,0,0-2.307,1.154A5.767,5.767,0,0,0,64.893-6.47Zm14.575-6.738.085,1.526a4.749,4.749,0,0,1,3.845-1.77q4.126,0,4.2,4.724V0H84.631V-8.557a2.72,2.72,0,0,0-.543-1.862,2.285,2.285,0,0,0-1.776-.6A2.858,2.858,0,0,0,79.639-9.4V0H76.672V-13.208ZM104.736,0a4.578,4.578,0,0,1-.342-1.233A4.617,4.617,0,0,1,100.928.244,4.66,4.66,0,0,1,97.681-.891,3.632,3.632,0,0,1,96.423-3.7,3.75,3.75,0,0,1,97.992-6.94a7.6,7.6,0,0,1,4.486-1.129H104.3v-.867a2.314,2.314,0,0,0-.574-1.642,2.274,2.274,0,0,0-1.746-.616,2.613,2.613,0,0,0-1.66.507A1.568,1.568,0,0,0,99.67-9.4H96.7a3.292,3.292,0,0,1,.72-2.032,4.8,4.8,0,0,1,1.959-1.483,6.882,6.882,0,0,1,2.765-.537,5.542,5.542,0,0,1,3.7,1.166,4.157,4.157,0,0,1,1.416,3.278v5.957a6.751,6.751,0,0,0,.5,2.844V0Zm-3.259-2.136a3.374,3.374,0,0,0,1.654-.427A2.854,2.854,0,0,0,104.3-3.711V-6.2h-1.6a4.373,4.373,0,0,0-2.478.574A1.859,1.859,0,0,0,99.39-4a1.733,1.733,0,0,0,.568,1.361A2.2,2.2,0,0,0,101.477-2.136ZM119.751,0h-2.966V-18.75h2.966Zm11.23-1.294A4.6,4.6,0,0,1,127.271.244a4.1,4.1,0,0,1-3.253-1.257,5.349,5.349,0,0,1-1.1-3.638v-8.557h2.966v8.521q0,2.515,2.087,2.515a2.932,2.932,0,0,0,2.917-1.55v-9.485h2.966V0h-2.8Zm11.316-.83a2.682,2.682,0,0,0,1.843-.647,2.21,2.21,0,0,0,.781-1.6h2.8a4.357,4.357,0,0,1-.769,2.3A5.044,5.044,0,0,1,145-.378a5.82,5.82,0,0,1-2.661.623,5.631,5.631,0,0,1-4.395-1.794,7.117,7.117,0,0,1-1.624-4.956v-.305a7,7,0,0,1,1.611-4.828,5.58,5.58,0,0,1,4.395-1.813,5.427,5.427,0,0,1,3.839,1.373,4.919,4.919,0,0,1,1.556,3.607h-2.8a2.716,2.716,0,0,0-.775-1.868,2.494,2.494,0,0,0-1.849-.732,2.61,2.61,0,0,0-2.222,1.044,5.326,5.326,0,0,0-.793,3.168v.476a5.414,5.414,0,0,0,.775,3.2A2.608,2.608,0,0,0,142.3-2.124Zm10.583-9.644a4.643,4.643,0,0,1,3.674-1.685q4.224,0,4.285,4.822V0h-2.966V-8.521a2.608,2.608,0,0,0-.592-1.935,2.42,2.42,0,0,0-1.74-.568,2.857,2.857,0,0,0-2.661,1.587V0h-2.966V-18.75h2.966ZM171.729,0a4.578,4.578,0,0,1-.342-1.233A4.617,4.617,0,0,1,167.92.244a4.66,4.66,0,0,1-3.247-1.135A3.632,3.632,0,0,1,163.416-3.7a3.75,3.75,0,0,1,1.569-3.241,7.6,7.6,0,0,1,4.486-1.129h1.819v-.867a2.314,2.314,0,0,0-.574-1.642,2.274,2.274,0,0,0-1.746-.616,2.613,2.613,0,0,0-1.66.507,1.568,1.568,0,0,0-.647,1.288H163.7a3.292,3.292,0,0,1,.72-2.032,4.8,4.8,0,0,1,1.959-1.483,6.882,6.882,0,0,1,2.765-.537,5.542,5.542,0,0,1,3.7,1.166,4.157,4.157,0,0,1,1.416,3.278v5.957a6.751,6.751,0,0,0,.5,2.844V0Zm-3.259-2.136a3.374,3.374,0,0,0,1.654-.427,2.854,2.854,0,0,0,1.166-1.147V-6.2h-1.6a4.373,4.373,0,0,0-2.478.574A1.859,1.859,0,0,0,166.382-4a1.733,1.733,0,0,0,.568,1.361A2.2,2.2,0,0,0,168.469-2.136ZM184.277-10.5a7.34,7.34,0,0,0-1.208-.1,2.721,2.721,0,0,0-2.747,1.563V0h-2.966V-13.208h2.832l.073,1.477a3.342,3.342,0,0,1,2.979-1.721,2.777,2.777,0,0,1,1.05.171Z" transform="translate(849 1471)" fill="#02255f"/>
    </g>
    <g id="Grupo_13643" data-name="Grupo 13643">
      <path id="Trazado_11244" data-name="Trazado 11244" d="M12.195-7.935H4.9v5.469h8.533V0H1.807V-17.773H13.342v2.49H4.9v4.907h7.3ZM18.811,0H15.845V-18.75h2.966ZM39.832-6.47A7.864,7.864,0,0,1,38.44-1.581,4.457,4.457,0,0,1,34.7.244a4.487,4.487,0,0,1-3.479-1.428V5.078H28.259V-13.208h2.734l.122,1.343a4.357,4.357,0,0,1,3.552-1.587,4.5,4.5,0,0,1,3.79,1.8,8.074,8.074,0,0,1,1.373,5Zm-2.954-.256a5.509,5.509,0,0,0-.787-3.137,2.56,2.56,0,0,0-2.252-1.16,2.73,2.73,0,0,0-2.612,1.5v5.859a2.755,2.755,0,0,0,2.637,1.538,2.557,2.557,0,0,0,2.216-1.141A6.064,6.064,0,0,0,36.877-6.726ZM49.255-10.5a7.34,7.34,0,0,0-1.208-.1A2.721,2.721,0,0,0,45.3-9.033V0H42.334V-13.208h2.832l.073,1.477a3.342,3.342,0,0,1,2.979-1.721,2.777,2.777,0,0,1,1.05.171Zm.879,3.772a7.788,7.788,0,0,1,.769-3.5,5.617,5.617,0,0,1,2.161-2.393,6.088,6.088,0,0,1,3.2-.836,5.769,5.769,0,0,1,4.34,1.721,6.77,6.77,0,0,1,1.8,4.565l.012.7a7.858,7.858,0,0,1-.751,3.491A5.549,5.549,0,0,1,59.515-.6a6.132,6.132,0,0,1-3.229.842,5.729,5.729,0,0,1-4.474-1.862A7.13,7.13,0,0,1,50.134-6.58ZM53.1-6.47a5.322,5.322,0,0,0,.842,3.192,2.738,2.738,0,0,0,2.344,1.154A2.708,2.708,0,0,0,58.624-3.3a5.878,5.878,0,0,0,.836-3.43A5.253,5.253,0,0,0,58.6-9.9a2.748,2.748,0,0,0-2.338-1.172,2.723,2.723,0,0,0-2.307,1.154A5.767,5.767,0,0,0,53.1-6.47ZM65.967,0V-11.011H63.953v-2.2h2.014v-1.208a4.536,4.536,0,0,1,1.221-3.394,4.676,4.676,0,0,1,3.418-1.2,6.856,6.856,0,0,1,1.66.22l-.073,2.319a5.843,5.843,0,0,0-1.135-.1,1.9,1.9,0,0,0-2.124,2.185v1.172h2.686v2.2H68.933V0ZM79.309.244a6.137,6.137,0,0,1-4.572-1.776,6.443,6.443,0,0,1-1.752-4.73v-.366a7.925,7.925,0,0,1,.763-3.534,5.807,5.807,0,0,1,2.142-2.423,5.664,5.664,0,0,1,3.076-.867,5.184,5.184,0,0,1,4.169,1.721A7.278,7.278,0,0,1,84.607-6.86v1.2h-8.63a3.966,3.966,0,0,0,1.093,2.588,3.28,3.28,0,0,0,2.411.952A4.017,4.017,0,0,0,82.8-3.772l1.6,1.526A5.34,5.34,0,0,1,82.281-.409,6.631,6.631,0,0,1,79.309.244Zm-.354-11.316a2.5,2.5,0,0,0-1.971.854,4.429,4.429,0,0,0-.958,2.38h5.652v-.22a3.605,3.605,0,0,0-.793-2.252A2.479,2.479,0,0,0,78.955-11.072ZM94.312-3.589A1.345,1.345,0,0,0,93.658-4.8a6.946,6.946,0,0,0-2.167-.732,11.138,11.138,0,0,1-2.527-.806,3.372,3.372,0,0,1-2.222-3.113,3.516,3.516,0,0,1,1.44-2.856,5.694,5.694,0,0,1,3.662-1.147,5.925,5.925,0,0,1,3.827,1.172,3.719,3.719,0,0,1,1.459,3.04H94.165a1.828,1.828,0,0,0-.635-1.422,2.433,2.433,0,0,0-1.685-.568,2.629,2.629,0,0,0-1.593.452,1.424,1.424,0,0,0-.616,1.208,1.2,1.2,0,0,0,.574,1.062,7.89,7.89,0,0,0,2.319.763,10.979,10.979,0,0,1,2.74.916,3.881,3.881,0,0,1,1.477,1.276,3.253,3.253,0,0,1,.482,1.807A3.441,3.441,0,0,1,95.752-.861a6.3,6.3,0,0,1-3.87,1.1,6.83,6.83,0,0,1-2.893-.586,4.761,4.761,0,0,1-1.978-1.611A3.814,3.814,0,0,1,86.3-4.163h2.881a2.09,2.09,0,0,0,.793,1.617,3.083,3.083,0,0,0,1.941.568A3,3,0,0,0,93.7-2.423,1.379,1.379,0,0,0,94.312-3.589Zm4.944-3.137a7.788,7.788,0,0,1,.769-3.5,5.617,5.617,0,0,1,2.161-2.393,6.088,6.088,0,0,1,3.2-.836,5.769,5.769,0,0,1,4.34,1.721,6.77,6.77,0,0,1,1.8,4.565l.012.7a7.858,7.858,0,0,1-.751,3.491A5.549,5.549,0,0,1,108.636-.6a6.132,6.132,0,0,1-3.229.842,5.729,5.729,0,0,1-4.474-1.862A7.13,7.13,0,0,1,99.255-6.58Zm2.966.256a5.322,5.322,0,0,0,.842,3.192,2.738,2.738,0,0,0,2.344,1.154A2.708,2.708,0,0,0,107.745-3.3a5.878,5.878,0,0,0,.836-3.43,5.253,5.253,0,0,0-.861-3.174,2.748,2.748,0,0,0-2.338-1.172,2.723,2.723,0,0,0-2.307,1.154A5.767,5.767,0,0,0,102.222-6.47ZM120.959-10.5a7.34,7.34,0,0,0-1.208-.1A2.721,2.721,0,0,0,117-9.033V0h-2.966V-13.208h2.832l.073,1.477a3.342,3.342,0,0,1,2.979-1.721,2.777,2.777,0,0,1,1.05.171ZM128.5-6.7a7.853,7.853,0,0,1,1.416-4.9,4.537,4.537,0,0,1,3.8-1.849,4.311,4.311,0,0,1,3.394,1.465V-18.75h2.966V0H137.39l-.146-1.367A4.373,4.373,0,0,1,133.691.244a4.512,4.512,0,0,1-3.754-1.868A8.14,8.14,0,0,1,128.5-6.7Zm2.966.256a5.5,5.5,0,0,0,.775,3.143,2.515,2.515,0,0,0,2.2,1.129A2.8,2.8,0,0,0,137.109-3.8v-5.64a2.759,2.759,0,0,0-2.637-1.587,2.534,2.534,0,0,0-2.222,1.141A6.123,6.123,0,0,0,131.47-6.445ZM148.987.244a6.137,6.137,0,0,1-4.572-1.776,6.443,6.443,0,0,1-1.752-4.73v-.366a7.926,7.926,0,0,1,.763-3.534,5.807,5.807,0,0,1,2.142-2.423,5.664,5.664,0,0,1,3.076-.867,5.184,5.184,0,0,1,4.169,1.721,7.278,7.278,0,0,1,1.471,4.871v1.2h-8.63a3.966,3.966,0,0,0,1.093,2.588,3.28,3.28,0,0,0,2.411.952,4.017,4.017,0,0,0,3.32-1.648l1.6,1.526a5.34,5.34,0,0,1-2.118,1.837A6.631,6.631,0,0,1,148.987.244Zm-.354-11.316a2.5,2.5,0,0,0-1.971.854,4.429,4.429,0,0,0-.958,2.38h5.652v-.22a3.605,3.605,0,0,0-.793-2.252A2.479,2.479,0,0,0,148.633-11.072Zm19.6,8.948a2.682,2.682,0,0,0,1.843-.647,2.21,2.21,0,0,0,.781-1.6h2.8a4.357,4.357,0,0,1-.769,2.3,5.044,5.044,0,0,1-1.953,1.691,5.82,5.82,0,0,1-2.661.623,5.631,5.631,0,0,1-4.395-1.794,7.117,7.117,0,0,1-1.624-4.956v-.305a7,7,0,0,1,1.611-4.828,5.58,5.58,0,0,1,4.395-1.813,5.427,5.427,0,0,1,3.839,1.373,4.919,4.919,0,0,1,1.556,3.607h-2.8a2.716,2.716,0,0,0-.775-1.868,2.494,2.494,0,0,0-1.849-.732,2.61,2.61,0,0,0-2.222,1.044,5.326,5.326,0,0,0-.793,3.168v.476A5.414,5.414,0,0,0,166-3.18,2.608,2.608,0,0,0,168.237-2.124ZM179.053,0h-2.966V-13.208h2.966ZM175.9-16.638a1.574,1.574,0,0,1,.433-1.135,1.637,1.637,0,0,1,1.239-.452,1.658,1.658,0,0,1,1.245.452,1.562,1.562,0,0,1,.439,1.135,1.526,1.526,0,0,1-.439,1.117,1.671,1.671,0,0,1-1.245.446,1.65,1.65,0,0,1-1.239-.446A1.538,1.538,0,0,1,175.9-16.638ZM188.1.244a6.137,6.137,0,0,1-4.572-1.776,6.443,6.443,0,0,1-1.752-4.73v-.366a7.926,7.926,0,0,1,.763-3.534,5.807,5.807,0,0,1,2.142-2.423,5.664,5.664,0,0,1,3.076-.867,5.184,5.184,0,0,1,4.169,1.721A7.278,7.278,0,0,1,193.4-6.86v1.2h-8.63a3.966,3.966,0,0,0,1.093,2.588,3.28,3.28,0,0,0,2.411.952,4.017,4.017,0,0,0,3.32-1.648l1.6,1.526a5.34,5.34,0,0,1-2.118,1.837A6.631,6.631,0,0,1,188.1.244Zm-.354-11.316a2.5,2.5,0,0,0-1.971.854,4.429,4.429,0,0,0-.958,2.38h5.652v-.22a3.605,3.605,0,0,0-.793-2.252A2.479,2.479,0,0,0,187.744-11.072Zm10.706-2.136.085,1.526a4.749,4.749,0,0,1,3.845-1.77q4.126,0,4.2,4.724V0h-2.966V-8.557a2.72,2.72,0,0,0-.543-1.862,2.285,2.285,0,0,0-1.776-.6A2.858,2.858,0,0,0,198.621-9.4V0h-2.966V-13.208ZM215.027-2.124a2.682,2.682,0,0,0,1.843-.647,2.21,2.21,0,0,0,.781-1.6h2.8a4.357,4.357,0,0,1-.769,2.3,5.044,5.044,0,0,1-1.953,1.691,5.82,5.82,0,0,1-2.661.623,5.631,5.631,0,0,1-4.395-1.794,7.117,7.117,0,0,1-1.624-4.956v-.305a7,7,0,0,1,1.611-4.828,5.58,5.58,0,0,1,4.395-1.813,5.427,5.427,0,0,1,3.839,1.373,4.919,4.919,0,0,1,1.556,3.607h-2.8a2.716,2.716,0,0,0-.775-1.868,2.494,2.494,0,0,0-1.849-.732,2.61,2.61,0,0,0-2.222,1.044,5.326,5.326,0,0,0-.793,3.168v.476a5.414,5.414,0,0,0,.775,3.2A2.608,2.608,0,0,0,215.027-2.124ZM225.842,0h-2.966V-13.208h2.966Zm-3.149-16.638a1.574,1.574,0,0,1,.433-1.135,1.637,1.637,0,0,1,1.239-.452,1.658,1.658,0,0,1,1.245.452,1.562,1.562,0,0,1,.439,1.135,1.526,1.526,0,0,1-.439,1.117,1.671,1.671,0,0,1-1.245.446,1.65,1.65,0,0,1-1.239-.446A1.538,1.538,0,0,1,222.693-16.638ZM236.963,0a4.578,4.578,0,0,1-.342-1.233A4.617,4.617,0,0,1,233.154.244a4.66,4.66,0,0,1-3.247-1.135A3.632,3.632,0,0,1,228.65-3.7a3.75,3.75,0,0,1,1.569-3.241A7.6,7.6,0,0,1,234.7-8.069h1.819v-.867a2.314,2.314,0,0,0-.574-1.642,2.274,2.274,0,0,0-1.746-.616,2.613,2.613,0,0,0-1.66.507A1.568,1.568,0,0,0,231.9-9.4h-2.966a3.292,3.292,0,0,1,.72-2.032,4.8,4.8,0,0,1,1.959-1.483,6.882,6.882,0,0,1,2.765-.537,5.542,5.542,0,0,1,3.7,1.166,4.157,4.157,0,0,1,1.416,3.278v5.957a6.751,6.751,0,0,0,.5,2.844V0ZM233.7-2.136a3.374,3.374,0,0,0,1.654-.427,2.854,2.854,0,0,0,1.166-1.147V-6.2h-1.6a4.373,4.373,0,0,0-2.478.574A1.859,1.859,0,0,0,231.616-4a1.733,1.733,0,0,0,.568,1.361A2.2,2.2,0,0,0,233.7-2.136ZM250-3.589a1.345,1.345,0,0,0-.653-1.208,6.946,6.946,0,0,0-2.167-.732,11.139,11.139,0,0,1-2.527-.806,3.372,3.372,0,0,1-2.222-3.113,3.516,3.516,0,0,1,1.44-2.856,5.694,5.694,0,0,1,3.662-1.147,5.925,5.925,0,0,1,3.827,1.172,3.719,3.719,0,0,1,1.459,3.04h-2.966a1.828,1.828,0,0,0-.635-1.422,2.433,2.433,0,0,0-1.685-.568,2.629,2.629,0,0,0-1.593.452,1.424,1.424,0,0,0-.616,1.208,1.2,1.2,0,0,0,.574,1.062,7.89,7.89,0,0,0,2.319.763,10.979,10.979,0,0,1,2.74.916,3.881,3.881,0,0,1,1.477,1.276,3.253,3.253,0,0,1,.482,1.807A3.441,3.441,0,0,1,251.44-.861a6.3,6.3,0,0,1-3.87,1.1,6.83,6.83,0,0,1-2.893-.586A4.761,4.761,0,0,1,242.7-1.953a3.814,3.814,0,0,1-.708-2.209h2.881a2.09,2.09,0,0,0,.793,1.617,3.083,3.083,0,0,0,1.941.568,3,3,0,0,0,1.782-.446A1.379,1.379,0,0,0,250-3.589Z" transform="translate(312 1572)" fill="#26c179"/>
      <path id="Trazado_11243" data-name="Trazado 11243" d="M5.548-6.021A8.376,8.376,0,0,1,2.213-7.64a3.093,3.093,0,0,1-1.044-2.37A3.267,3.267,0,0,1,2.445-12.65a5.07,5.07,0,0,1,3.317-1.044,5.534,5.534,0,0,1,2.482.538,4.081,4.081,0,0,1,1.688,1.484,3.8,3.8,0,0,1,.6,2.069H8.739a2.457,2.457,0,0,0-.779-1.925,3.176,3.176,0,0,0-2.2-.7,3.249,3.249,0,0,0-2.055.58,1.933,1.933,0,0,0-.738,1.61,1.739,1.739,0,0,0,.7,1.4A6.876,6.876,0,0,0,6.053-7.6,11.041,11.041,0,0,1,8.688-6.554,4,4,0,0,1,10.1-5.223a3.4,3.4,0,0,1,.459,1.791A3.156,3.156,0,0,1,9.277-.8,5.459,5.459,0,0,1,5.854.186a6.349,6.349,0,0,1-2.6-.533A4.372,4.372,0,0,1,1.4-1.809,3.566,3.566,0,0,1,.742-3.915H2.533a2.326,2.326,0,0,0,.9,1.934,3.809,3.809,0,0,0,2.417.71,3.5,3.5,0,0,0,2.162-.575,1.868,1.868,0,0,0,.751-1.568,1.834,1.834,0,0,0-.7-1.535A8.022,8.022,0,0,0,5.548-6.021ZM18.768-.993A3.646,3.646,0,0,1,15.827.186a3.12,3.12,0,0,1-2.445-.932,4.036,4.036,0,0,1-.849-2.76v-6.531H14.25v6.485q0,2.282,1.855,2.282a2.569,2.569,0,0,0,2.616-1.466v-7.3h1.716V0H18.805Zm6.049-9.045V1.16q0,2.895-2.625,2.895a3.185,3.185,0,0,1-1.048-.167V2.514a3.318,3.318,0,0,0,.779.074,1.166,1.166,0,0,0,.877-.311A1.536,1.536,0,0,0,23.1,1.2V-10.038ZM22.924-12.7a1.029,1.029,0,0,1,.255-.7.938.938,0,0,1,.747-.292.973.973,0,0,1,.761.288,1.014,1.014,0,0,1,.26.705.98.98,0,0,1-.26.7.99.99,0,0,1-.761.278A.96.96,0,0,1,23.175-12,1,1,0,0,1,22.924-12.7ZM31.747.186a4.386,4.386,0,0,1-3.321-1.341,4.976,4.976,0,0,1-1.28-3.586v-.315a6.024,6.024,0,0,1,.571-2.667,4.451,4.451,0,0,1,1.6-1.837,4.012,4.012,0,0,1,2.222-.663,3.759,3.759,0,0,1,3.043,1.29,5.583,5.583,0,0,1,1.085,3.692v.714h-6.8a3.568,3.568,0,0,0,.867,2.4,2.727,2.727,0,0,0,2.111.914,2.989,2.989,0,0,0,1.54-.371,3.869,3.869,0,0,0,1.1-.983l1.048.816A4.215,4.215,0,0,1,31.747.186Zm-.213-9a2.289,2.289,0,0,0-1.744.756,3.675,3.675,0,0,0-.872,2.12h5.028v-.13a3.269,3.269,0,0,0-.705-2.027A2.155,2.155,0,0,0,31.534-8.813Zm8.442-3.655v2.431H41.85v1.327H39.976v6.225a1.39,1.39,0,0,0,.25.9,1.055,1.055,0,0,0,.854.3,4.155,4.155,0,0,0,.816-.111V0a4.976,4.976,0,0,1-1.317.186,2.137,2.137,0,0,1-1.735-.7,2.989,2.989,0,0,1-.584-1.976V-8.711H36.432v-1.327H38.26v-2.431Zm3.238,7.357a5.929,5.929,0,0,1,.58-2.653,4.325,4.325,0,0,1,1.614-1.818,4.394,4.394,0,0,1,2.361-.64A4.233,4.233,0,0,1,51.086-8.8a5.461,5.461,0,0,1,1.266,3.776v.121a5.981,5.981,0,0,1-.561,2.63,4.262,4.262,0,0,1-1.6,1.814,4.445,4.445,0,0,1-2.4.649A4.223,4.223,0,0,1,44.48-1.234a5.433,5.433,0,0,1-1.266-3.757Zm1.726.2a4.294,4.294,0,0,0,.775,2.681,2.479,2.479,0,0,0,2.073,1.011A2.464,2.464,0,0,0,49.866-2.24a4.7,4.7,0,0,0,.77-2.871,4.287,4.287,0,0,0-.784-2.677,2.492,2.492,0,0,0-2.083-1.025A2.465,2.465,0,0,0,45.719-7.8,4.661,4.661,0,0,0,44.939-4.908Z" transform="translate(407.5 1602)" fill="#26c179"/>
      <path id="Trazado_11245" data-name="Trazado 11245" d="M3.349-5.288V0H1.568V-13.508H6.55a5.005,5.005,0,0,1,3.474,1.132,3.837,3.837,0,0,1,1.257,3A3.786,3.786,0,0,1,10.052-6.35,5.229,5.229,0,0,1,6.531-5.288Zm0-1.457h3.2a3.2,3.2,0,0,0,2.189-.673A2.457,2.457,0,0,0,9.5-9.361a2.539,2.539,0,0,0-.761-1.93,3,3,0,0,0-2.087-.751h-3.3ZM18.137-8.5a5.143,5.143,0,0,0-.844-.065A2.262,2.262,0,0,0,15-7.125V0H13.285V-10.038h1.67l.028,1.16a2.672,2.672,0,0,1,2.394-1.345,1.753,1.753,0,0,1,.761.13ZM23.7.186a4.386,4.386,0,0,1-3.321-1.341A4.976,4.976,0,0,1,19.1-4.741v-.315a6.024,6.024,0,0,1,.571-2.667,4.451,4.451,0,0,1,1.6-1.837,4.012,4.012,0,0,1,2.222-.663,3.759,3.759,0,0,1,3.043,1.29,5.583,5.583,0,0,1,1.085,3.692v.714h-6.8a3.568,3.568,0,0,0,.867,2.4,2.727,2.727,0,0,0,2.111.914,2.989,2.989,0,0,0,1.54-.371,3.87,3.87,0,0,0,1.1-.983l1.048.816A4.215,4.215,0,0,1,23.7.186Zm-.213-9a2.289,2.289,0,0,0-1.744.756,3.675,3.675,0,0,0-.872,2.12H25.9v-.13A3.269,3.269,0,0,0,25.2-8.094,2.155,2.155,0,0,0,23.49-8.813Zm5.7,3.711a5.88,5.88,0,0,1,1.095-3.716,3.462,3.462,0,0,1,2.867-1.406A3.481,3.481,0,0,1,35.94-9.018V-14.25h1.716V0H36.08L36-1.076A3.5,3.5,0,0,1,33.129.186a3.429,3.429,0,0,1-2.844-1.429,5.947,5.947,0,0,1-1.1-3.729Zm1.716.195a4.452,4.452,0,0,0,.705,2.672,2.279,2.279,0,0,0,1.948.965A2.5,2.5,0,0,0,35.94-2.737V-7.348a2.523,2.523,0,0,0-2.366-1.419,2.29,2.29,0,0,0-1.967.974A4.9,4.9,0,0,0,30.9-4.908ZM42.184,0H40.468V-10.038h1.716ZM40.329-12.7a1.024,1.024,0,0,1,.255-.705.958.958,0,0,1,.756-.288.973.973,0,0,1,.761.288,1.014,1.014,0,0,1,.26.705.98.98,0,0,1-.26.7.99.99,0,0,1-.761.278A.975.975,0,0,1,40.584-12,.991.991,0,0,1,40.329-12.7ZM48.957-1.215a2.472,2.472,0,0,0,1.6-.557,1.958,1.958,0,0,0,.761-1.392h1.624a3.112,3.112,0,0,1-.594,1.642A3.911,3.911,0,0,1,50.891-.278a4.216,4.216,0,0,1-1.934.464A4.135,4.135,0,0,1,45.7-1.183a5.45,5.45,0,0,1-1.211-3.743v-.288a6.043,6.043,0,0,1,.538-2.607,4.1,4.1,0,0,1,1.545-1.772,4.388,4.388,0,0,1,2.38-.631,4.026,4.026,0,0,1,2.806,1.011,3.614,3.614,0,0,1,1.192,2.625H51.322a2.365,2.365,0,0,0-.738-1.6,2.294,2.294,0,0,0-1.637-.626,2.4,2.4,0,0,0-2.027.942A4.422,4.422,0,0,0,46.2-5.149v.325a4.334,4.334,0,0,0,.714,2.672A2.414,2.414,0,0,0,48.957-1.215ZM61.073,0a3.605,3.605,0,0,1-.241-1.058A3.829,3.829,0,0,1,57.974.186a3.543,3.543,0,0,1-2.435-.84,2.716,2.716,0,0,1-.951-2.129A2.838,2.838,0,0,1,55.78-5.219a5.621,5.621,0,0,1,3.354-.867H60.8v-.789a1.928,1.928,0,0,0-.538-1.433,2.163,2.163,0,0,0-1.586-.533,2.5,2.5,0,0,0-1.54.464,1.367,1.367,0,0,0-.622,1.123H54.792a2.369,2.369,0,0,1,.533-1.452,3.641,3.641,0,0,1,1.447-1.109,4.869,4.869,0,0,1,2.009-.408,3.968,3.968,0,0,1,2.718.867A3.129,3.129,0,0,1,62.52-6.967v4.62a5.649,5.649,0,0,0,.353,2.2V0ZM58.225-1.308a3.016,3.016,0,0,0,1.531-.417A2.525,2.525,0,0,0,60.8-2.811v-2.06H59.458q-3.154,0-3.154,1.846a1.562,1.562,0,0,0,.538,1.262A2.068,2.068,0,0,0,58.225-1.308ZM64.793-5.1a5.88,5.88,0,0,1,1.095-3.716,3.462,3.462,0,0,1,2.867-1.406,3.481,3.481,0,0,1,2.792,1.206V-14.25h1.716V0H71.686L71.6-1.076A3.5,3.5,0,0,1,68.736.186a3.429,3.429,0,0,1-2.844-1.429,5.947,5.947,0,0,1-1.1-3.729Zm1.716.195a4.452,4.452,0,0,0,.705,2.672,2.279,2.279,0,0,0,1.948.965,2.5,2.5,0,0,0,2.384-1.466V-7.348a2.523,2.523,0,0,0-2.366-1.419,2.29,2.29,0,0,0-1.967.974A4.9,4.9,0,0,0,66.509-4.908Zm8.962-.2a5.929,5.929,0,0,1,.58-2.653,4.326,4.326,0,0,1,1.614-1.818,4.394,4.394,0,0,1,2.361-.64A4.233,4.233,0,0,1,83.343-8.8a5.461,5.461,0,0,1,1.266,3.776v.121a5.981,5.981,0,0,1-.561,2.63,4.262,4.262,0,0,1-1.6,1.814,4.445,4.445,0,0,1-2.4.649,4.223,4.223,0,0,1-3.307-1.419,5.433,5.433,0,0,1-1.266-3.757Zm1.726.2a4.294,4.294,0,0,0,.775,2.681,2.479,2.479,0,0,0,2.073,1.011A2.464,2.464,0,0,0,82.123-2.24a4.7,4.7,0,0,0,.77-2.871,4.287,4.287,0,0,0-.784-2.677,2.492,2.492,0,0,0-2.083-1.025A2.465,2.465,0,0,0,77.976-7.8,4.661,4.661,0,0,0,77.2-4.908Z" transform="translate(626.404 1602)" fill="#02255f"/>
      <path id="Trazado_11246" data-name="Trazado 11246" d="M7.336.244A6.137,6.137,0,0,1,2.765-1.532a6.443,6.443,0,0,1-1.752-4.73v-.366a7.925,7.925,0,0,1,.763-3.534,5.807,5.807,0,0,1,2.142-2.423,5.664,5.664,0,0,1,3.076-.867,5.184,5.184,0,0,1,4.169,1.721A7.278,7.278,0,0,1,12.634-6.86v1.2H4A3.966,3.966,0,0,0,5.1-3.076a3.28,3.28,0,0,0,2.411.952,4.017,4.017,0,0,0,3.32-1.648l1.6,1.526A5.34,5.34,0,0,1,10.309-.409,6.631,6.631,0,0,1,7.336.244ZM6.982-11.072a2.5,2.5,0,0,0-1.971.854,4.429,4.429,0,0,0-.958,2.38H9.7v-.22a3.605,3.605,0,0,0-.793-2.252A2.479,2.479,0,0,0,6.982-11.072Zm12.7,2.209,2.515-4.346h3.3L21.448-6.7,25.623,0H22.351L19.714-4.517,17.09,0h-3.3l4.175-6.7L13.94-13.208h3.271Zm19.4,2.393a7.864,7.864,0,0,1-1.392,4.889A4.457,4.457,0,0,1,33.948.244a4.487,4.487,0,0,1-3.479-1.428V5.078H27.5V-13.208h2.734l.122,1.343a4.357,4.357,0,0,1,3.552-1.587,4.5,4.5,0,0,1,3.79,1.8,8.074,8.074,0,0,1,1.373,5Zm-2.954-.256a5.509,5.509,0,0,0-.787-3.137,2.56,2.56,0,0,0-2.252-1.16,2.73,2.73,0,0,0-2.612,1.5v5.859a2.755,2.755,0,0,0,2.637,1.538,2.557,2.557,0,0,0,2.216-1.141A6.064,6.064,0,0,0,36.121-6.726ZM44.739,0H41.772V-18.75h2.966Zm6.384,0H48.157V-13.208h2.966ZM47.974-16.638a1.574,1.574,0,0,1,.433-1.135,1.637,1.637,0,0,1,1.239-.452,1.658,1.658,0,0,1,1.245.452,1.562,1.562,0,0,1,.439,1.135,1.526,1.526,0,0,1-.439,1.117,1.671,1.671,0,0,1-1.245.446,1.65,1.65,0,0,1-1.239-.446A1.538,1.538,0,0,1,47.974-16.638Zm11.8,14.514a2.682,2.682,0,0,0,1.843-.647,2.21,2.21,0,0,0,.781-1.6h2.8a4.357,4.357,0,0,1-.769,2.3A5.044,5.044,0,0,1,62.476-.378a5.82,5.82,0,0,1-2.661.623A5.631,5.631,0,0,1,55.42-1.55,7.117,7.117,0,0,1,53.8-6.506v-.305a7,7,0,0,1,1.611-4.828A5.58,5.58,0,0,1,59.8-13.452a5.427,5.427,0,0,1,3.839,1.373A4.919,4.919,0,0,1,65.2-8.472H62.4a2.716,2.716,0,0,0-.775-1.868,2.494,2.494,0,0,0-1.849-.732,2.61,2.61,0,0,0-2.222,1.044,5.326,5.326,0,0,0-.793,3.168v.476a5.414,5.414,0,0,0,.775,3.2A2.608,2.608,0,0,0,59.778-2.124Zm7.1-4.6a7.788,7.788,0,0,1,.769-3.5,5.617,5.617,0,0,1,2.161-2.393,6.088,6.088,0,0,1,3.2-.836,5.769,5.769,0,0,1,4.34,1.721,6.77,6.77,0,0,1,1.8,4.565l.012.7a7.858,7.858,0,0,1-.751,3.491A5.549,5.549,0,0,1,76.263-.6a6.132,6.132,0,0,1-3.229.842,5.729,5.729,0,0,1-4.474-1.862A7.13,7.13,0,0,1,66.882-6.58Zm2.966.256a5.322,5.322,0,0,0,.842,3.192,2.738,2.738,0,0,0,2.344,1.154A2.708,2.708,0,0,0,75.372-3.3a5.878,5.878,0,0,0,.836-3.43A5.253,5.253,0,0,0,75.348-9.9a2.748,2.748,0,0,0-2.338-1.172A2.723,2.723,0,0,0,70.7-9.918,5.767,5.767,0,0,0,69.849-6.47Zm3.979-12.28h3.381l-3.381,3.7h-2.38ZM93.713.244a6.137,6.137,0,0,1-4.572-1.776,6.443,6.443,0,0,1-1.752-4.73v-.366a7.925,7.925,0,0,1,.763-3.534A5.807,5.807,0,0,1,90.3-12.585a5.664,5.664,0,0,1,3.076-.867,5.184,5.184,0,0,1,4.169,1.721A7.278,7.278,0,0,1,99.011-6.86v1.2h-8.63a3.966,3.966,0,0,0,1.093,2.588,3.28,3.28,0,0,0,2.411.952A4.017,4.017,0,0,0,97.2-3.772l1.6,1.526A5.34,5.34,0,0,1,96.686-.409,6.631,6.631,0,0,1,93.713.244Zm-.354-11.316a2.5,2.5,0,0,0-1.971.854,4.429,4.429,0,0,0-.958,2.38h5.652v-.22a3.605,3.605,0,0,0-.793-2.252A2.479,2.479,0,0,0,93.359-11.072ZM104.468,0H101.5V-18.75h2.966Zm13.171-16.418v3.21h2.332v2.2h-2.332v7.373a1.624,1.624,0,0,0,.3,1.093,1.387,1.387,0,0,0,1.068.336,4.57,4.57,0,0,0,1.038-.122V-.037a7.306,7.306,0,0,1-1.953.281q-3.418,0-3.418-3.772v-7.483H112.5v-2.2h2.173v-3.21ZM128.052.244a6.137,6.137,0,0,1-4.572-1.776,6.443,6.443,0,0,1-1.752-4.73v-.366a7.925,7.925,0,0,1,.763-3.534,5.807,5.807,0,0,1,2.142-2.423,5.664,5.664,0,0,1,3.076-.867,5.184,5.184,0,0,1,4.169,1.721A7.278,7.278,0,0,1,133.35-6.86v1.2h-8.63a3.966,3.966,0,0,0,1.093,2.588,3.28,3.28,0,0,0,2.411.952,4.017,4.017,0,0,0,3.32-1.648l1.6,1.526a5.34,5.34,0,0,1-2.118,1.837A6.631,6.631,0,0,1,128.052.244ZM127.7-11.072a2.5,2.5,0,0,0-1.971.854,4.429,4.429,0,0,0-.958,2.38h5.652v-.22a3.605,3.605,0,0,0-.793-2.252A2.479,2.479,0,0,0,127.7-11.072Zm10.742-2.136.085,1.379a4.753,4.753,0,0,1,3.809-1.624,3.651,3.651,0,0,1,3.625,2.026,4.685,4.685,0,0,1,4.053-2.026,4.118,4.118,0,0,1,3.253,1.208,5.321,5.321,0,0,1,1.093,3.564V0h-2.966V-8.594a2.627,2.627,0,0,0-.549-1.843,2.4,2.4,0,0,0-1.819-.586,2.47,2.47,0,0,0-1.654.543,2.865,2.865,0,0,0-.9,1.422L146.484,0h-2.966V-8.691a2.116,2.116,0,0,0-2.38-2.332,2.611,2.611,0,0,0-2.527,1.453V0h-2.966V-13.208ZM165.3,0a4.578,4.578,0,0,1-.342-1.233A4.617,4.617,0,0,1,161.487.244,4.66,4.66,0,0,1,158.24-.891,3.632,3.632,0,0,1,156.982-3.7a3.75,3.75,0,0,1,1.569-3.241,7.6,7.6,0,0,1,4.486-1.129h1.819v-.867a2.314,2.314,0,0,0-.574-1.642,2.274,2.274,0,0,0-1.746-.616,2.613,2.613,0,0,0-1.66.507,1.568,1.568,0,0,0-.647,1.288h-2.966a3.292,3.292,0,0,1,.72-2.032,4.8,4.8,0,0,1,1.959-1.483,6.882,6.882,0,0,1,2.765-.537,5.542,5.542,0,0,1,3.7,1.166,4.157,4.157,0,0,1,1.416,3.278v5.957a6.751,6.751,0,0,0,.5,2.844V0Zm-3.259-2.136a3.374,3.374,0,0,0,1.654-.427,2.854,2.854,0,0,0,1.166-1.147V-6.2h-1.6a4.373,4.373,0,0,0-2.478.574A1.859,1.859,0,0,0,159.949-4a1.733,1.733,0,0,0,.568,1.361A2.2,2.2,0,0,0,162.036-2.136Z" transform="translate(576 1572)" fill="#02255f"/>
    </g>
  </g>
</svg>
