<svg xmlns="http://www.w3.org/2000/svg" width="555.688" height="186" viewBox="0 0 555.688 186">
  <g id="Grupo_13652" data-name="Grupo 13652" transform="translate(-282 -11357)">
    <text id="El_alcalde_prohibió_que_demolieran_el_edificio" data-name="El alcalde prohibió   que demolieran el edificio" transform="translate(328 11378)" fill="#09347b" font-size="22" font-family="Roboto-Regular, Roboto"><tspan x="0" y="0" xml:space="preserve">El alcalde prohibió   </tspan><tspan y="0" font-family="Roboto-Bold, Roboto" font-weight="700">que</tspan><tspan y="0" xml:space="preserve"> demolieran el edificio</tspan></text>
    <path id="Trazado_10870" data-name="Trazado 10870" d="M-2867.5,9861.961h174" transform="translate(3195.501 1531)" fill="none" stroke="#ffa800" stroke-width="3"/>
    <path id="Trazado_10871" data-name="Trazado 10871" d="M-2867.5,9861.961h240" transform="translate(3401.5 1531)" fill="none" stroke="#ffa800" stroke-width="3"/>
    <text id="oración_principal" data-name="oración principal" transform="translate(348 11419)" fill="#26c179" font-size="18" font-family="Roboto-Bold, Roboto" font-weight="700"><tspan x="0" y="0">oración principal</tspan></text>
    <text id="oración_subordinada" data-name="oración subordinada" transform="translate(571 11419)" fill="#26c179" font-size="18" font-family="Roboto-Bold, Roboto" font-weight="700"><tspan x="0" y="0">oración subordinada</tspan></text>
    <g id="Grupo_13525" data-name="Grupo 13525" transform="translate(-4258.235 10579.312)">
      <circle id="Elipse_503" data-name="Elipse 503" cx="8.579" cy="8.579" r="8.579" transform="translate(4540.235 783.529)" fill="#26c179"/>
      <g id="Grupo_10024" data-name="Grupo 10024" transform="translate(4543.576 784.48)">
        <path id="Trazado_1490" data-name="Trazado 1490" d="M4619.155,817.733a1.125,1.125,0,0,1-.8-.33l-3.577-3.576a1.125,1.125,0,0,1,1.592-1.592l2.78,2.781,10.036-10.036a1.125,1.125,0,0,1,1.592,1.591L4619.951,817.4A1.125,1.125,0,0,1,4619.155,817.733Z" transform="translate(-4614.454 -804.651)" fill="#02255f"/>
      </g>
    </g>
    <text id="Los_excursionistas_se_levantan_cuando_sale_el_sol" data-name="Los excursionistas se levantan   cuando sale el sol" transform="translate(328 11497)" fill="#09347b" font-size="22" font-family="Roboto-Regular, Roboto"><tspan x="0" y="0" xml:space="preserve">Los excursionistas se levantan   </tspan><tspan y="0" font-family="Roboto-Bold, Roboto" font-weight="700">cuando</tspan><tspan y="0" xml:space="preserve"> sale el sol</tspan></text>
    <path id="Trazado_10872" data-name="Trazado 10872" d="M-2867.5,9861.961h299.8" transform="translate(3195.501 1650)" fill="none" stroke="#ffa800" stroke-width="3"/>
    <path id="Trazado_10873" data-name="Trazado 10873" d="M-2867.5,9861.961h195.688" transform="translate(3509.5 1650)" fill="none" stroke="#ffa800" stroke-width="3"/>
    <text id="oración_principal-2" data-name="oración principal" transform="translate(423 11538)" fill="#26c179" font-size="18" font-family="Roboto-Bold, Roboto" font-weight="700"><tspan x="0" y="0">oración principal</tspan></text>
    <text id="oración_subordinada-2" data-name="oración subordinada" transform="translate(654 11538)" fill="#26c179" font-size="18" font-family="Roboto-Bold, Roboto" font-weight="700"><tspan x="0" y="0">oración subordinada</tspan></text>
    <g id="Grupo_13526" data-name="Grupo 13526" transform="translate(-4258.235 10698.312)">
      <circle id="Elipse_503-2" data-name="Elipse 503" cx="8.579" cy="8.579" r="8.579" transform="translate(4540.235 783.529)" fill="#26c179"/>
      <g id="Grupo_10024-2" data-name="Grupo 10024" transform="translate(4543.576 784.48)">
        <path id="Trazado_1490-2" data-name="Trazado 1490" d="M4619.155,817.733a1.125,1.125,0,0,1-.8-.33l-3.577-3.576a1.125,1.125,0,0,1,1.592-1.592l2.78,2.781,10.036-10.036a1.125,1.125,0,0,1,1.592,1.591L4619.951,817.4A1.125,1.125,0,0,1,4619.155,817.733Z" transform="translate(-4614.454 -804.651)" fill="#02255f"/>
      </g>
    </g>
  </g>
</svg>
