<svg xmlns="http://www.w3.org/2000/svg" width="364.66" height="107.465" viewBox="0 0 364.66 107.465">
  <g id="Grupo_13159" data-name="Grupo 13159" transform="translate(-532.84 -1208.75)">
    <path id="Trazado_10074" data-name="Trazado 10074" d="M1.772-14.744q0-6.794,3.048-10.823a9.89,9.89,0,0,1,8.339-4.028,8.9,8.9,0,0,1,7.009,3.169V-41.25h7.788V0H20.947l-.376-3.088A9.133,9.133,0,0,1,13.105.537,9.864,9.864,0,0,1,4.874-3.5Q1.772-7.546,1.772-14.744Zm7.761.564a11.439,11.439,0,0,0,1.423,6.257,4.638,4.638,0,0,0,4.136,2.175,5.194,5.194,0,0,0,5.076-3.035V-20.249a5.12,5.12,0,0,0-5.022-3.035Q9.534-23.284,9.534-14.18ZM47.346.537A14.265,14.265,0,0,1,36.94-3.384Q32.925-7.3,32.925-13.831v-.752a17.553,17.553,0,0,1,1.692-7.828,12.417,12.417,0,0,1,4.794-5.317,13.455,13.455,0,0,1,7.076-1.866q5.962,0,9.386,3.76T59.3-15.173V-12h-18.5a7.21,7.21,0,0,0,2.269,4.565A6.86,6.86,0,0,0,47.856-5.72a8.377,8.377,0,0,0,7.009-3.25L58.679-4.7A11.651,11.651,0,0,1,53.953-.846,15.507,15.507,0,0,1,47.346.537ZM46.46-23.311a4.86,4.86,0,0,0-3.746,1.558,8.047,8.047,0,0,0-1.84,4.458h10.8v-.618a5.737,5.737,0,0,0-1.4-3.988A5.016,5.016,0,0,0,46.46-23.311Zm43.4,9.05q0,6.714-3.048,10.756A9.773,9.773,0,0,1,78.579.537a9.053,9.053,0,0,1-7.117-3.062v13.7H63.7V-29.058h7.2l.269,2.847a9.122,9.122,0,0,1,7.358-3.384,9.839,9.839,0,0,1,8.352,3.975q2.981,3.975,2.981,10.957ZM82.1-14.824a11.436,11.436,0,0,0-1.437-6.257,4.68,4.68,0,0,0-4.176-2.2q-3.652,0-5.022,2.793v11.9A5.169,5.169,0,0,0,76.538-5.72Q82.1-5.72,82.1-14.824Zm11.36.027A17.233,17.233,0,0,1,95.122-22.5a12.189,12.189,0,0,1,4.794-5.237,13.986,13.986,0,0,1,7.264-1.853,13.232,13.232,0,0,1,9.6,3.6,14.443,14.443,0,0,1,4.149,9.775l.054,1.987q0,6.687-3.733,10.729A12.975,12.975,0,0,1,107.234.537,13.04,13.04,0,0,1,97.2-3.491Q93.457-7.52,93.457-14.448Zm7.761.564a10.832,10.832,0,0,0,1.558,6.324,5.141,5.141,0,0,0,4.458,2.189,5.153,5.153,0,0,0,4.4-2.162q1.584-2.162,1.584-6.915a10.724,10.724,0,0,0-1.584-6.284,5.153,5.153,0,0,0-4.458-2.229,5.069,5.069,0,0,0-4.4,2.216Q101.218-18.879,101.218-14.233Zm40.874-7.546a21.085,21.085,0,0,0-2.793-.215q-4.4,0-5.774,2.981V0h-7.761V-29.058H133.1l.215,3.464a7.191,7.191,0,0,1,6.472-4,8.132,8.132,0,0,1,2.417.349ZM156.46-36.2v7.144h4.968v5.693H156.46v14.5a3.463,3.463,0,0,0,.618,2.31,3.1,3.1,0,0,0,2.363.7,12.377,12.377,0,0,0,2.283-.188V-.161a15.978,15.978,0,0,1-4.7.7q-8.164,0-8.325-8.245V-23.364h-4.243v-5.693H148.7V-36.2Zm65.608,20.2H194.256v-6.338h27.812ZM263.479,0h-7.788V-29.058h7.788Zm-8.245-36.577a3.822,3.822,0,0,1,1.168-2.874,4.389,4.389,0,0,1,3.182-1.128,4.4,4.4,0,0,1,3.169,1.128,3.8,3.8,0,0,1,1.182,2.874,3.81,3.81,0,0,1-1.2,2.9,4.409,4.409,0,0,1-3.156,1.128,4.409,4.409,0,0,1-3.156-1.128A3.81,3.81,0,0,1,255.234-36.577ZM285.608-8.03a2.5,2.5,0,0,0-1.41-2.242,16.015,16.015,0,0,0-4.525-1.464q-10.366-2.175-10.366-8.809A7.984,7.984,0,0,1,272.516-27a12.946,12.946,0,0,1,8.392-2.592q5.532,0,8.849,2.6a8.21,8.21,0,0,1,3.317,6.768h-7.761a3.755,3.755,0,0,0-1.074-2.753,4.546,4.546,0,0,0-3.357-1.088,4.645,4.645,0,0,0-3.035.886,2.8,2.8,0,0,0-1.074,2.256,2.391,2.391,0,0,0,1.222,2.081,12.57,12.57,0,0,0,4.122,1.37,33.67,33.67,0,0,1,4.888,1.3q6.15,2.256,6.15,7.815a7.58,7.58,0,0,1-3.411,6.432A14.713,14.713,0,0,1,280.935.537a15.367,15.367,0,0,1-6.486-1.3A10.882,10.882,0,0,1,270-4.337a8.3,8.3,0,0,1-1.611-4.9h7.358a4.052,4.052,0,0,0,1.531,3.169,6.072,6.072,0,0,0,3.813,1.1,5.62,5.62,0,0,0,3.37-.846A2.632,2.632,0,0,0,285.608-8.03ZM307.441-36.2v7.144h4.968v5.693h-4.968v14.5a3.463,3.463,0,0,0,.618,2.31,3.1,3.1,0,0,0,2.363.7,12.377,12.377,0,0,0,2.283-.188V-.161a15.978,15.978,0,0,1-4.7.7q-8.164,0-8.325-8.245V-23.364h-4.243v-5.693h4.243V-36.2ZM333.572,0a8.619,8.619,0,0,1-.779-2.6A9.391,9.391,0,0,1,325.461.537a10.317,10.317,0,0,1-7.076-2.471,7.946,7.946,0,0,1-2.806-6.23A8.212,8.212,0,0,1,319-15.254q3.424-2.471,9.9-2.5h3.572v-1.665a4.788,4.788,0,0,0-1.034-3.223,4.067,4.067,0,0,0-3.263-1.208,4.624,4.624,0,0,0-3.075.94,3.193,3.193,0,0,0-1.115,2.578h-7.761A7.8,7.8,0,0,1,317.781-25a10.3,10.3,0,0,1,4.4-3.37,16.051,16.051,0,0,1,6.392-1.222q5.371,0,8.527,2.7a9.442,9.442,0,0,1,3.156,7.587v12.6a13.892,13.892,0,0,0,1.155,6.257V0Zm-6.418-5.4a6.684,6.684,0,0,0,3.169-.765,5.027,5.027,0,0,0,2.148-2.054v-5h-2.9q-5.828,0-6.2,4.028l-.027.457a3.107,3.107,0,0,0,1.021,2.39A3.964,3.964,0,0,0,327.153-5.4Z" transform="translate(542 1250)" fill="#26c179"/>
    <path id="Trazado_10072" data-name="Trazado 10072" d="M7.122-9.84a5.955,5.955,0,0,0-.978-.075A2.619,2.619,0,0,0,3.491-8.25V0H1.5V-11.623H3.438L3.47-10.28a3.094,3.094,0,0,1,2.771-1.558,2.03,2.03,0,0,1,.881.15ZM15.694,0a4.175,4.175,0,0,1-.279-1.225A4.434,4.434,0,0,1,12.106.215a4.1,4.1,0,0,1-2.82-.972,3.145,3.145,0,0,1-1.1-2.465,3.286,3.286,0,0,1,1.38-2.82,6.508,6.508,0,0,1,3.883-1h1.934V-7.96a2.232,2.232,0,0,0-.623-1.66,2.5,2.5,0,0,0-1.837-.618A2.9,2.9,0,0,0,11.14-9.7a1.583,1.583,0,0,0-.72,1.3h-2a2.743,2.743,0,0,1,.618-1.681,4.216,4.216,0,0,1,1.676-1.284,5.638,5.638,0,0,1,2.326-.473,4.6,4.6,0,0,1,3.147,1A3.623,3.623,0,0,1,17.37-8.067v5.35a6.54,6.54,0,0,0,.408,2.546V0ZM12.4-1.515A3.493,3.493,0,0,0,14.169-2a2.924,2.924,0,0,0,1.214-1.257V-5.64H13.825q-3.652,0-3.652,2.138A1.809,1.809,0,0,0,10.8-2.041,2.4,2.4,0,0,0,12.4-1.515ZM22.645,0h-2V-11.623h2Zm.021-16.489h2.406l-2.879,3.158h-1.6ZM27.79-1.622h6.8V0H25.362V-1.461l6.413-8.519H25.459v-1.644h8.809v1.407Zm13.954-4.3a6.865,6.865,0,0,1,.671-3.072A5.008,5.008,0,0,1,44.285-11.1a5.088,5.088,0,0,1,2.734-.741,4.9,4.9,0,0,1,3.84,1.644,6.323,6.323,0,0,1,1.466,4.372v.14a6.925,6.925,0,0,1-.65,3.045,4.935,4.935,0,0,1-1.858,2.1A5.146,5.146,0,0,1,47.04.215a4.889,4.889,0,0,1-3.83-1.644,6.291,6.291,0,0,1-1.466-4.351Zm2,.236a4.972,4.972,0,0,0,.9,3.1,2.871,2.871,0,0,0,2.4,1.171,2.853,2.853,0,0,0,2.406-1.187,5.437,5.437,0,0,0,.892-3.325,4.964,4.964,0,0,0-.908-3.1,2.886,2.886,0,0,0-2.412-1.187,2.854,2.854,0,0,0-2.374,1.171A5.4,5.4,0,0,0,43.742-5.683ZM65.882-9.84a5.955,5.955,0,0,0-.978-.075A2.619,2.619,0,0,0,62.251-8.25V0H60.264V-11.623H62.2l.032,1.343A3.094,3.094,0,0,1,65-11.838a2.03,2.03,0,0,1,.881.15ZM74.454,0a4.175,4.175,0,0,1-.279-1.225A4.434,4.434,0,0,1,70.866.215a4.1,4.1,0,0,1-2.82-.972,3.145,3.145,0,0,1-1.1-2.465,3.286,3.286,0,0,1,1.38-2.82,6.508,6.508,0,0,1,3.883-1h1.934V-7.96a2.232,2.232,0,0,0-.623-1.66,2.5,2.5,0,0,0-1.837-.618A2.9,2.9,0,0,0,69.9-9.7a1.583,1.583,0,0,0-.72,1.3h-2a2.743,2.743,0,0,1,.618-1.681,4.216,4.216,0,0,1,1.676-1.284,5.638,5.638,0,0,1,2.326-.473,4.6,4.6,0,0,1,3.147,1A3.623,3.623,0,0,1,76.13-8.067v5.35a6.54,6.54,0,0,0,.408,2.546V0Zm-3.3-1.515A3.493,3.493,0,0,0,72.929-2a2.924,2.924,0,0,0,1.214-1.257V-5.64H72.585q-3.652,0-3.652,2.138a1.809,1.809,0,0,0,.623,1.461A2.4,2.4,0,0,0,71.156-1.515Zm7.605-4.394a6.809,6.809,0,0,1,1.268-4.3,4.008,4.008,0,0,1,3.319-1.627,4.031,4.031,0,0,1,3.233,1.4V-16.5h1.987V0H86.743l-.1-1.246A4.047,4.047,0,0,1,83.327.215a3.97,3.97,0,0,1-3.292-1.654,6.886,6.886,0,0,1-1.273-4.318Zm1.987.226a5.155,5.155,0,0,0,.816,3.094,2.639,2.639,0,0,0,2.256,1.117,2.9,2.9,0,0,0,2.761-1.7V-8.508a2.921,2.921,0,0,0-2.739-1.644,2.652,2.652,0,0,0-2.277,1.128A5.676,5.676,0,0,0,80.749-5.683ZM93.812,0H91.824V-11.623h1.987ZM91.663-14.706a1.186,1.186,0,0,1,.3-.816,1.109,1.109,0,0,1,.875-.333,1.126,1.126,0,0,1,.881.333,1.174,1.174,0,0,1,.3.816,1.135,1.135,0,0,1-.3.806,1.147,1.147,0,0,1-.881.322,1.129,1.129,0,0,1-.875-.322A1.147,1.147,0,0,1,91.663-14.706Zm9.99,13.3a2.863,2.863,0,0,0,1.858-.645,2.268,2.268,0,0,0,.881-1.611h1.88a3.6,3.6,0,0,1-.687,1.9,4.528,4.528,0,0,1-1.692,1.439,4.882,4.882,0,0,1-2.24.537A4.788,4.788,0,0,1,97.877-1.37a6.311,6.311,0,0,1-1.4-4.334v-.333A7,7,0,0,1,97.1-9.056a4.745,4.745,0,0,1,1.789-2.052,5.081,5.081,0,0,1,2.755-.73,4.662,4.662,0,0,1,3.25,1.171,4.185,4.185,0,0,1,1.38,3.04h-1.88a2.739,2.739,0,0,0-.854-1.853,2.657,2.657,0,0,0-1.9-.725A2.781,2.781,0,0,0,99.3-9.115a5.121,5.121,0,0,0-.833,3.153v.376a5.019,5.019,0,0,0,.827,3.094A2.8,2.8,0,0,0,101.653-1.407ZM115.683,0a4.175,4.175,0,0,1-.279-1.225A4.434,4.434,0,0,1,112.095.215a4.1,4.1,0,0,1-2.82-.972,3.145,3.145,0,0,1-1.1-2.465,3.286,3.286,0,0,1,1.38-2.82,6.508,6.508,0,0,1,3.883-1h1.934V-7.96a2.232,2.232,0,0,0-.623-1.66,2.5,2.5,0,0,0-1.837-.618,2.9,2.9,0,0,0-1.783.537,1.583,1.583,0,0,0-.72,1.3h-2a2.743,2.743,0,0,1,.618-1.681,4.216,4.216,0,0,1,1.676-1.284,5.638,5.638,0,0,1,2.326-.473,4.6,4.6,0,0,1,3.147,1,3.623,3.623,0,0,1,1.182,2.766v5.35a6.54,6.54,0,0,0,.408,2.546V0Zm-3.3-1.515A3.493,3.493,0,0,0,114.157-2a2.924,2.924,0,0,0,1.214-1.257V-5.64h-1.558q-3.652,0-3.652,2.138a1.809,1.809,0,0,0,.623,1.461A2.4,2.4,0,0,0,112.385-1.515ZM122.633,0h-1.987V-16.5h1.987Z" transform="translate(564 1316)" fill="#09347b"/>
    <path id="Trazado_10073" data-name="Trazado 10073" d="M1.021-5.908a6.809,6.809,0,0,1,1.268-4.3,4.008,4.008,0,0,1,3.319-1.627,4.031,4.031,0,0,1,3.233,1.4V-16.5h1.987V0H9l-.1-1.246A4.047,4.047,0,0,1,5.586.215,3.97,3.97,0,0,1,2.293-1.439,6.886,6.886,0,0,1,1.021-5.758Zm1.987.226a5.155,5.155,0,0,0,.816,3.094A2.639,2.639,0,0,0,6.08-1.472a2.9,2.9,0,0,0,2.761-1.7V-8.508A2.921,2.921,0,0,0,6.1-10.151,2.652,2.652,0,0,0,3.824-9.023,5.676,5.676,0,0,0,3.008-5.683ZM18.734.215a5.078,5.078,0,0,1-3.846-1.552,5.761,5.761,0,0,1-1.482-4.152v-.365a6.975,6.975,0,0,1,.661-3.088,5.154,5.154,0,0,1,1.848-2.127,4.645,4.645,0,0,1,2.573-.768,4.353,4.353,0,0,1,3.523,1.493,6.465,6.465,0,0,1,1.257,4.275v.827H15.394a4.132,4.132,0,0,0,1,2.777,3.157,3.157,0,0,0,2.444,1.058,3.461,3.461,0,0,0,1.783-.43A4.48,4.48,0,0,0,21.9-2.976l1.214.945A4.881,4.881,0,0,1,18.734.215Zm-.247-10.42a2.651,2.651,0,0,0-2.02.875,4.255,4.255,0,0,0-1.01,2.455H21.28v-.15a3.785,3.785,0,0,0-.816-2.347A2.5,2.5,0,0,0,18.487-10.205ZM32.334-3.083a1.463,1.463,0,0,0-.607-1.251A5.842,5.842,0,0,0,29.611-5.1a10.005,10.005,0,0,1-2.4-.773A3.408,3.408,0,0,1,25.9-6.95a2.57,2.57,0,0,1-.424-1.482,3.015,3.015,0,0,1,1.208-2.417,4.72,4.72,0,0,1,3.088-.988,4.857,4.857,0,0,1,3.207,1.021,3.241,3.241,0,0,1,1.23,2.61h-2a1.794,1.794,0,0,0-.693-1.407,2.6,2.6,0,0,0-1.746-.591,2.717,2.717,0,0,0-1.7.473A1.488,1.488,0,0,0,27.468-8.5a1.205,1.205,0,0,0,.569,1.085,7,7,0,0,0,2.057.7,10.719,10.719,0,0,1,2.412.795,3.518,3.518,0,0,1,1.37,1.112,2.734,2.734,0,0,1,.446,1.584,2.975,2.975,0,0,1-1.246,2.5,5.227,5.227,0,0,1-3.233.94,5.853,5.853,0,0,1-2.471-.494A4.018,4.018,0,0,1,25.69-1.66a3.327,3.327,0,0,1-.607-1.917H27.07a2.058,2.058,0,0,0,.8,1.584,3.1,3.1,0,0,0,1.971.585,3.2,3.2,0,0,0,1.81-.457A1.4,1.4,0,0,0,32.334-3.083ZM39.069,0H37.082V-11.623h1.987ZM36.921-14.706a1.186,1.186,0,0,1,.3-.816,1.109,1.109,0,0,1,.875-.333,1.126,1.126,0,0,1,.881.333,1.174,1.174,0,0,1,.3.816,1.135,1.135,0,0,1-.3.806,1.147,1.147,0,0,1-.881.322,1.129,1.129,0,0,1-.875-.322A1.147,1.147,0,0,1,36.921-14.706Zm7.208,3.083.064,1.461a4.236,4.236,0,0,1,3.48-1.676q3.685,0,3.717,4.157V0H49.4V-7.691a2.676,2.676,0,0,0-.575-1.858,2.3,2.3,0,0,0-1.756-.6,2.868,2.868,0,0,0-1.7.516,3.5,3.5,0,0,0-1.139,1.354V0H42.249V-11.623ZM59.211.215a5.078,5.078,0,0,1-3.846-1.552,5.761,5.761,0,0,1-1.482-4.152v-.365a6.975,6.975,0,0,1,.661-3.088,5.154,5.154,0,0,1,1.848-2.127,4.645,4.645,0,0,1,2.573-.768,4.353,4.353,0,0,1,3.523,1.493,6.465,6.465,0,0,1,1.257,4.275v.827H55.87a4.132,4.132,0,0,0,1,2.777,3.157,3.157,0,0,0,2.444,1.058,3.461,3.461,0,0,0,1.783-.43A4.48,4.48,0,0,0,62.38-2.976l1.214.945A4.881,4.881,0,0,1,59.211.215Zm-.247-10.42a2.651,2.651,0,0,0-2.02.875,4.255,4.255,0,0,0-1.01,2.455h5.822v-.15a3.785,3.785,0,0,0-.816-2.347A2.5,2.5,0,0,0,58.964-10.205Zm8.959-1.418.064,1.461a4.236,4.236,0,0,1,3.48-1.676q3.685,0,3.717,4.157V0H73.2V-7.691a2.676,2.676,0,0,0-.575-1.858,2.3,2.3,0,0,0-1.756-.6,2.868,2.868,0,0,0-1.7.516A3.5,3.5,0,0,0,68.03-8.282V0H66.043V-11.623ZM82.844-1.407A2.863,2.863,0,0,0,84.7-2.052a2.268,2.268,0,0,0,.881-1.611h1.88a3.6,3.6,0,0,1-.687,1.9A4.528,4.528,0,0,1,85.083-.322a4.882,4.882,0,0,1-2.24.537A4.788,4.788,0,0,1,79.068-1.37a6.311,6.311,0,0,1-1.4-4.334v-.333a7,7,0,0,1,.623-3.019,4.745,4.745,0,0,1,1.789-2.052,5.081,5.081,0,0,1,2.755-.73,4.662,4.662,0,0,1,3.25,1.171,4.185,4.185,0,0,1,1.38,3.04h-1.88a2.739,2.739,0,0,0-.854-1.853,2.657,2.657,0,0,0-1.9-.725,2.781,2.781,0,0,0-2.347,1.09,5.121,5.121,0,0,0-.833,3.153v.376a5.019,5.019,0,0,0,.827,3.094A2.8,2.8,0,0,0,82.844-1.407ZM91.856,0H89.869V-11.623h1.987ZM89.708-14.706a1.186,1.186,0,0,1,.3-.816,1.109,1.109,0,0,1,.875-.333,1.126,1.126,0,0,1,.881.333,1.174,1.174,0,0,1,.3.816,1.135,1.135,0,0,1-.3.806,1.147,1.147,0,0,1-.881.322A1.129,1.129,0,0,1,90-13.9,1.147,1.147,0,0,1,89.708-14.706ZM102.212,0a4.175,4.175,0,0,1-.279-1.225A4.434,4.434,0,0,1,98.624.215,4.1,4.1,0,0,1,95.8-.757a3.145,3.145,0,0,1-1.1-2.465,3.286,3.286,0,0,1,1.38-2.82,6.508,6.508,0,0,1,3.883-1H101.9V-7.96a2.232,2.232,0,0,0-.623-1.66,2.5,2.5,0,0,0-1.837-.618,2.9,2.9,0,0,0-1.783.537,1.583,1.583,0,0,0-.72,1.3h-2a2.743,2.743,0,0,1,.618-1.681,4.216,4.216,0,0,1,1.676-1.284,5.638,5.638,0,0,1,2.326-.473,4.6,4.6,0,0,1,3.147,1,3.623,3.623,0,0,1,1.182,2.766v5.35A6.54,6.54,0,0,0,104.3-.172V0Zm-3.3-1.515A3.493,3.493,0,0,0,100.687-2,2.924,2.924,0,0,0,101.9-3.255V-5.64h-1.558Q96.69-5.64,96.69-3.5a1.809,1.809,0,0,0,.623,1.461A2.4,2.4,0,0,0,98.914-1.515Z" transform="translate(789 1316)" fill="#09347b"/>
    <path id="Trazado_10070" data-name="Trazado 10070" d="M-5712,3843.531v33.781h181.66v-33.781" transform="translate(6245.34 -2600)" fill="none" stroke="#26c179" stroke-width="1"/>
    <path id="Trazado_10071" data-name="Trazado 10071" d="M-5712,3843.531v33.781h111v-33.781" transform="translate(6498 -2600)" fill="none" stroke="#26c179" stroke-width="1"/>
  </g>
</svg>
