<svg xmlns="http://www.w3.org/2000/svg" width="248" height="223" viewBox="0 0 248 223">
  <g id="Grupo_13662" data-name="Grupo 13662" transform="translate(-597 -2020)">
    <path id="Unión_6" data-name="Unión 6" d="M6235-2600h238a5,5,0,0,1,5,5v213a5,5,0,0,1-5,5H6235a5,5,0,0,1-5-5v-213A5,5,0,0,1,6235-2600Z" transform="translate(-5633 4620)" fill="#f0f0f0"/>
    <g id="Grupo_13638" data-name="Grupo 13638">
      <path id="Trazado_11237" data-name="Trazado 11237" d="M2.481,0V-10.087H.645v-1.536H2.481v-1.192a3.958,3.958,0,0,1,1-2.89,3.774,3.774,0,0,1,2.825-1.021,5.215,5.215,0,0,1,1.364.183l-.107,1.611a5.708,5.708,0,0,0-1.074-.1A1.942,1.942,0,0,0,5-14.464a2.283,2.283,0,0,0-.526,1.617v1.225H6.95v1.536H4.469V0ZM16.317,0a4.175,4.175,0,0,1-.279-1.225A4.434,4.434,0,0,1,12.729.215,4.1,4.1,0,0,1,9.91-.757a3.145,3.145,0,0,1-1.1-2.465,3.286,3.286,0,0,1,1.38-2.82,6.508,6.508,0,0,1,3.883-1h1.934V-7.96a2.232,2.232,0,0,0-.623-1.66,2.5,2.5,0,0,0-1.837-.618,2.9,2.9,0,0,0-1.783.537,1.583,1.583,0,0,0-.72,1.3h-2a2.743,2.743,0,0,1,.618-1.681,4.216,4.216,0,0,1,1.676-1.284,5.638,5.638,0,0,1,2.326-.473,4.6,4.6,0,0,1,3.147,1,3.623,3.623,0,0,1,1.182,2.766v5.35A6.54,6.54,0,0,0,18.4-.172V0Zm-3.3-1.515A3.493,3.493,0,0,0,14.792-2a2.924,2.924,0,0,0,1.214-1.257V-5.64H14.448Q10.8-5.64,10.8-3.5a1.809,1.809,0,0,0,.623,1.461A2.4,2.4,0,0,0,13.02-1.515ZM14.856-16.5h2.406l-2.879,3.158h-1.6ZM25.771-1.407a2.863,2.863,0,0,0,1.858-.645,2.268,2.268,0,0,0,.881-1.611h1.88a3.6,3.6,0,0,1-.687,1.9A4.528,4.528,0,0,1,28.01-.322a4.882,4.882,0,0,1-2.24.537A4.788,4.788,0,0,1,21.995-1.37a6.311,6.311,0,0,1-1.4-4.334v-.333a7,7,0,0,1,.623-3.019A4.745,4.745,0,0,1,23-11.107a5.081,5.081,0,0,1,2.755-.73,4.662,4.662,0,0,1,3.25,1.171,4.185,4.185,0,0,1,1.38,3.04H28.51a2.739,2.739,0,0,0-.854-1.853,2.657,2.657,0,0,0-1.9-.725,2.781,2.781,0,0,0-2.347,1.09,5.121,5.121,0,0,0-.833,3.153v.376a5.019,5.019,0,0,0,.827,3.094A2.8,2.8,0,0,0,25.771-1.407ZM34.783,0H32.8V-11.623h1.987ZM32.635-14.706a1.186,1.186,0,0,1,.3-.816,1.109,1.109,0,0,1,.875-.333,1.126,1.126,0,0,1,.881.333,1.174,1.174,0,0,1,.3.816,1.135,1.135,0,0,1-.3.806,1.147,1.147,0,0,1-.881.322,1.129,1.129,0,0,1-.875-.322A1.147,1.147,0,0,1,32.635-14.706ZM40.122,0H38.135V-16.5h1.987ZM59.755-6.993H48.991V-8.615H59.755Zm11.477-4.63.1,1.3a4.085,4.085,0,0,1,3.341-1.515,3.1,3.1,0,0,1,3.083,1.772,3.991,3.991,0,0,1,3.491-1.772,3.467,3.467,0,0,1,2.814,1.1,5.061,5.061,0,0,1,.924,3.314V0H81.866V-7.412a2.213,2.213,0,0,0-.387-1.445,1.714,1.714,0,0,0-1.364-.457,1.938,1.938,0,0,0-1.934,1.332L78.192,0h-3.1V-7.4a2.186,2.186,0,0,0-.4-1.461,1.731,1.731,0,0,0-1.354-.451,2.012,2.012,0,0,0-1.912,1.1V0h-3.1V-11.623ZM92.716.215a5.706,5.706,0,0,1-4.163-1.568,5.575,5.575,0,0,1-1.606-4.179v-.3a7.021,7.021,0,0,1,.677-3.131,4.967,4.967,0,0,1,1.917-2.127,5.382,5.382,0,0,1,2.831-.747,4.824,4.824,0,0,1,3.754,1.5A6.111,6.111,0,0,1,97.5-6.069V-4.8h-7.4A2.884,2.884,0,0,0,91-2.976a2.744,2.744,0,0,0,1.917.688,3.351,3.351,0,0,0,2.8-1.3L97.249-1.88A4.66,4.66,0,0,1,95.358-.338,6.2,6.2,0,0,1,92.716.215Zm-.354-9.539a1.944,1.944,0,0,0-1.5.623,3.219,3.219,0,0,0-.736,1.783h4.318v-.247a2.3,2.3,0,0,0-.559-1.6A2.006,2.006,0,0,0,92.361-9.324Zm9.754-2.3.1,1.343a4.058,4.058,0,0,1,3.341-1.558,3.372,3.372,0,0,1,2.75,1.085,5.062,5.062,0,0,1,.924,3.244V0h-3.1V-7.434a2.014,2.014,0,0,0-.43-1.434,1.924,1.924,0,0,0-1.429-.446A2.136,2.136,0,0,0,102.3-8.2V0h-3.1V-11.623ZM115.3-14.48v2.857h1.987v2.277H115.3v5.8a1.385,1.385,0,0,0,.247.924,1.241,1.241,0,0,0,.945.279,4.951,4.951,0,0,0,.913-.075V-.064a6.391,6.391,0,0,1-1.88.279q-3.266,0-3.33-3.3V-9.346h-1.7v-2.277h1.7V-14.48Zm9.066,14.7A5.706,5.706,0,0,1,120.2-1.354a5.575,5.575,0,0,1-1.606-4.179v-.3a7.021,7.021,0,0,1,.677-3.131,4.967,4.967,0,0,1,1.917-2.127,5.382,5.382,0,0,1,2.831-.747,4.824,4.824,0,0,1,3.754,1.5,6.111,6.111,0,0,1,1.37,4.265V-4.8h-7.4a2.884,2.884,0,0,0,.908,1.826,2.744,2.744,0,0,0,1.917.688,3.351,3.351,0,0,0,2.8-1.3L128.9-1.88A4.66,4.66,0,0,1,127-.338,6.2,6.2,0,0,1,124.362.215Zm-.354-9.539a1.944,1.944,0,0,0-1.5.623,3.219,3.219,0,0,0-.736,1.783h4.318v-.247a2.3,2.3,0,0,0-.559-1.6A2.006,2.006,0,0,0,124.008-9.324ZM6.327,35.215a5.078,5.078,0,0,1-3.846-1.552A5.761,5.761,0,0,1,1,29.511v-.365a6.975,6.975,0,0,1,.661-3.088A5.154,5.154,0,0,1,3.507,23.93a4.645,4.645,0,0,1,2.573-.768A4.353,4.353,0,0,1,9.6,24.655a6.465,6.465,0,0,1,1.257,4.275v.827H2.986a4.132,4.132,0,0,0,1,2.777,3.157,3.157,0,0,0,2.444,1.058,3.461,3.461,0,0,0,1.783-.43A4.48,4.48,0,0,0,9.5,32.024l1.214.945A4.881,4.881,0,0,1,6.327,35.215ZM6.08,24.795a2.651,2.651,0,0,0-2.02.875,4.255,4.255,0,0,0-1.01,2.455H8.873v-.15a3.785,3.785,0,0,0-.816-2.347A2.5,2.5,0,0,0,6.08,24.795Zm13.847,7.122a1.463,1.463,0,0,0-.607-1.251A5.842,5.842,0,0,0,17.2,29.9a10.005,10.005,0,0,1-2.4-.773A3.408,3.408,0,0,1,13.5,28.05a2.57,2.57,0,0,1-.424-1.482,3.015,3.015,0,0,1,1.208-2.417,4.72,4.72,0,0,1,3.088-.988,4.857,4.857,0,0,1,3.207,1.021,3.241,3.241,0,0,1,1.23,2.61h-2a1.794,1.794,0,0,0-.693-1.407,2.6,2.6,0,0,0-1.746-.591,2.717,2.717,0,0,0-1.7.473,1.488,1.488,0,0,0-.612,1.235,1.205,1.205,0,0,0,.569,1.085,7,7,0,0,0,2.057.7,10.719,10.719,0,0,1,2.412.795,3.518,3.518,0,0,1,1.37,1.112,2.734,2.734,0,0,1,.446,1.584,2.975,2.975,0,0,1-1.246,2.5,5.227,5.227,0,0,1-3.233.94,5.853,5.853,0,0,1-2.471-.494,4.018,4.018,0,0,1-1.681-1.38,3.327,3.327,0,0,1-.607-1.917h1.987a2.058,2.058,0,0,0,.8,1.584,3.1,3.1,0,0,0,1.971.585,3.2,3.2,0,0,0,1.81-.457A1.4,1.4,0,0,0,19.927,31.917Zm14.395-2.6a6.96,6.96,0,0,1-1.214,4.275,3.89,3.89,0,0,1-3.287,1.622,4.263,4.263,0,0,1-3.33-1.343v5.6H24.5V23.377h1.815l.1,1.289a4.094,4.094,0,0,1,3.373-1.5A3.963,3.963,0,0,1,33.1,24.741a7.036,7.036,0,0,1,1.219,4.394Zm-1.987-.226a5.135,5.135,0,0,0-.838-3.1,2.7,2.7,0,0,0-2.3-1.139,2.921,2.921,0,0,0-2.707,1.6V32a2.927,2.927,0,0,0,2.729,1.59,2.686,2.686,0,0,0,2.272-1.133A5.606,5.606,0,0,0,32.334,29.092Zm9.335,6.123a5.078,5.078,0,0,1-3.846-1.552,5.761,5.761,0,0,1-1.482-4.152v-.365A6.975,6.975,0,0,1,37,26.057a5.154,5.154,0,0,1,1.848-2.127,4.645,4.645,0,0,1,2.573-.768,4.353,4.353,0,0,1,3.523,1.493A6.465,6.465,0,0,1,46.2,28.931v.827H38.328a4.132,4.132,0,0,0,1,2.777,3.157,3.157,0,0,0,2.444,1.058,3.461,3.461,0,0,0,1.783-.43,4.48,4.48,0,0,0,1.278-1.139l1.214.945A4.881,4.881,0,0,1,41.669,35.215Zm-.247-10.42a2.651,2.651,0,0,0-2.02.875,4.255,4.255,0,0,0-1.01,2.455h5.822v-.15a3.785,3.785,0,0,0-.816-2.347A2.5,2.5,0,0,0,41.422,24.795Zm11.741,8.8a2.863,2.863,0,0,0,1.858-.645,2.268,2.268,0,0,0,.881-1.611h1.88a3.6,3.6,0,0,1-.687,1.9A4.528,4.528,0,0,1,55.4,34.678a4.882,4.882,0,0,1-2.24.537,4.788,4.788,0,0,1-3.776-1.584,6.311,6.311,0,0,1-1.4-4.334v-.333a7,7,0,0,1,.623-3.019A4.745,4.745,0,0,1,50.4,23.893a5.081,5.081,0,0,1,2.755-.73,4.662,4.662,0,0,1,3.25,1.171,4.185,4.185,0,0,1,1.38,3.04H55.9a2.739,2.739,0,0,0-.854-1.853,2.657,2.657,0,0,0-1.9-.725,2.781,2.781,0,0,0-2.347,1.09,5.121,5.121,0,0,0-.833,3.153v.376a5.019,5.019,0,0,0,.827,3.094A2.8,2.8,0,0,0,53.163,33.593ZM62.176,35H60.188V23.377h1.987ZM60.027,20.294a1.186,1.186,0,0,1,.3-.816,1.109,1.109,0,0,1,.875-.333,1.126,1.126,0,0,1,.881.333,1.174,1.174,0,0,1,.3.816,1.135,1.135,0,0,1-.3.806,1.147,1.147,0,0,1-.881.322,1.129,1.129,0,0,1-.875-.322A1.147,1.147,0,0,1,60.027,20.294ZM72.531,35a4.175,4.175,0,0,1-.279-1.225,4.434,4.434,0,0,1-3.309,1.439,4.1,4.1,0,0,1-2.82-.972,3.145,3.145,0,0,1-1.1-2.465,3.286,3.286,0,0,1,1.38-2.82,6.508,6.508,0,0,1,3.883-1H72.22V27.04a2.232,2.232,0,0,0-.623-1.66,2.5,2.5,0,0,0-1.837-.618,2.9,2.9,0,0,0-1.783.537,1.583,1.583,0,0,0-.72,1.3h-2a2.743,2.743,0,0,1,.618-1.681,4.216,4.216,0,0,1,1.676-1.284,5.638,5.638,0,0,1,2.326-.473,4.6,4.6,0,0,1,3.147,1,3.623,3.623,0,0,1,1.182,2.766v5.35a6.54,6.54,0,0,0,.408,2.546V35Zm-3.3-1.515A3.493,3.493,0,0,0,71.006,33a2.924,2.924,0,0,0,1.214-1.257V29.36H70.662q-3.652,0-3.652,2.138a1.809,1.809,0,0,0,.623,1.461A2.4,2.4,0,0,0,69.233,33.485ZM79.481,35H77.494V18.5h1.987Zm19.633-6.993H88.35V26.385H99.114Zm11.477-4.63.1,1.3a4.085,4.085,0,0,1,3.341-1.515,3.1,3.1,0,0,1,3.083,1.772,3.991,3.991,0,0,1,3.491-1.772,3.467,3.467,0,0,1,2.814,1.1,5.061,5.061,0,0,1,.924,3.314V35h-3.115V27.588a2.213,2.213,0,0,0-.387-1.445,1.714,1.714,0,0,0-1.364-.457,1.938,1.938,0,0,0-1.934,1.332L117.552,35h-3.1V27.6a2.186,2.186,0,0,0-.4-1.461,1.731,1.731,0,0,0-1.354-.451,2.012,2.012,0,0,0-1.912,1.1V35h-3.1V23.377Zm21.484,11.838a5.706,5.706,0,0,1-4.163-1.568,5.575,5.575,0,0,1-1.606-4.179v-.3a7.021,7.021,0,0,1,.677-3.131,4.967,4.967,0,0,1,1.917-2.127,5.382,5.382,0,0,1,2.831-.747,4.824,4.824,0,0,1,3.754,1.5,6.111,6.111,0,0,1,1.37,4.265V30.2h-7.4a2.884,2.884,0,0,0,.908,1.826,2.744,2.744,0,0,0,1.917.688,3.351,3.351,0,0,0,2.8-1.3l1.525,1.708a4.66,4.66,0,0,1-1.891,1.542A6.2,6.2,0,0,1,132.075,35.215Zm-.354-9.539a1.944,1.944,0,0,0-1.5.623,3.219,3.219,0,0,0-.736,1.783H133.8v-.247a2.3,2.3,0,0,0-.559-1.6A2.006,2.006,0,0,0,131.721,25.676Zm9.754-2.3.1,1.343a4.058,4.058,0,0,1,3.341-1.558,3.372,3.372,0,0,1,2.75,1.085,5.062,5.062,0,0,1,.924,3.244V35h-3.1V27.566a2.014,2.014,0,0,0-.43-1.434,1.924,1.924,0,0,0-1.429-.446,2.136,2.136,0,0,0-1.966,1.117V35h-3.1V23.377Zm13.181-2.857v2.857h1.987v2.277h-1.987v5.8a1.385,1.385,0,0,0,.247.924,1.241,1.241,0,0,0,.945.279,4.951,4.951,0,0,0,.913-.075v2.353a6.391,6.391,0,0,1-1.88.279q-3.266,0-3.33-3.3V25.654h-1.7V23.377h1.7V20.52Zm9.066,14.7a5.706,5.706,0,0,1-4.163-1.568,5.575,5.575,0,0,1-1.606-4.179v-.3a7.021,7.021,0,0,1,.677-3.131,4.967,4.967,0,0,1,1.917-2.127,5.382,5.382,0,0,1,2.831-.747,4.824,4.824,0,0,1,3.754,1.5,6.111,6.111,0,0,1,1.37,4.265V30.2h-7.4a2.884,2.884,0,0,0,.908,1.826,2.744,2.744,0,0,0,1.917.688,3.351,3.351,0,0,0,2.8-1.3l1.525,1.708a4.66,4.66,0,0,1-1.891,1.542A6.2,6.2,0,0,1,163.722,35.215Zm-.354-9.539a1.944,1.944,0,0,0-1.5.623,3.219,3.219,0,0,0-.736,1.783h4.318v-.247a2.3,2.3,0,0,0-.559-1.6A2.006,2.006,0,0,0,163.367,25.676ZM7.122,60.16a5.955,5.955,0,0,0-.978-.075A2.619,2.619,0,0,0,3.491,61.75V70H1.5V58.377H3.438L3.47,59.72a3.094,3.094,0,0,1,2.771-1.558,2.03,2.03,0,0,1,.881.15ZM15.694,70a4.175,4.175,0,0,1-.279-1.225,4.434,4.434,0,0,1-3.309,1.439,4.1,4.1,0,0,1-2.82-.972,3.145,3.145,0,0,1-1.1-2.465,3.286,3.286,0,0,1,1.38-2.82,6.508,6.508,0,0,1,3.883-1h1.934V62.04a2.232,2.232,0,0,0-.623-1.66,2.5,2.5,0,0,0-1.837-.618,2.9,2.9,0,0,0-1.783.537,1.583,1.583,0,0,0-.72,1.3h-2a2.743,2.743,0,0,1,.618-1.681,4.216,4.216,0,0,1,1.676-1.284,5.638,5.638,0,0,1,2.326-.473,4.6,4.6,0,0,1,3.147,1,3.623,3.623,0,0,1,1.182,2.766v5.35a6.54,6.54,0,0,0,.408,2.546V70Zm-3.3-1.515A3.493,3.493,0,0,0,14.169,68a2.924,2.924,0,0,0,1.214-1.257V64.36H13.825q-3.652,0-3.652,2.138a1.809,1.809,0,0,0,.623,1.461A2.4,2.4,0,0,0,12.4,68.485ZM14.233,53.5H16.64l-2.879,3.158h-1.6ZM30.3,64.317a6.96,6.96,0,0,1-1.214,4.275A3.89,3.89,0,0,1,25.8,70.215a4.263,4.263,0,0,1-3.33-1.343v5.6H20.485V58.377H22.3l.1,1.289a4.094,4.094,0,0,1,3.373-1.5,3.963,3.963,0,0,1,3.314,1.579A7.036,7.036,0,0,1,30.3,64.135Zm-1.987-.226a5.135,5.135,0,0,0-.838-3.1,2.7,2.7,0,0,0-2.3-1.139,2.921,2.921,0,0,0-2.707,1.6V67a2.927,2.927,0,0,0,2.729,1.59,2.686,2.686,0,0,0,2.272-1.133A5.606,5.606,0,0,0,28.316,64.092ZM34.987,70H33V58.377h1.987ZM32.839,55.294a1.186,1.186,0,0,1,.3-.816,1.109,1.109,0,0,1,.875-.333,1.126,1.126,0,0,1,.881.333,1.174,1.174,0,0,1,.3.816,1.135,1.135,0,0,1-.3.806,1.147,1.147,0,0,1-.881.322,1.129,1.129,0,0,1-.875-.322A1.147,1.147,0,0,1,32.839,55.294Zm4.845,8.8a6.809,6.809,0,0,1,1.268-4.3,4.313,4.313,0,0,1,6.553-.231V53.5h1.987V70H45.665l-.1-1.246a4.047,4.047,0,0,1-3.319,1.461,3.97,3.97,0,0,1-3.292-1.654,6.886,6.886,0,0,1-1.273-4.318Zm1.987.226a5.155,5.155,0,0,0,.816,3.094,2.639,2.639,0,0,0,2.256,1.117,2.9,2.9,0,0,0,2.761-1.7V61.492a2.921,2.921,0,0,0-2.739-1.644,2.652,2.652,0,0,0-2.277,1.128A5.676,5.676,0,0,0,39.671,64.317ZM57.75,70a4.175,4.175,0,0,1-.279-1.225,4.434,4.434,0,0,1-3.309,1.439,4.1,4.1,0,0,1-2.82-.972,3.145,3.145,0,0,1-1.1-2.465,3.286,3.286,0,0,1,1.38-2.82,6.508,6.508,0,0,1,3.883-1h1.934V62.04a2.232,2.232,0,0,0-.623-1.66,2.5,2.5,0,0,0-1.837-.618A2.9,2.9,0,0,0,53.2,60.3a1.583,1.583,0,0,0-.72,1.3h-2a2.743,2.743,0,0,1,.618-1.681,4.216,4.216,0,0,1,1.676-1.284,5.638,5.638,0,0,1,2.326-.473,4.6,4.6,0,0,1,3.147,1,3.623,3.623,0,0,1,1.182,2.766v5.35a6.54,6.54,0,0,0,.408,2.546V70Zm-3.3-1.515A3.493,3.493,0,0,0,56.225,68a2.924,2.924,0,0,0,1.214-1.257V64.36H55.881q-3.652,0-3.652,2.138a1.809,1.809,0,0,0,.623,1.461A2.4,2.4,0,0,0,54.452,68.485Zm24.542-5.479H68.23V61.385H78.994Zm11.477-4.63.1,1.3a4.085,4.085,0,0,1,3.341-1.515,3.1,3.1,0,0,1,3.083,1.772,3.991,3.991,0,0,1,3.491-1.772,3.467,3.467,0,0,1,2.814,1.1,5.061,5.061,0,0,1,.924,3.314V70h-3.115V62.588a2.213,2.213,0,0,0-.387-1.445,1.714,1.714,0,0,0-1.364-.457,1.938,1.938,0,0,0-1.934,1.332L97.432,70h-3.1V62.6a2.186,2.186,0,0,0-.4-1.461,1.731,1.731,0,0,0-1.354-.451,2.012,2.012,0,0,0-1.912,1.1V70h-3.1V58.377Zm21.484,11.838a5.706,5.706,0,0,1-4.163-1.568,5.575,5.575,0,0,1-1.606-4.179v-.3a7.021,7.021,0,0,1,.677-3.131,4.967,4.967,0,0,1,1.917-2.127,5.382,5.382,0,0,1,2.831-.747,4.824,4.824,0,0,1,3.754,1.5,6.111,6.111,0,0,1,1.37,4.265V65.2h-7.4a2.884,2.884,0,0,0,.908,1.826,2.744,2.744,0,0,0,1.917.688,3.351,3.351,0,0,0,2.8-1.3l1.525,1.708a4.66,4.66,0,0,1-1.891,1.542A6.2,6.2,0,0,1,111.955,70.215Zm-.354-9.539a1.944,1.944,0,0,0-1.5.623,3.219,3.219,0,0,0-.736,1.783h4.318v-.247a2.3,2.3,0,0,0-.559-1.6A2.006,2.006,0,0,0,111.6,60.676Zm9.754-2.3.1,1.343a4.058,4.058,0,0,1,3.341-1.558,3.372,3.372,0,0,1,2.75,1.085,5.062,5.062,0,0,1,.924,3.244V70h-3.1V62.566a2.014,2.014,0,0,0-.43-1.434,1.924,1.924,0,0,0-1.429-.446,2.136,2.136,0,0,0-1.966,1.117V70h-3.1V58.377Zm13.181-2.857v2.857h1.987v2.277h-1.987v5.8a1.385,1.385,0,0,0,.247.924,1.241,1.241,0,0,0,.945.279,4.951,4.951,0,0,0,.913-.075v2.353a6.391,6.391,0,0,1-1.88.279q-3.266,0-3.33-3.3V60.654h-1.7V58.377h1.7V55.52Zm9.066,14.7a5.706,5.706,0,0,1-4.163-1.568,5.575,5.575,0,0,1-1.606-4.179v-.3a7.021,7.021,0,0,1,.677-3.131,4.967,4.967,0,0,1,1.917-2.127,5.382,5.382,0,0,1,2.831-.747,4.824,4.824,0,0,1,3.754,1.5,6.111,6.111,0,0,1,1.37,4.265V65.2h-7.4a2.884,2.884,0,0,0,.908,1.826,2.744,2.744,0,0,0,1.917.688,3.351,3.351,0,0,0,2.8-1.3l1.525,1.708a4.66,4.66,0,0,1-1.891,1.542A6.2,6.2,0,0,1,143.6,70.215Zm-.354-9.539a1.944,1.944,0,0,0-1.5.623,3.219,3.219,0,0,0-.736,1.783h4.318v-.247a2.3,2.3,0,0,0-.559-1.6A2.006,2.006,0,0,0,143.247,60.676Z" transform="translate(634 2101)" fill="#09347b"/>
    </g>
  </g>
</svg>
