<svg xmlns="http://www.w3.org/2000/svg" width="416.145" height="442.608" viewBox="0 0 416.145 442.608">
  <g id="Grupo_11772" data-name="Grupo 11772" transform="translate(-803 -101.218)">
    <g id="Grupo_11739" data-name="Grupo 11739" transform="translate(25)">
      <path id="Trazado_3184" data-name="Trazado 3184" d="M-9671.922,2850.831h162.066" transform="translate(10702 -2606)" fill="none" stroke="#fff" stroke-linecap="round" stroke-width="4"/>
      <g id="Grupo_11736" data-name="Grupo 11736" transform="translate(698.8 -29.724)">
        <g id="Grupo_11441" data-name="Grupo 11441" transform="translate(386.509 271.314)">
          <g id="Grupo_11438" data-name="Grupo 11438" transform="translate(0.315 0.23)">
            <path id="Trazado_3096" data-name="Trazado 3096" d="M333.713,241.2l-19.723,10.65a12.168,12.168,0,0,0-3.539,2.5,3.671,3.671,0,0,0,3.022,6.354,12.158,12.158,0,0,0,4.688-1.373l24.324-10.877a17.044,17.044,0,0,0,5.654-3.482c1.528-1.622,2.368-4.1,1.443-6.132a4.649,4.649,0,0,0-5.547-2.571c-2.282.592-8.234,3.774-10.321,4.932" transform="translate(-309.277 -236.101)" fill="#fafafa"/>
          </g>
          <g id="Grupo_11440" data-name="Grupo 11440">
            <g id="Grupo_11439" data-name="Grupo 11439">
              <path id="Trazado_3097" data-name="Trazado 3097" d="M333.792,241.261a5.253,5.253,0,0,1,.849-.546c.57-.334,1.417-.816,2.522-1.411s2.463-1.309,4.081-2.068a21.43,21.43,0,0,1,2.671-1.08,5.169,5.169,0,0,1,3.286.084,4.872,4.872,0,0,1,2.658,2.46,5.157,5.157,0,0,1,.147,3.923,7.617,7.617,0,0,1-2.425,3.419,17.149,17.149,0,0,1-3.773,2.258l-17.588,7.9-9.135,4.058a8.011,8.011,0,0,1-4.824.694,4.687,4.687,0,0,1-2.166-1.143,3.374,3.374,0,0,1-1.046-2.189,5.041,5.041,0,0,1,1.876-4.045,18.327,18.327,0,0,1,3.514-2.2l6.471-3.444,9.393-4.946,2.57-1.314a5.508,5.508,0,0,1,.919-.416,5.46,5.46,0,0,1-.852.54l-2.508,1.428-9.287,5.141-6.43,3.519a17.917,17.917,0,0,0-3.381,2.146,4.431,4.431,0,0,0-1.645,3.534,3.244,3.244,0,0,0,2.725,2.737,7.385,7.385,0,0,0,4.415-.678l9.107-4.062,17.6-7.848a16.594,16.594,0,0,0,3.653-2.147,7.027,7.027,0,0,0,2.269-3.134,4.613,4.613,0,0,0-.084-3.5,4.367,4.367,0,0,0-2.351-2.232c-2.058-.834-4.027.23-5.621.89-1.621.721-2.995,1.4-4.117,1.955l-2.579,1.293A5.651,5.651,0,0,1,333.792,241.261Z" transform="translate(-309.041 -235.929)" fill="#263238"/>
            </g>
          </g>
        </g>
        <g id="Grupo_11608" data-name="Grupo 11608" transform="translate(141.077 130.943)">
          <g id="Grupo_11474" data-name="Grupo 11474" transform="translate(23.206 15.814)">
            <g id="Grupo_11473" data-name="Grupo 11473">
              <g id="Grupo_11472" data-name="Grupo 11472">
                <g id="Grupo_11456" data-name="Grupo 11456">
                  <g id="Grupo_11455" data-name="Grupo 11455">
                    <g id="Grupo_11454" data-name="Grupo 11454">
                      <g id="Grupo_11453" data-name="Grupo 11453">
                        <g id="Grupo_11452" data-name="Grupo 11452">
                          <g id="Grupo_11451" data-name="Grupo 11451">
                            <g id="Grupo_11450" data-name="Grupo 11450">
                              <g id="Grupo_11449" data-name="Grupo 11449">
                                <g id="Grupo_11448" data-name="Grupo 11448">
                                  <g id="Grupo_11447" data-name="Grupo 11447">
                                    <g id="Grupo_11446" data-name="Grupo 11446">
                                      <g id="Grupo_11445" data-name="Grupo 11445">
                                        <g id="Grupo_11444" data-name="Grupo 11444">
                                          <g id="Grupo_11443" data-name="Grupo 11443">
                                            <g id="Grupo_11442" data-name="Grupo 11442">
                                              <path id="Trazado_3098" data-name="Trazado 3098" d="M144.141,192.977l-1.3,104.4c-.221,17.753,3.083,43.877,31.168,42.946h0c24.306-2.646,30.753-25.655,30.942-42.223.09-7.858.18-14.412.243-15.218,0,0,26.607-2.17,28.853-28.451,1.084-12.7,1.19-39.039,1.009-62.869a49.128,49.128,0,0,0-45.565-48.6l-2.538-.186C159.473,142.376,143.78,165.493,144.141,192.977Z" transform="translate(-142.835 -142.77)" fill="#fdeb9e"/>
                                            </g>
                                          </g>
                                        </g>
                                      </g>
                                    </g>
                                  </g>
                                </g>
                              </g>
                            </g>
                          </g>
                        </g>
                      </g>
                    </g>
                  </g>
                </g>
                <g id="Grupo_11471" data-name="Grupo 11471" transform="translate(28.854 127.482)">
                  <g id="Grupo_11470" data-name="Grupo 11470">
                    <g id="Grupo_11469" data-name="Grupo 11469">
                      <g id="Grupo_11468" data-name="Grupo 11468">
                        <g id="Grupo_11467" data-name="Grupo 11467">
                          <g id="Grupo_11466" data-name="Grupo 11466">
                            <g id="Grupo_11465" data-name="Grupo 11465">
                              <g id="Grupo_11464" data-name="Grupo 11464">
                                <g id="Grupo_11463" data-name="Grupo 11463">
                                  <g id="Grupo_11462" data-name="Grupo 11462">
                                    <g id="Grupo_11461" data-name="Grupo 11461">
                                      <g id="Grupo_11460" data-name="Grupo 11460">
                                        <g id="Grupo_11459" data-name="Grupo 11459">
                                          <g id="Grupo_11458" data-name="Grupo 11458">
                                            <g id="Grupo_11457" data-name="Grupo 11457">
                                              <path id="Trazado_3099" data-name="Trazado 3099" d="M197.924,250.743s-16.652-.239-33.509-12.627c0,0,6.951,19.823,33.371,19.371Z" transform="translate(-164.415 -238.116)" fill="#664d49"/>
                                            </g>
                                          </g>
                                        </g>
                                      </g>
                                    </g>
                                  </g>
                                </g>
                              </g>
                            </g>
                          </g>
                        </g>
                      </g>
                    </g>
                  </g>
                </g>
              </g>
            </g>
          </g>
          <g id="Grupo_11558" data-name="Grupo 11558" transform="translate(52.237 55.514)">
            <g id="Grupo_11557" data-name="Grupo 11557">
              <g id="Grupo_11526" data-name="Grupo 11526" transform="translate(2.101 15.208)">
                <g id="Grupo_11525" data-name="Grupo 11525">
                  <g id="Grupo_11524" data-name="Grupo 11524">
                    <g id="Grupo_11491" data-name="Grupo 11491">
                      <g id="Grupo_11490" data-name="Grupo 11490">
                        <g id="Grupo_11489" data-name="Grupo 11489">
                          <g id="Grupo_11488" data-name="Grupo 11488">
                            <g id="Grupo_11487" data-name="Grupo 11487">
                              <g id="Grupo_11486" data-name="Grupo 11486">
                                <g id="Grupo_11485" data-name="Grupo 11485">
                                  <g id="Grupo_11484" data-name="Grupo 11484">
                                    <g id="Grupo_11483" data-name="Grupo 11483">
                                      <g id="Grupo_11482" data-name="Grupo 11482">
                                        <g id="Grupo_11481" data-name="Grupo 11481">
                                          <g id="Grupo_11480" data-name="Grupo 11480">
                                            <g id="Grupo_11479" data-name="Grupo 11479">
                                              <g id="Grupo_11478" data-name="Grupo 11478">
                                                <g id="Grupo_11477" data-name="Grupo 11477">
                                                  <g id="Grupo_11476" data-name="Grupo 11476">
                                                    <g id="Grupo_11475" data-name="Grupo 11475">
                                                      <path id="Trazado_3100" data-name="Trazado 3100" d="M182.282,188.487c-.523.531-3.557-1.912-7.961-2.03-4.4-.183-7.691,2.042-8.152,1.475-.229-.251.316-1.223,1.75-2.232a11.027,11.027,0,0,1,6.546-1.857,10.63,10.63,0,0,1,6.316,2.3C182.107,187.246,182.539,188.249,182.282,188.487Z" transform="translate(-166.119 -183.837)" fill="#263238"/>
                                                    </g>
                                                  </g>
                                                </g>
                                              </g>
                                            </g>
                                          </g>
                                        </g>
                                      </g>
                                    </g>
                                  </g>
                                </g>
                              </g>
                            </g>
                          </g>
                        </g>
                      </g>
                    </g>
                    <g id="Grupo_11507" data-name="Grupo 11507" transform="translate(8.913 10.282)">
                      <g id="Grupo_11506" data-name="Grupo 11506">
                        <g id="Grupo_11505" data-name="Grupo 11505">
                          <g id="Grupo_11504" data-name="Grupo 11504">
                            <g id="Grupo_11503" data-name="Grupo 11503">
                              <g id="Grupo_11502" data-name="Grupo 11502">
                                <g id="Grupo_11501" data-name="Grupo 11501">
                                  <g id="Grupo_11500" data-name="Grupo 11500">
                                    <g id="Grupo_11499" data-name="Grupo 11499">
                                      <g id="Grupo_11498" data-name="Grupo 11498">
                                        <g id="Grupo_11497" data-name="Grupo 11497">
                                          <g id="Grupo_11496" data-name="Grupo 11496">
                                            <g id="Grupo_11495" data-name="Grupo 11495">
                                              <g id="Grupo_11494" data-name="Grupo 11494">
                                                <g id="Grupo_11493" data-name="Grupo 11493">
                                                  <g id="Grupo_11492" data-name="Grupo 11492">
                                                    <path id="Trazado_3101" data-name="Trazado 3101" d="M179.9,195a3.563,3.563,0,0,1-3.688,3.335,3.407,3.407,0,0,1-3.428-3.471,3.564,3.564,0,0,1,3.685-3.337A3.409,3.409,0,0,1,179.9,195Z" transform="translate(-172.785 -191.527)" fill="#263238"/>
                                                  </g>
                                                </g>
                                              </g>
                                            </g>
                                          </g>
                                        </g>
                                      </g>
                                    </g>
                                  </g>
                                </g>
                              </g>
                            </g>
                          </g>
                        </g>
                      </g>
                    </g>
                    <g id="Grupo_11523" data-name="Grupo 11523" transform="translate(27.192 1.462)">
                      <g id="Grupo_11522" data-name="Grupo 11522">
                        <g id="Grupo_11521" data-name="Grupo 11521">
                          <g id="Grupo_11520" data-name="Grupo 11520">
                            <g id="Grupo_11519" data-name="Grupo 11519">
                              <g id="Grupo_11518" data-name="Grupo 11518">
                                <g id="Grupo_11517" data-name="Grupo 11517">
                                  <g id="Grupo_11516" data-name="Grupo 11516">
                                    <g id="Grupo_11515" data-name="Grupo 11515">
                                      <g id="Grupo_11514" data-name="Grupo 11514">
                                        <g id="Grupo_11513" data-name="Grupo 11513">
                                          <g id="Grupo_11512" data-name="Grupo 11512">
                                            <g id="Grupo_11511" data-name="Grupo 11511">
                                              <g id="Grupo_11510" data-name="Grupo 11510">
                                                <g id="Grupo_11509" data-name="Grupo 11509">
                                                  <g id="Grupo_11508" data-name="Grupo 11508">
                                                    <path id="Trazado_3102" data-name="Trazado 3102" d="M186.457,218.746c0-.231,2.542-.483,6.652-.7,1.04-.032,2.032-.166,2.257-.857.3-.727-.053-1.872-.465-3.11q-1.183-3.853-2.479-8.082c-3.423-11.5-5.819-20.925-5.355-21.06s3.615,9.08,7.037,20.58q1.229,4.25,2.348,8.12c.3,1.2.878,2.582.239,4.09a2.6,2.6,0,0,1-1.808,1.385,7.022,7.022,0,0,1-1.772.116C189,219.145,186.456,218.978,186.457,218.746Z" transform="translate(-186.457 -184.931)" fill="#263238"/>
                                                  </g>
                                                </g>
                                              </g>
                                            </g>
                                          </g>
                                        </g>
                                      </g>
                                    </g>
                                  </g>
                                </g>
                              </g>
                            </g>
                          </g>
                        </g>
                      </g>
                    </g>
                  </g>
                </g>
              </g>
              <g id="Grupo_11541" data-name="Grupo 11541">
                <g id="Grupo_11540" data-name="Grupo 11540">
                  <g id="Grupo_11539" data-name="Grupo 11539">
                    <g id="Grupo_11538" data-name="Grupo 11538">
                      <g id="Grupo_11537" data-name="Grupo 11537">
                        <g id="Grupo_11536" data-name="Grupo 11536">
                          <g id="Grupo_11535" data-name="Grupo 11535">
                            <g id="Grupo_11534" data-name="Grupo 11534">
                              <g id="Grupo_11533" data-name="Grupo 11533">
                                <g id="Grupo_11532" data-name="Grupo 11532">
                                  <g id="Grupo_11531" data-name="Grupo 11531">
                                    <g id="Grupo_11530" data-name="Grupo 11530">
                                      <g id="Grupo_11529" data-name="Grupo 11529">
                                        <g id="Grupo_11528" data-name="Grupo 11528">
                                          <g id="Grupo_11527" data-name="Grupo 11527">
                                            <path id="Trazado_3103" data-name="Trazado 3103" d="M180.939,175.766c-.425.977-3.951.242-8.171.459-4.225.127-7.691,1.147-8.18.209-.217-.449.441-1.349,1.875-2.22a13.817,13.817,0,0,1,12.457-.508C180.409,174.458,181.125,175.3,180.939,175.766Z" transform="translate(-164.548 -172.463)" fill="#263238"/>
                                          </g>
                                        </g>
                                      </g>
                                    </g>
                                  </g>
                                </g>
                              </g>
                            </g>
                          </g>
                        </g>
                      </g>
                    </g>
                  </g>
                </g>
              </g>
              <g id="Grupo_11556" data-name="Grupo 11556" transform="translate(42.055 8.046)">
                <g id="Grupo_11555" data-name="Grupo 11555">
                  <g id="Grupo_11554" data-name="Grupo 11554">
                    <g id="Grupo_11553" data-name="Grupo 11553">
                      <g id="Grupo_11552" data-name="Grupo 11552">
                        <g id="Grupo_11551" data-name="Grupo 11551">
                          <g id="Grupo_11550" data-name="Grupo 11550">
                            <g id="Grupo_11549" data-name="Grupo 11549">
                              <g id="Grupo_11548" data-name="Grupo 11548">
                                <g id="Grupo_11547" data-name="Grupo 11547">
                                  <g id="Grupo_11546" data-name="Grupo 11546">
                                    <g id="Grupo_11545" data-name="Grupo 11545">
                                      <g id="Grupo_11544" data-name="Grupo 11544">
                                        <g id="Grupo_11543" data-name="Grupo 11543">
                                          <g id="Grupo_11542" data-name="Grupo 11542">
                                            <path id="Trazado_3104" data-name="Trazado 3104" d="M212.154,181.9c-.461.8-3.9-.088-8.061-.217-4.164-.2-7.62.405-8.06-.428-.193-.4.495-1.11,1.945-1.742a14.541,14.541,0,0,1,6.158-1.018A15.012,15.012,0,0,1,210.261,180C211.693,180.749,212.358,181.516,212.154,181.9Z" transform="translate(-196.001 -178.481)" fill="#263238"/>
                                          </g>
                                        </g>
                                      </g>
                                    </g>
                                  </g>
                                </g>
                              </g>
                            </g>
                          </g>
                        </g>
                      </g>
                    </g>
                  </g>
                </g>
              </g>
            </g>
          </g>
          <g id="Grupo_11571" data-name="Grupo 11571" transform="translate(6.795 84.354)">
            <g id="Grupo_11570" data-name="Grupo 11570">
              <g id="Grupo_11569" data-name="Grupo 11569">
                <g id="Grupo_11568" data-name="Grupo 11568">
                  <g id="Grupo_11567" data-name="Grupo 11567">
                    <g id="Grupo_11566" data-name="Grupo 11566">
                      <g id="Grupo_11565" data-name="Grupo 11565">
                        <g id="Grupo_11564" data-name="Grupo 11564">
                          <g id="Grupo_11563" data-name="Grupo 11563">
                            <g id="Grupo_11562" data-name="Grupo 11562">
                              <g id="Grupo_11561" data-name="Grupo 11561">
                                <g id="Grupo_11560" data-name="Grupo 11560">
                                  <g id="Grupo_11559" data-name="Grupo 11559">
                                    <path id="Trazado_3105" data-name="Trazado 3105" d="M149,195.333c-.435-.226-17.684-6.665-18.422,11.36s17.51,15.048,17.562,14.534S149,195.333,149,195.333Z" transform="translate(-130.561 -194.033)" fill="#fdeb9e"/>
                                  </g>
                                </g>
                              </g>
                            </g>
                          </g>
                        </g>
                      </g>
                    </g>
                  </g>
                </g>
              </g>
            </g>
          </g>
          <g id="Grupo_11585" data-name="Grupo 11585" transform="translate(11.373 90.091)">
            <g id="Grupo_11584" data-name="Grupo 11584">
              <g id="Grupo_11583" data-name="Grupo 11583">
                <g id="Grupo_11582" data-name="Grupo 11582">
                  <g id="Grupo_11581" data-name="Grupo 11581">
                    <g id="Grupo_11580" data-name="Grupo 11580">
                      <g id="Grupo_11579" data-name="Grupo 11579">
                        <g id="Grupo_11578" data-name="Grupo 11578">
                          <g id="Grupo_11577" data-name="Grupo 11577">
                            <g id="Grupo_11576" data-name="Grupo 11576">
                              <g id="Grupo_11575" data-name="Grupo 11575">
                                <g id="Grupo_11574" data-name="Grupo 11574">
                                  <g id="Grupo_11573" data-name="Grupo 11573">
                                    <g id="Grupo_11572" data-name="Grupo 11572">
                                      <path id="Trazado_3106" data-name="Trazado 3106" d="M141.765,212.726c-.078-.062-.324.206-.864.428a3.147,3.147,0,0,1-2.351-.048c-1.875-.777-3.355-3.865-3.309-7.118a10.4,10.4,0,0,1,1.063-4.459,3.633,3.633,0,0,1,2.462-2.313,1.6,1.6,0,0,1,1.818.936c.221.513.091.869.186.9.048.047.4-.286.283-1.036a2,2,0,0,0-.662-1.159,2.379,2.379,0,0,0-1.718-.529,4.417,4.417,0,0,0-3.395,2.661,10.685,10.685,0,0,0-1.294,4.979c-.033,3.637,1.687,7.112,4.261,7.971a3.366,3.366,0,0,0,2.892-.36C141.715,213.159,141.826,212.76,141.765,212.726Z" transform="translate(-133.985 -198.323)" fill="#664d49"/>
                                    </g>
                                  </g>
                                </g>
                              </g>
                            </g>
                          </g>
                        </g>
                      </g>
                    </g>
                  </g>
                </g>
              </g>
            </g>
          </g>
          <g id="Grupo_11586" data-name="Grupo 11586" transform="translate(67.739 106.874)">
            <path id="Trazado_3107" data-name="Trazado 3107" d="M185.681,222.482c.2-.455-3.335-1.512-5.817-4.825a20.222,20.222,0,0,1-2.494-4.708c-.525-1.308-.925-2.13-1.119-2.07s-.138.944.151,2.368a13.333,13.333,0,0,0,2.32,5.272,10.78,10.78,0,0,0,4.6,3.524C184.7,222.6,185.633,222.635,185.681,222.482Z" transform="translate(-176.141 -210.876)" fill="#263238"/>
          </g>
          <g id="Grupo_11587" data-name="Grupo 11587">
            <path id="Trazado_3108" data-name="Trazado 3108" d="M275.81,171.954a4.261,4.261,0,0,0-2-2.486c-2.058-1.215-4.428-1.054-6.719-1.09a37.954,37.954,0,0,1-19.764-6.009,88.541,88.541,0,0,0-9.2-11.146c-7.966-8.213-14.52-13.8-21.3-16.533-8.77-3.531-23.437-4.962-32.58-2.563s-17.356,9.818-18.628,19.187c-5.128-4.336-12.828-4.3-19.073-1.789l-.156-.068c-6.955,2.48-10.906,9.829-12.959,16.922s-2.928,14.678-6.684,21.036c-.786,1.329-1.719,2.923-1.034,4.305a2.937,2.937,0,0,0,3.071,1.338,8.621,8.621,0,0,0,3.238-1.465q-1.165,2.786-2.328,5.571a16.444,16.444,0,0,0,7.566-.5c1.477,6.633,3.24,14.209,4.947,18.7,2.908-.008,5.57.2,7.363,1.812,2.435,2.19,3.524,6.311,7.573,4.748,2.06-.8,3.94-5.12,4.63-7.219a102.58,102.58,0,0,0,4.442-43.415,32.965,32.965,0,0,1,10.18-7.348l-.312.281c7.344-2.551,15.653-5.061,22.622-1.612,5.406,2.674,8.583,8.283,12.624,12.759a41.263,41.263,0,0,0,29.408,13.584c.388,7.4-.233,17.859.155,25.258l6.225-11.854.005.06c.509-.868.932-1.742,1.338-2.619l.14-.266V199.5a45.97,45.97,0,0,1,2.08-4.209l.071.063c4.01,3.538,9.918-1.871,6.756-6.183a10.384,10.384,0,0,0-2.236-2.246,7.316,7.316,0,0,0,6.967,1.806,5.74,5.74,0,0,0,4.058-5.676,4.879,4.879,0,0,0-2.908-3.915,16.476,16.476,0,0,0,9.374-2.066C274.621,176.02,276.437,174.282,275.81,171.954Z" transform="translate(-125.479 -130.943)" fill="#2f2f2f"/>
          </g>
          <g id="Grupo_11588" data-name="Grupo 11588" transform="translate(9.837 23.391)">
            <path id="Trazado_3109" data-name="Trazado 3109" d="M171.415,148.437a22.769,22.769,0,0,0-2.637,2.412,18.858,18.858,0,0,0-4.035,8.728,33.185,33.185,0,0,0-.671,6.681c-.011,2.42.183,5.013.369,7.746a69.574,69.574,0,0,1,.2,8.621,30.335,30.335,0,0,1-.594,4.547,9.475,9.475,0,0,1-1.854,4.411,3.968,3.968,0,0,1-3.71,1.247,5.9,5.9,0,0,1-3.339-1.885c-1.691-1.975-2.113-4.478-2.534-6.685l.552.067a21.993,21.993,0,0,1-3.2,5.507,7.819,7.819,0,0,1-5.114,2.785,5.039,5.039,0,0,1-2.71-.475,4.376,4.376,0,0,1-1.842-1.813,4.52,4.52,0,0,1-.558-2.33,3.261,3.261,0,0,1,.844-2.044l.279.249a16.962,16.962,0,0,1-5.648,4.236,14.975,14.975,0,0,1-1.75.681,2.96,2.96,0,0,1-.627.155,3.276,3.276,0,0,1,.594-.253c.39-.16.972-.394,1.7-.763a17.476,17.476,0,0,0,5.451-4.3l.278.249a3.369,3.369,0,0,0-.174,3.906,3.932,3.932,0,0,0,1.665,1.606,4.567,4.567,0,0,0,2.456.4,7.333,7.333,0,0,0,4.747-2.646,21.7,21.7,0,0,0,3.081-5.39l.378-.842.174.909c.421,2.2.869,4.609,2.412,6.387a5.317,5.317,0,0,0,2.988,1.687,3.346,3.346,0,0,0,3.153-1.058,8.962,8.962,0,0,0,1.713-4.126,29.949,29.949,0,0,0,.59-4.455,70.387,70.387,0,0,0-.162-8.549c-.168-2.732-.346-5.335-.313-7.787a32.944,32.944,0,0,1,.757-6.768,18.594,18.594,0,0,1,4.281-8.8A10.679,10.679,0,0,1,171.415,148.437Z" transform="translate(-132.836 -148.437)" fill="#455a64"/>
          </g>
          <g id="Grupo_11589" data-name="Grupo 11589" transform="translate(49.314 8.633)">
            <path id="Trazado_3110" data-name="Trazado 3110" d="M242.791,177.736c.007.008-.066.07-.211.181l-.656.479a8.978,8.978,0,0,1-1.114.714,13.912,13.912,0,0,1-1.6.841,23.323,23.323,0,0,1-11.253,2.026,29.8,29.8,0,0,1-15.867-5.86c-5.252-3.776-9.861-9.339-13.63-15.71-1.912-3.182-3.471-6.446-5.189-9.46a34.843,34.843,0,0,0-5.874-8,17.952,17.952,0,0,0-7.576-4.6,12.85,12.85,0,0,0-3.994-.46,14.167,14.167,0,0,0-3.658.7,15.221,15.221,0,0,0-8.447,7.148,18.253,18.253,0,0,0-1.357,3.942.933.933,0,0,1,.021-.275c.033-.218.075-.483.124-.8a13.211,13.211,0,0,1,1-2.97,14.978,14.978,0,0,1,2.944-3.99,15.375,15.375,0,0,1,5.577-3.462,14.514,14.514,0,0,1,3.773-.765,13.281,13.281,0,0,1,4.156.443,18.389,18.389,0,0,1,7.834,4.682,35.144,35.144,0,0,1,6,8.112c1.738,3.035,3.3,6.291,5.193,9.444,3.741,6.323,8.283,11.825,13.436,15.567a29.606,29.606,0,0,0,15.561,5.883,23.647,23.647,0,0,0,11.126-1.809A36.875,36.875,0,0,0,242.791,177.736Z" transform="translate(-162.362 -137.399)" fill="#455a64"/>
          </g>
          <g id="Grupo_11590" data-name="Grupo 11590" transform="translate(104.275 37.41)">
            <path id="Trazado_3111" data-name="Trazado 3111" d="M231.328,158.93a3.984,3.984,0,0,1-.943.656,20.3,20.3,0,0,1-2.792,1.419,27.117,27.117,0,0,1-4.42,1.451,28.6,28.6,0,0,1-11.342.364,27.193,27.193,0,0,1-4.5-1.166,20.252,20.252,0,0,1-2.876-1.235,4.1,4.1,0,0,1-.983-.595c.051-.1,1.5.643,4,1.419a31.133,31.133,0,0,0,4.458,1.019,30.7,30.7,0,0,0,11.128-.357,30.948,30.948,0,0,0,4.383-1.3C229.87,159.668,231.271,158.83,231.328,158.93Z" transform="translate(-203.467 -158.922)" fill="#455a64"/>
          </g>
          <g id="Grupo_11599" data-name="Grupo 11599" transform="translate(94.479 72.382)">
            <g id="Grupo_11598" data-name="Grupo 11598">
              <g id="Grupo_11597" data-name="Grupo 11597">
                <g id="Grupo_11596" data-name="Grupo 11596">
                  <g id="Grupo_11595" data-name="Grupo 11595">
                    <g id="Grupo_11594" data-name="Grupo 11594">
                      <g id="Grupo_11593" data-name="Grupo 11593">
                        <g id="Grupo_11592" data-name="Grupo 11592">
                          <g id="Grupo_11591" data-name="Grupo 11591">
                            <path id="Trazado_3112" data-name="Trazado 3112" d="M212.3,189.727c-.521.532-3.557-1.911-7.959-2.03-4.4-.183-7.691,2.042-8.153,1.476-.227-.253.316-1.225,1.752-2.232a11.014,11.014,0,0,1,6.546-1.857,10.628,10.628,0,0,1,6.316,2.3C212.13,188.487,212.56,189.49,212.3,189.727Z" transform="translate(-196.141 -185.078)" fill="#263238"/>
                          </g>
                        </g>
                      </g>
                    </g>
                  </g>
                </g>
              </g>
            </g>
          </g>
          <g id="Grupo_11607" data-name="Grupo 11607" transform="translate(102.801 82.284)">
            <g id="Grupo_11606" data-name="Grupo 11606">
              <g id="Grupo_11605" data-name="Grupo 11605">
                <g id="Grupo_11604" data-name="Grupo 11604">
                  <g id="Grupo_11603" data-name="Grupo 11603">
                    <g id="Grupo_11602" data-name="Grupo 11602">
                      <g id="Grupo_11601" data-name="Grupo 11601">
                        <g id="Grupo_11600" data-name="Grupo 11600">
                          <path id="Trazado_3113" data-name="Trazado 3113" d="M209.483,195.959a3.562,3.562,0,0,1-3.688,3.335,3.408,3.408,0,0,1-3.428-3.471,3.564,3.564,0,0,1,3.685-3.337A3.409,3.409,0,0,1,209.483,195.959Z" transform="translate(-202.365 -192.484)" fill="#263238"/>
                        </g>
                      </g>
                    </g>
                  </g>
                </g>
              </g>
            </g>
          </g>
        </g>
        <g id="Grupo_11609" data-name="Grupo 11609" transform="translate(370.823 274.142)">
          <path id="Trazado_3114" data-name="Trazado 3114" d="M298.8,346.8l-1.495-.269,30.64-53.559-4.843-15.439s-5.614-21.99-.936-27.6c0,0,10.234-12.045,13.554-11.88s5.977.83,6.64,3.32c0,0,5.644-.665,7.138,1.162a28.739,28.739,0,0,1,2.655,3.983s6.142-.5,7.8,4.815c0,0,5.809,2.988,6.308,7.3s-1.162,24.4-2.988,29.547-8.632,15.936-10.623,31.871-9.1,36.747-15.34,60.039l-16.864-3.766Z" transform="translate(-297.31 -238.044)" fill="#fdeb9e"/>
        </g>
        <g id="Grupo_11723" data-name="Grupo 11723" transform="translate(79.2 282.842)">
          <g id="Grupo_11610" data-name="Grupo 11610" transform="translate(0 75.875)">
            <path id="Trazado_3115" data-name="Trazado 3115" d="M97.1,301.3S78.326,407.95,79.232,417.922s5.9,25.837,17.229,28.557a49.84,49.84,0,0,0,21.752,0l-13.6-131Z" transform="translate(-79.2 -301.299)" fill="#44d592"/>
          </g>
          <g id="Grupo_11611" data-name="Grupo 11611" transform="translate(17.665)">
            <path id="Trazado_3116" data-name="Trazado 3116" d="M147.631,265.416s-22.472,15.974-27.439,20.672c-20.776,19.649-25.124,27.69-27.542,34.338s14.423,161.059,14.423,161.059l3.412,26.978,2.464,23.336,155.267-.789a93.117,93.117,0,0,1-1.132-15.1l1.132-144.872-23.7-97-14.583-4.15-2.943-11.563s-18.118-13.377-48-13.764c-9.194-.118-22.2,3.5-29.461,9.129h0Z" transform="translate(-92.412 -244.551)" fill="#26c179"/>
          </g>
          <g id="Grupo_11612" data-name="Grupo 11612" transform="translate(139.097 29.54)">
            <path id="Trazado_3117" data-name="Trazado 3117" d="M196.267,266.982s17.586-.947,19.917.328a253.556,253.556,0,0,1,36.378,23.722c16.4,13.118,63.121,43.141,63.121,43.141s6.478-6.244,12.489.861l13.5-10.8s34.686,13.153,40.151,39.387c0,0,1.911,10.428-9.021,16.2,0,0-29.017,25.951-52.486,23.438-24.8-2.655-80.3-28.618-83.08-29.7L199,356.619s-23.5-44.818-13.116-67.227Z" transform="translate(-183.233 -266.644)" fill="#26c179"/>
          </g>
          <g id="Grupo_11614" data-name="Grupo 11614" transform="translate(281.56 97.428)">
            <g id="Grupo_11613" data-name="Grupo 11613">
              <path id="Trazado_3118" data-name="Trazado 3118" d="M291.913,341.216a12.634,12.634,0,0,1-1.159-3.372A34,34,0,0,1,291,320.756a12.617,12.617,0,0,1,1.258-3.337,31.822,31.822,0,0,1-.779,3.456,41.093,41.093,0,0,0-.246,16.863A31.456,31.456,0,0,1,291.913,341.216Z" transform="translate(-289.784 -317.419)" fill="#263238"/>
            </g>
          </g>
          <g id="Grupo_11616" data-name="Grupo 11616" transform="translate(72.883 17.888)">
            <g id="Grupo_11615" data-name="Grupo 11615">
              <path id="Trazado_3119" data-name="Trazado 3119" d="M216.017,265.371a3.887,3.887,0,0,1-.832-.171l-2.34-.616c-2.035-.517-4.993-1.227-8.683-1.924a241.865,241.865,0,0,0-29.11-3.59,198.708,198.708,0,0,0-29.32.088c-3.74.32-6.744.786-8.807,1.161l-2.373.469a3.974,3.974,0,0,1-.841.119,3.757,3.757,0,0,1,.808-.255l2.352-.6a77.517,77.517,0,0,1,8.814-1.387,180.249,180.249,0,0,1,29.412-.291,214.515,214.515,0,0,1,29.164,3.8c3.689.761,6.64,1.546,8.659,2.146l2.309.743A3.86,3.86,0,0,1,216.017,265.371Z" transform="translate(-133.711 -257.93)" fill="#263238"/>
            </g>
          </g>
          <g id="Grupo_11618" data-name="Grupo 11618" transform="translate(92.032 5.416)">
            <g id="Grupo_11617" data-name="Grupo 11617">
              <path id="Trazado_3120" data-name="Trazado 3120" d="M149.753,260.491c-.19.025-.714-2.614-1.17-5.9s-.671-5.966-.481-5.993.714,2.613,1.171,5.9S149.944,260.464,149.753,260.491Z" transform="translate(-148.032 -248.602)" fill="#263238"/>
            </g>
          </g>
          <g id="Grupo_11620" data-name="Grupo 11620" transform="translate(98.199 4.864)">
            <g id="Grupo_11619" data-name="Grupo 11619">
              <path id="Trazado_3121" data-name="Trazado 3121" d="M154.089,260.124c-.166.063-1.165-2.522-1.389-5.9-.243-3.377.388-6.076.56-6.035.206.029-.1,2.7.135,5.987C153.612,257.46,154.288,260.066,154.089,260.124Z" transform="translate(-152.645 -248.189)" fill="#263238"/>
            </g>
          </g>
          <g id="Grupo_11622" data-name="Grupo 11622" transform="translate(164.472 123.401)">
            <g id="Grupo_11621" data-name="Grupo 11621">
              <path id="Trazado_3122" data-name="Trazado 3122" d="M277.63,369.143a3.692,3.692,0,0,1-.81-.207l-2.282-.723c-1.965-.674-4.793-1.7-8.254-3.051-6.926-2.691-16.384-6.675-26.765-11.215s-19.724-8.791-26.467-11.9l-7.962-3.734-2.147-1.051a3.874,3.874,0,0,1-.73-.409,3.63,3.63,0,0,1,.788.282l2.2.932c1.984.869,4.714,2.067,8.053,3.533L239.8,353.308c10.377,4.538,19.8,8.591,26.669,11.4,3.432,1.408,6.228,2.5,8.163,3.253l2.234.846A3.853,3.853,0,0,1,277.63,369.143Z" transform="translate(-202.212 -336.845)" fill="#263238"/>
            </g>
          </g>
          <g id="Grupo_11624" data-name="Grupo 11624" transform="translate(73.404 18.336)" opacity="0.3">
            <g id="Grupo_11623" data-name="Grupo 11623">
              <path id="Trazado_3123" data-name="Trazado 3123" d="M134.1,260.659c24.686,4.368,49.707.04,75.829,3.131-25.223-5.221-51.492-7.7-75.829-3.131" transform="translate(-134.1 -258.264)"/>
            </g>
          </g>
          <g id="Grupo_11626" data-name="Grupo 11626" transform="translate(36.105 265.687)" opacity="0.3">
            <g id="Grupo_11625" data-name="Grupo 11625">
              <path id="Trazado_3124" data-name="Trazado 3124" d="M262.479,443.286a1.766,1.766,0,0,1-.4.048l-1.185.075-4.553.218-16.751.643-55.272,1.793c-21.589.743-41.12,1.655-55.247,2.492l-16.728,1.039-4.549.281-1.185.055a.2.2,0,1,1-.005-.071l1.179-.124,4.539-.41c3.943-.352,9.655-.782,16.717-1.261,14.125-.961,33.66-1.953,55.252-2.7s41.133-1.218,55.282-1.59l16.757-.421,4.558-.088,1.186-.005A1.732,1.732,0,0,1,262.479,443.286Z" transform="translate(-106.204 -443.263)" fill="#fff"/>
            </g>
          </g>
          <g id="Grupo_11628" data-name="Grupo 11628" transform="translate(32.986 233.417)">
            <g id="Grupo_11627" data-name="Grupo 11627">
              <path id="Trazado_3125" data-name="Trazado 3125" d="M263.266,419.14a11.828,11.828,0,0,1-1.606.154l-4.641.287-17.075.916-56.35,2.733-56.369,2.519-17.085.683-4.648.15-1.209.021a1.807,1.807,0,0,1-.413-.016,1.775,1.775,0,0,1,.409-.055l1.206-.091,4.641-.281,17.075-.9,56.359-2.722,56.359-2.53,17.086-.694,4.646-.158,1.21-.025A1.774,1.774,0,0,1,263.266,419.14Z" transform="translate(-103.871 -419.127)" fill="#fff"/>
            </g>
          </g>
          <g id="Grupo_11630" data-name="Grupo 11630" transform="translate(29.288 203.538)" opacity="0.3">
            <g id="Grupo_11629" data-name="Grupo 11629">
              <path id="Trazado_3126" data-name="Trazado 3126" d="M264.2,396.793c.011.192-36.493,2.416-81.524,4.967s-81.559,4.463-81.569,4.271,36.485-2.415,81.53-4.966S264.186,396.6,264.2,396.793Z" transform="translate(-101.105 -396.78)" fill="#fff"/>
            </g>
          </g>
          <g id="Grupo_11632" data-name="Grupo 11632" transform="translate(25.945 164.854)">
            <g id="Grupo_11631" data-name="Grupo 11631">
              <path id="Trazado_3127" data-name="Trazado 3127" d="M264.041,367.855c.02.191-37,4.233-82.678,9.028s-82.738,8.526-82.758,8.335,36.992-4.232,82.686-9.028C226.967,371.4,264.021,367.664,264.041,367.855Z" transform="translate(-98.605 -367.848)" fill="#fff"/>
            </g>
          </g>
          <g id="Grupo_11634" data-name="Grupo 11634" transform="translate(23.004 131.81)" opacity="0.3">
            <g id="Grupo_11633" data-name="Grupo 11633">
              <path id="Trazado_3128" data-name="Trazado 3128" d="M254.634,343.139c.024.191-35.38,4.89-79.066,10.493s-79.137,9.993-79.163,9.8,35.372-4.888,79.074-10.494C219.166,347.338,254.608,342.95,254.634,343.139Z" transform="translate(-96.405 -343.134)" fill="#fff"/>
            </g>
          </g>
          <g id="Grupo_11636" data-name="Grupo 11636" transform="translate(22.386 104.989)">
            <g id="Grupo_11635" data-name="Grupo 11635">
              <path id="Trazado_3129" data-name="Trazado 3129" d="M214,323.079c.033.189-26.371,4.987-58.966,10.716s-59.059,10.22-59.092,10.031,26.364-4.987,58.972-10.716S213.968,322.89,214,323.079Z" transform="translate(-95.943 -323.074)" fill="#fff"/>
            </g>
          </g>
          <g id="Grupo_11638" data-name="Grupo 11638" transform="translate(18.761 81.477)" opacity="0.3">
            <g id="Grupo_11637" data-name="Grupo 11637">
              <path id="Trazado_3130" data-name="Trazado 3130" d="M204.766,305.5c.031.19-24.913,4.455-55.708,9.525s-55.795,9.028-55.826,8.838,24.908-4.454,55.713-9.525S204.735,305.306,204.766,305.5Z" transform="translate(-93.232 -305.489)" fill="#fff"/>
            </g>
          </g>
          <g id="Grupo_11640" data-name="Grupo 11640" transform="translate(18.302 51.135)">
            <g id="Grupo_11639" data-name="Grupo 11639">
              <path id="Trazado_3131" data-name="Trazado 3131" d="M203.082,282.8a7.06,7.06,0,0,1-1.118.282l-3.232.677-11.892,2.432c-10.037,2.07-23.88,5.046-39.094,8.649s-28.924,7.164-38.824,9.819c-4.9,1.322-8.886,2.4-11.718,3.163l-3.19.846a7.272,7.272,0,0,1-1.126.25,6.98,6.98,0,0,1,1.087-.385l3.155-.971c2.742-.834,6.727-1.991,11.662-3.379,9.869-2.778,23.565-6.41,38.793-10.022s29.091-6.507,39.158-8.454c5.033-.975,9.112-1.73,11.939-2.216l3.256-.548A7.069,7.069,0,0,1,203.082,282.8Z" transform="translate(-92.889 -282.796)" fill="#fff"/>
            </g>
          </g>
          <g id="Grupo_11642" data-name="Grupo 11642" transform="translate(44.511 30.024)" opacity="0.3">
            <g id="Grupo_11641" data-name="Grupo 11641">
              <path id="Trazado_3132" data-name="Trazado 3132" d="M210.138,267.045a5.361,5.361,0,0,1-1,.1l-2.868.154c-2.492.111-6.1.3-10.545.579-8.9.544-21.178,1.56-34.672,3.262s-25.645,3.789-34.4,5.479c-4.377.841-7.915,1.554-10.355,2.067l-2.816.566a5.527,5.527,0,0,1-.993.151,5.369,5.369,0,0,1,.961-.287l2.789-.694c2.423-.6,5.947-1.383,10.318-2.285,8.738-1.816,20.89-3.97,34.408-5.686s25.817-2.646,34.732-3.065c4.458-.214,8.066-.33,10.563-.357l2.873-.024A5.46,5.46,0,0,1,210.138,267.045Z" transform="translate(-112.491 -267.006)" fill="#fff"/>
            </g>
          </g>
          <g id="Grupo_11644" data-name="Grupo 11644" transform="translate(152.359 30.741)">
            <g id="Grupo_11643" data-name="Grupo 11643">
              <path id="Trazado_3133" data-name="Trazado 3133" d="M211.036,267.543a4.527,4.527,0,0,1-.414.82c-.333.582-.766,1.336-1.3,2.273-.584.976-1.281,2.179-2,3.625s-1.645,3.035-2.459,4.9l-1.341,2.891c-.461,1.008-.861,2.091-1.32,3.193-.947,2.193-1.746,4.617-2.635,7.148a114.657,114.657,0,0,0-5.767,34.3c.013,2.684-.024,5.236.155,7.618.074,1.191.1,2.345.2,3.448s.219,2.158.322,3.17c.16,2.027.5,3.835.722,5.434s.476,2.966.709,4.079c.2,1.062.364,1.916.488,2.574a4.488,4.488,0,0,1,.124.909,4.588,4.588,0,0,1-.261-.877l-.616-2.551c-.274-1.107-.578-2.468-.828-4.07s-.635-3.408-.828-5.44q-.176-1.522-.369-3.181c-.12-1.107-.158-2.266-.243-3.463-.2-2.393-.189-4.959-.221-7.659a110.9,110.9,0,0,1,5.8-34.5c.912-2.54,1.735-4.97,2.712-7.165.472-1.1.885-2.186,1.362-3.192s.945-1.965,1.388-2.887c.846-1.857,1.792-3.447,2.562-4.871s1.491-2.619,2.113-3.577l1.416-2.209A4.643,4.643,0,0,1,211.036,267.543Z" transform="translate(-193.152 -267.543)" fill="#fff"/>
            </g>
          </g>
          <g id="Grupo_11646" data-name="Grupo 11646" transform="translate(175.518 44.503)" opacity="0.3">
            <g id="Grupo_11645" data-name="Grupo 11645">
              <path id="Trazado_3134" data-name="Trazado 3134" d="M229.214,277.836a4.058,4.058,0,0,1-.31.812l-1.013,2.262c-.453.976-1,2.174-1.587,3.585s-1.316,2.992-2,4.788c-1.457,3.559-3.028,7.861-4.606,12.691-1.538,4.844-3.058,10.223-4.364,15.94-1.277,5.727-2.214,11.238-2.908,16.273-.648,5.041-1.079,9.6-1.292,13.44-.15,1.917-.18,3.658-.247,5.184s-.1,2.843-.107,3.919c-.023,1.017-.041,1.838-.057,2.478a4.045,4.045,0,0,1-.067.866,4.09,4.09,0,0,1-.074-.864c-.019-.64-.043-1.463-.072-2.48-.032-1.078-.051-2.4-.012-3.928s.025-3.276.144-5.2c.151-3.853.531-8.434,1.147-13.5.661-5.058,1.584-10.595,2.865-16.344,1.312-5.739,2.857-11.135,4.432-15.986,1.618-4.836,3.242-9.135,4.761-12.681.719-1.789,1.473-3.363,2.1-4.759s1.206-2.582,1.7-3.542c.464-.907.84-1.638,1.132-2.209A4.031,4.031,0,0,1,229.214,277.836Z" transform="translate(-210.473 -277.836)" fill="#fff"/>
            </g>
          </g>
          <g id="Grupo_11648" data-name="Grupo 11648" transform="translate(197.652 56.719)">
            <g id="Grupo_11647" data-name="Grupo 11647">
              <path id="Trazado_3135" data-name="Trazado 3135" d="M227.036,368.413c-.189-.032,2.758-18.291,6.584-40.777s7.081-40.7,7.271-40.664-2.758,18.287-6.585,40.78S227.226,368.445,227.036,368.413Z" transform="translate(-227.028 -286.972)" fill="#fff"/>
            </g>
          </g>
          <g id="Grupo_11650" data-name="Grupo 11650" transform="translate(218.752 72.746)" opacity="0.3">
            <g id="Grupo_11649" data-name="Grupo 11649">
              <path id="Trazado_3136" data-name="Trazado 3136" d="M242.813,373.132a3.3,3.3,0,0,1,.163-.755c.156-.559.354-1.262.6-2.123.539-1.837,1.294-4.5,2.2-7.8,1.808-6.6,4.082-15.781,6.041-26.035s3.208-19.635,3.952-26.436c.376-3.4.652-6.158.826-8.065.091-.889.166-1.615.226-2.193a3.4,3.4,0,0,1,.126-.762,3.221,3.221,0,0,1,.015.772c-.025.58-.057,1.31-.1,2.2-.091,1.913-.293,4.68-.607,8.093-.62,6.826-1.805,16.233-3.758,26.516s-4.319,19.462-6.249,26.039c-.964,3.289-1.793,5.935-2.412,7.749-.293.846-.531,1.536-.721,2.086A3.208,3.208,0,0,1,242.813,373.132Z" transform="translate(-242.808 -298.959)" fill="#fff"/>
            </g>
          </g>
          <g id="Grupo_11652" data-name="Grupo 11652" transform="translate(246.269 85.623)">
            <g id="Grupo_11651" data-name="Grupo 11651">
              <path id="Trazado_3137" data-name="Trazado 3137" d="M263.48,381.225a3.117,3.117,0,0,1-.057-.743c-.008-.566-.017-1.27-.029-2.133-.016-1.852.017-4.53.108-7.84.179-6.617.677-15.758,1.717-25.81s2.439-19.105,3.623-25.618c.591-3.258,1.108-5.887,1.505-7.695l.467-2.08a3.033,3.033,0,0,1,.209-.715,2.978,2.978,0,0,1-.071.742c-.09.558-.2,1.254-.338,2.1l-1.286,7.725c-1.059,6.529-2.371,15.571-3.416,25.607s-1.612,19.153-1.917,25.758c-.136,3.232-.247,5.88-.329,7.827-.042.86-.075,1.564-.1,2.129A3.007,3.007,0,0,1,263.48,381.225Z" transform="translate(-263.389 -308.59)" fill="#fff"/>
            </g>
          </g>
          <g id="Grupo_11654" data-name="Grupo 11654" transform="translate(262.63 97.193)" opacity="0.3">
            <g id="Grupo_11653" data-name="Grupo 11653">
              <path id="Trazado_3138" data-name="Trazado 3138" d="M284.932,385.129a2.741,2.741,0,0,1-.36-.614c-.243-.487-.543-1.09-.909-1.821-.4-.79-.861-1.769-1.325-2.938s-1.066-2.47-1.563-3.974c-.537-1.488-1.114-3.125-1.608-4.92-.567-1.776-1-3.718-1.492-5.755a87.7,87.7,0,0,1-1.687-27.1c.234-2.082.424-4.063.766-5.9.269-1.842.636-3.538.987-5.082.306-1.554.731-2.923,1.056-4.137s.654-2.245.951-3.078c.273-.771.5-1.407.677-1.92a2.76,2.76,0,0,1,.281-.654,2.815,2.815,0,0,1-.147.7c-.147.524-.329,1.17-.551,1.956-.257.844-.556,1.879-.834,3.1s-.678,2.589-.952,4.139c-.316,1.542-.654,3.232-.9,5.067-.316,1.824-.483,3.795-.7,5.863a91.7,91.7,0,0,0,1.675,26.907c.471,2.026.881,3.96,1.42,5.731.468,1.792,1.013,3.426,1.519,4.916.464,1.505,1.02,2.819,1.457,3.99s.853,2.167,1.213,2.972l.789,1.873A2.746,2.746,0,0,1,284.932,385.129Z" transform="translate(-275.625 -317.243)" fill="#fff"/>
            </g>
          </g>
          <g id="Grupo_11656" data-name="Grupo 11656" transform="translate(276.704 94.564)">
            <g id="Grupo_11655" data-name="Grupo 11655">
              <path id="Trazado_3139" data-name="Trazado 3139" d="M305.174,383.741a3,3,0,0,1-.489-.555c-.344-.445-.773-1-1.3-1.677l-.921-1.223q-.473-.708-1.013-1.516c-.729-1.086-1.564-2.321-2.372-3.757l-1.309-2.23q-.626-1.2-1.3-2.487c-.935-1.7-1.733-3.613-2.655-5.586a106.423,106.423,0,0,1-4.645-13.385,100.238,100.238,0,0,1-2.589-13.935c-.148-2.175-.4-4.236-.381-6.177q-.028-1.452-.055-2.805.056-1.346.108-2.586c.031-1.649.211-3.13.361-4.431q.108-.967.2-1.812.15-.814.278-1.508c.167-.84.3-1.527.413-2.079a2.915,2.915,0,0,1,.19-.714,3.031,3.031,0,0,1-.052.741c-.075.556-.168,1.249-.282,2.1-.067.461-.14.965-.218,1.508q-.068.844-.147,1.809c-.111,1.3-.257,2.77-.255,4.41q-.03,1.231-.063,2.568.046,1.344.094,2.785c.011,1.925.278,3.97.443,6.126a105.645,105.645,0,0,0,2.623,13.825,112.521,112.521,0,0,0,4.563,13.313c.9,1.967,1.674,3.877,2.581,5.578l1.251,2.49q.656,1.165,1.262,2.24c.777,1.444,1.578,2.691,2.273,3.792q.513.822.961,1.54l.868,1.254,1.189,1.75A2.9,2.9,0,0,1,305.174,383.741Z" transform="translate(-286.152 -315.277)" fill="#fff"/>
            </g>
          </g>
          <g id="Grupo_11658" data-name="Grupo 11658" transform="translate(287.95 97.77)" opacity="0.3">
            <g id="Grupo_11657" data-name="Grupo 11657">
              <path id="Trazado_3140" data-name="Trazado 3140" d="M318.391,371.58a15.075,15.075,0,0,1-.809-2.181c-.521-1.523-1.213-3.542-2.051-5.986-1.762-5.042-4.365-11.948-7.656-19.4s-6.654-14.027-9.2-18.724l-3.046-5.546a14.753,14.753,0,0,1-1.067-2.066,15.188,15.188,0,0,1,1.3,1.928c.8,1.262,1.916,3.121,3.242,5.446a208.984,208.984,0,0,1,9.4,18.681c3.3,7.475,5.838,14.432,7.485,19.525.826,2.546,1.452,4.619,1.844,6.063A14.565,14.565,0,0,1,318.391,371.58Z" transform="translate(-294.563 -317.675)" fill="#fff"/>
            </g>
          </g>
          <g id="Grupo_11660" data-name="Grupo 11660" transform="translate(74.051 10.195)" opacity="0.3">
            <g id="Grupo_11659" data-name="Grupo 11659">
              <path id="Trazado_3141" data-name="Trazado 3141" d="M212.726,265.46c-.088.04-.447-1.084-1.641-2.786a17.6,17.6,0,0,0-6.828-5.366c-6.751-3.272-17.276-4.038-28.628-4.4a166.3,166.3,0,0,0-29.122,1.955c-3.7.562-6.671,1.153-8.724,1.555l-2.364.479a3.985,3.985,0,0,1-.836.122,3.672,3.672,0,0,1,.8-.258l2.337-.607c2.04-.485,5-1.15,8.7-1.777a153.112,153.112,0,0,1,29.214-2.163,151.535,151.535,0,0,1,16.1,1.171,41,41,0,0,1,12.726,3.48,17.255,17.255,0,0,1,6.836,5.653,12.053,12.053,0,0,1,1.135,2.146A3.783,3.783,0,0,1,212.726,265.46Z" transform="translate(-134.584 -252.176)" fill="#fff"/>
            </g>
          </g>
          <g id="Grupo_11662" data-name="Grupo 11662" transform="translate(11.036 111.388)">
            <g id="Grupo_11661" data-name="Grupo 11661">
              <path id="Trazado_3142" data-name="Trazado 3142" d="M96.365,331.423c-.071.179-2.123-.467-4.583-1.443s-4.4-1.912-4.325-2.091,2.122.468,4.582,1.444S96.436,331.245,96.365,331.423Z" transform="translate(-87.455 -327.86)" fill="#fff"/>
            </g>
          </g>
          <g id="Grupo_11664" data-name="Grupo 11664" transform="translate(6.794 142.626)" opacity="0.3">
            <g id="Grupo_11663" data-name="Grupo 11663">
              <path id="Trazado_3143" data-name="Trazado 3143" d="M99.666,353.492c-.036.183-3.476-.254-7.736-.768s-7.685-1.263-7.648-1.459,3.476.254,7.736.768S99.7,353.3,99.666,353.492Z" transform="translate(-84.282 -351.224)" fill="#fff"/>
            </g>
          </g>
          <g id="Grupo_11666" data-name="Grupo 11666" transform="translate(2.029 172.962)">
            <g id="Grupo_11665" data-name="Grupo 11665">
              <path id="Trazado_3144" data-name="Trazado 3144" d="M104.634,375.691a19.578,19.578,0,0,1-3.524.2c-2.174.041-5.177.16-8.514.079a44.96,44.96,0,0,1-8.485-1.019,14.565,14.565,0,0,1-3.392-1.009c.052-.237,5.277,1.193,11.9,1.333,3.3.08,6.318.04,8.5.123A16.3,16.3,0,0,1,104.634,375.691Z" transform="translate(-80.718 -373.912)" fill="#fff"/>
            </g>
          </g>
          <g id="Grupo_11668" data-name="Grupo 11668" transform="translate(2.775 200.441)" opacity="0.3">
            <g id="Grupo_11667" data-name="Grupo 11667">
              <path id="Trazado_3145" data-name="Trazado 3145" d="M103.895,394.476a13.027,13.027,0,0,1-3.036,1.623,44.132,44.132,0,0,1-16.144,3.658,13.149,13.149,0,0,1-3.439-.155,23.48,23.48,0,0,1,3.411-.337,58.943,58.943,0,0,0,15.986-3.622A23.689,23.689,0,0,1,103.895,394.476Z" transform="translate(-81.276 -394.464)" fill="#fff"/>
            </g>
          </g>
          <g id="Grupo_11670" data-name="Grupo 11670" transform="translate(18.49 116.672)" opacity="0.3">
            <g id="Grupo_11669" data-name="Grupo 11669">
              <path id="Trazado_3146" data-name="Trazado 3146" d="M104.625,436.4C90.74,403.878,92.383,367.121,94.267,331.812Z" transform="translate(-93.029 -331.812)"/>
            </g>
          </g>
          <g id="Grupo_11672" data-name="Grupo 11672" transform="translate(17.895 99.126)">
            <g id="Grupo_11671" data-name="Grupo 11671">
              <path id="Trazado_3147" data-name="Trazado 3147" d="M92.592,318.689a1.884,1.884,0,0,1,.074.409c.037.31.086.709.146,1.209.118,1.112.283,2.671.493,4.656.405,4.093.984,9.933,1.7,17.129,1.411,14.467,3.337,34.452,5.634,56.506s4.6,42.009,6.443,56.423c.905,7.209,1.685,13.039,2.232,17.065.262,1.977.467,3.531.614,4.64.059.5.106.9.142,1.209a1.807,1.807,0,0,1,.024.416,1.994,1.994,0,0,1-.095-.405l-.21-1.2c-.178-1.1-.427-2.65-.742-4.621-.63-4.015-1.484-9.835-2.452-17.039-1.965-14.4-4.343-34.349-6.648-56.415s-4.146-42.054-5.431-56.532c-.62-7.205-1.123-13.054-1.476-17.152l-.364-4.666c-.031-.5-.056-.9-.076-1.215A1.856,1.856,0,0,1,92.592,318.689Z" transform="translate(-92.584 -318.689)" fill="#263238"/>
            </g>
          </g>
          <g id="Grupo_11674" data-name="Grupo 11674" transform="translate(25.754 81.375)">
            <g id="Grupo_11673" data-name="Grupo 11673">
              <path id="Trazado_3148" data-name="Trazado 3148" d="M197.4,305.715a5.661,5.661,0,0,1-1.018.055l-2.912.019c-2.528-.009-6.188.028-10.706.134-9.036.2-21.516.865-35.211,2.487-13.7,1.638-25.986,3.923-34.817,5.846-4.416.959-7.982,1.781-10.437,2.384l-2.836.665a5.641,5.641,0,0,1-1,.186,5.425,5.425,0,0,1,.965-.322l2.8-.79c2.437-.685,5.989-1.582,10.4-2.6a329.5,329.5,0,0,1,70.125-8.344c4.526-.043,8.189-.005,10.719.088l2.912.111A5.473,5.473,0,0,1,197.4,305.715Z" transform="translate(-98.462 -305.413)" fill="#263238"/>
            </g>
          </g>
          <g id="Grupo_11676" data-name="Grupo 11676" transform="translate(64.069 50.266)">
            <g id="Grupo_11675" data-name="Grupo 11675">
              <path id="Trazado_3149" data-name="Trazado 3149" d="M127.17,348.091c-.193-.007.17-14.776.809-32.984s1.314-32.968,1.507-32.961-.171,14.772-.81,32.986S127.363,348.1,127.17,348.091Z" transform="translate(-127.118 -282.146)" fill="#263238"/>
            </g>
          </g>
          <g id="Grupo_11678" data-name="Grupo 11678" transform="translate(126.997 27.448)">
            <g id="Grupo_11677" data-name="Grupo 11677" transform="translate(0)">
              <path id="Trazado_3150" data-name="Trazado 3150" d="M191.919,352.018a6.591,6.591,0,0,1-.592-.927l-1.58-2.718c-1.411-2.421-3.389-5.822-5.82-10a86.731,86.731,0,0,1-7.3-15.555,51.041,51.041,0,0,1-2.177-9.945,59.84,59.84,0,0,1-.031-10.928c.687-7.434,2.29-14.518,5.206-20.359a33.622,33.622,0,0,1,5.134-7.66,29.176,29.176,0,0,1,6.168-5.149,23.493,23.493,0,0,1,10.942-3.666,15.381,15.381,0,0,1,4.241.237,38.859,38.859,0,0,0-4.22.033,23.911,23.911,0,0,0-10.7,3.812,29.073,29.073,0,0,0-6,5.12,33.357,33.357,0,0,0-4.987,7.557c-2.839,5.761-4.407,12.758-5.09,20.141a60.045,60.045,0,0,0,.017,10.79,51.018,51.018,0,0,0,2.109,9.819,89.485,89.485,0,0,0,7.118,15.512l5.626,10.1q.923,1.747,1.468,2.784A6.312,6.312,0,0,1,191.919,352.018Z" transform="translate(-174.184 -265.08)" fill="#263238"/>
            </g>
          </g>
          <g id="Grupo_11680" data-name="Grupo 11680" transform="translate(136.255 99.02)" opacity="0.3">
            <g id="Grupo_11679" data-name="Grupo 11679">
              <path id="Trazado_3151" data-name="Trazado 3151" d="M181.354,318.61c-1.944,13.584,7.9,22.593,19.2,30.383a162.5,162.5,0,0,0,37.592,19.663l.176-12.459s-16.537-6.822-31.656-14.535c-8.226-4.2-17.633-8.7-20.354-13.551Z" transform="translate(-181.108 -318.61)"/>
            </g>
          </g>
          <g id="Grupo_11682" data-name="Grupo 11682" transform="translate(28.426 59.38)">
            <g id="Grupo_11681" data-name="Grupo 11681">
              <path id="Trazado_3152" data-name="Trazado 3152" d="M119.029,517.245a3.775,3.775,0,0,1-.108-.583c-.06-.419-.143-.988-.25-1.718-.209-1.547-.508-3.77-.893-6.616-.769-5.747-1.809-14.072-3.028-24.366-2.439-20.589-5.465-49.075-8.033-80.607s-4.173-60.147-5.09-80.859c-.459-10.357-.777-18.739-.947-24.533-.08-2.871-.143-5.113-.187-6.673-.012-.738-.023-1.313-.031-1.736a3.757,3.757,0,0,1,.013-.592,3.605,3.605,0,0,1,.057.59c.025.422.057,1,.1,1.733.075,1.559.182,3.8.318,6.668.277,5.824.675,14.193,1.167,24.52,1.043,20.7,2.736,49.293,5.292,80.827s5.514,60.007,7.828,80.607c1.183,10.271,2.142,18.6,2.808,24.389.329,2.852.586,5.081.763,6.632.078.734.138,1.306.182,1.726A3.782,3.782,0,0,1,119.029,517.245Z" transform="translate(-100.46 -288.962)" fill="#fff"/>
            </g>
          </g>
          <g id="Grupo_11684" data-name="Grupo 11684" transform="translate(50.489 37.901)" opacity="0.3">
            <g id="Grupo_11683" data-name="Grupo 11683">
              <path id="Trazado_3153" data-name="Trazado 3153" d="M140.088,522.66c-.191.017-5.523-55.883-11.906-124.843-6.386-68.984-11.405-124.9-11.214-124.919s5.522,55.871,11.908,124.855C135.258,466.712,140.279,522.641,140.088,522.66Z" transform="translate(-116.962 -272.898)" fill="#fff"/>
            </g>
          </g>
          <g id="Grupo_11686" data-name="Grupo 11686" transform="translate(84.157 22.199)">
            <g id="Grupo_11685" data-name="Grupo 11685">
              <path id="Trazado_3154" data-name="Trazado 3154" d="M158.78,526.2c-.193.012-4.07-59.317-8.661-132.5-4.594-73.206-8.16-132.54-7.969-132.552s4.07,59.3,8.663,132.508C155.4,466.843,158.971,526.19,158.78,526.2Z" transform="translate(-142.143 -261.154)" fill="#fff"/>
            </g>
          </g>
          <g id="Grupo_11688" data-name="Grupo 11688" transform="translate(118.711 21.097)" opacity="0.3">
            <g id="Grupo_11687" data-name="Grupo 11687">
              <path id="Trazado_3155" data-name="Trazado 3155" d="M177.5,526.9s-.033-.233-.063-.687c-.028-.483-.067-1.154-.116-2.019-.088-1.8-.215-4.416-.378-7.763-.341-6.772-.829-16.519-1.433-28.551-1.25-24.106-3.284-57.39-5.066-94.18-.876-18.4-1.523-35.943-1.952-51.9-.166-7.98-.366-15.562-.405-22.66q-.048-5.323-.095-10.271.014-4.94.024-9.474c-.017-6.037.112-11.5.2-16.291q.068-3.592.126-6.68.11-3.077.2-5.616c.131-3.349.231-5.961.3-7.767.04-.865.072-1.535.095-2.019.025-.455.056-.687.056-.687s.017.235.015.69c-.005.484-.015,1.155-.027,2.022-.039,1.806-.1,4.419-.17,7.77q-.062,2.535-.139,5.614-.032,3.083-.07,6.68c-.045,4.793-.14,10.251-.092,16.284q.01,4.527.021,9.472.066,4.94.135,10.266c.064,7.1.286,14.675.469,22.651.464,15.951,1.13,33.485,2.006,51.884,1.9,36.767,3.617,70.057,4.863,94.19.574,12.056.992,21.817,1.211,28.563.107,3.351.191,5.963.249,7.77.02.866.035,1.538.047,2.022C177.51,526.662,177.5,526.9,177.5,526.9Z" transform="translate(-167.986 -260.33)" fill="#fff"/>
            </g>
          </g>
          <g id="Grupo_11690" data-name="Grupo 11690" transform="translate(146.688 115.625)">
            <g id="Grupo_11689" data-name="Grupo 11689">
              <path id="Trazado_3156" data-name="Trazado 3156" d="M192.94,502.651a2.268,2.268,0,0,1-.061-.44c-.028-.329-.064-.758-.111-1.3-.084-1.186-.206-2.859-.358-4.991-.3-4.333-.682-10.609-1.1-18.368-.832-15.515-1.71-36.965-2.134-60.671s-.3-45.183-.015-60.718c.139-7.768.3-14.052.445-18.4.078-2.135.139-3.811.182-5,.027-.54.049-.969.066-1.3a2.156,2.156,0,0,1,.045-.443,2.035,2.035,0,0,1,.025.444c0,.33,0,.761,0,1.3-.012,1.189-.029,2.864-.052,5-.052,4.388-.128,10.662-.223,18.4-.155,15.532-.2,36.995.219,60.7s1.223,45.141,1.928,60.659c.368,7.725.666,13.992.874,18.378.1,2.135.175,3.809.229,5,.017.54.032.971.043,1.3A2.046,2.046,0,0,1,192.94,502.651Z" transform="translate(-188.91 -331.029)" fill="#fff"/>
            </g>
          </g>
          <g id="Grupo_11692" data-name="Grupo 11692" transform="translate(171.156 133.019)" opacity="0.3">
            <g id="Grupo_11691" data-name="Grupo 11691">
              <path id="Trazado_3157" data-name="Trazado 3157" d="M211.733,498.266a1.672,1.672,0,0,1-.027-.4c0-.3-.007-.687-.011-1.17.007-1.078.017-2.583.029-4.5.033-3.956.079-9.593.136-16.539.076-13.964-.011-33.258-.628-54.555s-1.671-40.57-2.563-54.507c-.463-6.93-.838-12.555-1.1-16.5-.124-1.911-.222-3.412-.291-4.487-.024-.481-.044-.866-.059-1.169a1.7,1.7,0,0,1,0-.4,1.715,1.715,0,0,1,.067.394c.033.3.075.685.127,1.163.1,1.072.243,2.571.424,4.478.358,3.889.814,9.524,1.324,16.49,1.017,13.933,2.138,33.206,2.766,54.521s.627,40.613.425,54.581c-.1,6.983-.226,12.635-.357,16.539-.068,1.915-.122,3.419-.16,4.5-.024.481-.044.866-.059,1.169A1.7,1.7,0,0,1,211.733,498.266Z" transform="translate(-207.21 -344.038)" fill="#fff"/>
            </g>
          </g>
          <g id="Grupo_11694" data-name="Grupo 11694" transform="translate(141.222 103.227)">
            <g id="Grupo_11693" data-name="Grupo 11693">
              <path id="Trazado_3158" data-name="Trazado 3158" d="M331.553,383.608a1.845,1.845,0,0,1-.4-.1L330,383.132l-4.4-1.495c-3.816-1.3-9.31-3.264-16.077-5.749-13.534-4.971-32.1-12.2-52.341-20.825s-38.342-16.962-51.379-23.116c-6.517-3.079-11.775-5.6-15.4-7.378l-4.162-2.054-1.075-.55a1.782,1.782,0,0,1-.356-.209,1.762,1.762,0,0,1,.386.144l1.1.488,4.218,1.935,15.488,7.176c13.087,6.039,31.211,14.293,51.443,22.922s38.756,15.916,52.24,21l16,5.955L330.05,383l1.127.437A1.783,1.783,0,0,1,331.553,383.608Z" transform="translate(-184.823 -321.756)" fill="#fff"/>
            </g>
          </g>
          <g id="Grupo_11696" data-name="Grupo 11696" transform="translate(130.295 81.483)" opacity="0.3">
            <g id="Grupo_11695" data-name="Grupo 11695" transform="translate(0)">
              <path id="Trazado_3159" data-name="Trazado 3159" d="M378.73,339.378a3.467,3.467,0,0,1-.4.408c-.3.279-.707.658-1.226,1.143-1.091.991-2.724,2.425-4.872,4.222A148.061,148.061,0,0,1,352.9,358.867c-1.092.616-2.194,1.278-3.376,1.853-1.165.607-2.361,1.217-3.627,1.746a37.141,37.141,0,0,1-8.127,2.671l-2.232.324-2.306-.012c-1.53-.107-3.061-.326-4.617-.566a90.947,90.947,0,0,1-9.472-2.052,184.716,184.716,0,0,1-19.637-6.788c-6.7-2.647-13.57-5.517-20.641-8.387l-72.336-29.68-21.89-9.068-5.939-2.5-1.538-.666a3.581,3.581,0,0,1-.515-.249,3.49,3.49,0,0,1,.542.183l1.563.6,5.987,2.377,21.973,8.862,72.41,29.49c7.07,2.872,13.947,5.747,20.635,8.4a186.278,186.278,0,0,0,19.553,6.8,91.2,91.2,0,0,0,9.4,2.067c3.089.467,6.1.972,8.954.29a36.707,36.707,0,0,0,8.013-2.6c1.257-.517,2.448-1.116,3.609-1.713,1.177-.564,2.276-1.215,3.365-1.821a155.3,155.3,0,0,0,19.4-13.5c2.171-1.761,3.831-3.162,4.95-4.118l1.272-1.091A3.7,3.7,0,0,1,378.73,339.378Z" transform="translate(-176.65 -305.493)" fill="#fff"/>
            </g>
          </g>
          <g id="Grupo_11698" data-name="Grupo 11698" transform="translate(130.69 50.505)">
            <g id="Grupo_11697" data-name="Grupo 11697">
              <path id="Trazado_3160" data-name="Trazado 3160" d="M316.046,350.358a1.742,1.742,0,0,1-.4-.079l-1.141-.3-4.367-1.225c-1.9-.524-4.212-1.2-6.875-2.064-2.667-.844-5.717-1.77-9.04-2.941L289,341.953q-2.707-.995-5.628-2.064c-3.9-1.4-8-3.068-12.334-4.776-8.617-3.538-18-7.665-27.665-12.369C233.717,318,224.7,313.128,216.614,308.5c-4.008-2.373-7.846-4.582-11.344-6.806l-5.085-3.175-4.626-3.028c-2.964-1.9-5.569-3.741-7.873-5.329s-4.269-2.982-5.85-4.158l-3.647-2.7-.937-.715a1.677,1.677,0,0,1-.306-.263,1.749,1.749,0,0,1,.348.206l.979.659,3.722,2.589c1.6,1.142,3.581,2.515,5.912,4.058s4.943,3.364,7.921,5.239l4.646,2.987,5.1,3.138c3.506,2.2,7.35,4.386,11.361,6.74,8.092,4.594,17.1,9.44,26.742,14.178,9.653,4.7,19.009,8.835,27.6,12.4,4.321,1.721,8.406,3.412,12.294,4.829l5.606,2.1,5.209,1.833c3.309,1.2,6.344,2.159,9,3.038s4.947,1.611,6.834,2.175l4.328,1.349,1.122.368A1.846,1.846,0,0,1,316.046,350.358Z" transform="translate(-176.946 -282.324)" fill="#fff"/>
            </g>
          </g>
          <g id="Grupo_11700" data-name="Grupo 11700" transform="translate(147.032 30.486)" opacity="0.3">
            <g id="Grupo_11699" data-name="Grupo 11699">
              <path id="Trazado_3161" data-name="Trazado 3161" d="M312.124,344.092c-.1.163-27.712-16.884-61.659-38.072s-61.4-38.5-61.3-38.666,27.7,16.882,61.666,38.076S312.226,343.929,312.124,344.092Z" transform="translate(-189.168 -267.352)" fill="#fff"/>
            </g>
          </g>
          <g id="Grupo_11702" data-name="Grupo 11702" transform="translate(269.384 113.371)">
            <g id="Grupo_11701" data-name="Grupo 11701">
              <path id="Trazado_3162" data-name="Trazado 3162" d="M291.276,329.883c-.031.214-2.6-.346-5.59.563-3,.856-4.862,2.721-5,2.558-.062-.056.314-.606,1.131-1.293a10.551,10.551,0,0,1,7.808-2.3C290.682,329.545,291.3,329.8,291.276,329.883Z" transform="translate(-280.677 -329.343)" fill="#fff"/>
            </g>
          </g>
          <g id="Grupo_11704" data-name="Grupo 11704" transform="translate(281.907 93.103)">
            <g id="Grupo_11703" data-name="Grupo 11703">
              <path id="Trazado_3163" data-name="Trazado 3163" d="M317.682,314.189a5.744,5.744,0,0,1-1.083.845c-.7.532-1.715,1.3-2.947,2.288l-9.569,7.775c-3.74,3.042-7.159,5.757-9.711,7.628-1.276.937-2.34,1.654-3.094,2.121a4.842,4.842,0,0,1-1.234.62,5.684,5.684,0,0,1,1.083-.845c.7-.531,1.714-1.3,2.947-2.286,2.587-2.1,5.9-4.8,9.571-7.778,3.737-3.039,7.156-5.756,9.708-7.626,1.276-.936,2.34-1.654,3.094-2.121A4.918,4.918,0,0,1,317.682,314.189Z" transform="translate(-290.043 -314.184)" fill="#fff"/>
            </g>
          </g>
          <g id="Grupo_11706" data-name="Grupo 11706" transform="translate(270.247 99.341)">
            <g id="Grupo_11705" data-name="Grupo 11705">
              <path id="Trazado_3164" data-name="Trazado 3164" d="M292.68,320.623c-.067.095-.663-.281-1.707-.628a9.405,9.405,0,0,0-8.172,1.137c-.909.619-1.381,1.145-1.471,1.07-.061-.041.282-.7,1.174-1.461a8.42,8.42,0,0,1,8.648-1.2C292.219,320.031,292.727,320.566,292.68,320.623Z" transform="translate(-281.323 -318.85)" fill="#fff"/>
            </g>
          </g>
          <g id="Grupo_11708" data-name="Grupo 11708" transform="translate(12.364 85.785)">
            <g id="Grupo_11707" data-name="Grupo 11707">
              <path id="Trazado_3165" data-name="Trazado 3165" d="M93.133,308.711a1.323,1.323,0,0,1,0,.35c-.02.27-.045.606-.078,1.019-.088.949-.211,2.257-.365,3.912-.344,3.395-.794,8.31-1.294,14.388-1,12.154-2.028,28.979-2.224,47.585-.179,18.613.507,35.457,1.266,47.628.38,6.086.73,11.009,1.005,14.409.122,1.658.217,2.968.286,3.918l.057,1.022a1.3,1.3,0,0,1,0,.35,1.322,1.322,0,0,1-.067-.344c-.033-.269-.075-.6-.126-1.015-.1-.948-.241-2.253-.417-3.907-.358-3.393-.785-8.314-1.226-14.4-.885-12.171-1.65-29.033-1.472-47.668.2-18.628,1.3-35.469,2.429-47.62.564-6.077,1.088-10.988,1.515-14.375l.5-3.9c.059-.412.107-.745.146-1.012A1.345,1.345,0,0,1,93.133,308.711Z" transform="translate(-88.448 -308.711)" fill="#fff"/>
            </g>
          </g>
          <g id="Grupo_11710" data-name="Grupo 11710" transform="translate(268.777 96.531)">
            <g id="Grupo_11709" data-name="Grupo 11709">
              <path id="Trazado_3166" data-name="Trazado 3166" d="M281.206,342.339a15.421,15.421,0,0,1-.7-3.748,48.071,48.071,0,0,1,1.516-18.263,15.592,15.592,0,0,1,1.308-3.581,30.52,30.52,0,0,1-.83,3.7,61.859,61.859,0,0,0-1.5,18.1A31.175,31.175,0,0,1,281.206,342.339Z" transform="translate(-280.223 -316.748)" fill="#263238"/>
            </g>
          </g>
          <g id="Grupo_11712" data-name="Grupo 11712" transform="translate(290.359 94.262)">
            <g id="Grupo_11711" data-name="Grupo 11711">
              <path id="Trazado_3167" data-name="Trazado 3167" d="M334.738,364.1a2.4,2.4,0,0,1-.249-.6c-.158-.48-.349-1.062-.579-1.764-.23-.772-.54-1.7-.961-2.768-.405-1.068-.828-2.3-1.432-3.6l-.9-2.068q-.523-1.057-1.084-2.191c-.715-1.531-1.651-3.078-2.571-4.738a94.794,94.794,0,0,0-7.045-10.137,102.87,102.87,0,0,0-8.369-9.089,100.62,100.62,0,0,0-7.651-6.589c-1.115-.91-2.185-1.651-3.106-2.331s-1.725-1.246-2.4-1.69l-1.524-1.059a2.279,2.279,0,0,1-.507-.41,2.331,2.331,0,0,1,.582.291l1.6.951c.7.41,1.532.939,2.472,1.6s2.042,1.368,3.181,2.258a90.2,90.2,0,0,1,7.794,6.515,96.216,96.216,0,0,1,8.469,9.117,89.033,89.033,0,0,1,7.057,10.251c.913,1.683,1.836,3.252,2.535,4.807.365.769.733,1.5,1.056,2.225l.864,2.1c.58,1.326.972,2.578,1.345,3.665a27.667,27.667,0,0,1,.853,2.819c.18.718.332,1.314.456,1.805A2.313,2.313,0,0,1,334.738,364.1Z" transform="translate(-296.364 -315.051)" fill="#263238"/>
            </g>
          </g>
          <g id="Grupo_11714" data-name="Grupo 11714" transform="translate(281.678 97.929)" opacity="0.3">
            <g id="Grupo_11713" data-name="Grupo 11713">
              <path id="Trazado_3168" data-name="Trazado 3168" d="M295.342,337.58a32.842,32.842,0,0,0-1.507-5.9,44.643,44.643,0,0,1-1.606-13.881,29.629,29.629,0,0,0,.932,25.167C294.879,341.869,295.508,339.608,295.342,337.58Z" transform="translate(-289.872 -317.794)"/>
            </g>
          </g>
          <g id="Grupo_11716" data-name="Grupo 11716" transform="translate(27.717 81.989)" opacity="0.3">
            <g id="Grupo_11715" data-name="Grupo 11715">
              <path id="Trazado_3169" data-name="Trazado 3169" d="M100.52,317.253a188,188,0,0,0,29.64-3.91A45.186,45.186,0,0,0,128.5,326.6a30.4,30.4,0,0,0,6.589-12.128,18.354,18.354,0,0,0,7.478,12.27,40.081,40.081,0,0,0,.666-13.511q22.121-2.665,43.951-7.273A297.984,297.984,0,0,0,99.93,316.823" transform="translate(-99.93 -305.872)"/>
            </g>
          </g>
          <g id="Grupo_11718" data-name="Grupo 11718" transform="translate(83.246 4.553)">
            <g id="Grupo_11717" data-name="Grupo 11717">
              <path id="Trazado_3170" data-name="Trazado 3170" d="M142.246,261.606c-.181.028-.77-3.014-.784-6.822s.532-6.855.713-6.828c.2.024-.041,3.07-.016,6.826S142.446,261.579,142.246,261.606Z" transform="translate(-141.461 -247.956)" fill="#fff"/>
            </g>
          </g>
          <g id="Grupo_11720" data-name="Grupo 11720" transform="translate(110.508 0.582)" opacity="0.3">
            <g id="Grupo_11719" data-name="Grupo 11719">
              <path id="Trazado_3171" data-name="Trazado 3171" d="M162.336,262.578c-.193,0-.4-3.934-.467-8.791s.037-8.8.23-8.8.4,3.932.467,8.791S162.529,262.575,162.336,262.578Z" transform="translate(-161.851 -244.986)" fill="#fff"/>
            </g>
          </g>
          <g id="Grupo_11722" data-name="Grupo 11722" transform="translate(134.713 7.109)">
            <g id="Grupo_11721" data-name="Grupo 11721">
              <path id="Trazado_3172" data-name="Trazado 3172" d="M180.025,264.624c-.206-.036.283-3.315.267-7.378,0-4.065-.493-7.342-.289-7.378.172-.041.988,3.236.984,7.377C181,261.384,180.2,264.664,180.025,264.624Z" transform="translate(-179.954 -249.868)" fill="#fff"/>
            </g>
          </g>
        </g>
        <g id="Grupo_11725" data-name="Grupo 11725" transform="translate(409.76 277.293)">
          <g id="Grupo_11724" data-name="Grupo 11724">
            <path id="Trazado_3173" data-name="Trazado 3173" d="M332.258,240.416c.124.174-1.986,1.568-3.577,4.141-1.629,2.551-1.971,5.055-2.182,5.018-.172.021-.134-2.673,1.594-5.388C329.789,241.455,332.2,240.25,332.258,240.416Z" transform="translate(-326.432 -240.401)" fill="#664d49"/>
          </g>
        </g>
        <g id="Grupo_11727" data-name="Grupo 11727" transform="translate(419.483 282.767)">
          <g id="Grupo_11726" data-name="Grupo 11726">
            <path id="Trazado_3174" data-name="Trazado 3174" d="M339.561,244.512c.114.179-1.9,1.393-3.5,3.706-1.637,2.29-2.1,4.6-2.3,4.549-.177.008-.005-2.5,1.734-4.948C337.206,245.355,339.508,244.345,339.561,244.512Z" transform="translate(-333.703 -244.495)" fill="#664d49"/>
          </g>
        </g>
        <g id="Grupo_11729" data-name="Grupo 11729" transform="translate(427.976 287.426)">
          <g id="Grupo_11728" data-name="Grupo 11728">
            <path id="Trazado_3175" data-name="Trazado 3175" d="M345.226,247.992c.13.16-1.4,1.495-2.8,3.519-1.419,2.011-2.145,3.9-2.34,3.836-.174-.039.281-2.119,1.769-4.234S345.13,247.843,345.226,247.992Z" transform="translate(-340.056 -247.979)" fill="#664d49"/>
          </g>
        </g>
        <g id="Grupo_11731" data-name="Grupo 11731" transform="translate(397.672 287.914)">
          <g id="Grupo_11730" data-name="Grupo 11730">
            <path id="Trazado_3176" data-name="Trazado 3176" d="M324.094,249.632c-.108.17-1.489-.738-3.4-.582-1.916.1-3.161,1.189-3.292,1.035-.06-.059.163-.432.721-.845a5.023,5.023,0,0,1,5.145-.349C323.874,249.225,324.146,249.565,324.094,249.632Z" transform="translate(-317.391 -248.344)" fill="#664d49"/>
          </g>
        </g>
        <g id="Grupo_11733" data-name="Grupo 11733" transform="translate(410.475 292.041)">
          <g id="Grupo_11732" data-name="Grupo 11732">
            <path id="Trazado_3177" data-name="Trazado 3177" d="M333.083,256.231c-.193.07-.767-1.719-2.528-3.028-1.729-1.352-3.6-1.432-3.589-1.637,0-.084.472-.2,1.243-.1a6.109,6.109,0,0,1,4.637,3.536C333.146,255.724,333.165,256.21,333.083,256.231Z" transform="translate(-326.966 -251.431)" fill="#664d49"/>
          </g>
        </g>
        <g id="Grupo_11735" data-name="Grupo 11735" transform="translate(420.716 296.561)">
          <g id="Grupo_11734" data-name="Grupo 11734">
            <path id="Trazado_3178" data-name="Trazado 3178" d="M342.635,257.683c-.148.144-1.481-1.366-3.768-1.957-2.272-.644-4.185-.012-4.24-.213-.031-.078.405-.357,1.211-.548a6.843,6.843,0,0,1,6.027,1.631C342.465,257.169,342.7,257.631,342.635,257.683Z" transform="translate(-334.626 -254.811)" fill="#664d49"/>
          </g>
        </g>
      </g>
      <path id="Trazado_3186" data-name="Trazado 3186" d="M36.6-10.625H17.813L14.531,0H-.117L20.742-56.875H33.633L54.648,0H39.922ZM21.094-21.211H33.32L27.188-40.937ZM58.789,0V-56.875h20.43q10.977,0,16.7,4.023t5.723,11.68a13.533,13.533,0,0,1-2.031,7.539,11.836,11.836,0,0,1-5.977,4.609,11.987,11.987,0,0,1,6.836,4.375,12.72,12.72,0,0,1,2.383,7.813q0,8.359-5.293,12.559T81.875,0ZM72.5-24.18v13.633h8.984a8.545,8.545,0,0,0,5.7-1.7,5.947,5.947,0,0,0,1.992-4.785q0-7.109-7.07-7.148Zm0-8.984h7.148q4.492-.039,6.406-1.641a5.813,5.813,0,0,0,1.914-4.727q0-3.594-2.07-5.176t-6.68-1.582H72.5Zm83.906,13.906A20.771,20.771,0,0,1,153.2-8.77a19.332,19.332,0,0,1-8.223,7.051,27.987,27.987,0,0,1-12.09,2.5q-11.211,0-17.656-7.3t-6.445-20.625v-2.812A34.427,34.427,0,0,1,111.7-44.59a22.05,22.05,0,0,1,8.379-9.687A23.378,23.378,0,0,1,132.734-57.7q10.352,0,16.641,5.449t7.148,15.02H142.852q-.156-5.2-2.617-7.461t-7.5-2.266q-5.117,0-7.5,3.828t-2.5,12.227v4.023q0,9.1,2.285,13.008t7.871,3.906q4.727,0,7.227-2.227t2.656-7.07Z" transform="translate(1030.195 229.253)" fill="#fff"/>
      <path id="Trazado_3185" data-name="Trazado 3185" d="M-9671.922,2850.831h408.066" transform="translate(10456 -2309.004)" fill="none" stroke="#ffde52" stroke-linecap="round" stroke-width="4"/>
    </g>
    <g id="Grupo_11771" data-name="Grupo 11771" transform="translate(1004.788 188.243)">
      <g id="Grupo_11751" data-name="Grupo 11751" transform="translate(69.05 258.934)">
        <path id="Trazado_3203" data-name="Trazado 3203" d="M127.458,262V235.669H67.617s-3.27,2.643-3.27,12.844c0,9.725,3.27,13.487,3.27,13.487Z" transform="translate(-64.347 -235.669)" fill="#dddddc" stroke="#240b06" stroke-linecap="round" stroke-linejoin="round" stroke-width="1"/>
        <path id="Trazado_3204" data-name="Trazado 3204" d="M119.37,235.669a74.387,74.387,0,0,1,.509,17.23c-.471,3.735-3.658,4.316-7.069,4.787-5.092.7-47.626.251-47.626.251C66.133,261.2,67.1,262,67.1,262H126.94V235.669Z" transform="translate(-63.828 -235.669)" fill="#bfbfbe" style="mix-blend-mode: multiply;isolation: isolate"/>
        <path id="Trazado_3205" data-name="Trazado 3205" d="M157.2,261.992s1.305-4.253,1.305-13.061c0-9.314-1.305-13.262-1.305-13.262H101.539a74.976,74.976,0,0,1,1.268,13.364,59.415,59.415,0,0,1-1.268,12.959Z" transform="translate(-41.307 -235.669)" fill="#ffde52" stroke="#240b06" stroke-linecap="round" stroke-linejoin="round" stroke-width="1"/>
        <path id="Trazado_3206" data-name="Trazado 3206" d="M102.242,257.937c.062.044,25.037.531,30.3.531,2.638,0,5.275-.035,7.91.007,2.449.04,11.5.07,13.234-1.377,1.458-1.211,2.549-3.532,2.815-6.637a70.977,70.977,0,0,0-.542-14.792H157.2s1.305,3.948,1.305,13.262c0,8.808-1.305,13.061-1.305,13.061H101.539A32.04,32.04,0,0,0,102.242,257.937Z" transform="translate(-41.307 -235.669)" fill="#ffa800" style="mix-blend-mode: darken;isolation: isolate"/>
        <g id="Grupo_11748" data-name="Grupo 11748" transform="translate(61 3.542)">
          <line id="Lnea_60" data-name="Lnea 60" x2="6.027" transform="translate(0.626 17.501)" fill="#dddddc" stroke="#240b06" stroke-linecap="round" stroke-linejoin="round" stroke-width="1"/>
          <line id="Lnea_61" data-name="Lnea 61" x2="6.344" transform="translate(0.677 15.001)" fill="#dddddc" stroke="#240b06" stroke-linecap="round" stroke-linejoin="round" stroke-width="1"/>
          <line id="Lnea_62" data-name="Lnea 62" x2="6.636" transform="translate(0.645 10)" fill="#dddddc" stroke="#240b06" stroke-linecap="round" stroke-linejoin="round" stroke-width="1"/>
          <line id="Lnea_63" data-name="Lnea 63" x2="6.344" transform="translate(0.917 7.501)" fill="#dddddc" stroke="#240b06" stroke-linecap="round" stroke-linejoin="round" stroke-width="1"/>
          <line id="Lnea_64" data-name="Lnea 64" x2="8.184" transform="translate(0.599 12.5)" fill="#dddddc" stroke="#240b06" stroke-linecap="round" stroke-linejoin="round" stroke-width="1"/>
          <line id="Lnea_65" data-name="Lnea 65" x2="6.026" transform="translate(0.487 2.5)" fill="#dddddc" stroke="#240b06" stroke-linecap="round" stroke-linejoin="round" stroke-width="1"/>
          <line id="Lnea_66" data-name="Lnea 66" x2="6.128" transform="translate(0.504 5.001)" fill="#dddddc" stroke="#240b06" stroke-linecap="round" stroke-linejoin="round" stroke-width="1"/>
          <line id="Lnea_67" data-name="Lnea 67" x2="8.366" fill="#dddddc" stroke="#240b06" stroke-linecap="round" stroke-linejoin="round" stroke-width="1"/>
        </g>
        <g id="Grupo_11750" data-name="Grupo 11750" transform="translate(62.572 1.982)">
          <path id="Trazado_3207" data-name="Trazado 3207" d="M121.764,238.744c.342,0,.619-.4.619-.9h0c0-.5-.277-.9-.619-.9H103.6c-.342,0-.619.4-.619.9h0c0,.5.277.9.619.9Z" transform="translate(-102.984 -236.857)" fill="#fff" style="mix-blend-mode: soft-light;isolation: isolate"/>
          <path id="Trazado_3208" data-name="Trazado 3208" d="M120.2,238.742a.9.9,0,0,0,.865-.925h0a.9.9,0,0,0-.865-.925h-3.945a.9.9,0,0,0-.863.925h0a.9.9,0,0,0,.863.925Z" transform="translate(-95.295 -236.893)" fill="#fff" style="mix-blend-mode: soft-light;isolation: isolate"/>
        </g>
      </g>
      <g id="Grupo_11762" data-name="Grupo 11762" transform="translate(56.755 285.71)">
        <g id="Grupo_11758" data-name="Grupo 11758" transform="translate(0 0.076)">
          <path id="Trazado_3215" data-name="Trazado 3215" d="M105.395,268.826H61.121s-4.366,3.158-4.366,15.348c0,11.623,4.366,16.117,4.366,16.117h44.273Z" transform="translate(-56.755 -268.826)" fill="#dddddc" stroke="#240b06" stroke-linecap="round" stroke-linejoin="round" stroke-width="1"/>
          <path id="Trazado_3216" data-name="Trazado 3216" d="M104.7,285.391c-19.035.128-46.829-.134-46.829-.134,1.265,3.9,2.556,4.855,2.556,4.855H104.7Z" transform="translate(-56.062 -258.647)" fill="#bfbfbe" style="mix-blend-mode: multiply;isolation: isolate"/>
          <g id="Grupo_11757" data-name="Grupo 11757" transform="translate(0.167 2.593)">
            <line id="Lnea_93" data-name="Lnea 93" x2="6.551" transform="translate(0.498 19.628)" fill="#dddddc" stroke="#240b06" stroke-linecap="round" stroke-linejoin="round" stroke-width="1"/>
            <line id="Lnea_94" data-name="Lnea 94" x2="6.008" transform="translate(0.104 16.824)" fill="#dddddc" stroke="#240b06" stroke-linecap="round" stroke-linejoin="round" stroke-width="1"/>
            <line id="Lnea_95" data-name="Lnea 95" x2="10.174" transform="translate(1.018 22.432)" fill="#dddddc" stroke="#240b06" stroke-linecap="round" stroke-linejoin="round" stroke-width="1"/>
            <line id="Lnea_96" data-name="Lnea 96" x2="7.199" transform="translate(0.078 11.216)" fill="#dddddc" stroke="#240b06" stroke-linecap="round" stroke-linejoin="round" stroke-width="1"/>
            <line id="Lnea_97" data-name="Lnea 97" x2="6.01" transform="translate(0.332 8.412)" fill="#dddddc" stroke="#240b06" stroke-linecap="round" stroke-linejoin="round" stroke-width="1"/>
            <line id="Lnea_98" data-name="Lnea 98" x2="7.995" transform="translate(0 14.02)" fill="#dddddc" stroke="#240b06" stroke-linecap="round" stroke-linejoin="round" stroke-width="1"/>
            <line id="Lnea_99" data-name="Lnea 99" x2="6.551" transform="translate(1.409 2.804)" fill="#dddddc" stroke="#240b06" stroke-linecap="round" stroke-linejoin="round" stroke-width="1"/>
            <line id="Lnea_100" data-name="Lnea 100" x2="6.01" transform="translate(1.017 5.607)" fill="#dddddc" stroke="#240b06" stroke-linecap="round" stroke-linejoin="round" stroke-width="1"/>
            <line id="Lnea_101" data-name="Lnea 101" x2="9.84" transform="translate(2.263)" fill="#dddddc" stroke="#240b06" stroke-linecap="round" stroke-linejoin="round" stroke-width="1"/>
          </g>
        </g>
        <path id="Trazado_3217" data-name="Trazado 3217" d="M180.857,300.236s1.564-5.082,1.564-15.609c0-11.131-1.564-15.848-1.564-15.848H82.786A39.386,39.386,0,0,1,86.4,284.558a34.174,34.174,0,0,1-3.618,15.678Z" transform="translate(-40.629 -268.779)" fill="#26c179" stroke="#240b06" stroke-linecap="round" stroke-linejoin="round" stroke-width="1"/>
        <path id="Trazado_3218" data-name="Trazado 3218" d="M84.765,295.47c.073.052,60.335.555,66.622.555,3.152,0,6.3-.044,9.451.008,2.928.049,13.736.081,15.816-1.645,1.743-1.448,3.045-4.224,3.365-7.932a84.97,84.97,0,0,0-.648-17.677h1.485s1.564,4.717,1.564,15.848c0,10.527-1.564,15.609-1.564,15.609H82.786A8.03,8.03,0,0,0,84.765,295.47Z" transform="translate(-40.629 -268.779)" fill="#6c8a28" style="mix-blend-mode: darken;isolation: isolate"/>
        <g id="Grupo_11760" data-name="Grupo 11760" transform="translate(58.415 2.52)">
          <path id="Trazado_3219" data-name="Trazado 3219" d="M115.269,272.547c.408,0,.738-.479.738-1.072h0c0-.591-.33-1.07-.738-1.07h-21.7c-.41,0-.74.479-.74,1.07h0c0,.593.33,1.072.74,1.072Z" transform="translate(-92.825 -270.292)" fill="#fff" style="mix-blend-mode: soft-light;isolation: isolate"/>
          <path id="Trazado_3220" data-name="Trazado 3220" d="M113.406,272.544a1.071,1.071,0,0,0,1.033-1.1h0a1.072,1.072,0,0,0-1.033-1.1h-4.713a1.072,1.072,0,0,0-1.035,1.1h0a1.071,1.071,0,0,0,1.035,1.1Z" transform="translate(-83.636 -270.335)" fill="#fff" style="mix-blend-mode: soft-light;isolation: isolate"/>
        </g>
        <g id="Grupo_11761" data-name="Grupo 11761" transform="translate(60 8.408)">
          <rect id="Rectngulo_2767" data-name="Rectngulo 2767" width="68.064" height="12.685" transform="translate(0 0)" fill="#63e3a8" stroke="#240b06" stroke-linecap="round" stroke-linejoin="round" stroke-width="1"/>
          <path id="Trazado_3221" data-name="Trazado 3221" d="M93.8,283.966c2.909-.007,52.483.4,55.6.277a19.044,19.044,0,0,0,5.563-.6,4.083,4.083,0,0,0,2.6-3.513,31.551,31.551,0,0,0,.058-6.16h4.245v12.685H93.8Z" transform="translate(-93.804 -273.971)" fill="#26c179" style="mix-blend-mode: darken;isolation: isolate"/>
        </g>
      </g>
      <g id="Grupo_11770" data-name="Grupo 11770" transform="translate(57.621 317.696)">
        <path id="Trazado_3222" data-name="Trazado 3222" d="M122.759,320V288.537H60.683S57.29,291.7,57.29,303.885c0,11.623,3.393,16.117,3.393,16.117Z" transform="translate(-57.29 -288.526)" fill="#dddddc" stroke="#240b06" stroke-linecap="round" stroke-linejoin="round" stroke-width="1"/>
        <path id="Trazado_3223" data-name="Trazado 3223" d="M111.443,288.53a102.149,102.149,0,0,1,.53,20.587c-.489,4.467-3.794,5.161-7.336,5.72-5.28.841-46.478.314-46.478.314.983,3.9,1.985,4.855,1.985,4.855h62.076V288.541Z" transform="translate(-56.752 -288.53)" fill="#bfbfbe" style="mix-blend-mode: multiply;isolation: isolate"/>
        <path id="Trazado_3224" data-name="Trazado 3224" d="M172.9,319.992s1.561-5.082,1.561-15.607c0-11.131-1.561-15.848-1.561-15.848H94.229a53.048,53.048,0,0,1,2.462,15.631,48.7,48.7,0,0,1-2.462,15.824Z" transform="translate(-34.407 -288.526)" fill="#23dcd5" stroke="#240b06" stroke-linecap="round" stroke-linejoin="round" stroke-width="1"/>
        <g id="Grupo_11763" data-name="Grupo 11763" transform="translate(0.171 2.604)">
          <line id="Lnea_110" data-name="Lnea 110" x2="6.551" transform="translate(0.495 19.628)" fill="#dddddc" stroke="#240b06" stroke-linecap="round" stroke-linejoin="round" stroke-width="1"/>
          <line id="Lnea_111" data-name="Lnea 111" x2="6.01" transform="translate(0.103 16.824)" fill="#dddddc" stroke="#240b06" stroke-linecap="round" stroke-linejoin="round" stroke-width="1"/>
          <line id="Lnea_112" data-name="Lnea 112" x2="10.172" transform="translate(1.017 22.432)" fill="#dddddc" stroke="#240b06" stroke-linecap="round" stroke-linejoin="round" stroke-width="1"/>
          <line id="Lnea_113" data-name="Lnea 113" x2="7.199" transform="translate(0.074 11.216)" fill="#dddddc" stroke="#240b06" stroke-linecap="round" stroke-linejoin="round" stroke-width="1"/>
          <line id="Lnea_114" data-name="Lnea 114" x2="6.008" transform="translate(0.331 8.412)" fill="#dddddc" stroke="#240b06" stroke-linecap="round" stroke-linejoin="round" stroke-width="1"/>
          <line id="Lnea_115" data-name="Lnea 115" x2="7.993" transform="translate(0 14.02)" fill="#dddddc" stroke="#240b06" stroke-linecap="round" stroke-linejoin="round" stroke-width="1"/>
          <line id="Lnea_116" data-name="Lnea 116" x2="6.554" transform="translate(1.406 2.804)" fill="#dddddc" stroke="#240b06" stroke-linecap="round" stroke-linejoin="round" stroke-width="1"/>
          <line id="Lnea_117" data-name="Lnea 117" x2="6.008" transform="translate(1.014 5.609)" fill="#dddddc" stroke="#240b06" stroke-linecap="round" stroke-linejoin="round" stroke-width="1"/>
          <line id="Lnea_118" data-name="Lnea 118" x2="9.84" transform="translate(2.26)" fill="#dddddc" stroke="#240b06" stroke-linecap="round" stroke-linejoin="round" stroke-width="1"/>
        </g>
        <g id="Grupo_11765" data-name="Grupo 11765" transform="translate(74.775 2.379)">
          <path id="Trazado_3225" data-name="Trazado 3225" d="M125.9,292.211c.408,0,.742-.479.742-1.072h0c0-.591-.334-1.07-.742-1.07H104.2c-.408,0-.738.479-.738,1.07h0c0,.593.33,1.072.738,1.072Z" transform="translate(-103.462 -289.956)" fill="#fff" style="mix-blend-mode: soft-light;isolation: isolate"/>
          <path id="Trazado_3226" data-name="Trazado 3226" d="M124.04,292.208a1.07,1.07,0,0,0,1.033-1.1h0a1.071,1.071,0,0,0-1.033-1.1h-4.713a1.07,1.07,0,0,0-1.032,1.1h0a1.069,1.069,0,0,0,1.032,1.1Z" transform="translate(-94.273 -289.999)" fill="#fff" style="mix-blend-mode: soft-light;isolation: isolate"/>
        </g>
        <path id="Trazado_3227" data-name="Trazado 3227" d="M95.486,315.626c.075.052,41.66.155,47.946.155,3.153,0,6.3-.044,9.451.008,2.928.049,13.738.081,15.817-1.645,1.741-1.446,3.043-4.222,3.365-7.931a85.041,85.041,0,0,0-.651-17.677H172.9s1.561,4.718,1.561,15.848c0,10.525-1.561,15.607-1.561,15.607H94.229S95.108,316.983,95.486,315.626Z" transform="translate(-34.407 -288.526)" fill="#0d7470" style="mix-blend-mode: darken;isolation: isolate"/>
      </g>
    </g>
  </g>
</svg>
