<svg xmlns="http://www.w3.org/2000/svg" width="844.308" height="87.419" viewBox="0 0 844.308 87.419">
  <g id="Grupo_13664" data-name="Grupo 13664" transform="translate(-238 -2894)">
    <g id="Grupo_13595" data-name="Grupo 13595" transform="translate(0 -51.79)">
      <path id="Trazado_11156" data-name="Trazado 11156" d="M15.918,0H12.842V-7.9H4.9V0H1.807V-17.773H4.9v7.4h7.947v-7.4h3.076ZM25.1.244a6.137,6.137,0,0,1-4.572-1.776,6.443,6.443,0,0,1-1.752-4.73v-.366a7.925,7.925,0,0,1,.763-3.534,5.807,5.807,0,0,1,2.142-2.423,5.664,5.664,0,0,1,3.076-.867,5.184,5.184,0,0,1,4.169,1.721A7.278,7.278,0,0,1,30.4-6.86v1.2h-8.63a3.966,3.966,0,0,0,1.093,2.588,3.28,3.28,0,0,0,2.411.952,4.017,4.017,0,0,0,3.32-1.648l1.6,1.526A5.34,5.34,0,0,1,28.07-.409,6.631,6.631,0,0,1,25.1.244Zm-.354-11.316a2.5,2.5,0,0,0-1.971.854,4.429,4.429,0,0,0-.958,2.38h5.652v-.22a3.605,3.605,0,0,0-.793-2.252A2.479,2.479,0,0,0,24.744-11.072Zm14.868.574a7.34,7.34,0,0,0-1.208-.1,2.721,2.721,0,0,0-2.747,1.563V0H32.69V-13.208h2.832l.073,1.477a3.342,3.342,0,0,1,2.979-1.721,2.777,2.777,0,0,1,1.05.171Zm4.626-2.71.085,1.526a4.749,4.749,0,0,1,3.845-1.77q4.126,0,4.2,4.724V0H49.4V-8.557a2.72,2.72,0,0,0-.543-1.862,2.285,2.285,0,0,0-1.776-.6A2.858,2.858,0,0,0,44.409-9.4V0H41.443V-13.208ZM63.281,0a4.578,4.578,0,0,1-.342-1.233A4.617,4.617,0,0,1,59.473.244,4.66,4.66,0,0,1,56.226-.891,3.632,3.632,0,0,1,54.968-3.7,3.75,3.75,0,0,1,56.537-6.94a7.6,7.6,0,0,1,4.486-1.129h1.819v-.867a2.314,2.314,0,0,0-.574-1.642,2.274,2.274,0,0,0-1.746-.616,2.613,2.613,0,0,0-1.66.507A1.568,1.568,0,0,0,58.215-9.4H55.249a3.292,3.292,0,0,1,.72-2.032,4.8,4.8,0,0,1,1.959-1.483,6.882,6.882,0,0,1,2.765-.537,5.542,5.542,0,0,1,3.7,1.166,4.157,4.157,0,0,1,1.416,3.278v5.957a6.751,6.751,0,0,0,.5,2.844V0ZM60.022-2.136a3.374,3.374,0,0,0,1.654-.427,2.854,2.854,0,0,0,1.166-1.147V-6.2h-1.6a4.373,4.373,0,0,0-2.478.574A1.859,1.859,0,0,0,57.935-4,1.733,1.733,0,0,0,58.5-2.643,2.2,2.2,0,0,0,60.022-2.136ZM61.67-18.75h3.381l-3.381,3.7H59.29Zm10,5.542.085,1.526a4.749,4.749,0,0,1,3.845-1.77q4.126,0,4.2,4.724V0H76.831V-8.557a2.72,2.72,0,0,0-.543-1.862,2.285,2.285,0,0,0-1.776-.6A2.858,2.858,0,0,0,71.838-9.4V0H68.872V-13.208Zm31.226,7.422a6.417,6.417,0,0,1-2.1,4.437A7.158,7.158,0,0,1,95.923.244,6.931,6.931,0,0,1,92.181-.763a6.61,6.61,0,0,1-2.5-2.863,10.33,10.33,0,0,1-.916-4.309v-1.66a10.4,10.4,0,0,1,.891-4.431,6.716,6.716,0,0,1,2.557-2.954,7.134,7.134,0,0,1,3.851-1.038,6.853,6.853,0,0,1,4.736,1.6,6.681,6.681,0,0,1,2.087,4.517H99.817A4.39,4.39,0,0,0,98.7-14.667a3.692,3.692,0,0,0-2.631-.848,3.607,3.607,0,0,0-3.094,1.471,7.346,7.346,0,0,0-1.1,4.315v1.575A7.793,7.793,0,0,0,92.9-3.76a3.424,3.424,0,0,0,3.021,1.514,3.993,3.993,0,0,0,2.734-.818,4.265,4.265,0,0,0,1.16-2.722Zm1.917-.94a7.788,7.788,0,0,1,.769-3.5,5.617,5.617,0,0,1,2.161-2.393,6.088,6.088,0,0,1,3.2-.836,5.769,5.769,0,0,1,4.34,1.721,6.77,6.77,0,0,1,1.8,4.565l.012.7a7.858,7.858,0,0,1-.751,3.491A5.549,5.549,0,0,1,114.191-.6a6.132,6.132,0,0,1-3.229.842,5.729,5.729,0,0,1-4.474-1.862A7.13,7.13,0,0,1,104.81-6.58Zm2.966.256a5.322,5.322,0,0,0,.842,3.192,2.738,2.738,0,0,0,2.344,1.154A2.708,2.708,0,0,0,113.3-3.3a5.878,5.878,0,0,0,.836-3.43,5.253,5.253,0,0,0-.861-3.174,2.748,2.748,0,0,0-2.338-1.172,2.723,2.723,0,0,0-2.307,1.154A5.767,5.767,0,0,0,107.776-6.47ZM126.514-10.5a7.34,7.34,0,0,0-1.208-.1,2.721,2.721,0,0,0-2.747,1.563V0h-2.966V-13.208h2.832l.073,1.477a3.342,3.342,0,0,1,2.979-1.721,2.777,2.777,0,0,1,1.05.171Zm6.2-5.92v3.21h2.332v2.2h-2.332v7.373a1.624,1.624,0,0,0,.3,1.093,1.387,1.387,0,0,0,1.068.336,4.569,4.569,0,0,0,1.038-.122V-.037a7.306,7.306,0,0,1-1.953.281q-3.418,0-3.418-3.772v-7.483h-2.173v-2.2h2.173v-3.21ZM143.127.244a6.137,6.137,0,0,1-4.572-1.776,6.443,6.443,0,0,1-1.752-4.73v-.366a7.926,7.926,0,0,1,.763-3.534,5.807,5.807,0,0,1,2.142-2.423,5.664,5.664,0,0,1,3.076-.867,5.184,5.184,0,0,1,4.169,1.721,7.278,7.278,0,0,1,1.471,4.871v1.2h-8.63a3.966,3.966,0,0,0,1.093,2.588,3.28,3.28,0,0,0,2.411.952,4.017,4.017,0,0,0,3.32-1.648l1.6,1.526A5.34,5.34,0,0,1,146.1-.409,6.631,6.631,0,0,1,143.127.244Zm-.354-11.316a2.5,2.5,0,0,0-1.971.854,4.429,4.429,0,0,0-.958,2.38H145.5v-.22a3.605,3.605,0,0,0-.793-2.252A2.479,2.479,0,0,0,142.773-11.072Zm.671-7.678h3.381l-3.381,3.7h-2.38ZM158.13-3.589a1.345,1.345,0,0,0-.653-1.208,6.946,6.946,0,0,0-2.167-.732,11.139,11.139,0,0,1-2.527-.806,3.372,3.372,0,0,1-2.222-3.113A3.516,3.516,0,0,1,152-12.3a5.694,5.694,0,0,1,3.662-1.147,5.925,5.925,0,0,1,3.827,1.172,3.719,3.719,0,0,1,1.459,3.04h-2.966a1.828,1.828,0,0,0-.635-1.422,2.433,2.433,0,0,0-1.685-.568,2.629,2.629,0,0,0-1.593.452,1.424,1.424,0,0,0-.616,1.208,1.2,1.2,0,0,0,.574,1.062,7.89,7.89,0,0,0,2.319.763,10.979,10.979,0,0,1,2.74.916,3.881,3.881,0,0,1,1.477,1.276,3.253,3.253,0,0,1,.482,1.807A3.441,3.441,0,0,1,159.57-.861a6.3,6.3,0,0,1-3.87,1.1,6.83,6.83,0,0,1-2.893-.586,4.761,4.761,0,0,1-1.978-1.611,3.814,3.814,0,0,1-.708-2.209H153a2.09,2.09,0,0,0,.793,1.617,3.083,3.083,0,0,0,1.941.568,3,3,0,0,0,1.782-.446A1.379,1.379,0,0,0,158.13-3.589Zm17.151,1.465a2.682,2.682,0,0,0,1.843-.647,2.21,2.21,0,0,0,.781-1.6h2.8a4.357,4.357,0,0,1-.769,2.3,5.044,5.044,0,0,1-1.953,1.691,5.82,5.82,0,0,1-2.661.623,5.631,5.631,0,0,1-4.395-1.794A7.117,7.117,0,0,1,169.3-6.506v-.305a7,7,0,0,1,1.611-4.828,5.58,5.58,0,0,1,4.395-1.813,5.427,5.427,0,0,1,3.839,1.373A4.919,4.919,0,0,1,180.7-8.472h-2.8a2.716,2.716,0,0,0-.775-1.868,2.494,2.494,0,0,0-1.849-.732,2.61,2.61,0,0,0-2.222,1.044,5.326,5.326,0,0,0-.793,3.168v.476a5.414,5.414,0,0,0,.775,3.2A2.608,2.608,0,0,0,175.281-2.124Zm7.1-4.6a7.788,7.788,0,0,1,.769-3.5,5.617,5.617,0,0,1,2.161-2.393,6.088,6.088,0,0,1,3.2-.836,5.769,5.769,0,0,1,4.34,1.721,6.77,6.77,0,0,1,1.8,4.565l.012.7a7.858,7.858,0,0,1-.751,3.491A5.549,5.549,0,0,1,191.766-.6a6.132,6.132,0,0,1-3.229.842,5.729,5.729,0,0,1-4.474-1.862,7.13,7.13,0,0,1-1.678-4.962Zm2.966.256a5.322,5.322,0,0,0,.842,3.192,2.738,2.738,0,0,0,2.344,1.154A2.708,2.708,0,0,0,190.875-3.3a5.878,5.878,0,0,0,.836-3.43,5.253,5.253,0,0,0-.861-3.174,2.748,2.748,0,0,0-2.338-1.172,2.723,2.723,0,0,0-2.307,1.154A5.767,5.767,0,0,0,185.352-6.47Zm14.575-6.738.085,1.526a4.749,4.749,0,0,1,3.845-1.77q4.126,0,4.2,4.724V0H205.09V-8.557a2.72,2.72,0,0,0-.543-1.862,2.285,2.285,0,0,0-1.776-.6A2.858,2.858,0,0,0,200.1-9.4V0h-2.966V-13.208Zm10.6,6.494a7.8,7.8,0,0,1,1.416-4.919,4.6,4.6,0,0,1,3.833-1.819,4.325,4.325,0,0,1,3.5,1.55l.171-1.306h2.637V5.078h-2.966v-6.2A4.427,4.427,0,0,1,215.747.244a4.558,4.558,0,0,1-3.8-1.849A8.172,8.172,0,0,1,210.522-6.714Zm2.966.256a5.512,5.512,0,0,0,.8,3.18A2.549,2.549,0,0,0,216.5-2.124a2.81,2.81,0,0,0,2.612-1.5V-9.631a2.812,2.812,0,0,0-2.588-1.44A2.592,2.592,0,0,0,214.3-9.937,6.014,6.014,0,0,0,213.489-6.458Zm19.788,5.164A4.6,4.6,0,0,1,229.565.244a4.1,4.1,0,0,1-3.253-1.257,5.349,5.349,0,0,1-1.1-3.638v-8.557h2.966v8.521q0,2.515,2.087,2.515a2.932,2.932,0,0,0,2.917-1.55v-9.485h2.966V0h-2.8ZM242.322,0h-2.966V-13.208h2.966Zm-3.149-16.638a1.574,1.574,0,0,1,.433-1.135,1.637,1.637,0,0,1,1.239-.452,1.658,1.658,0,0,1,1.245.452,1.562,1.562,0,0,1,.439,1.135,1.526,1.526,0,0,1-.439,1.117,1.671,1.671,0,0,1-1.245.446,1.65,1.65,0,0,1-1.239-.446A1.538,1.538,0,0,1,239.172-16.638ZM252.954-3.589A1.345,1.345,0,0,0,252.3-4.8a6.946,6.946,0,0,0-2.167-.732,11.139,11.139,0,0,1-2.527-.806,3.372,3.372,0,0,1-2.222-3.113,3.516,3.516,0,0,1,1.44-2.856,5.694,5.694,0,0,1,3.662-1.147,5.925,5.925,0,0,1,3.827,1.172,3.719,3.719,0,0,1,1.459,3.04h-2.966a1.828,1.828,0,0,0-.635-1.422,2.433,2.433,0,0,0-1.685-.568,2.629,2.629,0,0,0-1.593.452,1.424,1.424,0,0,0-.616,1.208,1.2,1.2,0,0,0,.574,1.062,7.89,7.89,0,0,0,2.319.763,10.979,10.979,0,0,1,2.74.916,3.881,3.881,0,0,1,1.477,1.276,3.253,3.253,0,0,1,.482,1.807,3.441,3.441,0,0,1-1.477,2.887,6.3,6.3,0,0,1-3.87,1.1,6.83,6.83,0,0,1-2.893-.586,4.761,4.761,0,0,1-1.978-1.611,3.814,3.814,0,0,1-.708-2.209h2.881a2.09,2.09,0,0,0,.793,1.617,3.083,3.083,0,0,0,1.941.568,3,3,0,0,0,1.782-.446A1.379,1.379,0,0,0,252.954-3.589Zm9.216-12.83v3.21H264.5v2.2H262.17v7.373a1.624,1.624,0,0,0,.3,1.093,1.387,1.387,0,0,0,1.068.336,4.57,4.57,0,0,0,1.038-.122V-.037a7.306,7.306,0,0,1-1.953.281q-3.418,0-3.418-3.772v-7.483h-2.173v-2.2H259.2v-3.21Zm3.674,9.692a7.788,7.788,0,0,1,.769-3.5,5.617,5.617,0,0,1,2.161-2.393,6.088,6.088,0,0,1,3.2-.836,5.769,5.769,0,0,1,4.34,1.721,6.77,6.77,0,0,1,1.8,4.565l.012.7a7.858,7.858,0,0,1-.751,3.491A5.549,5.549,0,0,1,275.226-.6,6.132,6.132,0,0,1,272,.244a5.729,5.729,0,0,1-4.474-1.862,7.13,7.13,0,0,1-1.678-4.962Zm2.966.256a5.322,5.322,0,0,0,.842,3.192A2.738,2.738,0,0,0,272-2.124,2.708,2.708,0,0,0,274.335-3.3a5.878,5.878,0,0,0,.836-3.43A5.253,5.253,0,0,0,274.31-9.9a2.748,2.748,0,0,0-2.338-1.172,2.723,2.723,0,0,0-2.307,1.154A5.767,5.767,0,0,0,268.811-6.47Zm3.979-12.28h3.381l-3.381,3.7h-2.38ZM294.751,0a4.578,4.578,0,0,1-.342-1.233A4.617,4.617,0,0,1,290.942.244,4.66,4.66,0,0,1,287.7-.891,3.632,3.632,0,0,1,286.438-3.7a3.75,3.75,0,0,1,1.569-3.241,7.6,7.6,0,0,1,4.486-1.129h1.819v-.867a2.314,2.314,0,0,0-.574-1.642,2.274,2.274,0,0,0-1.746-.616,2.613,2.613,0,0,0-1.66.507,1.568,1.568,0,0,0-.647,1.288h-2.966a3.292,3.292,0,0,1,.72-2.032,4.8,4.8,0,0,1,1.959-1.483,6.882,6.882,0,0,1,2.765-.537,5.542,5.542,0,0,1,3.7,1.166,4.157,4.157,0,0,1,1.416,3.278v5.957a6.751,6.751,0,0,0,.5,2.844V0Zm-3.259-2.136a3.374,3.374,0,0,0,1.654-.427,2.854,2.854,0,0,0,1.166-1.147V-6.2h-1.6a4.373,4.373,0,0,0-2.478.574A1.859,1.859,0,0,0,289.4-4a1.733,1.733,0,0,0,.568,1.361A2.2,2.2,0,0,0,291.492-2.136ZM310.9-17.773,316.028-4.15l5.115-13.623h3.992V0h-3.076V-5.859l.305-7.837L317.114,0H314.9l-5.237-13.684.305,7.825V0H306.9V-17.773ZM334.314.244a6.137,6.137,0,0,1-4.572-1.776,6.443,6.443,0,0,1-1.752-4.73v-.366a7.925,7.925,0,0,1,.763-3.534,5.807,5.807,0,0,1,2.142-2.423,5.664,5.664,0,0,1,3.076-.867,5.184,5.184,0,0,1,4.169,1.721,7.278,7.278,0,0,1,1.471,4.871v1.2h-8.63a3.966,3.966,0,0,0,1.093,2.588,3.28,3.28,0,0,0,2.411.952,4.017,4.017,0,0,0,3.32-1.648l1.6,1.526a5.34,5.34,0,0,1-2.118,1.837A6.631,6.631,0,0,1,334.314.244Zm-.354-11.316a2.5,2.5,0,0,0-1.971.854,4.429,4.429,0,0,0-.958,2.38h5.652v-.22a3.605,3.605,0,0,0-.793-2.252A2.479,2.479,0,0,0,333.96-11.072Zm.671-7.678h3.381l-3.381,3.7h-2.38Zm12.024,9.888,2.515-4.346h3.3L348.425-6.7,352.6,0h-3.271l-2.637-4.517L344.067,0h-3.3l4.175-6.7-4.028-6.506h3.271ZM357.642,0h-2.966V-13.208h2.966Zm-3.149-16.638a1.574,1.574,0,0,1,.433-1.135,1.637,1.637,0,0,1,1.239-.452,1.658,1.658,0,0,1,1.245.452,1.562,1.562,0,0,1,.439,1.135,1.526,1.526,0,0,1-.439,1.117,1.671,1.671,0,0,1-1.245.446,1.65,1.65,0,0,1-1.239-.446A1.538,1.538,0,0,1,354.492-16.638ZM366.3-2.124a2.682,2.682,0,0,0,1.843-.647,2.21,2.21,0,0,0,.781-1.6h2.8a4.357,4.357,0,0,1-.769,2.3,5.044,5.044,0,0,1-1.953,1.691,5.82,5.82,0,0,1-2.661.623,5.631,5.631,0,0,1-4.395-1.794,7.117,7.117,0,0,1-1.624-4.956v-.305a7,7,0,0,1,1.611-4.828,5.58,5.58,0,0,1,4.395-1.813,5.427,5.427,0,0,1,3.839,1.373,4.919,4.919,0,0,1,1.556,3.607h-2.8a2.716,2.716,0,0,0-.775-1.868,2.494,2.494,0,0,0-1.849-.732,2.61,2.61,0,0,0-2.222,1.044,5.326,5.326,0,0,0-.793,3.168v.476a5.414,5.414,0,0,0,.775,3.2A2.608,2.608,0,0,0,366.3-2.124Zm7.1-4.6a7.788,7.788,0,0,1,.769-3.5,5.617,5.617,0,0,1,2.161-2.393,6.088,6.088,0,0,1,3.2-.836,5.769,5.769,0,0,1,4.34,1.721,6.77,6.77,0,0,1,1.8,4.565l.012.7a7.858,7.858,0,0,1-.751,3.491A5.549,5.549,0,0,1,382.782-.6a6.132,6.132,0,0,1-3.229.842,5.729,5.729,0,0,1-4.474-1.862A7.13,7.13,0,0,1,373.4-6.58Zm2.966.256a5.322,5.322,0,0,0,.842,3.192,2.738,2.738,0,0,0,2.344,1.154A2.708,2.708,0,0,0,381.891-3.3a5.878,5.878,0,0,0,.836-3.43,5.253,5.253,0,0,0-.861-3.174,2.748,2.748,0,0,0-2.338-1.172,2.723,2.723,0,0,0-2.307,1.154A5.767,5.767,0,0,0,376.367-6.47Z" transform="translate(243.096 2983.5)" fill="#02255f"/>
      <path id="Trazado_11157" data-name="Trazado 11157" d="M5.548-6.021A8.376,8.376,0,0,1,2.213-7.64a3.093,3.093,0,0,1-1.044-2.37A3.267,3.267,0,0,1,2.445-12.65a5.07,5.07,0,0,1,3.317-1.044,5.534,5.534,0,0,1,2.482.538,4.081,4.081,0,0,1,1.688,1.484,3.8,3.8,0,0,1,.6,2.069H8.739a2.457,2.457,0,0,0-.779-1.925,3.176,3.176,0,0,0-2.2-.7,3.249,3.249,0,0,0-2.055.58,1.933,1.933,0,0,0-.738,1.61,1.739,1.739,0,0,0,.7,1.4A6.876,6.876,0,0,0,6.053-7.6,11.041,11.041,0,0,1,8.688-6.554,4,4,0,0,1,10.1-5.223a3.4,3.4,0,0,1,.459,1.791A3.156,3.156,0,0,1,9.277-.8,5.459,5.459,0,0,1,5.854.186a6.349,6.349,0,0,1-2.6-.533A4.372,4.372,0,0,1,1.4-1.809,3.566,3.566,0,0,1,.742-3.915H2.533a2.326,2.326,0,0,0,.9,1.934,3.809,3.809,0,0,0,2.417.71,3.5,3.5,0,0,0,2.162-.575,1.868,1.868,0,0,0,.751-1.568,1.834,1.834,0,0,0-.7-1.535A8.022,8.022,0,0,0,5.548-6.021ZM18.768-.993A3.646,3.646,0,0,1,15.827.186a3.12,3.12,0,0,1-2.445-.932,4.036,4.036,0,0,1-.849-2.76v-6.531H14.25v6.485q0,2.282,1.855,2.282a2.569,2.569,0,0,0,2.616-1.466v-7.3h1.716V0H18.805Zm6.049-9.045V1.16q0,2.895-2.625,2.895a3.185,3.185,0,0,1-1.048-.167V2.514a3.318,3.318,0,0,0,.779.074,1.166,1.166,0,0,0,.877-.311A1.536,1.536,0,0,0,23.1,1.2V-10.038ZM22.924-12.7a1.029,1.029,0,0,1,.255-.7.938.938,0,0,1,.747-.292.973.973,0,0,1,.761.288,1.014,1.014,0,0,1,.26.705.98.98,0,0,1-.26.7.99.99,0,0,1-.761.278A.96.96,0,0,1,23.175-12,1,1,0,0,1,22.924-12.7ZM31.747.186a4.386,4.386,0,0,1-3.321-1.341,4.976,4.976,0,0,1-1.28-3.586v-.315a6.024,6.024,0,0,1,.571-2.667,4.451,4.451,0,0,1,1.6-1.837,4.012,4.012,0,0,1,2.222-.663,3.759,3.759,0,0,1,3.043,1.29,5.583,5.583,0,0,1,1.085,3.692v.714h-6.8a3.568,3.568,0,0,0,.867,2.4,2.727,2.727,0,0,0,2.111.914,2.989,2.989,0,0,0,1.54-.371,3.869,3.869,0,0,0,1.1-.983l1.048.816A4.215,4.215,0,0,1,31.747.186Zm-.213-9a2.289,2.289,0,0,0-1.744.756,3.675,3.675,0,0,0-.872,2.12h5.028v-.13a3.269,3.269,0,0,0-.705-2.027A2.155,2.155,0,0,0,31.534-8.813Zm8.442-3.655v2.431H41.85v1.327H39.976v6.225a1.39,1.39,0,0,0,.25.9,1.055,1.055,0,0,0,.854.3,4.155,4.155,0,0,0,.816-.111V0a4.976,4.976,0,0,1-1.317.186,2.137,2.137,0,0,1-1.735-.7,2.989,2.989,0,0,1-.584-1.976V-8.711H36.432v-1.327H38.26v-2.431Zm3.238,7.357a5.929,5.929,0,0,1,.58-2.653,4.325,4.325,0,0,1,1.614-1.818,4.394,4.394,0,0,1,2.361-.64A4.233,4.233,0,0,1,51.086-8.8a5.461,5.461,0,0,1,1.266,3.776v.121a5.981,5.981,0,0,1-.561,2.63,4.262,4.262,0,0,1-1.6,1.814,4.445,4.445,0,0,1-2.4.649A4.223,4.223,0,0,1,44.48-1.234a5.433,5.433,0,0,1-1.266-3.757Zm1.726.2a4.294,4.294,0,0,0,.775,2.681,2.479,2.479,0,0,0,2.073,1.011A2.464,2.464,0,0,0,49.866-2.24a4.7,4.7,0,0,0,.77-2.871,4.287,4.287,0,0,0-.784-2.677,2.492,2.492,0,0,0-2.083-1.025A2.465,2.465,0,0,0,45.719-7.8,4.661,4.661,0,0,0,44.939-4.908Z" transform="translate(296.5 3014.5)" fill="#26c179"/>
      <path id="Trazado_10868" data-name="Trazado 10868" d="M-3055,5628.5h172" transform="translate(3293 -2636)" fill="none" stroke="#ffa800" stroke-width="2"/>
    </g>
    <g id="Grupo_13594" data-name="Grupo 13594" transform="translate(0 -51.79)">
      <path id="Trazado_11154" data-name="Trazado 11154" d="M5.811-17.773,10.938-4.15l5.115-13.623h3.992V0H16.968V-5.859l.305-7.837L12.024,0H9.814L4.578-13.684l.305,7.825V0H1.807V-17.773ZM26.563,0H23.6V-13.208h2.966ZM23.413-16.638a1.574,1.574,0,0,1,.433-1.135,1.637,1.637,0,0,1,1.239-.452,1.658,1.658,0,0,1,1.245.452,1.562,1.562,0,0,1,.439,1.135,1.526,1.526,0,0,1-.439,1.117,1.671,1.671,0,0,1-1.245.446,1.65,1.65,0,0,1-1.239-.446A1.538,1.538,0,0,1,23.413-16.638ZM43.909,0a4.578,4.578,0,0,1-.342-1.233A4.617,4.617,0,0,1,40.1.244,4.66,4.66,0,0,1,36.853-.891,3.632,3.632,0,0,1,35.6-3.7,3.75,3.75,0,0,1,37.164-6.94,7.6,7.6,0,0,1,41.65-8.069h1.819v-.867a2.314,2.314,0,0,0-.574-1.642,2.274,2.274,0,0,0-1.746-.616,2.613,2.613,0,0,0-1.66.507A1.568,1.568,0,0,0,38.843-9.4H35.876a3.292,3.292,0,0,1,.72-2.032,4.8,4.8,0,0,1,1.959-1.483,6.882,6.882,0,0,1,2.765-.537,5.542,5.542,0,0,1,3.7,1.166,4.157,4.157,0,0,1,1.416,3.278v5.957a6.751,6.751,0,0,0,.5,2.844V0ZM40.649-2.136A3.374,3.374,0,0,0,42.3-2.563a2.854,2.854,0,0,0,1.166-1.147V-6.2h-1.6a4.373,4.373,0,0,0-2.478.574A1.859,1.859,0,0,0,38.562-4a1.733,1.733,0,0,0,.568,1.361A2.2,2.2,0,0,0,40.649-2.136ZM52.332-13.208l.085,1.379a4.753,4.753,0,0,1,3.809-1.624,3.651,3.651,0,0,1,3.625,2.026A4.685,4.685,0,0,1,63.9-13.452a4.118,4.118,0,0,1,3.253,1.208A5.321,5.321,0,0,1,68.25-8.679V0H65.283V-8.594a2.627,2.627,0,0,0-.549-1.843,2.4,2.4,0,0,0-1.819-.586,2.47,2.47,0,0,0-1.654.543,2.865,2.865,0,0,0-.9,1.422L60.376,0H57.41V-8.691a2.116,2.116,0,0,0-2.38-2.332A2.611,2.611,0,0,0,52.5-9.57V0H49.536V-13.208ZM74.451,0H71.484V-13.208h2.966ZM71.3-16.638a1.574,1.574,0,0,1,.433-1.135,1.637,1.637,0,0,1,1.239-.452,1.658,1.658,0,0,1,1.245.452,1.562,1.562,0,0,1,.439,1.135,1.526,1.526,0,0,1-.439,1.117,1.671,1.671,0,0,1-1.245.446,1.65,1.65,0,0,1-1.239-.446A1.538,1.538,0,0,1,71.3-16.638ZM77.161-6.7a7.725,7.725,0,0,1,1.447-4.913,4.643,4.643,0,0,1,3.839-1.837A4.349,4.349,0,0,1,86-11.877l.134-1.331h2.673V-.4a5.322,5.322,0,0,1-1.617,4.1,6.161,6.161,0,0,1-4.364,1.5,7.034,7.034,0,0,1-2.838-.6,5.043,5.043,0,0,1-2.106-1.581l1.4-1.782a4.24,4.24,0,0,0,3.369,1.624,3.277,3.277,0,0,0,2.332-.8,3.064,3.064,0,0,0,.854-2.35v-.891A4.367,4.367,0,0,1,82.422.244,4.632,4.632,0,0,1,78.632-1.6,7.975,7.975,0,0,1,77.161-6.7Zm2.954.256a5.318,5.318,0,0,0,.812,3.131,2.61,2.61,0,0,0,2.252,1.141A2.855,2.855,0,0,0,85.84-3.711V-9.521a2.814,2.814,0,0,0-2.637-1.5,2.62,2.62,0,0,0-2.277,1.16A5.954,5.954,0,0,0,80.115-6.445ZM99.744,0A4.578,4.578,0,0,1,99.4-1.233,4.617,4.617,0,0,1,95.935.244,4.66,4.66,0,0,1,92.688-.891,3.632,3.632,0,0,1,91.431-3.7,3.75,3.75,0,0,1,93-6.94a7.6,7.6,0,0,1,4.486-1.129H99.3v-.867a2.314,2.314,0,0,0-.574-1.642,2.274,2.274,0,0,0-1.746-.616,2.613,2.613,0,0,0-1.66.507A1.568,1.568,0,0,0,94.678-9.4H91.711a3.292,3.292,0,0,1,.72-2.032,4.8,4.8,0,0,1,1.959-1.483,6.882,6.882,0,0,1,2.765-.537,5.542,5.542,0,0,1,3.7,1.166,4.157,4.157,0,0,1,1.416,3.278v5.957a6.751,6.751,0,0,0,.5,2.844V0ZM96.484-2.136a3.374,3.374,0,0,0,1.654-.427A2.854,2.854,0,0,0,99.3-3.711V-6.2h-1.6a4.373,4.373,0,0,0-2.478.574A1.859,1.859,0,0,0,94.4-4a1.733,1.733,0,0,0,.568,1.361A2.2,2.2,0,0,0,96.484-2.136Zm28.967-3.65a6.417,6.417,0,0,1-2.1,4.437A7.158,7.158,0,0,1,118.481.244,6.931,6.931,0,0,1,114.74-.763a6.61,6.61,0,0,1-2.5-2.863,10.33,10.33,0,0,1-.916-4.309v-1.66a10.4,10.4,0,0,1,.891-4.431,6.716,6.716,0,0,1,2.557-2.954,7.134,7.134,0,0,1,3.851-1.038,6.853,6.853,0,0,1,4.736,1.6,6.681,6.681,0,0,1,2.087,4.517h-3.076a4.39,4.39,0,0,0-1.117-2.765,3.692,3.692,0,0,0-2.631-.848,3.607,3.607,0,0,0-3.094,1.471,7.346,7.346,0,0,0-1.1,4.315v1.575A7.793,7.793,0,0,0,115.46-3.76a3.424,3.424,0,0,0,3.021,1.514,3.993,3.993,0,0,0,2.734-.818,4.265,4.265,0,0,0,1.16-2.722ZM131.079,0h-2.966V-18.75h2.966ZM142.2,0a4.578,4.578,0,0,1-.342-1.233A4.617,4.617,0,0,1,138.391.244a4.66,4.66,0,0,1-3.247-1.135A3.632,3.632,0,0,1,133.887-3.7a3.75,3.75,0,0,1,1.569-3.241,7.6,7.6,0,0,1,4.486-1.129h1.819v-.867a2.314,2.314,0,0,0-.574-1.642,2.274,2.274,0,0,0-1.746-.616,2.613,2.613,0,0,0-1.66.507,1.568,1.568,0,0,0-.647,1.288h-2.966a3.292,3.292,0,0,1,.72-2.032,4.8,4.8,0,0,1,1.959-1.483,6.882,6.882,0,0,1,2.765-.537,5.542,5.542,0,0,1,3.7,1.166,4.157,4.157,0,0,1,1.416,3.278v5.957a6.751,6.751,0,0,0,.5,2.844V0ZM138.94-2.136a3.374,3.374,0,0,0,1.654-.427,2.854,2.854,0,0,0,1.166-1.147V-6.2h-1.6a4.373,4.373,0,0,0-2.478.574A1.859,1.859,0,0,0,136.853-4a1.733,1.733,0,0,0,.568,1.361A2.2,2.2,0,0,0,138.94-2.136Zm16.895.842A4.6,4.6,0,0,1,152.124.244a4.1,4.1,0,0,1-3.253-1.257,5.349,5.349,0,0,1-1.1-3.638v-8.557h2.966v8.521q0,2.515,2.087,2.515a2.932,2.932,0,0,0,2.917-1.55v-9.485H158.7V0h-2.8ZM161.169-6.7a7.853,7.853,0,0,1,1.416-4.9,4.537,4.537,0,0,1,3.8-1.849,4.311,4.311,0,0,1,3.394,1.465V-18.75h2.966V0h-2.686l-.146-1.367A4.373,4.373,0,0,1,166.357.244,4.512,4.512,0,0,1,162.6-1.624,8.14,8.14,0,0,1,161.169-6.7Zm2.966.256a5.5,5.5,0,0,0,.775,3.143,2.515,2.515,0,0,0,2.2,1.129A2.8,2.8,0,0,0,169.775-3.8v-5.64a2.759,2.759,0,0,0-2.637-1.587,2.534,2.534,0,0,0-2.222,1.141A6.123,6.123,0,0,0,164.136-6.445ZM178.992,0h-2.966V-13.208h2.966Zm-3.149-16.638a1.574,1.574,0,0,1,.433-1.135,1.637,1.637,0,0,1,1.239-.452,1.658,1.658,0,0,1,1.245.452,1.562,1.562,0,0,1,.439,1.135,1.526,1.526,0,0,1-.439,1.117,1.671,1.671,0,0,1-1.245.446,1.65,1.65,0,0,1-1.239-.446A1.538,1.538,0,0,1,175.842-16.638ZM190.112,0a4.578,4.578,0,0,1-.342-1.233A4.617,4.617,0,0,1,186.3.244a4.66,4.66,0,0,1-3.247-1.135A3.632,3.632,0,0,1,181.8-3.7a3.75,3.75,0,0,1,1.569-3.241,7.6,7.6,0,0,1,4.486-1.129h1.819v-.867a2.314,2.314,0,0,0-.574-1.642,2.274,2.274,0,0,0-1.746-.616,2.613,2.613,0,0,0-1.66.507,1.568,1.568,0,0,0-.647,1.288H182.08a3.292,3.292,0,0,1,.72-2.032,4.8,4.8,0,0,1,1.959-1.483,6.882,6.882,0,0,1,2.765-.537,5.542,5.542,0,0,1,3.7,1.166,4.157,4.157,0,0,1,1.416,3.278v5.957a6.751,6.751,0,0,0,.5,2.844V0Zm-3.259-2.136a3.374,3.374,0,0,0,1.654-.427,2.854,2.854,0,0,0,1.166-1.147V-6.2h-1.6a4.373,4.373,0,0,0-2.478.574A1.859,1.859,0,0,0,184.766-4a1.733,1.733,0,0,0,.568,1.361A2.2,2.2,0,0,0,186.853-2.136Zm22.522-1.453a1.345,1.345,0,0,0-.653-1.208,6.946,6.946,0,0,0-2.167-.732,11.139,11.139,0,0,1-2.527-.806,3.372,3.372,0,0,1-2.222-3.113,3.516,3.516,0,0,1,1.44-2.856,5.694,5.694,0,0,1,3.662-1.147,5.925,5.925,0,0,1,3.827,1.172,3.719,3.719,0,0,1,1.459,3.04h-2.966a1.828,1.828,0,0,0-.635-1.422,2.433,2.433,0,0,0-1.685-.568,2.629,2.629,0,0,0-1.593.452A1.424,1.424,0,0,0,204.7-9.57a1.2,1.2,0,0,0,.574,1.062,7.89,7.89,0,0,0,2.319.763,10.979,10.979,0,0,1,2.74.916,3.881,3.881,0,0,1,1.477,1.276,3.253,3.253,0,0,1,.482,1.807,3.441,3.441,0,0,1-1.477,2.887,6.3,6.3,0,0,1-3.87,1.1,6.83,6.83,0,0,1-2.893-.586,4.761,4.761,0,0,1-1.978-1.611,3.814,3.814,0,0,1-.708-2.209h2.881a2.09,2.09,0,0,0,.793,1.617,3.083,3.083,0,0,0,1.941.568,3,3,0,0,0,1.782-.446A1.379,1.379,0,0,0,209.375-3.589ZM218.03,0h-2.966V-13.208h2.966ZM214.88-16.638a1.574,1.574,0,0,1,.433-1.135,1.637,1.637,0,0,1,1.239-.452,1.658,1.658,0,0,1,1.245.452,1.562,1.562,0,0,1,.439,1.135,1.526,1.526,0,0,1-.439,1.117,1.671,1.671,0,0,1-1.245.446,1.65,1.65,0,0,1-1.239-.446A1.538,1.538,0,0,1,214.88-16.638ZM227.075.244A6.137,6.137,0,0,1,222.5-1.532a6.443,6.443,0,0,1-1.752-4.73v-.366a7.926,7.926,0,0,1,.763-3.534,5.807,5.807,0,0,1,2.142-2.423,5.664,5.664,0,0,1,3.076-.867,5.184,5.184,0,0,1,4.169,1.721,7.278,7.278,0,0,1,1.471,4.871v1.2h-8.63a3.966,3.966,0,0,0,1.093,2.588,3.28,3.28,0,0,0,2.411.952,4.017,4.017,0,0,0,3.32-1.648l1.6,1.526a5.34,5.34,0,0,1-2.118,1.837A6.631,6.631,0,0,1,227.075.244Zm-.354-11.316a2.5,2.5,0,0,0-1.971.854,4.429,4.429,0,0,0-.958,2.38h5.652v-.22a3.605,3.605,0,0,0-.793-2.252A2.479,2.479,0,0,0,226.721-11.072Zm10.742-2.136.085,1.379a4.753,4.753,0,0,1,3.809-1.624,3.651,3.651,0,0,1,3.625,2.026,4.685,4.685,0,0,1,4.053-2.026,4.118,4.118,0,0,1,3.253,1.208,5.321,5.321,0,0,1,1.093,3.564V0h-2.966V-8.594a2.627,2.627,0,0,0-.549-1.843,2.4,2.4,0,0,0-1.819-.586,2.47,2.47,0,0,0-1.654.543,2.865,2.865,0,0,0-.9,1.422L245.508,0h-2.966V-8.691a2.116,2.116,0,0,0-2.38-2.332,2.611,2.611,0,0,0-2.527,1.453V0h-2.966V-13.208Zm30.53,6.738A7.864,7.864,0,0,1,266.6-1.581,4.457,4.457,0,0,1,262.866.244a4.487,4.487,0,0,1-3.479-1.428V5.078h-2.966V-13.208h2.734l.122,1.343a4.357,4.357,0,0,1,3.552-1.587,4.5,4.5,0,0,1,3.79,1.8,8.074,8.074,0,0,1,1.373,5Zm-2.954-.256a5.509,5.509,0,0,0-.787-3.137A2.56,2.56,0,0,0,262-11.023a2.73,2.73,0,0,0-2.612,1.5v5.859a2.755,2.755,0,0,0,2.637,1.538,2.557,2.557,0,0,0,2.216-1.141A6.064,6.064,0,0,0,265.039-6.726ZM277.417-10.5a7.34,7.34,0,0,0-1.208-.1,2.721,2.721,0,0,0-2.747,1.563V0H270.5V-13.208h2.832l.073,1.477a3.342,3.342,0,0,1,2.979-1.721,2.777,2.777,0,0,1,1.05.171ZM284.875.244A6.137,6.137,0,0,1,280.3-1.532a6.443,6.443,0,0,1-1.752-4.73v-.366a7.925,7.925,0,0,1,.763-3.534,5.807,5.807,0,0,1,2.142-2.423,5.664,5.664,0,0,1,3.076-.867,5.184,5.184,0,0,1,4.169,1.721,7.278,7.278,0,0,1,1.471,4.871v1.2h-8.63a3.966,3.966,0,0,0,1.093,2.588,3.28,3.28,0,0,0,2.411.952,4.017,4.017,0,0,0,3.32-1.648l1.6,1.526a5.34,5.34,0,0,1-2.118,1.837A6.631,6.631,0,0,1,284.875.244Zm-.354-11.316a2.5,2.5,0,0,0-1.971.854,4.429,4.429,0,0,0-.958,2.38h5.652v-.22a3.605,3.605,0,0,0-.793-2.252A2.479,2.479,0,0,0,284.521-11.072ZM306.1-3.589A1.345,1.345,0,0,0,305.45-4.8a6.946,6.946,0,0,0-2.167-.732,11.138,11.138,0,0,1-2.527-.806,3.372,3.372,0,0,1-2.222-3.113,3.516,3.516,0,0,1,1.44-2.856,5.694,5.694,0,0,1,3.662-1.147,5.925,5.925,0,0,1,3.827,1.172,3.719,3.719,0,0,1,1.459,3.04h-2.966a1.828,1.828,0,0,0-.635-1.422,2.433,2.433,0,0,0-1.685-.568,2.629,2.629,0,0,0-1.593.452,1.424,1.424,0,0,0-.616,1.208A1.2,1.2,0,0,0,302-8.508a7.89,7.89,0,0,0,2.319.763,10.979,10.979,0,0,1,2.74.916,3.881,3.881,0,0,1,1.477,1.276,3.253,3.253,0,0,1,.482,1.807,3.441,3.441,0,0,1-1.477,2.887,6.3,6.3,0,0,1-3.87,1.1,6.83,6.83,0,0,1-2.893-.586A4.762,4.762,0,0,1,298.8-1.953a3.814,3.814,0,0,1-.708-2.209h2.881a2.09,2.09,0,0,0,.793,1.617,3.083,3.083,0,0,0,1.941.568,3,3,0,0,0,1.782-.446A1.379,1.379,0,0,0,306.1-3.589Zm4.944-3.137a7.788,7.788,0,0,1,.769-3.5,5.617,5.617,0,0,1,2.161-2.393,6.088,6.088,0,0,1,3.2-.836,5.769,5.769,0,0,1,4.34,1.721,6.77,6.77,0,0,1,1.8,4.565l.012.7a7.858,7.858,0,0,1-.751,3.491A5.549,5.549,0,0,1,320.428-.6,6.132,6.132,0,0,1,317.2.244a5.729,5.729,0,0,1-4.474-1.862,7.13,7.13,0,0,1-1.678-4.962Zm2.966.256a5.322,5.322,0,0,0,.842,3.192A2.738,2.738,0,0,0,317.2-2.124,2.708,2.708,0,0,0,319.537-3.3a5.878,5.878,0,0,0,.836-3.43,5.253,5.253,0,0,0-.861-3.174,2.748,2.748,0,0,0-2.338-1.172,2.723,2.723,0,0,0-2.307,1.154A5.767,5.767,0,0,0,314.014-6.47Zm14.575-6.738.085,1.526a4.749,4.749,0,0,1,3.845-1.77q4.126,0,4.2,4.724V0h-2.966V-8.557a2.72,2.72,0,0,0-.543-1.862,2.285,2.285,0,0,0-1.776-.6A2.858,2.858,0,0,0,328.76-9.4V0h-2.966V-13.208Zm18.066,2.71a7.34,7.34,0,0,0-1.208-.1A2.721,2.721,0,0,0,342.7-9.033V0h-2.966V-13.208h2.832l.073,1.477a3.342,3.342,0,0,1,2.979-1.721,2.777,2.777,0,0,1,1.05.171ZM351.721,0h-2.966V-13.208h2.966Zm-.562-18.665h3.381l-3.381,3.7h-2.38ZM360.913.244a6.137,6.137,0,0,1-4.572-1.776,6.443,6.443,0,0,1-1.752-4.73v-.366a7.925,7.925,0,0,1,.763-3.534,5.807,5.807,0,0,1,2.142-2.423,5.664,5.664,0,0,1,3.076-.867,5.184,5.184,0,0,1,4.169,1.721,7.278,7.278,0,0,1,1.471,4.871v1.2h-8.63a3.966,3.966,0,0,0,1.093,2.588,3.28,3.28,0,0,0,2.411.952,4.017,4.017,0,0,0,3.32-1.648L366-2.246a5.34,5.34,0,0,1-2.118,1.837A6.631,6.631,0,0,1,360.913.244Zm-.354-11.316a2.5,2.5,0,0,0-1.971.854,4.429,4.429,0,0,0-.958,2.38h5.652v-.22a3.605,3.605,0,0,0-.793-2.252A2.479,2.479,0,0,0,360.559-11.072Z" transform="translate(716.097 2983.5)" fill="#02255f"/>
      <path id="Trazado_11155" data-name="Trazado 11155" d="M7.144-2.663a1.264,1.264,0,0,0-.524-1.081,5.045,5.045,0,0,0-1.828-.663,8.641,8.641,0,0,1-2.069-.668A2.943,2.943,0,0,1,1.591-6a2.219,2.219,0,0,1-.366-1.28A2.6,2.6,0,0,1,2.268-9.37a4.076,4.076,0,0,1,2.667-.854A4.194,4.194,0,0,1,7.7-9.342,2.8,2.8,0,0,1,8.767-7.088H7.042a1.549,1.549,0,0,0-.6-1.215,2.242,2.242,0,0,0-1.508-.51,2.346,2.346,0,0,0-1.466.408,1.285,1.285,0,0,0-.529,1.067,1.041,1.041,0,0,0,.492.937,6.05,6.05,0,0,0,1.777.6,9.257,9.257,0,0,1,2.083.687,3.038,3.038,0,0,1,1.183.96A2.361,2.361,0,0,1,8.86-2.783,2.569,2.569,0,0,1,7.784-.626,4.514,4.514,0,0,1,4.991.186,5.055,5.055,0,0,1,2.857-.241,3.47,3.47,0,0,1,1.406-1.433,2.873,2.873,0,0,1,.881-3.089H2.6a1.777,1.777,0,0,0,.691,1.368,2.681,2.681,0,0,0,1.7.506A2.768,2.768,0,0,0,6.554-1.61,1.212,1.212,0,0,0,7.144-2.663ZM17.293-.993A3.646,3.646,0,0,1,14.352.186a3.12,3.12,0,0,1-2.445-.932,4.036,4.036,0,0,1-.849-2.76v-6.531h1.716v6.485q0,2.282,1.855,2.282a2.569,2.569,0,0,0,2.616-1.466v-7.3h1.716V0H17.33Zm6.049-9.045V1.16q0,2.895-2.625,2.895a3.185,3.185,0,0,1-1.048-.167V2.514a3.318,3.318,0,0,0,.779.074,1.166,1.166,0,0,0,.877-.311,1.536,1.536,0,0,0,.3-1.081V-10.038ZM21.449-12.7a1.029,1.029,0,0,1,.255-.7.938.938,0,0,1,.747-.292.973.973,0,0,1,.761.288,1.014,1.014,0,0,1,.26.705.98.98,0,0,1-.26.7.99.99,0,0,1-.761.278A.96.96,0,0,1,21.7-12,1,1,0,0,1,21.449-12.7ZM30.272.186a4.386,4.386,0,0,1-3.321-1.341,4.976,4.976,0,0,1-1.28-3.586v-.315a6.024,6.024,0,0,1,.571-2.667,4.451,4.451,0,0,1,1.6-1.837,4.012,4.012,0,0,1,2.222-.663A3.759,3.759,0,0,1,33.1-8.934a5.583,5.583,0,0,1,1.085,3.692v.714h-6.8a3.568,3.568,0,0,0,.867,2.4,2.727,2.727,0,0,0,2.111.914,2.989,2.989,0,0,0,1.54-.371,3.869,3.869,0,0,0,1.1-.983l1.048.816A4.215,4.215,0,0,1,30.272.186Zm-.213-9a2.289,2.289,0,0,0-1.744.756,3.675,3.675,0,0,0-.872,2.12h5.028v-.13a3.269,3.269,0,0,0-.705-2.027A2.155,2.155,0,0,0,30.059-8.813ZM38.5-12.469v2.431h1.874v1.327H38.5v6.225a1.39,1.39,0,0,0,.25.9,1.055,1.055,0,0,0,.854.3,4.155,4.155,0,0,0,.816-.111V0A4.976,4.976,0,0,1,39.1.186a2.137,2.137,0,0,1-1.735-.7,2.989,2.989,0,0,1-.584-1.976V-8.711H34.957v-1.327h1.828v-2.431Zm3.238,7.357a5.929,5.929,0,0,1,.58-2.653,4.325,4.325,0,0,1,1.614-1.818,4.394,4.394,0,0,1,2.361-.64A4.233,4.233,0,0,1,49.611-8.8a5.461,5.461,0,0,1,1.266,3.776v.121a5.981,5.981,0,0,1-.561,2.63,4.262,4.262,0,0,1-1.6,1.814,4.445,4.445,0,0,1-2.4.649,4.223,4.223,0,0,1-3.307-1.419,5.433,5.433,0,0,1-1.266-3.757Zm1.726.2a4.294,4.294,0,0,0,.775,2.681,2.479,2.479,0,0,0,2.073,1.011A2.464,2.464,0,0,0,48.391-2.24a4.7,4.7,0,0,0,.77-2.871,4.287,4.287,0,0,0-.784-2.677,2.492,2.492,0,0,0-2.083-1.025A2.465,2.465,0,0,0,44.244-7.8,4.661,4.661,0,0,0,43.464-4.908Z" transform="translate(745 3014.5)" fill="#26c179"/>
      <path id="Trazado_10869" data-name="Trazado 10869" d="M-3055,5628.5h120.332" transform="translate(3764 -2636)" fill="none" stroke="#ffa800" stroke-width="2"/>
    </g>
    <path id="Trazado_11153" data-name="Trazado 11153" d="M-2543.651,7868v87.419" transform="translate(3211 -4974)" fill="none" stroke="#02255f" stroke-width="1"/>
  </g>
</svg>
