<svg xmlns="http://www.w3.org/2000/svg" width="728.495" height="223.524" viewBox="0 0 728.495 223.524">
  <g id="Grupo_14556" data-name="Grupo 14556" transform="translate(-235 -4778)">
    <g id="Grupo_13598" data-name="Grupo 13598" transform="translate(0 -73.989)">
      <path id="Trazado_10619" data-name="Trazado 10619" d="M-.318,0,314.016,6.944,312.541,57-.635,46.309Z" transform="matrix(0.999, -0.035, 0.035, 0.999, 457.159, 4875.995)" fill="#ffe8ba"/>
      <path id="Trazado_11169" data-name="Trazado 11169" d="M14.531-9.858H5.288V-2.3H16.025V0H2.476V-21.328h13.4v2.314H5.288v6.855h9.243ZM22.046,0h-2.71V-22.5h2.71ZM43.594,0a5.693,5.693,0,0,1-.381-1.67A6.046,6.046,0,0,1,38.7.293a5.6,5.6,0,0,1-3.845-1.326,4.289,4.289,0,0,1-1.5-3.362A4.481,4.481,0,0,1,35.237-8.24a8.875,8.875,0,0,1,5.3-1.37h2.637v-1.245a3.044,3.044,0,0,0-.85-2.263,3.415,3.415,0,0,0-2.5-.842,3.952,3.952,0,0,0-2.432.732,2.158,2.158,0,0,0-.981,1.772H33.677a3.74,3.74,0,0,1,.842-2.292A5.749,5.749,0,0,1,36.8-15.5a7.688,7.688,0,0,1,3.171-.645,6.266,6.266,0,0,1,4.292,1.37A4.941,4.941,0,0,1,45.879-11v7.295a8.919,8.919,0,0,0,.557,3.472V0ZM39.1-2.065a4.763,4.763,0,0,0,2.417-.659,3.987,3.987,0,0,0,1.655-1.714V-7.69H41.045q-4.98,0-4.98,2.915a2.467,2.467,0,0,0,.85,1.992A3.266,3.266,0,0,0,39.1-2.065ZM63.545-7.749a9.424,9.424,0,0,1-1.67,5.837,5.336,5.336,0,0,1-4.482,2.2,5.525,5.525,0,0,1-4.644-2.124L52.617,0h-2.49V-22.5h2.71v8.394a5.494,5.494,0,0,1,4.526-2.036A5.368,5.368,0,0,1,61.9-13.96a9.707,9.707,0,0,1,1.648,5.977Zm-2.71-.308a7.323,7.323,0,0,0-1.069-4.277,3.54,3.54,0,0,0-3.076-1.509,3.979,3.979,0,0,0-3.853,2.49V-4.5a4.09,4.09,0,0,0,3.882,2.49,3.52,3.52,0,0,0,3.032-1.509A7.787,7.787,0,0,0,60.835-8.057ZM76.743-1.567A5.756,5.756,0,0,1,72.1.293a4.927,4.927,0,0,1-3.86-1.472A6.372,6.372,0,0,1,66.9-5.537V-15.85h2.71V-5.61q0,3.6,2.93,3.6,3.105,0,4.131-2.314V-15.85h2.71V0H76.8ZM90.073.293a6.925,6.925,0,0,1-5.244-2.117,7.856,7.856,0,0,1-2.021-5.662v-.5a9.511,9.511,0,0,1,.9-4.211,7.028,7.028,0,0,1,2.52-2.9,6.335,6.335,0,0,1,3.508-1.047,5.936,5.936,0,0,1,4.8,2.036,8.816,8.816,0,0,1,1.714,5.83v1.128H85.518a5.634,5.634,0,0,0,1.37,3.787A4.305,4.305,0,0,0,90.22-1.919,4.72,4.72,0,0,0,92.651-2.5a6.11,6.11,0,0,0,1.743-1.553L96.05-2.769A6.656,6.656,0,0,1,90.073.293Zm-.337-14.209a3.615,3.615,0,0,0-2.754,1.194,5.8,5.8,0,0,0-1.377,3.347h7.939V-9.58a5.162,5.162,0,0,0-1.113-3.2A3.4,3.4,0,0,0,89.736-13.916ZM102.334,0h-2.71V-22.5h2.71Zm3.618-8.071a9.362,9.362,0,0,1,.916-4.189,6.83,6.83,0,0,1,2.549-2.871,6.938,6.938,0,0,1,3.728-1.011,6.684,6.684,0,0,1,5.237,2.241,8.623,8.623,0,0,1,2,5.962v.19a9.443,9.443,0,0,1-.886,4.153A6.729,6.729,0,0,1,116.96-.732,7.018,7.018,0,0,1,113.174.293a6.667,6.667,0,0,1-5.222-2.241,8.579,8.579,0,0,1-2-5.933Zm2.725.322A6.781,6.781,0,0,0,109.9-3.516a3.914,3.914,0,0,0,3.274,1.6,3.891,3.891,0,0,0,3.281-1.619,7.415,7.415,0,0,0,1.216-4.534,6.769,6.769,0,0,0-1.238-4.226,3.935,3.935,0,0,0-3.289-1.619,3.891,3.891,0,0,0-3.237,1.6A7.36,7.36,0,0,0,108.677-7.749Zm38.7,4.951a6.5,6.5,0,0,1-3.025,2.322,12.218,12.218,0,0,1-4.519.769A8.764,8.764,0,0,1,135.205-.93a8.149,8.149,0,0,1-3.127-3.479,12.016,12.016,0,0,1-1.135-5.229V-11.5q0-4.819,2.249-7.471a7.835,7.835,0,0,1,6.321-2.651,8.093,8.093,0,0,1,5.376,1.707,7.434,7.434,0,0,1,2.49,4.841h-2.812q-.791-4.233-5.039-4.233a4.98,4.98,0,0,0-4.285,1.985,9.685,9.685,0,0,0-1.472,5.75v1.743a9.077,9.077,0,0,0,1.641,5.706,5.32,5.32,0,0,0,4.438,2.117,9.782,9.782,0,0,0,2.769-.352,4.279,4.279,0,0,0,1.963-1.187v-4.79h-4.937V-10.62h7.734ZM161.426,0a5.693,5.693,0,0,1-.381-1.67A6.046,6.046,0,0,1,156.533.293a5.6,5.6,0,0,1-3.845-1.326,4.289,4.289,0,0,1-1.5-3.362,4.481,4.481,0,0,1,1.882-3.845,8.875,8.875,0,0,1,5.3-1.37H161v-1.245a3.044,3.044,0,0,0-.85-2.263,3.415,3.415,0,0,0-2.5-.842,3.952,3.952,0,0,0-2.432.732,2.158,2.158,0,0,0-.981,1.772h-2.725a3.74,3.74,0,0,1,.842-2.292,5.749,5.749,0,0,1,2.285-1.75,7.688,7.688,0,0,1,3.171-.645,6.266,6.266,0,0,1,4.292,1.37A4.941,4.941,0,0,1,163.711-11v7.295a8.919,8.919,0,0,0,.557,3.472V0Zm-4.5-2.065a4.763,4.763,0,0,0,2.417-.659A3.987,3.987,0,0,0,161-4.438V-7.69h-2.124q-4.98,0-4.98,2.915a2.467,2.467,0,0,0,.85,1.992A3.266,3.266,0,0,0,156.929-2.065Zm24.448-5.684a9.424,9.424,0,0,1-1.67,5.837,5.336,5.336,0,0,1-4.482,2.2,5.525,5.525,0,0,1-4.644-2.124L170.449,0h-2.49V-22.5h2.71v8.394a5.494,5.494,0,0,1,4.526-2.036,5.368,5.368,0,0,1,4.534,2.183,9.707,9.707,0,0,1,1.648,5.977Zm-2.71-.308a7.323,7.323,0,0,0-1.069-4.277,3.54,3.54,0,0,0-3.076-1.509,3.979,3.979,0,0,0-3.853,2.49V-4.5a4.09,4.09,0,0,0,3.882,2.49,3.52,3.52,0,0,0,3.032-1.509A7.787,7.787,0,0,0,178.667-8.057Zm13.784-5.361a8.121,8.121,0,0,0-1.333-.1A3.571,3.571,0,0,0,187.5-11.25V0h-2.71V-15.85h2.637l.044,1.831a4.22,4.22,0,0,1,3.779-2.124,2.769,2.769,0,0,1,1.2.205ZM197.886,0h-2.71V-15.85h2.71Zm-2.93-20.054a1.618,1.618,0,0,1,.4-1.113,1.512,1.512,0,0,1,1.194-.454,1.536,1.536,0,0,1,1.2.454,1.6,1.6,0,0,1,.41,1.113,1.548,1.548,0,0,1-.41,1.1,1.564,1.564,0,0,1-1.2.439,1.54,1.54,0,0,1-1.194-.439A1.564,1.564,0,0,1,194.956-20.054ZM208.8.293a6.925,6.925,0,0,1-5.244-2.117,7.856,7.856,0,0,1-2.021-5.662v-.5a9.511,9.511,0,0,1,.9-4.211,7.028,7.028,0,0,1,2.52-2.9,6.335,6.335,0,0,1,3.508-1.047,5.936,5.936,0,0,1,4.8,2.036,8.816,8.816,0,0,1,1.714,5.83v1.128H204.243a5.634,5.634,0,0,0,1.37,3.787,4.305,4.305,0,0,0,3.333,1.443,4.72,4.72,0,0,0,2.432-.586,6.11,6.11,0,0,0,1.743-1.553l1.655,1.289A6.656,6.656,0,0,1,208.8.293Zm-.337-14.209a3.615,3.615,0,0,0-2.754,1.194,5.8,5.8,0,0,0-1.377,3.347h7.939V-9.58a5.162,5.162,0,0,0-1.113-3.2A3.4,3.4,0,0,0,208.462-13.916ZM221.06,0h-2.71V-22.5h2.71Zm16.406-19.746v3.9h2.71v3.105h-2.71v7.91a1.889,1.889,0,0,0,.337,1.26,1.692,1.692,0,0,0,1.289.381,6.751,6.751,0,0,0,1.245-.1V-.088a8.715,8.715,0,0,1-2.563.381q-4.453,0-4.541-4.5v-8.54h-2.314V-15.85h2.314v-3.9ZM251.44-11.88A11.5,11.5,0,0,0,249.917-12q-2.4,0-3.149,1.626V0h-4.233V-15.85h4l.117,1.89a3.923,3.923,0,0,1,3.53-2.183,4.436,4.436,0,0,1,1.318.19ZM262.222,0a4.7,4.7,0,0,1-.425-1.421,5.122,5.122,0,0,1-4,1.714,5.627,5.627,0,0,1-3.86-1.348,4.334,4.334,0,0,1-1.531-3.4,4.479,4.479,0,0,1,1.868-3.867,9.216,9.216,0,0,1,5.4-1.362h1.948v-.908a2.612,2.612,0,0,0-.564-1.758,2.219,2.219,0,0,0-1.78-.659,2.522,2.522,0,0,0-1.677.513,1.742,1.742,0,0,0-.608,1.406h-4.233a4.252,4.252,0,0,1,.85-2.549,5.616,5.616,0,0,1,2.4-1.838,8.755,8.755,0,0,1,3.486-.667,6.917,6.917,0,0,1,4.651,1.472,5.15,5.15,0,0,1,1.721,4.138v6.87a7.577,7.577,0,0,0,.63,3.413V0Zm-3.5-2.944a3.646,3.646,0,0,0,1.729-.417,2.742,2.742,0,0,0,1.172-1.121V-7.207h-1.582q-3.179,0-3.384,2.2l-.015.249a1.7,1.7,0,0,0,.557,1.3A2.162,2.162,0,0,0,258.721-2.944ZM273.6-15.85V.864a5.67,5.67,0,0,1-1.392,4.08A5.289,5.289,0,0,1,268.2,6.4a8.608,8.608,0,0,1-2.095-.249V2.8a7.947,7.947,0,0,0,1.333.132q1.919,0,1.919-2.036V-15.85Zm-4.585-4.1a2.085,2.085,0,0,1,.637-1.567,2.394,2.394,0,0,1,1.736-.615,2.394,2.394,0,0,1,1.736.615,2.085,2.085,0,0,1,.637,1.567,2.078,2.078,0,0,1-.652,1.582,2.4,2.4,0,0,1-1.721.615,2.4,2.4,0,0,1-1.721-.615A2.078,2.078,0,0,1,269.019-19.951Zm7.236,11.88a9.4,9.4,0,0,1,.908-4.2,6.649,6.649,0,0,1,2.615-2.856,7.628,7.628,0,0,1,3.962-1.011,7.217,7.217,0,0,1,5.237,1.963,7.878,7.878,0,0,1,2.263,5.332l.029,1.084a8.284,8.284,0,0,1-2.036,5.852,7.078,7.078,0,0,1-5.464,2.2A7.113,7.113,0,0,1,278.3-1.9a8.43,8.43,0,0,1-2.043-5.977Zm4.233.308a5.909,5.909,0,0,0,.85,3.45A2.8,2.8,0,0,0,283.77-3.12a2.811,2.811,0,0,0,2.4-1.179,6.465,6.465,0,0,0,.864-3.772,5.849,5.849,0,0,0-.864-3.428,2.811,2.811,0,0,0-2.432-1.216,2.765,2.765,0,0,0-2.4,1.208A6.574,6.574,0,0,0,280.488-7.764Zm31.025,6.2A5.756,5.756,0,0,1,306.87.293a4.927,4.927,0,0,1-3.86-1.472,6.372,6.372,0,0,1-1.34-4.358V-15.85h2.71V-5.61q0,3.6,2.93,3.6,3.105,0,4.131-2.314V-15.85h2.71V0h-2.578ZM320.83-15.85l.088,1.992a5.776,5.776,0,0,1,4.746-2.285q5.024,0,5.068,5.669V0h-2.71V-10.488a3.649,3.649,0,0,0-.784-2.534,3.141,3.141,0,0,0-2.4-.82,3.911,3.911,0,0,0-2.314.7,4.775,4.775,0,0,0-1.553,1.846V0h-2.71V-15.85Zm34.8,8.1a9.49,9.49,0,0,1-1.655,5.83A5.305,5.305,0,0,1,349.5.293a5.813,5.813,0,0,1-4.541-1.831V6.094h-2.71V-15.85h2.476l.132,1.758a5.583,5.583,0,0,1,4.6-2.051,5.4,5.4,0,0,1,4.519,2.153A9.594,9.594,0,0,1,355.635-8Zm-2.71-.308a7,7,0,0,0-1.143-4.233,3.681,3.681,0,0,0-3.135-1.553,3.984,3.984,0,0,0-3.691,2.183v7.573a3.991,3.991,0,0,0,3.721,2.168,3.663,3.663,0,0,0,3.1-1.545A7.644,7.644,0,0,0,352.925-8.057ZM365.654.293a6.925,6.925,0,0,1-5.244-2.117,7.856,7.856,0,0,1-2.021-5.662v-.5a9.511,9.511,0,0,1,.9-4.211,7.028,7.028,0,0,1,2.52-2.9,6.335,6.335,0,0,1,3.508-1.047,5.936,5.936,0,0,1,4.8,2.036,8.816,8.816,0,0,1,1.714,5.83v1.128H361.1a5.634,5.634,0,0,0,1.37,3.787A4.305,4.305,0,0,0,365.8-1.919a4.72,4.72,0,0,0,2.432-.586,6.11,6.11,0,0,0,1.743-1.553l1.655,1.289A6.656,6.656,0,0,1,365.654.293Zm-.337-14.209a3.615,3.615,0,0,0-2.754,1.194,5.8,5.8,0,0,0-1.377,3.347h7.939V-9.58a5.162,5.162,0,0,0-1.113-3.2A3.4,3.4,0,0,0,365.317-13.916Zm17.314.5a8.121,8.121,0,0,0-1.333-.1,3.571,3.571,0,0,0-3.618,2.271V0h-2.71V-15.85h2.637l.044,1.831a4.22,4.22,0,0,1,3.779-2.124,2.769,2.769,0,0,1,1.2.205Zm10.151,0a8.121,8.121,0,0,0-1.333-.1,3.571,3.571,0,0,0-3.618,2.271V0h-2.71V-15.85h2.637l.044,1.831a4.22,4.22,0,0,1,3.779-2.124,2.769,2.769,0,0,1,1.2.205ZM398.218,0h-2.71V-15.85h2.71Zm-2.93-20.054a1.618,1.618,0,0,1,.4-1.113,1.512,1.512,0,0,1,1.194-.454,1.536,1.536,0,0,1,1.2.454,1.6,1.6,0,0,1,.41,1.113,1.548,1.548,0,0,1-.41,1.1,1.564,1.564,0,0,1-1.2.439,1.54,1.54,0,0,1-1.194-.439A1.564,1.564,0,0,1,395.288-20.054Zm10.942.366v3.838h2.959v2.095H406.23v9.829a2.2,2.2,0,0,0,.4,1.428,1.666,1.666,0,0,0,1.348.476,6.561,6.561,0,0,0,1.289-.176V0a7.856,7.856,0,0,1-2.08.293,3.375,3.375,0,0,1-2.739-1.1,4.72,4.72,0,0,1-.923-3.12v-9.829h-2.886V-15.85h2.886v-3.838Zm5.112,11.616a9.362,9.362,0,0,1,.916-4.189,6.83,6.83,0,0,1,2.549-2.871,6.938,6.938,0,0,1,3.728-1.011,6.684,6.684,0,0,1,5.237,2.241,8.623,8.623,0,0,1,2,5.962v.19a9.443,9.443,0,0,1-.886,4.153,6.729,6.729,0,0,1-2.534,2.864A7.018,7.018,0,0,1,418.564.293a6.667,6.667,0,0,1-5.222-2.241,8.579,8.579,0,0,1-2-5.933Zm2.725.322a6.781,6.781,0,0,0,1.223,4.233,3.914,3.914,0,0,0,3.274,1.6,3.891,3.891,0,0,0,3.281-1.619,7.415,7.415,0,0,0,1.216-4.534,6.769,6.769,0,0,0-1.238-4.226,3.935,3.935,0,0,0-3.289-1.619,3.891,3.891,0,0,0-3.237,1.6A7.36,7.36,0,0,0,414.067-7.749ZM446.382,0A5.693,5.693,0,0,1,446-1.67,6.046,6.046,0,0,1,441.489.293a5.6,5.6,0,0,1-3.845-1.326,4.289,4.289,0,0,1-1.5-3.362,4.481,4.481,0,0,1,1.882-3.845,8.875,8.875,0,0,1,5.3-1.37h2.637v-1.245a3.044,3.044,0,0,0-.85-2.263,3.415,3.415,0,0,0-2.5-.842,3.952,3.952,0,0,0-2.432.732,2.158,2.158,0,0,0-.981,1.772h-2.725a3.74,3.74,0,0,1,.842-2.292,5.749,5.749,0,0,1,2.285-1.75,7.688,7.688,0,0,1,3.171-.645,6.266,6.266,0,0,1,4.292,1.37A4.941,4.941,0,0,1,448.667-11v7.295a8.919,8.919,0,0,0,.557,3.472V0Zm-4.5-2.065a4.763,4.763,0,0,0,2.417-.659,3.987,3.987,0,0,0,1.655-1.714V-7.69h-2.124q-4.98,0-4.98,2.915a2.467,2.467,0,0,0,.85,1.992A3.266,3.266,0,0,0,441.885-2.065Zm24.814.146a3.9,3.9,0,0,0,2.534-.879,3.092,3.092,0,0,0,1.2-2.2H473a4.914,4.914,0,0,1-.937,2.593,6.175,6.175,0,0,1-2.307,1.963A6.657,6.657,0,0,1,466.7.293a6.529,6.529,0,0,1-5.149-2.161,8.606,8.606,0,0,1-1.912-5.911v-.454a9.542,9.542,0,0,1,.85-4.116,6.471,6.471,0,0,1,2.439-2.8,6.928,6.928,0,0,1,3.757-1,6.357,6.357,0,0,1,4.431,1.6A5.706,5.706,0,0,1,473-10.4h-2.563a3.735,3.735,0,0,0-1.165-2.527,3.623,3.623,0,0,0-2.585-.989,3.793,3.793,0,0,0-3.2,1.487,6.983,6.983,0,0,0-1.135,4.3v.513A6.843,6.843,0,0,0,463.477-3.4,3.811,3.811,0,0,0,466.7-1.919ZM485.83,0a5.693,5.693,0,0,1-.381-1.67A6.046,6.046,0,0,1,480.938.293a5.6,5.6,0,0,1-3.845-1.326,4.289,4.289,0,0,1-1.5-3.362,4.481,4.481,0,0,1,1.882-3.845,8.875,8.875,0,0,1,5.3-1.37h2.637v-1.245a3.044,3.044,0,0,0-.85-2.263,3.415,3.415,0,0,0-2.5-.842,3.952,3.952,0,0,0-2.432.732,2.158,2.158,0,0,0-.981,1.772h-2.725a3.74,3.74,0,0,1,.842-2.292,5.749,5.749,0,0,1,2.285-1.75,7.688,7.688,0,0,1,3.171-.645,6.266,6.266,0,0,1,4.292,1.37A4.941,4.941,0,0,1,488.115-11v7.295a8.919,8.919,0,0,0,.557,3.472V0Zm-4.5-2.065a4.763,4.763,0,0,0,2.417-.659,3.987,3.987,0,0,0,1.655-1.714V-7.69h-2.124q-4.98,0-4.98,2.915a2.467,2.467,0,0,0,.85,1.992A3.266,3.266,0,0,0,481.333-2.065ZM501.592-4.2a2,2,0,0,0-.828-1.707,7.966,7.966,0,0,0-2.886-1.047,13.644,13.644,0,0,1-3.267-1.055,4.647,4.647,0,0,1-1.787-1.465,3.5,3.5,0,0,1-.579-2.021,4.111,4.111,0,0,1,1.648-3.3,6.436,6.436,0,0,1,4.211-1.348,6.623,6.623,0,0,1,4.373,1.392,4.42,4.42,0,0,1,1.677,3.56h-2.725a2.446,2.446,0,0,0-.945-1.919,3.54,3.54,0,0,0-2.38-.806,3.7,3.7,0,0,0-2.314.645,2.029,2.029,0,0,0-.835,1.685,1.644,1.644,0,0,0,.776,1.479,9.552,9.552,0,0,0,2.805.952,14.616,14.616,0,0,1,3.289,1.084,4.8,4.8,0,0,1,1.868,1.516,3.728,3.728,0,0,1,.608,2.161,4.056,4.056,0,0,1-1.7,3.406A7.128,7.128,0,0,1,498.193.293a7.981,7.981,0,0,1-3.369-.674,5.48,5.48,0,0,1-2.292-1.882,4.537,4.537,0,0,1-.828-2.615h2.71a2.806,2.806,0,0,0,1.091,2.161,4.234,4.234,0,0,0,2.688.8,4.37,4.37,0,0,0,2.468-.623A1.913,1.913,0,0,0,501.592-4.2ZM517.617,0a5.693,5.693,0,0,1-.381-1.67A6.046,6.046,0,0,1,512.725.293a5.6,5.6,0,0,1-3.845-1.326,4.289,4.289,0,0,1-1.5-3.362A4.481,4.481,0,0,1,509.26-8.24a8.875,8.875,0,0,1,5.3-1.37h2.637v-1.245a3.044,3.044,0,0,0-.85-2.263,3.415,3.415,0,0,0-2.5-.842,3.952,3.952,0,0,0-2.432.732,2.158,2.158,0,0,0-.981,1.772H507.7a3.74,3.74,0,0,1,.842-2.292,5.749,5.749,0,0,1,2.285-1.75A7.688,7.688,0,0,1,514-16.143a6.266,6.266,0,0,1,4.292,1.37A4.941,4.941,0,0,1,519.9-11v7.295a8.919,8.919,0,0,0,.557,3.472V0Zm-4.5-2.065a4.763,4.763,0,0,0,2.417-.659,3.987,3.987,0,0,0,1.655-1.714V-7.69h-2.124q-4.98,0-4.98,2.915a2.467,2.467,0,0,0,.85,1.992A3.266,3.266,0,0,0,513.12-2.065Z" transform="translate(232.524 4903.607)" fill="#09347b"/>
      <path id="Trazado_11170" data-name="Trazado 11170" d="M10.066-4.926A6.02,6.02,0,0,1,9.013-1.211,3.376,3.376,0,0,1,6.169.186,3.127,3.127,0,0,1,3.711-.872V3.859H1.03v-13.9H3.516l.093.983a3.151,3.151,0,0,1,2.542-1.169A3.4,3.4,0,0,1,9.036-8.851a6.183,6.183,0,0,1,1.03,3.785ZM7.385-5.121a3.951,3.951,0,0,0-.5-2.162,1.617,1.617,0,0,0-1.443-.761,1.756,1.756,0,0,0-1.735.965v4.11a1.786,1.786,0,0,0,1.753.993Q7.385-1.976,7.385-5.121Zm9.982-2.4A7.284,7.284,0,0,0,16.4-7.6a1.964,1.964,0,0,0-1.995,1.03V0H11.727V-10.038h2.533l.074,1.2a2.484,2.484,0,0,1,2.236-1.382,2.809,2.809,0,0,1,.835.121ZM23.1.186a4.928,4.928,0,0,1-3.595-1.354,4.815,4.815,0,0,1-1.387-3.609v-.26a6.064,6.064,0,0,1,.584-2.7,4.289,4.289,0,0,1,1.656-1.837,4.648,4.648,0,0,1,2.445-.645,4.166,4.166,0,0,1,3.242,1.3,5.278,5.278,0,0,1,1.183,3.683v1.095H20.837a2.491,2.491,0,0,0,.784,1.577,2.37,2.37,0,0,0,1.656.594A2.894,2.894,0,0,0,25.7-3.1l1.317,1.475A4.025,4.025,0,0,1,25.383-.292,5.357,5.357,0,0,1,23.1.186Zm-.306-8.238a1.679,1.679,0,0,0-1.294.538,2.78,2.78,0,0,0-.635,1.54h3.729v-.213a1.982,1.982,0,0,0-.482-1.378A1.733,1.733,0,0,0,22.794-8.053Zm5.539,2.959a6.049,6.049,0,0,1,1.053-3.739,3.417,3.417,0,0,1,2.881-1.392,3.074,3.074,0,0,1,2.421,1.095V-14.25h2.69V0H34.957l-.13-1.067A3.155,3.155,0,0,1,32.248.186a3.407,3.407,0,0,1-2.844-1.4A6.244,6.244,0,0,1,28.333-5.093Zm2.681.195a3.952,3.952,0,0,0,.492,2.162,1.6,1.6,0,0,0,1.429.751,1.794,1.794,0,0,0,1.753-1.048V-7a1.769,1.769,0,0,0-1.735-1.048Q31.014-8.043,31.014-4.9ZM42.286,0H39.6V-10.038h2.69ZM39.438-12.636a1.32,1.32,0,0,1,.4-.993,1.516,1.516,0,0,1,1.1-.39,1.52,1.52,0,0,1,1.095.39,1.313,1.313,0,0,1,.408.993,1.316,1.316,0,0,1-.413,1,1.523,1.523,0,0,1-1.09.39,1.523,1.523,0,0,1-1.09-.39A1.316,1.316,0,0,1,39.438-12.636Zm9.231,10.66a1.759,1.759,0,0,0,1.206-.408,1.43,1.43,0,0,0,.482-1.085h2.514A3.439,3.439,0,0,1,52.315-1.6a3.673,3.673,0,0,1-1.5,1.317,4.689,4.689,0,0,1-2.1.469,4.358,4.358,0,0,1-3.4-1.368,5.415,5.415,0,0,1-1.243-3.781V-5.14a5.353,5.353,0,0,1,1.234-3.7A4.307,4.307,0,0,1,48.7-10.224a4.222,4.222,0,0,1,3.02,1.072A3.794,3.794,0,0,1,52.872-6.3H50.357a1.827,1.827,0,0,0-.482-1.266,1.613,1.613,0,0,0-1.225-.487,1.616,1.616,0,0,0-1.415.682,3.947,3.947,0,0,0-.478,2.213v.278a4,4,0,0,0,.473,2.227A1.636,1.636,0,0,0,48.669-1.976ZM60.219,0a2.977,2.977,0,0,1-.269-.9A3.244,3.244,0,0,1,57.417.186a3.564,3.564,0,0,1-2.445-.854A2.745,2.745,0,0,1,54-2.82,2.837,2.837,0,0,1,55.186-5.27,5.837,5.837,0,0,1,58.6-6.132h1.234v-.575a1.654,1.654,0,0,0-.357-1.113,1.405,1.405,0,0,0-1.127-.417,1.6,1.6,0,0,0-1.062.325,1.1,1.1,0,0,0-.385.891H54.226a2.693,2.693,0,0,1,.538-1.614A3.557,3.557,0,0,1,56.286-9.8a5.545,5.545,0,0,1,2.208-.422,4.381,4.381,0,0,1,2.946.932,3.262,3.262,0,0,1,1.09,2.621v4.351a4.8,4.8,0,0,0,.4,2.162V0ZM58-1.865A2.309,2.309,0,0,0,59.1-2.129a1.737,1.737,0,0,0,.742-.71V-4.564h-1q-2.013,0-2.143,1.392l-.009.158a1.073,1.073,0,0,0,.353.826A1.369,1.369,0,0,0,58-1.865Zm6.169-3.229a6.049,6.049,0,0,1,1.053-3.739A3.417,3.417,0,0,1,68.1-10.224a3.074,3.074,0,0,1,2.421,1.095V-14.25h2.69V0H70.8l-.13-1.067A3.155,3.155,0,0,1,68.086.186a3.407,3.407,0,0,1-2.844-1.4A6.244,6.244,0,0,1,64.171-5.093Zm2.681.195a3.952,3.952,0,0,0,.492,2.162,1.6,1.6,0,0,0,1.429.751,1.794,1.794,0,0,0,1.753-1.048V-7a1.769,1.769,0,0,0-1.735-1.048Q66.853-8.043,66.853-4.9Zm8.025-.213a5.953,5.953,0,0,1,.575-2.663,4.211,4.211,0,0,1,1.656-1.809,4.831,4.831,0,0,1,2.51-.64A4.571,4.571,0,0,1,82.935-8.98,4.989,4.989,0,0,1,84.368-5.6l.019.687A5.247,5.247,0,0,1,83.1-1.211a4.482,4.482,0,0,1-3.46,1.4,4.5,4.5,0,0,1-3.465-1.392,5.339,5.339,0,0,1-1.294-3.785Zm2.681.195A3.742,3.742,0,0,0,78.1-2.732a1.776,1.776,0,0,0,1.54.756,1.78,1.78,0,0,0,1.521-.747,4.1,4.1,0,0,0,.547-2.389,3.7,3.7,0,0,0-.547-2.171,1.78,1.78,0,0,0-1.54-.77,1.751,1.751,0,0,0-1.521.765A4.164,4.164,0,0,0,77.559-4.917Z" transform="translate(572.04 4942.607)" fill="#26c179"/>
    </g>
    <g id="Grupo_13599" data-name="Grupo 13599" transform="translate(-47.49 -52.176)">
      <path id="Trazado_10620" data-name="Trazado 10620" d="M-.214,0,417.6,6.944,415.641,57-.635,46.309Z" transform="matrix(0.999, -0.035, 0.035, 0.999, 591.649, 4977.229)" fill="#ffe8ba"/>
      <path id="Trazado_11172" data-name="Trazado 11172" d="M14.531-9.858H5.288V-2.3H16.025V0H2.476V-21.328h13.4v2.314H5.288v6.855h9.243ZM22.046,0h-2.71V-22.5h2.71ZM33.164-8.057a9.315,9.315,0,0,1,1.714-5.9,5.481,5.481,0,0,1,4.541-2.19,5.452,5.452,0,0,1,4.526,2.051l.132-1.758h2.476V-.381a6.448,6.448,0,0,1-1.824,4.849,6.73,6.73,0,0,1-4.9,1.772,8.152,8.152,0,0,1-3.354-.732A5.774,5.774,0,0,1,33.97,3.5l1.406-1.626a5.3,5.3,0,0,0,4.263,2.153,4.152,4.152,0,0,0,3.083-1.113A4.255,4.255,0,0,0,43.828-.22V-1.582A5.57,5.57,0,0,1,39.39.293a5.414,5.414,0,0,1-4.5-2.241A9.794,9.794,0,0,1,33.164-8.057Zm2.725.308a7.107,7.107,0,0,0,1.1,4.211,3.57,3.57,0,0,0,3.076,1.531,3.97,3.97,0,0,0,3.765-2.329v-7.236a4.016,4.016,0,0,0-3.735-2.271A3.6,3.6,0,0,0,37-12.3,7.74,7.74,0,0,0,35.889-7.749ZM58.3-13.418a8.121,8.121,0,0,0-1.333-.1A3.571,3.571,0,0,0,53.35-11.25V0H50.64V-15.85h2.637l.044,1.831A4.22,4.22,0,0,1,57.1-16.143a2.769,2.769,0,0,1,1.2.205ZM70.576-1.567A5.756,5.756,0,0,1,65.933.293a4.927,4.927,0,0,1-3.86-1.472,6.372,6.372,0,0,1-1.34-4.358V-15.85h2.71V-5.61q0,3.6,2.93,3.6,3.105,0,4.131-2.314V-15.85h2.71V0H70.635ZM90.718-7.749a9.49,9.49,0,0,1-1.655,5.83A5.305,5.305,0,0,1,84.58.293a5.813,5.813,0,0,1-4.541-1.831V6.094h-2.71V-15.85H79.8l.132,1.758a5.583,5.583,0,0,1,4.6-2.051,5.4,5.4,0,0,1,4.519,2.153A9.594,9.594,0,0,1,90.718-8Zm-2.71-.308a7,7,0,0,0-1.143-4.233,3.681,3.681,0,0,0-3.135-1.553,3.984,3.984,0,0,0-3.691,2.183v7.573A3.991,3.991,0,0,0,83.76-1.919a3.663,3.663,0,0,0,3.1-1.545A7.644,7.644,0,0,0,88.008-8.057Zm5.435-.015a9.362,9.362,0,0,1,.916-4.189,6.83,6.83,0,0,1,2.549-2.871,6.938,6.938,0,0,1,3.728-1.011,6.684,6.684,0,0,1,5.237,2.241,8.623,8.623,0,0,1,2,5.962v.19a9.443,9.443,0,0,1-.886,4.153,6.729,6.729,0,0,1-2.534,2.864A7.018,7.018,0,0,1,100.664.293a6.667,6.667,0,0,1-5.222-2.241,8.579,8.579,0,0,1-2-5.933Zm2.725.322A6.781,6.781,0,0,0,97.39-3.516a3.914,3.914,0,0,0,3.274,1.6,3.891,3.891,0,0,0,3.281-1.619,7.415,7.415,0,0,0,1.216-4.534,6.769,6.769,0,0,0-1.238-4.226,3.935,3.935,0,0,0-3.289-1.619,3.891,3.891,0,0,0-3.237,1.6A7.36,7.36,0,0,0,96.167-7.749Zm21.87-.308a9.285,9.285,0,0,1,1.729-5.867,5.466,5.466,0,0,1,4.526-2.219,5.5,5.5,0,0,1,4.409,1.9V-22.5h2.71V0h-2.49l-.132-1.7A5.519,5.519,0,0,1,124.263.293a5.414,5.414,0,0,1-4.49-2.256,9.39,9.39,0,0,1-1.736-5.889Zm2.71.308A7.03,7.03,0,0,0,121.86-3.53a3.6,3.6,0,0,0,3.076,1.523A3.953,3.953,0,0,0,128.7-4.321V-11.6a3.984,3.984,0,0,0-3.735-2.241A3.616,3.616,0,0,0,121.86-12.3,7.74,7.74,0,0,0,120.747-7.749ZM142.192.293a6.925,6.925,0,0,1-5.244-2.117,7.856,7.856,0,0,1-2.021-5.662v-.5a9.511,9.511,0,0,1,.9-4.211,7.028,7.028,0,0,1,2.52-2.9,6.335,6.335,0,0,1,3.508-1.047,5.936,5.936,0,0,1,4.8,2.036,8.816,8.816,0,0,1,1.714,5.83v1.128H137.637a5.634,5.634,0,0,0,1.37,3.787,4.305,4.305,0,0,0,3.333,1.443,4.72,4.72,0,0,0,2.432-.586,6.11,6.11,0,0,0,1.743-1.553l1.655,1.289A6.656,6.656,0,0,1,142.192.293Zm-.337-14.209a3.615,3.615,0,0,0-2.754,1.194,5.8,5.8,0,0,0-1.377,3.347h7.939V-9.58a5.162,5.162,0,0,0-1.113-3.2A3.4,3.4,0,0,0,141.855-13.916ZM165.513.293a6.925,6.925,0,0,1-5.244-2.117,7.856,7.856,0,0,1-2.021-5.662v-.5a9.511,9.511,0,0,1,.9-4.211,7.028,7.028,0,0,1,2.52-2.9,6.335,6.335,0,0,1,3.508-1.047,5.936,5.936,0,0,1,4.8,2.036,8.816,8.816,0,0,1,1.714,5.83v1.128H160.957a5.634,5.634,0,0,0,1.37,3.787,4.305,4.305,0,0,0,3.333,1.443,4.72,4.72,0,0,0,2.432-.586,6.11,6.11,0,0,0,1.743-1.553l1.655,1.289A6.656,6.656,0,0,1,165.513.293Zm-.337-14.209a3.615,3.615,0,0,0-2.754,1.194,5.8,5.8,0,0,0-1.377,3.347h7.939V-9.58a5.162,5.162,0,0,0-1.113-3.2A3.4,3.4,0,0,0,165.176-13.916ZM184.058-4.2a2,2,0,0,0-.828-1.707,7.966,7.966,0,0,0-2.886-1.047,13.644,13.644,0,0,1-3.267-1.055,4.647,4.647,0,0,1-1.787-1.465,3.5,3.5,0,0,1-.579-2.021,4.111,4.111,0,0,1,1.648-3.3,6.436,6.436,0,0,1,4.211-1.348,6.623,6.623,0,0,1,4.373,1.392,4.42,4.42,0,0,1,1.677,3.56H183.9a2.446,2.446,0,0,0-.945-1.919,3.54,3.54,0,0,0-2.38-.806,3.7,3.7,0,0,0-2.314.645,2.029,2.029,0,0,0-.835,1.685,1.644,1.644,0,0,0,.776,1.479A9.552,9.552,0,0,0,181-9.155a14.616,14.616,0,0,1,3.289,1.084,4.8,4.8,0,0,1,1.868,1.516,3.728,3.728,0,0,1,.608,2.161,4.056,4.056,0,0,1-1.7,3.406A7.128,7.128,0,0,1,180.659.293a7.981,7.981,0,0,1-3.369-.674A5.48,5.48,0,0,1,175-2.263a4.537,4.537,0,0,1-.828-2.615h2.71a2.806,2.806,0,0,0,1.091,2.161,4.234,4.234,0,0,0,2.688.8,4.37,4.37,0,0,0,2.468-.623A1.913,1.913,0,0,0,184.058-4.2Zm9.917-15.483v3.838h2.959v2.095h-2.959v9.829a2.2,2.2,0,0,0,.4,1.428,1.666,1.666,0,0,0,1.348.476,6.561,6.561,0,0,0,1.289-.176V0a7.856,7.856,0,0,1-2.08.293,3.375,3.375,0,0,1-2.739-1.1,4.72,4.72,0,0,1-.923-3.12v-9.829h-2.886V-15.85h2.886v-3.838Zm15.908,18.12a5.756,5.756,0,0,1-4.644,1.86,4.927,4.927,0,0,1-3.86-1.472,6.372,6.372,0,0,1-1.34-4.358V-15.85h2.71V-5.61q0,3.6,2.93,3.6,3.105,0,4.131-2.314V-15.85h2.71V0h-2.578Zm6.094-6.489a9.285,9.285,0,0,1,1.729-5.867,5.466,5.466,0,0,1,4.526-2.219,5.5,5.5,0,0,1,4.409,1.9V-22.5h2.71V0h-2.49l-.132-1.7A5.519,5.519,0,0,1,222.2.293a5.414,5.414,0,0,1-4.49-2.256,9.39,9.39,0,0,1-1.736-5.889Zm2.71.308A7.03,7.03,0,0,0,219.8-3.53a3.6,3.6,0,0,0,3.076,1.523,3.953,3.953,0,0,0,3.765-2.314V-11.6a3.984,3.984,0,0,0-3.735-2.241A3.616,3.616,0,0,0,219.8-12.3,7.74,7.74,0,0,0,218.687-7.749ZM236.5,0h-2.71V-15.85h2.71Zm-2.93-20.054a1.618,1.618,0,0,1,.4-1.113,1.512,1.512,0,0,1,1.194-.454,1.536,1.536,0,0,1,1.2.454,1.6,1.6,0,0,1,.41,1.113,1.548,1.548,0,0,1-.41,1.1,1.564,1.564,0,0,1-1.2.439,1.54,1.54,0,0,1-1.194-.439A1.564,1.564,0,0,1,233.569-20.054ZM250.62,0a5.693,5.693,0,0,1-.381-1.67A6.046,6.046,0,0,1,245.728.293a5.6,5.6,0,0,1-3.845-1.326,4.289,4.289,0,0,1-1.5-3.362,4.481,4.481,0,0,1,1.882-3.845,8.875,8.875,0,0,1,5.3-1.37H250.2v-1.245a3.044,3.044,0,0,0-.85-2.263,3.415,3.415,0,0,0-2.5-.842,3.952,3.952,0,0,0-2.432.732,2.158,2.158,0,0,0-.981,1.772H240.7a3.74,3.74,0,0,1,.842-2.292,5.749,5.749,0,0,1,2.285-1.75A7.688,7.688,0,0,1,247-16.143a6.266,6.266,0,0,1,4.292,1.37A4.941,4.941,0,0,1,252.905-11v7.295a8.919,8.919,0,0,0,.557,3.472V0Zm-4.5-2.065a4.763,4.763,0,0,0,2.417-.659A3.987,3.987,0,0,0,250.2-4.438V-7.69h-2.124q-4.98,0-4.98,2.915a2.467,2.467,0,0,0,.85,1.992A3.266,3.266,0,0,0,246.123-2.065ZM259.717-15.85l.088,1.992a5.776,5.776,0,0,1,4.746-2.285q5.024,0,5.068,5.669V0h-2.71V-10.488a3.649,3.649,0,0,0-.784-2.534,3.141,3.141,0,0,0-2.4-.82,3.911,3.911,0,0,0-2.314.7,4.775,4.775,0,0,0-1.553,1.846V0h-2.71V-15.85Zm17.666-3.838v3.838h2.959v2.095h-2.959v9.829a2.2,2.2,0,0,0,.4,1.428,1.666,1.666,0,0,0,1.348.476,6.561,6.561,0,0,0,1.289-.176V0a7.856,7.856,0,0,1-2.08.293,3.375,3.375,0,0,1-2.739-1.1,4.72,4.72,0,0,1-.923-3.12v-9.829h-2.886V-15.85h2.886v-3.838Zm12.7,19.98a6.925,6.925,0,0,1-5.244-2.117,7.856,7.856,0,0,1-2.021-5.662v-.5a9.511,9.511,0,0,1,.9-4.211,7.028,7.028,0,0,1,2.52-2.9,6.335,6.335,0,0,1,3.508-1.047,5.936,5.936,0,0,1,4.8,2.036,8.816,8.816,0,0,1,1.714,5.83v1.128H285.527a5.634,5.634,0,0,0,1.37,3.787,4.305,4.305,0,0,0,3.333,1.443,4.72,4.72,0,0,0,2.432-.586A6.11,6.11,0,0,0,294.4-4.058l1.655,1.289A6.656,6.656,0,0,1,290.083.293Zm-.337-14.209a3.615,3.615,0,0,0-2.754,1.194,5.8,5.8,0,0,0-1.377,3.347h7.939V-9.58a5.162,5.162,0,0,0-1.113-3.2A3.4,3.4,0,0,0,289.746-13.916ZM308.628-4.2a2,2,0,0,0-.828-1.707,7.966,7.966,0,0,0-2.886-1.047,13.644,13.644,0,0,1-3.267-1.055,4.647,4.647,0,0,1-1.787-1.465,3.5,3.5,0,0,1-.579-2.021,4.111,4.111,0,0,1,1.648-3.3,6.436,6.436,0,0,1,4.211-1.348,6.623,6.623,0,0,1,4.373,1.392,4.42,4.42,0,0,1,1.677,3.56h-2.725a2.446,2.446,0,0,0-.945-1.919,3.54,3.54,0,0,0-2.38-.806,3.7,3.7,0,0,0-2.314.645,2.029,2.029,0,0,0-.835,1.685,1.644,1.644,0,0,0,.776,1.479,9.552,9.552,0,0,0,2.805.952,14.616,14.616,0,0,1,3.289,1.084,4.8,4.8,0,0,1,1.868,1.516,3.728,3.728,0,0,1,.608,2.161,4.056,4.056,0,0,1-1.7,3.406A7.128,7.128,0,0,1,305.229.293a7.981,7.981,0,0,1-3.369-.674,5.48,5.48,0,0,1-2.292-1.882,4.537,4.537,0,0,1-.828-2.615h2.71a2.806,2.806,0,0,0,1.091,2.161,4.234,4.234,0,0,0,2.688.8,4.37,4.37,0,0,0,2.468-.623A1.913,1.913,0,0,0,308.628-4.2Zm12.583-3.867a9.4,9.4,0,0,1,.908-4.2,6.649,6.649,0,0,1,2.615-2.856,7.628,7.628,0,0,1,3.962-1.011,7.217,7.217,0,0,1,5.237,1.963A7.878,7.878,0,0,1,336.2-8.848l.029,1.084a8.284,8.284,0,0,1-2.036,5.852,7.078,7.078,0,0,1-5.464,2.2,7.113,7.113,0,0,1-5.471-2.2,8.43,8.43,0,0,1-2.043-5.977Zm4.233.308a5.909,5.909,0,0,0,.85,3.45,2.8,2.8,0,0,0,2.432,1.194,2.811,2.811,0,0,0,2.4-1.179,6.465,6.465,0,0,0,.864-3.772,5.849,5.849,0,0,0-.864-3.428,2.811,2.811,0,0,0-2.432-1.216,2.765,2.765,0,0,0-2.4,1.208A6.574,6.574,0,0,0,325.444-7.764Zm27.671-.015a9.6,9.6,0,0,1-1.626,5.94A5.386,5.386,0,0,1,346.948.293a4.948,4.948,0,0,1-4.116-1.978L342.642,0h-3.809V-22.5h4.233v8.071a4.821,4.821,0,0,1,3.853-1.714,5.43,5.43,0,0,1,4.548,2.131,9.611,9.611,0,0,1,1.648,6Zm-4.233-.308a6.305,6.305,0,0,0-.762-3.508A2.576,2.576,0,0,0,345.85-12.7a2.793,2.793,0,0,0-2.783,1.655V-4.79a2.83,2.83,0,0,0,2.813,1.67,2.614,2.614,0,0,0,2.7-2.021A10.428,10.428,0,0,0,348.882-8.086Zm11.909-11.66v3.9h2.71v3.105h-2.71v7.91a1.889,1.889,0,0,0,.337,1.26,1.692,1.692,0,0,0,1.289.381,6.751,6.751,0,0,0,1.245-.1V-.088A8.715,8.715,0,0,1,361.1.293q-4.453,0-4.541-4.5v-8.54h-2.314V-15.85h2.314v-3.9ZM375.352-1.611a5.309,5.309,0,0,1-4.336,1.9,5.007,5.007,0,0,1-3.889-1.465,6.253,6.253,0,0,1-1.37-4.292V-15.85h4.233V-5.61q0,2.476,2.256,2.476a3.058,3.058,0,0,0,2.959-1.494V-15.85h4.248V0h-3.984Zm13.228-3.56,2.944-10.679h4.424L390.6,0h-4.043l-5.347-15.85h4.424Zm8.35-2.9a9.4,9.4,0,0,1,.908-4.2,6.649,6.649,0,0,1,2.615-2.856,7.628,7.628,0,0,1,3.962-1.011,7.217,7.217,0,0,1,5.237,1.963,7.878,7.878,0,0,1,2.263,5.332l.029,1.084a8.284,8.284,0,0,1-2.036,5.852,7.078,7.078,0,0,1-5.464,2.2,7.113,7.113,0,0,1-5.471-2.2,8.43,8.43,0,0,1-2.043-5.977Zm4.233.308a5.909,5.909,0,0,0,.85,3.45,2.8,2.8,0,0,0,2.432,1.194,2.811,2.811,0,0,0,2.4-1.179,6.465,6.465,0,0,0,.864-3.772,5.849,5.849,0,0,0-.864-3.428,2.811,2.811,0,0,0-2.432-1.216,2.765,2.765,0,0,0-2.4,1.208A6.574,6.574,0,0,0,401.162-7.764Zm34.658.015a9.424,9.424,0,0,1-1.67,5.837,5.336,5.336,0,0,1-4.482,2.2,5.525,5.525,0,0,1-4.644-2.124L424.893,0H422.4V-22.5h2.71v8.394a5.494,5.494,0,0,1,4.526-2.036,5.368,5.368,0,0,1,4.534,2.183,9.707,9.707,0,0,1,1.648,5.977Zm-2.71-.308a7.323,7.323,0,0,0-1.069-4.277,3.54,3.54,0,0,0-3.076-1.509,3.979,3.979,0,0,0-3.853,2.49V-4.5a4.09,4.09,0,0,0,3.882,2.49,3.52,3.52,0,0,0,3.032-1.509A7.787,7.787,0,0,0,433.11-8.057Zm15.908,6.489a5.756,5.756,0,0,1-4.644,1.86,4.927,4.927,0,0,1-3.86-1.472,6.372,6.372,0,0,1-1.34-4.358V-15.85h2.71V-5.61q0,3.6,2.93,3.6,3.105,0,4.131-2.314V-15.85h2.71V0h-2.578Zm13.33,1.86A6.925,6.925,0,0,1,457.1-1.824a7.856,7.856,0,0,1-2.021-5.662v-.5a9.511,9.511,0,0,1,.9-4.211,7.028,7.028,0,0,1,2.52-2.9,6.335,6.335,0,0,1,3.508-1.047,5.936,5.936,0,0,1,4.8,2.036,8.816,8.816,0,0,1,1.714,5.83v1.128H457.793a5.634,5.634,0,0,0,1.37,3.787A4.305,4.305,0,0,0,462.5-1.919a4.72,4.72,0,0,0,2.432-.586,6.11,6.11,0,0,0,1.743-1.553l1.655,1.289A6.656,6.656,0,0,1,462.349.293Zm-.337-14.209a3.615,3.615,0,0,0-2.754,1.194,5.8,5.8,0,0,0-1.377,3.347h7.939V-9.58a5.162,5.162,0,0,0-1.113-3.2A3.4,3.4,0,0,0,462.012-13.916Zm12.217-1.934.088,1.992a5.776,5.776,0,0,1,4.746-2.285q5.024,0,5.068,5.669V0h-2.71V-10.488a3.649,3.649,0,0,0-.784-2.534,3.141,3.141,0,0,0-2.4-.82,3.911,3.911,0,0,0-2.314.7,4.775,4.775,0,0,0-1.553,1.846V0h-2.71V-15.85ZM498,0a5.693,5.693,0,0,1-.381-1.67A6.046,6.046,0,0,1,493.11.293a5.6,5.6,0,0,1-3.845-1.326,4.289,4.289,0,0,1-1.5-3.362,4.481,4.481,0,0,1,1.882-3.845,8.875,8.875,0,0,1,5.3-1.37h2.637v-1.245a3.044,3.044,0,0,0-.85-2.263,3.415,3.415,0,0,0-2.5-.842,3.952,3.952,0,0,0-2.432.732,2.158,2.158,0,0,0-.981,1.772h-2.725a3.74,3.74,0,0,1,.842-2.292,5.749,5.749,0,0,1,2.285-1.75,7.688,7.688,0,0,1,3.171-.645,6.266,6.266,0,0,1,4.292,1.37A4.941,4.941,0,0,1,500.288-11v7.295a8.919,8.919,0,0,0,.557,3.472V0Zm-4.5-2.065a4.763,4.763,0,0,0,2.417-.659,3.987,3.987,0,0,0,1.655-1.714V-7.69h-2.124q-4.98,0-4.98,2.915a2.467,2.467,0,0,0,.85,1.992A3.266,3.266,0,0,0,493.506-2.065ZM513.765-4.2a2,2,0,0,0-.828-1.707,7.966,7.966,0,0,0-2.886-1.047,13.644,13.644,0,0,1-3.267-1.055A4.647,4.647,0,0,1,505-9.478a3.5,3.5,0,0,1-.579-2.021,4.111,4.111,0,0,1,1.648-3.3,6.436,6.436,0,0,1,4.211-1.348,6.623,6.623,0,0,1,4.373,1.392,4.42,4.42,0,0,1,1.677,3.56H513.6a2.446,2.446,0,0,0-.945-1.919,3.54,3.54,0,0,0-2.38-.806,3.7,3.7,0,0,0-2.314.645,2.029,2.029,0,0,0-.835,1.685,1.644,1.644,0,0,0,.776,1.479,9.552,9.552,0,0,0,2.805.952A14.616,14.616,0,0,1,514-8.071a4.8,4.8,0,0,1,1.868,1.516,3.728,3.728,0,0,1,.608,2.161,4.056,4.056,0,0,1-1.7,3.406A7.128,7.128,0,0,1,510.366.293,7.981,7.981,0,0,1,507-.381,5.48,5.48,0,0,1,504.7-2.263a4.537,4.537,0,0,1-.828-2.615h2.71a2.806,2.806,0,0,0,1.091,2.161,4.234,4.234,0,0,0,2.688.8,4.37,4.37,0,0,0,2.468-.623A1.913,1.913,0,0,0,513.765-4.2Zm20.024,2.285a3.9,3.9,0,0,0,2.534-.879,3.092,3.092,0,0,0,1.2-2.2h2.563A4.914,4.914,0,0,1,539.15-2.4a6.175,6.175,0,0,1-2.307,1.963,6.657,6.657,0,0,1-3.054.732,6.529,6.529,0,0,1-5.149-2.161,8.606,8.606,0,0,1-1.912-5.911v-.454a9.542,9.542,0,0,1,.85-4.116,6.471,6.471,0,0,1,2.439-2.8,6.928,6.928,0,0,1,3.757-1,6.357,6.357,0,0,1,4.431,1.6,5.706,5.706,0,0,1,1.882,4.146h-2.563a3.735,3.735,0,0,0-1.165-2.527,3.623,3.623,0,0,0-2.585-.989,3.793,3.793,0,0,0-3.2,1.487,6.983,6.983,0,0,0-1.135,4.3v.513A6.843,6.843,0,0,0,530.566-3.4,3.811,3.811,0,0,0,533.789-1.919ZM552.92,0a5.693,5.693,0,0,1-.381-1.67A6.046,6.046,0,0,1,548.027.293a5.6,5.6,0,0,1-3.845-1.326,4.289,4.289,0,0,1-1.5-3.362,4.481,4.481,0,0,1,1.882-3.845,8.875,8.875,0,0,1,5.3-1.37H552.5v-1.245a3.044,3.044,0,0,0-.85-2.263,3.415,3.415,0,0,0-2.5-.842,3.952,3.952,0,0,0-2.432.732,2.158,2.158,0,0,0-.981,1.772H543a3.74,3.74,0,0,1,.842-2.292,5.749,5.749,0,0,1,2.285-1.75,7.688,7.688,0,0,1,3.171-.645,6.266,6.266,0,0,1,4.292,1.37A4.941,4.941,0,0,1,555.205-11v7.295a8.919,8.919,0,0,0,.557,3.472V0Zm-4.5-2.065a4.763,4.763,0,0,0,2.417-.659A3.987,3.987,0,0,0,552.5-4.438V-7.69h-2.124q-4.98,0-4.98,2.915a2.467,2.467,0,0,0,.85,1.992A3.266,3.266,0,0,0,548.423-2.065ZM562.4,0h-2.71V-22.5h2.71Zm7.28,0h-2.71V-15.85h2.71Zm-2.93-20.054a1.618,1.618,0,0,1,.4-1.113,1.512,1.512,0,0,1,1.194-.454,1.536,1.536,0,0,1,1.2.454,1.6,1.6,0,0,1,.41,1.113,1.548,1.548,0,0,1-.41,1.1,1.564,1.564,0,0,1-1.2.439,1.54,1.54,0,0,1-1.194-.439A1.564,1.564,0,0,1,566.748-20.054ZM574.922,0V-13.755h-2.5V-15.85h2.5V-17.2a5.506,5.506,0,0,1,1.516-4.131,5.879,5.879,0,0,1,4.285-1.479,12.9,12.9,0,0,1,4.146.894l-.454,2.285a9.389,9.389,0,0,0-3.486-.732,3.411,3.411,0,0,0-2.512.784,3.231,3.231,0,0,0-.769,2.351v1.377h3.237v2.095h-3.237V0Zm11.294,0h-2.725V-15.85h2.725Zm10.767-1.919a3.9,3.9,0,0,0,2.534-.879,3.092,3.092,0,0,0,1.2-2.2h2.563a4.914,4.914,0,0,1-.937,2.593,6.175,6.175,0,0,1-2.307,1.963,6.657,6.657,0,0,1-3.054.732,6.529,6.529,0,0,1-5.149-2.161,8.606,8.606,0,0,1-1.912-5.911v-.454a9.542,9.542,0,0,1,.85-4.116,6.471,6.471,0,0,1,2.439-2.8,6.928,6.928,0,0,1,3.757-1,6.357,6.357,0,0,1,4.431,1.6,5.706,5.706,0,0,1,1.882,4.146h-2.563a3.735,3.735,0,0,0-1.165-2.527,3.623,3.623,0,0,0-2.585-.989,3.793,3.793,0,0,0-3.2,1.487,6.983,6.983,0,0,0-1.135,4.3v.513A6.843,6.843,0,0,0,593.76-3.4,3.811,3.811,0,0,0,596.982-1.919ZM616.113,0a5.693,5.693,0,0,1-.381-1.67A6.046,6.046,0,0,1,611.221.293a5.6,5.6,0,0,1-3.845-1.326,4.289,4.289,0,0,1-1.5-3.362,4.481,4.481,0,0,1,1.882-3.845,8.875,8.875,0,0,1,5.3-1.37h2.637v-1.245a3.044,3.044,0,0,0-.85-2.263,3.415,3.415,0,0,0-2.5-.842,3.952,3.952,0,0,0-2.432.732,2.158,2.158,0,0,0-.981,1.772H606.2a3.74,3.74,0,0,1,.842-2.292,5.749,5.749,0,0,1,2.285-1.75,7.688,7.688,0,0,1,3.171-.645,6.266,6.266,0,0,1,4.292,1.37A4.941,4.941,0,0,1,618.4-11v7.295a8.919,8.919,0,0,0,.557,3.472V0Zm-4.5-2.065a4.763,4.763,0,0,0,2.417-.659,3.987,3.987,0,0,0,1.655-1.714V-7.69h-2.124q-4.98,0-4.98,2.915a2.467,2.467,0,0,0,.85,1.992A3.266,3.266,0,0,0,611.616-2.065ZM629-1.919a3.9,3.9,0,0,0,2.534-.879,3.092,3.092,0,0,0,1.2-2.2H635.3a4.914,4.914,0,0,1-.937,2.593,6.175,6.175,0,0,1-2.307,1.963A6.657,6.657,0,0,1,629,.293a6.529,6.529,0,0,1-5.149-2.161,8.606,8.606,0,0,1-1.912-5.911v-.454a9.542,9.542,0,0,1,.85-4.116,6.471,6.471,0,0,1,2.439-2.8,6.928,6.928,0,0,1,3.757-1,6.357,6.357,0,0,1,4.431,1.6A5.706,5.706,0,0,1,635.3-10.4h-2.563a3.735,3.735,0,0,0-1.165-2.527,3.623,3.623,0,0,0-2.585-.989,3.793,3.793,0,0,0-3.2,1.487,6.983,6.983,0,0,0-1.135,4.3v.513A6.843,6.843,0,0,0,625.781-3.4,3.811,3.811,0,0,0,629-1.919ZM641.294,0h-2.71V-15.85h2.71Zm-2.93-20.054a1.618,1.618,0,0,1,.4-1.113,1.512,1.512,0,0,1,1.194-.454,1.536,1.536,0,0,1,1.2.454,1.6,1.6,0,0,1,.41,1.113,1.548,1.548,0,0,1-.41,1.1,1.564,1.564,0,0,1-1.2.439,1.54,1.54,0,0,1-1.194-.439A1.564,1.564,0,0,1,638.364-20.054Zm6.548,11.982a9.362,9.362,0,0,1,.916-4.189,6.83,6.83,0,0,1,2.549-2.871,6.938,6.938,0,0,1,3.728-1.011,6.684,6.684,0,0,1,5.237,2.241,8.623,8.623,0,0,1,2,5.962v.19a9.443,9.443,0,0,1-.886,4.153A6.729,6.729,0,0,1,655.92-.732,7.018,7.018,0,0,1,652.134.293a6.667,6.667,0,0,1-5.222-2.241,8.579,8.579,0,0,1-2-5.933Zm2.725.322a6.781,6.781,0,0,0,1.223,4.233,3.914,3.914,0,0,0,3.274,1.6,3.891,3.891,0,0,0,3.281-1.619,7.415,7.415,0,0,0,1.216-4.534,6.769,6.769,0,0,0-1.238-4.226,3.935,3.935,0,0,0-3.289-1.619,3.891,3.891,0,0,0-3.237,1.6A7.36,7.36,0,0,0,647.637-7.749Zm17.666-8.1.088,1.992a5.776,5.776,0,0,1,4.746-2.285q5.024,0,5.068,5.669V0H672.5V-10.488a3.649,3.649,0,0,0-.784-2.534,3.141,3.141,0,0,0-2.4-.82,3.911,3.911,0,0,0-2.314.7,4.775,4.775,0,0,0-1.553,1.846V0h-2.71V-15.85ZM685.869.293a6.925,6.925,0,0,1-5.244-2.117A7.856,7.856,0,0,1,678.6-7.485v-.5a9.511,9.511,0,0,1,.9-4.211,7.028,7.028,0,0,1,2.52-2.9,6.335,6.335,0,0,1,3.508-1.047,5.936,5.936,0,0,1,4.8,2.036,8.816,8.816,0,0,1,1.714,5.83v1.128H681.313a5.634,5.634,0,0,0,1.37,3.787,4.305,4.305,0,0,0,3.333,1.443,4.72,4.72,0,0,0,2.432-.586,6.11,6.11,0,0,0,1.743-1.553l1.655,1.289A6.656,6.656,0,0,1,685.869.293Zm-.337-14.209a3.615,3.615,0,0,0-2.754,1.194A5.8,5.8,0,0,0,681.4-9.375h7.939V-9.58a5.162,5.162,0,0,0-1.113-3.2A3.4,3.4,0,0,0,685.532-13.916ZM704.414-4.2a2,2,0,0,0-.828-1.707A7.966,7.966,0,0,0,700.7-6.958a13.644,13.644,0,0,1-3.267-1.055,4.647,4.647,0,0,1-1.787-1.465,3.5,3.5,0,0,1-.579-2.021,4.111,4.111,0,0,1,1.648-3.3,6.436,6.436,0,0,1,4.211-1.348,6.623,6.623,0,0,1,4.373,1.392,4.42,4.42,0,0,1,1.677,3.56h-2.725a2.446,2.446,0,0,0-.945-1.919,3.54,3.54,0,0,0-2.38-.806,3.7,3.7,0,0,0-2.314.645,2.029,2.029,0,0,0-.835,1.685,1.644,1.644,0,0,0,.776,1.479,9.552,9.552,0,0,0,2.805.952,14.616,14.616,0,0,1,3.289,1.084,4.8,4.8,0,0,1,1.868,1.516,3.728,3.728,0,0,1,.608,2.161,4.056,4.056,0,0,1-1.7,3.406A7.128,7.128,0,0,1,701.016.293a7.981,7.981,0,0,1-3.369-.674,5.48,5.48,0,0,1-2.292-1.882,4.537,4.537,0,0,1-.828-2.615h2.71a2.806,2.806,0,0,0,1.091,2.161,4.234,4.234,0,0,0,2.688.8,4.37,4.37,0,0,0,2.468-.623A1.913,1.913,0,0,0,704.414-4.2Z" transform="translate(280.015 5004.841)" fill="#09347b"/>
      <path id="Trazado_11171" data-name="Trazado 11171" d="M10.066-4.926A6.02,6.02,0,0,1,9.013-1.211,3.376,3.376,0,0,1,6.169.186,3.127,3.127,0,0,1,3.711-.872V3.859H1.03v-13.9H3.516l.093.983a3.151,3.151,0,0,1,2.542-1.169A3.4,3.4,0,0,1,9.036-8.851a6.183,6.183,0,0,1,1.03,3.785ZM7.385-5.121a3.951,3.951,0,0,0-.5-2.162,1.617,1.617,0,0,0-1.443-.761,1.756,1.756,0,0,0-1.735.965v4.11a1.786,1.786,0,0,0,1.753.993Q7.385-1.976,7.385-5.121Zm9.982-2.4A7.284,7.284,0,0,0,16.4-7.6a1.964,1.964,0,0,0-1.995,1.03V0H11.727V-10.038h2.533l.074,1.2a2.484,2.484,0,0,1,2.236-1.382,2.809,2.809,0,0,1,.835.121ZM23.1.186a4.928,4.928,0,0,1-3.595-1.354,4.815,4.815,0,0,1-1.387-3.609v-.26a6.064,6.064,0,0,1,.584-2.7,4.289,4.289,0,0,1,1.656-1.837,4.648,4.648,0,0,1,2.445-.645,4.166,4.166,0,0,1,3.242,1.3,5.278,5.278,0,0,1,1.183,3.683v1.095H20.837a2.491,2.491,0,0,0,.784,1.577,2.37,2.37,0,0,0,1.656.594A2.894,2.894,0,0,0,25.7-3.1l1.317,1.475A4.025,4.025,0,0,1,25.383-.292,5.357,5.357,0,0,1,23.1.186Zm-.306-8.238a1.679,1.679,0,0,0-1.294.538,2.78,2.78,0,0,0-.635,1.54h3.729v-.213a1.982,1.982,0,0,0-.482-1.378A1.733,1.733,0,0,0,22.794-8.053Zm5.539,2.959a6.049,6.049,0,0,1,1.053-3.739,3.417,3.417,0,0,1,2.881-1.392,3.074,3.074,0,0,1,2.421,1.095V-14.25h2.69V0H34.957l-.13-1.067A3.155,3.155,0,0,1,32.248.186a3.407,3.407,0,0,1-2.844-1.4A6.244,6.244,0,0,1,28.333-5.093Zm2.681.195a3.952,3.952,0,0,0,.492,2.162,1.6,1.6,0,0,0,1.429.751,1.794,1.794,0,0,0,1.753-1.048V-7a1.769,1.769,0,0,0-1.735-1.048Q31.014-8.043,31.014-4.9ZM42.286,0H39.6V-10.038h2.69ZM39.438-12.636a1.32,1.32,0,0,1,.4-.993,1.516,1.516,0,0,1,1.1-.39,1.52,1.52,0,0,1,1.095.39,1.313,1.313,0,0,1,.408.993,1.316,1.316,0,0,1-.413,1,1.523,1.523,0,0,1-1.09.39,1.523,1.523,0,0,1-1.09-.39A1.316,1.316,0,0,1,39.438-12.636Zm9.231,10.66a1.759,1.759,0,0,0,1.206-.408,1.43,1.43,0,0,0,.482-1.085h2.514A3.439,3.439,0,0,1,52.315-1.6a3.673,3.673,0,0,1-1.5,1.317,4.689,4.689,0,0,1-2.1.469,4.358,4.358,0,0,1-3.4-1.368,5.415,5.415,0,0,1-1.243-3.781V-5.14a5.353,5.353,0,0,1,1.234-3.7A4.307,4.307,0,0,1,48.7-10.224a4.222,4.222,0,0,1,3.02,1.072A3.794,3.794,0,0,1,52.872-6.3H50.357a1.827,1.827,0,0,0-.482-1.266,1.613,1.613,0,0,0-1.225-.487,1.616,1.616,0,0,0-1.415.682,3.947,3.947,0,0,0-.478,2.213v.278a4,4,0,0,0,.473,2.227A1.636,1.636,0,0,0,48.669-1.976ZM60.219,0a2.977,2.977,0,0,1-.269-.9A3.244,3.244,0,0,1,57.417.186a3.564,3.564,0,0,1-2.445-.854A2.745,2.745,0,0,1,54-2.82,2.837,2.837,0,0,1,55.186-5.27,5.837,5.837,0,0,1,58.6-6.132h1.234v-.575a1.654,1.654,0,0,0-.357-1.113,1.405,1.405,0,0,0-1.127-.417,1.6,1.6,0,0,0-1.062.325,1.1,1.1,0,0,0-.385.891H54.226a2.693,2.693,0,0,1,.538-1.614A3.557,3.557,0,0,1,56.286-9.8a5.545,5.545,0,0,1,2.208-.422,4.381,4.381,0,0,1,2.946.932,3.262,3.262,0,0,1,1.09,2.621v4.351a4.8,4.8,0,0,0,.4,2.162V0ZM58-1.865A2.309,2.309,0,0,0,59.1-2.129a1.737,1.737,0,0,0,.742-.71V-4.564h-1q-2.013,0-2.143,1.392l-.009.158a1.073,1.073,0,0,0,.353.826A1.369,1.369,0,0,0,58-1.865Zm6.169-3.229a6.049,6.049,0,0,1,1.053-3.739A3.417,3.417,0,0,1,68.1-10.224a3.074,3.074,0,0,1,2.421,1.095V-14.25h2.69V0H70.8l-.13-1.067A3.155,3.155,0,0,1,68.086.186a3.407,3.407,0,0,1-2.844-1.4A6.244,6.244,0,0,1,64.171-5.093Zm2.681.195a3.952,3.952,0,0,0,.492,2.162,1.6,1.6,0,0,0,1.429.751,1.794,1.794,0,0,0,1.753-1.048V-7a1.769,1.769,0,0,0-1.735-1.048Q66.853-8.043,66.853-4.9Zm8.025-.213a5.953,5.953,0,0,1,.575-2.663,4.211,4.211,0,0,1,1.656-1.809,4.831,4.831,0,0,1,2.51-.64A4.571,4.571,0,0,1,82.935-8.98,4.989,4.989,0,0,1,84.368-5.6l.019.687A5.247,5.247,0,0,1,83.1-1.211a4.482,4.482,0,0,1-3.46,1.4,4.5,4.5,0,0,1-3.465-1.392,5.339,5.339,0,0,1-1.294-3.785Zm2.681.195A3.742,3.742,0,0,0,78.1-2.732a1.776,1.776,0,0,0,1.54.756,1.78,1.78,0,0,0,1.521-.747,4.1,4.1,0,0,0,.547-2.389,3.7,3.7,0,0,0-.547-2.171,1.78,1.78,0,0,0-1.54-.77,1.751,1.751,0,0,0-1.521.765A4.164,4.164,0,0,0,77.559-4.917Z" transform="translate(746.015 5049.841)" fill="#26c179"/>
    </g>
    <path id="Trazado_16001" data-name="Trazado 16001" d="M3.5-10.038l.083,1.16a3.5,3.5,0,0,1,2.885-1.345,2.913,2.913,0,0,1,2.375.937,4.372,4.372,0,0,1,.8,2.8V0H6.958V-6.42a1.739,1.739,0,0,0-.371-1.239,1.661,1.661,0,0,0-1.234-.385,1.844,1.844,0,0,0-1.7.965V0H.974V-10.038ZM17.683-1.021A3.362,3.362,0,0,1,14.937.186a3.171,3.171,0,0,1-2.463-.928,3.96,3.96,0,0,1-.867-2.718v-6.578h2.681v6.485q0,1.568,1.429,1.568a1.937,1.937,0,0,0,1.874-.946v-7.106h2.69V0H17.757Zm-1.2-13.229h2.922l-2.57,2.876h-2.18ZM26.478-1.976a1.759,1.759,0,0,0,1.206-.408,1.43,1.43,0,0,0,.482-1.085H30.68A3.439,3.439,0,0,1,30.124-1.6a3.673,3.673,0,0,1-1.5,1.317,4.689,4.689,0,0,1-2.1.469,4.358,4.358,0,0,1-3.4-1.368,5.415,5.415,0,0,1-1.243-3.781V-5.14a5.353,5.353,0,0,1,1.234-3.7,4.307,4.307,0,0,1,3.386-1.382,4.222,4.222,0,0,1,3.02,1.072A3.794,3.794,0,0,1,30.68-6.3H28.166a1.827,1.827,0,0,0-.482-1.266,1.613,1.613,0,0,0-1.225-.487,1.616,1.616,0,0,0-1.415.682,3.947,3.947,0,0,0-.478,2.213v.278a4,4,0,0,0,.473,2.227A1.636,1.636,0,0,0,26.478-1.976ZM35.041,0H32.35V-14.25h2.69Zm6.828.186a4.928,4.928,0,0,1-3.595-1.354,4.815,4.815,0,0,1-1.387-3.609v-.26a6.064,6.064,0,0,1,.584-2.7,4.289,4.289,0,0,1,1.656-1.837,4.648,4.648,0,0,1,2.445-.645,4.166,4.166,0,0,1,3.242,1.3A5.278,5.278,0,0,1,46-5.242v1.095H39.6a2.491,2.491,0,0,0,.784,1.577,2.37,2.37,0,0,0,1.656.594A2.894,2.894,0,0,0,44.466-3.1l1.317,1.475A4.025,4.025,0,0,1,44.151-.292,5.357,5.357,0,0,1,41.869.186Zm-.306-8.238a1.679,1.679,0,0,0-1.294.538,2.78,2.78,0,0,0-.635,1.54h3.729v-.213a1.982,1.982,0,0,0-.482-1.378A1.733,1.733,0,0,0,41.563-8.053ZM47.1-5.112a5.953,5.953,0,0,1,.575-2.663,4.211,4.211,0,0,1,1.656-1.809,4.831,4.831,0,0,1,2.51-.64A4.571,4.571,0,0,1,55.158-8.98,4.989,4.989,0,0,1,56.592-5.6l.019.687a5.247,5.247,0,0,1-1.29,3.706,4.482,4.482,0,0,1-3.46,1.4A4.5,4.5,0,0,1,48.4-1.206,5.339,5.339,0,0,1,47.1-4.991Zm2.681.195a3.742,3.742,0,0,0,.538,2.185,1.776,1.776,0,0,0,1.54.756,1.78,1.78,0,0,0,1.521-.747,4.1,4.1,0,0,0,.547-2.389,3.7,3.7,0,0,0-.547-2.171,1.78,1.78,0,0,0-1.54-.77,1.751,1.751,0,0,0-1.521.765A4.164,4.164,0,0,0,49.782-4.917Z" transform="translate(459.708 4792.25)" fill="#26c179"/>
    <path id="Trazado_16002" data-name="Trazado 16002" d="M3.5-10.038l.083,1.16a3.5,3.5,0,0,1,2.885-1.345,2.913,2.913,0,0,1,2.375.937,4.372,4.372,0,0,1,.8,2.8V0H6.958V-6.42a1.739,1.739,0,0,0-.371-1.239,1.661,1.661,0,0,0-1.234-.385,1.844,1.844,0,0,0-1.7.965V0H.974V-10.038ZM17.683-1.021A3.362,3.362,0,0,1,14.937.186a3.171,3.171,0,0,1-2.463-.928,3.96,3.96,0,0,1-.867-2.718v-6.578h2.681v6.485q0,1.568,1.429,1.568a1.937,1.937,0,0,0,1.874-.946v-7.106h2.69V0H17.757Zm-1.2-13.229h2.922l-2.57,2.876h-2.18ZM26.478-1.976a1.759,1.759,0,0,0,1.206-.408,1.43,1.43,0,0,0,.482-1.085H30.68A3.439,3.439,0,0,1,30.124-1.6a3.673,3.673,0,0,1-1.5,1.317,4.689,4.689,0,0,1-2.1.469,4.358,4.358,0,0,1-3.4-1.368,5.415,5.415,0,0,1-1.243-3.781V-5.14a5.353,5.353,0,0,1,1.234-3.7,4.307,4.307,0,0,1,3.386-1.382,4.222,4.222,0,0,1,3.02,1.072A3.794,3.794,0,0,1,30.68-6.3H28.166a1.827,1.827,0,0,0-.482-1.266,1.613,1.613,0,0,0-1.225-.487,1.616,1.616,0,0,0-1.415.682,3.947,3.947,0,0,0-.478,2.213v.278a4,4,0,0,0,.473,2.227A1.636,1.636,0,0,0,26.478-1.976ZM35.041,0H32.35V-14.25h2.69Zm6.828.186a4.928,4.928,0,0,1-3.595-1.354,4.815,4.815,0,0,1-1.387-3.609v-.26a6.064,6.064,0,0,1,.584-2.7,4.289,4.289,0,0,1,1.656-1.837,4.648,4.648,0,0,1,2.445-.645,4.166,4.166,0,0,1,3.242,1.3A5.278,5.278,0,0,1,46-5.242v1.095H39.6a2.491,2.491,0,0,0,.784,1.577,2.37,2.37,0,0,0,1.656.594A2.894,2.894,0,0,0,44.466-3.1l1.317,1.475A4.025,4.025,0,0,1,44.151-.292,5.357,5.357,0,0,1,41.869.186Zm-.306-8.238a1.679,1.679,0,0,0-1.294.538,2.78,2.78,0,0,0-.635,1.54h3.729v-.213a1.982,1.982,0,0,0-.482-1.378A1.733,1.733,0,0,0,41.563-8.053ZM47.1-5.112a5.953,5.953,0,0,1,.575-2.663,4.211,4.211,0,0,1,1.656-1.809,4.831,4.831,0,0,1,2.51-.64A4.571,4.571,0,0,1,55.158-8.98,4.989,4.989,0,0,1,56.592-5.6l.019.687a5.247,5.247,0,0,1-1.29,3.706,4.482,4.482,0,0,1-3.46,1.4A4.5,4.5,0,0,1,48.4-1.206,5.339,5.339,0,0,1,47.1-4.991Zm2.681.195a3.742,3.742,0,0,0,.538,2.185,1.776,1.776,0,0,0,1.54.756,1.78,1.78,0,0,0,1.521-.747,4.1,4.1,0,0,0,.547-2.389,3.7,3.7,0,0,0-.547-2.171,1.78,1.78,0,0,0-1.54-.77,1.751,1.751,0,0,0-1.521.765A4.164,4.164,0,0,0,49.782-4.917Z" transform="translate(564.708 4917.728)" fill="#26c179"/>
  </g>
</svg>
