<svg xmlns="http://www.w3.org/2000/svg" width="839" height="78" viewBox="0 0 839 78">
  <g id="Grupo_13667" data-name="Grupo 13667" transform="translate(-233 -7803)">
    <g id="Grupo_13634" data-name="Grupo 13634" transform="translate(0 -87)">
      <rect id="Rectángulo_2950" data-name="Rectángulo 2950" width="269" height="78" rx="5" transform="translate(233 7890)" fill="#f0f0f0"/>
      <path id="Trazado_11233" data-name="Trazado 11233" d="M12.866-6.458A7.909,7.909,0,0,1,11.487-1.6,4.421,4.421,0,0,1,7.751.244,4.844,4.844,0,0,1,3.967-1.282v6.36H1.709V-13.208H3.772l.11,1.465a4.652,4.652,0,0,1,3.833-1.709,4.5,4.5,0,0,1,3.766,1.794,8,8,0,0,1,1.385,4.993Zm-2.258-.256a5.836,5.836,0,0,0-.952-3.528,3.067,3.067,0,0,0-2.612-1.294A3.32,3.32,0,0,0,3.967-9.717v6.311A3.326,3.326,0,0,0,7.068-1.6,3.053,3.053,0,0,0,9.65-2.887,6.37,6.37,0,0,0,10.608-6.714ZM21.216.244a5.771,5.771,0,0,1-4.37-1.764,6.547,6.547,0,0,1-1.685-4.718v-.415a7.926,7.926,0,0,1,.751-3.51,5.856,5.856,0,0,1,2.1-2.417,5.279,5.279,0,0,1,2.924-.873,4.947,4.947,0,0,1,4,1.7A7.346,7.346,0,0,1,26.367-6.9v.94H17.419A4.7,4.7,0,0,0,18.561-2.8a3.588,3.588,0,0,0,2.777,1.2,3.933,3.933,0,0,0,2.026-.488,5.091,5.091,0,0,0,1.453-1.294L26.2-2.307A5.546,5.546,0,0,1,21.216.244ZM20.935-11.6a3.012,3.012,0,0,0-2.295.995,4.836,4.836,0,0,0-1.147,2.789h6.616v-.171a4.3,4.3,0,0,0-.928-2.667A2.836,2.836,0,0,0,20.935-11.6Zm14.429.415a6.767,6.767,0,0,0-1.111-.085,2.976,2.976,0,0,0-3.015,1.892V0H28.979V-13.208h2.2l.037,1.526a3.516,3.516,0,0,1,3.149-1.77,2.307,2.307,0,0,1,1,.171Zm8.459,0a6.767,6.767,0,0,0-1.111-.085A2.976,2.976,0,0,0,39.7-9.375V0H37.439V-13.208h2.2l.037,1.526a3.516,3.516,0,0,1,3.149-1.77,2.307,2.307,0,0,1,1,.171Zm1.233,4.456a7.8,7.8,0,0,1,.763-3.491,5.691,5.691,0,0,1,2.124-2.393,5.782,5.782,0,0,1,3.107-.842,5.57,5.57,0,0,1,4.364,1.868A7.186,7.186,0,0,1,57.08-6.616v.159A7.869,7.869,0,0,1,56.342-3,5.608,5.608,0,0,1,54.23-.61a5.848,5.848,0,0,1-3.156.854,5.556,5.556,0,0,1-4.352-1.868,7.149,7.149,0,0,1-1.666-4.944Zm2.271.269A5.651,5.651,0,0,0,48.346-2.93,3.262,3.262,0,0,0,51.074-1.6a3.242,3.242,0,0,0,2.734-1.349,6.179,6.179,0,0,0,1.013-3.778,5.641,5.641,0,0,0-1.031-3.522A3.279,3.279,0,0,0,51.05-11.6a3.243,3.243,0,0,0-2.7,1.331A6.133,6.133,0,0,0,47.327-6.458ZM65.234-6.7a7.741,7.741,0,0,1,1.447-4.9,4.687,4.687,0,0,1,3.9-1.855,4.111,4.111,0,0,1,3.381,1.489l.146-1.245h3.2V-.439a5.645,5.645,0,0,1-.787,3.015A5.057,5.057,0,0,1,74.3,4.529a7.789,7.789,0,0,1-3.345.671,7.243,7.243,0,0,1-2.832-.58,5.026,5.026,0,0,1-2.087-1.5L67.6.977a4.133,4.133,0,0,0,3.2,1.477A3.025,3.025,0,0,0,72.986,1.7a2.816,2.816,0,0,0,.781-2.13v-.708A4.081,4.081,0,0,1,70.557.244a4.675,4.675,0,0,1-3.851-1.862,7.739,7.739,0,0,1-1.471-4.938Zm3.528.256a4.807,4.807,0,0,0,.72,2.814A2.292,2.292,0,0,0,71.46-2.612a2.451,2.451,0,0,0,2.307-1.208V-9.375a2.445,2.445,0,0,0-2.283-1.208,2.307,2.307,0,0,0-2,1.038A5.418,5.418,0,0,0,68.762-6.445ZM87.439-9.9a9.584,9.584,0,0,0-1.27-.1,2.584,2.584,0,0,0-2.625,1.355V0H80.017V-13.208H83.35l.1,1.575a3.269,3.269,0,0,1,2.942-1.819,3.7,3.7,0,0,1,1.1.159ZM96.423,0a3.918,3.918,0,0,1-.354-1.184A4.269,4.269,0,0,1,92.737.244,4.69,4.69,0,0,1,89.52-.879a3.612,3.612,0,0,1-1.276-2.832A3.733,3.733,0,0,1,89.8-6.934a7.68,7.68,0,0,1,4.5-1.135h1.624v-.757a2.177,2.177,0,0,0-.47-1.465,1.849,1.849,0,0,0-1.483-.549,2.1,2.1,0,0,0-1.4.427,1.451,1.451,0,0,0-.507,1.172H88.538a3.544,3.544,0,0,1,.708-2.124,4.68,4.68,0,0,1,2-1.532,7.3,7.3,0,0,1,2.905-.555,5.764,5.764,0,0,1,3.876,1.227,4.292,4.292,0,0,1,1.434,3.448v5.725a6.314,6.314,0,0,0,.525,2.844V0ZM93.506-2.454a3.038,3.038,0,0,0,1.44-.348,2.285,2.285,0,0,0,.977-.934V-6.006H94.6q-2.649,0-2.82,1.831l-.012.208a1.412,1.412,0,0,0,.464,1.086A1.8,1.8,0,0,0,93.506-2.454ZM105.42-13.208l.11,1.526a4.611,4.611,0,0,1,3.8-1.77,3.832,3.832,0,0,1,3.125,1.233,5.752,5.752,0,0,1,1.05,3.687V0h-3.528V-8.447a2.289,2.289,0,0,0-.488-1.63,2.186,2.186,0,0,0-1.624-.507,2.427,2.427,0,0,0-2.234,1.27V0H102.1V-13.208ZM115.625-6.7a7.96,7.96,0,0,1,1.385-4.919,4.5,4.5,0,0,1,3.79-1.831,4.045,4.045,0,0,1,3.186,1.44V-18.75h3.54V0h-3.186l-.171-1.4A4.151,4.151,0,0,1,120.776.244a4.483,4.483,0,0,1-3.741-1.837A8.216,8.216,0,0,1,115.625-6.7Zm3.528.256A5.2,5.2,0,0,0,119.8-3.6a2.108,2.108,0,0,0,1.88.989,2.361,2.361,0,0,0,2.307-1.379V-9.2a2.327,2.327,0,0,0-2.283-1.379Q119.153-10.583,119.153-6.445ZM136.34.244a6.484,6.484,0,0,1-4.73-1.782,6.335,6.335,0,0,1-1.825-4.749v-.342a7.979,7.979,0,0,1,.769-3.558,5.644,5.644,0,0,1,2.179-2.417,6.116,6.116,0,0,1,3.217-.848,5.482,5.482,0,0,1,4.266,1.709A6.944,6.944,0,0,1,141.772-6.9v1.44h-8.411a3.277,3.277,0,0,0,1.031,2.075,3.118,3.118,0,0,0,2.179.781,3.808,3.808,0,0,0,3.186-1.477l1.733,1.941a5.3,5.3,0,0,1-2.148,1.752A7.049,7.049,0,0,1,136.34.244Zm-.4-10.84a2.209,2.209,0,0,0-1.7.708,3.658,3.658,0,0,0-.836,2.026h4.907v-.281a2.608,2.608,0,0,0-.635-1.813A2.28,2.28,0,0,0,135.938-10.6Z" transform="translate(297 7937)" fill="#02255f"/>
    </g>
    <g id="Grupo_13635" data-name="Grupo 13635" transform="translate(0 -87)">
      <rect id="Rectángulo_2951" data-name="Rectángulo 2951" width="272" height="78" rx="5" transform="translate(515 7890)" fill="#f0f0f0"/>
      <path id="Trazado_11234" data-name="Trazado 11234" d="M3.845-13.208l.073,1.66a4.813,4.813,0,0,1,3.955-1.9q4.187,0,4.224,4.724V0H9.839V-8.74a3.041,3.041,0,0,0-.653-2.112,2.617,2.617,0,0,0-2-.684,3.259,3.259,0,0,0-1.929.586A3.979,3.979,0,0,0,3.967-9.412V0H1.709V-13.208ZM17.957,0H15.7V-13.208h2.258ZM15.515-16.711a1.348,1.348,0,0,1,.336-.928,1.26,1.26,0,0,1,.995-.378,1.28,1.28,0,0,1,1,.378,1.334,1.334,0,0,1,.342.928,1.29,1.29,0,0,1-.342.916,1.3,1.3,0,0,1-1,.366,1.283,1.283,0,0,1-.995-.366A1.3,1.3,0,0,1,15.515-16.711Zm8.191,3.5.073,1.66a4.813,4.813,0,0,1,3.955-1.9q4.187,0,4.224,4.724V0H29.7V-8.74a3.041,3.041,0,0,0-.653-2.112,2.617,2.617,0,0,0-2-.684,3.259,3.259,0,0,0-1.929.586,3.979,3.979,0,0,0-1.294,1.538V0H21.57V-13.208Zm7.471-5.151a3.035,3.035,0,0,1-.751,2.136,2.438,2.438,0,0,1-1.874.818,2.749,2.749,0,0,1-.867-.122,4.676,4.676,0,0,1-.958-.5,4.15,4.15,0,0,0-.854-.458,2.091,2.091,0,0,0-.6-.079,1.12,1.12,0,0,0-.854.385,1.394,1.394,0,0,0-.354.983l-1.514-.085a3.186,3.186,0,0,1,.739-2.161,2.369,2.369,0,0,1,1.874-.854,2.276,2.276,0,0,1,.769.122,5.6,5.6,0,0,1,.928.476,5.459,5.459,0,0,0,.9.464,2.061,2.061,0,0,0,.69.11,1.092,1.092,0,0,0,.873-.415,1.456,1.456,0,0,0,.348-.964ZM43.518,0A4.744,4.744,0,0,1,43.2-1.392,5.039,5.039,0,0,1,39.441.244a4.662,4.662,0,0,1-3.2-1.1,3.574,3.574,0,0,1-1.251-2.8,3.734,3.734,0,0,1,1.569-3.2,7.4,7.4,0,0,1,4.413-1.141h2.2V-9.045a2.536,2.536,0,0,0-.708-1.886,2.845,2.845,0,0,0-2.087-.7,3.293,3.293,0,0,0-2.026.61,1.8,1.8,0,0,0-.818,1.477H35.254a3.117,3.117,0,0,1,.7-1.91,4.791,4.791,0,0,1,1.9-1.459,6.406,6.406,0,0,1,2.643-.537,5.221,5.221,0,0,1,3.577,1.141,4.117,4.117,0,0,1,1.343,3.143v6.079A7.432,7.432,0,0,0,45.886-.2V0ZM39.771-1.721a3.969,3.969,0,0,0,2.014-.549A3.323,3.323,0,0,0,43.164-3.7v-2.71h-1.77q-4.15,0-4.15,2.429a2.056,2.056,0,0,0,.708,1.66A2.721,2.721,0,0,0,39.771-1.721ZM58.521,0H54.98V-13.208h3.54ZM54.773-16.626a1.737,1.737,0,0,1,.531-1.306,2,2,0,0,1,1.447-.513,2,2,0,0,1,1.44.513,1.727,1.727,0,0,1,.537,1.306,1.732,1.732,0,0,1-.543,1.318,2,2,0,0,1-1.434.513,2,2,0,0,1-1.434-.513A1.732,1.732,0,0,1,54.773-16.626Zm9.9,3.418.11,1.526a4.611,4.611,0,0,1,3.8-1.77A3.832,3.832,0,0,1,71.7-12.219a5.752,5.752,0,0,1,1.05,3.687V0H69.226V-8.447a2.289,2.289,0,0,0-.488-1.63,2.186,2.186,0,0,0-1.624-.507,2.427,2.427,0,0,0-2.234,1.27V0H61.353V-13.208Zm14.978-3.247v3.247h2.258v2.588H79.651v6.592a1.574,1.574,0,0,0,.281,1.05,1.41,1.41,0,0,0,1.074.317,5.626,5.626,0,0,0,1.038-.085V-.073a7.263,7.263,0,0,1-2.136.317Q76.2.244,76.123-3.5V-10.62H74.194v-2.588h1.929v-3.247Zm10.3,16.7a6.484,6.484,0,0,1-4.73-1.782A6.335,6.335,0,0,1,83.4-6.287v-.342a7.979,7.979,0,0,1,.769-3.558A5.644,5.644,0,0,1,86.346-12.6a6.116,6.116,0,0,1,3.217-.848,5.482,5.482,0,0,1,4.266,1.709A6.944,6.944,0,0,1,95.386-6.9v1.44H86.975a3.277,3.277,0,0,0,1.031,2.075,3.118,3.118,0,0,0,2.179.781,3.808,3.808,0,0,0,3.186-1.477L95.1-2.136A5.3,5.3,0,0,1,92.957-.385,7.049,7.049,0,0,1,89.954.244Zm-.4-10.84a2.209,2.209,0,0,0-1.7.708,3.658,3.658,0,0,0-.836,2.026h4.907v-.281a2.608,2.608,0,0,0-.635-1.813A2.28,2.28,0,0,0,89.551-10.6ZM101.111,0h-3.54V-18.75h3.54Zm6.628,0H104.2V-13.208h3.54Zm-3.748-16.626a1.737,1.737,0,0,1,.531-1.306,2,2,0,0,1,1.447-.513,2,2,0,0,1,1.44.513,1.727,1.727,0,0,1,.537,1.306,1.732,1.732,0,0,1-.543,1.318,2,2,0,0,1-1.434.513,2,2,0,0,1-1.434-.513A1.732,1.732,0,0,1,103.992-16.626Zm6.14,9.924a7.741,7.741,0,0,1,1.447-4.9,4.687,4.687,0,0,1,3.9-1.855,4.111,4.111,0,0,1,3.381,1.489l.146-1.245h3.2V-.439a5.645,5.645,0,0,1-.787,3.015A5.057,5.057,0,0,1,119.2,4.529a7.789,7.789,0,0,1-3.345.671,7.243,7.243,0,0,1-2.832-.58,5.026,5.026,0,0,1-2.087-1.5L112.5.977a4.133,4.133,0,0,0,3.2,1.477,3.025,3.025,0,0,0,2.185-.751,2.816,2.816,0,0,0,.781-2.13v-.708a4.081,4.081,0,0,1-3.21,1.379A4.675,4.675,0,0,1,111.6-1.617a7.739,7.739,0,0,1-1.471-4.938Zm3.528.256a4.807,4.807,0,0,0,.72,2.814,2.292,2.292,0,0,0,1.978,1.019,2.451,2.451,0,0,0,2.307-1.208V-9.375a2.445,2.445,0,0,0-2.283-1.208,2.307,2.307,0,0,0-2,1.038A5.418,5.418,0,0,0,113.66-6.445ZM130.994.244a6.484,6.484,0,0,1-4.73-1.782,6.335,6.335,0,0,1-1.825-4.749v-.342a7.979,7.979,0,0,1,.769-3.558,5.644,5.644,0,0,1,2.179-2.417,6.116,6.116,0,0,1,3.217-.848,5.482,5.482,0,0,1,4.266,1.709A6.944,6.944,0,0,1,136.426-6.9v1.44h-8.411a3.277,3.277,0,0,0,1.031,2.075,3.118,3.118,0,0,0,2.179.781,3.808,3.808,0,0,0,3.186-1.477l1.733,1.941A5.3,5.3,0,0,1,134-.385,7.049,7.049,0,0,1,130.994.244Zm-.4-10.84a2.209,2.209,0,0,0-1.7.708,3.658,3.658,0,0,0-.836,2.026h4.907v-.281a2.608,2.608,0,0,0-.635-1.813A2.28,2.28,0,0,0,130.591-10.6Zm11.084-2.612.11,1.526a4.611,4.611,0,0,1,3.8-1.77,3.832,3.832,0,0,1,3.125,1.233,5.752,5.752,0,0,1,1.05,3.687V0h-3.528V-8.447a2.289,2.289,0,0,0-.488-1.63,2.186,2.186,0,0,0-1.624-.507,2.427,2.427,0,0,0-2.234,1.27V0h-3.528V-13.208Zm14.978-3.247v3.247h2.258v2.588h-2.258v6.592a1.574,1.574,0,0,0,.281,1.05,1.41,1.41,0,0,0,1.074.317,5.626,5.626,0,0,0,1.038-.085V-.073a7.262,7.262,0,0,1-2.136.317q-3.711,0-3.784-3.748V-10.62H151.2v-2.588h1.929v-3.247Zm10.3,16.7a6.484,6.484,0,0,1-4.73-1.782A6.335,6.335,0,0,1,160.4-6.287v-.342a7.979,7.979,0,0,1,.769-3.558,5.644,5.644,0,0,1,2.179-2.417,6.116,6.116,0,0,1,3.217-.848,5.482,5.482,0,0,1,4.266,1.709A6.944,6.944,0,0,1,172.388-6.9v1.44h-8.411a3.277,3.277,0,0,0,1.031,2.075,3.118,3.118,0,0,0,2.179.781,3.808,3.808,0,0,0,3.186-1.477l1.733,1.941a5.3,5.3,0,0,1-2.148,1.752A7.049,7.049,0,0,1,166.956.244Zm-.4-10.84a2.209,2.209,0,0,0-1.7.708,3.658,3.658,0,0,0-.836,2.026h4.907v-.281a2.608,2.608,0,0,0-.635-1.813A2.28,2.28,0,0,0,166.553-10.6Z" transform="translate(567 7937)" fill="#02255f"/>
    </g>
    <g id="Grupo_13636" data-name="Grupo 13636" transform="translate(0 -87)">
      <rect id="Rectángulo_2952" data-name="Rectángulo 2952" width="270" height="78" rx="5" transform="translate(802 7890)" fill="#f0f0f0"/>
      <path id="Trazado_11235" data-name="Trazado 11235" d="M3.967-11.609a4.8,4.8,0,0,1,3.906-1.843q4.187,0,4.224,4.724V0H9.839V-8.74a3.041,3.041,0,0,0-.653-2.112,2.617,2.617,0,0,0-2-.684,3.259,3.259,0,0,0-1.929.586A3.979,3.979,0,0,0,3.967-9.412V0H1.709V-18.75H3.967ZM14.88-6.726a7.8,7.8,0,0,1,.763-3.491,5.691,5.691,0,0,1,2.124-2.393,5.782,5.782,0,0,1,3.107-.842,5.57,5.57,0,0,1,4.364,1.868A7.186,7.186,0,0,1,26.9-6.616v.159A7.869,7.869,0,0,1,26.166-3,5.608,5.608,0,0,1,24.054-.61,5.848,5.848,0,0,1,20.9.244a5.556,5.556,0,0,1-4.352-1.868A7.149,7.149,0,0,1,14.88-6.567Zm2.271.269A5.651,5.651,0,0,0,18.17-2.93,3.262,3.262,0,0,0,20.9-1.6a3.242,3.242,0,0,0,2.734-1.349,6.179,6.179,0,0,0,1.013-3.778,5.641,5.641,0,0,0-1.031-3.522,3.279,3.279,0,0,0-2.74-1.349,3.243,3.243,0,0,0-2.7,1.331A6.133,6.133,0,0,0,17.151-6.458Zm14.709-6.75.061,1.465a4.878,4.878,0,0,1,3.918-1.709,3.776,3.776,0,0,1,3.772,2.124,5,5,0,0,1,1.715-1.538,5.066,5.066,0,0,1,2.5-.586q4.346,0,4.419,4.6V0H45.984V-8.716a3.033,3.033,0,0,0-.647-2.118,2.849,2.849,0,0,0-2.173-.7,3,3,0,0,0-2.087.751,3.046,3.046,0,0,0-.964,2.02V0H37.842V-8.655q0-2.881-2.82-2.881a3.021,3.021,0,0,0-3.04,1.892V0H29.724V-13.208ZM62.83-6.458a7.853,7.853,0,0,1-1.392,4.865A4.446,4.446,0,0,1,57.7.244a4.6,4.6,0,0,1-3.87-1.77L53.723,0H51.648V-18.75h2.258v6.995a4.578,4.578,0,0,1,3.772-1.7,4.474,4.474,0,0,1,3.778,1.819,8.089,8.089,0,0,1,1.373,4.98Zm-2.258-.256a6.1,6.1,0,0,0-.891-3.564,2.95,2.95,0,0,0-2.563-1.257,3.316,3.316,0,0,0-3.21,2.075v5.713a3.408,3.408,0,0,0,3.235,2.075A2.934,2.934,0,0,0,59.668-2.93,6.489,6.489,0,0,0,60.571-6.714Zm11.487-4.468a6.767,6.767,0,0,0-1.111-.085,2.976,2.976,0,0,0-3.015,1.892V0H65.674V-13.208h2.2l.037,1.526a3.516,3.516,0,0,1,3.149-1.77,2.307,2.307,0,0,1,1,.171ZM79.382.244a5.771,5.771,0,0,1-4.37-1.764,6.547,6.547,0,0,1-1.685-4.718v-.415a7.926,7.926,0,0,1,.751-3.51,5.856,5.856,0,0,1,2.1-2.417,5.279,5.279,0,0,1,2.924-.873,4.947,4.947,0,0,1,4,1.7A7.346,7.346,0,0,1,84.534-6.9v.94H75.586A4.7,4.7,0,0,0,76.727-2.8,3.588,3.588,0,0,0,79.5-1.6a3.933,3.933,0,0,0,2.026-.488,5.091,5.091,0,0,0,1.453-1.294l1.379,1.074A5.546,5.546,0,0,1,79.382.244ZM79.1-11.6a3.012,3.012,0,0,0-2.295.995,4.836,4.836,0,0,0-1.147,2.789h6.616v-.171a4.3,4.3,0,0,0-.928-2.667A2.836,2.836,0,0,0,79.1-11.6Zm25.781,5.115a8,8,0,0,1-1.355,4.95A4.488,4.488,0,0,1,99.744.244,4.124,4.124,0,0,1,96.313-1.4L96.155,0H92.981V-18.75h3.528v6.726a4.018,4.018,0,0,1,3.21-1.428,4.525,4.525,0,0,1,3.79,1.776,8.009,8.009,0,0,1,1.373,5Zm-3.528-.256a5.254,5.254,0,0,0-.635-2.924,2.146,2.146,0,0,0-1.892-.922A2.327,2.327,0,0,0,96.509-9.2v5.212A2.359,2.359,0,0,0,98.853-2.6,2.178,2.178,0,0,0,101.1-4.285,8.69,8.69,0,0,0,101.355-6.738Zm5.151.012a7.833,7.833,0,0,1,.757-3.5,5.54,5.54,0,0,1,2.179-2.38,6.357,6.357,0,0,1,3.3-.842,6.014,6.014,0,0,1,4.364,1.636,6.565,6.565,0,0,1,1.886,4.443l.024.9a6.9,6.9,0,0,1-1.7,4.877A5.9,5.9,0,0,1,112.769.244a5.927,5.927,0,0,1-4.559-1.831,7.025,7.025,0,0,1-1.7-4.98Zm3.528.256a4.924,4.924,0,0,0,.708,2.875,2.337,2.337,0,0,0,2.026.995,2.342,2.342,0,0,0,2-.983,5.388,5.388,0,0,0,.72-3.143,4.875,4.875,0,0,0-.72-2.856,2.342,2.342,0,0,0-2.026-1.013,2.3,2.3,0,0,0-2,1.007A5.478,5.478,0,0,0,110.034-6.47Zm14.4-6.738.11,1.526a4.611,4.611,0,0,1,3.8-1.77,3.832,3.832,0,0,1,3.125,1.233,5.752,5.752,0,0,1,1.05,3.687V0h-3.528V-8.447a2.289,2.289,0,0,0-.488-1.63,2.186,2.186,0,0,0-1.624-.507,2.427,2.427,0,0,0-2.234,1.27V0h-3.528V-13.208ZM134.644-6.7a7.96,7.96,0,0,1,1.385-4.919,4.5,4.5,0,0,1,3.79-1.831,4.045,4.045,0,0,1,3.186,1.44V-18.75h3.54V0h-3.186l-.171-1.4A4.151,4.151,0,0,1,139.795.244a4.483,4.483,0,0,1-3.741-1.837A8.216,8.216,0,0,1,134.644-6.7Zm3.528.256a5.2,5.2,0,0,0,.647,2.844,2.108,2.108,0,0,0,1.88.989,2.361,2.361,0,0,0,2.307-1.379V-9.2a2.327,2.327,0,0,0-2.283-1.379Q138.171-10.583,138.171-6.445ZM156.934,0a3.917,3.917,0,0,1-.354-1.184A4.269,4.269,0,0,1,153.247.244a4.69,4.69,0,0,1-3.217-1.123,3.612,3.612,0,0,1-1.276-2.832,3.733,3.733,0,0,1,1.556-3.223,7.68,7.68,0,0,1,4.5-1.135h1.624v-.757a2.177,2.177,0,0,0-.47-1.465,1.849,1.849,0,0,0-1.483-.549,2.1,2.1,0,0,0-1.4.427,1.451,1.451,0,0,0-.507,1.172h-3.528a3.544,3.544,0,0,1,.708-2.124,4.68,4.68,0,0,1,2-1.532,7.3,7.3,0,0,1,2.905-.555,5.764,5.764,0,0,1,3.876,1.227,4.292,4.292,0,0,1,1.434,3.448v5.725A6.314,6.314,0,0,0,160.5-.208V0Zm-2.917-2.454a3.038,3.038,0,0,0,1.44-.348,2.285,2.285,0,0,0,.977-.934V-6.006h-1.318q-2.649,0-2.82,1.831l-.012.208a1.412,1.412,0,0,0,.464,1.086A1.8,1.8,0,0,0,154.016-2.454ZM162.134-6.7a7.96,7.96,0,0,1,1.385-4.919,4.5,4.5,0,0,1,3.79-1.831,4.045,4.045,0,0,1,3.186,1.44V-18.75h3.54V0H170.85l-.171-1.4A4.151,4.151,0,0,1,167.285.244a4.483,4.483,0,0,1-3.741-1.837A8.216,8.216,0,0,1,162.134-6.7Zm3.528.256a5.2,5.2,0,0,0,.647,2.844,2.108,2.108,0,0,0,1.88.989A2.361,2.361,0,0,0,170.5-3.992V-9.2a2.327,2.327,0,0,0-2.283-1.379Q165.662-10.583,165.662-6.445Zm10.559-.281a7.833,7.833,0,0,1,.757-3.5,5.541,5.541,0,0,1,2.179-2.38,6.357,6.357,0,0,1,3.3-.842,6.014,6.014,0,0,1,4.364,1.636,6.565,6.565,0,0,1,1.886,4.443l.024.9a6.9,6.9,0,0,1-1.7,4.877A5.9,5.9,0,0,1,182.483.244a5.927,5.927,0,0,1-4.559-1.831,7.025,7.025,0,0,1-1.7-4.98Zm3.528.256a4.924,4.924,0,0,0,.708,2.875,2.337,2.337,0,0,0,2.026.995,2.342,2.342,0,0,0,2-.983,5.388,5.388,0,0,0,.72-3.143,4.874,4.874,0,0,0-.72-2.856,2.342,2.342,0,0,0-2.026-1.013,2.3,2.3,0,0,0-2,1.007A5.478,5.478,0,0,0,179.749-6.47Zm18.311,2.82a1.137,1.137,0,0,0-.641-1.019,7.28,7.28,0,0,0-2.057-.665q-4.712-.989-4.712-4a3.629,3.629,0,0,1,1.459-2.936,5.884,5.884,0,0,1,3.815-1.178,6.333,6.333,0,0,1,4.022,1.184,3.732,3.732,0,0,1,1.508,3.076h-3.528a1.707,1.707,0,0,0-.488-1.251,2.066,2.066,0,0,0-1.526-.494,2.111,2.111,0,0,0-1.379.4,1.272,1.272,0,0,0-.488,1.025,1.087,1.087,0,0,0,.555.946,5.714,5.714,0,0,0,1.874.623,15.3,15.3,0,0,1,2.222.592q2.8,1.025,2.8,3.552a3.445,3.445,0,0,1-1.55,2.924,6.688,6.688,0,0,1-4,1.117,6.985,6.985,0,0,1-2.948-.592,4.946,4.946,0,0,1-2.02-1.624,3.772,3.772,0,0,1-.732-2.228h3.345a1.842,1.842,0,0,0,.7,1.44,2.76,2.76,0,0,0,1.733.5,2.554,2.554,0,0,0,1.532-.385A1.2,1.2,0,0,0,198.059-3.65Zm5.151-3.076a7.833,7.833,0,0,1,.757-3.5,5.541,5.541,0,0,1,2.179-2.38,6.357,6.357,0,0,1,3.3-.842,6.014,6.014,0,0,1,4.364,1.636A6.565,6.565,0,0,1,215.7-7.373l.024.9a6.9,6.9,0,0,1-1.7,4.877A5.9,5.9,0,0,1,209.473.244a5.927,5.927,0,0,1-4.559-1.831,7.025,7.025,0,0,1-1.7-4.98Zm3.528.256a4.924,4.924,0,0,0,.708,2.875,2.337,2.337,0,0,0,2.026.995,2.342,2.342,0,0,0,2-.983,5.388,5.388,0,0,0,.72-3.143,4.874,4.874,0,0,0-.72-2.856,2.342,2.342,0,0,0-2.026-1.013,2.3,2.3,0,0,0-2,1.007A5.478,5.478,0,0,0,206.738-6.47Z" transform="translate(829 7937)" fill="#02255f"/>
    </g>
  </g>
</svg>
