<svg xmlns="http://www.w3.org/2000/svg" width="758.76" height="345.279" viewBox="0 0 758.76 345.279">
  <g id="Grupo_13666" data-name="Grupo 13666" transform="translate(-235 -4191.047)">
    <g id="Grupo_13655" data-name="Grupo 13655" transform="translate(0 -72)">
      <path id="Trazado_11158" data-name="Trazado 11158" d="M0,0H285V57H0Z" transform="matrix(1, -0.017, 0.017, 1, 235, 4279.492)" fill="#dbffee"/>
      <path id="Trazado_10616" data-name="Trazado 10616" d="M0,0,471.958,16.481,470.543,57H0Z" transform="matrix(0.999, -0.035, 0.035, 0.999, 520.1, 4279.518)" fill="#ffe8ba"/>
      <g id="Grupo_13654" data-name="Grupo 13654">
        <text id="Sujeto" transform="translate(407 4359)" fill="#26c179" font-size="19" font-family="Roboto-Bold, Roboto" font-weight="700"><tspan x="0" y="0">Sujeto</tspan></text>
        <path id="Trazado_11159" data-name="Trazado 11159" d="M14.531-9.858H5.288V-2.3H16.025V0H2.476V-21.328h13.4v2.314H5.288v6.855h9.243ZM22.046,0h-2.71V-22.5h2.71ZM36.606-15.85V1.831q0,4.57-4.146,4.57a5.028,5.028,0,0,1-1.655-.264V3.97a5.239,5.239,0,0,0,1.23.117A1.842,1.842,0,0,0,33.42,3.6,2.426,2.426,0,0,0,33.9,1.89V-15.85Zm-2.988-4.2a1.625,1.625,0,0,1,.4-1.106,1.481,1.481,0,0,1,1.179-.461,1.536,1.536,0,0,1,1.2.454,1.6,1.6,0,0,1,.41,1.113,1.548,1.548,0,0,1-.41,1.1,1.564,1.564,0,0,1-1.2.439,1.516,1.516,0,0,1-1.187-.439A1.581,1.581,0,0,1,33.618-20.054ZM40.254-8.071a9.362,9.362,0,0,1,.916-4.189,6.83,6.83,0,0,1,2.549-2.871,6.938,6.938,0,0,1,3.728-1.011A6.684,6.684,0,0,1,52.683-13.9a8.623,8.623,0,0,1,2,5.962v.19A9.443,9.443,0,0,1,53.8-3.6,6.729,6.729,0,0,1,51.262-.732,7.018,7.018,0,0,1,47.476.293a6.667,6.667,0,0,1-5.222-2.241,8.579,8.579,0,0,1-2-5.933Zm2.725.322A6.781,6.781,0,0,0,44.2-3.516a3.914,3.914,0,0,0,3.274,1.6,3.891,3.891,0,0,0,3.281-1.619,7.415,7.415,0,0,0,1.216-4.534A6.769,6.769,0,0,0,50.735-12.3a3.935,3.935,0,0,0-3.289-1.619,3.891,3.891,0,0,0-3.237,1.6A7.36,7.36,0,0,0,42.979-7.749ZM63.091-3.677,67.017-15.85h2.769L64.1,0H62.036L56.294-15.85h2.769ZM78.779.293a6.925,6.925,0,0,1-5.244-2.117,7.856,7.856,0,0,1-2.021-5.662v-.5a9.511,9.511,0,0,1,.9-4.211,7.028,7.028,0,0,1,2.52-2.9,6.335,6.335,0,0,1,3.508-1.047,5.936,5.936,0,0,1,4.8,2.036,8.816,8.816,0,0,1,1.714,5.83v1.128H74.224a5.634,5.634,0,0,0,1.37,3.787,4.305,4.305,0,0,0,3.333,1.443A4.72,4.72,0,0,0,81.357-2.5,6.11,6.11,0,0,0,83.1-4.058l1.655,1.289A6.656,6.656,0,0,1,78.779.293Zm-.337-14.209a3.615,3.615,0,0,0-2.754,1.194,5.8,5.8,0,0,0-1.377,3.347h7.939V-9.58a5.162,5.162,0,0,0-1.113-3.2A3.4,3.4,0,0,0,78.442-13.916ZM90.659-15.85l.088,1.992a5.776,5.776,0,0,1,4.746-2.285q5.024,0,5.068,5.669V0h-2.71V-10.488a3.649,3.649,0,0,0-.784-2.534,3.141,3.141,0,0,0-2.4-.82,3.911,3.911,0,0,0-2.314.7,4.775,4.775,0,0,0-1.553,1.846V0H88.1V-15.85Zm20.757,7.793a9.285,9.285,0,0,1,1.729-5.867,5.466,5.466,0,0,1,4.526-2.219,5.5,5.5,0,0,1,4.409,1.9V-22.5h2.71V0H122.3l-.132-1.7A5.519,5.519,0,0,1,117.642.293a5.414,5.414,0,0,1-4.49-2.256,9.39,9.39,0,0,1-1.736-5.889Zm2.71.308a7.03,7.03,0,0,0,1.113,4.219,3.6,3.6,0,0,0,3.076,1.523,3.953,3.953,0,0,0,3.765-2.314V-11.6a3.984,3.984,0,0,0-3.735-2.241,3.616,3.616,0,0,0-3.105,1.538A7.74,7.74,0,0,0,114.126-7.749ZM135.571.293a6.925,6.925,0,0,1-5.244-2.117,7.856,7.856,0,0,1-2.021-5.662v-.5a9.511,9.511,0,0,1,.9-4.211,7.028,7.028,0,0,1,2.52-2.9,6.335,6.335,0,0,1,3.508-1.047,5.936,5.936,0,0,1,4.8,2.036,8.816,8.816,0,0,1,1.714,5.83v1.128H131.016a5.634,5.634,0,0,0,1.37,3.787,4.305,4.305,0,0,0,3.333,1.443,4.72,4.72,0,0,0,2.432-.586,6.11,6.11,0,0,0,1.743-1.553l1.655,1.289A6.656,6.656,0,0,1,135.571.293Zm-.337-14.209a3.615,3.615,0,0,0-2.754,1.194A5.8,5.8,0,0,0,131.1-9.375h7.939V-9.58a5.162,5.162,0,0,0-1.113-3.2A3.4,3.4,0,0,0,135.234-13.916Zm23.042,6.167a9.49,9.49,0,0,1-1.655,5.83A5.305,5.305,0,0,1,152.139.293,5.813,5.813,0,0,1,147.6-1.538V6.094h-2.71V-15.85h2.476l.132,1.758a5.583,5.583,0,0,1,4.6-2.051,5.4,5.4,0,0,1,4.519,2.153A9.594,9.594,0,0,1,158.276-8Zm-2.71-.308a7,7,0,0,0-1.143-4.233,3.681,3.681,0,0,0-3.135-1.553A3.984,3.984,0,0,0,147.6-11.66v7.573a3.991,3.991,0,0,0,3.721,2.168,3.663,3.663,0,0,0,3.1-1.545A7.644,7.644,0,0,0,155.566-8.057ZM161-8.071a9.362,9.362,0,0,1,.916-4.189,6.83,6.83,0,0,1,2.549-2.871,6.938,6.938,0,0,1,3.728-1.011A6.684,6.684,0,0,1,173.43-13.9a8.623,8.623,0,0,1,2,5.962v.19a9.443,9.443,0,0,1-.886,4.153,6.729,6.729,0,0,1-2.534,2.864A7.018,7.018,0,0,1,168.223.293,6.667,6.667,0,0,1,163-1.948a8.579,8.579,0,0,1-2-5.933Zm2.725.322a6.781,6.781,0,0,0,1.223,4.233,3.914,3.914,0,0,0,3.274,1.6A3.891,3.891,0,0,0,171.5-3.538a7.415,7.415,0,0,0,1.216-4.534,6.769,6.769,0,0,0-1.238-4.226,3.935,3.935,0,0,0-3.289-1.619,3.891,3.891,0,0,0-3.237,1.6A7.36,7.36,0,0,0,163.726-7.749Zm22.764-5.669a8.121,8.121,0,0,0-1.333-.1,3.571,3.571,0,0,0-3.618,2.271V0h-2.71V-15.85h2.637l.044,1.831a4.22,4.22,0,0,1,3.779-2.124,2.769,2.769,0,0,1,1.2.205Zm6.9-6.27v3.838h2.959v2.095h-2.959v9.829a2.2,2.2,0,0,0,.4,1.428,1.666,1.666,0,0,0,1.348.476,6.561,6.561,0,0,0,1.289-.176V0a7.856,7.856,0,0,1-2.08.293,3.375,3.375,0,0,1-2.739-1.1,4.72,4.72,0,0,1-.923-3.12v-9.829h-2.886V-15.85h2.886v-3.838ZM202.456,0h-2.71V-15.85h2.71Zm-2.93-20.054a1.618,1.618,0,0,1,.4-1.113,1.512,1.512,0,0,1,1.194-.454,1.536,1.536,0,0,1,1.2.454,1.6,1.6,0,0,1,.41,1.113,1.548,1.548,0,0,1-.41,1.1,1.564,1.564,0,0,1-1.2.439,1.54,1.54,0,0,1-1.194-.439A1.564,1.564,0,0,1,199.526-20.054ZM216.021-4.2a2,2,0,0,0-.828-1.707,7.966,7.966,0,0,0-2.886-1.047,13.644,13.644,0,0,1-3.267-1.055,4.647,4.647,0,0,1-1.787-1.465,3.5,3.5,0,0,1-.579-2.021,4.111,4.111,0,0,1,1.648-3.3,6.436,6.436,0,0,1,4.211-1.348,6.623,6.623,0,0,1,4.373,1.392,4.42,4.42,0,0,1,1.677,3.56h-2.725a2.446,2.446,0,0,0-.945-1.919,3.54,3.54,0,0,0-2.38-.806,3.7,3.7,0,0,0-2.314.645,2.029,2.029,0,0,0-.835,1.685,1.644,1.644,0,0,0,.776,1.479,9.552,9.552,0,0,0,2.805.952,14.616,14.616,0,0,1,3.289,1.084,4.8,4.8,0,0,1,1.868,1.516,3.728,3.728,0,0,1,.608,2.161,4.056,4.056,0,0,1-1.7,3.406A7.128,7.128,0,0,1,212.622.293a7.981,7.981,0,0,1-3.369-.674,5.48,5.48,0,0,1-2.292-1.882,4.537,4.537,0,0,1-.828-2.615h2.71a2.806,2.806,0,0,0,1.091,2.161,4.234,4.234,0,0,0,2.688.8,4.37,4.37,0,0,0,2.468-.623A1.913,1.913,0,0,0,216.021-4.2Zm9.917-15.483v3.838H228.9v2.095h-2.959v9.829a2.2,2.2,0,0,0,.4,1.428,1.666,1.666,0,0,0,1.348.476A6.561,6.561,0,0,0,228.97-2.2V0a7.856,7.856,0,0,1-2.08.293,3.375,3.375,0,0,1-2.739-1.1,4.72,4.72,0,0,1-.923-3.12v-9.829h-2.886V-15.85h2.886v-3.838ZM241.846,0a5.693,5.693,0,0,1-.381-1.67A6.046,6.046,0,0,1,236.953.293a5.6,5.6,0,0,1-3.845-1.326,4.289,4.289,0,0,1-1.5-3.362,4.481,4.481,0,0,1,1.882-3.845,8.875,8.875,0,0,1,5.3-1.37h2.637v-1.245a3.044,3.044,0,0,0-.85-2.263,3.415,3.415,0,0,0-2.5-.842,3.952,3.952,0,0,0-2.432.732,2.158,2.158,0,0,0-.981,1.772h-2.725a3.74,3.74,0,0,1,.842-2.292,5.749,5.749,0,0,1,2.285-1.75,7.688,7.688,0,0,1,3.171-.645,6.266,6.266,0,0,1,4.292,1.37A4.941,4.941,0,0,1,244.131-11v7.295a8.919,8.919,0,0,0,.557,3.472V0Zm-4.5-2.065a4.763,4.763,0,0,0,2.417-.659,3.987,3.987,0,0,0,1.655-1.714V-7.69H239.3q-4.98,0-4.98,2.915a2.467,2.467,0,0,0,.85,1.992A3.266,3.266,0,0,0,237.349-2.065Zm23.965-3.105,2.944-10.679h4.424L263.335,0h-4.043l-5.347-15.85h4.424ZM275.01,0h-4.248V-15.85h4.248Zm-4.5-19.951a2.085,2.085,0,0,1,.637-1.567,2.394,2.394,0,0,1,1.736-.615,2.4,2.4,0,0,1,1.729.615,2.073,2.073,0,0,1,.645,1.567,2.078,2.078,0,0,1-.652,1.582,2.4,2.4,0,0,1-1.721.615,2.4,2.4,0,0,1-1.721-.615A2.078,2.078,0,0,1,270.513-19.951ZM287.681,0a4.7,4.7,0,0,1-.425-1.421,5.122,5.122,0,0,1-4,1.714,5.627,5.627,0,0,1-3.86-1.348,4.334,4.334,0,0,1-1.531-3.4,4.479,4.479,0,0,1,1.868-3.867,9.216,9.216,0,0,1,5.4-1.362h1.948v-.908a2.612,2.612,0,0,0-.564-1.758,2.219,2.219,0,0,0-1.78-.659,2.522,2.522,0,0,0-1.677.513,1.742,1.742,0,0,0-.608,1.406h-4.233a4.252,4.252,0,0,1,.85-2.549,5.616,5.616,0,0,1,2.4-1.838,8.755,8.755,0,0,1,3.486-.667,6.917,6.917,0,0,1,4.651,1.472,5.15,5.15,0,0,1,1.721,4.138v6.87a7.577,7.577,0,0,0,.63,3.413V0Zm-3.5-2.944a3.646,3.646,0,0,0,1.729-.417,2.742,2.742,0,0,0,1.172-1.121V-7.207H285.5q-3.179,0-3.384,2.2l-.015.249a1.7,1.7,0,0,0,.557,1.3A2.162,2.162,0,0,0,284.18-2.944ZM299.063-15.85V.864a5.67,5.67,0,0,1-1.392,4.08A5.289,5.289,0,0,1,293.657,6.4a8.608,8.608,0,0,1-2.095-.249V2.8a7.947,7.947,0,0,0,1.333.132q1.919,0,1.919-2.036V-15.85Zm-4.585-4.1a2.085,2.085,0,0,1,.637-1.567,2.394,2.394,0,0,1,1.736-.615,2.394,2.394,0,0,1,1.736.615,2.085,2.085,0,0,1,.637,1.567,2.078,2.078,0,0,1-.652,1.582,2.4,2.4,0,0,1-1.721.615,2.4,2.4,0,0,1-1.721-.615A2.078,2.078,0,0,1,294.478-19.951Zm7.236,11.88a9.4,9.4,0,0,1,.908-4.2,6.649,6.649,0,0,1,2.615-2.856,7.628,7.628,0,0,1,3.962-1.011,7.217,7.217,0,0,1,5.237,1.963A7.878,7.878,0,0,1,316.7-8.848l.029,1.084a8.284,8.284,0,0,1-2.036,5.852,7.078,7.078,0,0,1-5.464,2.2,7.113,7.113,0,0,1-5.471-2.2,8.43,8.43,0,0,1-2.043-5.977Zm4.233.308a5.909,5.909,0,0,0,.85,3.45,2.8,2.8,0,0,0,2.432,1.194,2.811,2.811,0,0,0,2.4-1.179,6.465,6.465,0,0,0,.864-3.772,5.849,5.849,0,0,0-.864-3.428,2.811,2.811,0,0,0-2.432-1.216,2.765,2.765,0,0,0-2.4,1.208A6.574,6.574,0,0,0,305.947-7.764ZM310.034-22.5h4.614l-4.058,4.541h-3.442ZM336.973,0a5.693,5.693,0,0,1-.381-1.67A6.046,6.046,0,0,1,332.08.293a5.6,5.6,0,0,1-3.845-1.326,4.289,4.289,0,0,1-1.5-3.362,4.481,4.481,0,0,1,1.882-3.845,8.875,8.875,0,0,1,5.3-1.37h2.637v-1.245a3.044,3.044,0,0,0-.85-2.263,3.415,3.415,0,0,0-2.5-.842,3.952,3.952,0,0,0-2.432.732,2.158,2.158,0,0,0-.981,1.772h-2.725a3.74,3.74,0,0,1,.842-2.292,5.749,5.749,0,0,1,2.285-1.75,7.688,7.688,0,0,1,3.171-.645,6.266,6.266,0,0,1,4.292,1.37A4.941,4.941,0,0,1,339.258-11v7.295a8.919,8.919,0,0,0,.557,3.472V0Zm-4.5-2.065a4.763,4.763,0,0,0,2.417-.659,3.987,3.987,0,0,0,1.655-1.714V-7.69h-2.124q-4.98,0-4.98,2.915a2.467,2.467,0,0,0,.85,1.992A3.266,3.266,0,0,0,332.476-2.065ZM346.45,0h-2.71V-22.5h2.71Zm14.707,0h-2.71V-22.5h2.71Zm14.121-1.567a5.756,5.756,0,0,1-4.644,1.86,4.927,4.927,0,0,1-3.86-1.472,6.372,6.372,0,0,1-1.34-4.358V-15.85h2.71V-5.61q0,3.6,2.93,3.6,3.105,0,4.131-2.314V-15.85h2.71V0h-2.578Zm6.108-6.489a9.315,9.315,0,0,1,1.714-5.9,5.481,5.481,0,0,1,4.541-2.19,5.452,5.452,0,0,1,4.526,2.051l.132-1.758h2.476V-.381a6.448,6.448,0,0,1-1.824,4.849,6.73,6.73,0,0,1-4.9,1.772,8.152,8.152,0,0,1-3.354-.732,5.774,5.774,0,0,1-2.5-2.007L383.6,1.875a5.3,5.3,0,0,0,4.263,2.153,4.152,4.152,0,0,0,3.083-1.113A4.255,4.255,0,0,0,392.051-.22V-1.582A5.57,5.57,0,0,1,387.612.293a5.414,5.414,0,0,1-4.5-2.241A9.794,9.794,0,0,1,381.387-8.057Zm2.725.308a7.107,7.107,0,0,0,1.1,4.211,3.57,3.57,0,0,0,3.076,1.531,3.97,3.97,0,0,0,3.765-2.329v-7.236a4.016,4.016,0,0,0-3.735-2.271,3.6,3.6,0,0,0-3.091,1.538A7.74,7.74,0,0,0,384.111-7.749ZM408.647,0a5.693,5.693,0,0,1-.381-1.67A6.046,6.046,0,0,1,403.755.293a5.6,5.6,0,0,1-3.845-1.326,4.289,4.289,0,0,1-1.5-3.362,4.481,4.481,0,0,1,1.882-3.845,8.875,8.875,0,0,1,5.3-1.37h2.637v-1.245a3.044,3.044,0,0,0-.85-2.263,3.415,3.415,0,0,0-2.5-.842,3.952,3.952,0,0,0-2.432.732,2.158,2.158,0,0,0-.981,1.772H398.73a3.74,3.74,0,0,1,.842-2.292,5.749,5.749,0,0,1,2.285-1.75,7.688,7.688,0,0,1,3.171-.645,6.266,6.266,0,0,1,4.292,1.37A4.941,4.941,0,0,1,410.933-11v7.295a8.919,8.919,0,0,0,.557,3.472V0Zm-4.5-2.065a4.763,4.763,0,0,0,2.417-.659,3.987,3.987,0,0,0,1.655-1.714V-7.69H406.1q-4.98,0-4.98,2.915a2.467,2.467,0,0,0,.85,1.992A3.266,3.266,0,0,0,404.15-2.065Zm18.691-11.353a8.121,8.121,0,0,0-1.333-.1,3.571,3.571,0,0,0-3.618,2.271V0h-2.71V-15.85h2.637l.044,1.831a4.22,4.22,0,0,1,3.779-2.124,2.769,2.769,0,0,1,1.2.205ZM432.1-8.057a9.285,9.285,0,0,1,1.729-5.867,5.466,5.466,0,0,1,4.526-2.219,5.5,5.5,0,0,1,4.409,1.9V-22.5h2.71V0h-2.49l-.132-1.7A5.519,5.519,0,0,1,438.325.293a5.414,5.414,0,0,1-4.49-2.256A9.39,9.39,0,0,1,432.1-7.852Zm2.71.308a7.03,7.03,0,0,0,1.113,4.219A3.6,3.6,0,0,0,439-2.007a3.953,3.953,0,0,0,3.765-2.314V-11.6a3.984,3.984,0,0,0-3.735-2.241,3.616,3.616,0,0,0-3.105,1.538A7.74,7.74,0,0,0,434.81-7.749ZM456.255.293a6.925,6.925,0,0,1-5.244-2.117,7.856,7.856,0,0,1-2.021-5.662v-.5a9.511,9.511,0,0,1,.9-4.211,7.028,7.028,0,0,1,2.52-2.9,6.335,6.335,0,0,1,3.508-1.047,5.936,5.936,0,0,1,4.8,2.036,8.816,8.816,0,0,1,1.714,5.83v1.128H451.7a5.634,5.634,0,0,0,1.37,3.787A4.305,4.305,0,0,0,456.4-1.919a4.72,4.72,0,0,0,2.432-.586,6.11,6.11,0,0,0,1.743-1.553l1.655,1.289A6.656,6.656,0,0,1,456.255.293Zm-.337-14.209a3.615,3.615,0,0,0-2.754,1.194,5.8,5.8,0,0,0-1.377,3.347h7.939V-9.58a5.162,5.162,0,0,0-1.113-3.2A3.4,3.4,0,0,0,455.918-13.916ZM475.942,0h-2.71V-22.5h2.71Zm14.121,0a5.693,5.693,0,0,1-.381-1.67A6.046,6.046,0,0,1,485.171.293a5.6,5.6,0,0,1-3.845-1.326,4.289,4.289,0,0,1-1.5-3.362,4.481,4.481,0,0,1,1.882-3.845,8.875,8.875,0,0,1,5.3-1.37h2.637v-1.245a3.044,3.044,0,0,0-.85-2.263,3.415,3.415,0,0,0-2.5-.842,3.952,3.952,0,0,0-2.432.732,2.158,2.158,0,0,0-.981,1.772h-2.725a3.74,3.74,0,0,1,.842-2.292,5.749,5.749,0,0,1,2.285-1.75,7.688,7.688,0,0,1,3.171-.645,6.266,6.266,0,0,1,4.292,1.37A4.941,4.941,0,0,1,492.349-11v7.295a8.919,8.919,0,0,0,.557,3.472V0Zm-4.5-2.065a4.763,4.763,0,0,0,2.417-.659,3.987,3.987,0,0,0,1.655-1.714V-7.69h-2.124q-4.98,0-4.98,2.915a2.467,2.467,0,0,0,.85,1.992A3.266,3.266,0,0,0,485.566-2.065Zm24.814.146a3.9,3.9,0,0,0,2.534-.879,3.092,3.092,0,0,0,1.2-2.2h2.563a4.914,4.914,0,0,1-.937,2.593,6.175,6.175,0,0,1-2.307,1.963,6.657,6.657,0,0,1-3.054.732,6.529,6.529,0,0,1-5.149-2.161,8.606,8.606,0,0,1-1.912-5.911v-.454a9.542,9.542,0,0,1,.85-4.116,6.471,6.471,0,0,1,2.439-2.8,6.928,6.928,0,0,1,3.757-1,6.357,6.357,0,0,1,4.431,1.6A5.706,5.706,0,0,1,516.68-10.4h-2.563a3.735,3.735,0,0,0-1.165-2.527,3.623,3.623,0,0,0-2.585-.989,3.793,3.793,0,0,0-3.2,1.487,6.983,6.983,0,0,0-1.135,4.3v.513A6.843,6.843,0,0,0,507.158-3.4,3.811,3.811,0,0,0,510.381-1.919Zm8.628-6.152a9.362,9.362,0,0,1,.916-4.189,6.83,6.83,0,0,1,2.549-2.871,6.938,6.938,0,0,1,3.728-1.011,6.684,6.684,0,0,1,5.237,2.241,8.623,8.623,0,0,1,2,5.962v.19a9.443,9.443,0,0,1-.886,4.153,6.729,6.729,0,0,1-2.534,2.864A7.018,7.018,0,0,1,526.23.293a6.667,6.667,0,0,1-5.222-2.241,8.579,8.579,0,0,1-2-5.933Zm2.725.322a6.781,6.781,0,0,0,1.223,4.233,3.914,3.914,0,0,0,3.274,1.6,3.891,3.891,0,0,0,3.281-1.619,7.415,7.415,0,0,0,1.216-4.534A6.769,6.769,0,0,0,529.49-12.3a3.935,3.935,0,0,0-3.289-1.619,3.891,3.891,0,0,0-3.237,1.6A7.36,7.36,0,0,0,521.733-7.749Zm17.651-8.1.073,1.758a5.853,5.853,0,0,1,4.7-2.051q3.325,0,4.526,2.549a6,6,0,0,1,2.058-1.846,6.079,6.079,0,0,1,3-.7q5.215,0,5.3,5.522V0h-2.71V-10.459A3.639,3.639,0,0,0,555.557-13a3.419,3.419,0,0,0-2.607-.842,3.593,3.593,0,0,0-2.5.9,3.655,3.655,0,0,0-1.157,2.424V0h-2.725V-10.386q0-3.457-3.384-3.457a3.626,3.626,0,0,0-3.647,2.271V0h-2.71V-15.85Zm37.134,8.1a9.49,9.49,0,0,1-1.655,5.83A5.305,5.305,0,0,1,570.381.293a5.813,5.813,0,0,1-4.541-1.831V6.094h-2.71V-15.85h2.476l.132,1.758a5.583,5.583,0,0,1,4.6-2.051,5.4,5.4,0,0,1,4.519,2.153A9.594,9.594,0,0,1,576.519-8Zm-2.71-.308a7,7,0,0,0-1.143-4.233,3.681,3.681,0,0,0-3.135-1.553,3.984,3.984,0,0,0-3.691,2.183v7.573a3.991,3.991,0,0,0,3.721,2.168,3.663,3.663,0,0,0,3.1-1.545A7.644,7.644,0,0,0,573.809-8.057ZM586.538.293a6.925,6.925,0,0,1-5.244-2.117,7.856,7.856,0,0,1-2.021-5.662v-.5a9.511,9.511,0,0,1,.9-4.211,7.028,7.028,0,0,1,2.52-2.9,6.335,6.335,0,0,1,3.508-1.047,5.936,5.936,0,0,1,4.8,2.036,8.816,8.816,0,0,1,1.714,5.83v1.128H581.982a5.634,5.634,0,0,0,1.37,3.787,4.305,4.305,0,0,0,3.333,1.443,4.72,4.72,0,0,0,2.432-.586,6.11,6.11,0,0,0,1.743-1.553l1.655,1.289A6.656,6.656,0,0,1,586.538.293ZM586.2-13.916a3.615,3.615,0,0,0-2.754,1.194,5.8,5.8,0,0,0-1.377,3.347h7.939V-9.58a5.162,5.162,0,0,0-1.113-3.2A3.4,3.4,0,0,0,586.2-13.916Zm13.33-5.771v3.838h2.959v2.095h-2.959v9.829a2.2,2.2,0,0,0,.4,1.428,1.666,1.666,0,0,0,1.348.476,6.561,6.561,0,0,0,1.289-.176V0a7.856,7.856,0,0,1-2.08.293,3.375,3.375,0,0,1-2.739-1.1,4.72,4.72,0,0,1-.923-3.12v-9.829h-2.886V-15.85h2.886v-3.838Zm12.7,19.98a6.925,6.925,0,0,1-5.244-2.117,7.856,7.856,0,0,1-2.021-5.662v-.5a9.511,9.511,0,0,1,.9-4.211,7.028,7.028,0,0,1,2.52-2.9,6.335,6.335,0,0,1,3.508-1.047,5.936,5.936,0,0,1,4.8,2.036,8.816,8.816,0,0,1,1.714,5.83v1.128H607.676a5.634,5.634,0,0,0,1.37,3.787,4.305,4.305,0,0,0,3.333,1.443A4.72,4.72,0,0,0,614.81-2.5a6.11,6.11,0,0,0,1.743-1.553l1.655,1.289A6.656,6.656,0,0,1,612.231.293Zm-.337-14.209a3.615,3.615,0,0,0-2.754,1.194,5.8,5.8,0,0,0-1.377,3.347H615.7V-9.58a5.162,5.162,0,0,0-1.113-3.2A3.4,3.4,0,0,0,611.895-13.916Zm12.217-1.934.088,1.992a5.776,5.776,0,0,1,4.746-2.285q5.024,0,5.068,5.669V0H631.3V-10.488a3.649,3.649,0,0,0-.784-2.534,3.141,3.141,0,0,0-2.4-.82,3.911,3.911,0,0,0-2.314.7,4.775,4.775,0,0,0-1.553,1.846V0h-2.71V-15.85ZM644.458-1.919a3.9,3.9,0,0,0,2.534-.879,3.092,3.092,0,0,0,1.2-2.2h2.563a4.914,4.914,0,0,1-.937,2.593,6.175,6.175,0,0,1-2.307,1.963,6.657,6.657,0,0,1-3.054.732,6.529,6.529,0,0,1-5.149-2.161A8.606,8.606,0,0,1,637.4-7.778v-.454a9.542,9.542,0,0,1,.85-4.116,6.471,6.471,0,0,1,2.439-2.8,6.928,6.928,0,0,1,3.757-1,6.357,6.357,0,0,1,4.431,1.6,5.706,5.706,0,0,1,1.882,4.146h-2.563a3.735,3.735,0,0,0-1.165-2.527,3.623,3.623,0,0,0-2.585-.989,3.793,3.793,0,0,0-3.2,1.487,6.983,6.983,0,0,0-1.135,4.3v.513A6.843,6.843,0,0,0,641.235-3.4,3.811,3.811,0,0,0,644.458-1.919ZM656.748,0h-2.71V-15.85h2.71Zm-2.93-20.054a1.618,1.618,0,0,1,.4-1.113,1.512,1.512,0,0,1,1.194-.454,1.536,1.536,0,0,1,1.2.454,1.6,1.6,0,0,1,.41,1.113,1.548,1.548,0,0,1-.41,1.1,1.564,1.564,0,0,1-1.2.439,1.54,1.54,0,0,1-1.194-.439A1.564,1.564,0,0,1,653.818-20.054ZM670.869,0a5.693,5.693,0,0,1-.381-1.67A6.046,6.046,0,0,1,665.977.293a5.6,5.6,0,0,1-3.845-1.326,4.289,4.289,0,0,1-1.5-3.362,4.481,4.481,0,0,1,1.882-3.845,8.875,8.875,0,0,1,5.3-1.37h2.637v-1.245a3.044,3.044,0,0,0-.85-2.263,3.415,3.415,0,0,0-2.5-.842,3.952,3.952,0,0,0-2.432.732,2.158,2.158,0,0,0-.981,1.772h-2.725a3.74,3.74,0,0,1,.842-2.292,5.749,5.749,0,0,1,2.285-1.75,7.688,7.688,0,0,1,3.171-.645,6.266,6.266,0,0,1,4.292,1.37A4.941,4.941,0,0,1,673.154-11v7.295a8.919,8.919,0,0,0,.557,3.472V0Zm-4.5-2.065a4.763,4.763,0,0,0,2.417-.659,3.987,3.987,0,0,0,1.655-1.714V-7.69H668.32q-4.98,0-4.98,2.915a2.467,2.467,0,0,0,.85,1.992A3.266,3.266,0,0,0,666.372-2.065Z" transform="translate(269.554 4314)" fill="#09347b"/>
        <path id="Trazado_11160" data-name="Trazado 11160" d="M3.5-10.038l.083,1.16a3.5,3.5,0,0,1,2.885-1.345,2.913,2.913,0,0,1,2.375.937,4.372,4.372,0,0,1,.8,2.8V0H6.958V-6.42a1.739,1.739,0,0,0-.371-1.239,1.661,1.661,0,0,0-1.234-.385,1.844,1.844,0,0,0-1.7.965V0H.974V-10.038ZM17.683-1.021A3.362,3.362,0,0,1,14.937.186a3.171,3.171,0,0,1-2.463-.928,3.96,3.96,0,0,1-.867-2.718v-6.578h2.681v6.485q0,1.568,1.429,1.568a1.937,1.937,0,0,0,1.874-.946v-7.106h2.69V0H17.757Zm-1.2-13.229h2.922l-2.57,2.876h-2.18ZM26.478-1.976a1.759,1.759,0,0,0,1.206-.408,1.43,1.43,0,0,0,.482-1.085H30.68A3.439,3.439,0,0,1,30.124-1.6a3.673,3.673,0,0,1-1.5,1.317,4.689,4.689,0,0,1-2.1.469,4.358,4.358,0,0,1-3.4-1.368,5.415,5.415,0,0,1-1.243-3.781V-5.14a5.353,5.353,0,0,1,1.234-3.7,4.307,4.307,0,0,1,3.386-1.382,4.222,4.222,0,0,1,3.02,1.072A3.794,3.794,0,0,1,30.68-6.3H28.166a1.827,1.827,0,0,0-.482-1.266,1.613,1.613,0,0,0-1.225-.487,1.616,1.616,0,0,0-1.415.682,3.947,3.947,0,0,0-.478,2.213v.278a4,4,0,0,0,.473,2.227A1.636,1.636,0,0,0,26.478-1.976ZM35.041,0H32.35V-14.25h2.69Zm6.828.186a4.928,4.928,0,0,1-3.595-1.354,4.815,4.815,0,0,1-1.387-3.609v-.26a6.064,6.064,0,0,1,.584-2.7,4.289,4.289,0,0,1,1.656-1.837,4.648,4.648,0,0,1,2.445-.645,4.166,4.166,0,0,1,3.242,1.3A5.278,5.278,0,0,1,46-5.242v1.095H39.6a2.491,2.491,0,0,0,.784,1.577,2.37,2.37,0,0,0,1.656.594A2.894,2.894,0,0,0,44.466-3.1l1.317,1.475A4.025,4.025,0,0,1,44.151-.292,5.357,5.357,0,0,1,41.869.186Zm-.306-8.238a1.679,1.679,0,0,0-1.294.538,2.78,2.78,0,0,0-.635,1.54h3.729v-.213a1.982,1.982,0,0,0-.482-1.378A1.733,1.733,0,0,0,41.563-8.053ZM47.1-5.112a5.953,5.953,0,0,1,.575-2.663,4.211,4.211,0,0,1,1.656-1.809,4.831,4.831,0,0,1,2.51-.64A4.571,4.571,0,0,1,55.158-8.98,4.989,4.989,0,0,1,56.592-5.6l.019.687a5.247,5.247,0,0,1-1.29,3.706,4.482,4.482,0,0,1-3.46,1.4A4.5,4.5,0,0,1,48.4-1.206,5.339,5.339,0,0,1,47.1-4.991Zm2.681.195a3.742,3.742,0,0,0,.538,2.185,1.776,1.776,0,0,0,1.54.756,1.78,1.78,0,0,0,1.521-.747,4.1,4.1,0,0,0,.547-2.389,3.7,3.7,0,0,0-.547-2.171,1.78,1.78,0,0,0-1.54-.77,1.751,1.751,0,0,0-1.521.765A4.164,4.164,0,0,0,49.782-4.917Zm12.793-.176a6.049,6.049,0,0,1,1.053-3.739,3.417,3.417,0,0,1,2.881-1.392,3.074,3.074,0,0,1,2.421,1.095V-14.25h2.69V0H69.2l-.13-1.067A3.155,3.155,0,0,1,66.491.186a3.407,3.407,0,0,1-2.844-1.4A6.244,6.244,0,0,1,62.576-5.093Zm2.681.195a3.952,3.952,0,0,0,.492,2.162,1.6,1.6,0,0,0,1.429.751,1.794,1.794,0,0,0,1.753-1.048V-7A1.769,1.769,0,0,0,67.2-8.043Q65.257-8.043,65.257-4.9ZM78.319.186a4.928,4.928,0,0,1-3.595-1.354,4.815,4.815,0,0,1-1.387-3.609v-.26a6.064,6.064,0,0,1,.584-2.7,4.289,4.289,0,0,1,1.656-1.837,4.648,4.648,0,0,1,2.445-.645,4.166,4.166,0,0,1,3.242,1.3,5.278,5.278,0,0,1,1.183,3.683v1.095H76.056A2.491,2.491,0,0,0,76.84-2.57a2.37,2.37,0,0,0,1.656.594A2.894,2.894,0,0,0,80.917-3.1l1.317,1.475A4.025,4.025,0,0,1,80.6-.292,5.357,5.357,0,0,1,78.319.186Zm-.306-8.238a1.679,1.679,0,0,0-1.294.538,2.78,2.78,0,0,0-.635,1.54h3.729v-.213a1.982,1.982,0,0,0-.482-1.378A1.733,1.733,0,0,0,78.013-8.053ZM86.8,0h-2.69V-14.25H86.8Zm15.976-4.926a6.02,6.02,0,0,1-1.053,3.716,3.376,3.376,0,0,1-2.844,1.4A3.127,3.127,0,0,1,96.419-.872V3.859H93.738v-13.9h2.486l.093.983a3.151,3.151,0,0,1,2.542-1.169,3.4,3.4,0,0,1,2.885,1.373,6.183,6.183,0,0,1,1.03,3.785Zm-2.681-.195a3.951,3.951,0,0,0-.5-2.162,1.617,1.617,0,0,0-1.443-.761,1.756,1.756,0,0,0-1.735.965v4.11a1.786,1.786,0,0,0,1.753.993Q100.093-1.976,100.093-5.121Zm9.982-2.4a7.284,7.284,0,0,0-.965-.074,1.964,1.964,0,0,0-1.995,1.03V0h-2.681V-10.038h2.533l.074,1.2a2.484,2.484,0,0,1,2.236-1.382,2.809,2.809,0,0,1,.835.121ZM115.809.186a4.928,4.928,0,0,1-3.595-1.354,4.815,4.815,0,0,1-1.387-3.609v-.26a6.064,6.064,0,0,1,.584-2.7,4.289,4.289,0,0,1,1.656-1.837,4.648,4.648,0,0,1,2.445-.645,4.166,4.166,0,0,1,3.242,1.3,5.278,5.278,0,0,1,1.183,3.683v1.095h-6.392a2.491,2.491,0,0,0,.784,1.577,2.37,2.37,0,0,0,1.656.594A2.894,2.894,0,0,0,118.407-3.1l1.317,1.475a4.025,4.025,0,0,1-1.633,1.331A5.357,5.357,0,0,1,115.809.186ZM115.5-8.053a1.679,1.679,0,0,0-1.294.538,2.78,2.78,0,0,0-.635,1.54H117.3v-.213a1.982,1.982,0,0,0-.482-1.378A1.733,1.733,0,0,0,115.5-8.053Zm5.539,2.959a6.049,6.049,0,0,1,1.053-3.739,3.417,3.417,0,0,1,2.881-1.392A3.074,3.074,0,0,1,127.4-9.129V-14.25h2.69V0h-2.421l-.13-1.067A3.155,3.155,0,0,1,124.957.186a3.407,3.407,0,0,1-2.844-1.4A6.244,6.244,0,0,1,121.042-5.093Zm2.681.195a3.952,3.952,0,0,0,.492,2.162,1.6,1.6,0,0,0,1.429.751A1.794,1.794,0,0,0,127.4-3.034V-7a1.769,1.769,0,0,0-1.735-1.048Q123.723-8.043,123.723-4.9ZM134.995,0H132.3V-10.038h2.69Zm-2.848-12.636a1.32,1.32,0,0,1,.4-.993,1.516,1.516,0,0,1,1.1-.39,1.52,1.52,0,0,1,1.095.39,1.313,1.313,0,0,1,.408.993,1.316,1.316,0,0,1-.413,1,1.523,1.523,0,0,1-1.09.39,1.523,1.523,0,0,1-1.09-.39A1.316,1.316,0,0,1,132.146-12.636Zm9.231,10.66a1.759,1.759,0,0,0,1.206-.408,1.43,1.43,0,0,0,.482-1.085h2.514a3.439,3.439,0,0,1-.557,1.869,3.673,3.673,0,0,1-1.5,1.317,4.689,4.689,0,0,1-2.1.469,4.358,4.358,0,0,1-3.4-1.368,5.415,5.415,0,0,1-1.243-3.781V-5.14a5.353,5.353,0,0,1,1.234-3.7,4.307,4.307,0,0,1,3.386-1.382,4.222,4.222,0,0,1,3.02,1.072A3.794,3.794,0,0,1,145.58-6.3h-2.514a1.827,1.827,0,0,0-.482-1.266,1.613,1.613,0,0,0-1.225-.487,1.616,1.616,0,0,0-1.415.682,3.947,3.947,0,0,0-.478,2.213v.278a4,4,0,0,0,.473,2.227A1.636,1.636,0,0,0,141.377-1.976ZM152.928,0a2.977,2.977,0,0,1-.269-.9A3.244,3.244,0,0,1,150.126.186a3.564,3.564,0,0,1-2.445-.854,2.745,2.745,0,0,1-.969-2.152,2.837,2.837,0,0,1,1.183-2.449,5.837,5.837,0,0,1,3.419-.863h1.234v-.575a1.654,1.654,0,0,0-.357-1.113,1.405,1.405,0,0,0-1.127-.417A1.6,1.6,0,0,0,150-7.914a1.1,1.1,0,0,0-.385.891h-2.681a2.693,2.693,0,0,1,.538-1.614A3.557,3.557,0,0,1,148.994-9.8a5.545,5.545,0,0,1,2.208-.422,4.381,4.381,0,0,1,2.946.932,3.262,3.262,0,0,1,1.09,2.621v4.351a4.8,4.8,0,0,0,.4,2.162V0ZM150.71-1.865a2.309,2.309,0,0,0,1.095-.264,1.737,1.737,0,0,0,.742-.71V-4.564h-1q-2.013,0-2.143,1.392l-.009.158a1.073,1.073,0,0,0,.353.826A1.369,1.369,0,0,0,150.71-1.865Zm6.169-3.229a6.049,6.049,0,0,1,1.053-3.739,3.417,3.417,0,0,1,2.881-1.392,3.074,3.074,0,0,1,2.421,1.095V-14.25h2.69V0H163.5l-.13-1.067A3.155,3.155,0,0,1,160.795.186a3.407,3.407,0,0,1-2.844-1.4A6.244,6.244,0,0,1,156.88-5.093Zm2.681.195a3.952,3.952,0,0,0,.492,2.162,1.6,1.6,0,0,0,1.429.751,1.794,1.794,0,0,0,1.753-1.048V-7A1.769,1.769,0,0,0,161.5-8.043Q159.561-8.043,159.561-4.9Zm8.025-.213a5.953,5.953,0,0,1,.575-2.663,4.211,4.211,0,0,1,1.656-1.809,4.831,4.831,0,0,1,2.51-.64,4.571,4.571,0,0,1,3.317,1.243A4.989,4.989,0,0,1,177.077-5.6l.019.687a5.247,5.247,0,0,1-1.29,3.706,4.482,4.482,0,0,1-3.46,1.4,4.5,4.5,0,0,1-3.465-1.392,5.339,5.339,0,0,1-1.294-3.785Zm2.681.195a3.742,3.742,0,0,0,.538,2.185,1.776,1.776,0,0,0,1.54.756,1.78,1.78,0,0,0,1.521-.747,4.094,4.094,0,0,0,.547-2.389,3.7,3.7,0,0,0-.547-2.171,1.78,1.78,0,0,0-1.54-.77,1.751,1.751,0,0,0-1.521.765A4.164,4.164,0,0,0,170.267-4.917Z" transform="translate(525.554 4360)" fill="#26c179"/>
      </g>
    </g>
    <g id="Grupo_13596" data-name="Grupo 13596" transform="translate(-119.446 -83.953)">
      <path id="Trazado_11161" data-name="Trazado 11161" d="M0,0H140.114V57H0Z" transform="matrix(1, -0.017, 0.017, 1, 354.446, 4413.445)" fill="#dbffee"/>
      <path id="Trazado_11162" data-name="Trazado 11162" d="M8.21-3.544a1.428,1.428,0,0,0-.557-1.211,7.3,7.3,0,0,0-2-.891,14.206,14.206,0,0,1-2.292-.923,3.744,3.744,0,0,1-2.3-3.349,3.262,3.262,0,0,1,.617-1.953,4.024,4.024,0,0,1,1.772-1.341,6.669,6.669,0,0,1,2.593-.482,6.071,6.071,0,0,1,2.579.524,4.107,4.107,0,0,1,1.758,1.48A3.872,3.872,0,0,1,11-9.519H8.22a1.821,1.821,0,0,0-.584-1.443,2.4,2.4,0,0,0-1.642-.515,2.567,2.567,0,0,0-1.586.431,1.361,1.361,0,0,0-.566,1.136A1.3,1.3,0,0,0,4.5-8.8a7.494,7.494,0,0,0,1.953.835A8.438,8.438,0,0,1,9.917-6.2,3.529,3.529,0,0,1,11-3.562,3.251,3.251,0,0,1,9.676-.812,5.808,5.808,0,0,1,6.1.186,6.9,6.9,0,0,1,3.266-.385,4.492,4.492,0,0,1,1.313-1.948a4,4,0,0,1-.673-2.3H3.433q0,2.236,2.672,2.236a2.6,2.6,0,0,0,1.549-.4A1.313,1.313,0,0,0,8.21-3.544ZM18.722-1.021A3.362,3.362,0,0,1,15.976.186a3.171,3.171,0,0,1-2.463-.928,3.96,3.96,0,0,1-.867-2.718v-6.578h2.681v6.485q0,1.568,1.429,1.568a1.937,1.937,0,0,0,1.874-.946v-7.106h2.69V0H18.8Zm7.459-9.018V.547A3.591,3.591,0,0,1,25.3,3.131a3.35,3.35,0,0,1-2.542.923A5.452,5.452,0,0,1,21.431,3.9V1.772a5.033,5.033,0,0,0,.844.083q1.215,0,1.215-1.29v-10.6Zm-2.9-2.6a1.32,1.32,0,0,1,.4-.993,1.516,1.516,0,0,1,1.1-.39,1.516,1.516,0,0,1,1.1.39,1.32,1.32,0,0,1,.4.993,1.316,1.316,0,0,1-.413,1,1.523,1.523,0,0,1-1.09.39,1.523,1.523,0,0,1-1.09-.39A1.316,1.316,0,0,1,23.277-12.636ZM32.9.186A4.928,4.928,0,0,1,29.3-1.169a4.815,4.815,0,0,1-1.387-3.609v-.26a6.064,6.064,0,0,1,.584-2.7,4.289,4.289,0,0,1,1.656-1.837,4.648,4.648,0,0,1,2.445-.645,4.166,4.166,0,0,1,3.242,1.3,5.278,5.278,0,0,1,1.183,3.683v1.095H30.634a2.491,2.491,0,0,0,.784,1.577,2.37,2.37,0,0,0,1.656.594A2.894,2.894,0,0,0,35.5-3.1l1.317,1.475A4.025,4.025,0,0,1,35.18-.292,5.357,5.357,0,0,1,32.9.186Zm-.306-8.238a1.679,1.679,0,0,0-1.294.538,2.78,2.78,0,0,0-.635,1.54h3.729v-.213a1.982,1.982,0,0,0-.482-1.378A1.733,1.733,0,0,0,32.591-8.053Zm9.166-4.453v2.468h1.716v1.967H41.757v5.01a1.2,1.2,0,0,0,.213.8,1.072,1.072,0,0,0,.816.241,4.276,4.276,0,0,0,.789-.065V-.056a5.52,5.52,0,0,1-1.624.241,2.56,2.56,0,0,1-2.876-2.848V-8.071H37.61v-1.967h1.466v-2.468Zm2.514,7.394a5.953,5.953,0,0,1,.575-2.663A4.211,4.211,0,0,1,46.5-9.583a4.831,4.831,0,0,1,2.51-.64A4.571,4.571,0,0,1,52.329-8.98,4.989,4.989,0,0,1,53.762-5.6l.019.687a5.247,5.247,0,0,1-1.29,3.706,4.482,4.482,0,0,1-3.46,1.4,4.5,4.5,0,0,1-3.465-1.392,5.339,5.339,0,0,1-1.294-3.785Zm2.681.195a3.742,3.742,0,0,0,.538,2.185,1.776,1.776,0,0,0,1.54.756,1.78,1.78,0,0,0,1.521-.747A4.1,4.1,0,0,0,51.1-5.112a3.7,3.7,0,0,0-.547-2.171,1.78,1.78,0,0,0-1.54-.77,1.751,1.751,0,0,0-1.521.765A4.164,4.164,0,0,0,46.953-4.917Z" transform="translate(402.5 4493.471)" fill="#26c179"/>
      <path id="Trazado_10617" data-name="Trazado 10617" d="M-.012,0,616.952,16.481,615.1,57-.635,46.309Z" transform="matrix(0.999, -0.035, 0.035, 0.999, 494.64, 4418.531)" fill="#ffe8ba"/>
      <path id="Trazado_11163" data-name="Trazado 11163" d="M2.476,0V-21.328H9.448a8.094,8.094,0,0,1,5.222,1.436,5.174,5.174,0,0,1,1.75,4.248A4.332,4.332,0,0,1,15.571-13a5.508,5.508,0,0,1-2.314,1.78,4.946,4.946,0,0,1,2.732,1.838,5.276,5.276,0,0,1,1,3.23,5.7,5.7,0,0,1-1.86,4.512A7.693,7.693,0,0,1,9.873,0ZM5.288-9.976V-2.3H9.932a4.471,4.471,0,0,0,3.1-1.018,3.576,3.576,0,0,0,1.135-2.805q0-3.853-4.189-3.853Zm0-2.256H9.536a4.459,4.459,0,0,0,2.952-.923,3.091,3.091,0,0,0,1.106-2.5,3.039,3.039,0,0,0-1.025-2.556,5.044,5.044,0,0,0-3.12-.8H5.288ZM20.01-8.071a9.362,9.362,0,0,1,.916-4.189,6.83,6.83,0,0,1,2.549-2.871A6.938,6.938,0,0,1,27.2-16.143,6.684,6.684,0,0,1,32.439-13.9a8.623,8.623,0,0,1,2,5.962v.19A9.443,9.443,0,0,1,33.552-3.6,6.729,6.729,0,0,1,31.018-.732,7.018,7.018,0,0,1,27.231.293a6.667,6.667,0,0,1-5.222-2.241,8.579,8.579,0,0,1-2-5.933Zm2.725.322a6.781,6.781,0,0,0,1.223,4.233,3.914,3.914,0,0,0,3.274,1.6,3.891,3.891,0,0,0,3.281-1.619,7.415,7.415,0,0,0,1.216-4.534A6.769,6.769,0,0,0,30.491-12.3,3.935,3.935,0,0,0,27.2-13.916a3.891,3.891,0,0,0-3.237,1.6A7.36,7.36,0,0,0,22.734-7.749Zm14.458-.308a9.315,9.315,0,0,1,1.714-5.9,5.481,5.481,0,0,1,4.541-2.19,5.452,5.452,0,0,1,4.526,2.051l.132-1.758h2.476V-.381a6.448,6.448,0,0,1-1.824,4.849,6.73,6.73,0,0,1-4.9,1.772A8.152,8.152,0,0,1,40.5,5.508,5.774,5.774,0,0,1,38,3.5L39.4,1.875a5.3,5.3,0,0,0,4.263,2.153A4.152,4.152,0,0,0,46.75,2.915,4.255,4.255,0,0,0,47.856-.22V-1.582A5.57,5.57,0,0,1,43.418.293a5.414,5.414,0,0,1-4.5-2.241A9.794,9.794,0,0,1,37.192-8.057Zm2.725.308a7.107,7.107,0,0,0,1.1,4.211,3.57,3.57,0,0,0,3.076,1.531,3.97,3.97,0,0,0,3.765-2.329v-7.236a4.016,4.016,0,0,0-3.735-2.271A3.6,3.6,0,0,0,41.03-12.3,7.74,7.74,0,0,0,39.917-7.749ZM53.95-8.071a9.362,9.362,0,0,1,.916-4.189,6.83,6.83,0,0,1,2.549-2.871,6.938,6.938,0,0,1,3.728-1.011A6.684,6.684,0,0,1,66.379-13.9a8.623,8.623,0,0,1,2,5.962v.19A9.443,9.443,0,0,1,67.493-3.6,6.729,6.729,0,0,1,64.958-.732,7.018,7.018,0,0,1,61.172.293,6.667,6.667,0,0,1,55.95-1.948a8.579,8.579,0,0,1-2-5.933Zm2.725.322A6.781,6.781,0,0,0,57.9-3.516a3.914,3.914,0,0,0,3.274,1.6,3.891,3.891,0,0,0,3.281-1.619,7.415,7.415,0,0,0,1.216-4.534A6.769,6.769,0,0,0,64.431-12.3a3.935,3.935,0,0,0-3.289-1.619,3.891,3.891,0,0,0-3.237,1.6A7.36,7.36,0,0,0,56.675-7.749ZM75.454-19.687v3.838h2.959v2.095H75.454v9.829a2.2,2.2,0,0,0,.4,1.428,1.666,1.666,0,0,0,1.348.476A6.561,6.561,0,0,0,78.486-2.2V0a7.856,7.856,0,0,1-2.08.293,3.375,3.375,0,0,1-2.739-1.1,4.72,4.72,0,0,1-.923-3.12v-9.829H69.858V-15.85h2.886v-3.838ZM91.362,0a5.693,5.693,0,0,1-.381-1.67A6.046,6.046,0,0,1,86.47.293a5.6,5.6,0,0,1-3.845-1.326,4.289,4.289,0,0,1-1.5-3.362A4.481,4.481,0,0,1,83.005-8.24a8.875,8.875,0,0,1,5.3-1.37h2.637v-1.245a3.044,3.044,0,0,0-.85-2.263,3.415,3.415,0,0,0-2.5-.842,3.952,3.952,0,0,0-2.432.732,2.158,2.158,0,0,0-.981,1.772H81.445a3.74,3.74,0,0,1,.842-2.292,5.749,5.749,0,0,1,2.285-1.75,7.688,7.688,0,0,1,3.171-.645,6.266,6.266,0,0,1,4.292,1.37A4.941,4.941,0,0,1,93.647-11v7.295A8.919,8.919,0,0,0,94.2-.234V0Zm-4.5-2.065a4.763,4.763,0,0,0,2.417-.659,3.987,3.987,0,0,0,1.655-1.714V-7.69H88.813q-4.98,0-4.98,2.915a2.467,2.467,0,0,0,.85,1.992A3.266,3.266,0,0,0,86.865-2.065ZM89.37-22.5h3.281l-3.926,4.307H86.543Zm28.022,2.754v3.9h2.71v3.105h-2.71v7.91a1.889,1.889,0,0,0,.337,1.26,1.692,1.692,0,0,0,1.289.381,6.751,6.751,0,0,0,1.245-.1V-.088A8.715,8.715,0,0,1,117.7.293q-4.453,0-4.541-4.5v-8.54h-2.314V-15.85h2.314v-3.9ZM126.929,0h-4.248V-15.85h4.248Zm-4.5-19.951a2.085,2.085,0,0,1,.637-1.567,2.394,2.394,0,0,1,1.736-.615,2.4,2.4,0,0,1,1.729.615,2.073,2.073,0,0,1,.645,1.567,2.078,2.078,0,0,1-.652,1.582,2.4,2.4,0,0,1-1.721.615,2.4,2.4,0,0,1-1.721-.615A2.078,2.078,0,0,1,122.432-19.951ZM137.71.293a7.781,7.781,0,0,1-5.676-2.139,7.6,7.6,0,0,1-2.19-5.7v-.41a9.575,9.575,0,0,1,.923-4.27,6.773,6.773,0,0,1,2.615-2.9,7.339,7.339,0,0,1,3.86-1.018,6.578,6.578,0,0,1,5.12,2.051,8.333,8.333,0,0,1,1.868,5.815v1.729H134.136a3.933,3.933,0,0,0,1.238,2.49,3.742,3.742,0,0,0,2.615.938,4.569,4.569,0,0,0,3.823-1.772l2.08,2.329a6.355,6.355,0,0,1-2.578,2.1A8.458,8.458,0,0,1,137.71.293Zm-.483-13.008a2.651,2.651,0,0,0-2.043.85,4.389,4.389,0,0,0-1,2.432h5.889v-.337a3.129,3.129,0,0,0-.762-2.175A2.736,2.736,0,0,0,137.227-12.715Zm13.3-3.135.132,1.831a5.534,5.534,0,0,1,4.556-2.124,4.6,4.6,0,0,1,3.75,1.479,6.9,6.9,0,0,1,1.26,4.424V0h-4.233V-10.137a2.746,2.746,0,0,0-.586-1.956,2.623,2.623,0,0,0-1.948-.608,2.912,2.912,0,0,0-2.681,1.523V0h-4.233V-15.85ZM170.728.293a7.781,7.781,0,0,1-5.676-2.139,7.6,7.6,0,0,1-2.19-5.7v-.41a9.575,9.575,0,0,1,.923-4.27,6.773,6.773,0,0,1,2.615-2.9,7.339,7.339,0,0,1,3.86-1.018,6.578,6.578,0,0,1,5.12,2.051,8.333,8.333,0,0,1,1.868,5.815v1.729H167.153a3.933,3.933,0,0,0,1.238,2.49,3.742,3.742,0,0,0,2.615.938,4.569,4.569,0,0,0,3.823-1.772l2.08,2.329a6.355,6.355,0,0,1-2.578,2.1A8.458,8.458,0,0,1,170.728.293Zm-.483-13.008a2.651,2.651,0,0,0-2.043.85,4.389,4.389,0,0,0-1,2.432h5.889v-.337a3.129,3.129,0,0,0-.762-2.175A2.736,2.736,0,0,0,170.244-12.715Zm30.645,4.966a9.49,9.49,0,0,1-1.655,5.83A5.305,5.305,0,0,1,194.751.293a5.813,5.813,0,0,1-4.541-1.831V6.094H187.5V-15.85h2.476l.132,1.758a5.583,5.583,0,0,1,4.6-2.051,5.4,5.4,0,0,1,4.519,2.153A9.594,9.594,0,0,1,200.889-8Zm-2.71-.308a7,7,0,0,0-1.143-4.233,3.681,3.681,0,0,0-3.135-1.553,3.984,3.984,0,0,0-3.691,2.183v7.573a3.991,3.991,0,0,0,3.721,2.168,3.663,3.663,0,0,0,3.1-1.545A7.644,7.644,0,0,0,198.179-8.057Zm13.813-5.361a8.121,8.121,0,0,0-1.333-.1,3.571,3.571,0,0,0-3.618,2.271V0h-2.71V-15.85h2.637l.044,1.831a4.22,4.22,0,0,1,3.779-2.124,2.769,2.769,0,0,1,1.2.205Zm1.479,5.347a9.362,9.362,0,0,1,.916-4.189,6.83,6.83,0,0,1,2.549-2.871,6.938,6.938,0,0,1,3.728-1.011A6.684,6.684,0,0,1,225.9-13.9a8.623,8.623,0,0,1,2,5.962v.19a9.443,9.443,0,0,1-.886,4.153A6.729,6.729,0,0,1,224.48-.732,7.018,7.018,0,0,1,220.693.293a6.667,6.667,0,0,1-5.222-2.241,8.579,8.579,0,0,1-2-5.933Zm2.725.322a6.781,6.781,0,0,0,1.223,4.233,3.914,3.914,0,0,0,3.274,1.6,3.891,3.891,0,0,0,3.281-1.619,7.415,7.415,0,0,0,1.216-4.534,6.769,6.769,0,0,0-1.238-4.226,3.935,3.935,0,0,0-3.289-1.619,3.891,3.891,0,0,0-3.237,1.6A7.36,7.36,0,0,0,216.2-7.749Zm28.521,0a9.424,9.424,0,0,1-1.67,5.837,5.336,5.336,0,0,1-4.482,2.2,5.525,5.525,0,0,1-4.644-2.124L233.789,0H231.3V-22.5h2.71v8.394a5.494,5.494,0,0,1,4.526-2.036,5.368,5.368,0,0,1,4.534,2.183,9.707,9.707,0,0,1,1.648,5.977Zm-2.71-.308a7.323,7.323,0,0,0-1.069-4.277,3.54,3.54,0,0,0-3.076-1.509,3.979,3.979,0,0,0-3.853,2.49V-4.5a4.09,4.09,0,0,0,3.882,2.49,3.52,3.52,0,0,0,3.032-1.509A7.787,7.787,0,0,0,242.007-8.057ZM251.074,0h-2.71V-22.5h2.71Zm10.913.293a6.925,6.925,0,0,1-5.244-2.117,7.856,7.856,0,0,1-2.021-5.662v-.5a9.511,9.511,0,0,1,.9-4.211,7.028,7.028,0,0,1,2.52-2.9,6.335,6.335,0,0,1,3.508-1.047,5.936,5.936,0,0,1,4.8,2.036,8.816,8.816,0,0,1,1.714,5.83v1.128H257.432a5.634,5.634,0,0,0,1.37,3.787,4.305,4.305,0,0,0,3.333,1.443,4.72,4.72,0,0,0,2.432-.586,6.11,6.11,0,0,0,1.743-1.553l1.655,1.289A6.656,6.656,0,0,1,261.987.293Zm-.337-14.209a3.615,3.615,0,0,0-2.754,1.194,5.8,5.8,0,0,0-1.377,3.347h7.939V-9.58a5.162,5.162,0,0,0-1.113-3.2A3.4,3.4,0,0,0,261.65-13.916Zm12.2-1.934.073,1.758a5.853,5.853,0,0,1,4.7-2.051q3.325,0,4.526,2.549a6,6,0,0,1,2.058-1.846,6.079,6.079,0,0,1,3-.7q5.215,0,5.3,5.522V0H290.8V-10.459A3.639,3.639,0,0,0,290.024-13a3.419,3.419,0,0,0-2.607-.842,3.593,3.593,0,0,0-2.5.9,3.655,3.655,0,0,0-1.157,2.424V0H281.03V-10.386q0-3.457-3.384-3.457A3.626,3.626,0,0,0,274-11.572V0h-2.71V-15.85ZM307.383,0A5.693,5.693,0,0,1,307-1.67,6.046,6.046,0,0,1,302.49.293a5.6,5.6,0,0,1-3.845-1.326,4.289,4.289,0,0,1-1.5-3.362,4.481,4.481,0,0,1,1.882-3.845,8.875,8.875,0,0,1,5.3-1.37h2.637v-1.245a3.044,3.044,0,0,0-.85-2.263,3.415,3.415,0,0,0-2.5-.842,3.952,3.952,0,0,0-2.432.732,2.158,2.158,0,0,0-.981,1.772h-2.725a3.74,3.74,0,0,1,.842-2.292,5.749,5.749,0,0,1,2.285-1.75,7.688,7.688,0,0,1,3.171-.645,6.266,6.266,0,0,1,4.292,1.37A4.941,4.941,0,0,1,309.668-11v7.295a8.919,8.919,0,0,0,.557,3.472V0Zm-4.5-2.065a4.763,4.763,0,0,0,2.417-.659,3.987,3.987,0,0,0,1.655-1.714V-7.69h-2.124q-4.98,0-4.98,2.915a2.467,2.467,0,0,0,.85,1.992A3.266,3.266,0,0,0,302.886-2.065ZM323.145-4.2a2,2,0,0,0-.828-1.707,7.966,7.966,0,0,0-2.886-1.047,13.644,13.644,0,0,1-3.267-1.055,4.647,4.647,0,0,1-1.787-1.465A3.5,3.5,0,0,1,313.8-11.5a4.111,4.111,0,0,1,1.648-3.3,6.436,6.436,0,0,1,4.211-1.348,6.623,6.623,0,0,1,4.373,1.392,4.42,4.42,0,0,1,1.677,3.56h-2.725a2.446,2.446,0,0,0-.945-1.919,3.54,3.54,0,0,0-2.38-.806,3.7,3.7,0,0,0-2.314.645,2.029,2.029,0,0,0-.835,1.685,1.644,1.644,0,0,0,.776,1.479,9.552,9.552,0,0,0,2.805.952,14.616,14.616,0,0,1,3.289,1.084,4.8,4.8,0,0,1,1.868,1.516,3.728,3.728,0,0,1,.608,2.161,4.056,4.056,0,0,1-1.7,3.406A7.128,7.128,0,0,1,319.746.293a7.981,7.981,0,0,1-3.369-.674,5.48,5.48,0,0,1-2.292-1.882,4.537,4.537,0,0,1-.828-2.615h2.71a2.806,2.806,0,0,0,1.091,2.161,4.234,4.234,0,0,0,2.688.8,4.37,4.37,0,0,0,2.468-.623A1.913,1.913,0,0,0,323.145-4.2Zm13.008-3.853a9.285,9.285,0,0,1,1.729-5.867,5.466,5.466,0,0,1,4.526-2.219,5.5,5.5,0,0,1,4.409,1.9V-22.5h2.71V0h-2.49L346.9-1.7A5.519,5.519,0,0,1,342.378.293a5.414,5.414,0,0,1-4.49-2.256,9.39,9.39,0,0,1-1.736-5.889Zm2.71.308a7.03,7.03,0,0,0,1.113,4.219,3.6,3.6,0,0,0,3.076,1.523,3.953,3.953,0,0,0,3.765-2.314V-11.6a3.984,3.984,0,0,0-3.735-2.241,3.616,3.616,0,0,0-3.105,1.538A7.74,7.74,0,0,0,338.862-7.749ZM360.308.293a6.925,6.925,0,0,1-5.244-2.117,7.856,7.856,0,0,1-2.021-5.662v-.5a9.511,9.511,0,0,1,.9-4.211,7.028,7.028,0,0,1,2.52-2.9,6.335,6.335,0,0,1,3.508-1.047,5.936,5.936,0,0,1,4.8,2.036,8.816,8.816,0,0,1,1.714,5.83v1.128H355.752a5.634,5.634,0,0,0,1.37,3.787,4.305,4.305,0,0,0,3.333,1.443,4.72,4.72,0,0,0,2.432-.586,6.11,6.11,0,0,0,1.743-1.553l1.655,1.289A6.656,6.656,0,0,1,360.308.293Zm-.337-14.209a3.615,3.615,0,0,0-2.754,1.194,5.8,5.8,0,0,0-1.377,3.347h7.939V-9.58a5.162,5.162,0,0,0-1.113-3.2A3.4,3.4,0,0,0,359.971-13.916Zm20.757-5.771v3.838h2.959v2.095h-2.959v9.829a2.2,2.2,0,0,0,.4,1.428,1.666,1.666,0,0,0,1.348.476A6.561,6.561,0,0,0,383.76-2.2V0a7.856,7.856,0,0,1-2.08.293,3.375,3.375,0,0,1-2.739-1.1,4.72,4.72,0,0,1-.923-3.12v-9.829h-2.886V-15.85h2.886v-3.838Zm13.784,6.27a8.121,8.121,0,0,0-1.333-.1,3.571,3.571,0,0,0-3.618,2.271V0h-2.71V-15.85h2.637l.044,1.831a4.22,4.22,0,0,1,3.779-2.124,2.769,2.769,0,0,1,1.2.205ZM406.2,0a5.693,5.693,0,0,1-.381-1.67A6.046,6.046,0,0,1,401.309.293a5.6,5.6,0,0,1-3.845-1.326,4.289,4.289,0,0,1-1.5-3.362,4.481,4.481,0,0,1,1.882-3.845,8.875,8.875,0,0,1,5.3-1.37h2.637v-1.245a3.044,3.044,0,0,0-.85-2.263,3.415,3.415,0,0,0-2.5-.842,3.952,3.952,0,0,0-2.432.732,2.158,2.158,0,0,0-.981,1.772h-2.725a3.74,3.74,0,0,1,.842-2.292,5.749,5.749,0,0,1,2.285-1.75,7.688,7.688,0,0,1,3.171-.645,6.266,6.266,0,0,1,4.292,1.37A4.941,4.941,0,0,1,408.486-11v7.295a8.919,8.919,0,0,0,.557,3.472V0Zm-4.5-2.065a4.763,4.763,0,0,0,2.417-.659,3.987,3.987,0,0,0,1.655-1.714V-7.69h-2.124q-4.98,0-4.98,2.915a2.467,2.467,0,0,0,.85,1.992A3.266,3.266,0,0,0,401.7-2.065ZM415.3-15.85l.088,1.992a5.776,5.776,0,0,1,4.746-2.285q5.024,0,5.068,5.669V0h-2.71V-10.488a3.649,3.649,0,0,0-.784-2.534,3.141,3.141,0,0,0-2.4-.82,3.911,3.911,0,0,0-2.314.7,4.775,4.775,0,0,0-1.553,1.846V0h-2.71V-15.85ZM438.516-4.2a2,2,0,0,0-.828-1.707A7.966,7.966,0,0,0,434.8-6.958a13.644,13.644,0,0,1-3.267-1.055,4.647,4.647,0,0,1-1.787-1.465,3.5,3.5,0,0,1-.579-2.021,4.111,4.111,0,0,1,1.648-3.3,6.436,6.436,0,0,1,4.211-1.348,6.623,6.623,0,0,1,4.373,1.392,4.42,4.42,0,0,1,1.677,3.56h-2.725a2.446,2.446,0,0,0-.945-1.919,3.54,3.54,0,0,0-2.38-.806,3.7,3.7,0,0,0-2.314.645,2.029,2.029,0,0,0-.835,1.685,1.644,1.644,0,0,0,.776,1.479,9.552,9.552,0,0,0,2.805.952,14.616,14.616,0,0,1,3.289,1.084,4.8,4.8,0,0,1,1.868,1.516,3.728,3.728,0,0,1,.608,2.161,4.056,4.056,0,0,1-1.7,3.406A7.128,7.128,0,0,1,435.117.293a7.981,7.981,0,0,1-3.369-.674,5.48,5.48,0,0,1-2.292-1.882,4.537,4.537,0,0,1-.828-2.615h2.71a2.806,2.806,0,0,0,1.091,2.161,4.234,4.234,0,0,0,2.688.8,4.37,4.37,0,0,0,2.468-.623A1.913,1.913,0,0,0,438.516-4.2Zm19.629-3.545a9.49,9.49,0,0,1-1.655,5.83A5.305,5.305,0,0,1,452.007.293a5.813,5.813,0,0,1-4.541-1.831V6.094h-2.71V-15.85h2.476l.132,1.758a5.583,5.583,0,0,1,4.6-2.051,5.4,5.4,0,0,1,4.519,2.153A9.594,9.594,0,0,1,458.145-8Zm-2.71-.308a7,7,0,0,0-1.143-4.233,3.681,3.681,0,0,0-3.135-1.553,3.984,3.984,0,0,0-3.691,2.183v7.573a3.991,3.991,0,0,0,3.721,2.168,3.663,3.663,0,0,0,3.1-1.545A7.644,7.644,0,0,0,455.435-8.057Zm5.435-.015a9.362,9.362,0,0,1,.916-4.189,6.83,6.83,0,0,1,2.549-2.871,6.938,6.938,0,0,1,3.728-1.011A6.684,6.684,0,0,1,473.3-13.9a8.623,8.623,0,0,1,2,5.962v.19a9.443,9.443,0,0,1-.886,4.153,6.729,6.729,0,0,1-2.534,2.864A7.018,7.018,0,0,1,468.091.293a6.667,6.667,0,0,1-5.222-2.241,8.579,8.579,0,0,1-2-5.933Zm2.725.322a6.781,6.781,0,0,0,1.223,4.233,3.914,3.914,0,0,0,3.274,1.6,3.891,3.891,0,0,0,3.281-1.619,7.415,7.415,0,0,0,1.216-4.534A6.769,6.769,0,0,0,471.35-12.3a3.935,3.935,0,0,0-3.289-1.619,3.891,3.891,0,0,0-3.237,1.6A7.36,7.36,0,0,0,463.594-7.749Zm22.764-5.669a8.121,8.121,0,0,0-1.333-.1,3.571,3.571,0,0,0-3.618,2.271V0H478.7V-15.85h2.637l.044,1.831a4.22,4.22,0,0,1,3.779-2.124,2.769,2.769,0,0,1,1.2.205Zm6.9-6.27v3.838h2.959v2.095h-2.959v9.829a2.2,2.2,0,0,0,.4,1.428A1.666,1.666,0,0,0,495-2.021a6.561,6.561,0,0,0,1.289-.176V0a7.856,7.856,0,0,1-2.08.293,3.375,3.375,0,0,1-2.739-1.1,4.72,4.72,0,0,1-.923-3.12v-9.829h-2.886V-15.85h2.886v-3.838Zm12.7,19.98a6.925,6.925,0,0,1-5.244-2.117,7.856,7.856,0,0,1-2.021-5.662v-.5a9.511,9.511,0,0,1,.9-4.211,7.028,7.028,0,0,1,2.52-2.9,6.335,6.335,0,0,1,3.508-1.047,5.936,5.936,0,0,1,4.8,2.036,8.816,8.816,0,0,1,1.714,5.83v1.128H501.4a5.634,5.634,0,0,0,1.37,3.787A4.305,4.305,0,0,0,506.1-1.919a4.72,4.72,0,0,0,2.432-.586,6.11,6.11,0,0,0,1.743-1.553l1.655,1.289A6.656,6.656,0,0,1,505.957.293Zm-.337-14.209a3.615,3.615,0,0,0-2.754,1.194,5.8,5.8,0,0,0-1.377,3.347h7.939V-9.58a5.162,5.162,0,0,0-1.113-3.2A3.4,3.4,0,0,0,505.62-13.916Z" transform="translate(389 4447.953)" fill="#09347b"/>
      <path id="Trazado_11164" data-name="Trazado 11164" d="M3.5-10.038l.083,1.16a3.5,3.5,0,0,1,2.885-1.345,2.913,2.913,0,0,1,2.375.937,4.372,4.372,0,0,1,.8,2.8V0H6.958V-6.42a1.739,1.739,0,0,0-.371-1.239,1.661,1.661,0,0,0-1.234-.385,1.844,1.844,0,0,0-1.7.965V0H.974V-10.038ZM17.683-1.021A3.362,3.362,0,0,1,14.937.186a3.171,3.171,0,0,1-2.463-.928,3.96,3.96,0,0,1-.867-2.718v-6.578h2.681v6.485q0,1.568,1.429,1.568a1.937,1.937,0,0,0,1.874-.946v-7.106h2.69V0H17.757Zm-1.2-13.229h2.922l-2.57,2.876h-2.18ZM26.478-1.976a1.759,1.759,0,0,0,1.206-.408,1.43,1.43,0,0,0,.482-1.085H30.68A3.439,3.439,0,0,1,30.124-1.6a3.673,3.673,0,0,1-1.5,1.317,4.689,4.689,0,0,1-2.1.469,4.358,4.358,0,0,1-3.4-1.368,5.415,5.415,0,0,1-1.243-3.781V-5.14a5.353,5.353,0,0,1,1.234-3.7,4.307,4.307,0,0,1,3.386-1.382,4.222,4.222,0,0,1,3.02,1.072A3.794,3.794,0,0,1,30.68-6.3H28.166a1.827,1.827,0,0,0-.482-1.266,1.613,1.613,0,0,0-1.225-.487,1.616,1.616,0,0,0-1.415.682,3.947,3.947,0,0,0-.478,2.213v.278a4,4,0,0,0,.473,2.227A1.636,1.636,0,0,0,26.478-1.976ZM35.041,0H32.35V-14.25h2.69Zm6.828.186a4.928,4.928,0,0,1-3.595-1.354,4.815,4.815,0,0,1-1.387-3.609v-.26a6.064,6.064,0,0,1,.584-2.7,4.289,4.289,0,0,1,1.656-1.837,4.648,4.648,0,0,1,2.445-.645,4.166,4.166,0,0,1,3.242,1.3A5.278,5.278,0,0,1,46-5.242v1.095H39.6a2.491,2.491,0,0,0,.784,1.577,2.37,2.37,0,0,0,1.656.594A2.894,2.894,0,0,0,44.466-3.1l1.317,1.475A4.025,4.025,0,0,1,44.151-.292,5.357,5.357,0,0,1,41.869.186Zm-.306-8.238a1.679,1.679,0,0,0-1.294.538,2.78,2.78,0,0,0-.635,1.54h3.729v-.213a1.982,1.982,0,0,0-.482-1.378A1.733,1.733,0,0,0,41.563-8.053ZM47.1-5.112a5.953,5.953,0,0,1,.575-2.663,4.211,4.211,0,0,1,1.656-1.809,4.831,4.831,0,0,1,2.51-.64A4.571,4.571,0,0,1,55.158-8.98,4.989,4.989,0,0,1,56.592-5.6l.019.687a5.247,5.247,0,0,1-1.29,3.706,4.482,4.482,0,0,1-3.46,1.4A4.5,4.5,0,0,1,48.4-1.206,5.339,5.339,0,0,1,47.1-4.991Zm2.681.195a3.742,3.742,0,0,0,.538,2.185,1.776,1.776,0,0,0,1.54.756,1.78,1.78,0,0,0,1.521-.747,4.1,4.1,0,0,0,.547-2.389,3.7,3.7,0,0,0-.547-2.171,1.78,1.78,0,0,0-1.54-.77,1.751,1.751,0,0,0-1.521.765A4.164,4.164,0,0,0,49.782-4.917Zm12.793-.176a6.049,6.049,0,0,1,1.053-3.739,3.417,3.417,0,0,1,2.881-1.392,3.074,3.074,0,0,1,2.421,1.095V-14.25h2.69V0H69.2l-.13-1.067A3.155,3.155,0,0,1,66.491.186a3.407,3.407,0,0,1-2.844-1.4A6.244,6.244,0,0,1,62.576-5.093Zm2.681.195a3.952,3.952,0,0,0,.492,2.162,1.6,1.6,0,0,0,1.429.751,1.794,1.794,0,0,0,1.753-1.048V-7A1.769,1.769,0,0,0,67.2-8.043Q65.257-8.043,65.257-4.9ZM78.319.186a4.928,4.928,0,0,1-3.595-1.354,4.815,4.815,0,0,1-1.387-3.609v-.26a6.064,6.064,0,0,1,.584-2.7,4.289,4.289,0,0,1,1.656-1.837,4.648,4.648,0,0,1,2.445-.645,4.166,4.166,0,0,1,3.242,1.3,5.278,5.278,0,0,1,1.183,3.683v1.095H76.056A2.491,2.491,0,0,0,76.84-2.57a2.37,2.37,0,0,0,1.656.594A2.894,2.894,0,0,0,80.917-3.1l1.317,1.475A4.025,4.025,0,0,1,80.6-.292,5.357,5.357,0,0,1,78.319.186Zm-.306-8.238a1.679,1.679,0,0,0-1.294.538,2.78,2.78,0,0,0-.635,1.54h3.729v-.213a1.982,1.982,0,0,0-.482-1.378A1.733,1.733,0,0,0,78.013-8.053ZM86.8,0h-2.69V-14.25H86.8Zm15.976-4.926a6.02,6.02,0,0,1-1.053,3.716,3.376,3.376,0,0,1-2.844,1.4A3.127,3.127,0,0,1,96.419-.872V3.859H93.738v-13.9h2.486l.093.983a3.151,3.151,0,0,1,2.542-1.169,3.4,3.4,0,0,1,2.885,1.373,6.183,6.183,0,0,1,1.03,3.785Zm-2.681-.195a3.951,3.951,0,0,0-.5-2.162,1.617,1.617,0,0,0-1.443-.761,1.756,1.756,0,0,0-1.735.965v4.11a1.786,1.786,0,0,0,1.753.993Q100.093-1.976,100.093-5.121Zm9.982-2.4a7.284,7.284,0,0,0-.965-.074,1.964,1.964,0,0,0-1.995,1.03V0h-2.681V-10.038h2.533l.074,1.2a2.484,2.484,0,0,1,2.236-1.382,2.809,2.809,0,0,1,.835.121ZM115.809.186a4.928,4.928,0,0,1-3.595-1.354,4.815,4.815,0,0,1-1.387-3.609v-.26a6.064,6.064,0,0,1,.584-2.7,4.289,4.289,0,0,1,1.656-1.837,4.648,4.648,0,0,1,2.445-.645,4.166,4.166,0,0,1,3.242,1.3,5.278,5.278,0,0,1,1.183,3.683v1.095h-6.392a2.491,2.491,0,0,0,.784,1.577,2.37,2.37,0,0,0,1.656.594A2.894,2.894,0,0,0,118.407-3.1l1.317,1.475a4.025,4.025,0,0,1-1.633,1.331A5.357,5.357,0,0,1,115.809.186ZM115.5-8.053a1.679,1.679,0,0,0-1.294.538,2.78,2.78,0,0,0-.635,1.54H117.3v-.213a1.982,1.982,0,0,0-.482-1.378A1.733,1.733,0,0,0,115.5-8.053Zm5.539,2.959a6.049,6.049,0,0,1,1.053-3.739,3.417,3.417,0,0,1,2.881-1.392A3.074,3.074,0,0,1,127.4-9.129V-14.25h2.69V0h-2.421l-.13-1.067A3.155,3.155,0,0,1,124.957.186a3.407,3.407,0,0,1-2.844-1.4A6.244,6.244,0,0,1,121.042-5.093Zm2.681.195a3.952,3.952,0,0,0,.492,2.162,1.6,1.6,0,0,0,1.429.751A1.794,1.794,0,0,0,127.4-3.034V-7a1.769,1.769,0,0,0-1.735-1.048Q123.723-8.043,123.723-4.9ZM134.995,0H132.3V-10.038h2.69Zm-2.848-12.636a1.32,1.32,0,0,1,.4-.993,1.516,1.516,0,0,1,1.1-.39,1.52,1.52,0,0,1,1.095.39,1.313,1.313,0,0,1,.408.993,1.316,1.316,0,0,1-.413,1,1.523,1.523,0,0,1-1.09.39,1.523,1.523,0,0,1-1.09-.39A1.316,1.316,0,0,1,132.146-12.636Zm9.231,10.66a1.759,1.759,0,0,0,1.206-.408,1.43,1.43,0,0,0,.482-1.085h2.514a3.439,3.439,0,0,1-.557,1.869,3.673,3.673,0,0,1-1.5,1.317,4.689,4.689,0,0,1-2.1.469,4.358,4.358,0,0,1-3.4-1.368,5.415,5.415,0,0,1-1.243-3.781V-5.14a5.353,5.353,0,0,1,1.234-3.7,4.307,4.307,0,0,1,3.386-1.382,4.222,4.222,0,0,1,3.02,1.072A3.794,3.794,0,0,1,145.58-6.3h-2.514a1.827,1.827,0,0,0-.482-1.266,1.613,1.613,0,0,0-1.225-.487,1.616,1.616,0,0,0-1.415.682,3.947,3.947,0,0,0-.478,2.213v.278a4,4,0,0,0,.473,2.227A1.636,1.636,0,0,0,141.377-1.976ZM152.928,0a2.977,2.977,0,0,1-.269-.9A3.244,3.244,0,0,1,150.126.186a3.564,3.564,0,0,1-2.445-.854,2.745,2.745,0,0,1-.969-2.152,2.837,2.837,0,0,1,1.183-2.449,5.837,5.837,0,0,1,3.419-.863h1.234v-.575a1.654,1.654,0,0,0-.357-1.113,1.405,1.405,0,0,0-1.127-.417A1.6,1.6,0,0,0,150-7.914a1.1,1.1,0,0,0-.385.891h-2.681a2.693,2.693,0,0,1,.538-1.614A3.557,3.557,0,0,1,148.994-9.8a5.545,5.545,0,0,1,2.208-.422,4.381,4.381,0,0,1,2.946.932,3.262,3.262,0,0,1,1.09,2.621v4.351a4.8,4.8,0,0,0,.4,2.162V0ZM150.71-1.865a2.309,2.309,0,0,0,1.095-.264,1.737,1.737,0,0,0,.742-.71V-4.564h-1q-2.013,0-2.143,1.392l-.009.158a1.073,1.073,0,0,0,.353.826A1.369,1.369,0,0,0,150.71-1.865Zm6.169-3.229a6.049,6.049,0,0,1,1.053-3.739,3.417,3.417,0,0,1,2.881-1.392,3.074,3.074,0,0,1,2.421,1.095V-14.25h2.69V0H163.5l-.13-1.067A3.155,3.155,0,0,1,160.795.186a3.407,3.407,0,0,1-2.844-1.4A6.244,6.244,0,0,1,156.88-5.093Zm2.681.195a3.952,3.952,0,0,0,.492,2.162,1.6,1.6,0,0,0,1.429.751,1.794,1.794,0,0,0,1.753-1.048V-7A1.769,1.769,0,0,0,161.5-8.043Q159.561-8.043,159.561-4.9Zm8.025-.213a5.953,5.953,0,0,1,.575-2.663,4.211,4.211,0,0,1,1.656-1.809,4.831,4.831,0,0,1,2.51-.64,4.571,4.571,0,0,1,3.317,1.243A4.989,4.989,0,0,1,177.077-5.6l.019.687a5.247,5.247,0,0,1-1.29,3.706,4.482,4.482,0,0,1-3.46,1.4,4.5,4.5,0,0,1-3.465-1.392,5.339,5.339,0,0,1-1.294-3.785Zm2.681.195a3.742,3.742,0,0,0,.538,2.185,1.776,1.776,0,0,0,1.54.756,1.78,1.78,0,0,0,1.521-.747,4.094,4.094,0,0,0,.547-2.389,3.7,3.7,0,0,0-.547-2.171,1.78,1.78,0,0,0-1.54-.77,1.751,1.751,0,0,0-1.521.765A4.164,4.164,0,0,0,170.267-4.917Z" transform="translate(510 4493.953)" fill="#26c179"/>
    </g>
    <g id="Grupo_13597" data-name="Grupo 13597" transform="translate(0 -84.439)">
      <path id="Trazado_11165" data-name="Trazado 11165" d="M0,0H87.768V57H0Z" transform="matrix(1, -0.017, 0.017, 1, 235, 4536.398)" fill="#dbffee"/>
      <path id="Trazado_11167" data-name="Trazado 11167" d="M8.21-3.544a1.428,1.428,0,0,0-.557-1.211,7.3,7.3,0,0,0-2-.891,14.206,14.206,0,0,1-2.292-.923,3.744,3.744,0,0,1-2.3-3.349,3.262,3.262,0,0,1,.617-1.953,4.024,4.024,0,0,1,1.772-1.341,6.669,6.669,0,0,1,2.593-.482,6.071,6.071,0,0,1,2.579.524,4.107,4.107,0,0,1,1.758,1.48A3.872,3.872,0,0,1,11-9.519H8.22a1.821,1.821,0,0,0-.584-1.443,2.4,2.4,0,0,0-1.642-.515,2.567,2.567,0,0,0-1.586.431,1.361,1.361,0,0,0-.566,1.136A1.3,1.3,0,0,0,4.5-8.8a7.494,7.494,0,0,0,1.953.835A8.438,8.438,0,0,1,9.917-6.2,3.529,3.529,0,0,1,11-3.562,3.251,3.251,0,0,1,9.676-.812,5.808,5.808,0,0,1,6.1.186,6.9,6.9,0,0,1,3.266-.385,4.492,4.492,0,0,1,1.313-1.948a4,4,0,0,1-.673-2.3H3.433q0,2.236,2.672,2.236a2.6,2.6,0,0,0,1.549-.4A1.313,1.313,0,0,0,8.21-3.544ZM18.722-1.021A3.362,3.362,0,0,1,15.976.186a3.171,3.171,0,0,1-2.463-.928,3.96,3.96,0,0,1-.867-2.718v-6.578h2.681v6.485q0,1.568,1.429,1.568a1.937,1.937,0,0,0,1.874-.946v-7.106h2.69V0H18.8Zm7.459-9.018V.547A3.591,3.591,0,0,1,25.3,3.131a3.35,3.35,0,0,1-2.542.923A5.452,5.452,0,0,1,21.431,3.9V1.772a5.033,5.033,0,0,0,.844.083q1.215,0,1.215-1.29v-10.6Zm-2.9-2.6a1.32,1.32,0,0,1,.4-.993,1.516,1.516,0,0,1,1.1-.39,1.516,1.516,0,0,1,1.1.39,1.32,1.32,0,0,1,.4.993,1.316,1.316,0,0,1-.413,1,1.523,1.523,0,0,1-1.09.39,1.523,1.523,0,0,1-1.09-.39A1.316,1.316,0,0,1,23.277-12.636ZM32.9.186A4.928,4.928,0,0,1,29.3-1.169a4.815,4.815,0,0,1-1.387-3.609v-.26a6.064,6.064,0,0,1,.584-2.7,4.289,4.289,0,0,1,1.656-1.837,4.648,4.648,0,0,1,2.445-.645,4.166,4.166,0,0,1,3.242,1.3,5.278,5.278,0,0,1,1.183,3.683v1.095H30.634a2.491,2.491,0,0,0,.784,1.577,2.37,2.37,0,0,0,1.656.594A2.894,2.894,0,0,0,35.5-3.1l1.317,1.475A4.025,4.025,0,0,1,35.18-.292,5.357,5.357,0,0,1,32.9.186Zm-.306-8.238a1.679,1.679,0,0,0-1.294.538,2.78,2.78,0,0,0-.635,1.54h3.729v-.213a1.982,1.982,0,0,0-.482-1.378A1.733,1.733,0,0,0,32.591-8.053Zm9.166-4.453v2.468h1.716v1.967H41.757v5.01a1.2,1.2,0,0,0,.213.8,1.072,1.072,0,0,0,.816.241,4.276,4.276,0,0,0,.789-.065V-.056a5.52,5.52,0,0,1-1.624.241,2.56,2.56,0,0,1-2.876-2.848V-8.071H37.61v-1.967h1.466v-2.468Zm2.514,7.394a5.953,5.953,0,0,1,.575-2.663A4.211,4.211,0,0,1,46.5-9.583a4.831,4.831,0,0,1,2.51-.64A4.571,4.571,0,0,1,52.329-8.98,4.989,4.989,0,0,1,53.762-5.6l.019.687a5.247,5.247,0,0,1-1.29,3.706,4.482,4.482,0,0,1-3.46,1.4,4.5,4.5,0,0,1-3.465-1.392,5.339,5.339,0,0,1-1.294-3.785Zm2.681.195a3.742,3.742,0,0,0,.538,2.185,1.776,1.776,0,0,0,1.54.756,1.78,1.78,0,0,0,1.521-.747A4.1,4.1,0,0,0,51.1-5.112a3.7,3.7,0,0,0-.547-2.171,1.78,1.78,0,0,0-1.54-.77,1.751,1.751,0,0,0-1.521.765A4.164,4.164,0,0,0,46.953-4.917Z" transform="translate(262.976 4616.424)" fill="#26c179"/>
      <path id="Trazado_10618" data-name="Trazado 10618" d="M-.259,0l372.6,6.944L370.6,57-.635,46.309Z" transform="matrix(0.999, -0.035, 0.035, 0.999, 323.395, 4543.293)" fill="#ffe8ba"/>
      <path id="Trazado_11166" data-name="Trazado 11166" d="M6.108-21.328l6.973,17.4,6.973-17.4H23.7V0H20.889V-8.306l.264-8.965L14.15,0H12L5.01-17.227l.278,8.921V0H2.476V-21.328ZM34.819.293a6.925,6.925,0,0,1-5.244-2.117,7.856,7.856,0,0,1-2.021-5.662v-.5a9.511,9.511,0,0,1,.9-4.211,7.028,7.028,0,0,1,2.52-2.9,6.335,6.335,0,0,1,3.508-1.047,5.936,5.936,0,0,1,4.8,2.036A8.816,8.816,0,0,1,41-8.276v1.128H30.264a5.634,5.634,0,0,0,1.37,3.787,4.305,4.305,0,0,0,3.333,1.443A4.72,4.72,0,0,0,37.4-2.5a6.11,6.11,0,0,0,1.743-1.553L40.8-2.769A6.656,6.656,0,0,1,34.819.293Zm-.337-14.209a3.615,3.615,0,0,0-2.754,1.194,5.8,5.8,0,0,0-1.377,3.347h7.939V-9.58a5.162,5.162,0,0,0-1.113-3.2A3.4,3.4,0,0,0,34.482-13.916ZM57.949-8.042a9.289,9.289,0,0,1,1.736-5.874,5.624,5.624,0,0,1,4.68-2.227,4.933,4.933,0,0,1,4.058,1.787L68.6-15.85h3.838V-.527a6.774,6.774,0,0,1-.945,3.618,6.068,6.068,0,0,1-2.659,2.344,9.346,9.346,0,0,1-4.014.806,8.691,8.691,0,0,1-3.4-.7,6.032,6.032,0,0,1-2.5-1.794l1.875-2.578a4.959,4.959,0,0,0,3.838,1.772,3.63,3.63,0,0,0,2.622-.9,3.379,3.379,0,0,0,.938-2.556v-.85A4.9,4.9,0,0,1,64.336.293a5.61,5.61,0,0,1-4.622-2.234,9.286,9.286,0,0,1-1.765-5.925Zm4.233.308a5.768,5.768,0,0,0,.864,3.376A2.751,2.751,0,0,0,65.42-3.135a2.941,2.941,0,0,0,2.769-1.45V-11.25a2.934,2.934,0,0,0-2.739-1.45,2.768,2.768,0,0,0-2.4,1.245A6.5,6.5,0,0,0,62.183-7.734Zm23,6.123a5.309,5.309,0,0,1-4.336,1.9,5.007,5.007,0,0,1-3.889-1.465,6.253,6.253,0,0,1-1.37-4.292V-15.85h4.233V-5.61q0,2.476,2.256,2.476a3.058,3.058,0,0,0,2.959-1.494V-15.85h4.248V0H85.3ZM101.06-4.38a1.364,1.364,0,0,0-.769-1.223,8.736,8.736,0,0,0-2.468-.8q-5.654-1.187-5.654-4.8a4.355,4.355,0,0,1,1.75-3.523A7.061,7.061,0,0,1,98.5-16.143a7.6,7.6,0,0,1,4.827,1.421,4.478,4.478,0,0,1,1.809,3.691H100.9a2.048,2.048,0,0,0-.586-1.5,2.48,2.48,0,0,0-1.831-.593,2.534,2.534,0,0,0-1.655.483,1.526,1.526,0,0,0-.586,1.23,1.3,1.3,0,0,0,.667,1.135,6.857,6.857,0,0,0,2.249.747,18.366,18.366,0,0,1,2.666.71q3.354,1.23,3.354,4.263a4.134,4.134,0,0,1-1.86,3.508,8.025,8.025,0,0,1-4.8,1.34,8.382,8.382,0,0,1-3.538-.71,5.936,5.936,0,0,1-2.424-1.948,4.527,4.527,0,0,1-.879-2.673h4.014a2.21,2.21,0,0,0,.835,1.729,3.312,3.312,0,0,0,2.08.6,3.065,3.065,0,0,0,1.838-.461A1.436,1.436,0,0,0,101.06-4.38Zm11.909-15.366v3.9h2.71v3.105h-2.71v7.91a1.889,1.889,0,0,0,.337,1.26,1.692,1.692,0,0,0,1.289.381,6.751,6.751,0,0,0,1.245-.1V-.088a8.715,8.715,0,0,1-2.563.381q-4.453,0-4.541-4.5v-8.54h-2.314V-15.85h2.314v-3.9ZM127.222,0a4.7,4.7,0,0,1-.425-1.421,5.122,5.122,0,0,1-4,1.714,5.627,5.627,0,0,1-3.86-1.348,4.334,4.334,0,0,1-1.531-3.4,4.479,4.479,0,0,1,1.868-3.867,9.216,9.216,0,0,1,5.4-1.362h1.948v-.908a2.612,2.612,0,0,0-.564-1.758,2.219,2.219,0,0,0-1.78-.659,2.522,2.522,0,0,0-1.677.513,1.742,1.742,0,0,0-.608,1.406h-4.233a4.252,4.252,0,0,1,.85-2.549,5.616,5.616,0,0,1,2.4-1.838,8.755,8.755,0,0,1,3.486-.667,6.917,6.917,0,0,1,4.651,1.472,5.15,5.15,0,0,1,1.721,4.138v6.87a7.577,7.577,0,0,0,.63,3.413V0Zm-3.5-2.944a3.646,3.646,0,0,0,1.729-.417,2.742,2.742,0,0,0,1.172-1.121V-7.207h-1.582q-3.179,0-3.384,2.2l-.015.249a1.7,1.7,0,0,0,.557,1.3A2.162,2.162,0,0,0,123.721-2.944Zm14.3-12.905.132,1.831a5.534,5.534,0,0,1,4.556-2.124,4.6,4.6,0,0,1,3.75,1.479,6.9,6.9,0,0,1,1.26,4.424V0h-4.233V-10.137a2.746,2.746,0,0,0-.586-1.956,2.623,2.623,0,0,0-1.948-.608,2.912,2.912,0,0,0-2.681,1.523V0h-4.233V-15.85ZM161.719,0h-2.71V-22.5h2.71ZM175.84,0a5.693,5.693,0,0,1-.381-1.67A6.046,6.046,0,0,1,170.947.293,5.6,5.6,0,0,1,167.1-1.033a4.289,4.289,0,0,1-1.5-3.362,4.481,4.481,0,0,1,1.882-3.845,8.875,8.875,0,0,1,5.3-1.37h2.637v-1.245a3.044,3.044,0,0,0-.85-2.263,3.415,3.415,0,0,0-2.5-.842,3.952,3.952,0,0,0-2.432.732,2.158,2.158,0,0,0-.981,1.772h-2.725a3.74,3.74,0,0,1,.842-2.292,5.749,5.749,0,0,1,2.285-1.75,7.688,7.688,0,0,1,3.171-.645,6.266,6.266,0,0,1,4.292,1.37A4.941,4.941,0,0,1,178.125-11v7.295a8.919,8.919,0,0,0,.557,3.472V0Zm-4.5-2.065a4.763,4.763,0,0,0,2.417-.659,3.987,3.987,0,0,0,1.655-1.714V-7.69h-2.124q-4.98,0-4.98,2.915a2.467,2.467,0,0,0,.85,1.992A3.266,3.266,0,0,0,171.343-2.065ZM191.6-4.2a2,2,0,0,0-.828-1.707,7.966,7.966,0,0,0-2.886-1.047,13.644,13.644,0,0,1-3.267-1.055,4.647,4.647,0,0,1-1.787-1.465,3.5,3.5,0,0,1-.579-2.021,4.111,4.111,0,0,1,1.648-3.3,6.436,6.436,0,0,1,4.211-1.348,6.623,6.623,0,0,1,4.373,1.392,4.42,4.42,0,0,1,1.677,3.56H191.44a2.446,2.446,0,0,0-.945-1.919,3.54,3.54,0,0,0-2.38-.806,3.7,3.7,0,0,0-2.314.645,2.029,2.029,0,0,0-.835,1.685,1.644,1.644,0,0,0,.776,1.479,9.552,9.552,0,0,0,2.805.952,14.616,14.616,0,0,1,3.289,1.084A4.8,4.8,0,0,1,193.7-6.555a3.728,3.728,0,0,1,.608,2.161,4.056,4.056,0,0,1-1.7,3.406A7.128,7.128,0,0,1,188.2.293a7.981,7.981,0,0,1-3.369-.674,5.48,5.48,0,0,1-2.292-1.882,4.537,4.537,0,0,1-.828-2.615h2.71a2.806,2.806,0,0,0,1.091,2.161,4.234,4.234,0,0,0,2.688.8,4.37,4.37,0,0,0,2.468-.623A1.913,1.913,0,0,0,191.6-4.2Zm23.569-16a19.293,19.293,0,0,0-2.93-.293q-2.93,0-2.93,3.076v1.567H212.7v2.095h-3.384V0H206.6V-13.755h-2.5V-15.85h2.5v-1.729a5.17,5.17,0,0,1,1.421-3.882,5.55,5.55,0,0,1,4-1.348,36.915,36.915,0,0,1,5.859.894V0h-2.71Zm6.416,12.129a9.362,9.362,0,0,1,.916-4.189,6.83,6.83,0,0,1,2.549-2.871,6.938,6.938,0,0,1,3.728-1.011,6.684,6.684,0,0,1,5.237,2.241,8.623,8.623,0,0,1,2,5.962v.19a9.443,9.443,0,0,1-.886,4.153A6.729,6.729,0,0,1,232.6-.732,7.018,7.018,0,0,1,228.809.293a6.667,6.667,0,0,1-5.222-2.241,8.579,8.579,0,0,1-2-5.933Zm2.725.322a6.781,6.781,0,0,0,1.223,4.233,3.914,3.914,0,0,0,3.274,1.6,3.891,3.891,0,0,0,3.281-1.619,7.415,7.415,0,0,0,1.216-4.534,6.769,6.769,0,0,0-1.238-4.226,3.935,3.935,0,0,0-3.289-1.619,3.891,3.891,0,0,0-3.237,1.6A7.36,7.36,0,0,0,224.312-7.749Zm22.764-5.669a8.121,8.121,0,0,0-1.333-.1,3.571,3.571,0,0,0-3.618,2.271V0h-2.71V-15.85h2.637l.044,1.831a4.22,4.22,0,0,1,3.779-2.124,2.769,2.769,0,0,1,1.2.205ZM255.864.293a6.925,6.925,0,0,1-5.244-2.117A7.856,7.856,0,0,1,248.6-7.485v-.5a9.511,9.511,0,0,1,.9-4.211,7.028,7.028,0,0,1,2.52-2.9,6.335,6.335,0,0,1,3.508-1.047,5.936,5.936,0,0,1,4.8,2.036,8.816,8.816,0,0,1,1.714,5.83v1.128H251.309a5.634,5.634,0,0,0,1.37,3.787,4.305,4.305,0,0,0,3.333,1.443,4.72,4.72,0,0,0,2.432-.586,6.11,6.11,0,0,0,1.743-1.553l1.655,1.289A6.656,6.656,0,0,1,255.864.293Zm-.337-14.209a3.615,3.615,0,0,0-2.754,1.194A5.8,5.8,0,0,0,251.4-9.375h7.939V-9.58a5.162,5.162,0,0,0-1.113-3.2A3.4,3.4,0,0,0,255.527-13.916ZM274.409-4.2a2,2,0,0,0-.828-1.707A7.966,7.966,0,0,0,270.7-6.958a13.644,13.644,0,0,1-3.267-1.055,4.647,4.647,0,0,1-1.787-1.465,3.5,3.5,0,0,1-.579-2.021,4.111,4.111,0,0,1,1.648-3.3,6.436,6.436,0,0,1,4.211-1.348,6.623,6.623,0,0,1,4.373,1.392,4.42,4.42,0,0,1,1.677,3.56h-2.725a2.446,2.446,0,0,0-.945-1.919,3.54,3.54,0,0,0-2.38-.806,3.7,3.7,0,0,0-2.314.645,2.029,2.029,0,0,0-.835,1.685,1.644,1.644,0,0,0,.776,1.479,9.552,9.552,0,0,0,2.805.952,14.616,14.616,0,0,1,3.289,1.084,4.8,4.8,0,0,1,1.868,1.516,3.728,3.728,0,0,1,.608,2.161,4.056,4.056,0,0,1-1.7,3.406A7.128,7.128,0,0,1,271.011.293a7.981,7.981,0,0,1-3.369-.674,5.48,5.48,0,0,1-2.292-1.882,4.537,4.537,0,0,1-.828-2.615h2.71a2.806,2.806,0,0,0,1.091,2.161,4.234,4.234,0,0,0,2.688.8,4.37,4.37,0,0,0,2.468-.623A1.913,1.913,0,0,0,274.409-4.2ZM297.861,0a5.693,5.693,0,0,1-.381-1.67A6.046,6.046,0,0,1,292.969.293a5.6,5.6,0,0,1-3.845-1.326,4.289,4.289,0,0,1-1.5-3.362A4.481,4.481,0,0,1,289.5-8.24a8.875,8.875,0,0,1,5.3-1.37h2.637v-1.245a3.044,3.044,0,0,0-.85-2.263,3.415,3.415,0,0,0-2.5-.842,3.952,3.952,0,0,0-2.432.732,2.158,2.158,0,0,0-.981,1.772h-2.725a3.74,3.74,0,0,1,.842-2.292,5.749,5.749,0,0,1,2.285-1.75,7.688,7.688,0,0,1,3.171-.645,6.266,6.266,0,0,1,4.292,1.37A4.941,4.941,0,0,1,300.146-11v7.295A8.919,8.919,0,0,0,300.7-.234V0Zm-4.5-2.065a4.763,4.763,0,0,0,2.417-.659,3.987,3.987,0,0,0,1.655-1.714V-7.69h-2.124q-4.98,0-4.98,2.915a2.467,2.467,0,0,0,.85,1.992A3.266,3.266,0,0,0,293.364-2.065ZM306.943-15.85l.073,1.758a5.853,5.853,0,0,1,4.7-2.051q3.325,0,4.526,2.549a6,6,0,0,1,2.058-1.846,6.079,6.079,0,0,1,3-.7q5.215,0,5.3,5.522V0h-2.71V-10.459A3.639,3.639,0,0,0,323.115-13a3.419,3.419,0,0,0-2.607-.842,3.593,3.593,0,0,0-2.5.9,3.655,3.655,0,0,0-1.157,2.424V0h-2.725V-10.386q0-3.457-3.384-3.457a3.626,3.626,0,0,0-3.647,2.271V0h-2.71V-15.85ZM340.474,0a5.693,5.693,0,0,1-.381-1.67A6.046,6.046,0,0,1,335.581.293a5.6,5.6,0,0,1-3.845-1.326,4.289,4.289,0,0,1-1.5-3.362,4.481,4.481,0,0,1,1.882-3.845,8.875,8.875,0,0,1,5.3-1.37h2.637v-1.245a3.044,3.044,0,0,0-.85-2.263,3.415,3.415,0,0,0-2.5-.842,3.952,3.952,0,0,0-2.432.732,2.158,2.158,0,0,0-.981,1.772h-2.725a3.74,3.74,0,0,1,.842-2.292,5.749,5.749,0,0,1,2.285-1.75,7.688,7.688,0,0,1,3.171-.645,6.266,6.266,0,0,1,4.292,1.37A4.941,4.941,0,0,1,342.759-11v7.295a8.919,8.919,0,0,0,.557,3.472V0Zm-4.5-2.065a4.763,4.763,0,0,0,2.417-.659,3.987,3.987,0,0,0,1.655-1.714V-7.69h-2.124q-4.98,0-4.98,2.915a2.467,2.467,0,0,0,.85,1.992A3.266,3.266,0,0,0,335.977-2.065Zm18.691-11.353a8.121,8.121,0,0,0-1.333-.1,3.571,3.571,0,0,0-3.618,2.271V0h-2.71V-15.85h2.637l.044,1.831a4.22,4.22,0,0,1,3.779-2.124,2.769,2.769,0,0,1,1.2.205ZM360.1,0h-2.71V-15.85h2.71Zm-2.93-20.054a1.618,1.618,0,0,1,.4-1.113,1.512,1.512,0,0,1,1.194-.454,1.536,1.536,0,0,1,1.2.454,1.6,1.6,0,0,1,.41,1.113,1.548,1.548,0,0,1-.41,1.1,1.564,1.564,0,0,1-1.2.439,1.54,1.54,0,0,1-1.194-.439A1.564,1.564,0,0,1,357.173-20.054ZM367.383,0h-2.71V-22.5h2.71Zm7.28,0h-2.71V-22.5h2.71Zm14.121,0a5.693,5.693,0,0,1-.381-1.67A6.046,6.046,0,0,1,383.892.293a5.6,5.6,0,0,1-3.845-1.326,4.289,4.289,0,0,1-1.5-3.362,4.481,4.481,0,0,1,1.882-3.845,8.875,8.875,0,0,1,5.3-1.37h2.637v-1.245a3.044,3.044,0,0,0-.85-2.263,3.415,3.415,0,0,0-2.5-.842,3.952,3.952,0,0,0-2.432.732,2.158,2.158,0,0,0-.981,1.772h-2.725a3.74,3.74,0,0,1,.842-2.292,5.749,5.749,0,0,1,2.285-1.75,7.688,7.688,0,0,1,3.171-.645,6.266,6.266,0,0,1,4.292,1.37A4.941,4.941,0,0,1,391.069-11v7.295a8.919,8.919,0,0,0,.557,3.472V0Zm-4.5-2.065a4.763,4.763,0,0,0,2.417-.659,3.987,3.987,0,0,0,1.655-1.714V-7.69h-2.124q-4.98,0-4.98,2.915a2.467,2.467,0,0,0,.85,1.992A3.266,3.266,0,0,0,384.287-2.065ZM404.546-4.2a2,2,0,0,0-.828-1.707,7.966,7.966,0,0,0-2.886-1.047,13.644,13.644,0,0,1-3.267-1.055,4.647,4.647,0,0,1-1.787-1.465A3.5,3.5,0,0,1,395.2-11.5a4.111,4.111,0,0,1,1.648-3.3,6.436,6.436,0,0,1,4.211-1.348,6.623,6.623,0,0,1,4.373,1.392,4.42,4.42,0,0,1,1.677,3.56h-2.725a2.446,2.446,0,0,0-.945-1.919,3.54,3.54,0,0,0-2.38-.806,3.7,3.7,0,0,0-2.314.645,2.029,2.029,0,0,0-.835,1.685,1.644,1.644,0,0,0,.776,1.479,9.552,9.552,0,0,0,2.805.952,14.616,14.616,0,0,1,3.289,1.084,4.8,4.8,0,0,1,1.868,1.516,3.728,3.728,0,0,1,.608,2.161,4.056,4.056,0,0,1-1.7,3.406A7.128,7.128,0,0,1,401.147.293a7.981,7.981,0,0,1-3.369-.674,5.48,5.48,0,0,1-2.292-1.882,4.537,4.537,0,0,1-.828-2.615h2.71a2.806,2.806,0,0,0,1.091,2.161,4.234,4.234,0,0,0,2.688.8,4.37,4.37,0,0,0,2.468-.623A1.913,1.913,0,0,0,404.546-4.2Z" transform="translate(269.554 4570.906)" fill="#09347b"/>
      <path id="Trazado_11168" data-name="Trazado 11168" d="M3.5-10.038l.083,1.16a3.5,3.5,0,0,1,2.885-1.345,2.913,2.913,0,0,1,2.375.937,4.372,4.372,0,0,1,.8,2.8V0H6.958V-6.42a1.739,1.739,0,0,0-.371-1.239,1.661,1.661,0,0,0-1.234-.385,1.844,1.844,0,0,0-1.7.965V0H.974V-10.038ZM17.683-1.021A3.362,3.362,0,0,1,14.937.186a3.171,3.171,0,0,1-2.463-.928,3.96,3.96,0,0,1-.867-2.718v-6.578h2.681v6.485q0,1.568,1.429,1.568a1.937,1.937,0,0,0,1.874-.946v-7.106h2.69V0H17.757Zm-1.2-13.229h2.922l-2.57,2.876h-2.18ZM26.478-1.976a1.759,1.759,0,0,0,1.206-.408,1.43,1.43,0,0,0,.482-1.085H30.68A3.439,3.439,0,0,1,30.124-1.6a3.673,3.673,0,0,1-1.5,1.317,4.689,4.689,0,0,1-2.1.469,4.358,4.358,0,0,1-3.4-1.368,5.415,5.415,0,0,1-1.243-3.781V-5.14a5.353,5.353,0,0,1,1.234-3.7,4.307,4.307,0,0,1,3.386-1.382,4.222,4.222,0,0,1,3.02,1.072A3.794,3.794,0,0,1,30.68-6.3H28.166a1.827,1.827,0,0,0-.482-1.266,1.613,1.613,0,0,0-1.225-.487,1.616,1.616,0,0,0-1.415.682,3.947,3.947,0,0,0-.478,2.213v.278a4,4,0,0,0,.473,2.227A1.636,1.636,0,0,0,26.478-1.976ZM35.041,0H32.35V-14.25h2.69Zm6.828.186a4.928,4.928,0,0,1-3.595-1.354,4.815,4.815,0,0,1-1.387-3.609v-.26a6.064,6.064,0,0,1,.584-2.7,4.289,4.289,0,0,1,1.656-1.837,4.648,4.648,0,0,1,2.445-.645,4.166,4.166,0,0,1,3.242,1.3A5.278,5.278,0,0,1,46-5.242v1.095H39.6a2.491,2.491,0,0,0,.784,1.577,2.37,2.37,0,0,0,1.656.594A2.894,2.894,0,0,0,44.466-3.1l1.317,1.475A4.025,4.025,0,0,1,44.151-.292,5.357,5.357,0,0,1,41.869.186Zm-.306-8.238a1.679,1.679,0,0,0-1.294.538,2.78,2.78,0,0,0-.635,1.54h3.729v-.213a1.982,1.982,0,0,0-.482-1.378A1.733,1.733,0,0,0,41.563-8.053ZM47.1-5.112a5.953,5.953,0,0,1,.575-2.663,4.211,4.211,0,0,1,1.656-1.809,4.831,4.831,0,0,1,2.51-.64A4.571,4.571,0,0,1,55.158-8.98,4.989,4.989,0,0,1,56.592-5.6l.019.687a5.247,5.247,0,0,1-1.29,3.706,4.482,4.482,0,0,1-3.46,1.4A4.5,4.5,0,0,1,48.4-1.206,5.339,5.339,0,0,1,47.1-4.991Zm2.681.195a3.742,3.742,0,0,0,.538,2.185,1.776,1.776,0,0,0,1.54.756,1.78,1.78,0,0,0,1.521-.747,4.1,4.1,0,0,0,.547-2.389,3.7,3.7,0,0,0-.547-2.171,1.78,1.78,0,0,0-1.54-.77,1.751,1.751,0,0,0-1.521.765A4.164,4.164,0,0,0,49.782-4.917Zm12.793-.176a6.049,6.049,0,0,1,1.053-3.739,3.417,3.417,0,0,1,2.881-1.392,3.074,3.074,0,0,1,2.421,1.095V-14.25h2.69V0H69.2l-.13-1.067A3.155,3.155,0,0,1,66.491.186a3.407,3.407,0,0,1-2.844-1.4A6.244,6.244,0,0,1,62.576-5.093Zm2.681.195a3.952,3.952,0,0,0,.492,2.162,1.6,1.6,0,0,0,1.429.751,1.794,1.794,0,0,0,1.753-1.048V-7A1.769,1.769,0,0,0,67.2-8.043Q65.257-8.043,65.257-4.9ZM78.319.186a4.928,4.928,0,0,1-3.595-1.354,4.815,4.815,0,0,1-1.387-3.609v-.26a6.064,6.064,0,0,1,.584-2.7,4.289,4.289,0,0,1,1.656-1.837,4.648,4.648,0,0,1,2.445-.645,4.166,4.166,0,0,1,3.242,1.3,5.278,5.278,0,0,1,1.183,3.683v1.095H76.056A2.491,2.491,0,0,0,76.84-2.57a2.37,2.37,0,0,0,1.656.594A2.894,2.894,0,0,0,80.917-3.1l1.317,1.475A4.025,4.025,0,0,1,80.6-.292,5.357,5.357,0,0,1,78.319.186Zm-.306-8.238a1.679,1.679,0,0,0-1.294.538,2.78,2.78,0,0,0-.635,1.54h3.729v-.213a1.982,1.982,0,0,0-.482-1.378A1.733,1.733,0,0,0,78.013-8.053ZM86.8,0h-2.69V-14.25H86.8Zm15.976-4.926a6.02,6.02,0,0,1-1.053,3.716,3.376,3.376,0,0,1-2.844,1.4A3.127,3.127,0,0,1,96.419-.872V3.859H93.738v-13.9h2.486l.093.983a3.151,3.151,0,0,1,2.542-1.169,3.4,3.4,0,0,1,2.885,1.373,6.183,6.183,0,0,1,1.03,3.785Zm-2.681-.195a3.951,3.951,0,0,0-.5-2.162,1.617,1.617,0,0,0-1.443-.761,1.756,1.756,0,0,0-1.735.965v4.11a1.786,1.786,0,0,0,1.753.993Q100.093-1.976,100.093-5.121Zm9.982-2.4a7.284,7.284,0,0,0-.965-.074,1.964,1.964,0,0,0-1.995,1.03V0h-2.681V-10.038h2.533l.074,1.2a2.484,2.484,0,0,1,2.236-1.382,2.809,2.809,0,0,1,.835.121ZM115.809.186a4.928,4.928,0,0,1-3.595-1.354,4.815,4.815,0,0,1-1.387-3.609v-.26a6.064,6.064,0,0,1,.584-2.7,4.289,4.289,0,0,1,1.656-1.837,4.648,4.648,0,0,1,2.445-.645,4.166,4.166,0,0,1,3.242,1.3,5.278,5.278,0,0,1,1.183,3.683v1.095h-6.392a2.491,2.491,0,0,0,.784,1.577,2.37,2.37,0,0,0,1.656.594A2.894,2.894,0,0,0,118.407-3.1l1.317,1.475a4.025,4.025,0,0,1-1.633,1.331A5.357,5.357,0,0,1,115.809.186ZM115.5-8.053a1.679,1.679,0,0,0-1.294.538,2.78,2.78,0,0,0-.635,1.54H117.3v-.213a1.982,1.982,0,0,0-.482-1.378A1.733,1.733,0,0,0,115.5-8.053Zm5.539,2.959a6.049,6.049,0,0,1,1.053-3.739,3.417,3.417,0,0,1,2.881-1.392A3.074,3.074,0,0,1,127.4-9.129V-14.25h2.69V0h-2.421l-.13-1.067A3.155,3.155,0,0,1,124.957.186a3.407,3.407,0,0,1-2.844-1.4A6.244,6.244,0,0,1,121.042-5.093Zm2.681.195a3.952,3.952,0,0,0,.492,2.162,1.6,1.6,0,0,0,1.429.751A1.794,1.794,0,0,0,127.4-3.034V-7a1.769,1.769,0,0,0-1.735-1.048Q123.723-8.043,123.723-4.9ZM134.995,0H132.3V-10.038h2.69Zm-2.848-12.636a1.32,1.32,0,0,1,.4-.993,1.516,1.516,0,0,1,1.1-.39,1.52,1.52,0,0,1,1.095.39,1.313,1.313,0,0,1,.408.993,1.316,1.316,0,0,1-.413,1,1.523,1.523,0,0,1-1.09.39,1.523,1.523,0,0,1-1.09-.39A1.316,1.316,0,0,1,132.146-12.636Zm9.231,10.66a1.759,1.759,0,0,0,1.206-.408,1.43,1.43,0,0,0,.482-1.085h2.514a3.439,3.439,0,0,1-.557,1.869,3.673,3.673,0,0,1-1.5,1.317,4.689,4.689,0,0,1-2.1.469,4.358,4.358,0,0,1-3.4-1.368,5.415,5.415,0,0,1-1.243-3.781V-5.14a5.353,5.353,0,0,1,1.234-3.7,4.307,4.307,0,0,1,3.386-1.382,4.222,4.222,0,0,1,3.02,1.072A3.794,3.794,0,0,1,145.58-6.3h-2.514a1.827,1.827,0,0,0-.482-1.266,1.613,1.613,0,0,0-1.225-.487,1.616,1.616,0,0,0-1.415.682,3.947,3.947,0,0,0-.478,2.213v.278a4,4,0,0,0,.473,2.227A1.636,1.636,0,0,0,141.377-1.976ZM152.928,0a2.977,2.977,0,0,1-.269-.9A3.244,3.244,0,0,1,150.126.186a3.564,3.564,0,0,1-2.445-.854,2.745,2.745,0,0,1-.969-2.152,2.837,2.837,0,0,1,1.183-2.449,5.837,5.837,0,0,1,3.419-.863h1.234v-.575a1.654,1.654,0,0,0-.357-1.113,1.405,1.405,0,0,0-1.127-.417A1.6,1.6,0,0,0,150-7.914a1.1,1.1,0,0,0-.385.891h-2.681a2.693,2.693,0,0,1,.538-1.614A3.557,3.557,0,0,1,148.994-9.8a5.545,5.545,0,0,1,2.208-.422,4.381,4.381,0,0,1,2.946.932,3.262,3.262,0,0,1,1.09,2.621v4.351a4.8,4.8,0,0,0,.4,2.162V0ZM150.71-1.865a2.309,2.309,0,0,0,1.095-.264,1.737,1.737,0,0,0,.742-.71V-4.564h-1q-2.013,0-2.143,1.392l-.009.158a1.073,1.073,0,0,0,.353.826A1.369,1.369,0,0,0,150.71-1.865Zm6.169-3.229a6.049,6.049,0,0,1,1.053-3.739,3.417,3.417,0,0,1,2.881-1.392,3.074,3.074,0,0,1,2.421,1.095V-14.25h2.69V0H163.5l-.13-1.067A3.155,3.155,0,0,1,160.795.186a3.407,3.407,0,0,1-2.844-1.4A6.244,6.244,0,0,1,156.88-5.093Zm2.681.195a3.952,3.952,0,0,0,.492,2.162,1.6,1.6,0,0,0,1.429.751,1.794,1.794,0,0,0,1.753-1.048V-7A1.769,1.769,0,0,0,161.5-8.043Q159.561-8.043,159.561-4.9Zm8.025-.213a5.953,5.953,0,0,1,.575-2.663,4.211,4.211,0,0,1,1.656-1.809,4.831,4.831,0,0,1,2.51-.64,4.571,4.571,0,0,1,3.317,1.243A4.989,4.989,0,0,1,177.077-5.6l.019.687a5.247,5.247,0,0,1-1.29,3.706,4.482,4.482,0,0,1-3.46,1.4,4.5,4.5,0,0,1-3.465-1.392,5.339,5.339,0,0,1-1.294-3.785Zm2.681.195a3.742,3.742,0,0,0,.538,2.185,1.776,1.776,0,0,0,1.54.756,1.78,1.78,0,0,0,1.521-.747,4.094,4.094,0,0,0,.547-2.389,3.7,3.7,0,0,0-.547-2.171,1.78,1.78,0,0,0-1.54-.77,1.751,1.751,0,0,0-1.521.765A4.164,4.164,0,0,0,170.267-4.917Z" transform="translate(332.131 4616.906)" fill="#26c179"/>
    </g>
  </g>
</svg>
