<svg xmlns="http://www.w3.org/2000/svg" width="744" height="78" viewBox="0 0 744 78">
  <g id="Grupo_13661" data-name="Grupo 13661" transform="translate(-233 -7450)">
    <g id="Grupo_13630" data-name="Grupo 13630" transform="translate(0 -87)">
      <rect id="Rectángulo_2945" data-name="Rectángulo 2945" width="177" height="78" rx="5" transform="translate(233 7537)" fill="#f0f0f0"/>
      <path id="Trazado_11229" data-name="Trazado 11229" d="M13.245-6.482a7.921,7.921,0,0,1-1.385,4.889A4.442,4.442,0,0,1,8.118.244,4.115,4.115,0,0,1,4.883-1.147V5.078H1.355V-13.208H4.626l.122,1.294a4.146,4.146,0,0,1,3.345-1.538,4.472,4.472,0,0,1,3.8,1.807,8.136,8.136,0,0,1,1.355,4.98ZM9.717-6.738a5.2,5.2,0,0,0-.653-2.844,2.127,2.127,0,0,0-1.9-1,2.31,2.31,0,0,0-2.283,1.27v5.408A2.349,2.349,0,0,0,7.19-2.6Q9.717-2.6,9.717-6.738ZM22.852-9.9a9.584,9.584,0,0,0-1.27-.1,2.584,2.584,0,0,0-2.625,1.355V0H15.43V-13.208h3.333l.1,1.575A3.269,3.269,0,0,1,21.8-13.452a3.7,3.7,0,0,1,1.1.159ZM30.4.244a6.484,6.484,0,0,1-4.73-1.782A6.335,6.335,0,0,1,23.84-6.287v-.342a7.979,7.979,0,0,1,.769-3.558A5.644,5.644,0,0,1,26.788-12.6,6.116,6.116,0,0,1,30-13.452a5.482,5.482,0,0,1,4.266,1.709A6.944,6.944,0,0,1,35.828-6.9v1.44H27.417a3.277,3.277,0,0,0,1.031,2.075,3.118,3.118,0,0,0,2.179.781,3.808,3.808,0,0,0,3.186-1.477l1.733,1.941A5.3,5.3,0,0,1,33.4-.385,7.049,7.049,0,0,1,30.4.244Zm-.4-10.84a2.209,2.209,0,0,0-1.7.708,3.658,3.658,0,0,0-.836,2.026h4.907v-.281a2.608,2.608,0,0,0-.635-1.813A2.28,2.28,0,0,0,29.993-10.6ZM56.88-7.947H44.648V-9.79H56.88ZM69.3-13.208V1.526q0,3.809-3.455,3.809a4.19,4.19,0,0,1-1.379-.22V3.308a4.366,4.366,0,0,0,1.025.1A1.535,1.535,0,0,0,66.644,3a2.021,2.021,0,0,0,.4-1.422V-13.208Zm-2.49-3.5a1.354,1.354,0,0,1,.336-.922,1.234,1.234,0,0,1,.983-.385,1.28,1.28,0,0,1,1,.378,1.334,1.334,0,0,1,.342.928,1.29,1.29,0,0,1-.342.916,1.3,1.3,0,0,1-1,.366,1.263,1.263,0,0,1-.989-.366A1.318,1.318,0,0,1,66.809-16.711ZM81.091-1.306a4.8,4.8,0,0,1-3.87,1.55A4.106,4.106,0,0,1,74.005-.983a5.31,5.31,0,0,1-1.117-3.632v-8.594h2.258v8.533q0,3,2.441,3A3.38,3.38,0,0,0,81.03-3.6v-9.607h2.258V0H81.14ZM89.172,0H86.914V-13.208h2.258ZM86.731-16.711a1.348,1.348,0,0,1,.336-.928,1.26,1.26,0,0,1,.995-.378,1.28,1.28,0,0,1,1,.378,1.334,1.334,0,0,1,.342.928,1.29,1.29,0,0,1-.342.916,1.3,1.3,0,0,1-1,.366,1.283,1.283,0,0,1-.995-.366A1.3,1.3,0,0,1,86.731-16.711ZM98.083-1.6a3.253,3.253,0,0,0,2.112-.732,2.577,2.577,0,0,0,1-1.831h2.136A4.1,4.1,0,0,1,102.551-2a5.145,5.145,0,0,1-1.923,1.636,5.548,5.548,0,0,1-2.545.61,5.441,5.441,0,0,1-4.291-1.8A7.171,7.171,0,0,1,92.2-6.482V-6.86a7.952,7.952,0,0,1,.708-3.43,5.393,5.393,0,0,1,2.032-2.332,5.774,5.774,0,0,1,3.131-.83,5.3,5.3,0,0,1,3.693,1.331,4.755,4.755,0,0,1,1.569,3.455H101.2a3.112,3.112,0,0,0-.97-2.106,3.019,3.019,0,0,0-2.155-.824A3.161,3.161,0,0,0,95.4-10.358a5.819,5.819,0,0,0-.946,3.583v.427a5.7,5.7,0,0,0,.94,3.516A3.176,3.176,0,0,0,98.083-1.6ZM108.325,0h-2.258V-13.208h2.258Zm-2.441-16.711a1.348,1.348,0,0,1,.336-.928,1.26,1.26,0,0,1,.995-.378,1.28,1.28,0,0,1,1,.378,1.334,1.334,0,0,1,.342.928,1.29,1.29,0,0,1-.342.916,1.3,1.3,0,0,1-1,.366,1.283,1.283,0,0,1-.995-.366A1.3,1.3,0,0,1,105.884-16.711Zm5.457,9.985a7.8,7.8,0,0,1,.763-3.491,5.691,5.691,0,0,1,2.124-2.393,5.782,5.782,0,0,1,3.107-.842,5.57,5.57,0,0,1,4.364,1.868,7.186,7.186,0,0,1,1.666,4.968v.159A7.869,7.869,0,0,1,122.626-3,5.608,5.608,0,0,1,120.514-.61a5.848,5.848,0,0,1-3.156.854,5.556,5.556,0,0,1-4.352-1.868,7.149,7.149,0,0,1-1.666-4.944Zm2.271.269A5.65,5.65,0,0,0,114.63-2.93,3.262,3.262,0,0,0,117.358-1.6a3.242,3.242,0,0,0,2.734-1.349,6.179,6.179,0,0,0,1.013-3.778,5.641,5.641,0,0,0-1.031-3.522,3.279,3.279,0,0,0-2.74-1.349,3.243,3.243,0,0,0-2.7,1.331A6.133,6.133,0,0,0,113.611-6.458Z" transform="translate(260 7584)" fill="#02255f"/>
    </g>
    <g id="Grupo_13631" data-name="Grupo 13631" transform="translate(0 -87)">
      <rect id="Rectángulo_2946" data-name="Rectángulo 2946" width="177" height="78" rx="5" transform="translate(420 7537)" fill="#f0f0f0"/>
      <path id="Trazado_11230" data-name="Trazado 11230" d="M7.434.244A6.484,6.484,0,0,1,2.7-1.538,6.335,6.335,0,0,1,.879-6.287v-.342a7.979,7.979,0,0,1,.769-3.558A5.644,5.644,0,0,1,3.827-12.6a6.116,6.116,0,0,1,3.217-.848,5.482,5.482,0,0,1,4.266,1.709A6.944,6.944,0,0,1,12.866-6.9v1.44H4.456A3.277,3.277,0,0,0,5.487-3.381,3.118,3.118,0,0,0,7.666-2.6a3.808,3.808,0,0,0,3.186-1.477l1.733,1.941A5.3,5.3,0,0,1,10.437-.385,7.049,7.049,0,0,1,7.434.244Zm-.4-10.84a2.209,2.209,0,0,0-1.7.708,3.658,3.658,0,0,0-.836,2.026H9.4v-.281a2.608,2.608,0,0,0-.635-1.813A2.28,2.28,0,0,0,7.031-10.6ZM26.758-6.482a7.921,7.921,0,0,1-1.385,4.889A4.442,4.442,0,0,1,21.631.244,4.115,4.115,0,0,1,18.4-1.147V5.078H14.868V-13.208H18.14l.122,1.294a4.146,4.146,0,0,1,3.345-1.538,4.472,4.472,0,0,1,3.8,1.807,8.136,8.136,0,0,1,1.355,4.98ZM23.23-6.738a5.2,5.2,0,0,0-.653-2.844,2.127,2.127,0,0,0-1.9-1A2.31,2.31,0,0,0,18.4-9.314v5.408A2.349,2.349,0,0,0,20.7-2.6Q23.23-2.6,23.23-6.738ZM32.666,0h-3.54V-13.208h3.54ZM28.918-16.626a1.737,1.737,0,0,1,.531-1.306,2,2,0,0,1,1.447-.513,2,2,0,0,1,1.44.513,1.727,1.727,0,0,1,.537,1.306,1.732,1.732,0,0,1-.543,1.318,2,2,0,0,1-1.434.513,2,2,0,0,1-1.434-.513A1.732,1.732,0,0,1,28.918-16.626Zm25.7,8.679H42.39V-9.79H54.622ZM64.16-6.714A7.737,7.737,0,0,1,65.6-11.6a4.555,4.555,0,0,1,3.772-1.849,4.581,4.581,0,0,1,3.674,1.587V-18.75h2.258V0H73.23l-.11-1.416A4.6,4.6,0,0,1,69.348.244a4.511,4.511,0,0,1-3.741-1.88A7.825,7.825,0,0,1,64.16-6.543Zm2.258.256a5.858,5.858,0,0,0,.928,3.516,3,3,0,0,0,2.563,1.27A3.3,3.3,0,0,0,73.047-3.6V-9.668a3.32,3.32,0,0,0-3.113-1.868,3.013,3.013,0,0,0-2.588,1.282A6.45,6.45,0,0,0,66.418-6.458ZM84.29.244a5.771,5.771,0,0,1-4.37-1.764,6.547,6.547,0,0,1-1.685-4.718v-.415a7.926,7.926,0,0,1,.751-3.51,5.856,5.856,0,0,1,2.1-2.417,5.279,5.279,0,0,1,2.924-.873,4.947,4.947,0,0,1,4,1.7A7.346,7.346,0,0,1,89.441-6.9v.94H80.493A4.7,4.7,0,0,0,81.635-2.8a3.588,3.588,0,0,0,2.777,1.2,3.933,3.933,0,0,0,2.026-.488,5.091,5.091,0,0,0,1.453-1.294L89.27-2.307A5.546,5.546,0,0,1,84.29.244ZM84.009-11.6a3.012,3.012,0,0,0-2.295.995,4.836,4.836,0,0,0-1.147,2.789h6.616v-.171a4.3,4.3,0,0,0-.928-2.667A2.836,2.836,0,0,0,84.009-11.6Zm14.429.415a6.767,6.767,0,0,0-1.111-.085,2.976,2.976,0,0,0-3.015,1.892V0H92.053V-13.208h2.2l.037,1.526a3.516,3.516,0,0,1,3.149-1.77,2.307,2.307,0,0,1,1,.171Zm4.2-2.026.061,1.465a4.878,4.878,0,0,1,3.918-1.709,3.776,3.776,0,0,1,3.772,2.124,5,5,0,0,1,1.715-1.538,5.066,5.066,0,0,1,2.5-.586q4.346,0,4.419,4.6V0H116.76V-8.716a3.033,3.033,0,0,0-.647-2.118,2.849,2.849,0,0,0-2.173-.7,3,3,0,0,0-2.087.751,3.046,3.046,0,0,0-.964,2.02V0h-2.271V-8.655q0-2.881-2.82-2.881a3.021,3.021,0,0,0-3.04,1.892V0H100.5V-13.208ZM124.878,0H122.62V-13.208h2.258Zm-2.441-16.711a1.348,1.348,0,0,1,.336-.928,1.26,1.26,0,0,1,.995-.378,1.28,1.28,0,0,1,1,.378,1.334,1.334,0,0,1,.342.928,1.29,1.29,0,0,1-.342.916,1.3,1.3,0,0,1-1,.366,1.283,1.283,0,0,1-.995-.366A1.3,1.3,0,0,1,122.437-16.711ZM136.182-3.5a1.663,1.663,0,0,0-.69-1.422,6.639,6.639,0,0,0-2.4-.873,11.37,11.37,0,0,1-2.722-.879A3.873,3.873,0,0,1,128.876-7.9a2.92,2.92,0,0,1-.482-1.685,3.426,3.426,0,0,1,1.373-2.747,5.363,5.363,0,0,1,3.51-1.123,5.519,5.519,0,0,1,3.644,1.16,3.683,3.683,0,0,1,1.4,2.966h-2.271a2.039,2.039,0,0,0-.787-1.6,2.95,2.95,0,0,0-1.984-.671,3.087,3.087,0,0,0-1.929.537,1.691,1.691,0,0,0-.7,1.4,1.37,1.37,0,0,0,.647,1.233,7.96,7.96,0,0,0,2.338.793,12.18,12.18,0,0,1,2.74.9,4,4,0,0,1,1.556,1.263,3.106,3.106,0,0,1,.507,1.8,3.38,3.38,0,0,1-1.416,2.838A5.94,5.94,0,0,1,133.35.244a6.651,6.651,0,0,1-2.808-.562,4.566,4.566,0,0,1-1.91-1.569,3.781,3.781,0,0,1-.69-2.179H130.2a2.338,2.338,0,0,0,.909,1.8,3.528,3.528,0,0,0,2.24.665,3.642,3.642,0,0,0,2.057-.519A1.594,1.594,0,0,0,136.182-3.5Z" transform="translate(439 7584)" fill="#02255f"/>
    </g>
    <g id="Grupo_13632" data-name="Grupo 13632" transform="translate(0 -87)">
      <rect id="Rectángulo_2947" data-name="Rectángulo 2947" width="177" height="78" rx="5" transform="translate(612 7537)" fill="#f0f0f0"/>
      <path id="Trazado_11231" data-name="Trazado 11231" d="M8.508-3.65a1.137,1.137,0,0,0-.641-1.019,7.28,7.28,0,0,0-2.057-.665Q1.1-6.323,1.1-9.338a3.629,3.629,0,0,1,1.459-2.936,5.884,5.884,0,0,1,3.815-1.178,6.333,6.333,0,0,1,4.022,1.184A3.732,3.732,0,0,1,11.9-9.192H8.374a1.707,1.707,0,0,0-.488-1.251,2.066,2.066,0,0,0-1.526-.494,2.111,2.111,0,0,0-1.379.4,1.272,1.272,0,0,0-.488,1.025,1.087,1.087,0,0,0,.555.946,5.714,5.714,0,0,0,1.874.623,15.3,15.3,0,0,1,2.222.592q2.8,1.025,2.8,3.552a3.445,3.445,0,0,1-1.55,2.924,6.688,6.688,0,0,1-4,1.117A6.985,6.985,0,0,1,3.436-.348a4.946,4.946,0,0,1-2.02-1.624A3.772,3.772,0,0,1,.684-4.2H4.028a1.842,1.842,0,0,0,.7,1.44,2.76,2.76,0,0,0,1.733.5A2.554,2.554,0,0,0,7.99-2.643,1.2,1.2,0,0,0,8.508-3.65ZM22.119-1.343A4.424,4.424,0,0,1,18.506.244,4.172,4.172,0,0,1,15.265-.977a5.211,5.211,0,0,1-1.141-3.577v-8.655h3.528v8.533q0,2.063,1.88,2.063A2.548,2.548,0,0,0,22-3.857v-9.351h3.54V0h-3.32ZM40.1-6.482a8,8,0,0,1-1.355,4.95A4.488,4.488,0,0,1,34.961.244,4.124,4.124,0,0,1,31.531-1.4L31.372,0H28.2V-18.75h3.528v6.726a4.018,4.018,0,0,1,3.21-1.428,4.525,4.525,0,0,1,3.79,1.776,8.009,8.009,0,0,1,1.373,5Zm-3.528-.256a5.254,5.254,0,0,0-.635-2.924,2.146,2.146,0,0,0-1.892-.922A2.327,2.327,0,0,0,31.726-9.2v5.212A2.359,2.359,0,0,0,34.07-2.6a2.178,2.178,0,0,0,2.246-1.685A8.69,8.69,0,0,0,36.572-6.738ZM61.323-7.947H49.092V-9.79H61.323ZM79.1-3.5a1.662,1.662,0,0,0-.69-1.422,6.639,6.639,0,0,0-2.4-.873,11.37,11.37,0,0,1-2.722-.879A3.873,3.873,0,0,1,71.8-7.9a2.92,2.92,0,0,1-.482-1.685,3.426,3.426,0,0,1,1.373-2.747,5.363,5.363,0,0,1,3.51-1.123,5.519,5.519,0,0,1,3.644,1.16,3.683,3.683,0,0,1,1.4,2.966H78.967a2.039,2.039,0,0,0-.787-1.6A2.95,2.95,0,0,0,76.2-11.6a3.088,3.088,0,0,0-1.929.537,1.691,1.691,0,0,0-.7,1.4,1.37,1.37,0,0,0,.647,1.233,7.96,7.96,0,0,0,2.338.793,12.18,12.18,0,0,1,2.74.9,4,4,0,0,1,1.556,1.263,3.106,3.106,0,0,1,.507,1.8A3.38,3.38,0,0,1,79.944-.824,5.94,5.94,0,0,1,76.27.244a6.651,6.651,0,0,1-2.808-.562,4.566,4.566,0,0,1-1.91-1.569,3.781,3.781,0,0,1-.69-2.179H73.12a2.338,2.338,0,0,0,.909,1.8,3.528,3.528,0,0,0,2.24.665,3.642,3.642,0,0,0,2.057-.519A1.594,1.594,0,0,0,79.1-3.5Zm13.354,2.2a4.8,4.8,0,0,1-3.87,1.55A4.106,4.106,0,0,1,85.37-.983a5.31,5.31,0,0,1-1.117-3.632v-8.594h2.258v8.533q0,3,2.441,3A3.38,3.38,0,0,0,92.4-3.6v-9.607h2.258V0H92.5ZM103.564.244a5.771,5.771,0,0,1-4.37-1.764A6.547,6.547,0,0,1,97.51-6.238v-.415a7.926,7.926,0,0,1,.751-3.51,5.856,5.856,0,0,1,2.1-2.417,5.279,5.279,0,0,1,2.924-.873,4.947,4.947,0,0,1,4,1.7A7.346,7.346,0,0,1,108.716-6.9v.94H99.768A4.7,4.7,0,0,0,100.909-2.8a3.588,3.588,0,0,0,2.777,1.2,3.933,3.933,0,0,0,2.026-.488,5.091,5.091,0,0,0,1.453-1.294l1.379,1.074A5.546,5.546,0,0,1,103.564.244ZM103.284-11.6a3.012,3.012,0,0,0-2.295.995,4.836,4.836,0,0,0-1.147,2.789h6.616v-.171a4.3,4.3,0,0,0-.928-2.667A2.836,2.836,0,0,0,103.284-11.6ZM113.782,0h-2.258V-18.75h2.258ZM116.8-6.726a7.8,7.8,0,0,1,.763-3.491,5.691,5.691,0,0,1,2.124-2.393,5.782,5.782,0,0,1,3.107-.842,5.57,5.57,0,0,1,4.364,1.868,7.186,7.186,0,0,1,1.666,4.968v.159A7.869,7.869,0,0,1,128.082-3,5.608,5.608,0,0,1,125.97-.61a5.848,5.848,0,0,1-3.156.854,5.556,5.556,0,0,1-4.352-1.868A7.149,7.149,0,0,1,116.8-6.567Zm2.271.269a5.65,5.65,0,0,0,1.019,3.528A3.262,3.262,0,0,0,122.815-1.6a3.242,3.242,0,0,0,2.734-1.349,6.179,6.179,0,0,0,1.013-3.778,5.641,5.641,0,0,0-1.031-3.522,3.279,3.279,0,0,0-2.74-1.349,3.243,3.243,0,0,0-2.7,1.331A6.133,6.133,0,0,0,119.067-6.458Z" transform="translate(636 7584)" fill="#02255f"/>
    </g>
    <g id="Grupo_13633" data-name="Grupo 13633" transform="translate(0 -87)">
      <rect id="Rectángulo_2948" data-name="Rectángulo 2948" width="177" height="78" rx="5" transform="translate(800 7537)" fill="#f0f0f0"/>
      <path id="Trazado_11232" data-name="Trazado 11232" d="M13.245-6.482a7.921,7.921,0,0,1-1.385,4.889A4.442,4.442,0,0,1,8.118.244,4.115,4.115,0,0,1,4.883-1.147V5.078H1.355V-13.208H4.626l.122,1.294a4.146,4.146,0,0,1,3.345-1.538,4.472,4.472,0,0,1,3.8,1.807,8.136,8.136,0,0,1,1.355,4.98ZM9.717-6.738a5.2,5.2,0,0,0-.653-2.844,2.127,2.127,0,0,0-1.9-1,2.31,2.31,0,0,0-2.283,1.27v5.408A2.349,2.349,0,0,0,7.19-2.6Q9.717-2.6,9.717-6.738ZM21.509.244a6.484,6.484,0,0,1-4.73-1.782,6.335,6.335,0,0,1-1.825-4.749v-.342a7.979,7.979,0,0,1,.769-3.558A5.644,5.644,0,0,1,17.9-12.6a6.116,6.116,0,0,1,3.217-.848,5.482,5.482,0,0,1,4.266,1.709A6.944,6.944,0,0,1,26.941-6.9v1.44H18.53a3.277,3.277,0,0,0,1.031,2.075,3.118,3.118,0,0,0,2.179.781,3.808,3.808,0,0,0,3.186-1.477L26.66-2.136A5.3,5.3,0,0,1,24.512-.385,7.049,7.049,0,0,1,21.509.244Zm-.4-10.84a2.209,2.209,0,0,0-1.7.708,3.658,3.658,0,0,0-.836,2.026h4.907v-.281a2.608,2.608,0,0,0-.635-1.813A2.28,2.28,0,0,0,21.106-10.6Zm15.259.7A9.584,9.584,0,0,0,35.1-10a2.584,2.584,0,0,0-2.625,1.355V0H28.943V-13.208h3.333l.1,1.575a3.269,3.269,0,0,1,2.942-1.819,3.7,3.7,0,0,1,1.1.159ZM41.785,0h-3.54V-13.208h3.54ZM40.531-17.973c.271-.47,1.546-.853,1.9-1.194s0,1.426,0,1.955-.561.906-.923,1.248-.9,1.169-1.494,1.169-.494-1.464-.352-1.983S40.26-17.5,40.531-17.973ZM63.74-7.947H51.509V-9.79H63.74Zm12.212-5.261.061,1.465a4.878,4.878,0,0,1,3.918-1.709A3.776,3.776,0,0,1,83.7-11.328a5,5,0,0,1,1.715-1.538,5.066,5.066,0,0,1,2.5-.586q4.346,0,4.419,4.6V0H90.076V-8.716a3.033,3.033,0,0,0-.647-2.118,2.849,2.849,0,0,0-2.173-.7,3,3,0,0,0-2.087.751,3.046,3.046,0,0,0-.964,2.02V0H81.934V-8.655q0-2.881-2.82-2.881a3.021,3.021,0,0,0-3.04,1.892V0H73.816V-13.208ZM101.221.244a5.771,5.771,0,0,1-4.37-1.764,6.547,6.547,0,0,1-1.685-4.718v-.415a7.926,7.926,0,0,1,.751-3.51,5.856,5.856,0,0,1,2.1-2.417,5.279,5.279,0,0,1,2.924-.873,4.947,4.947,0,0,1,4,1.7A7.346,7.346,0,0,1,106.372-6.9v.94H97.424A4.7,4.7,0,0,0,98.566-2.8a3.588,3.588,0,0,0,2.777,1.2,3.933,3.933,0,0,0,2.026-.488,5.091,5.091,0,0,0,1.453-1.294L106.2-2.307A5.546,5.546,0,0,1,101.221.244ZM100.94-11.6a3.012,3.012,0,0,0-2.295.995A4.836,4.836,0,0,0,97.5-7.812h6.616v-.171a4.3,4.3,0,0,0-.928-2.667A2.836,2.836,0,0,0,100.94-11.6Zm11.108-4.81v3.2h2.466v1.746h-2.466v8.191a1.829,1.829,0,0,0,.33,1.19,1.388,1.388,0,0,0,1.123.4,5.468,5.468,0,0,0,1.074-.146V0a6.547,6.547,0,0,1-1.733.244,2.812,2.812,0,0,1-2.283-.916,3.933,3.933,0,0,1-.769-2.6v-8.191h-2.4v-1.746h2.4v-3.2Zm11.487,5.225a6.767,6.767,0,0,0-1.111-.085,2.976,2.976,0,0,0-3.015,1.892V0h-2.258V-13.208h2.2l.037,1.526a3.516,3.516,0,0,1,3.149-1.77,2.307,2.307,0,0,1,1,.171Zm1.233,4.456a7.8,7.8,0,0,1,.763-3.491,5.691,5.691,0,0,1,2.124-2.393,5.782,5.782,0,0,1,3.107-.842,5.57,5.57,0,0,1,4.364,1.868,7.186,7.186,0,0,1,1.666,4.968v.159A7.869,7.869,0,0,1,136.053-3,5.608,5.608,0,0,1,133.942-.61a5.848,5.848,0,0,1-3.156.854,5.556,5.556,0,0,1-4.352-1.868,7.149,7.149,0,0,1-1.666-4.944Zm2.271.269a5.65,5.65,0,0,0,1.019,3.528A3.262,3.262,0,0,0,130.786-1.6a3.242,3.242,0,0,0,2.734-1.349,6.179,6.179,0,0,0,1.013-3.778,5.641,5.641,0,0,0-1.031-3.522,3.279,3.279,0,0,0-2.74-1.349,3.243,3.243,0,0,0-2.7,1.331A6.133,6.133,0,0,0,127.039-6.458Z" transform="translate(821 7584)" fill="#02255f"/>
    </g>
  </g>
</svg>
