<svg xmlns="http://www.w3.org/2000/svg" width="475.282" height="338.204" viewBox="0 0 475.282 338.204">
  <g id="Grupo_14561" data-name="Grupo 14561" transform="translate(-692.718 -6259.796)">
    <g id="Grupo_13611" data-name="Grupo 13611" transform="translate(0 -51)">
      <g id="Grupo_13606" data-name="Grupo 13606" transform="translate(0 -20)">
        <path id="Trazado_10627" data-name="Trazado 10627" d="M-.323,0l309.5,6.944L307.724,57-.635,46.309Z" transform="matrix(0.999, -0.035, 0.035, 0.999, 832.025, 6341.586)" fill="#e69bf4"/>
        <path id="Trazado_11185" data-name="Trazado 11185" d="M5.2-1.976a1.759,1.759,0,0,0,1.206-.408A1.43,1.43,0,0,0,6.893-3.47H9.407A3.439,3.439,0,0,1,8.851-1.6a3.673,3.673,0,0,1-1.5,1.317,4.689,4.689,0,0,1-2.1.469,4.358,4.358,0,0,1-3.4-1.368A5.415,5.415,0,0,1,.612-4.963V-5.14a5.353,5.353,0,0,1,1.234-3.7,4.307,4.307,0,0,1,3.386-1.382,4.222,4.222,0,0,1,3.02,1.072A3.794,3.794,0,0,1,9.407-6.3H6.893a1.827,1.827,0,0,0-.482-1.266,1.613,1.613,0,0,0-1.225-.487,1.616,1.616,0,0,0-1.415.682,3.947,3.947,0,0,0-.478,2.213v.278a4,4,0,0,0,.473,2.227A1.636,1.636,0,0,0,5.2-1.976Zm5.316-3.136A5.953,5.953,0,0,1,11.1-7.774a4.211,4.211,0,0,1,1.656-1.809,4.831,4.831,0,0,1,2.51-.64A4.571,4.571,0,0,1,18.578-8.98,4.989,4.989,0,0,1,20.011-5.6l.019.687a5.247,5.247,0,0,1-1.29,3.706,4.482,4.482,0,0,1-3.46,1.4,4.5,4.5,0,0,1-3.465-1.392,5.339,5.339,0,0,1-1.294-3.785Zm2.681.195a3.742,3.742,0,0,0,.538,2.185,1.776,1.776,0,0,0,1.54.756A1.78,1.78,0,0,0,16.8-2.723a4.1,4.1,0,0,0,.547-2.389A3.7,3.7,0,0,0,16.8-7.283a1.78,1.78,0,0,0-1.54-.77,1.751,1.751,0,0,0-1.521.765A4.164,4.164,0,0,0,13.2-4.917ZM24.2-10.038l.083,1.123a3.528,3.528,0,0,1,2.885-1.308,2.677,2.677,0,0,1,2.663,1.531,3.447,3.447,0,0,1,3.015-1.531,2.994,2.994,0,0,1,2.431.951,4.371,4.371,0,0,1,.8,2.862V0H33.38V-6.4a1.911,1.911,0,0,0-.334-1.248,1.48,1.48,0,0,0-1.178-.394,1.673,1.673,0,0,0-1.67,1.15L30.207,0H27.526V-6.392a1.888,1.888,0,0,0-.343-1.262,1.5,1.5,0,0,0-1.169-.39,1.738,1.738,0,0,0-1.651.946V0H21.681V-10.038ZM47.166-4.926a6.02,6.02,0,0,1-1.053,3.716A3.376,3.376,0,0,1,43.27.186,3.127,3.127,0,0,1,40.811-.872V3.859H38.13v-13.9h2.486l.093.983a3.151,3.151,0,0,1,2.542-1.169,3.4,3.4,0,0,1,2.885,1.373,6.183,6.183,0,0,1,1.03,3.785Zm-2.681-.195a3.951,3.951,0,0,0-.5-2.162,1.617,1.617,0,0,0-1.443-.761,1.756,1.756,0,0,0-1.735.965v4.11a1.786,1.786,0,0,0,1.753.993Q44.485-1.976,44.485-5.121ZM51.656,0h-2.69V-14.25h2.69Zm6.828.186a4.928,4.928,0,0,1-3.595-1.354A4.815,4.815,0,0,1,53.5-4.778v-.26a6.064,6.064,0,0,1,.584-2.7,4.289,4.289,0,0,1,1.656-1.837,4.648,4.648,0,0,1,2.445-.645,4.166,4.166,0,0,1,3.242,1.3,5.278,5.278,0,0,1,1.183,3.683v1.095H56.221A2.491,2.491,0,0,0,57-2.57a2.37,2.37,0,0,0,1.656.594A2.894,2.894,0,0,0,61.082-3.1L62.4-1.624A4.025,4.025,0,0,1,60.767-.292,5.357,5.357,0,0,1,58.484.186Zm-.306-8.238a1.679,1.679,0,0,0-1.294.538,2.78,2.78,0,0,0-.635,1.54h3.729v-.213A1.982,1.982,0,0,0,59.5-7.566,1.733,1.733,0,0,0,58.178-8.053Zm8.47-1.985.083,1.123a3.528,3.528,0,0,1,2.885-1.308A2.677,2.677,0,0,1,72.28-8.693a3.447,3.447,0,0,1,3.015-1.531,2.994,2.994,0,0,1,2.431.951,4.371,4.371,0,0,1,.8,2.862V0h-2.69V-6.4A1.911,1.911,0,0,0,75.5-7.649a1.48,1.48,0,0,0-1.178-.394,1.673,1.673,0,0,0-1.67,1.15L72.66,0H69.979V-6.392a1.888,1.888,0,0,0-.343-1.262,1.5,1.5,0,0,0-1.169-.39,1.738,1.738,0,0,0-1.651.946V0H64.134V-10.038ZM85.2.186a4.928,4.928,0,0,1-3.595-1.354,4.815,4.815,0,0,1-1.387-3.609v-.26a6.064,6.064,0,0,1,.584-2.7,4.289,4.289,0,0,1,1.656-1.837,4.648,4.648,0,0,1,2.445-.645,4.166,4.166,0,0,1,3.242,1.3,5.278,5.278,0,0,1,1.183,3.683v1.095H82.939a2.491,2.491,0,0,0,.784,1.577,2.37,2.37,0,0,0,1.656.594A2.894,2.894,0,0,0,87.8-3.1l1.317,1.475A4.025,4.025,0,0,1,87.485-.292,5.357,5.357,0,0,1,85.2.186ZM84.9-8.053a1.679,1.679,0,0,0-1.294.538,2.78,2.78,0,0,0-.635,1.54H86.7v-.213a1.982,1.982,0,0,0-.482-1.378A1.733,1.733,0,0,0,84.9-8.053Zm8.424-1.985.083,1.16a3.5,3.5,0,0,1,2.885-1.345,2.913,2.913,0,0,1,2.375.937,4.372,4.372,0,0,1,.8,2.8V0H96.781V-6.42a1.739,1.739,0,0,0-.371-1.239,1.661,1.661,0,0,0-1.234-.385,1.844,1.844,0,0,0-1.7.965V0H90.8V-10.038ZM104.7-12.506v2.468h1.716v1.967H104.7v5.01a1.2,1.2,0,0,0,.213.8,1.072,1.072,0,0,0,.816.241,4.276,4.276,0,0,0,.789-.065V-.056A5.52,5.52,0,0,1,104.9.186a2.56,2.56,0,0,1-2.876-2.848V-8.071h-1.466v-1.967h1.466v-2.468Zm2.514,7.394a5.953,5.953,0,0,1,.575-2.663,4.211,4.211,0,0,1,1.656-1.809,4.831,4.831,0,0,1,2.51-.64,4.571,4.571,0,0,1,3.317,1.243A4.989,4.989,0,0,1,116.709-5.6l.019.687a5.247,5.247,0,0,1-1.29,3.706,4.482,4.482,0,0,1-3.46,1.4,4.5,4.5,0,0,1-3.465-1.392,5.339,5.339,0,0,1-1.294-3.785Zm2.681.195a3.742,3.742,0,0,0,.538,2.185,1.776,1.776,0,0,0,1.54.756,1.78,1.78,0,0,0,1.521-.747,4.1,4.1,0,0,0,.547-2.389,3.7,3.7,0,0,0-.547-2.171,1.78,1.78,0,0,0-1.54-.77,1.751,1.751,0,0,0-1.521.765A4.164,4.164,0,0,0,109.9-4.917Zm17.386,2.941a1.759,1.759,0,0,0,1.206-.408,1.43,1.43,0,0,0,.482-1.085h2.514a3.439,3.439,0,0,1-.557,1.869,3.673,3.673,0,0,1-1.5,1.317,4.689,4.689,0,0,1-2.1.469,4.358,4.358,0,0,1-3.4-1.368,5.415,5.415,0,0,1-1.243-3.781V-5.14a5.353,5.353,0,0,1,1.234-3.7,4.307,4.307,0,0,1,3.386-1.382,4.222,4.222,0,0,1,3.02,1.072A3.794,3.794,0,0,1,131.488-6.3h-2.514a1.827,1.827,0,0,0-.482-1.266,1.613,1.613,0,0,0-1.225-.487,1.616,1.616,0,0,0-1.415.682,3.947,3.947,0,0,0-.478,2.213v.278a4,4,0,0,0,.473,2.227A1.636,1.636,0,0,0,127.285-1.976ZM135.848,0h-2.69V-10.038h2.69ZM133-12.636a1.32,1.32,0,0,1,.4-.993,1.516,1.516,0,0,1,1.1-.39,1.52,1.52,0,0,1,1.095.39,1.313,1.313,0,0,1,.408.993,1.316,1.316,0,0,1-.413,1,1.523,1.523,0,0,1-1.09.39,1.523,1.523,0,0,1-1.09-.39A1.316,1.316,0,0,1,133-12.636Zm10.7,5.112a7.284,7.284,0,0,0-.965-.074,1.964,1.964,0,0,0-1.995,1.03V0h-2.681V-10.038h2.533l.074,1.2a2.484,2.484,0,0,1,2.236-1.382,2.809,2.809,0,0,1,.835.121Zm5.288,5.548a1.759,1.759,0,0,0,1.206-.408,1.43,1.43,0,0,0,.482-1.085h2.514a3.439,3.439,0,0,1-.557,1.869,3.673,3.673,0,0,1-1.5,1.317,4.689,4.689,0,0,1-2.1.469,4.358,4.358,0,0,1-3.4-1.368,5.415,5.415,0,0,1-1.243-3.781V-5.14a5.353,5.353,0,0,1,1.234-3.7,4.307,4.307,0,0,1,3.386-1.382,4.222,4.222,0,0,1,3.02,1.072A3.794,3.794,0,0,1,153.188-6.3h-2.514a1.827,1.827,0,0,0-.482-1.266,1.613,1.613,0,0,0-1.225-.487,1.616,1.616,0,0,0-1.415.682,3.947,3.947,0,0,0-.478,2.213v.278a4,4,0,0,0,.473,2.227A1.636,1.636,0,0,0,148.985-1.976Zm11.745.956A3.362,3.362,0,0,1,157.984.186a3.171,3.171,0,0,1-2.463-.928,3.96,3.96,0,0,1-.867-2.718v-6.578h2.681v6.485q0,1.568,1.429,1.568a1.937,1.937,0,0,0,1.874-.946v-7.106h2.69V0H160.8Zm7.088-9.018.083,1.16a3.5,3.5,0,0,1,2.885-1.345,2.913,2.913,0,0,1,2.375.937,4.372,4.372,0,0,1,.8,2.8V0h-2.681V-6.42a1.739,1.739,0,0,0-.371-1.239,1.661,1.661,0,0,0-1.234-.385,1.844,1.844,0,0,0-1.7.965V0h-2.681V-10.038Zm13.61,7.264a.864.864,0,0,0-.487-.775,5.533,5.533,0,0,0-1.563-.506Q175.8-4.806,175.8-7.1a2.758,2.758,0,0,1,1.109-2.231,4.472,4.472,0,0,1,2.9-.9,4.813,4.813,0,0,1,3.057.9,2.836,2.836,0,0,1,1.146,2.338h-2.681a1.3,1.3,0,0,0-.371-.951,1.57,1.57,0,0,0-1.16-.376,1.6,1.6,0,0,0-1.048.306.966.966,0,0,0-.371.779.826.826,0,0,0,.422.719,4.343,4.343,0,0,0,1.424.473,11.632,11.632,0,0,1,1.688.45,2.774,2.774,0,0,1,2.125,2.7,2.618,2.618,0,0,1-1.178,2.222,5.083,5.083,0,0,1-3.043.849,5.309,5.309,0,0,1-2.24-.45A3.759,3.759,0,0,1,176.038-1.5a2.867,2.867,0,0,1-.557-1.693h2.542a1.4,1.4,0,0,0,.529,1.095,2.1,2.1,0,0,0,1.317.38,1.941,1.941,0,0,0,1.164-.292A.909.909,0,0,0,181.428-2.774Zm7.542-9.732v2.468h1.716v1.967H188.97v5.01a1.2,1.2,0,0,0,.213.8,1.072,1.072,0,0,0,.816.241,4.276,4.276,0,0,0,.789-.065V-.056a5.519,5.519,0,0,1-1.624.241,2.56,2.56,0,0,1-2.876-2.848V-8.071h-1.466v-1.967h1.466v-2.468ZM198,0a2.977,2.977,0,0,1-.269-.9A3.244,3.244,0,0,1,195.2.186a3.564,3.564,0,0,1-2.445-.854,2.745,2.745,0,0,1-.969-2.152,2.837,2.837,0,0,1,1.183-2.449,5.837,5.837,0,0,1,3.419-.863h1.234v-.575a1.654,1.654,0,0,0-.357-1.113,1.405,1.405,0,0,0-1.127-.417,1.6,1.6,0,0,0-1.062.325,1.1,1.1,0,0,0-.385.891H192a2.693,2.693,0,0,1,.538-1.614A3.557,3.557,0,0,1,194.063-9.8a5.545,5.545,0,0,1,2.208-.422,4.381,4.381,0,0,1,2.946.932,3.262,3.262,0,0,1,1.09,2.621v4.351a4.8,4.8,0,0,0,.4,2.162V0ZM195.78-1.865a2.309,2.309,0,0,0,1.095-.264,1.737,1.737,0,0,0,.742-.71V-4.564h-1q-2.013,0-2.143,1.392l-.009.158a1.073,1.073,0,0,0,.353.826A1.369,1.369,0,0,0,195.78-1.865Zm9.055-8.173.083,1.16a3.5,3.5,0,0,1,2.885-1.345,2.913,2.913,0,0,1,2.375.937,4.372,4.372,0,0,1,.8,2.8V0h-2.681V-6.42a1.739,1.739,0,0,0-.371-1.239,1.661,1.661,0,0,0-1.234-.385,1.844,1.844,0,0,0-1.7.965V0h-2.681V-10.038Zm12.348,8.062a1.759,1.759,0,0,0,1.206-.408,1.43,1.43,0,0,0,.482-1.085h2.514a3.439,3.439,0,0,1-.557,1.869,3.673,3.673,0,0,1-1.5,1.317,4.689,4.689,0,0,1-2.1.469,4.358,4.358,0,0,1-3.4-1.368,5.415,5.415,0,0,1-1.243-3.781V-5.14a5.353,5.353,0,0,1,1.234-3.7,4.307,4.307,0,0,1,3.386-1.382,4.222,4.222,0,0,1,3.02,1.072A3.794,3.794,0,0,1,221.385-6.3h-2.514a1.827,1.827,0,0,0-.482-1.266,1.613,1.613,0,0,0-1.225-.487,1.616,1.616,0,0,0-1.415.682,3.947,3.947,0,0,0-.478,2.213v.278a4,4,0,0,0,.473,2.227A1.636,1.636,0,0,0,217.183-1.976ZM225.746,0h-2.69V-10.038h2.69ZM222.9-12.636a1.32,1.32,0,0,1,.4-.993,1.516,1.516,0,0,1,1.1-.39,1.52,1.52,0,0,1,1.095.39,1.313,1.313,0,0,1,.408.993,1.316,1.316,0,0,1-.413,1,1.523,1.523,0,0,1-1.09.39,1.523,1.523,0,0,1-1.09-.39A1.316,1.316,0,0,1,222.9-12.636ZM233.771,0a2.977,2.977,0,0,1-.269-.9A3.244,3.244,0,0,1,230.969.186a3.564,3.564,0,0,1-2.445-.854,2.745,2.745,0,0,1-.969-2.152,2.837,2.837,0,0,1,1.183-2.449,5.837,5.837,0,0,1,3.419-.863h1.234v-.575a1.654,1.654,0,0,0-.357-1.113,1.405,1.405,0,0,0-1.127-.417,1.6,1.6,0,0,0-1.062.325,1.1,1.1,0,0,0-.385.891h-2.681a2.693,2.693,0,0,1,.538-1.614A3.557,3.557,0,0,1,229.837-9.8a5.545,5.545,0,0,1,2.208-.422,4.381,4.381,0,0,1,2.946.932,3.262,3.262,0,0,1,1.09,2.621v4.351a4.8,4.8,0,0,0,.4,2.162V0Zm-2.217-1.865a2.309,2.309,0,0,0,1.095-.264,1.737,1.737,0,0,0,.742-.71V-4.564h-1q-2.013,0-2.143,1.392l-.009.158a1.073,1.073,0,0,0,.353.826A1.369,1.369,0,0,0,231.553-1.865ZM240.97,0h-2.69V-14.25h2.69Zm6.522-5.093a6.049,6.049,0,0,1,1.053-3.739,3.417,3.417,0,0,1,2.881-1.392,3.074,3.074,0,0,1,2.421,1.095V-14.25h2.69V0h-2.421l-.13-1.067A3.155,3.155,0,0,1,251.407.186a3.407,3.407,0,0,1-2.844-1.4A6.244,6.244,0,0,1,247.492-5.093Zm2.681.195a3.952,3.952,0,0,0,.492,2.162,1.6,1.6,0,0,0,1.429.751,1.794,1.794,0,0,0,1.753-1.048V-7a1.769,1.769,0,0,0-1.735-1.048Q250.173-8.043,250.173-4.9ZM263.235.186a4.928,4.928,0,0,1-3.595-1.354,4.815,4.815,0,0,1-1.387-3.609v-.26a6.064,6.064,0,0,1,.584-2.7,4.289,4.289,0,0,1,1.656-1.837,4.648,4.648,0,0,1,2.445-.645,4.166,4.166,0,0,1,3.242,1.3,5.278,5.278,0,0,1,1.183,3.683v1.095h-6.392a2.491,2.491,0,0,0,.784,1.577,2.37,2.37,0,0,0,1.656.594A2.894,2.894,0,0,0,265.833-3.1l1.317,1.475a4.025,4.025,0,0,1-1.633,1.331A5.357,5.357,0,0,1,263.235.186Zm-.306-8.238a1.679,1.679,0,0,0-1.294.538A2.78,2.78,0,0,0,261-5.975h3.729v-.213a1.982,1.982,0,0,0-.482-1.378A1.733,1.733,0,0,0,262.929-8.053ZM271.715,0h-2.69V-14.25h2.69Zm9.769,0h-2.69V-14.25h2.69Zm8.22-1.021A3.362,3.362,0,0,1,286.958.186a3.171,3.171,0,0,1-2.463-.928,3.96,3.96,0,0,1-.867-2.718v-6.578h2.681v6.485q0,1.568,1.429,1.568a1.937,1.937,0,0,0,1.874-.946v-7.106h2.69V0h-2.523Zm4.23-4.073a5.883,5.883,0,0,1,1.1-3.72A3.562,3.562,0,0,1,298-10.224a3.124,3.124,0,0,1,2.57,1.132l.111-.946h2.431v9.7a4.29,4.29,0,0,1-.6,2.292,3.843,3.843,0,0,1-1.684,1.484,5.919,5.919,0,0,1-2.542.51,5.5,5.5,0,0,1-2.152-.441,3.82,3.82,0,0,1-1.586-1.136L295.734.742a3.141,3.141,0,0,0,2.431,1.123,2.3,2.3,0,0,0,1.661-.571,2.14,2.14,0,0,0,.594-1.619V-.863a3.1,3.1,0,0,1-2.44,1.048,3.553,3.553,0,0,1-2.927-1.415,5.881,5.881,0,0,1-1.118-3.753Zm2.681.195a3.653,3.653,0,0,0,.547,2.138,1.742,1.742,0,0,0,1.5.775,1.862,1.862,0,0,0,1.753-.918V-7.125a1.858,1.858,0,0,0-1.735-.918,1.753,1.753,0,0,0-1.517.789A4.117,4.117,0,0,0,296.615-4.9ZM310.986,0a2.978,2.978,0,0,1-.269-.9A3.244,3.244,0,0,1,308.184.186a3.564,3.564,0,0,1-2.445-.854,2.745,2.745,0,0,1-.969-2.152,2.837,2.837,0,0,1,1.183-2.449,5.837,5.837,0,0,1,3.419-.863h1.234v-.575a1.654,1.654,0,0,0-.357-1.113,1.405,1.405,0,0,0-1.127-.417,1.6,1.6,0,0,0-1.062.325,1.1,1.1,0,0,0-.385.891h-2.681a2.693,2.693,0,0,1,.538-1.614A3.557,3.557,0,0,1,307.052-9.8a5.545,5.545,0,0,1,2.208-.422,4.381,4.381,0,0,1,2.946.932A3.262,3.262,0,0,1,313.3-6.67v4.351a4.8,4.8,0,0,0,.4,2.162V0Zm-2.217-1.865a2.309,2.309,0,0,0,1.095-.264,1.737,1.737,0,0,0,.742-.71V-4.564h-1q-2.013,0-2.143,1.392l-.009.158a1.073,1.073,0,0,0,.353.826A1.369,1.369,0,0,0,308.769-1.865ZM321-7.524a7.284,7.284,0,0,0-.965-.074,1.964,1.964,0,0,0-1.995,1.03V0h-2.681V-10.038h2.533l.074,1.2a2.484,2.484,0,0,1,2.236-1.382,2.809,2.809,0,0,1,.835.121Z" transform="translate(814.002 6410.813)" fill="#892bc7"/>
        <path id="Trazado_11183" data-name="Trazado 11183" d="M146.88.293a6.925,6.925,0,0,1-5.244-2.117,7.856,7.856,0,0,1-2.021-5.662v-.5a9.511,9.511,0,0,1,.9-4.211,7.028,7.028,0,0,1,2.52-2.9,6.335,6.335,0,0,1,3.508-1.047,5.936,5.936,0,0,1,4.8,2.036,8.816,8.816,0,0,1,1.714,5.83v1.128H142.324a5.634,5.634,0,0,0,1.37,3.787,4.305,4.305,0,0,0,3.333,1.443,4.72,4.72,0,0,0,2.432-.586A6.11,6.11,0,0,0,151.2-4.058l1.655,1.289A6.656,6.656,0,0,1,146.88.293Zm-.337-14.209a3.615,3.615,0,0,0-2.754,1.194,5.8,5.8,0,0,0-1.377,3.347h7.939V-9.58a5.162,5.162,0,0,0-1.113-3.2A3.4,3.4,0,0,0,146.543-13.916ZM158.76-15.85l.088,1.992a5.776,5.776,0,0,1,4.746-2.285q5.024,0,5.068,5.669V0h-2.71V-10.488a3.649,3.649,0,0,0-.784-2.534,3.141,3.141,0,0,0-2.4-.82,3.911,3.911,0,0,0-2.314.7,4.775,4.775,0,0,0-1.553,1.846V0H156.2V-15.85ZM186.753.293a6.925,6.925,0,0,1-5.244-2.117,7.856,7.856,0,0,1-2.021-5.662v-.5a9.511,9.511,0,0,1,.9-4.211,7.028,7.028,0,0,1,2.52-2.9,6.335,6.335,0,0,1,3.508-1.047,5.936,5.936,0,0,1,4.8,2.036,8.816,8.816,0,0,1,1.714,5.83v1.128H182.2a5.634,5.634,0,0,0,1.37,3.787A4.305,4.305,0,0,0,186.9-1.919a4.72,4.72,0,0,0,2.432-.586,6.11,6.11,0,0,0,1.743-1.553l1.655,1.289A6.656,6.656,0,0,1,186.753.293Zm-.337-14.209a3.615,3.615,0,0,0-2.754,1.194,5.8,5.8,0,0,0-1.377,3.347h7.939V-9.58a5.162,5.162,0,0,0-1.113-3.2A3.4,3.4,0,0,0,186.416-13.916ZM199.014,0H196.3V-22.5h2.71Zm18.12-1.919a3.9,3.9,0,0,0,2.534-.879,3.092,3.092,0,0,0,1.2-2.2h2.563A4.914,4.914,0,0,1,222.5-2.4a6.175,6.175,0,0,1-2.307,1.963,6.657,6.657,0,0,1-3.054.732,6.529,6.529,0,0,1-5.149-2.161,8.606,8.606,0,0,1-1.912-5.911v-.454a9.542,9.542,0,0,1,.85-4.116,6.471,6.471,0,0,1,2.439-2.8,6.928,6.928,0,0,1,3.757-1,6.357,6.357,0,0,1,4.431,1.6,5.706,5.706,0,0,1,1.882,4.146h-2.563a3.735,3.735,0,0,0-1.165-2.527,3.623,3.623,0,0,0-2.585-.989,3.793,3.793,0,0,0-3.2,1.487,6.983,6.983,0,0,0-1.135,4.3v.513A6.843,6.843,0,0,0,213.911-3.4,3.811,3.811,0,0,0,217.134-1.919ZM233.057.293a6.925,6.925,0,0,1-5.244-2.117,7.856,7.856,0,0,1-2.021-5.662v-.5a9.511,9.511,0,0,1,.9-4.211,7.028,7.028,0,0,1,2.52-2.9,6.335,6.335,0,0,1,3.508-1.047,5.936,5.936,0,0,1,4.8,2.036,8.816,8.816,0,0,1,1.714,5.83v1.128H228.5a5.634,5.634,0,0,0,1.37,3.787A4.305,4.305,0,0,0,233.2-1.919a4.72,4.72,0,0,0,2.432-.586,6.11,6.11,0,0,0,1.743-1.553l1.655,1.289A6.656,6.656,0,0,1,233.057.293Zm-.337-14.209a3.615,3.615,0,0,0-2.754,1.194,5.8,5.8,0,0,0-1.377,3.347h7.939V-9.58a5.162,5.162,0,0,0-1.113-3.2A3.4,3.4,0,0,0,232.72-13.916Zm12.217-1.934.088,1.992a5.776,5.776,0,0,1,4.746-2.285q5.024,0,5.068,5.669V0h-2.71V-10.488a3.649,3.649,0,0,0-.784-2.534,3.141,3.141,0,0,0-2.4-.82,3.911,3.911,0,0,0-2.314.7,4.775,4.775,0,0,0-1.553,1.846V0h-2.71V-15.85ZM262.6-19.687v3.838h2.959v2.095H262.6v9.829A2.2,2.2,0,0,0,263-2.5a1.666,1.666,0,0,0,1.348.476,6.561,6.561,0,0,0,1.289-.176V0a7.856,7.856,0,0,1-2.08.293,3.375,3.375,0,0,1-2.739-1.1,4.72,4.72,0,0,1-.923-3.12v-9.829h-2.886V-15.85h2.886v-3.838Zm13.784,6.27a8.121,8.121,0,0,0-1.333-.1,3.571,3.571,0,0,0-3.618,2.271V0h-2.71V-15.85h2.637l.044,1.831a4.22,4.22,0,0,1,3.779-2.124,2.769,2.769,0,0,1,1.2.205Zm1.479,5.347a9.362,9.362,0,0,1,.916-4.189,6.83,6.83,0,0,1,2.549-2.871,6.938,6.938,0,0,1,3.728-1.011A6.684,6.684,0,0,1,290.3-13.9a8.623,8.623,0,0,1,2,5.962v.19a9.443,9.443,0,0,1-.886,4.153,6.729,6.729,0,0,1-2.534,2.864A7.018,7.018,0,0,1,285.088.293a6.667,6.667,0,0,1-5.222-2.241,8.579,8.579,0,0,1-2-5.933Zm2.725.322a6.781,6.781,0,0,0,1.223,4.233,3.914,3.914,0,0,0,3.274,1.6,3.891,3.891,0,0,0,3.281-1.619,7.415,7.415,0,0,0,1.216-4.534,6.769,6.769,0,0,0-1.238-4.226,3.935,3.935,0,0,0-3.289-1.619,3.891,3.891,0,0,0-3.237,1.6A7.36,7.36,0,0,0,280.591-7.749Zm28.887,5.83a3.9,3.9,0,0,0,2.534-.879,3.092,3.092,0,0,0,1.2-2.2h2.563a4.914,4.914,0,0,1-.937,2.593,6.175,6.175,0,0,1-2.307,1.963,6.657,6.657,0,0,1-3.054.732,6.529,6.529,0,0,1-5.149-2.161,8.606,8.606,0,0,1-1.912-5.911v-.454a9.542,9.542,0,0,1,.85-4.116,6.471,6.471,0,0,1,2.439-2.8,6.928,6.928,0,0,1,3.757-1,6.357,6.357,0,0,1,4.431,1.6,5.706,5.706,0,0,1,1.882,4.146h-2.563a3.735,3.735,0,0,0-1.165-2.527,3.623,3.623,0,0,0-2.585-.989,3.793,3.793,0,0,0-3.2,1.487,6.983,6.983,0,0,0-1.135,4.3v.513A6.843,6.843,0,0,0,306.255-3.4,3.811,3.811,0,0,0,309.478-1.919Zm8.628-6.152a9.362,9.362,0,0,1,.916-4.189,6.83,6.83,0,0,1,2.549-2.871,6.938,6.938,0,0,1,3.728-1.011,6.684,6.684,0,0,1,5.237,2.241,8.623,8.623,0,0,1,2,5.962v.19a9.443,9.443,0,0,1-.886,4.153,6.729,6.729,0,0,1-2.534,2.864A7.018,7.018,0,0,1,325.327.293,6.667,6.667,0,0,1,320.1-1.948a8.579,8.579,0,0,1-2-5.933Zm2.725.322a6.781,6.781,0,0,0,1.223,4.233,3.914,3.914,0,0,0,3.274,1.6,3.891,3.891,0,0,0,3.281-1.619,7.415,7.415,0,0,0,1.216-4.534,6.769,6.769,0,0,0-1.238-4.226,3.935,3.935,0,0,0-3.289-1.619,3.891,3.891,0,0,0-3.237,1.6A7.36,7.36,0,0,0,320.83-7.749Zm17.651-8.1.073,1.758a5.853,5.853,0,0,1,4.7-2.051q3.325,0,4.526,2.549a6,6,0,0,1,2.058-1.846,6.079,6.079,0,0,1,3-.7q5.215,0,5.3,5.522V0h-2.71V-10.459A3.639,3.639,0,0,0,354.653-13a3.419,3.419,0,0,0-2.607-.842,3.593,3.593,0,0,0-2.5.9,3.655,3.655,0,0,0-1.157,2.424V0h-2.725V-10.386q0-3.457-3.384-3.457a3.626,3.626,0,0,0-3.647,2.271V0h-2.71V-15.85ZM368.8.293a6.925,6.925,0,0,1-5.244-2.117,7.856,7.856,0,0,1-2.021-5.662v-.5a9.511,9.511,0,0,1,.9-4.211,7.028,7.028,0,0,1,2.52-2.9,6.335,6.335,0,0,1,3.508-1.047,5.936,5.936,0,0,1,4.8,2.036,8.816,8.816,0,0,1,1.714,5.83v1.128H364.248a5.634,5.634,0,0,0,1.37,3.787,4.305,4.305,0,0,0,3.333,1.443,4.72,4.72,0,0,0,2.432-.586,6.11,6.11,0,0,0,1.743-1.553l1.655,1.289A6.656,6.656,0,0,1,368.8.293Zm-.337-14.209a3.615,3.615,0,0,0-2.754,1.194,5.8,5.8,0,0,0-1.377,3.347h7.939V-9.58a5.162,5.162,0,0,0-1.113-3.2A3.4,3.4,0,0,0,368.467-13.916Zm17.314.5a8.121,8.121,0,0,0-1.333-.1,3.571,3.571,0,0,0-3.618,2.271V0h-2.71V-15.85h2.637l.044,1.831a4.22,4.22,0,0,1,3.779-2.124,2.769,2.769,0,0,1,1.2.205Zm8.569,11.5a3.9,3.9,0,0,0,2.534-.879,3.092,3.092,0,0,0,1.2-2.2h2.563a4.914,4.914,0,0,1-.937,2.593A6.175,6.175,0,0,1,397.4-.439a6.657,6.657,0,0,1-3.054.732A6.529,6.529,0,0,1,389.2-1.868a8.606,8.606,0,0,1-1.912-5.911v-.454a9.542,9.542,0,0,1,.85-4.116,6.471,6.471,0,0,1,2.439-2.8,6.928,6.928,0,0,1,3.757-1,6.357,6.357,0,0,1,4.431,1.6,5.706,5.706,0,0,1,1.882,4.146h-2.563a3.735,3.735,0,0,0-1.165-2.527,3.623,3.623,0,0,0-2.585-.989,3.793,3.793,0,0,0-3.2,1.487A6.983,6.983,0,0,0,390-8.13v.513A6.843,6.843,0,0,0,391.128-3.4,3.811,3.811,0,0,0,394.351-1.919ZM406.641,0h-2.71V-15.85h2.71Zm-2.93-20.054a1.618,1.618,0,0,1,.4-1.113,1.512,1.512,0,0,1,1.194-.454,1.536,1.536,0,0,1,1.2.454,1.6,1.6,0,0,1,.41,1.113,1.548,1.548,0,0,1-.41,1.1,1.564,1.564,0,0,1-1.2.439,1.54,1.54,0,0,1-1.194-.439A1.564,1.564,0,0,1,403.711-20.054ZM420.762,0a5.693,5.693,0,0,1-.381-1.67A6.046,6.046,0,0,1,415.869.293a5.6,5.6,0,0,1-3.845-1.326,4.289,4.289,0,0,1-1.5-3.362A4.481,4.481,0,0,1,412.4-8.24a8.875,8.875,0,0,1,5.3-1.37h2.637v-1.245a3.044,3.044,0,0,0-.85-2.263,3.415,3.415,0,0,0-2.5-.842,3.952,3.952,0,0,0-2.432.732,2.158,2.158,0,0,0-.981,1.772h-2.725a3.74,3.74,0,0,1,.842-2.292,5.749,5.749,0,0,1,2.285-1.75,7.688,7.688,0,0,1,3.171-.645,6.266,6.266,0,0,1,4.292,1.37A4.941,4.941,0,0,1,423.047-11v7.295A8.919,8.919,0,0,0,423.6-.234V0Zm-4.5-2.065a4.763,4.763,0,0,0,2.417-.659,3.987,3.987,0,0,0,1.655-1.714V-7.69h-2.124q-4.98,0-4.98,2.915a2.467,2.467,0,0,0,.85,1.992A3.266,3.266,0,0,0,416.265-2.065ZM430.239,0h-2.71V-22.5h2.71Z" transform="translate(700.761 6374.707)" fill="#fff"/>
        <path id="Trazado_11184" data-name="Trazado 11184" d="M17.212-19.014H10.356V0h-2.8V-19.014H.718v-2.314H17.212ZM25.078.293a6.925,6.925,0,0,1-5.244-2.117,7.856,7.856,0,0,1-2.021-5.662v-.5a9.511,9.511,0,0,1,.9-4.211,7.028,7.028,0,0,1,2.52-2.9,6.335,6.335,0,0,1,3.508-1.047,5.936,5.936,0,0,1,4.8,2.036,8.816,8.816,0,0,1,1.714,5.83v1.128H20.522a5.634,5.634,0,0,0,1.37,3.787,4.305,4.305,0,0,0,3.333,1.443A4.72,4.72,0,0,0,27.656-2.5,6.11,6.11,0,0,0,29.4-4.058l1.655,1.289A6.656,6.656,0,0,1,25.078.293Zm-.337-14.209a3.615,3.615,0,0,0-2.754,1.194A5.8,5.8,0,0,0,20.61-9.375H28.55V-9.58a5.162,5.162,0,0,0-1.113-3.2A3.4,3.4,0,0,0,24.741-13.916ZM48.4.293a6.925,6.925,0,0,1-5.244-2.117,7.856,7.856,0,0,1-2.021-5.662v-.5a9.511,9.511,0,0,1,.9-4.211,7.028,7.028,0,0,1,2.52-2.9,6.335,6.335,0,0,1,3.508-1.047,5.936,5.936,0,0,1,4.8,2.036,8.816,8.816,0,0,1,1.714,5.83v1.128H43.843a5.634,5.634,0,0,0,1.37,3.787,4.305,4.305,0,0,0,3.333,1.443A4.72,4.72,0,0,0,50.977-2.5,6.11,6.11,0,0,0,52.72-4.058l1.655,1.289A6.656,6.656,0,0,1,48.4.293Zm-.337-14.209a3.615,3.615,0,0,0-2.754,1.194,5.8,5.8,0,0,0-1.377,3.347H51.87V-9.58a5.162,5.162,0,0,0-1.113-3.2A3.4,3.4,0,0,0,48.062-13.916ZM66.943-4.2a2,2,0,0,0-.828-1.707A7.966,7.966,0,0,0,63.23-6.958a13.644,13.644,0,0,1-3.267-1.055,4.647,4.647,0,0,1-1.787-1.465A3.5,3.5,0,0,1,57.6-11.5a4.111,4.111,0,0,1,1.648-3.3,6.436,6.436,0,0,1,4.211-1.348,6.623,6.623,0,0,1,4.373,1.392,4.42,4.42,0,0,1,1.677,3.56H66.782a2.446,2.446,0,0,0-.945-1.919,3.54,3.54,0,0,0-2.38-.806,3.7,3.7,0,0,0-2.314.645,2.029,2.029,0,0,0-.835,1.685,1.644,1.644,0,0,0,.776,1.479,9.552,9.552,0,0,0,2.805.952,14.616,14.616,0,0,1,3.289,1.084,4.8,4.8,0,0,1,1.868,1.516,3.728,3.728,0,0,1,.608,2.161,4.056,4.056,0,0,1-1.7,3.406A7.128,7.128,0,0,1,63.545.293a7.981,7.981,0,0,1-3.369-.674,5.48,5.48,0,0,1-2.292-1.882,4.537,4.537,0,0,1-.828-2.615h2.71a2.806,2.806,0,0,0,1.091,2.161,4.234,4.234,0,0,0,2.688.8,4.37,4.37,0,0,0,2.468-.623A1.913,1.913,0,0,0,66.943-4.2ZM86.572-7.749a9.49,9.49,0,0,1-1.655,5.83A5.305,5.305,0,0,1,80.435.293a5.813,5.813,0,0,1-4.541-1.831V6.094h-2.71V-15.85h2.476l.132,1.758a5.583,5.583,0,0,1,4.6-2.051,5.4,5.4,0,0,1,4.519,2.153A9.594,9.594,0,0,1,86.572-8Zm-2.71-.308A7,7,0,0,0,82.72-12.29a3.681,3.681,0,0,0-3.135-1.553,3.984,3.984,0,0,0-3.691,2.183v7.573a3.991,3.991,0,0,0,3.721,2.168,3.663,3.663,0,0,0,3.1-1.545A7.644,7.644,0,0,0,83.862-8.057ZM96.592.293a6.925,6.925,0,0,1-5.244-2.117,7.856,7.856,0,0,1-2.021-5.662v-.5a9.511,9.511,0,0,1,.9-4.211,7.028,7.028,0,0,1,2.52-2.9,6.335,6.335,0,0,1,3.508-1.047,5.936,5.936,0,0,1,4.8,2.036,8.816,8.816,0,0,1,1.714,5.83v1.128H92.036a5.634,5.634,0,0,0,1.37,3.787,4.305,4.305,0,0,0,3.333,1.443A4.72,4.72,0,0,0,99.17-2.5a6.11,6.11,0,0,0,1.743-1.553l1.655,1.289A6.656,6.656,0,0,1,96.592.293Zm-.337-14.209A3.615,3.615,0,0,0,93.5-12.722a5.8,5.8,0,0,0-1.377,3.347h7.939V-9.58a5.162,5.162,0,0,0-1.113-3.2A3.4,3.4,0,0,0,96.255-13.916Zm17.314.5a8.121,8.121,0,0,0-1.333-.1,3.571,3.571,0,0,0-3.618,2.271V0h-2.71V-15.85h2.637l.044,1.831a4.22,4.22,0,0,1,3.779-2.124,2.769,2.769,0,0,1,1.2.205Zm1.479,5.347a9.362,9.362,0,0,1,.916-4.189,6.83,6.83,0,0,1,2.549-2.871,6.938,6.938,0,0,1,3.728-1.011,6.684,6.684,0,0,1,5.237,2.241,8.623,8.623,0,0,1,2,5.962v.19a9.443,9.443,0,0,1-.886,4.153,6.729,6.729,0,0,1-2.534,2.864A7.018,7.018,0,0,1,122.271.293a6.667,6.667,0,0,1-5.222-2.241,8.579,8.579,0,0,1-2-5.933Zm2.725.322A6.781,6.781,0,0,0,119-3.516a3.914,3.914,0,0,0,3.274,1.6,3.891,3.891,0,0,0,3.281-1.619,7.415,7.415,0,0,0,1.216-4.534A6.769,6.769,0,0,0,125.53-12.3a3.935,3.935,0,0,0-3.289-1.619,3.891,3.891,0,0,0-3.237,1.6A7.36,7.36,0,0,0,117.773-7.749Z" transform="translate(692 6374.906)" fill="#02255f"/>
      </g>
      <g id="Grupo_13607" data-name="Grupo 13607">
        <path id="Trazado_10628" data-name="Trazado 10628" d="M-.462,0,171.281,6.944,170.475,57-.635,46.309Z" transform="matrix(0.999, -0.035, 0.035, 0.999, 887.633, 6445.598)" fill="#e69bf4"/>
        <path id="Trazado_11186" data-name="Trazado 11186" d="M210.454.293a6.925,6.925,0,0,1-5.244-2.117,7.856,7.856,0,0,1-2.021-5.662v-.5a9.511,9.511,0,0,1,.9-4.211,7.028,7.028,0,0,1,2.52-2.9,6.335,6.335,0,0,1,3.508-1.047,5.936,5.936,0,0,1,4.8,2.036,8.816,8.816,0,0,1,1.714,5.83v1.128H205.9a5.634,5.634,0,0,0,1.37,3.787A4.305,4.305,0,0,0,210.6-1.919a4.72,4.72,0,0,0,2.432-.586,6.11,6.11,0,0,0,1.743-1.553l1.655,1.289A6.656,6.656,0,0,1,210.454.293Zm-.337-14.209a3.615,3.615,0,0,0-2.754,1.194,5.8,5.8,0,0,0-1.377,3.347h7.939V-9.58a5.162,5.162,0,0,0-1.113-3.2A3.4,3.4,0,0,0,210.117-13.916ZM229-4.2a2,2,0,0,0-.828-1.707,7.966,7.966,0,0,0-2.886-1.047,13.644,13.644,0,0,1-3.267-1.055,4.647,4.647,0,0,1-1.787-1.465,3.5,3.5,0,0,1-.579-2.021,4.111,4.111,0,0,1,1.648-3.3,6.436,6.436,0,0,1,4.211-1.348,6.623,6.623,0,0,1,4.373,1.392,4.42,4.42,0,0,1,1.677,3.56h-2.725a2.446,2.446,0,0,0-.945-1.919,3.54,3.54,0,0,0-2.38-.806,3.7,3.7,0,0,0-2.314.645,2.029,2.029,0,0,0-.835,1.685,1.644,1.644,0,0,0,.776,1.479,9.552,9.552,0,0,0,2.805.952,14.616,14.616,0,0,1,3.289,1.084A4.8,4.8,0,0,1,231.1-6.555a3.728,3.728,0,0,1,.608,2.161,4.056,4.056,0,0,1-1.7,3.406A7.128,7.128,0,0,1,225.6.293a7.981,7.981,0,0,1-3.369-.674,5.48,5.48,0,0,1-2.292-1.882,4.537,4.537,0,0,1-.828-2.615h2.71a2.806,2.806,0,0,0,1.091,2.161,4.234,4.234,0,0,0,2.688.8,4.37,4.37,0,0,0,2.468-.623A1.913,1.913,0,0,0,229-4.2Zm9.917-15.483v3.838h2.959v2.095h-2.959v9.829a2.2,2.2,0,0,0,.4,1.428,1.666,1.666,0,0,0,1.348.476,6.561,6.561,0,0,0,1.289-.176V0a7.856,7.856,0,0,1-2.08.293,3.375,3.375,0,0,1-2.739-1.1,4.72,4.72,0,0,1-.923-3.12v-9.829H233.32V-15.85h2.886v-3.838ZM254.824,0a5.693,5.693,0,0,1-.381-1.67A6.046,6.046,0,0,1,249.932.293a5.6,5.6,0,0,1-3.845-1.326,4.289,4.289,0,0,1-1.5-3.362,4.481,4.481,0,0,1,1.882-3.845,8.875,8.875,0,0,1,5.3-1.37H254.4v-1.245a3.044,3.044,0,0,0-.85-2.263,3.415,3.415,0,0,0-2.5-.842,3.952,3.952,0,0,0-2.432.732,2.158,2.158,0,0,0-.981,1.772h-2.725a3.74,3.74,0,0,1,.842-2.292,5.749,5.749,0,0,1,2.285-1.75,7.688,7.688,0,0,1,3.171-.645,6.266,6.266,0,0,1,4.292,1.37A4.941,4.941,0,0,1,257.109-11v7.295a8.919,8.919,0,0,0,.557,3.472V0Zm-4.5-2.065a4.763,4.763,0,0,0,2.417-.659A3.987,3.987,0,0,0,254.4-4.438V-7.69h-2.124q-4.98,0-4.98,2.915a2.467,2.467,0,0,0,.85,1.992A3.266,3.266,0,0,0,250.327-2.065Zm22.134-17.622v3.838h2.959v2.095h-2.959v9.829a2.2,2.2,0,0,0,.4,1.428,1.666,1.666,0,0,0,1.348.476,6.561,6.561,0,0,0,1.289-.176V0a7.856,7.856,0,0,1-2.08.293,3.375,3.375,0,0,1-2.739-1.1,4.72,4.72,0,0,1-.923-3.12v-9.829h-2.886V-15.85h2.886v-3.838ZM288.369,0a5.693,5.693,0,0,1-.381-1.67A6.046,6.046,0,0,1,283.477.293a5.6,5.6,0,0,1-3.845-1.326,4.289,4.289,0,0,1-1.5-3.362,4.481,4.481,0,0,1,1.882-3.845,8.875,8.875,0,0,1,5.3-1.37h2.637v-1.245a3.044,3.044,0,0,0-.85-2.263,3.415,3.415,0,0,0-2.5-.842,3.952,3.952,0,0,0-2.432.732,2.158,2.158,0,0,0-.981,1.772h-2.725a3.74,3.74,0,0,1,.842-2.292,5.749,5.749,0,0,1,2.285-1.75,7.688,7.688,0,0,1,3.171-.645,6.266,6.266,0,0,1,4.292,1.37A4.941,4.941,0,0,1,290.654-11v7.295a8.919,8.919,0,0,0,.557,3.472V0Zm-4.5-2.065a4.763,4.763,0,0,0,2.417-.659,3.987,3.987,0,0,0,1.655-1.714V-7.69H285.82q-4.98,0-4.98,2.915a2.467,2.467,0,0,0,.85,1.992A3.266,3.266,0,0,0,283.872-2.065Zm18.691-11.353a8.121,8.121,0,0,0-1.333-.1,3.571,3.571,0,0,0-3.618,2.271V0H294.9V-15.85h2.637l.044,1.831a4.22,4.22,0,0,1,3.779-2.124,2.769,2.769,0,0,1,1.2.205Zm1.553,5.361a9.285,9.285,0,0,1,1.729-5.867,5.466,5.466,0,0,1,4.526-2.219,5.5,5.5,0,0,1,4.409,1.9V-22.5h2.71V0H315l-.132-1.7A5.519,5.519,0,0,1,310.342.293a5.414,5.414,0,0,1-4.49-2.256,9.39,9.39,0,0,1-1.736-5.889Zm2.71.308a7.03,7.03,0,0,0,1.113,4.219,3.6,3.6,0,0,0,3.076,1.523,3.953,3.953,0,0,0,3.765-2.314V-11.6a3.984,3.984,0,0,0-3.735-2.241,3.616,3.616,0,0,0-3.105,1.538A7.74,7.74,0,0,0,306.826-7.749ZM328.271.293a6.925,6.925,0,0,1-5.244-2.117,7.856,7.856,0,0,1-2.021-5.662v-.5a9.511,9.511,0,0,1,.9-4.211,7.028,7.028,0,0,1,2.52-2.9,6.335,6.335,0,0,1,3.508-1.047,5.936,5.936,0,0,1,4.8,2.036,8.816,8.816,0,0,1,1.714,5.83v1.128H323.716a5.634,5.634,0,0,0,1.37,3.787,4.305,4.305,0,0,0,3.333,1.443A4.72,4.72,0,0,0,330.85-2.5a6.11,6.11,0,0,0,1.743-1.553l1.655,1.289A6.656,6.656,0,0,1,328.271.293Zm-.337-14.209a3.615,3.615,0,0,0-2.754,1.194A5.8,5.8,0,0,0,323.8-9.375h7.939V-9.58a5.162,5.162,0,0,0-1.113-3.2A3.4,3.4,0,0,0,327.935-13.916Zm12.832,7.91a8.769,8.769,0,0,1,.4-2.754A7.063,7.063,0,0,1,342.656-11l1.919-1.978a4.439,4.439,0,0,0,1.23-2.988,3.414,3.414,0,0,0-.806-2.41,3.034,3.034,0,0,0-2.344-.872,3.527,3.527,0,0,0-2.4.791,2.674,2.674,0,0,0-.908,2.124h-2.71a4.935,4.935,0,0,1,1.692-3.831,6.327,6.327,0,0,1,4.329-1.458,5.967,5.967,0,0,1,4.314,1.487,5.4,5.4,0,0,1,1.545,4.08A7.377,7.377,0,0,1,346.143-11l-1.6,1.582a4.931,4.931,0,0,0-1.069,3.413Zm-.117,4.644a1.591,1.591,0,0,1,.4-1.106,1.526,1.526,0,0,1,1.194-.447,1.55,1.55,0,0,1,1.2.447,1.574,1.574,0,0,1,.41,1.106,1.522,1.522,0,0,1-.41,1.091,1.579,1.579,0,0,1-1.2.432,1.554,1.554,0,0,1-1.194-.432A1.538,1.538,0,0,1,340.649-1.362Z" transform="translate(692 6482.206)" fill="#fff"/>
        <path id="Trazado_11187" data-name="Trazado 11187" d="M8.613-9.961A8.588,8.588,0,0,1,8.3-7.478a5.549,5.549,0,0,1-1,1.794q-.7.864-2.051,2.278A5.014,5.014,0,0,0,3.735-.542L3.706,0a3.286,3.286,0,0,0,.85,2.439A3.329,3.329,0,0,0,7,3.281a3.413,3.413,0,0,0,2.38-.828A2.776,2.776,0,0,0,10.3.293h2.71a5.054,5.054,0,0,1-1.677,3.853A6.2,6.2,0,0,1,7,5.64,6.236,6.236,0,0,1,2.563,4.167,5.344,5.344,0,0,1,1,.073a7.643,7.643,0,0,1,2.344-5.1l1.6-1.655A4.946,4.946,0,0,0,5.9-9.961ZM8.73-14.6a1.618,1.618,0,0,1-.4,1.113,1.512,1.512,0,0,1-1.194.454,1.536,1.536,0,0,1-1.2-.454,1.6,1.6,0,0,1-.41-1.113,1.529,1.529,0,0,1,.41-1.084,1.564,1.564,0,0,1,1.2-.439,1.54,1.54,0,0,1,1.194.439A1.544,1.544,0,0,1,8.73-14.6Zm15,10.869,6.094-17.593H32.9L24.99,0H22.5L14.6-21.328h3.062ZM44.443,0a5.693,5.693,0,0,1-.381-1.67A6.046,6.046,0,0,1,39.551.293a5.6,5.6,0,0,1-3.845-1.326,4.289,4.289,0,0,1-1.5-3.362A4.481,4.481,0,0,1,36.086-8.24a8.875,8.875,0,0,1,5.3-1.37h2.637v-1.245a3.044,3.044,0,0,0-.85-2.263,3.415,3.415,0,0,0-2.5-.842,3.952,3.952,0,0,0-2.432.732,2.158,2.158,0,0,0-.981,1.772H34.526a3.74,3.74,0,0,1,.842-2.292,5.749,5.749,0,0,1,2.285-1.75,7.688,7.688,0,0,1,3.171-.645,6.266,6.266,0,0,1,4.292,1.37A4.941,4.941,0,0,1,46.729-11v7.295a8.919,8.919,0,0,0,.557,3.472V0Zm-4.5-2.065a4.763,4.763,0,0,0,2.417-.659,3.987,3.987,0,0,0,1.655-1.714V-7.69H41.895q-4.98,0-4.98,2.915a2.467,2.467,0,0,0,.85,1.992A3.266,3.266,0,0,0,39.946-2.065ZM53.525-15.85l.073,1.758a5.853,5.853,0,0,1,4.7-2.051q3.325,0,4.526,2.549a6,6,0,0,1,2.058-1.846,6.079,6.079,0,0,1,3-.7q5.215,0,5.3,5.522V0h-2.71V-10.459A3.639,3.639,0,0,0,69.7-13a3.419,3.419,0,0,0-2.607-.842,3.593,3.593,0,0,0-2.5.9,3.655,3.655,0,0,0-1.157,2.424V0H60.7V-10.386q0-3.457-3.384-3.457a3.626,3.626,0,0,0-3.647,2.271V0h-2.71V-15.85ZM76.553-8.071a9.362,9.362,0,0,1,.916-4.189,6.83,6.83,0,0,1,2.549-2.871,6.938,6.938,0,0,1,3.728-1.011A6.684,6.684,0,0,1,88.982-13.9a8.623,8.623,0,0,1,2,5.962v.19A9.443,9.443,0,0,1,90.1-3.6,6.729,6.729,0,0,1,87.561-.732,7.018,7.018,0,0,1,83.774.293a6.667,6.667,0,0,1-5.222-2.241,8.579,8.579,0,0,1-2-5.933Zm2.725.322A6.781,6.781,0,0,0,80.5-3.516a3.914,3.914,0,0,0,3.274,1.6,3.891,3.891,0,0,0,3.281-1.619,7.415,7.415,0,0,0,1.216-4.534A6.769,6.769,0,0,0,87.034-12.3a3.935,3.935,0,0,0-3.289-1.619,3.891,3.891,0,0,0-3.237,1.6A7.36,7.36,0,0,0,79.277-7.749ZM103.608-4.2a2,2,0,0,0-.828-1.707A7.966,7.966,0,0,0,99.9-6.958a13.644,13.644,0,0,1-3.267-1.055,4.647,4.647,0,0,1-1.787-1.465,3.5,3.5,0,0,1-.579-2.021,4.111,4.111,0,0,1,1.648-3.3,6.436,6.436,0,0,1,4.211-1.348,6.623,6.623,0,0,1,4.373,1.392,4.42,4.42,0,0,1,1.677,3.56h-2.725a2.446,2.446,0,0,0-.945-1.919,3.54,3.54,0,0,0-2.38-.806,3.7,3.7,0,0,0-2.314.645,2.029,2.029,0,0,0-.835,1.685,1.644,1.644,0,0,0,.776,1.479,9.552,9.552,0,0,0,2.805.952,14.616,14.616,0,0,1,3.289,1.084,4.8,4.8,0,0,1,1.868,1.516,3.728,3.728,0,0,1,.608,2.161,4.056,4.056,0,0,1-1.7,3.406A7.128,7.128,0,0,1,100.21.293a7.981,7.981,0,0,1-3.369-.674,5.48,5.48,0,0,1-2.292-1.882,4.537,4.537,0,0,1-.828-2.615h2.71a2.806,2.806,0,0,0,1.091,2.161,4.234,4.234,0,0,0,2.688.8,4.37,4.37,0,0,0,2.468-.623A1.913,1.913,0,0,0,103.608-4.2ZM127.061,0a5.693,5.693,0,0,1-.381-1.67A6.046,6.046,0,0,1,122.168.293a5.6,5.6,0,0,1-3.845-1.326,4.289,4.289,0,0,1-1.5-3.362A4.481,4.481,0,0,1,118.7-8.24a8.875,8.875,0,0,1,5.3-1.37h2.637v-1.245a3.044,3.044,0,0,0-.85-2.263,3.415,3.415,0,0,0-2.5-.842,3.952,3.952,0,0,0-2.432.732,2.158,2.158,0,0,0-.981,1.772h-2.725a3.74,3.74,0,0,1,.842-2.292,5.749,5.749,0,0,1,2.285-1.75,7.688,7.688,0,0,1,3.171-.645,6.266,6.266,0,0,1,4.292,1.37A4.941,4.941,0,0,1,129.346-11v7.295A8.919,8.919,0,0,0,129.9-.234V0Zm-4.5-2.065a4.763,4.763,0,0,0,2.417-.659,3.987,3.987,0,0,0,1.655-1.714V-7.69h-2.124q-4.98,0-4.98,2.915a2.467,2.467,0,0,0,.85,1.992A3.266,3.266,0,0,0,122.563-2.065Zm24.814.146a3.9,3.9,0,0,0,2.534-.879,3.092,3.092,0,0,0,1.2-2.2h2.563a4.914,4.914,0,0,1-.937,2.593,6.175,6.175,0,0,1-2.307,1.963,6.657,6.657,0,0,1-3.054.732,6.529,6.529,0,0,1-5.149-2.161,8.606,8.606,0,0,1-1.912-5.911v-.454a9.542,9.542,0,0,1,.85-4.116,6.471,6.471,0,0,1,2.439-2.8,6.928,6.928,0,0,1,3.757-1,6.357,6.357,0,0,1,4.431,1.6,5.706,5.706,0,0,1,1.882,4.146h-2.563a3.735,3.735,0,0,0-1.165-2.527,3.623,3.623,0,0,0-2.585-.989,3.793,3.793,0,0,0-3.2,1.487,6.983,6.983,0,0,0-1.135,4.3v.513A6.843,6.843,0,0,0,144.155-3.4,3.811,3.811,0,0,0,147.378-1.919ZM159.668,0h-2.71V-15.85h2.71Zm-2.93-20.054a1.618,1.618,0,0,1,.4-1.113,1.512,1.512,0,0,1,1.194-.454,1.536,1.536,0,0,1,1.2.454,1.6,1.6,0,0,1,.41,1.113,1.548,1.548,0,0,1-.41,1.1,1.564,1.564,0,0,1-1.2.439,1.54,1.54,0,0,1-1.194-.439A1.564,1.564,0,0,1,156.738-20.054Zm9.829,4.2.088,1.992a5.776,5.776,0,0,1,4.746-2.285q5.024,0,5.068,5.669V0h-2.71V-10.488a3.649,3.649,0,0,0-.784-2.534,3.141,3.141,0,0,0-2.4-.82,3.911,3.911,0,0,0-2.314.7,4.775,4.775,0,0,0-1.553,1.846V0H164V-15.85ZM187.134.293a6.925,6.925,0,0,1-5.244-2.117,7.856,7.856,0,0,1-2.021-5.662v-.5a9.511,9.511,0,0,1,.9-4.211,7.028,7.028,0,0,1,2.52-2.9,6.335,6.335,0,0,1,3.508-1.047,5.936,5.936,0,0,1,4.8,2.036,8.816,8.816,0,0,1,1.714,5.83v1.128H182.578a5.634,5.634,0,0,0,1.37,3.787,4.305,4.305,0,0,0,3.333,1.443,4.72,4.72,0,0,0,2.432-.586,6.11,6.11,0,0,0,1.743-1.553l1.655,1.289A6.656,6.656,0,0,1,187.134.293ZM186.8-13.916a3.615,3.615,0,0,0-2.754,1.194,5.8,5.8,0,0,0-1.377,3.347h7.939V-9.58a5.162,5.162,0,0,0-1.113-3.2A3.4,3.4,0,0,0,186.8-13.916Z" transform="translate(692 6482.327)" fill="#02255f"/>
      </g>
      <g id="Grupo_13608" data-name="Grupo 13608" transform="translate(0 -53.349)">
        <path id="Trazado_10629" data-name="Trazado 10629" d="M-.436,0,196.5,6.944,195.575,57-.635,46.309Z" transform="matrix(0.999, -0.035, 0.035, 0.999, 795.635, 6626.408)" fill="#e69bf4"/>
        <path id="Trazado_11189" data-name="Trazado 11189" d="M114.727-1.919a3.9,3.9,0,0,0,2.534-.879,3.092,3.092,0,0,0,1.2-2.2h2.563a4.914,4.914,0,0,1-.937,2.593,6.175,6.175,0,0,1-2.307,1.963,6.657,6.657,0,0,1-3.054.732,6.529,6.529,0,0,1-5.149-2.161,8.606,8.606,0,0,1-1.912-5.911v-.454a9.542,9.542,0,0,1,.85-4.116,6.471,6.471,0,0,1,2.439-2.8,6.928,6.928,0,0,1,3.757-1,6.357,6.357,0,0,1,4.431,1.6,5.706,5.706,0,0,1,1.882,4.146h-2.563a3.735,3.735,0,0,0-1.165-2.527,3.623,3.623,0,0,0-2.585-.989,3.793,3.793,0,0,0-3.2,1.487,6.983,6.983,0,0,0-1.135,4.3v.513A6.843,6.843,0,0,0,111.5-3.4,3.811,3.811,0,0,0,114.727-1.919Zm8.628-6.152a9.362,9.362,0,0,1,.916-4.189,6.83,6.83,0,0,1,2.549-2.871,6.938,6.938,0,0,1,3.728-1.011,6.684,6.684,0,0,1,5.237,2.241,8.623,8.623,0,0,1,2,5.962v.19A9.443,9.443,0,0,1,136.9-3.6a6.729,6.729,0,0,1-2.534,2.864A7.018,7.018,0,0,1,130.576.293a6.667,6.667,0,0,1-5.222-2.241,8.579,8.579,0,0,1-2-5.933Zm2.725.322A6.781,6.781,0,0,0,127.3-3.516a3.914,3.914,0,0,0,3.274,1.6,3.891,3.891,0,0,0,3.281-1.619,7.415,7.415,0,0,0,1.216-4.534,6.769,6.769,0,0,0-1.238-4.226,3.935,3.935,0,0,0-3.289-1.619,3.891,3.891,0,0,0-3.237,1.6A7.36,7.36,0,0,0,126.079-7.749Zm17.666-8.1.088,1.992a5.776,5.776,0,0,1,4.746-2.285q5.024,0,5.068,5.669V0h-2.71V-10.488a3.649,3.649,0,0,0-.784-2.534,3.141,3.141,0,0,0-2.4-.82,3.911,3.911,0,0,0-2.314.7,4.775,4.775,0,0,0-1.553,1.846V0h-2.71V-15.85Zm23.965,0,.073,1.758a5.853,5.853,0,0,1,4.7-2.051q3.325,0,4.526,2.549a6,6,0,0,1,2.058-1.846,6.079,6.079,0,0,1,3-.7q5.215,0,5.3,5.522V0h-2.71V-10.459A3.639,3.639,0,0,0,183.882-13a3.419,3.419,0,0,0-2.607-.842,3.593,3.593,0,0,0-2.5.9,3.655,3.655,0,0,0-1.157,2.424V0h-2.725V-10.386q0-3.457-3.384-3.457a3.626,3.626,0,0,0-3.647,2.271V0h-2.71V-15.85ZM194.4,0h-2.71V-15.85h2.71Zm-2.93-20.054a1.618,1.618,0,0,1,.4-1.113,1.512,1.512,0,0,1,1.194-.454,1.536,1.536,0,0,1,1.2.454,1.6,1.6,0,0,1,.41,1.113,1.548,1.548,0,0,1-.41,1.1,1.564,1.564,0,0,1-1.2.439,1.54,1.54,0,0,1-1.194-.439A1.564,1.564,0,0,1,191.47-20.054ZM212.739.293A6.925,6.925,0,0,1,207.5-1.824a7.856,7.856,0,0,1-2.021-5.662v-.5a9.511,9.511,0,0,1,.9-4.211,7.028,7.028,0,0,1,2.52-2.9,6.335,6.335,0,0,1,3.508-1.047,5.936,5.936,0,0,1,4.8,2.036,8.816,8.816,0,0,1,1.714,5.83v1.128H208.184a5.634,5.634,0,0,0,1.37,3.787,4.305,4.305,0,0,0,3.333,1.443,4.72,4.72,0,0,0,2.432-.586,6.11,6.11,0,0,0,1.743-1.553l1.655,1.289A6.656,6.656,0,0,1,212.739.293ZM212.4-13.916a3.615,3.615,0,0,0-2.754,1.194,5.8,5.8,0,0,0-1.377,3.347h7.939V-9.58a5.162,5.162,0,0,0-1.113-3.2A3.4,3.4,0,0,0,212.4-13.916ZM221.4-8.057a9.3,9.3,0,0,1,1.714-5.911,5.554,5.554,0,0,1,4.6-2.175,5.55,5.55,0,0,1,4.438,1.89l.117-1.6h2.49V6.094h-2.71V-1.465A5.687,5.687,0,0,1,227.681.293,5.466,5.466,0,0,1,223.1-1.941,9.51,9.51,0,0,1,221.4-7.866Zm2.71.308a7.052,7.052,0,0,0,1.15,4.277,3.658,3.658,0,0,0,3.1,1.553,4.058,4.058,0,0,0,3.691-2.139v-7.764a4.071,4.071,0,0,0-3.662-2.095,3.685,3.685,0,0,0-3.12,1.56A7.677,7.677,0,0,0,224.106-7.749Zm24.785,6.182a5.756,5.756,0,0,1-4.644,1.86,4.927,4.927,0,0,1-3.86-1.472,6.372,6.372,0,0,1-1.34-4.358V-15.85h2.71V-5.61q0,3.6,2.93,3.6,3.105,0,4.131-2.314V-15.85h2.71V0H248.95ZM258.589,0h-2.71V-15.85h2.71Zm-2.93-20.054a1.618,1.618,0,0,1,.4-1.113,1.512,1.512,0,0,1,1.194-.454,1.536,1.536,0,0,1,1.2.454,1.6,1.6,0,0,1,.41,1.113,1.548,1.548,0,0,1-.41,1.1,1.564,1.564,0,0,1-1.2.439,1.54,1.54,0,0,1-1.194-.439A1.564,1.564,0,0,1,255.659-20.054Zm20.654,12.3a9.49,9.49,0,0,1-1.655,5.83A5.305,5.305,0,0,1,270.176.293a5.813,5.813,0,0,1-4.541-1.831V6.094h-2.71V-15.85H265.4l.132,1.758a5.583,5.583,0,0,1,4.6-2.051,5.4,5.4,0,0,1,4.519,2.153A9.594,9.594,0,0,1,276.313-8Zm-2.71-.308a7,7,0,0,0-1.143-4.233,3.681,3.681,0,0,0-3.135-1.553,3.984,3.984,0,0,0-3.691,2.183v7.573a3.991,3.991,0,0,0,3.721,2.168,3.663,3.663,0,0,0,3.1-1.545A7.644,7.644,0,0,0,273.6-8.057Zm5.435-.015a9.362,9.362,0,0,1,.916-4.189,6.83,6.83,0,0,1,2.549-2.871,6.938,6.938,0,0,1,3.728-1.011,6.684,6.684,0,0,1,5.237,2.241,8.623,8.623,0,0,1,2,5.962v.19a9.443,9.443,0,0,1-.886,4.153,6.729,6.729,0,0,1-2.534,2.864A7.018,7.018,0,0,1,286.26.293a6.667,6.667,0,0,1-5.222-2.241,8.579,8.579,0,0,1-2-5.933Zm2.725.322a6.781,6.781,0,0,0,1.223,4.233,3.914,3.914,0,0,0,3.274,1.6,3.891,3.891,0,0,0,3.281-1.619,7.415,7.415,0,0,0,1.216-4.534,6.769,6.769,0,0,0-1.238-4.226,3.935,3.935,0,0,0-3.289-1.619,3.891,3.891,0,0,0-3.237,1.6A7.36,7.36,0,0,0,281.763-7.749Z" transform="translate(692 6659.236)" fill="#fff"/>
        <path id="Trazado_11190" data-name="Trazado 11190" d="M17.212-19.014H10.356V0h-2.8V-19.014H.718v-2.314H17.212Zm9.3,5.6a8.121,8.121,0,0,0-1.333-.1,3.571,3.571,0,0,0-3.618,2.271V0h-2.71V-15.85h2.637l.044,1.831a4.22,4.22,0,0,1,3.779-2.124,2.769,2.769,0,0,1,1.2.205ZM38.2,0a5.693,5.693,0,0,1-.381-1.67A6.046,6.046,0,0,1,33.311.293a5.6,5.6,0,0,1-3.845-1.326,4.289,4.289,0,0,1-1.5-3.362A4.481,4.481,0,0,1,29.846-8.24a8.875,8.875,0,0,1,5.3-1.37h2.637v-1.245a3.044,3.044,0,0,0-.85-2.263,3.415,3.415,0,0,0-2.5-.842,3.952,3.952,0,0,0-2.432.732,2.158,2.158,0,0,0-.981,1.772H28.286a3.74,3.74,0,0,1,.842-2.292,5.749,5.749,0,0,1,2.285-1.75,7.688,7.688,0,0,1,3.171-.645,6.266,6.266,0,0,1,4.292,1.37A4.941,4.941,0,0,1,40.488-11v7.295a8.919,8.919,0,0,0,.557,3.472V0Zm-4.5-2.065a4.763,4.763,0,0,0,2.417-.659,3.987,3.987,0,0,0,1.655-1.714V-7.69H35.654q-4.98,0-4.98,2.915a2.467,2.467,0,0,0,.85,1.992A3.266,3.266,0,0,0,33.706-2.065ZM58.154-7.749a9.424,9.424,0,0,1-1.67,5.837A5.336,5.336,0,0,1,52,.293a5.525,5.525,0,0,1-4.644-2.124L47.227,0h-2.49V-22.5h2.71v8.394a5.494,5.494,0,0,1,4.526-2.036,5.368,5.368,0,0,1,4.534,2.183,9.707,9.707,0,0,1,1.648,5.977Zm-2.71-.308a7.323,7.323,0,0,0-1.069-4.277A3.54,3.54,0,0,0,51.3-13.843a3.979,3.979,0,0,0-3.853,2.49V-4.5a4.09,4.09,0,0,0,3.882,2.49A3.52,3.52,0,0,0,54.36-3.516,7.787,7.787,0,0,0,55.444-8.057ZM71.353,0a5.693,5.693,0,0,1-.381-1.67A6.046,6.046,0,0,1,66.46.293a5.6,5.6,0,0,1-3.845-1.326,4.289,4.289,0,0,1-1.5-3.362A4.481,4.481,0,0,1,63-8.24a8.875,8.875,0,0,1,5.3-1.37h2.637v-1.245a3.044,3.044,0,0,0-.85-2.263,3.415,3.415,0,0,0-2.5-.842,3.952,3.952,0,0,0-2.432.732,2.158,2.158,0,0,0-.981,1.772H61.436a3.74,3.74,0,0,1,.842-2.292,5.749,5.749,0,0,1,2.285-1.75,7.688,7.688,0,0,1,3.171-.645,6.266,6.266,0,0,1,4.292,1.37A4.941,4.941,0,0,1,73.638-11v7.295a8.919,8.919,0,0,0,.557,3.472V0Zm-4.5-2.065a4.763,4.763,0,0,0,2.417-.659,3.987,3.987,0,0,0,1.655-1.714V-7.69H68.8q-4.98,0-4.98,2.915a2.467,2.467,0,0,0,.85,1.992A3.266,3.266,0,0,0,66.855-2.065ZM80.684-15.85V1.831q0,4.57-4.146,4.57a5.028,5.028,0,0,1-1.655-.264V3.97a5.239,5.239,0,0,0,1.23.117A1.842,1.842,0,0,0,77.5,3.6a2.426,2.426,0,0,0,.476-1.707V-15.85Zm-2.988-4.2a1.625,1.625,0,0,1,.4-1.106,1.481,1.481,0,0,1,1.179-.461,1.536,1.536,0,0,1,1.2.454,1.6,1.6,0,0,1,.41,1.113,1.548,1.548,0,0,1-.41,1.1,1.564,1.564,0,0,1-1.2.439,1.516,1.516,0,0,1-1.187-.439A1.581,1.581,0,0,1,77.7-20.054ZM91.626.293a6.925,6.925,0,0,1-5.244-2.117A7.856,7.856,0,0,1,84.36-7.485v-.5a9.511,9.511,0,0,1,.9-4.211,7.028,7.028,0,0,1,2.52-2.9,6.335,6.335,0,0,1,3.508-1.047,5.936,5.936,0,0,1,4.8,2.036,8.816,8.816,0,0,1,1.714,5.83v1.128H87.07a5.634,5.634,0,0,0,1.37,3.787,4.305,4.305,0,0,0,3.333,1.443A4.72,4.72,0,0,0,94.2-2.5a6.11,6.11,0,0,0,1.743-1.553L97.6-2.769A6.656,6.656,0,0,1,91.626.293Zm-.337-14.209a3.615,3.615,0,0,0-2.754,1.194,5.8,5.8,0,0,0-1.377,3.347H95.1V-9.58a5.162,5.162,0,0,0-1.113-3.2A3.4,3.4,0,0,0,91.289-13.916ZM92.607-22.5h3.281l-3.926,4.307H89.78ZM107.666-7.778v0ZM310.869.293a6.925,6.925,0,0,1-5.244-2.117A7.856,7.856,0,0,1,303.6-7.485v-.5a9.511,9.511,0,0,1,.9-4.211,7.028,7.028,0,0,1,2.52-2.9,6.335,6.335,0,0,1,3.508-1.047,5.936,5.936,0,0,1,4.8,2.036,8.816,8.816,0,0,1,1.714,5.83v1.128H306.313a5.634,5.634,0,0,0,1.37,3.787,4.305,4.305,0,0,0,3.333,1.443,4.72,4.72,0,0,0,2.432-.586,6.11,6.11,0,0,0,1.743-1.553l1.655,1.289A6.656,6.656,0,0,1,310.869.293Zm-.337-14.209a3.615,3.615,0,0,0-2.754,1.194A5.8,5.8,0,0,0,306.4-9.375h7.939V-9.58a5.162,5.162,0,0,0-1.113-3.2A3.4,3.4,0,0,0,310.532-13.916Zm12.217-1.934.088,1.992a5.776,5.776,0,0,1,4.746-2.285q5.024,0,5.068,5.669V0h-2.71V-10.488a3.649,3.649,0,0,0-.784-2.534,3.141,3.141,0,0,0-2.4-.82,3.911,3.911,0,0,0-2.314.7,4.775,4.775,0,0,0-1.553,1.846V0h-2.71V-15.85ZM347.109,0H344.4V-22.5h2.71ZM361.23,0a5.693,5.693,0,0,1-.381-1.67A6.046,6.046,0,0,1,356.338.293a5.6,5.6,0,0,1-3.845-1.326,4.289,4.289,0,0,1-1.5-3.362,4.481,4.481,0,0,1,1.882-3.845,8.875,8.875,0,0,1,5.3-1.37h2.637v-1.245a3.044,3.044,0,0,0-.85-2.263,3.415,3.415,0,0,0-2.5-.842,3.952,3.952,0,0,0-2.432.732,2.158,2.158,0,0,0-.981,1.772h-2.725a3.74,3.74,0,0,1,.842-2.292,5.749,5.749,0,0,1,2.285-1.75,7.688,7.688,0,0,1,3.171-.645,6.266,6.266,0,0,1,4.292,1.37A4.941,4.941,0,0,1,363.516-11v7.295a8.919,8.919,0,0,0,.557,3.472V0Zm-4.5-2.065a4.763,4.763,0,0,0,2.417-.659,3.987,3.987,0,0,0,1.655-1.714V-7.69h-2.124q-4.98,0-4.98,2.915a2.467,2.467,0,0,0,.85,1.992A3.266,3.266,0,0,0,356.733-2.065Zm22.134-17.622v3.838h2.959v2.095h-2.959v9.829a2.2,2.2,0,0,0,.4,1.428,1.666,1.666,0,0,0,1.348.476A6.561,6.561,0,0,0,381.9-2.2V0a7.856,7.856,0,0,1-2.08.293,3.375,3.375,0,0,1-2.739-1.1,4.72,4.72,0,0,1-.923-3.12v-9.829h-2.886V-15.85h2.886v-3.838ZM394.775,0a5.693,5.693,0,0,1-.381-1.67A6.046,6.046,0,0,1,389.883.293a5.6,5.6,0,0,1-3.845-1.326,4.289,4.289,0,0,1-1.5-3.362,4.481,4.481,0,0,1,1.882-3.845,8.875,8.875,0,0,1,5.3-1.37h2.637v-1.245a3.044,3.044,0,0,0-.85-2.263,3.415,3.415,0,0,0-2.5-.842,3.952,3.952,0,0,0-2.432.732,2.158,2.158,0,0,0-.981,1.772h-2.725a3.74,3.74,0,0,1,.842-2.292,5.749,5.749,0,0,1,2.285-1.75,7.688,7.688,0,0,1,3.171-.645,6.266,6.266,0,0,1,4.292,1.37A4.941,4.941,0,0,1,397.061-11v7.295a8.919,8.919,0,0,0,.557,3.472V0Zm-4.5-2.065a4.763,4.763,0,0,0,2.417-.659,3.987,3.987,0,0,0,1.655-1.714V-7.69h-2.124q-4.98,0-4.98,2.915a2.467,2.467,0,0,0,.85,1.992A3.266,3.266,0,0,0,390.278-2.065ZM408.97-13.418a8.121,8.121,0,0,0-1.333-.1,3.571,3.571,0,0,0-3.618,2.271V0h-2.71V-15.85h2.637l.044,1.831a4.22,4.22,0,0,1,3.779-2.124,2.769,2.769,0,0,1,1.2.205Zm1.553,5.361a9.285,9.285,0,0,1,1.729-5.867,5.466,5.466,0,0,1,4.526-2.219,5.5,5.5,0,0,1,4.409,1.9V-22.5h2.71V0h-2.49l-.132-1.7A5.519,5.519,0,0,1,416.748.293a5.414,5.414,0,0,1-4.49-2.256,9.39,9.39,0,0,1-1.736-5.889Zm2.71.308a7.03,7.03,0,0,0,1.113,4.219,3.6,3.6,0,0,0,3.076,1.523,3.953,3.953,0,0,0,3.765-2.314V-11.6a3.984,3.984,0,0,0-3.735-2.241,3.616,3.616,0,0,0-3.105,1.538A7.74,7.74,0,0,0,413.232-7.749ZM434.678.293a6.925,6.925,0,0,1-5.244-2.117,7.856,7.856,0,0,1-2.021-5.662v-.5a9.511,9.511,0,0,1,.9-4.211,7.028,7.028,0,0,1,2.52-2.9,6.335,6.335,0,0,1,3.508-1.047,5.936,5.936,0,0,1,4.8,2.036,8.816,8.816,0,0,1,1.714,5.83v1.128H430.122a5.634,5.634,0,0,0,1.37,3.787,4.305,4.305,0,0,0,3.333,1.443,4.72,4.72,0,0,0,2.432-.586A6.11,6.11,0,0,0,439-4.058l1.655,1.289A6.656,6.656,0,0,1,434.678.293Zm-.337-14.209a3.615,3.615,0,0,0-2.754,1.194,5.8,5.8,0,0,0-1.377,3.347h7.939V-9.58a5.162,5.162,0,0,0-1.113-3.2A3.4,3.4,0,0,0,434.341-13.916Z" transform="translate(692 6658.929)" fill="#09347b"/>
      </g>
    </g>
    <text id="complemento_circunstancial_de_tiempo" data-name="complemento circunstancial de tiempo" transform="translate(835 6467)" fill="#892bc7" font-size="19" font-family="Roboto-Bold, Roboto" font-weight="700"><tspan x="0" y="0">complemento circunstancial de tiempo</tspan></text>
    <text id="complemento_circunstancial_de_compañía" data-name="complemento circunstancial de compañía" transform="translate(810 6593)" fill="#892bc7" font-size="19" font-family="Roboto-Bold, Roboto" font-weight="700"><tspan x="0" y="0">complemento circunstancial de compañía</tspan></text>
  </g>
</svg>
