<svg xmlns="http://www.w3.org/2000/svg" width="299.281" height="86.176" viewBox="0 0 299.281 86.176">
  <g id="Grupo_13616" data-name="Grupo 13616" transform="translate(-736 -11102)">
    <path id="Trazado_11204" data-name="Trazado 11204" d="M2.891,0V-28.437h9.746q4.824,0,7.344,1.934a6.81,6.81,0,0,1,2.52,5.762,6.141,6.141,0,0,1-1.055,3.516A6.789,6.789,0,0,1,18.359-14.8a6.277,6.277,0,0,1,3.564,2.354,6.855,6.855,0,0,1,1.26,4.15,7.571,7.571,0,0,1-2.568,6.152Q18.047,0,13.262,0ZM7.832-12.832v8.887H13.32A5.311,5.311,0,0,0,16.953-5.1a4.045,4.045,0,0,0,1.309-3.2q0-4.434-4.531-4.531Zm0-3.633h4.844a5.6,5.6,0,0,0,3.6-1.045,3.58,3.58,0,0,0,1.3-2.959,3.629,3.629,0,0,0-1.2-3.047,6.066,6.066,0,0,0-3.74-.937h-4.8Zm18.945,5.7a12.461,12.461,0,0,1,1.23-5.6,8.987,8.987,0,0,1,3.457-3.828,9.74,9.74,0,0,1,5.117-1.338,9.231,9.231,0,0,1,6.943,2.754,10.832,10.832,0,0,1,2.881,7.3l.02,1.113a12.572,12.572,0,0,1-1.2,5.586A8.879,8.879,0,0,1,41.787-.957,9.812,9.812,0,0,1,36.621.391a9.167,9.167,0,0,1-7.158-2.979,11.408,11.408,0,0,1-2.686-7.939Zm4.746.41a8.515,8.515,0,0,0,1.348,5.107A4.381,4.381,0,0,0,36.621-3.4a4.333,4.333,0,0,0,3.74-1.875A9.4,9.4,0,0,0,41.7-10.762a8.406,8.406,0,0,0-1.377-5.078,4.4,4.4,0,0,0-3.74-1.875,4.357,4.357,0,0,0-3.691,1.846A9.228,9.228,0,0,0,31.523-10.352Zm48.047.176H69.316V-14H79.57Zm22.949-.547a12.564,12.564,0,0,1,2.266-7.842,7.259,7.259,0,0,1,6.074-2.959,6.9,6.9,0,0,1,5.43,2.344V-30h4.746V0h-4.3L116.5-2.187A7,7,0,0,1,110.82.391,7.219,7.219,0,0,1,104.814-2.6Q102.52-5.586,102.52-10.723Zm4.746.41a8.8,8.8,0,0,0,1.24,5.029,4.024,4.024,0,0,0,3.525,1.807,4.482,4.482,0,0,0,4.258-2.6V-15.1a4.414,4.414,0,0,0-4.219-2.539,4.054,4.054,0,0,0-3.555,1.826A9.8,9.8,0,0,0,107.266-10.312ZM135.293.391a9.819,9.819,0,0,1-7.314-2.842,10.309,10.309,0,0,1-2.8-7.568v-.586A12.681,12.681,0,0,1,126.4-16.26a9.291,9.291,0,0,1,3.428-3.877,9.062,9.062,0,0,1,4.922-1.387,8.3,8.3,0,0,1,6.67,2.754q2.354,2.754,2.354,7.793v1.914H129.961a6.346,6.346,0,0,0,1.748,4.141A5.248,5.248,0,0,0,135.566-3.4a6.427,6.427,0,0,0,5.313-2.637l2.559,2.441a8.544,8.544,0,0,1-3.389,2.939A10.609,10.609,0,0,1,135.293.391Zm-.566-18.105a4,4,0,0,0-3.154,1.367,7.086,7.086,0,0,0-1.533,3.809h9.043v-.352a5.769,5.769,0,0,0-1.27-3.6A3.966,3.966,0,0,0,134.727-17.715Zm41.855,7.539H166.328V-14h10.254Zm23.008-.547a12.36,12.36,0,0,1,2.314-7.861,7.428,7.428,0,0,1,6.143-2.939A6.959,6.959,0,0,1,213.73-19l.215-2.129h4.277V-.645a8.516,8.516,0,0,1-2.588,6.563,9.857,9.857,0,0,1-6.982,2.4,11.254,11.254,0,0,1-4.541-.967,8.069,8.069,0,0,1-3.369-2.529l2.246-2.852a6.783,6.783,0,0,0,5.391,2.6,5.243,5.243,0,0,0,3.73-1.279,4.9,4.9,0,0,0,1.367-3.76V-1.895A6.988,6.988,0,0,1,208.008.391a7.411,7.411,0,0,1-6.064-2.949Q199.59-5.508,199.59-10.723Zm4.727.41a8.508,8.508,0,0,0,1.3,5.01,4.176,4.176,0,0,0,3.6,1.826,4.567,4.567,0,0,0,4.258-2.461v-9.3a4.5,4.5,0,0,0-4.219-2.4,4.193,4.193,0,0,0-3.643,1.855A9.527,9.527,0,0,0,204.316-10.312Zm17.891-.449a12.461,12.461,0,0,1,1.23-5.6,8.987,8.987,0,0,1,3.457-3.828,9.74,9.74,0,0,1,5.117-1.338,9.231,9.231,0,0,1,6.943,2.754,10.832,10.832,0,0,1,2.881,7.3l.02,1.113a12.572,12.572,0,0,1-1.2,5.586,8.879,8.879,0,0,1-3.437,3.809A9.812,9.812,0,0,1,232.051.391a9.167,9.167,0,0,1-7.158-2.979,11.408,11.408,0,0,1-2.686-7.939Zm4.746.41A8.515,8.515,0,0,0,228.3-5.244a4.381,4.381,0,0,0,3.75,1.846,4.333,4.333,0,0,0,3.74-1.875,9.4,9.4,0,0,0,1.338-5.488,8.406,8.406,0,0,0-1.377-5.078,4.4,4.4,0,0,0-3.74-1.875,4.357,4.357,0,0,0-3.691,1.846A9.228,9.228,0,0,0,226.953-10.352ZM233.32-30h5.41l-5.41,5.918h-3.809Zm16.953,8.867.137,2.441a7.6,7.6,0,0,1,6.152-2.832q6.6,0,6.719,7.559V0h-4.746V-13.691a4.352,4.352,0,0,0-.869-2.979,3.656,3.656,0,0,0-2.842-.967,4.573,4.573,0,0,0-4.277,2.6V0H245.8V-21.133Z" transform="translate(772 11132)" fill="#09347b"/>
    <g id="Grupo_13127" data-name="Grupo 13127" transform="translate(-3804.235 10328.742)">
      <circle id="Elipse_503" data-name="Elipse 503" cx="8.579" cy="8.579" r="8.579" transform="translate(4540.235 783.529)" fill="#26c179"/>
      <g id="Grupo_10024" data-name="Grupo 10024" transform="translate(4543.576 784.48)">
        <path id="Trazado_1490" data-name="Trazado 1490" d="M4619.155,817.733a1.125,1.125,0,0,1-.8-.33l-3.577-3.576a1.125,1.125,0,0,1,1.592-1.592l2.78,2.781,10.036-10.036a1.125,1.125,0,0,1,1.592,1.591L4619.951,817.4A1.125,1.125,0,0,1,4619.155,817.733Z" transform="translate(-4614.454 -804.651)" fill="#02255f"/>
      </g>
    </g>
    <path id="Trazado_11202" data-name="Trazado 11202" d="M7.5,0,15,13H0Z" transform="translate(805 11160) rotate(180)" fill="#26c179"/>
    <path id="Trazado_11203" data-name="Trazado 11203" d="M7.5,0,15,13H0Z" transform="translate(901 11160) rotate(180)" fill="#26c179"/>
    <path id="Trazado_11205" data-name="Trazado 11205" d="M3.437-11.812v2.3H5.212v1.257H3.437v5.9a1.317,1.317,0,0,0,.237.857,1,1,0,0,0,.809.286,3.937,3.937,0,0,0,.773-.105V0A4.714,4.714,0,0,1,4.008.176,2.025,2.025,0,0,1,2.364-.483a2.832,2.832,0,0,1-.554-1.872v-5.9H.079V-9.51H1.811v-2.3ZM6.5-4.843a5.617,5.617,0,0,1,.549-2.514A4.1,4.1,0,0,1,8.583-9.079a4.163,4.163,0,0,1,2.237-.606,4.01,4.01,0,0,1,3.142,1.345,5.174,5.174,0,0,1,1.2,3.577v.114a5.666,5.666,0,0,1-.532,2.492A4.038,4.038,0,0,1,13.109-.439a4.211,4.211,0,0,1-2.272.615A4,4,0,0,1,7.7-1.169a5.147,5.147,0,0,1-1.2-3.56Zm1.635.193a4.068,4.068,0,0,0,.734,2.54,2.349,2.349,0,0,0,1.964.958,2.335,2.335,0,0,0,1.969-.971,4.449,4.449,0,0,0,.729-2.72,4.061,4.061,0,0,0-.743-2.536,2.361,2.361,0,0,0-1.973-.971,2.335,2.335,0,0,0-1.942.958A4.416,4.416,0,0,0,8.139-4.649ZM11.558-13.5h1.969l-2.355,2.584H9.861Zm7.181,3.99.053,1.2a3.465,3.465,0,0,1,2.848-1.371q3.015,0,3.041,3.4V0H23.054V-6.293a2.189,2.189,0,0,0-.47-1.521,1.884,1.884,0,0,0-1.437-.492,2.347,2.347,0,0,0-1.389.422,2.865,2.865,0,0,0-.932,1.107V0H17.2V-9.51ZM28.9,0H27.272V-9.51H28.9ZM27.141-12.032a.971.971,0,0,1,.242-.668.907.907,0,0,1,.716-.272.922.922,0,0,1,.721.272.96.96,0,0,1,.246.668.929.929,0,0,1-.246.659.938.938,0,0,1-.721.264.924.924,0,0,1-.716-.264A.938.938,0,0,1,27.141-12.032ZM35.314-1.151a2.342,2.342,0,0,0,1.521-.527A1.855,1.855,0,0,0,37.556-3h1.538a2.949,2.949,0,0,1-.562,1.556A3.7,3.7,0,0,1,37.147-.264a3.994,3.994,0,0,1-1.833.439,3.918,3.918,0,0,1-3.089-1.3,5.163,5.163,0,0,1-1.147-3.546v-.272a5.725,5.725,0,0,1,.51-2.47,3.883,3.883,0,0,1,1.463-1.679,4.157,4.157,0,0,1,2.254-.6,3.814,3.814,0,0,1,2.659.958A3.424,3.424,0,0,1,39.094-6.24H37.556a2.241,2.241,0,0,0-.7-1.516,2.174,2.174,0,0,0-1.551-.593,2.276,2.276,0,0,0-1.92.892,4.19,4.19,0,0,0-.681,2.58v.308a4.106,4.106,0,0,0,.677,2.531A2.287,2.287,0,0,0,35.314-1.151ZM46.793,0a3.416,3.416,0,0,1-.229-1A3.628,3.628,0,0,1,43.857.176a3.357,3.357,0,0,1-2.307-.8,2.573,2.573,0,0,1-.9-2.017,2.688,2.688,0,0,1,1.129-2.307,5.325,5.325,0,0,1,3.177-.822h1.582v-.747a1.826,1.826,0,0,0-.51-1.358,2.049,2.049,0,0,0-1.5-.505,2.371,2.371,0,0,0-1.459.439,1.3,1.3,0,0,0-.589,1.063H40.843a2.244,2.244,0,0,1,.505-1.375A3.449,3.449,0,0,1,42.719-9.3a4.613,4.613,0,0,1,1.9-.387,3.759,3.759,0,0,1,2.575.822A2.964,2.964,0,0,1,48.164-6.6v4.377A5.351,5.351,0,0,0,48.5-.141V0Zm-2.7-1.239a2.858,2.858,0,0,0,1.45-.4,2.392,2.392,0,0,0,.993-1.028V-4.614H45.264q-2.988,0-2.988,1.749a1.48,1.48,0,0,0,.51,1.2A1.959,1.959,0,0,0,44.095-1.239Z" transform="translate(977 11188)" fill="#09347b"/>
    <path id="Trazado_11200" data-name="Trazado 11200" d="M7.1,0a3.416,3.416,0,0,1-.229-1A3.628,3.628,0,0,1,4.166.176a3.357,3.357,0,0,1-2.307-.8,2.573,2.573,0,0,1-.9-2.017A2.688,2.688,0,0,1,2.087-4.944a5.325,5.325,0,0,1,3.177-.822H6.847v-.747a1.826,1.826,0,0,0-.51-1.358,2.049,2.049,0,0,0-1.5-.505,2.371,2.371,0,0,0-1.459.439,1.3,1.3,0,0,0-.589,1.063H1.151a2.244,2.244,0,0,1,.505-1.375A3.449,3.449,0,0,1,3.028-9.3a4.613,4.613,0,0,1,1.9-.387,3.759,3.759,0,0,1,2.575.822A2.964,2.964,0,0,1,8.473-6.6v4.377A5.351,5.351,0,0,0,8.807-.141V0ZM4.4-1.239a2.858,2.858,0,0,0,1.45-.4,2.392,2.392,0,0,0,.993-1.028V-4.614H5.572q-2.988,0-2.988,1.749a1.48,1.48,0,0,0,.51,1.2A1.959,1.959,0,0,0,4.4-1.239ZM5.906-13.5H7.875L5.52-10.916H4.21Zm7.321,1.688v2.3H15v1.257H13.228v5.9a1.317,1.317,0,0,0,.237.857,1,1,0,0,0,.809.286,3.937,3.937,0,0,0,.773-.105V0A4.714,4.714,0,0,1,13.8.176a2.025,2.025,0,0,1-1.644-.659A2.832,2.832,0,0,1,11.6-2.355v-5.9H9.87V-9.51H11.6v-2.3Zm3.067,6.97a5.617,5.617,0,0,1,.549-2.514,4.1,4.1,0,0,1,1.529-1.723,4.163,4.163,0,0,1,2.237-.606,4.01,4.01,0,0,1,3.142,1.345,5.174,5.174,0,0,1,1.2,3.577v.114a5.666,5.666,0,0,1-.532,2.492A4.038,4.038,0,0,1,22.9-.439a4.211,4.211,0,0,1-2.272.615,4,4,0,0,1-3.133-1.345,5.147,5.147,0,0,1-1.2-3.56Zm1.635.193a4.068,4.068,0,0,0,.734,2.54,2.349,2.349,0,0,0,1.964.958A2.335,2.335,0,0,0,22.6-2.123a4.449,4.449,0,0,0,.729-2.72,4.061,4.061,0,0,0-.743-2.536A2.361,2.361,0,0,0,20.61-8.35a2.335,2.335,0,0,0-1.942.958A4.416,4.416,0,0,0,17.93-4.649Zm10.6-4.86.053,1.2A3.465,3.465,0,0,1,31.43-9.686q3.015,0,3.041,3.4V0H32.845V-6.293a2.189,2.189,0,0,0-.47-1.521,1.884,1.884,0,0,0-1.437-.492,2.347,2.347,0,0,0-1.389.422,2.865,2.865,0,0,0-.932,1.107V0H26.991V-9.51ZM42.794,0a3.416,3.416,0,0,1-.229-1A3.628,3.628,0,0,1,39.858.176a3.357,3.357,0,0,1-2.307-.8,2.573,2.573,0,0,1-.9-2.017A2.688,2.688,0,0,1,37.78-4.944a5.325,5.325,0,0,1,3.177-.822h1.582v-.747a1.826,1.826,0,0,0-.51-1.358,2.049,2.049,0,0,0-1.5-.505,2.371,2.371,0,0,0-1.459.439,1.3,1.3,0,0,0-.589,1.063H36.844a2.244,2.244,0,0,1,.505-1.375A3.449,3.449,0,0,1,38.72-9.3a4.613,4.613,0,0,1,1.9-.387,3.759,3.759,0,0,1,2.575.822A2.964,2.964,0,0,1,44.165-6.6v4.377A5.351,5.351,0,0,0,44.5-.141V0ZM40.1-1.239a2.858,2.858,0,0,0,1.45-.4,2.392,2.392,0,0,0,.993-1.028V-4.614H41.265q-2.988,0-2.988,1.749a1.48,1.48,0,0,0,.51,1.2A1.959,1.959,0,0,0,40.1-1.239Z" transform="translate(773 11188)" fill="#09347b"/>
    <path id="Trazado_11201" data-name="Trazado 11201" d="M7.1,0a3.416,3.416,0,0,1-.229-1A3.628,3.628,0,0,1,4.166.176a3.357,3.357,0,0,1-2.307-.8,2.573,2.573,0,0,1-.9-2.017A2.688,2.688,0,0,1,2.087-4.944a5.325,5.325,0,0,1,3.177-.822H6.847v-.747a1.826,1.826,0,0,0-.51-1.358,2.049,2.049,0,0,0-1.5-.505,2.371,2.371,0,0,0-1.459.439,1.3,1.3,0,0,0-.589,1.063H1.151a2.244,2.244,0,0,1,.505-1.375A3.449,3.449,0,0,1,3.028-9.3a4.613,4.613,0,0,1,1.9-.387,3.759,3.759,0,0,1,2.575.822A2.964,2.964,0,0,1,8.473-6.6v4.377A5.351,5.351,0,0,0,8.807-.141V0ZM4.4-1.239a2.858,2.858,0,0,0,1.45-.4,2.392,2.392,0,0,0,.993-1.028V-4.614H5.572q-2.988,0-2.988,1.749a1.48,1.48,0,0,0,.51,1.2A1.959,1.959,0,0,0,4.4-1.239ZM5.906-13.5H7.875L5.52-10.916H4.21Zm7.321,1.688v2.3H15v1.257H13.228v5.9a1.317,1.317,0,0,0,.237.857,1,1,0,0,0,.809.286,3.937,3.937,0,0,0,.773-.105V0A4.714,4.714,0,0,1,13.8.176a2.025,2.025,0,0,1-1.644-.659A2.832,2.832,0,0,1,11.6-2.355v-5.9H9.87V-9.51H11.6v-2.3Zm3.067,6.97a5.617,5.617,0,0,1,.549-2.514,4.1,4.1,0,0,1,1.529-1.723,4.163,4.163,0,0,1,2.237-.606,4.01,4.01,0,0,1,3.142,1.345,5.174,5.174,0,0,1,1.2,3.577v.114a5.666,5.666,0,0,1-.532,2.492A4.038,4.038,0,0,1,22.9-.439a4.211,4.211,0,0,1-2.272.615,4,4,0,0,1-3.133-1.345,5.147,5.147,0,0,1-1.2-3.56Zm1.635.193a4.068,4.068,0,0,0,.734,2.54,2.349,2.349,0,0,0,1.964.958A2.335,2.335,0,0,0,22.6-2.123a4.449,4.449,0,0,0,.729-2.72,4.061,4.061,0,0,0-.743-2.536A2.361,2.361,0,0,0,20.61-8.35a2.335,2.335,0,0,0-1.942.958A4.416,4.416,0,0,0,17.93-4.649Zm10.6-4.86.053,1.2A3.465,3.465,0,0,1,31.43-9.686q3.015,0,3.041,3.4V0H32.845V-6.293a2.189,2.189,0,0,0-.47-1.521,1.884,1.884,0,0,0-1.437-.492,2.347,2.347,0,0,0-1.389.422,2.865,2.865,0,0,0-.932,1.107V0H26.991V-9.51ZM42.794,0a3.416,3.416,0,0,1-.229-1A3.628,3.628,0,0,1,39.858.176a3.357,3.357,0,0,1-2.307-.8,2.573,2.573,0,0,1-.9-2.017A2.688,2.688,0,0,1,37.78-4.944a5.325,5.325,0,0,1,3.177-.822h1.582v-.747a1.826,1.826,0,0,0-.51-1.358,2.049,2.049,0,0,0-1.5-.505,2.371,2.371,0,0,0-1.459.439,1.3,1.3,0,0,0-.589,1.063H36.844a2.244,2.244,0,0,1,.505-1.375A3.449,3.449,0,0,1,38.72-9.3a4.613,4.613,0,0,1,1.9-.387,3.759,3.759,0,0,1,2.575.822A2.964,2.964,0,0,1,44.165-6.6v4.377A5.351,5.351,0,0,0,44.5-.141V0ZM40.1-1.239a2.858,2.858,0,0,0,1.45-.4,2.392,2.392,0,0,0,.993-1.028V-4.614H41.265q-2.988,0-2.988,1.749a1.48,1.48,0,0,0,.51,1.2A1.959,1.959,0,0,0,40.1-1.239Z" transform="translate(872 11188)" fill="#09347b"/>
    <path id="Trazado_11206" data-name="Trazado 11206" d="M7.5,0,15,13H0Z" transform="translate(1008 11160) rotate(180)" fill="#26c179"/>
  </g>
</svg>
