<svg xmlns="http://www.w3.org/2000/svg" width="640" height="241" viewBox="0 0 640 241">
  <g id="Grupo_13653" data-name="Grupo 13653" transform="translate(-353 -2222)">
    <ellipse id="Elipse_581" data-name="Elipse 581" cx="320" cy="120.5" rx="320" ry="120.5" transform="translate(353 2222)" fill="#fff"/>
    <g id="Grupo_13593" data-name="Grupo 13593">
      <path id="Trazado_11267" data-name="Trazado 11267" d="M9.507-4.1a1.654,1.654,0,0,0-.645-1.4,8.454,8.454,0,0,0-2.32-1.031A16.449,16.449,0,0,1,3.889-7.605a4.335,4.335,0,0,1-2.664-3.878,3.777,3.777,0,0,1,.714-2.261A4.66,4.66,0,0,1,3.991-15.3a7.723,7.723,0,0,1,3-.559,7.029,7.029,0,0,1,2.986.607,4.755,4.755,0,0,1,2.036,1.713,4.483,4.483,0,0,1,.725,2.514H9.518a2.109,2.109,0,0,0-.677-1.67,2.782,2.782,0,0,0-1.9-.6,2.972,2.972,0,0,0-1.837.5,1.576,1.576,0,0,0-.655,1.316,1.509,1.509,0,0,0,.768,1.278,8.678,8.678,0,0,0,2.261.967,9.77,9.77,0,0,1,4.007,2.052A4.086,4.086,0,0,1,12.74-4.125,3.764,3.764,0,0,1,11.2-.94,6.725,6.725,0,0,1,7.068.215,7.986,7.986,0,0,1,3.781-.446,5.2,5.2,0,0,1,1.52-2.256,4.635,4.635,0,0,1,.741-4.92H3.975q0,2.589,3.094,2.589A3.01,3.01,0,0,0,8.862-2.8,1.52,1.52,0,0,0,9.507-4.1ZM17.993,0H14.878V-11.623h3.115ZM14.7-14.631a1.529,1.529,0,0,1,.467-1.149,1.755,1.755,0,0,1,1.273-.451,1.759,1.759,0,0,1,1.268.451,1.52,1.52,0,0,1,.473,1.149,1.524,1.524,0,0,1-.478,1.16,1.764,1.764,0,0,1-1.262.451,1.764,1.764,0,0,1-1.262-.451A1.524,1.524,0,0,1,14.7-14.631ZM20.1-5.9a6.812,6.812,0,0,1,1.273-4.308A4.125,4.125,0,0,1,24.8-11.838a3.617,3.617,0,0,1,2.976,1.311l.129-1.1h2.814V-.387a4.968,4.968,0,0,1-.693,2.653,4.45,4.45,0,0,1-1.95,1.719,6.854,6.854,0,0,1-2.943.591,6.373,6.373,0,0,1-2.492-.51A4.423,4.423,0,0,1,20.808,2.75L22.183.859A3.637,3.637,0,0,0,25,2.159,2.662,2.662,0,0,0,26.92,1.5a2.478,2.478,0,0,0,.688-1.875V-1A3.591,3.591,0,0,1,24.782.215a4.114,4.114,0,0,1-3.389-1.638A6.81,6.81,0,0,1,20.1-5.769Zm3.1.226A4.23,4.23,0,0,0,23.837-3.2a2.017,2.017,0,0,0,1.74.9,2.157,2.157,0,0,0,2.03-1.063V-8.25A2.152,2.152,0,0,0,25.6-9.313a2.03,2.03,0,0,0-1.756.913A4.768,4.768,0,0,0,23.2-5.672Zm12.762-5.951.1,1.343A4.058,4.058,0,0,1,39.4-11.838a3.372,3.372,0,0,1,2.75,1.085,5.062,5.062,0,0,1,.924,3.244V0h-3.1V-7.434a2.014,2.014,0,0,0-.43-1.434,1.924,1.924,0,0,0-1.429-.446A2.136,2.136,0,0,0,36.147-8.2V0h-3.1V-11.623ZM48.705,0H45.59V-11.623h3.115Zm-3.3-14.631a1.529,1.529,0,0,1,.467-1.149,1.755,1.755,0,0,1,1.273-.451,1.759,1.759,0,0,1,1.268.451,1.52,1.52,0,0,1,.473,1.149,1.524,1.524,0,0,1-.478,1.16,1.764,1.764,0,0,1-1.262.451,1.764,1.764,0,0,1-1.262-.451A1.524,1.524,0,0,1,45.407-14.631ZM52.014,0V-9.346H50.284v-2.277h1.729v-.537a4.359,4.359,0,0,1,1.348-3.378,5.424,5.424,0,0,1,3.744-1.187,12.417,12.417,0,0,1,3.523.634l-.451,2.567a13.747,13.747,0,0,0-1.633-.4,8.023,8.023,0,0,0-1.246-.091q-2.17,0-2.17,1.923v.473h2.288v2.277H55.129V0ZM62.079,0H58.964V-11.623h3.115Zm7.4-2.288a2.036,2.036,0,0,0,1.4-.473,1.656,1.656,0,0,0,.559-1.257h2.911A3.982,3.982,0,0,1,73.7-1.853,4.253,4.253,0,0,1,71.967-.328a5.43,5.43,0,0,1-2.433.542A5.046,5.046,0,0,1,65.6-1.37a6.27,6.27,0,0,1-1.439-4.377v-.2a6.2,6.2,0,0,1,1.429-4.286,4.987,4.987,0,0,1,3.921-1.6,4.889,4.889,0,0,1,3.5,1.241,4.393,4.393,0,0,1,1.337,3.3H71.436a2.116,2.116,0,0,0-.559-1.466,1.868,1.868,0,0,0-1.418-.564,1.871,1.871,0,0,0-1.638.79,4.57,4.57,0,0,0-.553,2.562v.322a4.628,4.628,0,0,0,.548,2.578A1.894,1.894,0,0,0,69.48-2.288ZM82.854,0a3.448,3.448,0,0,1-.312-1.042A3.756,3.756,0,0,1,79.61.215,4.127,4.127,0,0,1,76.78-.773a3.178,3.178,0,0,1-1.123-2.492A3.285,3.285,0,0,1,77.027-6.1a6.758,6.758,0,0,1,3.958-1h1.429v-.666A1.915,1.915,0,0,0,82-9.056,1.627,1.627,0,0,0,80.7-9.539a1.85,1.85,0,0,0-1.23.376,1.277,1.277,0,0,0-.446,1.031h-3.1A3.118,3.118,0,0,1,76.538-10,4.118,4.118,0,0,1,78.3-11.349a6.42,6.42,0,0,1,2.557-.489,5.073,5.073,0,0,1,3.411,1.08,3.777,3.777,0,0,1,1.262,3.035v5.038a5.557,5.557,0,0,0,.462,2.5V0ZM80.287-2.159a2.674,2.674,0,0,0,1.268-.306,2.011,2.011,0,0,0,.859-.822v-2h-1.16q-2.331,0-2.481,1.611l-.011.183a1.243,1.243,0,0,0,.408.956A1.586,1.586,0,0,0,80.287-2.159ZM87.431-5.9a7,7,0,0,1,1.219-4.329,3.956,3.956,0,0,1,3.335-1.611,3.56,3.56,0,0,1,2.8,1.268V-16.5H97.9V0H95.1l-.15-1.235A3.653,3.653,0,0,1,91.964.215,3.945,3.945,0,0,1,88.671-1.4,7.23,7.23,0,0,1,87.431-5.9Zm3.1.226a4.576,4.576,0,0,0,.569,2.5,1.855,1.855,0,0,0,1.654.87,2.078,2.078,0,0,0,2.03-1.214V-8.1A2.048,2.048,0,0,0,92.78-9.313Q90.535-9.313,90.535-5.672Zm9.292-.247A6.893,6.893,0,0,1,100.493-9a4.876,4.876,0,0,1,1.917-2.095,5.594,5.594,0,0,1,2.906-.741,5.293,5.293,0,0,1,3.84,1.439,5.777,5.777,0,0,1,1.66,3.91l.021.795A6.075,6.075,0,0,1,109.345-1.4,5.19,5.19,0,0,1,105.338.215,5.216,5.216,0,0,1,101.326-1.4a6.182,6.182,0,0,1-1.5-4.383Zm3.1.226a4.333,4.333,0,0,0,.623,2.53,2.056,2.056,0,0,0,1.783.875,2.061,2.061,0,0,0,1.762-.865,4.741,4.741,0,0,0,.634-2.766,4.29,4.29,0,0,0-.634-2.514,2.061,2.061,0,0,0-1.783-.892,2.028,2.028,0,0,0-1.762.886A4.821,4.821,0,0,0,102.932-5.693Zm20.131,3.405a2.036,2.036,0,0,0,1.4-.473,1.656,1.656,0,0,0,.559-1.257h2.911a3.982,3.982,0,0,1-.645,2.165,4.253,4.253,0,0,1-1.735,1.525,5.43,5.43,0,0,1-2.433.542,5.046,5.046,0,0,1-3.932-1.584,6.27,6.27,0,0,1-1.439-4.377v-.2a6.2,6.2,0,0,1,1.429-4.286,4.987,4.987,0,0,1,3.921-1.6,4.889,4.889,0,0,1,3.5,1.241,4.393,4.393,0,0,1,1.337,3.3h-2.911a2.116,2.116,0,0,0-.559-1.466,1.868,1.868,0,0,0-1.418-.564,1.871,1.871,0,0,0-1.638.79,4.57,4.57,0,0,0-.553,2.562v.322a4.628,4.628,0,0,0,.548,2.578A1.894,1.894,0,0,0,123.063-2.288Zm6.155-3.631A6.893,6.893,0,0,1,129.884-9,4.876,4.876,0,0,1,131.8-11.1a5.594,5.594,0,0,1,2.906-.741,5.293,5.293,0,0,1,3.84,1.439,5.777,5.777,0,0,1,1.66,3.91l.021.795A6.075,6.075,0,0,1,138.735-1.4,5.19,5.19,0,0,1,134.729.215,5.216,5.216,0,0,1,130.716-1.4a6.182,6.182,0,0,1-1.5-4.383Zm3.1.226a4.333,4.333,0,0,0,.623,2.53,2.056,2.056,0,0,0,1.783.875,2.061,2.061,0,0,0,1.762-.865,4.741,4.741,0,0,0,.634-2.766,4.29,4.29,0,0,0-.634-2.514,2.061,2.061,0,0,0-1.783-.892,2.028,2.028,0,0,0-1.762.886A4.821,4.821,0,0,0,132.322-5.693ZM145-11.623l.1,1.343a4.058,4.058,0,0,1,3.341-1.558,3.372,3.372,0,0,1,2.75,1.085,5.062,5.062,0,0,1,.924,3.244V0H149V-7.434a2.014,2.014,0,0,0-.43-1.434,1.924,1.924,0,0,0-1.429-.446A2.136,2.136,0,0,0,145.181-8.2V0h-3.1V-11.623Zm14.3,9.335a2.036,2.036,0,0,0,1.4-.473,1.656,1.656,0,0,0,.559-1.257h2.911a3.982,3.982,0,0,1-.645,2.165,4.253,4.253,0,0,1-1.735,1.525,5.43,5.43,0,0,1-2.433.542,5.046,5.046,0,0,1-3.932-1.584,6.27,6.27,0,0,1-1.439-4.377v-.2a6.2,6.2,0,0,1,1.429-4.286,4.987,4.987,0,0,1,3.921-1.6,4.889,4.889,0,0,1,3.5,1.241,4.393,4.393,0,0,1,1.337,3.3h-2.911a2.116,2.116,0,0,0-.559-1.466,1.868,1.868,0,0,0-1.418-.564,1.871,1.871,0,0,0-1.638.79,4.57,4.57,0,0,0-.553,2.562v.322a4.628,4.628,0,0,0,.548,2.578A1.894,1.894,0,0,0,159.3-2.288Zm11.988,2.5a5.706,5.706,0,0,1-4.163-1.568,5.575,5.575,0,0,1-1.606-4.179v-.3a7.021,7.021,0,0,1,.677-3.131,4.967,4.967,0,0,1,1.917-2.127,5.382,5.382,0,0,1,2.831-.747,4.824,4.824,0,0,1,3.754,1.5,6.111,6.111,0,0,1,1.37,4.265V-4.8h-7.4a2.884,2.884,0,0,0,.908,1.826,2.744,2.744,0,0,0,1.917.688,3.351,3.351,0,0,0,2.8-1.3l1.525,1.708a4.66,4.66,0,0,1-1.891,1.542A6.2,6.2,0,0,1,171.284.215Zm-.354-9.539a1.944,1.944,0,0,0-1.5.623,3.219,3.219,0,0,0-.736,1.783h4.318v-.247a2.3,2.3,0,0,0-.559-1.6A2.006,2.006,0,0,0,170.93-9.324ZM188.289-5.7a6.971,6.971,0,0,1-1.219,4.3A3.909,3.909,0,0,1,183.777.215a3.621,3.621,0,0,1-2.847-1.225V4.469h-3.1V-11.623h2.879l.107,1.139a3.649,3.649,0,0,1,2.943-1.354,3.936,3.936,0,0,1,3.341,1.59,7.16,7.16,0,0,1,1.192,4.383Zm-3.1-.226a4.574,4.574,0,0,0-.575-2.5,1.872,1.872,0,0,0-1.67-.881A2.033,2.033,0,0,0,180.931-8.2v4.759a2.067,2.067,0,0,0,2.03,1.149Q185.185-2.288,185.185-5.93Zm8.744-8.551v2.857h1.987v2.277h-1.987v5.8a1.385,1.385,0,0,0,.247.924,1.241,1.241,0,0,0,.945.279,4.951,4.951,0,0,0,.913-.075V-.064a6.391,6.391,0,0,1-1.88.279q-3.266,0-3.33-3.3V-9.346h-1.7v-2.277h1.7V-14.48Zm2.911,8.562A6.893,6.893,0,0,1,197.506-9a4.876,4.876,0,0,1,1.917-2.095,5.594,5.594,0,0,1,2.906-.741,5.293,5.293,0,0,1,3.84,1.439,5.777,5.777,0,0,1,1.66,3.91l.021.795A6.075,6.075,0,0,1,206.357-1.4,5.19,5.19,0,0,1,202.351.215,5.216,5.216,0,0,1,198.338-1.4a6.182,6.182,0,0,1-1.5-4.383Zm3.1.226a4.333,4.333,0,0,0,.623,2.53,2.056,2.056,0,0,0,1.783.875,2.061,2.061,0,0,0,1.762-.865,4.741,4.741,0,0,0,.634-2.766,4.29,4.29,0,0,0-.634-2.514,2.061,2.061,0,0,0-1.783-.892,2.028,2.028,0,0,0-1.762.886A4.821,4.821,0,0,0,199.944-5.693Z" transform="translate(407 2275)" fill="#09347b"/>
      <path id="Trazado_11270" data-name="Trazado 11270" d="M11.064-8.014h-9.6v-2.535h9.6Zm0,4.651h-9.6V-5.9h9.6Z" transform="translate(692 2275)" fill="#09347b"/>
      <path id="Trazado_11268" data-name="Trazado 11268" d="M13.675-5.21a5.535,5.535,0,0,1-1.864,3.975A6.546,6.546,0,0,1,7.38.215,5.886,5.886,0,0,1,2.648-1.81,8.3,8.3,0,0,1,.924-7.369v-.956A9.376,9.376,0,0,1,1.719-12.3a5.957,5.957,0,0,1,2.272-2.637,6.364,6.364,0,0,1,3.432-.918,6.376,6.376,0,0,1,4.361,1.45A5.948,5.948,0,0,1,13.7-10.334H10.474a3.266,3.266,0,0,0-.843-2.2,3.123,3.123,0,0,0-2.208-.682,2.738,2.738,0,0,0-2.412,1.155,6.472,6.472,0,0,0-.822,3.583v1.182a6.927,6.927,0,0,0,.768,3.706A2.687,2.687,0,0,0,7.38-2.417,3.182,3.182,0,0,0,9.609-3.1a3.081,3.081,0,0,0,.843-2.111ZM22.322,0a3.448,3.448,0,0,1-.312-1.042A3.756,3.756,0,0,1,19.078.215a4.127,4.127,0,0,1-2.831-.988,3.178,3.178,0,0,1-1.123-2.492A3.285,3.285,0,0,1,16.495-6.1a6.758,6.758,0,0,1,3.958-1h1.429v-.666a1.915,1.915,0,0,0-.414-1.289,1.627,1.627,0,0,0-1.305-.483,1.85,1.85,0,0,0-1.23.376,1.277,1.277,0,0,0-.446,1.031h-3.1A3.118,3.118,0,0,1,16.006-10a4.118,4.118,0,0,1,1.762-1.348,6.42,6.42,0,0,1,2.557-.489,5.073,5.073,0,0,1,3.411,1.08A3.777,3.777,0,0,1,25-7.724v5.038a5.557,5.557,0,0,0,.462,2.5V0ZM19.755-2.159a2.674,2.674,0,0,0,1.268-.306,2.011,2.011,0,0,0,.859-.822v-2h-1.16q-2.331,0-2.481,1.611l-.011.183a1.243,1.243,0,0,0,.408.956A1.586,1.586,0,0,0,19.755-2.159ZM33.677-3.212a1,1,0,0,0-.564-.9,6.406,6.406,0,0,0-1.81-.585q-4.146-.87-4.146-3.523A3.194,3.194,0,0,1,28.44-10.8,5.178,5.178,0,0,1,31.8-11.838a5.573,5.573,0,0,1,3.54,1.042,3.284,3.284,0,0,1,1.327,2.707h-3.1a1.5,1.5,0,0,0-.43-1.1,1.818,1.818,0,0,0-1.343-.435,1.858,1.858,0,0,0-1.214.354,1.119,1.119,0,0,0-.43.9.957.957,0,0,0,.489.833,5.028,5.028,0,0,0,1.649.548,13.468,13.468,0,0,1,1.955.521A3.212,3.212,0,0,1,36.7-3.341,3.032,3.032,0,0,1,35.331-.768a5.885,5.885,0,0,1-3.523.983,6.147,6.147,0,0,1-2.594-.521,4.353,4.353,0,0,1-1.778-1.429,3.32,3.32,0,0,1-.645-1.96h2.943a1.621,1.621,0,0,0,.612,1.268,2.429,2.429,0,0,0,1.525.44,2.248,2.248,0,0,0,1.348-.338A1.053,1.053,0,0,0,33.677-3.212ZM45.429,0a3.447,3.447,0,0,1-.312-1.042A3.756,3.756,0,0,1,42.185.215a4.127,4.127,0,0,1-2.831-.988,3.178,3.178,0,0,1-1.123-2.492A3.285,3.285,0,0,1,39.6-6.1a6.758,6.758,0,0,1,3.958-1h1.429v-.666a1.915,1.915,0,0,0-.414-1.289,1.627,1.627,0,0,0-1.305-.483,1.85,1.85,0,0,0-1.23.376,1.277,1.277,0,0,0-.446,1.031h-3.1A3.119,3.119,0,0,1,39.112-10a4.118,4.118,0,0,1,1.762-1.348,6.42,6.42,0,0,1,2.557-.489,5.073,5.073,0,0,1,3.411,1.08A3.777,3.777,0,0,1,48.1-7.724v5.038a5.557,5.557,0,0,0,.462,2.5V0ZM42.861-2.159a2.674,2.674,0,0,0,1.268-.306,2.011,2.011,0,0,0,.859-.822v-2h-1.16q-2.331,0-2.481,1.611l-.011.183a1.243,1.243,0,0,0,.408.956A1.586,1.586,0,0,0,42.861-2.159Z" transform="translate(803 2275)" fill="#09347b"/>
      <path id="Trazado_11266" data-name="Trazado 11266" d="M2.17,1.343H-.14L5.618-15.641h2.31ZM14.244-2.288a2.036,2.036,0,0,0,1.4-.473A1.656,1.656,0,0,0,16.2-4.018H19.11a3.982,3.982,0,0,1-.645,2.165A4.253,4.253,0,0,1,16.731-.328,5.43,5.43,0,0,1,14.3.215,5.046,5.046,0,0,1,10.366-1.37,6.27,6.27,0,0,1,8.927-5.747v-.2a6.2,6.2,0,0,1,1.429-4.286,4.987,4.987,0,0,1,3.921-1.6,4.889,4.889,0,0,1,3.5,1.241,4.393,4.393,0,0,1,1.337,3.3H16.2a2.116,2.116,0,0,0-.559-1.466,1.868,1.868,0,0,0-1.418-.564,1.871,1.871,0,0,0-1.638.79,4.57,4.57,0,0,0-.553,2.562v.322a4.628,4.628,0,0,0,.548,2.578A1.894,1.894,0,0,0,14.244-2.288ZM21.86,1.343h-2.31l5.758-16.983h2.31ZM35.836,0a3.447,3.447,0,0,1-.312-1.042A3.756,3.756,0,0,1,32.592.215a4.127,4.127,0,0,1-2.831-.988,3.178,3.178,0,0,1-1.123-2.492A3.285,3.285,0,0,1,30.008-6.1a6.758,6.758,0,0,1,3.958-1H35.4v-.666a1.915,1.915,0,0,0-.414-1.289,1.627,1.627,0,0,0-1.305-.483,1.85,1.85,0,0,0-1.23.376A1.277,1.277,0,0,0,32-8.132H28.9A3.118,3.118,0,0,1,29.52-10a4.118,4.118,0,0,1,1.762-1.348,6.42,6.42,0,0,1,2.557-.489,5.073,5.073,0,0,1,3.411,1.08,3.777,3.777,0,0,1,1.262,3.035v5.038a5.557,5.557,0,0,0,.462,2.5V0ZM33.269-2.159a2.674,2.674,0,0,0,1.268-.306,2.011,2.011,0,0,0,.859-.822v-2h-1.16q-2.331,0-2.481,1.611l-.011.183a1.243,1.243,0,0,0,.408.956A1.586,1.586,0,0,0,33.269-2.159Zm8.6,3.5h-2.31l5.758-16.983h2.31ZM55.408-3.212a1,1,0,0,0-.564-.9,6.406,6.406,0,0,0-1.81-.585q-4.146-.87-4.146-3.523A3.194,3.194,0,0,1,50.171-10.8a5.178,5.178,0,0,1,3.357-1.037,5.573,5.573,0,0,1,3.54,1.042,3.284,3.284,0,0,1,1.327,2.707h-3.1a1.5,1.5,0,0,0-.43-1.1,1.818,1.818,0,0,0-1.343-.435,1.858,1.858,0,0,0-1.214.354,1.119,1.119,0,0,0-.43.9.957.957,0,0,0,.489.833,5.028,5.028,0,0,0,1.649.548,13.468,13.468,0,0,1,1.955.521,3.212,3.212,0,0,1,2.46,3.126A3.032,3.032,0,0,1,57.063-.768a5.885,5.885,0,0,1-3.523.983,6.147,6.147,0,0,1-2.594-.521,4.353,4.353,0,0,1-1.778-1.429,3.32,3.32,0,0,1-.645-1.96h2.943a1.621,1.621,0,0,0,.612,1.268,2.429,2.429,0,0,0,1.525.44,2.248,2.248,0,0,0,1.348-.338A1.053,1.053,0,0,0,55.408-3.212ZM61.4,1.343h-2.31l5.758-16.983h2.31ZM75.378,0a3.448,3.448,0,0,1-.312-1.042A3.756,3.756,0,0,1,72.134.215,4.127,4.127,0,0,1,69.3-.773a3.178,3.178,0,0,1-1.123-2.492A3.285,3.285,0,0,1,69.55-6.1a6.758,6.758,0,0,1,3.958-1h1.429v-.666a1.915,1.915,0,0,0-.414-1.289,1.627,1.627,0,0,0-1.305-.483,1.85,1.85,0,0,0-1.23.376,1.277,1.277,0,0,0-.446,1.031h-3.1A3.118,3.118,0,0,1,69.062-10a4.118,4.118,0,0,1,1.762-1.348,6.42,6.42,0,0,1,2.557-.489,5.073,5.073,0,0,1,3.411,1.08,3.777,3.777,0,0,1,1.262,3.035v5.038a5.557,5.557,0,0,0,.462,2.5V0ZM72.811-2.159a2.674,2.674,0,0,0,1.268-.306,2.011,2.011,0,0,0,.859-.822v-2h-1.16q-2.331,0-2.481,1.611l-.011.183a1.243,1.243,0,0,0,.408.956A1.586,1.586,0,0,0,72.811-2.159Z" transform="translate(407 2395)" fill="#09347b"/>
      <path id="Trazado_11265" data-name="Trazado 11265" d="M14.115,0H10.893L4.619-10.291V0H1.4V-15.641H4.619L10.9-5.328V-15.641h3.212Zm2.127-5.919A6.893,6.893,0,0,1,16.908-9,4.876,4.876,0,0,1,18.826-11.1a5.594,5.594,0,0,1,2.906-.741,5.293,5.293,0,0,1,3.84,1.439,5.777,5.777,0,0,1,1.66,3.91l.021.795A6.075,6.075,0,0,1,25.76-1.4,5.19,5.19,0,0,1,21.753.215,5.216,5.216,0,0,1,17.741-1.4a6.182,6.182,0,0,1-1.5-4.383Zm3.1.226a4.333,4.333,0,0,0,.623,2.53,2.056,2.056,0,0,0,1.783.875,2.061,2.061,0,0,0,1.762-.865,4.741,4.741,0,0,0,.634-2.766,4.29,4.29,0,0,0-.634-2.514,2.061,2.061,0,0,0-1.783-.892,2.028,2.028,0,0,0-1.762.886A4.821,4.821,0,0,0,19.347-5.693Zm12.729-5.93.1,1.3a4.085,4.085,0,0,1,3.341-1.515A3.1,3.1,0,0,1,38.6-10.065a3.991,3.991,0,0,1,3.491-1.772,3.467,3.467,0,0,1,2.814,1.1,5.061,5.061,0,0,1,.924,3.314V0H42.711V-7.412a2.213,2.213,0,0,0-.387-1.445,1.714,1.714,0,0,0-1.364-.457,1.938,1.938,0,0,0-1.934,1.332L39.037,0h-3.1V-7.4a2.186,2.186,0,0,0-.4-1.461,1.731,1.731,0,0,0-1.354-.451,2.012,2.012,0,0,0-1.912,1.1V0h-3.1V-11.623ZM58.685-5.7a7.038,7.038,0,0,1-1.192,4.356A3.95,3.95,0,0,1,54.162.215a3.629,3.629,0,0,1-3.019-1.45L51,0H48.211V-16.5h3.1v5.919a3.536,3.536,0,0,1,2.825-1.257,3.982,3.982,0,0,1,3.335,1.563,7.048,7.048,0,0,1,1.208,4.4Zm-3.1-.226A4.624,4.624,0,0,0,55.021-8.5a1.889,1.889,0,0,0-1.665-.811A2.048,2.048,0,0,0,51.315-8.1v4.587a2.076,2.076,0,0,0,2.063,1.225,1.917,1.917,0,0,0,1.977-1.482A7.647,7.647,0,0,0,55.58-5.93ZM67.128-8.712A8.434,8.434,0,0,0,66.011-8.8,2.274,2.274,0,0,0,63.7-7.605V0H60.6V-11.623h2.933l.086,1.386a2.877,2.877,0,0,1,2.589-1.6,3.253,3.253,0,0,1,.967.14ZM73.767.215A5.706,5.706,0,0,1,69.6-1.354,5.575,5.575,0,0,1,68-5.532v-.3a7.021,7.021,0,0,1,.677-3.131,4.967,4.967,0,0,1,1.917-2.127,5.382,5.382,0,0,1,2.831-.747,4.824,4.824,0,0,1,3.754,1.5,6.111,6.111,0,0,1,1.37,4.265V-4.8h-7.4a2.884,2.884,0,0,0,.908,1.826,2.744,2.744,0,0,0,1.917.688,3.351,3.351,0,0,0,2.8-1.3L78.3-1.88A4.66,4.66,0,0,1,76.409-.338,6.2,6.2,0,0,1,73.767.215Zm-.354-9.539a1.944,1.944,0,0,0-1.5.623,3.219,3.219,0,0,0-.736,1.783H75.5v-.247a2.3,2.3,0,0,0-.559-1.6A2.006,2.006,0,0,0,73.412-9.324Zm18.67,6.112a1,1,0,0,0-.564-.9,6.406,6.406,0,0,0-1.81-.585q-4.146-.87-4.146-3.523A3.194,3.194,0,0,1,86.845-10.8,5.178,5.178,0,0,1,90.2-11.838a5.573,5.573,0,0,1,3.54,1.042,3.284,3.284,0,0,1,1.327,2.707h-3.1a1.5,1.5,0,0,0-.43-1.1,1.818,1.818,0,0,0-1.343-.435,1.858,1.858,0,0,0-1.214.354,1.119,1.119,0,0,0-.43.9.957.957,0,0,0,.489.833,5.028,5.028,0,0,0,1.649.548,13.468,13.468,0,0,1,1.955.521A3.212,3.212,0,0,1,95.1-3.341,3.032,3.032,0,0,1,93.736-.768a5.885,5.885,0,0,1-3.523.983,6.147,6.147,0,0,1-2.594-.521,4.353,4.353,0,0,1-1.778-1.429A3.32,3.32,0,0,1,85.2-3.7H88.14a1.621,1.621,0,0,0,.612,1.268,2.429,2.429,0,0,0,1.525.44,2.248,2.248,0,0,0,1.348-.338A1.053,1.053,0,0,0,92.082-3.212ZM100.375,0H97.26V-11.623h3.115Zm-3.3-14.631a1.529,1.529,0,0,1,.467-1.149,1.755,1.755,0,0,1,1.273-.451,1.759,1.759,0,0,1,1.268.451,1.52,1.52,0,0,1,.473,1.149,1.524,1.524,0,0,1-.478,1.16,1.764,1.764,0,0,1-1.262.451,1.764,1.764,0,0,1-1.262-.451A1.524,1.524,0,0,1,97.077-14.631Zm5.4,8.733a6.812,6.812,0,0,1,1.273-4.308,4.125,4.125,0,0,1,3.432-1.633,3.617,3.617,0,0,1,2.976,1.311l.129-1.1H113.1V-.387a4.968,4.968,0,0,1-.693,2.653,4.45,4.45,0,0,1-1.95,1.719,6.854,6.854,0,0,1-2.943.591,6.373,6.373,0,0,1-2.492-.51,4.423,4.423,0,0,1-1.837-1.316L104.564.859a3.637,3.637,0,0,0,2.814,1.3A2.662,2.662,0,0,0,109.3,1.5a2.478,2.478,0,0,0,.688-1.875V-1A3.591,3.591,0,0,1,107.164.215a4.114,4.114,0,0,1-3.389-1.638,6.81,6.81,0,0,1-1.294-4.345Zm3.1.226a4.23,4.23,0,0,0,.634,2.476,2.017,2.017,0,0,0,1.74.9,2.157,2.157,0,0,0,2.03-1.063V-8.25a2.152,2.152,0,0,0-2.009-1.063,2.03,2.03,0,0,0-1.756.913A4.768,4.768,0,0,0,105.585-5.672Zm12.762-5.951.1,1.343a4.058,4.058,0,0,1,3.341-1.558,3.372,3.372,0,0,1,2.75,1.085,5.062,5.062,0,0,1,.924,3.244V0h-3.1V-7.434a2.014,2.014,0,0,0-.43-1.434,1.924,1.924,0,0,0-1.429-.446A2.136,2.136,0,0,0,118.529-8.2V0h-3.1V-11.623ZM131.087,0h-3.115V-11.623h3.115Zm-3.3-14.631a1.529,1.529,0,0,1,.467-1.149,1.755,1.755,0,0,1,1.273-.451,1.759,1.759,0,0,1,1.268.451,1.52,1.52,0,0,1,.473,1.149,1.524,1.524,0,0,1-.478,1.16,1.764,1.764,0,0,1-1.262.451,1.764,1.764,0,0,1-1.262-.451A1.524,1.524,0,0,1,127.789-14.631ZM134.4,0V-9.346h-1.729v-2.277H134.4v-.537a4.359,4.359,0,0,1,1.348-3.378,5.424,5.424,0,0,1,3.744-1.187,12.417,12.417,0,0,1,3.523.634l-.451,2.567a13.747,13.747,0,0,0-1.633-.4,8.023,8.023,0,0,0-1.246-.091q-2.17,0-2.17,1.923v.473H139.8v2.277h-2.288V0Zm10.065,0h-3.115V-11.623h3.115Zm7.4-2.288a2.036,2.036,0,0,0,1.4-.473,1.656,1.656,0,0,0,.559-1.257h2.911a3.982,3.982,0,0,1-.645,2.165,4.253,4.253,0,0,1-1.735,1.525,5.43,5.43,0,0,1-2.433.542,5.046,5.046,0,0,1-3.932-1.584,6.27,6.27,0,0,1-1.439-4.377v-.2a6.2,6.2,0,0,1,1.429-4.286,4.987,4.987,0,0,1,3.921-1.6,4.889,4.889,0,0,1,3.5,1.241,4.393,4.393,0,0,1,1.337,3.3h-2.911a2.116,2.116,0,0,0-.559-1.466,1.868,1.868,0,0,0-1.418-.564,1.871,1.871,0,0,0-1.638.79,4.57,4.57,0,0,0-.553,2.562v.322a4.628,4.628,0,0,0,.548,2.578A1.894,1.894,0,0,0,151.862-2.288ZM165.236,0a3.447,3.447,0,0,1-.312-1.042A3.756,3.756,0,0,1,161.992.215a4.127,4.127,0,0,1-2.831-.988,3.178,3.178,0,0,1-1.123-2.492,3.285,3.285,0,0,1,1.37-2.836,6.758,6.758,0,0,1,3.958-1H164.8v-.666a1.915,1.915,0,0,0-.414-1.289,1.627,1.627,0,0,0-1.305-.483,1.85,1.85,0,0,0-1.23.376,1.277,1.277,0,0,0-.446,1.031h-3.1A3.119,3.119,0,0,1,158.92-10a4.118,4.118,0,0,1,1.762-1.348,6.42,6.42,0,0,1,2.557-.489,5.073,5.073,0,0,1,3.411,1.08,3.777,3.777,0,0,1,1.262,3.035v5.038a5.557,5.557,0,0,0,.462,2.5V0Zm-2.567-2.159a2.674,2.674,0,0,0,1.268-.306,2.011,2.011,0,0,0,.859-.822v-2h-1.16q-2.331,0-2.481,1.611l-.011.183a1.243,1.243,0,0,0,.408.956A1.586,1.586,0,0,0,162.669-2.159Zm10.484-9.464.1,1.343a4.058,4.058,0,0,1,3.341-1.558,3.372,3.372,0,0,1,2.75,1.085,5.062,5.062,0,0,1,.924,3.244V0h-3.1V-7.434a2.014,2.014,0,0,0-.43-1.434,1.924,1.924,0,0,0-1.429-.446A2.136,2.136,0,0,0,173.336-8.2V0h-3.1V-11.623Zm13.181-2.857v2.857h1.987v2.277h-1.987v5.8a1.385,1.385,0,0,0,.247.924,1.241,1.241,0,0,0,.945.279,4.951,4.951,0,0,0,.913-.075V-.064a6.391,6.391,0,0,1-1.88.279q-3.266,0-3.33-3.3V-9.346h-1.7v-2.277h1.7V-14.48ZM195.4.215a5.706,5.706,0,0,1-4.163-1.568,5.575,5.575,0,0,1-1.606-4.179v-.3a7.021,7.021,0,0,1,.677-3.131,4.967,4.967,0,0,1,1.917-2.127,5.382,5.382,0,0,1,2.831-.747,4.824,4.824,0,0,1,3.754,1.5,6.111,6.111,0,0,1,1.37,4.265V-4.8h-7.4a2.884,2.884,0,0,0,.908,1.826,2.744,2.744,0,0,0,1.917.688,3.351,3.351,0,0,0,2.8-1.3l1.525,1.708a4.66,4.66,0,0,1-1.891,1.542A6.2,6.2,0,0,1,195.4.215Zm-.354-9.539a1.944,1.944,0,0,0-1.5.623,3.219,3.219,0,0,0-.736,1.783h4.318v-.247a2.3,2.3,0,0,0-.559-1.6A2.006,2.006,0,0,0,195.046-9.324Z" transform="translate(407 2424)" fill="#09347b"/>
      <path id="Trazado_11269" data-name="Trazado 11269" d="M7.187-5.726H4.619V0H1.4V-15.641H7.208a6.57,6.57,0,0,1,4.275,1.235,4.264,4.264,0,0,1,1.5,3.491,4.812,4.812,0,0,1-.693,2.669,4.725,4.725,0,0,1-2.1,1.7L13.578-.15V0H10.119ZM4.619-8.336h2.6A2.662,2.662,0,0,0,9.1-8.954a2.208,2.208,0,0,0,.666-1.7,2.363,2.363,0,0,0-.628-1.74,2.612,2.612,0,0,0-1.928-.634H4.619ZM20.582.215a5.706,5.706,0,0,1-4.163-1.568,5.575,5.575,0,0,1-1.606-4.179v-.3a7.021,7.021,0,0,1,.677-3.131,4.967,4.967,0,0,1,1.917-2.127,5.382,5.382,0,0,1,2.831-.747,4.824,4.824,0,0,1,3.754,1.5,6.111,6.111,0,0,1,1.37,4.265V-4.8h-7.4a2.884,2.884,0,0,0,.908,1.826,2.744,2.744,0,0,0,1.917.688,3.351,3.351,0,0,0,2.8-1.3L25.115-1.88A4.66,4.66,0,0,1,23.225-.338,6.2,6.2,0,0,1,20.582.215Zm-.354-9.539a1.944,1.944,0,0,0-1.5.623,3.219,3.219,0,0,0-.736,1.783h4.318v-.247a2.3,2.3,0,0,0-.559-1.6A2.006,2.006,0,0,0,20.228-9.324ZM33.859,0a3.447,3.447,0,0,1-.312-1.042A3.756,3.756,0,0,1,30.615.215a4.127,4.127,0,0,1-2.831-.988,3.178,3.178,0,0,1-1.123-2.492A3.285,3.285,0,0,1,28.032-6.1a6.758,6.758,0,0,1,3.958-1h1.429v-.666a1.915,1.915,0,0,0-.414-1.289A1.627,1.627,0,0,0,31.7-9.539a1.85,1.85,0,0,0-1.23.376,1.277,1.277,0,0,0-.446,1.031h-3.1A3.118,3.118,0,0,1,27.543-10,4.118,4.118,0,0,1,29.3-11.349a6.42,6.42,0,0,1,2.557-.489,5.073,5.073,0,0,1,3.411,1.08,3.777,3.777,0,0,1,1.262,3.035v5.038A5.557,5.557,0,0,0,37-.183V0ZM31.292-2.159a2.674,2.674,0,0,0,1.268-.306,2.011,2.011,0,0,0,.859-.822v-2h-1.16q-2.331,0-2.481,1.611l-.011.183a1.243,1.243,0,0,0,.408.956A1.586,1.586,0,0,0,31.292-2.159ZM42.2,0H39.08V-16.5H42.2Zm5.833,0H44.913V-11.623h3.115Zm-3.3-14.631A1.529,1.529,0,0,1,45.2-15.78a1.755,1.755,0,0,1,1.273-.451,1.759,1.759,0,0,1,1.268.451,1.52,1.52,0,0,1,.473,1.149,1.524,1.524,0,0,1-.478,1.16,1.764,1.764,0,0,1-1.262.451,1.764,1.764,0,0,1-1.262-.451A1.524,1.524,0,0,1,44.73-14.631ZM50.1-5.9a7,7,0,0,1,1.219-4.329,3.956,3.956,0,0,1,3.335-1.611,3.56,3.56,0,0,1,2.8,1.268V-16.5h3.115V0h-2.8l-.15-1.235A3.653,3.653,0,0,1,54.635.215,3.945,3.945,0,0,1,51.342-1.4,7.23,7.23,0,0,1,50.1-5.9Zm3.1.226a4.576,4.576,0,0,0,.569,2.5,1.855,1.855,0,0,0,1.654.87,2.078,2.078,0,0,0,2.03-1.214V-8.1a2.048,2.048,0,0,0-2.009-1.214Q53.206-9.313,53.206-5.672ZM69.717,0a3.448,3.448,0,0,1-.312-1.042A3.756,3.756,0,0,1,66.473.215a4.127,4.127,0,0,1-2.831-.988A3.178,3.178,0,0,1,62.52-3.266,3.285,3.285,0,0,1,63.889-6.1a6.758,6.758,0,0,1,3.958-1h1.429v-.666a1.915,1.915,0,0,0-.414-1.289,1.627,1.627,0,0,0-1.305-.483,1.85,1.85,0,0,0-1.23.376,1.277,1.277,0,0,0-.446,1.031h-3.1A3.119,3.119,0,0,1,63.4-10a4.118,4.118,0,0,1,1.762-1.348,6.42,6.42,0,0,1,2.557-.489,5.073,5.073,0,0,1,3.411,1.08,3.777,3.777,0,0,1,1.262,3.035v5.038a5.557,5.557,0,0,0,.462,2.5V0ZM67.149-2.159a2.674,2.674,0,0,0,1.268-.306,2.011,2.011,0,0,0,.859-.822v-2h-1.16q-2.331,0-2.481,1.611l-.011.183a1.243,1.243,0,0,0,.408.956A1.586,1.586,0,0,0,67.149-2.159ZM74.293-5.9a7,7,0,0,1,1.219-4.329,3.956,3.956,0,0,1,3.335-1.611,3.56,3.56,0,0,1,2.8,1.268V-16.5h3.115V0h-2.8l-.15-1.235A3.653,3.653,0,0,1,78.826.215,3.945,3.945,0,0,1,75.534-1.4,7.23,7.23,0,0,1,74.293-5.9Zm3.1.226a4.576,4.576,0,0,0,.569,2.5,1.855,1.855,0,0,0,1.654.87,2.078,2.078,0,0,0,2.03-1.214V-8.1a2.048,2.048,0,0,0-2.009-1.214Q77.4-9.313,77.4-5.672ZM97.485-2.288a2.036,2.036,0,0,0,1.4-.473,1.656,1.656,0,0,0,.559-1.257h2.911a3.982,3.982,0,0,1-.645,2.165A4.253,4.253,0,0,1,99.972-.328a5.43,5.43,0,0,1-2.433.542A5.046,5.046,0,0,1,93.607-1.37a6.27,6.27,0,0,1-1.439-4.377v-.2A6.2,6.2,0,0,1,93.6-10.237a4.987,4.987,0,0,1,3.921-1.6,4.889,4.889,0,0,1,3.5,1.241,4.393,4.393,0,0,1,1.337,3.3H99.44a2.116,2.116,0,0,0-.559-1.466,1.868,1.868,0,0,0-1.418-.564,1.871,1.871,0,0,0-1.638.79,4.57,4.57,0,0,0-.553,2.562v.322a4.628,4.628,0,0,0,.548,2.578A1.894,1.894,0,0,0,97.485-2.288Zm6.155-3.631A6.893,6.893,0,0,1,104.307-9a4.876,4.876,0,0,1,1.917-2.095,5.594,5.594,0,0,1,2.906-.741,5.293,5.293,0,0,1,3.84,1.439,5.777,5.777,0,0,1,1.66,3.91l.021.795A6.075,6.075,0,0,1,113.158-1.4,5.19,5.19,0,0,1,109.151.215,5.216,5.216,0,0,1,105.139-1.4a6.182,6.182,0,0,1-1.5-4.383Zm3.1.226a4.333,4.333,0,0,0,.623,2.53,2.056,2.056,0,0,0,1.783.875,2.061,2.061,0,0,0,1.762-.865,4.741,4.741,0,0,0,.634-2.766,4.29,4.29,0,0,0-.634-2.514,2.061,2.061,0,0,0-1.783-.892,2.028,2.028,0,0,0-1.762.886A4.821,4.821,0,0,0,106.745-5.693Zm16.113,2.481a1,1,0,0,0-.564-.9,6.406,6.406,0,0,0-1.81-.585q-4.146-.87-4.146-3.523a3.194,3.194,0,0,1,1.284-2.583,5.178,5.178,0,0,1,3.357-1.037,5.573,5.573,0,0,1,3.54,1.042,3.284,3.284,0,0,1,1.327,2.707h-3.1a1.5,1.5,0,0,0-.43-1.1,1.818,1.818,0,0,0-1.343-.435,1.858,1.858,0,0,0-1.214.354,1.119,1.119,0,0,0-.43.9.957.957,0,0,0,.489.833,5.028,5.028,0,0,0,1.649.548,13.468,13.468,0,0,1,1.955.521,3.212,3.212,0,0,1,2.46,3.126,3.032,3.032,0,0,1-1.364,2.573,5.885,5.885,0,0,1-3.523.983A6.147,6.147,0,0,1,118.4-.306a4.353,4.353,0,0,1-1.778-1.429,3.32,3.32,0,0,1-.645-1.96h2.943a1.621,1.621,0,0,0,.612,1.268,2.429,2.429,0,0,0,1.525.44,2.248,2.248,0,0,0,1.348-.338A1.053,1.053,0,0,0,122.858-3.212ZM134.61,0a3.447,3.447,0,0,1-.312-1.042A3.756,3.756,0,0,1,131.366.215a4.127,4.127,0,0,1-2.831-.988,3.178,3.178,0,0,1-1.123-2.492,3.285,3.285,0,0,1,1.37-2.836,6.758,6.758,0,0,1,3.958-1h1.429v-.666a1.915,1.915,0,0,0-.414-1.289,1.627,1.627,0,0,0-1.305-.483,1.85,1.85,0,0,0-1.23.376,1.277,1.277,0,0,0-.446,1.031h-3.1A3.118,3.118,0,0,1,128.294-10a4.118,4.118,0,0,1,1.762-1.348,6.42,6.42,0,0,1,2.557-.489,5.073,5.073,0,0,1,3.411,1.08,3.777,3.777,0,0,1,1.262,3.035v5.038a5.557,5.557,0,0,0,.462,2.5V0Zm-2.567-2.159a2.674,2.674,0,0,0,1.268-.306,2.011,2.011,0,0,0,.859-.822v-2h-1.16q-2.331,0-2.481,1.611l-.011.183a1.243,1.243,0,0,0,.408.956A1.586,1.586,0,0,0,132.043-2.159Z" transform="translate(803 2395)" fill="#09347b"/>
      <g id="Grupo_13592" data-name="Grupo 13592" transform="translate(0 -82.941)">
        <g id="Grupo_13591" data-name="Grupo 13591" transform="translate(559.721 2117.104)">
          <g id="Grupo_13587" data-name="Grupo 13587">
            <path id="Trazado_11141" data-name="Trazado 11141" d="M164.731,303.233l-24.452-23.912-24.452,23.912L91.105,327.41a3.879,3.879,0,0,0-1.168,2.774h0a3.881,3.881,0,0,0,6.6,2.775l19.3-18.87,24.452-23.912,24.452,23.912,19.3,18.87a3.881,3.881,0,0,0,6.594-2.775h0a3.882,3.882,0,0,0-1.167-2.774Z" fill="#26c179"/>
          </g>
          <g id="Grupo_13590" data-name="Grupo 13590">
            <rect id="Rectángulo_3105" data-name="Rectángulo 3105" width="14.165" height="14.052" transform="translate(124.269 334.073)" fill="#fff"/>
            <rect id="Rectángulo_3106" data-name="Rectángulo 3106" width="14.165" height="14.051" transform="translate(124.269 351.786)" fill="#fff"/>
            <rect id="Rectángulo_3107" data-name="Rectángulo 3107" width="14.165" height="14.052" transform="translate(142.124 334.073)" fill="#fff"/>
            <rect id="Rectángulo_3108" data-name="Rectángulo 3108" width="14.165" height="14.051" transform="translate(142.124 351.786)" fill="#fff"/>
          </g>
        </g>
      </g>
    </g>
  </g>
</svg>
