<svg xmlns="http://www.w3.org/2000/svg" width="885" height="158.676" viewBox="0 0 885 158.676">
  <g id="Grupo_13651" data-name="Grupo 13651" transform="translate(-282 -12498.5)">
    <g id="Grupo_13649" data-name="Grupo 13649">
      <path id="Trazado_11259" data-name="Trazado 11259" d="M6.993-2.739l4.469-12.9h2.256L7.917,0H6.091L.3-15.641H2.546ZM22.183,0A4.175,4.175,0,0,1,21.9-1.225,4.434,4.434,0,0,1,18.595.215a4.1,4.1,0,0,1-2.82-.972,3.145,3.145,0,0,1-1.1-2.465,3.286,3.286,0,0,1,1.38-2.82,6.508,6.508,0,0,1,3.883-1h1.934V-7.96a2.232,2.232,0,0,0-.623-1.66,2.5,2.5,0,0,0-1.837-.618,2.9,2.9,0,0,0-1.783.537,1.583,1.583,0,0,0-.72,1.3h-2a2.743,2.743,0,0,1,.618-1.681A4.216,4.216,0,0,1,17.2-11.365a5.638,5.638,0,0,1,2.326-.473,4.6,4.6,0,0,1,3.147,1,3.623,3.623,0,0,1,1.182,2.766v5.35a6.54,6.54,0,0,0,.408,2.546V0Zm-3.3-1.515A3.493,3.493,0,0,0,20.657-2a2.924,2.924,0,0,0,1.214-1.257V-5.64H20.313q-3.652,0-3.652,2.138a1.809,1.809,0,0,0,.623,1.461A2.4,2.4,0,0,0,18.885-1.515ZM20.722-16.5h2.406l-2.879,3.158h-1.6Zm8.121,4.877.054,1.289a4.292,4.292,0,0,1,3.448-1.5,3.323,3.323,0,0,1,3.319,1.869,4.4,4.4,0,0,1,1.509-1.354,4.458,4.458,0,0,1,2.2-.516q3.824,0,3.889,4.05V0H41.271V-7.67A2.669,2.669,0,0,0,40.7-9.534a2.507,2.507,0,0,0-1.912-.618,2.635,2.635,0,0,0-1.837.661A2.68,2.68,0,0,0,36.1-7.713V0h-2V-7.616a2.217,2.217,0,0,0-2.481-2.535A2.659,2.659,0,0,0,28.95-8.486V0H26.963V-11.623Zm16.887,5.7A6.865,6.865,0,0,1,46.4-8.991,5.008,5.008,0,0,1,48.27-11.1,5.088,5.088,0,0,1,51-11.838a4.9,4.9,0,0,1,3.84,1.644,6.323,6.323,0,0,1,1.466,4.372v.14a6.925,6.925,0,0,1-.65,3.045A4.935,4.935,0,0,1,53.8-.537a5.146,5.146,0,0,1-2.777.752A4.889,4.889,0,0,1,47.2-1.429a6.291,6.291,0,0,1-1.466-4.351Zm2,.236a4.972,4.972,0,0,0,.9,3.1,2.871,2.871,0,0,0,2.4,1.171,2.853,2.853,0,0,0,2.406-1.187,5.437,5.437,0,0,0,.892-3.325,4.964,4.964,0,0,0-.908-3.1A2.886,2.886,0,0,0,51-10.205,2.854,2.854,0,0,0,48.63-9.034,5.4,5.4,0,0,0,47.728-5.683Zm12.955-5.94.064,1.461a4.236,4.236,0,0,1,3.48-1.676q3.685,0,3.717,4.157V0H65.957V-7.691a2.676,2.676,0,0,0-.575-1.858,2.3,2.3,0,0,0-1.756-.6,2.868,2.868,0,0,0-1.7.516A3.5,3.5,0,0,0,60.79-8.282V0H58.8V-11.623Zm9.732,5.7a6.865,6.865,0,0,1,.671-3.072A5.009,5.009,0,0,1,72.956-11.1a5.088,5.088,0,0,1,2.734-.741,4.9,4.9,0,0,1,3.84,1.644A6.323,6.323,0,0,1,81-5.822v.14a6.925,6.925,0,0,1-.65,3.045,4.935,4.935,0,0,1-1.858,2.1,5.147,5.147,0,0,1-2.777.752,4.889,4.889,0,0,1-3.83-1.644,6.291,6.291,0,0,1-1.466-4.351Zm2,.236a4.972,4.972,0,0,0,.9,3.1,2.871,2.871,0,0,0,2.4,1.171,2.853,2.853,0,0,0,2.406-1.187,5.437,5.437,0,0,0,.892-3.325,4.964,4.964,0,0,0-.908-3.1,2.886,2.886,0,0,0-2.412-1.187,2.854,2.854,0,0,0-2.374,1.171A5.4,5.4,0,0,0,72.413-5.683Zm17.843,2.6a1.463,1.463,0,0,0-.607-1.251A5.842,5.842,0,0,0,87.533-5.1a10.005,10.005,0,0,1-2.4-.773A3.408,3.408,0,0,1,83.827-6.95,2.57,2.57,0,0,1,83.4-8.433a3.015,3.015,0,0,1,1.208-2.417,4.72,4.72,0,0,1,3.088-.988,4.857,4.857,0,0,1,3.207,1.021,3.241,3.241,0,0,1,1.23,2.61h-2a1.794,1.794,0,0,0-.693-1.407,2.6,2.6,0,0,0-1.746-.591,2.717,2.717,0,0,0-1.7.473A1.488,1.488,0,0,0,85.39-8.5a1.205,1.205,0,0,0,.569,1.085,7,7,0,0,0,2.057.7,10.719,10.719,0,0,1,2.412.795A3.518,3.518,0,0,1,91.8-4.807a2.734,2.734,0,0,1,.446,1.584A2.975,2.975,0,0,1,91-.725a5.227,5.227,0,0,1-3.233.94,5.853,5.853,0,0,1-2.471-.494,4.018,4.018,0,0,1-1.681-1.38A3.327,3.327,0,0,1,83-3.577h1.987a2.058,2.058,0,0,0,.8,1.584,3.1,3.1,0,0,0,1.971.585,3.2,3.2,0,0,0,1.81-.457A1.4,1.4,0,0,0,90.256-3.083Zm9.539-2.825a6.809,6.809,0,0,1,1.268-4.3,4.008,4.008,0,0,1,3.319-1.627,4.031,4.031,0,0,1,3.233,1.4V-16.5H109.6V0h-1.826l-.1-1.246A4.047,4.047,0,0,1,104.36.215a3.97,3.97,0,0,1-3.292-1.654,6.886,6.886,0,0,1-1.273-4.318Zm1.987.226a5.155,5.155,0,0,0,.816,3.094,2.639,2.639,0,0,0,2.256,1.117,2.9,2.9,0,0,0,2.761-1.7V-8.508a2.921,2.921,0,0,0-2.739-1.644A2.652,2.652,0,0,0,102.6-9.023,5.676,5.676,0,0,0,101.782-5.683Zm15.727,5.9a5.078,5.078,0,0,1-3.846-1.552,5.761,5.761,0,0,1-1.482-4.152v-.365a6.975,6.975,0,0,1,.661-3.088,5.154,5.154,0,0,1,1.848-2.127,4.645,4.645,0,0,1,2.573-.768,4.353,4.353,0,0,1,3.523,1.493,6.465,6.465,0,0,1,1.257,4.275v.827h-7.874a4.132,4.132,0,0,0,1,2.777,3.157,3.157,0,0,0,2.444,1.058,3.461,3.461,0,0,0,1.783-.43,4.481,4.481,0,0,0,1.278-1.139l1.214.945A4.881,4.881,0,0,1,117.509.215Zm-.247-10.42a2.651,2.651,0,0,0-2.02.875,4.255,4.255,0,0,0-1.01,2.455h5.822v-.15a3.785,3.785,0,0,0-.816-2.347A2.5,2.5,0,0,0,117.262-10.205ZM133.622-2.7l2.879-8.927h2.03L134.363,0h-1.515l-4.211-11.623h2.03ZM142.6,0h-1.987V-11.623H142.6Zm-2.148-14.706a1.186,1.186,0,0,1,.3-.816,1.109,1.109,0,0,1,.875-.333,1.126,1.126,0,0,1,.881.333,1.174,1.174,0,0,1,.3.816,1.135,1.135,0,0,1-.3.806,1.147,1.147,0,0,1-.881.322,1.129,1.129,0,0,1-.875-.322A1.147,1.147,0,0,1,140.454-14.706ZM152.958,0a4.175,4.175,0,0,1-.279-1.225A4.434,4.434,0,0,1,149.37.215a4.1,4.1,0,0,1-2.82-.972,3.145,3.145,0,0,1-1.1-2.465,3.286,3.286,0,0,1,1.38-2.82,6.508,6.508,0,0,1,3.883-1h1.934V-7.96a2.232,2.232,0,0,0-.623-1.66,2.5,2.5,0,0,0-1.837-.618A2.9,2.9,0,0,0,148.4-9.7a1.583,1.583,0,0,0-.72,1.3h-2a2.743,2.743,0,0,1,.618-1.681,4.216,4.216,0,0,1,1.676-1.284,5.638,5.638,0,0,1,2.326-.473,4.6,4.6,0,0,1,3.147,1,3.623,3.623,0,0,1,1.182,2.766v5.35a6.54,6.54,0,0,0,.408,2.546V0Zm-3.3-1.515A3.493,3.493,0,0,0,151.433-2a2.924,2.924,0,0,0,1.214-1.257V-5.64h-1.558q-3.652,0-3.652,2.138a1.809,1.809,0,0,0,.623,1.461A2.4,2.4,0,0,0,149.66-1.515ZM159.8-11.623V1.343q0,3.352-3.04,3.352a3.688,3.688,0,0,1-1.214-.193V2.911a3.842,3.842,0,0,0,.9.086,1.351,1.351,0,0,0,1.015-.36,1.779,1.779,0,0,0,.349-1.251V-11.623Zm-2.191-3.083a1.192,1.192,0,0,1,.3-.811,1.086,1.086,0,0,1,.865-.338,1.126,1.126,0,0,1,.881.333,1.174,1.174,0,0,1,.3.816,1.135,1.135,0,0,1-.3.806,1.147,1.147,0,0,1-.881.322,1.111,1.111,0,0,1-.87-.322A1.159,1.159,0,0,1,157.609-14.706ZM167.825.215a5.078,5.078,0,0,1-3.846-1.552A5.761,5.761,0,0,1,162.5-5.489v-.365a6.975,6.975,0,0,1,.661-3.088,5.154,5.154,0,0,1,1.848-2.127,4.645,4.645,0,0,1,2.573-.768,4.353,4.353,0,0,1,3.523,1.493,6.465,6.465,0,0,1,1.257,4.275v.827h-7.874a4.132,4.132,0,0,0,1,2.777,3.157,3.157,0,0,0,2.444,1.058,3.461,3.461,0,0,0,1.783-.43,4.48,4.48,0,0,0,1.278-1.139l1.214.945A4.881,4.881,0,0,1,167.825.215Zm-.247-10.42a2.651,2.651,0,0,0-2.02.875,4.255,4.255,0,0,0-1.01,2.455h5.822v-.15a3.785,3.785,0,0,0-.816-2.347A2.5,2.5,0,0,0,167.578-10.205Zm7.015,13.32-1.128-.773a5.184,5.184,0,0,0,1.053-2.9V-2.353h1.944V-.795a4.893,4.893,0,0,1-.532,2.17A5.08,5.08,0,0,1,174.593,3.115ZM199.149-2.7l2.879-8.927h2.03L199.891,0h-1.515l-4.211-11.623h2.03ZM208.13,0h-1.987V-11.623h1.987Zm-2.148-14.706a1.186,1.186,0,0,1,.3-.816,1.109,1.109,0,0,1,.875-.333,1.126,1.126,0,0,1,.881.333,1.174,1.174,0,0,1,.3.816,1.135,1.135,0,0,1-.3.806,1.147,1.147,0,0,1-.881.322,1.129,1.129,0,0,1-.875-.322A1.147,1.147,0,0,1,205.981-14.706Zm12.1,11.623a1.463,1.463,0,0,0-.607-1.251,5.842,5.842,0,0,0-2.116-.768,10.005,10.005,0,0,1-2.4-.773,3.408,3.408,0,0,1-1.311-1.074,2.57,2.57,0,0,1-.424-1.482,3.015,3.015,0,0,1,1.208-2.417,4.72,4.72,0,0,1,3.088-.988,4.857,4.857,0,0,1,3.207,1.021,3.241,3.241,0,0,1,1.23,2.61h-2a1.794,1.794,0,0,0-.693-1.407,2.6,2.6,0,0,0-1.746-.591,2.717,2.717,0,0,0-1.7.473,1.488,1.488,0,0,0-.612,1.235,1.205,1.205,0,0,0,.569,1.085,7,7,0,0,0,2.057.7,10.719,10.719,0,0,1,2.412.795,3.518,3.518,0,0,1,1.37,1.112,2.734,2.734,0,0,1,.446,1.584,2.975,2.975,0,0,1-1.246,2.5,5.227,5.227,0,0,1-3.233.94,5.853,5.853,0,0,1-2.471-.494,4.018,4.018,0,0,1-1.681-1.38,3.327,3.327,0,0,1-.607-1.917h1.987a2.058,2.058,0,0,0,.8,1.584,3.1,3.1,0,0,0,1.971.585,3.2,3.2,0,0,0,1.81-.457A1.4,1.4,0,0,0,218.077-3.083ZM224.813,0h-1.987V-11.623h1.987Zm-2.148-14.706a1.186,1.186,0,0,1,.3-.816,1.109,1.109,0,0,1,.875-.333,1.126,1.126,0,0,1,.881.333,1.174,1.174,0,0,1,.3.816,1.135,1.135,0,0,1-.3.806,1.147,1.147,0,0,1-.881.322,1.129,1.129,0,0,1-.875-.322A1.147,1.147,0,0,1,222.664-14.706Zm8.024.269v2.814h2.17v1.536h-2.17v7.208a1.61,1.61,0,0,0,.29,1.047,1.221,1.221,0,0,0,.988.349,4.811,4.811,0,0,0,.945-.129V0a5.761,5.761,0,0,1-1.525.215,2.475,2.475,0,0,1-2.009-.806,3.461,3.461,0,0,1-.677-2.288v-7.208h-2.116v-1.536H228.7v-2.814ZM242.354,0a4.175,4.175,0,0,1-.279-1.225A4.434,4.434,0,0,1,238.767.215a4.1,4.1,0,0,1-2.82-.972,3.145,3.145,0,0,1-1.1-2.465,3.286,3.286,0,0,1,1.38-2.82,6.508,6.508,0,0,1,3.883-1h1.934V-7.96a2.232,2.232,0,0,0-.623-1.66,2.5,2.5,0,0,0-1.837-.618A2.9,2.9,0,0,0,237.8-9.7a1.583,1.583,0,0,0-.72,1.3h-2a2.743,2.743,0,0,1,.618-1.681,4.216,4.216,0,0,1,1.676-1.284,5.638,5.638,0,0,1,2.326-.473,4.6,4.6,0,0,1,3.147,1,3.623,3.623,0,0,1,1.182,2.766v5.35a6.54,6.54,0,0,0,.408,2.546V0Zm-3.3-1.515A3.493,3.493,0,0,0,240.829-2a2.924,2.924,0,0,0,1.214-1.257V-5.64h-1.558q-3.652,0-3.652,2.138a1.809,1.809,0,0,0,.623,1.461A2.4,2.4,0,0,0,239.057-1.515ZM252.764-9.84a5.955,5.955,0,0,0-.978-.075,2.619,2.619,0,0,0-2.653,1.665V0h-1.987V-11.623h1.934l.032,1.343a3.094,3.094,0,0,1,2.771-1.558,2.03,2.03,0,0,1,.881.15ZM259.209.215a5.078,5.078,0,0,1-3.846-1.552,5.761,5.761,0,0,1-1.482-4.152v-.365a6.975,6.975,0,0,1,.661-3.088,5.154,5.154,0,0,1,1.848-2.127,4.645,4.645,0,0,1,2.573-.768,4.353,4.353,0,0,1,3.523,1.493,6.465,6.465,0,0,1,1.257,4.275v.827h-7.874a4.131,4.131,0,0,0,1,2.777,3.157,3.157,0,0,0,2.444,1.058,3.461,3.461,0,0,0,1.783-.43,4.481,4.481,0,0,0,1.278-1.139l1.214.945A4.881,4.881,0,0,1,259.209.215Zm-.247-10.42a2.651,2.651,0,0,0-2.02.875,4.255,4.255,0,0,0-1.01,2.455h5.822v-.15a3.785,3.785,0,0,0-.816-2.347A2.5,2.5,0,0,0,258.962-10.205Zm8.948-1.418.054,1.289a4.292,4.292,0,0,1,3.448-1.5,3.323,3.323,0,0,1,3.319,1.869,4.4,4.4,0,0,1,1.509-1.354,4.458,4.458,0,0,1,2.2-.516q3.824,0,3.889,4.05V0h-1.987V-7.67a2.669,2.669,0,0,0-.569-1.864,2.507,2.507,0,0,0-1.912-.618,2.635,2.635,0,0,0-1.837.661,2.68,2.68,0,0,0-.849,1.778V0h-2V-7.616a2.217,2.217,0,0,0-2.481-2.535,2.659,2.659,0,0,0-2.675,1.665V0H266.03V-11.623Zm16.887,5.7a6.865,6.865,0,0,1,.671-3.072,5.009,5.009,0,0,1,1.869-2.105,5.088,5.088,0,0,1,2.734-.741,4.9,4.9,0,0,1,3.84,1.644,6.323,6.323,0,0,1,1.466,4.372v.14a6.925,6.925,0,0,1-.65,3.045,4.935,4.935,0,0,1-1.858,2.1,5.147,5.147,0,0,1-2.777.752,4.889,4.889,0,0,1-3.83-1.644A6.291,6.291,0,0,1,284.8-5.779Zm2,.236a4.972,4.972,0,0,0,.9,3.1,2.871,2.871,0,0,0,2.4,1.171A2.853,2.853,0,0,0,292.5-2.594a5.438,5.438,0,0,0,.892-3.325,4.964,4.964,0,0,0-.908-3.1,2.886,2.886,0,0,0-2.412-1.187A2.854,2.854,0,0,0,287.7-9.034,5.4,5.4,0,0,0,286.795-5.683Zm17.843,2.6a1.463,1.463,0,0,0-.607-1.251,5.842,5.842,0,0,0-2.116-.768,10.005,10.005,0,0,1-2.4-.773,3.408,3.408,0,0,1-1.311-1.074,2.57,2.57,0,0,1-.424-1.482,3.015,3.015,0,0,1,1.208-2.417,4.72,4.72,0,0,1,3.088-.988,4.857,4.857,0,0,1,3.207,1.021,3.241,3.241,0,0,1,1.23,2.61h-2a1.794,1.794,0,0,0-.693-1.407,2.6,2.6,0,0,0-1.746-.591,2.717,2.717,0,0,0-1.7.473,1.488,1.488,0,0,0-.612,1.235,1.206,1.206,0,0,0,.569,1.085,7,7,0,0,0,2.057.7,10.719,10.719,0,0,1,2.412.795,3.518,3.518,0,0,1,1.37,1.112,2.734,2.734,0,0,1,.446,1.584,2.975,2.975,0,0,1-1.246,2.5,5.227,5.227,0,0,1-3.233.94,5.853,5.853,0,0,1-2.471-.494,4.018,4.018,0,0,1-1.681-1.38,3.327,3.327,0,0,1-.607-1.917h1.987a2.058,2.058,0,0,0,.8,1.584,3.1,3.1,0,0,0,1.971.585,3.2,3.2,0,0,0,1.81-.457A1.4,1.4,0,0,0,304.638-3.083Zm11.892-8.54.054,1.289a4.292,4.292,0,0,1,3.448-1.5,3.323,3.323,0,0,1,3.319,1.869,4.4,4.4,0,0,1,1.509-1.354,4.458,4.458,0,0,1,2.2-.516q3.824,0,3.889,4.05V0h-1.987V-7.67a2.669,2.669,0,0,0-.569-1.864,2.507,2.507,0,0,0-1.912-.618,2.635,2.635,0,0,0-1.837.661,2.68,2.68,0,0,0-.849,1.778V0h-2V-7.616a2.217,2.217,0,0,0-2.481-2.535,2.659,2.659,0,0,0-2.675,1.665V0h-1.987V-11.623ZM341.118-1.149A4.221,4.221,0,0,1,337.713.215a3.613,3.613,0,0,1-2.831-1.08,4.673,4.673,0,0,1-.983-3.2v-7.562h1.987v7.509q0,2.643,2.148,2.643a2.975,2.975,0,0,0,3.029-1.7v-8.454h1.987V0h-1.891Zm9.614-.258a2.863,2.863,0,0,0,1.858-.645,2.268,2.268,0,0,0,.881-1.611h1.88a3.6,3.6,0,0,1-.687,1.9,4.528,4.528,0,0,1-1.692,1.439,4.882,4.882,0,0,1-2.24.537,4.788,4.788,0,0,1-3.776-1.584,6.311,6.311,0,0,1-1.4-4.334v-.333a7,7,0,0,1,.623-3.019,4.746,4.746,0,0,1,1.789-2.052,5.081,5.081,0,0,1,2.755-.73,4.662,4.662,0,0,1,3.25,1.171,4.185,4.185,0,0,1,1.38,3.04h-1.88a2.739,2.739,0,0,0-.854-1.853,2.657,2.657,0,0,0-1.9-.725,2.781,2.781,0,0,0-2.347,1.09,5.12,5.12,0,0,0-.833,3.153v.376a5.019,5.019,0,0,0,.827,3.094A2.8,2.8,0,0,0,350.732-1.407Zm8.841-8.809a4.225,4.225,0,0,1,3.438-1.622q3.685,0,3.717,4.157V0H364.74V-7.691a2.676,2.676,0,0,0-.575-1.858,2.3,2.3,0,0,0-1.756-.6,2.868,2.868,0,0,0-1.7.516,3.5,3.5,0,0,0-1.139,1.354V0h-1.987V-16.5h1.987Zm9.6,4.3a6.865,6.865,0,0,1,.671-3.072,5.009,5.009,0,0,1,1.869-2.105,5.088,5.088,0,0,1,2.734-.741,4.9,4.9,0,0,1,3.84,1.644,6.323,6.323,0,0,1,1.466,4.372v.14a6.925,6.925,0,0,1-.65,3.045,4.935,4.935,0,0,1-1.858,2.1,5.147,5.147,0,0,1-2.777.752,4.889,4.889,0,0,1-3.83-1.644,6.291,6.291,0,0,1-1.466-4.351Zm2,.236a4.972,4.972,0,0,0,.9,3.1,2.871,2.871,0,0,0,2.4,1.171,2.853,2.853,0,0,0,2.406-1.187,5.438,5.438,0,0,0,.892-3.325,4.964,4.964,0,0,0-.908-3.1,2.886,2.886,0,0,0-2.412-1.187,2.854,2.854,0,0,0-2.374,1.171A5.4,5.4,0,0,0,371.175-5.683Zm17.843,2.6a1.463,1.463,0,0,0-.607-1.251,5.842,5.842,0,0,0-2.116-.768,10.005,10.005,0,0,1-2.4-.773,3.408,3.408,0,0,1-1.311-1.074,2.57,2.57,0,0,1-.424-1.482,3.015,3.015,0,0,1,1.208-2.417,4.72,4.72,0,0,1,3.088-.988,4.857,4.857,0,0,1,3.207,1.021,3.241,3.241,0,0,1,1.23,2.61h-2a1.794,1.794,0,0,0-.693-1.407,2.6,2.6,0,0,0-1.746-.591,2.717,2.717,0,0,0-1.7.473,1.488,1.488,0,0,0-.612,1.235,1.206,1.206,0,0,0,.569,1.085,7,7,0,0,0,2.057.7,10.719,10.719,0,0,1,2.412.795,3.518,3.518,0,0,1,1.37,1.112A2.734,2.734,0,0,1,391-3.223a2.975,2.975,0,0,1-1.246,2.5,5.227,5.227,0,0,1-3.233.94,5.853,5.853,0,0,1-2.471-.494,4.018,4.018,0,0,1-1.681-1.38,3.327,3.327,0,0,1-.607-1.917h1.987a2.058,2.058,0,0,0,.8,1.584,3.1,3.1,0,0,0,1.971.585,3.2,3.2,0,0,0,1.81-.457A1.4,1.4,0,0,0,389.018-3.083ZM401.2,0h-1.987V-16.5H401.2Zm10.355-1.149A4.221,4.221,0,0,1,408.149.215a3.613,3.613,0,0,1-2.831-1.08,4.673,4.673,0,0,1-.983-3.2v-7.562h1.987v7.509q0,2.643,2.148,2.643a2.975,2.975,0,0,0,3.029-1.7v-8.454h1.987V0H411.6Zm4.479-4.759a6.831,6.831,0,0,1,1.257-4.324,4.019,4.019,0,0,1,3.33-1.606,4,4,0,0,1,3.319,1.5l.1-1.289h1.815V-.279a4.728,4.728,0,0,1-1.337,3.556,4.935,4.935,0,0,1-3.593,1.3,5.978,5.978,0,0,1-2.46-.537,4.234,4.234,0,0,1-1.837-1.472l1.031-1.192a3.886,3.886,0,0,0,3.126,1.579,3.045,3.045,0,0,0,2.261-.816,3.12,3.12,0,0,0,.811-2.3v-1A4.085,4.085,0,0,1,420.6.215a3.97,3.97,0,0,1-3.3-1.644A7.182,7.182,0,0,1,416.034-5.908Zm2,.226a5.211,5.211,0,0,0,.806,3.088,2.618,2.618,0,0,0,2.256,1.123,2.911,2.911,0,0,0,2.761-1.708V-8.486a2.945,2.945,0,0,0-2.739-1.665,2.641,2.641,0,0,0-2.267,1.128A5.676,5.676,0,0,0,418.032-5.683ZM436.025,0a4.175,4.175,0,0,1-.279-1.225A4.434,4.434,0,0,1,432.438.215a4.1,4.1,0,0,1-2.82-.972,3.145,3.145,0,0,1-1.1-2.465,3.286,3.286,0,0,1,1.38-2.82,6.508,6.508,0,0,1,3.883-1h1.934V-7.96a2.232,2.232,0,0,0-.623-1.66,2.5,2.5,0,0,0-1.837-.618,2.9,2.9,0,0,0-1.783.537,1.583,1.583,0,0,0-.72,1.3h-2a2.743,2.743,0,0,1,.618-1.681,4.216,4.216,0,0,1,1.676-1.284,5.638,5.638,0,0,1,2.326-.473,4.6,4.6,0,0,1,3.147,1A3.623,3.623,0,0,1,437.7-8.067v5.35a6.541,6.541,0,0,0,.408,2.546V0Zm-3.3-1.515A3.493,3.493,0,0,0,434.5-2a2.924,2.924,0,0,0,1.214-1.257V-5.64h-1.558Q430.5-5.64,430.5-3.5a1.809,1.809,0,0,0,.623,1.461A2.4,2.4,0,0,0,432.728-1.515ZM446.435-9.84a5.955,5.955,0,0,0-.978-.075A2.619,2.619,0,0,0,442.8-8.25V0h-1.987V-11.623h1.934l.032,1.343a3.094,3.094,0,0,1,2.771-1.558,2.03,2.03,0,0,1,.881.15ZM452.88.215a5.078,5.078,0,0,1-3.846-1.552,5.761,5.761,0,0,1-1.482-4.152v-.365a6.975,6.975,0,0,1,.661-3.088,5.153,5.153,0,0,1,1.848-2.127,4.645,4.645,0,0,1,2.573-.768,4.353,4.353,0,0,1,3.523,1.493,6.465,6.465,0,0,1,1.257,4.275v.827h-7.874a4.132,4.132,0,0,0,1,2.777,3.157,3.157,0,0,0,2.444,1.058,3.461,3.461,0,0,0,1.783-.43,4.481,4.481,0,0,0,1.278-1.139l1.214.945A4.881,4.881,0,0,1,452.88.215Zm-.247-10.42a2.651,2.651,0,0,0-2.02.875,4.255,4.255,0,0,0-1.01,2.455h5.822v-.15a3.785,3.785,0,0,0-.816-2.347A2.5,2.5,0,0,0,452.633-10.205Zm13.847,7.122a1.463,1.463,0,0,0-.607-1.251,5.842,5.842,0,0,0-2.116-.768,10.005,10.005,0,0,1-2.4-.773A3.408,3.408,0,0,1,460.05-6.95a2.57,2.57,0,0,1-.424-1.482,3.015,3.015,0,0,1,1.208-2.417,4.72,4.72,0,0,1,3.088-.988,4.857,4.857,0,0,1,3.207,1.021,3.241,3.241,0,0,1,1.23,2.61h-2a1.794,1.794,0,0,0-.693-1.407,2.6,2.6,0,0,0-1.746-.591,2.717,2.717,0,0,0-1.7.473,1.488,1.488,0,0,0-.612,1.235,1.206,1.206,0,0,0,.569,1.085,7,7,0,0,0,2.057.7,10.719,10.719,0,0,1,2.412.795,3.518,3.518,0,0,1,1.37,1.112,2.734,2.734,0,0,1,.446,1.584,2.975,2.975,0,0,1-1.246,2.5,5.227,5.227,0,0,1-3.233.94,5.853,5.853,0,0,1-2.471-.494,4.018,4.018,0,0,1-1.681-1.38,3.327,3.327,0,0,1-.607-1.917h1.987a2.058,2.058,0,0,0,.8,1.584,3.1,3.1,0,0,0,1.971.585,3.2,3.2,0,0,0,1.81-.457A1.4,1.4,0,0,0,466.479-3.083Zm14.846,3.3a5.078,5.078,0,0,1-3.846-1.552A5.761,5.761,0,0,1,476-5.489v-.365a6.975,6.975,0,0,1,.661-3.088,5.153,5.153,0,0,1,1.848-2.127,4.645,4.645,0,0,1,2.573-.768,4.353,4.353,0,0,1,3.523,1.493,6.465,6.465,0,0,1,1.257,4.275v.827h-7.874a4.132,4.132,0,0,0,1,2.777,3.157,3.157,0,0,0,2.444,1.058,3.461,3.461,0,0,0,1.783-.43,4.481,4.481,0,0,0,1.278-1.139l1.214.945A4.881,4.881,0,0,1,481.325.215Zm-.247-10.42a2.651,2.651,0,0,0-2.02.875,4.255,4.255,0,0,0-1.01,2.455h5.822v-.15a3.785,3.785,0,0,0-.816-2.347A2.5,2.5,0,0,0,481.078-10.205Zm8.959-1.418.064,1.461a4.236,4.236,0,0,1,3.48-1.676q3.685,0,3.717,4.157V0h-1.987V-7.691a2.676,2.676,0,0,0-.575-1.858,2.3,2.3,0,0,0-1.756-.6,2.868,2.868,0,0,0-1.7.516,3.5,3.5,0,0,0-1.139,1.354V0h-1.987V-11.623Zm21.753,5.3h-3.674V0h-2.073V-15.641h5.178a6.128,6.128,0,0,1,4.066,1.2,4.329,4.329,0,0,1,1.423,3.5,4.211,4.211,0,0,1-.79,2.546,4.713,4.713,0,0,1-2.2,1.622L517.4-.129V0h-2.213Zm-3.674-1.687h3.169a3.578,3.578,0,0,0,2.444-.795,2.686,2.686,0,0,0,.908-2.127,2.828,2.828,0,0,0-.865-2.224,3.666,3.666,0,0,0-2.5-.784h-3.158Zm10.646,2.095a6.865,6.865,0,0,1,.671-3.072A5.008,5.008,0,0,1,521.3-11.1a5.088,5.088,0,0,1,2.734-.741,4.9,4.9,0,0,1,3.84,1.644,6.323,6.323,0,0,1,1.466,4.372v.14a6.925,6.925,0,0,1-.65,3.045,4.935,4.935,0,0,1-1.858,2.1,5.146,5.146,0,0,1-2.777.752,4.889,4.889,0,0,1-3.83-1.644,6.291,6.291,0,0,1-1.466-4.351Zm2,.236a4.973,4.973,0,0,0,.9,3.1,2.871,2.871,0,0,0,2.4,1.171,2.853,2.853,0,0,0,2.406-1.187,5.437,5.437,0,0,0,.892-3.325,4.964,4.964,0,0,0-.908-3.1,2.886,2.886,0,0,0-2.412-1.187,2.854,2.854,0,0,0-2.374,1.171A5.4,5.4,0,0,0,520.76-5.683Zm12.944-5.94.054,1.289a4.292,4.292,0,0,1,3.448-1.5,3.323,3.323,0,0,1,3.319,1.869,4.4,4.4,0,0,1,1.509-1.354,4.458,4.458,0,0,1,2.2-.516q3.824,0,3.889,4.05V0h-1.987V-7.67a2.669,2.669,0,0,0-.569-1.864,2.507,2.507,0,0,0-1.912-.618,2.635,2.635,0,0,0-1.837.661,2.68,2.68,0,0,0-.849,1.778V0h-2V-7.616a2.217,2.217,0,0,0-2.481-2.535,2.659,2.659,0,0,0-2.675,1.665V0h-1.987V-11.623ZM558.293,0a4.175,4.175,0,0,1-.279-1.225A4.434,4.434,0,0,1,554.705.215a4.1,4.1,0,0,1-2.82-.972,3.145,3.145,0,0,1-1.1-2.465,3.286,3.286,0,0,1,1.38-2.82,6.508,6.508,0,0,1,3.883-1h1.934V-7.96a2.232,2.232,0,0,0-.623-1.66,2.5,2.5,0,0,0-1.837-.618,2.9,2.9,0,0,0-1.783.537,1.583,1.583,0,0,0-.72,1.3h-2a2.742,2.742,0,0,1,.618-1.681,4.216,4.216,0,0,1,1.676-1.284,5.638,5.638,0,0,1,2.326-.473,4.6,4.6,0,0,1,3.147,1,3.623,3.623,0,0,1,1.182,2.766v5.35a6.54,6.54,0,0,0,.408,2.546V0ZM555-1.515A3.493,3.493,0,0,0,556.768-2a2.924,2.924,0,0,0,1.214-1.257V-5.64h-1.558q-3.652,0-3.652,2.138a1.809,1.809,0,0,0,.623,1.461A2.4,2.4,0,0,0,555-1.515Z" transform="translate(328 12515)" fill="#09347b"/>
      <path id="Trazado_10874" data-name="Trazado 10874" d="M-2867.5,9861.961h174" transform="translate(3195.501 2668)" fill="none" stroke="#ffa800" stroke-width="3"/>
      <path id="Trazado_10875" data-name="Trazado 10875" d="M-2867.5,9861.961h380" transform="translate(3385.5 2668)" fill="none" stroke="#ffa800" stroke-width="3"/>
      <path id="Trazado_11261" data-name="Trazado 11261" d="M.58-4.843a5.64,5.64,0,0,1,.545-2.522A3.989,3.989,0,0,1,2.694-9.079a4.577,4.577,0,0,1,2.377-.606A4.33,4.33,0,0,1,8.213-8.508a4.727,4.727,0,0,1,1.358,3.2l.018.65A4.97,4.97,0,0,1,8.367-1.147,4.247,4.247,0,0,1,5.089.176,4.268,4.268,0,0,1,1.806-1.143,5.058,5.058,0,0,1,.58-4.729Zm2.54.185a3.545,3.545,0,0,0,.51,2.07,1.682,1.682,0,0,0,1.459.716A1.686,1.686,0,0,0,6.53-2.58a3.879,3.879,0,0,0,.519-2.263A3.51,3.51,0,0,0,6.53-6.9a1.686,1.686,0,0,0-1.459-.729A1.659,1.659,0,0,0,3.63-6.9,3.944,3.944,0,0,0,3.12-4.658ZM16.5-7.128a6.9,6.9,0,0,0-.914-.07,1.86,1.86,0,0,0-1.89.976V0h-2.54V-9.51h2.4l.07,1.134a2.354,2.354,0,0,1,2.118-1.31,2.662,2.662,0,0,1,.791.114ZM22.966,0a2.821,2.821,0,0,1-.255-.853,3.073,3.073,0,0,1-2.4,1.028A3.376,3.376,0,0,1,18-.633a2.6,2.6,0,0,1-.918-2.039A2.687,2.687,0,0,1,18.2-4.992a5.529,5.529,0,0,1,3.239-.817h1.169v-.545a1.567,1.567,0,0,0-.338-1.055A1.331,1.331,0,0,0,21.2-7.8a1.513,1.513,0,0,0-1.006.308,1.045,1.045,0,0,0-.365.844h-2.54a2.551,2.551,0,0,1,.51-1.529,3.37,3.37,0,0,1,1.441-1.1,5.253,5.253,0,0,1,2.092-.4,4.15,4.15,0,0,1,2.791.883,3.09,3.09,0,0,1,1.033,2.483V-2.2a4.546,4.546,0,0,0,.378,2.048V0Zm-2.1-1.767a2.188,2.188,0,0,0,1.037-.25,1.645,1.645,0,0,0,.7-.672V-4.324h-.949q-1.907,0-2.03,1.318l-.009.149a1.017,1.017,0,0,0,.334.782A1.3,1.3,0,0,0,20.865-1.767Zm10.2-.105A1.666,1.666,0,0,0,32.2-2.259a1.355,1.355,0,0,0,.457-1.028h2.382a3.258,3.258,0,0,1-.527,1.771A3.48,3.48,0,0,1,33.1-.268,4.442,4.442,0,0,1,31.1.176a4.129,4.129,0,0,1-3.217-1.3A5.13,5.13,0,0,1,26.71-4.7v-.167a5.071,5.071,0,0,1,1.169-3.507,4.08,4.08,0,0,1,3.208-1.31A4,4,0,0,1,33.948-8.67a3.594,3.594,0,0,1,1.094,2.7H32.66a1.731,1.731,0,0,0-.457-1.2,1.528,1.528,0,0,0-1.16-.461,1.531,1.531,0,0,0-1.34.646,3.739,3.739,0,0,0-.453,2.1v.264A3.786,3.786,0,0,0,29.7-2.514,1.55,1.55,0,0,0,31.061-1.872ZM39.173,0H36.624V-9.51h2.549Zm-2.7-11.971a1.251,1.251,0,0,1,.382-.94A1.436,1.436,0,0,1,37.9-13.28a1.44,1.44,0,0,1,1.037.369,1.244,1.244,0,0,1,.387.94,1.247,1.247,0,0,1-.391.949,1.443,1.443,0,0,1-1.033.369,1.443,1.443,0,0,1-1.033-.369A1.247,1.247,0,0,1,36.475-11.971Zm4.395,7.128a5.64,5.64,0,0,1,.545-2.522,3.989,3.989,0,0,1,1.569-1.714,4.577,4.577,0,0,1,2.377-.606A4.33,4.33,0,0,1,48.5-8.508a4.727,4.727,0,0,1,1.358,3.2l.018.65a4.97,4.97,0,0,1-1.222,3.511A4.247,4.247,0,0,1,45.378.176,4.268,4.268,0,0,1,42.1-1.143a5.058,5.058,0,0,1-1.226-3.586Zm2.54.185a3.545,3.545,0,0,0,.51,2.07,1.682,1.682,0,0,0,1.459.716,1.686,1.686,0,0,0,1.441-.708,3.879,3.879,0,0,0,.519-2.263A3.51,3.51,0,0,0,46.819-6.9a1.686,1.686,0,0,0-1.459-.729,1.659,1.659,0,0,0-1.441.725A3.944,3.944,0,0,0,43.409-4.658ZM45.861-13.5H48.63L46.2-10.775H44.13ZM53.78-9.51l.079,1.1a3.32,3.32,0,0,1,2.733-1.274,2.759,2.759,0,0,1,2.25.888A4.142,4.142,0,0,1,59.6-6.144V0h-2.54V-6.082a1.648,1.648,0,0,0-.352-1.173,1.574,1.574,0,0,0-1.169-.365,1.747,1.747,0,0,0-1.608.914V0H51.39V-9.51ZM72.07,0H69.53V-9.791l-3.032.94v-2.065l5.3-1.9h.272Z" transform="translate(348 12556)" fill="#26c179"/>
      <path id="Trazado_11262" data-name="Trazado 11262" d="M.58-4.843a5.64,5.64,0,0,1,.545-2.522A3.989,3.989,0,0,1,2.694-9.079a4.577,4.577,0,0,1,2.377-.606A4.33,4.33,0,0,1,8.213-8.508a4.727,4.727,0,0,1,1.358,3.2l.018.65A4.97,4.97,0,0,1,8.367-1.147,4.247,4.247,0,0,1,5.089.176,4.268,4.268,0,0,1,1.806-1.143,5.058,5.058,0,0,1,.58-4.729Zm2.54.185a3.545,3.545,0,0,0,.51,2.07,1.682,1.682,0,0,0,1.459.716A1.686,1.686,0,0,0,6.53-2.58a3.879,3.879,0,0,0,.519-2.263A3.51,3.51,0,0,0,6.53-6.9a1.686,1.686,0,0,0-1.459-.729A1.659,1.659,0,0,0,3.63-6.9,3.944,3.944,0,0,0,3.12-4.658ZM16.5-7.128a6.9,6.9,0,0,0-.914-.07,1.86,1.86,0,0,0-1.89.976V0h-2.54V-9.51h2.4l.07,1.134a2.354,2.354,0,0,1,2.118-1.31,2.662,2.662,0,0,1,.791.114ZM22.966,0a2.821,2.821,0,0,1-.255-.853,3.073,3.073,0,0,1-2.4,1.028A3.376,3.376,0,0,1,18-.633a2.6,2.6,0,0,1-.918-2.039A2.687,2.687,0,0,1,18.2-4.992a5.529,5.529,0,0,1,3.239-.817h1.169v-.545a1.567,1.567,0,0,0-.338-1.055A1.331,1.331,0,0,0,21.2-7.8a1.513,1.513,0,0,0-1.006.308,1.045,1.045,0,0,0-.365.844h-2.54a2.551,2.551,0,0,1,.51-1.529,3.37,3.37,0,0,1,1.441-1.1,5.253,5.253,0,0,1,2.092-.4,4.15,4.15,0,0,1,2.791.883,3.09,3.09,0,0,1,1.033,2.483V-2.2a4.546,4.546,0,0,0,.378,2.048V0Zm-2.1-1.767a2.188,2.188,0,0,0,1.037-.25,1.645,1.645,0,0,0,.7-.672V-4.324h-.949q-1.907,0-2.03,1.318l-.009.149a1.017,1.017,0,0,0,.334.782A1.3,1.3,0,0,0,20.865-1.767Zm10.2-.105A1.666,1.666,0,0,0,32.2-2.259a1.355,1.355,0,0,0,.457-1.028h2.382a3.258,3.258,0,0,1-.527,1.771A3.48,3.48,0,0,1,33.1-.268,4.442,4.442,0,0,1,31.1.176a4.129,4.129,0,0,1-3.217-1.3A5.13,5.13,0,0,1,26.71-4.7v-.167a5.071,5.071,0,0,1,1.169-3.507,4.08,4.08,0,0,1,3.208-1.31A4,4,0,0,1,33.948-8.67a3.594,3.594,0,0,1,1.094,2.7H32.66a1.731,1.731,0,0,0-.457-1.2,1.528,1.528,0,0,0-1.16-.461,1.531,1.531,0,0,0-1.34.646,3.739,3.739,0,0,0-.453,2.1v.264A3.786,3.786,0,0,0,29.7-2.514,1.55,1.55,0,0,0,31.061-1.872ZM39.173,0H36.624V-9.51h2.549Zm-2.7-11.971a1.251,1.251,0,0,1,.382-.94A1.436,1.436,0,0,1,37.9-13.28a1.44,1.44,0,0,1,1.037.369,1.244,1.244,0,0,1,.387.94,1.247,1.247,0,0,1-.391.949,1.443,1.443,0,0,1-1.033.369,1.443,1.443,0,0,1-1.033-.369A1.247,1.247,0,0,1,36.475-11.971Zm4.395,7.128a5.64,5.64,0,0,1,.545-2.522,3.989,3.989,0,0,1,1.569-1.714,4.577,4.577,0,0,1,2.377-.606A4.33,4.33,0,0,1,48.5-8.508a4.727,4.727,0,0,1,1.358,3.2l.018.65a4.97,4.97,0,0,1-1.222,3.511A4.247,4.247,0,0,1,45.378.176,4.268,4.268,0,0,1,42.1-1.143a5.058,5.058,0,0,1-1.226-3.586Zm2.54.185a3.545,3.545,0,0,0,.51,2.07,1.682,1.682,0,0,0,1.459.716,1.686,1.686,0,0,0,1.441-.708,3.879,3.879,0,0,0,.519-2.263A3.51,3.51,0,0,0,46.819-6.9a1.686,1.686,0,0,0-1.459-.729,1.659,1.659,0,0,0-1.441.725A3.944,3.944,0,0,0,43.409-4.658ZM45.861-13.5H48.63L46.2-10.775H44.13ZM53.78-9.51l.079,1.1a3.32,3.32,0,0,1,2.733-1.274,2.759,2.759,0,0,1,2.25.888A4.142,4.142,0,0,1,59.6-6.144V0h-2.54V-6.082a1.648,1.648,0,0,0-.352-1.173,1.574,1.574,0,0,0-1.169-.365,1.747,1.747,0,0,0-1.608.914V0H51.39V-9.51ZM74.672,0H65.9V-1.74l4.14-4.412A10.212,10.212,0,0,0,71.3-7.778,2.612,2.612,0,0,0,71.71-9.1a1.955,1.955,0,0,0-.431-1.34,1.555,1.555,0,0,0-1.23-.488,1.677,1.677,0,0,0-1.358.593,2.35,2.35,0,0,0-.5,1.56H65.646a4.2,4.2,0,0,1,.558-2.136,3.934,3.934,0,0,1,1.578-1.516,4.8,4.8,0,0,1,2.312-.549,4.54,4.54,0,0,1,3.072.949,3.358,3.358,0,0,1,1.094,2.681,4.3,4.3,0,0,1-.492,1.934,10.745,10.745,0,0,1-1.687,2.294L69.17-2.048h5.5Z" transform="translate(571 12556)" fill="#26c179"/>
      <g id="Grupo_13527" data-name="Grupo 13527" transform="translate(-4258.235 11716.312)">
        <circle id="Elipse_503" data-name="Elipse 503" cx="8.579" cy="8.579" r="8.579" transform="translate(4540.235 783.529)" fill="#26c179"/>
        <g id="Grupo_10024" data-name="Grupo 10024" transform="translate(4543.576 784.48)">
          <path id="Trazado_1490" data-name="Trazado 1490" d="M4619.155,817.733a1.125,1.125,0,0,1-.8-.33l-3.577-3.576a1.125,1.125,0,0,1,1.592-1.592l2.78,2.781,10.036-10.036a1.125,1.125,0,0,1,1.592,1.591L4619.951,817.4A1.125,1.125,0,0,1,4619.155,817.733Z" transform="translate(-4614.454 -804.651)" fill="#02255f"/>
        </g>
      </g>
    </g>
    <g id="Grupo_13650" data-name="Grupo 13650">
      <path id="Trazado_11260" data-name="Trazado 11260" d="M3.889-1.687H11.3V0H1.815V-15.641H3.889ZM20.518,0a4.175,4.175,0,0,1-.279-1.225A4.434,4.434,0,0,1,16.93.215a4.1,4.1,0,0,1-2.82-.972,3.145,3.145,0,0,1-1.1-2.465,3.286,3.286,0,0,1,1.38-2.82,6.508,6.508,0,0,1,3.883-1h1.934V-7.96a2.232,2.232,0,0,0-.623-1.66,2.5,2.5,0,0,0-1.837-.618,2.9,2.9,0,0,0-1.783.537,1.583,1.583,0,0,0-.72,1.3h-2a2.743,2.743,0,0,1,.618-1.681,4.216,4.216,0,0,1,1.676-1.284,5.638,5.638,0,0,1,2.326-.473,4.6,4.6,0,0,1,3.147,1,3.623,3.623,0,0,1,1.182,2.766v5.35A6.54,6.54,0,0,0,22.6-.172V0Zm-3.3-1.515A3.493,3.493,0,0,0,18.992-2a2.924,2.924,0,0,0,1.214-1.257V-5.64H18.648Q15-5.64,15-3.5a1.809,1.809,0,0,0,.623,1.461A2.4,2.4,0,0,0,17.22-1.515ZM32.076-3.083a1.463,1.463,0,0,0-.607-1.251A5.842,5.842,0,0,0,29.353-5.1a10.005,10.005,0,0,1-2.4-.773A3.408,3.408,0,0,1,25.647-6.95a2.57,2.57,0,0,1-.424-1.482,3.015,3.015,0,0,1,1.208-2.417,4.72,4.72,0,0,1,3.088-.988,4.857,4.857,0,0,1,3.207,1.021,3.241,3.241,0,0,1,1.23,2.61h-2a1.794,1.794,0,0,0-.693-1.407,2.6,2.6,0,0,0-1.746-.591,2.717,2.717,0,0,0-1.7.473A1.488,1.488,0,0,0,27.21-8.5a1.205,1.205,0,0,0,.569,1.085,7,7,0,0,0,2.057.7,10.719,10.719,0,0,1,2.412.795,3.518,3.518,0,0,1,1.37,1.112,2.734,2.734,0,0,1,.446,1.584,2.975,2.975,0,0,1-1.246,2.5,5.227,5.227,0,0,1-3.233.94,5.853,5.853,0,0,1-2.471-.494,4.018,4.018,0,0,1-1.681-1.38,3.327,3.327,0,0,1-.607-1.917h1.987a2.058,2.058,0,0,0,.8,1.584,3.1,3.1,0,0,0,1.971.585,3.2,3.2,0,0,0,1.81-.457A1.4,1.4,0,0,0,32.076-3.083ZM45.934-2.7l2.879-8.927h2.03L46.675,0H45.16L40.949-11.623h2.03ZM54.914,0H52.927V-11.623h1.987ZM52.766-14.706a1.186,1.186,0,0,1,.3-.816,1.109,1.109,0,0,1,.875-.333,1.126,1.126,0,0,1,.881.333,1.174,1.174,0,0,1,.3.816,1.135,1.135,0,0,1-.3.806,1.147,1.147,0,0,1-.881.322,1.129,1.129,0,0,1-.875-.322A1.147,1.147,0,0,1,52.766-14.706ZM61.929-2.7l2.879-8.927h2.03L62.67,0H61.155L56.944-11.623h2.03ZM70.909,0H68.922V-11.623h1.987ZM68.761-14.706a1.186,1.186,0,0,1,.3-.816,1.109,1.109,0,0,1,.875-.333,1.126,1.126,0,0,1,.881.333,1.174,1.174,0,0,1,.3.816,1.135,1.135,0,0,1-.3.806,1.147,1.147,0,0,1-.881.322,1.129,1.129,0,0,1-.875-.322A1.147,1.147,0,0,1,68.761-14.706ZM78.912.215a5.078,5.078,0,0,1-3.846-1.552,5.761,5.761,0,0,1-1.482-4.152v-.365a6.975,6.975,0,0,1,.661-3.088,5.154,5.154,0,0,1,1.848-2.127,4.645,4.645,0,0,1,2.573-.768,4.353,4.353,0,0,1,3.523,1.493,6.465,6.465,0,0,1,1.257,4.275v.827H75.571a4.132,4.132,0,0,0,1,2.777A3.157,3.157,0,0,0,79.02-1.407a3.461,3.461,0,0,0,1.783-.43,4.481,4.481,0,0,0,1.278-1.139l1.214.945A4.881,4.881,0,0,1,78.912.215Zm-.247-10.42a2.651,2.651,0,0,0-2.02.875,4.255,4.255,0,0,0-1.01,2.455h5.822v-.15a3.785,3.785,0,0,0-.816-2.347A2.5,2.5,0,0,0,78.665-10.205Zm8.959-1.418.064,1.461a4.236,4.236,0,0,1,3.48-1.676q3.685,0,3.717,4.157V0H92.9V-7.691a2.676,2.676,0,0,0-.575-1.858,2.3,2.3,0,0,0-1.756-.6,2.868,2.868,0,0,0-1.7.516,3.5,3.5,0,0,0-1.139,1.354V0H85.744V-11.623ZM97.4-5.908a6.809,6.809,0,0,1,1.268-4.3,4.008,4.008,0,0,1,3.319-1.627,4.031,4.031,0,0,1,3.233,1.4V-16.5h1.987V0h-1.826l-.1-1.246A4.047,4.047,0,0,1,101.965.215a3.97,3.97,0,0,1-3.292-1.654A6.886,6.886,0,0,1,97.4-5.758Zm1.987.226a5.155,5.155,0,0,0,.816,3.094,2.639,2.639,0,0,0,2.256,1.117,2.9,2.9,0,0,0,2.761-1.7V-8.508a2.921,2.921,0,0,0-2.739-1.644A2.652,2.652,0,0,0,100.2-9.023,5.676,5.676,0,0,0,99.387-5.683ZM117.466,0a4.175,4.175,0,0,1-.279-1.225A4.434,4.434,0,0,1,113.878.215a4.1,4.1,0,0,1-2.82-.972,3.145,3.145,0,0,1-1.1-2.465,3.286,3.286,0,0,1,1.38-2.82,6.508,6.508,0,0,1,3.883-1h1.934V-7.96a2.232,2.232,0,0,0-.623-1.66,2.5,2.5,0,0,0-1.837-.618,2.9,2.9,0,0,0-1.783.537,1.583,1.583,0,0,0-.72,1.3h-2a2.743,2.743,0,0,1,.618-1.681,4.216,4.216,0,0,1,1.676-1.284,5.638,5.638,0,0,1,2.326-.473,4.6,4.6,0,0,1,3.147,1,3.623,3.623,0,0,1,1.182,2.766v5.35a6.54,6.54,0,0,0,.408,2.546V0Zm-3.3-1.515A3.493,3.493,0,0,0,115.94-2a2.924,2.924,0,0,0,1.214-1.257V-5.64H115.6q-3.652,0-3.652,2.138a1.809,1.809,0,0,0,.623,1.461A2.4,2.4,0,0,0,114.168-1.515Zm14.856-1.568a1.463,1.463,0,0,0-.607-1.251A5.842,5.842,0,0,0,126.3-5.1a10.005,10.005,0,0,1-2.4-.773A3.408,3.408,0,0,1,122.6-6.95a2.57,2.57,0,0,1-.424-1.482,3.015,3.015,0,0,1,1.208-2.417,4.72,4.72,0,0,1,3.088-.988,4.857,4.857,0,0,1,3.207,1.021,3.241,3.241,0,0,1,1.23,2.61h-2a1.794,1.794,0,0,0-.693-1.407,2.6,2.6,0,0,0-1.746-.591,2.717,2.717,0,0,0-1.7.473,1.488,1.488,0,0,0-.612,1.235,1.205,1.205,0,0,0,.569,1.085,7,7,0,0,0,2.057.7,10.719,10.719,0,0,1,2.412.795,3.518,3.518,0,0,1,1.37,1.112,2.734,2.734,0,0,1,.446,1.584,2.975,2.975,0,0,1-1.246,2.5,5.227,5.227,0,0,1-3.233.94,5.853,5.853,0,0,1-2.471-.494,4.018,4.018,0,0,1-1.681-1.38,3.327,3.327,0,0,1-.607-1.917h1.987a2.058,2.058,0,0,0,.8,1.584,3.1,3.1,0,0,0,1.971.585,3.2,3.2,0,0,0,1.81-.457A1.4,1.4,0,0,0,129.024-3.083Zm9.539-2.825a6.822,6.822,0,0,1,1.257-4.334,4.073,4.073,0,0,1,3.373-1.6,4.07,4.07,0,0,1,3.255,1.386l.086-1.171h1.826V4.469h-1.987V-1.074a4.171,4.171,0,0,1-3.2,1.289,4.008,4.008,0,0,1-3.357-1.638,6.974,6.974,0,0,1-1.251-4.345Zm1.987.226a5.172,5.172,0,0,0,.843,3.137,2.682,2.682,0,0,0,2.272,1.139,2.976,2.976,0,0,0,2.707-1.568V-8.669a2.985,2.985,0,0,0-2.686-1.536A2.7,2.7,0,0,0,141.4-9.061,5.63,5.63,0,0,0,140.551-5.683Zm18.176,4.533A4.221,4.221,0,0,1,155.321.215a3.613,3.613,0,0,1-2.831-1.08,4.673,4.673,0,0,1-.983-3.2v-7.562H153.5v7.509q0,2.643,2.148,2.643a2.975,2.975,0,0,0,3.029-1.7v-8.454h1.987V0H158.77ZM168.5.215a5.078,5.078,0,0,1-3.846-1.552,5.761,5.761,0,0,1-1.482-4.152v-.365a6.975,6.975,0,0,1,.661-3.088,5.154,5.154,0,0,1,1.848-2.127,4.645,4.645,0,0,1,2.573-.768,4.353,4.353,0,0,1,3.523,1.493,6.465,6.465,0,0,1,1.257,4.275v.827h-7.874a4.132,4.132,0,0,0,1,2.777,3.157,3.157,0,0,0,2.444,1.058,3.461,3.461,0,0,0,1.783-.43,4.48,4.48,0,0,0,1.278-1.139l1.214.945A4.881,4.881,0,0,1,168.5.215Zm-.247-10.42a2.651,2.651,0,0,0-2.02.875,4.255,4.255,0,0,0-1.01,2.455h5.822v-.15a3.785,3.785,0,0,0-.816-2.347A2.5,2.5,0,0,0,168.255-10.205Zm6.6,4.3a6.809,6.809,0,0,1,1.268-4.3,4.008,4.008,0,0,1,3.319-1.627,4.031,4.031,0,0,1,3.233,1.4V-16.5h1.987V0h-1.826l-.1-1.246A4.047,4.047,0,0,1,179.416.215a3.97,3.97,0,0,1-3.292-1.654,6.886,6.886,0,0,1-1.273-4.318Zm1.987.226a5.155,5.155,0,0,0,.816,3.094,2.639,2.639,0,0,0,2.256,1.117,2.9,2.9,0,0,0,2.761-1.7V-8.508a2.921,2.921,0,0,0-2.739-1.644,2.652,2.652,0,0,0-2.277,1.128A5.676,5.676,0,0,0,176.838-5.683ZM194.917,0a4.175,4.175,0,0,1-.279-1.225A4.434,4.434,0,0,1,191.329.215a4.1,4.1,0,0,1-2.82-.972,3.145,3.145,0,0,1-1.1-2.465,3.286,3.286,0,0,1,1.38-2.82,6.508,6.508,0,0,1,3.883-1h1.934V-7.96a2.232,2.232,0,0,0-.623-1.66,2.5,2.5,0,0,0-1.837-.618,2.9,2.9,0,0,0-1.783.537,1.583,1.583,0,0,0-.72,1.3h-2a2.743,2.743,0,0,1,.618-1.681,4.216,4.216,0,0,1,1.676-1.284,5.638,5.638,0,0,1,2.326-.473,4.6,4.6,0,0,1,3.147,1,3.623,3.623,0,0,1,1.182,2.766v5.35A6.54,6.54,0,0,0,197-.172V0Zm-3.3-1.515A3.493,3.493,0,0,0,193.392-2a2.924,2.924,0,0,0,1.214-1.257V-5.64h-1.558Q189.4-5.64,189.4-3.5a1.809,1.809,0,0,0,.623,1.461A2.4,2.4,0,0,0,191.619-1.515ZM205.326-9.84a5.955,5.955,0,0,0-.978-.075A2.619,2.619,0,0,0,201.7-8.25V0h-1.987V-11.623h1.934l.032,1.343a3.094,3.094,0,0,1,2.771-1.558,2.03,2.03,0,0,1,.881.15Zm1.085,3.921a6.865,6.865,0,0,1,.671-3.072,5.008,5.008,0,0,1,1.869-2.105,5.088,5.088,0,0,1,2.734-.741,4.9,4.9,0,0,1,3.84,1.644,6.323,6.323,0,0,1,1.466,4.372v.14a6.925,6.925,0,0,1-.65,3.045,4.935,4.935,0,0,1-1.858,2.1,5.146,5.146,0,0,1-2.777.752,4.889,4.889,0,0,1-3.83-1.644,6.291,6.291,0,0,1-1.466-4.351Zm2,.236a4.972,4.972,0,0,0,.9,3.1,2.871,2.871,0,0,0,2.4,1.171,2.853,2.853,0,0,0,2.406-1.187A5.437,5.437,0,0,0,215-5.919a4.964,4.964,0,0,0-.908-3.1,2.886,2.886,0,0,0-2.412-1.187,2.854,2.854,0,0,0-2.374,1.171A5.4,5.4,0,0,0,208.409-5.683Zm12.955-5.94.064,1.461a4.236,4.236,0,0,1,3.48-1.676q3.685,0,3.717,4.157V0h-1.987V-7.691a2.676,2.676,0,0,0-.575-1.858,2.3,2.3,0,0,0-1.756-.6,2.868,2.868,0,0,0-1.7.516,3.5,3.5,0,0,0-1.139,1.354V0h-1.987V-11.623Zm15.222,5.715a6.809,6.809,0,0,1,1.268-4.3,4.008,4.008,0,0,1,3.319-1.627,4.031,4.031,0,0,1,3.233,1.4V-16.5h1.987V0h-1.826l-.1-1.246A4.047,4.047,0,0,1,241.151.215a3.97,3.97,0,0,1-3.292-1.654,6.886,6.886,0,0,1-1.273-4.318Zm1.987.226a5.155,5.155,0,0,0,.816,3.094,2.639,2.639,0,0,0,2.256,1.117,2.9,2.9,0,0,0,2.761-1.7V-8.508a2.921,2.921,0,0,0-2.739-1.644,2.652,2.652,0,0,0-2.277,1.128A5.676,5.676,0,0,0,238.573-5.683ZM254.3.215a5.078,5.078,0,0,1-3.846-1.552,5.761,5.761,0,0,1-1.482-4.152v-.365a6.975,6.975,0,0,1,.661-3.088,5.154,5.154,0,0,1,1.848-2.127,4.645,4.645,0,0,1,2.573-.768,4.353,4.353,0,0,1,3.523,1.493,6.465,6.465,0,0,1,1.257,4.275v.827h-7.874a4.132,4.132,0,0,0,1,2.777,3.157,3.157,0,0,0,2.444,1.058,3.461,3.461,0,0,0,1.783-.43,4.481,4.481,0,0,0,1.278-1.139l1.214.945A4.881,4.881,0,0,1,254.3.215Zm-.247-10.42a2.651,2.651,0,0,0-2.02.875,4.255,4.255,0,0,0-1.01,2.455h5.822v-.15a3.785,3.785,0,0,0-.816-2.347A2.5,2.5,0,0,0,254.053-10.205ZM267.9-3.083a1.463,1.463,0,0,0-.607-1.251,5.842,5.842,0,0,0-2.116-.768,10.005,10.005,0,0,1-2.4-.773A3.408,3.408,0,0,1,261.47-6.95a2.57,2.57,0,0,1-.424-1.482,3.015,3.015,0,0,1,1.208-2.417,4.72,4.72,0,0,1,3.088-.988,4.857,4.857,0,0,1,3.207,1.021,3.241,3.241,0,0,1,1.23,2.61h-2a1.794,1.794,0,0,0-.693-1.407,2.6,2.6,0,0,0-1.746-.591,2.717,2.717,0,0,0-1.7.473,1.488,1.488,0,0,0-.612,1.235,1.206,1.206,0,0,0,.569,1.085,7,7,0,0,0,2.057.7,10.719,10.719,0,0,1,2.412.795,3.518,3.518,0,0,1,1.37,1.112,2.734,2.734,0,0,1,.446,1.584,2.975,2.975,0,0,1-1.246,2.5,5.227,5.227,0,0,1-3.233.94,5.853,5.853,0,0,1-2.471-.494,4.018,4.018,0,0,1-1.681-1.38,3.327,3.327,0,0,1-.607-1.917h1.987a2.058,2.058,0,0,0,.8,1.584,3.1,3.1,0,0,0,1.971.585,3.2,3.2,0,0,0,1.81-.457A1.4,1.4,0,0,0,267.9-3.083Zm7.272-11.354v2.814h2.17v1.536h-2.17v7.208a1.61,1.61,0,0,0,.29,1.047,1.222,1.222,0,0,0,.988.349,4.811,4.811,0,0,0,.945-.129V0a5.761,5.761,0,0,1-1.525.215,2.475,2.475,0,0,1-2.009-.806,3.461,3.461,0,0,1-.677-2.288v-7.208h-2.116v-1.536h2.116v-2.814Zm10.108,4.6a5.955,5.955,0,0,0-.978-.075,2.619,2.619,0,0,0-2.653,1.665V0h-1.987V-11.623H281.6l.032,1.343a3.094,3.094,0,0,1,2.771-1.558,2.03,2.03,0,0,1,.881.15Zm9,8.69A4.221,4.221,0,0,1,290.877.215a3.613,3.613,0,0,1-2.831-1.08,4.673,4.673,0,0,1-.983-3.2v-7.562h1.987v7.509q0,2.643,2.148,2.643a2.975,2.975,0,0,0,3.029-1.7v-8.454h1.987V0h-1.891ZM301.394,0h-1.987V-11.623h1.987Zm-2.148-14.706a1.186,1.186,0,0,1,.3-.816,1.109,1.109,0,0,1,.875-.333,1.126,1.126,0,0,1,.881.333,1.174,1.174,0,0,1,.3.816,1.135,1.135,0,0,1-.3.806,1.147,1.147,0,0,1-.881.322,1.129,1.129,0,0,1-.875-.322A1.147,1.147,0,0,1,299.245-14.706Zm4.845,8.8a6.809,6.809,0,0,1,1.268-4.3,4.008,4.008,0,0,1,3.319-1.627,4.031,4.031,0,0,1,3.233,1.4V-16.5H313.9V0h-1.826l-.1-1.246A4.047,4.047,0,0,1,308.655.215a3.97,3.97,0,0,1-3.292-1.654,6.886,6.886,0,0,1-1.273-4.318Zm1.987.226a5.155,5.155,0,0,0,.816,3.094,2.639,2.639,0,0,0,2.256,1.117,2.9,2.9,0,0,0,2.761-1.7V-8.508a2.921,2.921,0,0,0-2.739-1.644,2.652,2.652,0,0,0-2.277,1.128A5.676,5.676,0,0,0,306.077-5.683ZM324.156,0a4.175,4.175,0,0,1-.279-1.225A4.434,4.434,0,0,1,320.568.215a4.1,4.1,0,0,1-2.82-.972,3.145,3.145,0,0,1-1.1-2.465,3.286,3.286,0,0,1,1.38-2.82,6.508,6.508,0,0,1,3.883-1h1.934V-7.96a2.232,2.232,0,0,0-.623-1.66,2.5,2.5,0,0,0-1.837-.618A2.9,2.9,0,0,0,319.6-9.7a1.583,1.583,0,0,0-.72,1.3h-2a2.743,2.743,0,0,1,.618-1.681,4.216,4.216,0,0,1,1.676-1.284,5.638,5.638,0,0,1,2.326-.473,4.6,4.6,0,0,1,3.147,1,3.623,3.623,0,0,1,1.182,2.766v5.35a6.541,6.541,0,0,0,.408,2.546V0Zm-3.3-1.515A3.493,3.493,0,0,0,322.631-2a2.924,2.924,0,0,0,1.214-1.257V-5.64h-1.558q-3.652,0-3.652,2.138a1.809,1.809,0,0,0,.623,1.461A2.4,2.4,0,0,0,320.858-1.515Zm14.856-1.568a1.463,1.463,0,0,0-.607-1.251,5.842,5.842,0,0,0-2.116-.768,10.005,10.005,0,0,1-2.4-.773,3.408,3.408,0,0,1-1.311-1.074,2.57,2.57,0,0,1-.424-1.482,3.015,3.015,0,0,1,1.208-2.417,4.72,4.72,0,0,1,3.088-.988,4.857,4.857,0,0,1,3.207,1.021,3.241,3.241,0,0,1,1.23,2.61h-2a1.794,1.794,0,0,0-.693-1.407,2.6,2.6,0,0,0-1.746-.591,2.717,2.717,0,0,0-1.7.473,1.488,1.488,0,0,0-.612,1.235,1.206,1.206,0,0,0,.569,1.085,7,7,0,0,0,2.057.7,10.719,10.719,0,0,1,2.412.795,3.518,3.518,0,0,1,1.37,1.112,2.734,2.734,0,0,1,.446,1.584,2.975,2.975,0,0,1-1.246,2.5,5.227,5.227,0,0,1-3.233.94,5.853,5.853,0,0,1-2.471-.494,4.018,4.018,0,0,1-1.681-1.38,3.327,3.327,0,0,1-.607-1.917h1.987a2.058,2.058,0,0,0,.8,1.584,3.1,3.1,0,0,0,1.971.585,3.2,3.2,0,0,0,1.81-.457A1.4,1.4,0,0,0,335.715-3.083Zm4.265-7.444a1.244,1.244,0,0,1,.306-.859,1.167,1.167,0,0,1,.918-.344,1.2,1.2,0,0,1,.929.344,1.219,1.219,0,0,1,.317.859,1.153,1.153,0,0,1-.317.827,1.223,1.223,0,0,1-.929.333,1.187,1.187,0,0,1-.918-.333A1.176,1.176,0,0,1,339.979-10.527Zm.376,13.643-1.128-.773a5.184,5.184,0,0,0,1.053-2.9V-2.353h1.944V-.795a4.893,4.893,0,0,1-.532,2.17A5.08,5.08,0,0,1,340.355,3.115Zm22.247-6.2A1.463,1.463,0,0,0,362-4.334a5.842,5.842,0,0,0-2.116-.768,10.005,10.005,0,0,1-2.4-.773,3.408,3.408,0,0,1-1.311-1.074,2.57,2.57,0,0,1-.424-1.482,3.015,3.015,0,0,1,1.208-2.417,4.72,4.72,0,0,1,3.088-.988,4.857,4.857,0,0,1,3.207,1.021,3.241,3.241,0,0,1,1.23,2.61h-2a1.794,1.794,0,0,0-.693-1.407,2.6,2.6,0,0,0-1.746-.591,2.717,2.717,0,0,0-1.7.473,1.488,1.488,0,0,0-.612,1.235,1.206,1.206,0,0,0,.569,1.085,7,7,0,0,0,2.057.7,10.719,10.719,0,0,1,2.412.795,3.518,3.518,0,0,1,1.37,1.112,2.734,2.734,0,0,1,.446,1.584,2.975,2.975,0,0,1-1.246,2.5,5.227,5.227,0,0,1-3.233.94,5.853,5.853,0,0,1-2.471-.494,4.018,4.018,0,0,1-1.681-1.38,3.327,3.327,0,0,1-.607-1.917h1.987a2.058,2.058,0,0,0,.8,1.584,3.1,3.1,0,0,0,1.971.585,3.2,3.2,0,0,0,1.81-.457A1.4,1.4,0,0,0,362.6-3.083Zm9.4,3.3a5.078,5.078,0,0,1-3.846-1.552,5.761,5.761,0,0,1-1.482-4.152v-.365a6.975,6.975,0,0,1,.661-3.088,5.153,5.153,0,0,1,1.848-2.127,4.645,4.645,0,0,1,2.573-.768,4.353,4.353,0,0,1,3.523,1.493,6.465,6.465,0,0,1,1.257,4.275v.827h-7.874a4.132,4.132,0,0,0,1,2.777,3.157,3.157,0,0,0,2.444,1.058,3.461,3.461,0,0,0,1.783-.43,4.481,4.481,0,0,0,1.278-1.139l1.214.945A4.881,4.881,0,0,1,372,.215Zm-.247-10.42a2.651,2.651,0,0,0-2.02.875,4.255,4.255,0,0,0-1.01,2.455h5.822v-.15a3.785,3.785,0,0,0-.816-2.347A2.5,2.5,0,0,0,371.755-10.205ZM389.9-9.84a5.955,5.955,0,0,0-.978-.075,2.619,2.619,0,0,0-2.653,1.665V0H384.28V-11.623h1.934l.032,1.343a3.094,3.094,0,0,1,2.771-1.558,2.03,2.03,0,0,1,.881.15ZM396.344.215A5.078,5.078,0,0,1,392.5-1.337a5.761,5.761,0,0,1-1.482-4.152v-.365a6.975,6.975,0,0,1,.661-3.088,5.153,5.153,0,0,1,1.848-2.127,4.645,4.645,0,0,1,2.573-.768,4.353,4.353,0,0,1,3.523,1.493,6.465,6.465,0,0,1,1.257,4.275v.827H393a4.132,4.132,0,0,0,1,2.777,3.157,3.157,0,0,0,2.444,1.058,3.461,3.461,0,0,0,1.783-.43,4.481,4.481,0,0,0,1.278-1.139l1.214.945A4.881,4.881,0,0,1,396.344.215Zm-.247-10.42a2.651,2.651,0,0,0-2.02.875,4.255,4.255,0,0,0-1.01,2.455h5.822v-.15a3.785,3.785,0,0,0-.816-2.347A2.5,2.5,0,0,0,396.1-10.205Zm6.6,4.3a6.822,6.822,0,0,1,1.257-4.334,4.073,4.073,0,0,1,3.373-1.6,4.07,4.07,0,0,1,3.255,1.386l.086-1.171h1.826V4.469H410.5V-1.074A4.171,4.171,0,0,1,407.3.215a4.008,4.008,0,0,1-3.357-1.638,6.974,6.974,0,0,1-1.251-4.345Zm1.987.226a5.172,5.172,0,0,0,.843,3.137,2.682,2.682,0,0,0,2.272,1.139A2.976,2.976,0,0,0,410.5-2.976V-8.669a2.985,2.985,0,0,0-2.686-1.536,2.7,2.7,0,0,0-2.288,1.144A5.63,5.63,0,0,0,404.68-5.683Zm18.176,4.533A4.221,4.221,0,0,1,419.45.215a3.613,3.613,0,0,1-2.831-1.08,4.673,4.673,0,0,1-.983-3.2v-7.562h1.987v7.509q0,2.643,2.148,2.643a2.975,2.975,0,0,0,3.029-1.7v-8.454h1.987V0H422.9ZM429.967,0h-1.987V-11.623h1.987Zm-2.148-14.706a1.186,1.186,0,0,1,.3-.816,1.109,1.109,0,0,1,.875-.333,1.126,1.126,0,0,1,.881.333,1.174,1.174,0,0,1,.3.816,1.135,1.135,0,0,1-.3.806,1.147,1.147,0,0,1-.881.322,1.129,1.129,0,0,1-.875-.322A1.147,1.147,0,0,1,427.818-14.706ZM437.97.215a5.078,5.078,0,0,1-3.846-1.552,5.761,5.761,0,0,1-1.482-4.152v-.365a6.975,6.975,0,0,1,.661-3.088,5.153,5.153,0,0,1,1.848-2.127,4.645,4.645,0,0,1,2.573-.768,4.353,4.353,0,0,1,3.523,1.493A6.465,6.465,0,0,1,442.5-6.069v.827h-7.874a4.132,4.132,0,0,0,1,2.777,3.157,3.157,0,0,0,2.444,1.058,3.461,3.461,0,0,0,1.783-.43,4.481,4.481,0,0,0,1.278-1.139l1.214.945A4.881,4.881,0,0,1,437.97.215Zm-.247-10.42a2.651,2.651,0,0,0-2.02.875,4.255,4.255,0,0,0-1.01,2.455h5.822v-.15a3.785,3.785,0,0,0-.816-2.347A2.5,2.5,0,0,0,437.723-10.205Zm12.7.365a5.955,5.955,0,0,0-.978-.075,2.619,2.619,0,0,0-2.653,1.665V0H444.8V-11.623h1.934l.032,1.343a3.094,3.094,0,0,1,2.771-1.558,2.03,2.03,0,0,1,.881.15ZM456.865.215a5.078,5.078,0,0,1-3.846-1.552,5.761,5.761,0,0,1-1.482-4.152v-.365a6.975,6.975,0,0,1,.661-3.088,5.153,5.153,0,0,1,1.848-2.127,4.645,4.645,0,0,1,2.573-.768,4.353,4.353,0,0,1,3.523,1.493A6.465,6.465,0,0,1,461.4-6.069v.827h-7.874a4.132,4.132,0,0,0,1,2.777,3.157,3.157,0,0,0,2.444,1.058,3.461,3.461,0,0,0,1.783-.43,4.481,4.481,0,0,0,1.278-1.139l1.214.945A4.881,4.881,0,0,1,456.865.215Zm-.247-10.42a2.651,2.651,0,0,0-2.02.875,4.255,4.255,0,0,0-1.01,2.455h5.822v-.15a3.785,3.785,0,0,0-.816-2.347A2.5,2.5,0,0,0,456.618-10.205ZM471.3,0h-1.987V-16.5H471.3Zm10.355,0a4.175,4.175,0,0,1-.279-1.225A4.434,4.434,0,0,1,478.07.215a4.1,4.1,0,0,1-2.82-.972,3.145,3.145,0,0,1-1.1-2.465,3.286,3.286,0,0,1,1.38-2.82,6.508,6.508,0,0,1,3.883-1h1.934V-7.96a2.232,2.232,0,0,0-.623-1.66,2.5,2.5,0,0,0-1.837-.618A2.9,2.9,0,0,0,477.1-9.7a1.583,1.583,0,0,0-.72,1.3h-2A2.743,2.743,0,0,1,475-10.082a4.216,4.216,0,0,1,1.676-1.284A5.638,5.638,0,0,1,479-11.838a4.6,4.6,0,0,1,3.147,1,3.623,3.623,0,0,1,1.182,2.766v5.35a6.541,6.541,0,0,0,.408,2.546V0Zm-3.3-1.515A3.493,3.493,0,0,0,480.133-2a2.924,2.924,0,0,0,1.214-1.257V-5.64h-1.558q-3.652,0-3.652,2.138a1.809,1.809,0,0,0,.623,1.461A2.4,2.4,0,0,0,478.36-1.515Zm23.354-4.168A6.96,6.96,0,0,1,500.5-1.407,3.89,3.89,0,0,1,497.213.215a4.263,4.263,0,0,1-3.33-1.343v5.6H491.9V-11.623h1.815l.1,1.289a4.094,4.094,0,0,1,3.373-1.5,3.963,3.963,0,0,1,3.314,1.579,7.035,7.035,0,0,1,1.219,4.394Zm-1.987-.226a5.135,5.135,0,0,0-.838-3.1,2.7,2.7,0,0,0-2.3-1.139,2.921,2.921,0,0,0-2.707,1.6V-3a2.927,2.927,0,0,0,2.729,1.59,2.686,2.686,0,0,0,2.272-1.133A5.606,5.606,0,0,0,499.727-5.908Zm10.13-3.932a5.955,5.955,0,0,0-.978-.075,2.619,2.619,0,0,0-2.653,1.665V0h-1.987V-11.623h1.934l.032,1.343a3.094,3.094,0,0,1,2.771-1.558,2.03,2.03,0,0,1,.881.15Zm1.085,3.921a6.865,6.865,0,0,1,.671-3.072,5.008,5.008,0,0,1,1.869-2.105,5.088,5.088,0,0,1,2.734-.741,4.9,4.9,0,0,1,3.84,1.644,6.323,6.323,0,0,1,1.466,4.372v.14a6.925,6.925,0,0,1-.65,3.045,4.935,4.935,0,0,1-1.858,2.1,5.146,5.146,0,0,1-2.777.752,4.889,4.889,0,0,1-3.83-1.644,6.291,6.291,0,0,1-1.466-4.351Zm2,.236a4.973,4.973,0,0,0,.9,3.1,2.871,2.871,0,0,0,2.4,1.171,2.853,2.853,0,0,0,2.406-1.187,5.437,5.437,0,0,0,.892-3.325,4.964,4.964,0,0,0-.908-3.1,2.886,2.886,0,0,0-2.412-1.187,2.854,2.854,0,0,0-2.374,1.171A5.4,5.4,0,0,0,512.939-5.683Zm12.955-5.94.064,1.461a4.235,4.235,0,0,1,3.48-1.676q3.685,0,3.717,4.157V0h-1.987V-7.691a2.676,2.676,0,0,0-.575-1.858,2.3,2.3,0,0,0-1.756-.6,2.868,2.868,0,0,0-1.7.516A3.5,3.5,0,0,0,526-8.282V0h-1.987V-11.623Zm12.955-2.814v2.814h2.17v1.536h-2.17v7.208a1.61,1.61,0,0,0,.29,1.047,1.221,1.221,0,0,0,.988.349,4.811,4.811,0,0,0,.945-.129V0a5.761,5.761,0,0,1-1.525.215,2.475,2.475,0,0,1-2.009-.806,3.461,3.461,0,0,1-.677-2.288v-7.208h-2.116v-1.536h2.116v-2.814ZM550.516,0a4.175,4.175,0,0,1-.279-1.225A4.434,4.434,0,0,1,546.928.215a4.1,4.1,0,0,1-2.82-.972,3.145,3.145,0,0,1-1.1-2.465,3.286,3.286,0,0,1,1.38-2.82,6.508,6.508,0,0,1,3.883-1H550.2V-7.96a2.232,2.232,0,0,0-.623-1.66,2.5,2.5,0,0,0-1.837-.618,2.9,2.9,0,0,0-1.783.537,1.583,1.583,0,0,0-.72,1.3h-2a2.742,2.742,0,0,1,.618-1.681,4.216,4.216,0,0,1,1.676-1.284,5.638,5.638,0,0,1,2.326-.473,4.6,4.6,0,0,1,3.147,1,3.623,3.623,0,0,1,1.182,2.766v5.35A6.54,6.54,0,0,0,552.6-.172V0Zm-3.3-1.515A3.493,3.493,0,0,0,548.99-2,2.924,2.924,0,0,0,550.2-3.255V-5.64h-1.558q-3.652,0-3.652,2.138a1.809,1.809,0,0,0,.623,1.461A2.4,2.4,0,0,0,547.218-1.515Zm18.2.107a2.863,2.863,0,0,0,1.858-.645,2.268,2.268,0,0,0,.881-1.611h1.88a3.6,3.6,0,0,1-.687,1.9,4.528,4.528,0,0,1-1.692,1.439,4.882,4.882,0,0,1-2.24.537,4.788,4.788,0,0,1-3.776-1.584,6.311,6.311,0,0,1-1.4-4.334v-.333a7,7,0,0,1,.623-3.019,4.745,4.745,0,0,1,1.789-2.052,5.081,5.081,0,0,1,2.755-.73,4.662,4.662,0,0,1,3.25,1.171,4.185,4.185,0,0,1,1.38,3.04h-1.88A2.739,2.739,0,0,0,567.3-9.48a2.657,2.657,0,0,0-1.9-.725,2.781,2.781,0,0,0-2.347,1.09,5.121,5.121,0,0,0-.833,3.153v.376a5.018,5.018,0,0,0,.827,3.094A2.8,2.8,0,0,0,565.415-1.407Zm6.327-4.512a6.865,6.865,0,0,1,.671-3.072,5.008,5.008,0,0,1,1.869-2.105,5.088,5.088,0,0,1,2.734-.741,4.9,4.9,0,0,1,3.84,1.644,6.323,6.323,0,0,1,1.466,4.372v.14a6.925,6.925,0,0,1-.65,3.045,4.935,4.935,0,0,1-1.858,2.1,5.146,5.146,0,0,1-2.777.752,4.889,4.889,0,0,1-3.83-1.644,6.291,6.291,0,0,1-1.466-4.351Zm2,.236a4.973,4.973,0,0,0,.9,3.1,2.871,2.871,0,0,0,2.4,1.171,2.853,2.853,0,0,0,2.406-1.187,5.437,5.437,0,0,0,.892-3.325,4.964,4.964,0,0,0-.908-3.1,2.886,2.886,0,0,0-2.412-1.187,2.854,2.854,0,0,0-2.374,1.171A5.4,5.4,0,0,0,573.74-5.683Zm12.955-5.94.064,1.461a4.235,4.235,0,0,1,3.48-1.676q3.685,0,3.717,4.157V0H591.97V-7.691A2.676,2.676,0,0,0,591.4-9.55a2.3,2.3,0,0,0-1.756-.6,2.868,2.868,0,0,0-1.7.516A3.5,3.5,0,0,0,586.8-8.282V0h-1.987V-11.623Zm17.026,8.54a1.463,1.463,0,0,0-.607-1.251A5.842,5.842,0,0,0,601-5.1a10.006,10.006,0,0,1-2.4-.773,3.408,3.408,0,0,1-1.311-1.074,2.569,2.569,0,0,1-.424-1.482,3.015,3.015,0,0,1,1.208-2.417,4.72,4.72,0,0,1,3.088-.988,4.857,4.857,0,0,1,3.207,1.021,3.241,3.241,0,0,1,1.23,2.61h-2a1.794,1.794,0,0,0-.693-1.407,2.6,2.6,0,0,0-1.746-.591,2.717,2.717,0,0,0-1.7.473,1.488,1.488,0,0,0-.612,1.235,1.205,1.205,0,0,0,.569,1.085,7,7,0,0,0,2.057.7,10.719,10.719,0,0,1,2.412.795,3.518,3.518,0,0,1,1.37,1.112,2.734,2.734,0,0,1,.446,1.584,2.975,2.975,0,0,1-1.246,2.5,5.227,5.227,0,0,1-3.233.94,5.853,5.853,0,0,1-2.471-.494,4.018,4.018,0,0,1-1.681-1.38,3.327,3.327,0,0,1-.607-1.917h1.987a2.058,2.058,0,0,0,.8,1.584,3.1,3.1,0,0,0,1.971.585,3.2,3.2,0,0,0,1.81-.457A1.4,1.4,0,0,0,603.722-3.083Zm7.272-11.354v2.814h2.17v1.536h-2.17v7.208a1.61,1.61,0,0,0,.29,1.047,1.221,1.221,0,0,0,.988.349,4.811,4.811,0,0,0,.945-.129V0a5.761,5.761,0,0,1-1.525.215,2.475,2.475,0,0,1-2.009-.806,3.461,3.461,0,0,1-.677-2.288v-7.208h-2.116v-1.536h2.116v-2.814ZM621.1-9.84a5.956,5.956,0,0,0-.978-.075,2.619,2.619,0,0,0-2.653,1.665V0h-1.987V-11.623h1.934l.032,1.343a3.094,3.094,0,0,1,2.771-1.558,2.03,2.03,0,0,1,.881.15Zm9,8.69A4.221,4.221,0,0,1,626.7.215a3.613,3.613,0,0,1-2.831-1.08,4.673,4.673,0,0,1-.983-3.2v-7.562h1.987v7.509q0,2.643,2.148,2.643a2.975,2.975,0,0,0,3.029-1.7v-8.454h1.987V0h-1.891Zm9.614-.258a2.863,2.863,0,0,0,1.858-.645,2.268,2.268,0,0,0,.881-1.611h1.88a3.6,3.6,0,0,1-.687,1.9,4.528,4.528,0,0,1-1.692,1.439,4.882,4.882,0,0,1-2.24.537,4.788,4.788,0,0,1-3.776-1.584,6.311,6.311,0,0,1-1.4-4.334v-.333a7,7,0,0,1,.623-3.019,4.745,4.745,0,0,1,1.789-2.052,5.081,5.081,0,0,1,2.755-.73,4.662,4.662,0,0,1,3.25,1.171,4.185,4.185,0,0,1,1.38,3.04h-1.88A2.739,2.739,0,0,0,641.6-9.48a2.657,2.657,0,0,0-1.9-.725,2.781,2.781,0,0,0-2.347,1.09,5.121,5.121,0,0,0-.833,3.153v.376a5.018,5.018,0,0,0,.827,3.094A2.8,2.8,0,0,0,639.719-1.407Zm11.516,0a2.863,2.863,0,0,0,1.858-.645,2.268,2.268,0,0,0,.881-1.611h1.88a3.6,3.6,0,0,1-.687,1.9,4.528,4.528,0,0,1-1.692,1.439,4.882,4.882,0,0,1-2.24.537,4.788,4.788,0,0,1-3.776-1.584,6.311,6.311,0,0,1-1.4-4.334v-.333a7,7,0,0,1,.623-3.019,4.745,4.745,0,0,1,1.789-2.052,5.081,5.081,0,0,1,2.755-.73,4.662,4.662,0,0,1,3.25,1.171,4.185,4.185,0,0,1,1.38,3.04h-1.88a2.739,2.739,0,0,0-.854-1.853,2.657,2.657,0,0,0-1.9-.725,2.781,2.781,0,0,0-2.347,1.09,5.121,5.121,0,0,0-.833,3.153v.376a5.018,5.018,0,0,0,.827,3.094A2.8,2.8,0,0,0,651.234-1.407ZM660.247,0H658.26V-11.623h1.987ZM658.1-14.706a1.186,1.186,0,0,1,.3-.816,1.109,1.109,0,0,1,.875-.333,1.126,1.126,0,0,1,.881.333,1.174,1.174,0,0,1,.3.816,1.135,1.135,0,0,1-.3.806,1.147,1.147,0,0,1-.881.322,1.129,1.129,0,0,1-.875-.322A1.147,1.147,0,0,1,658.1-14.706Zm4.8,8.787a6.865,6.865,0,0,1,.671-3.072,5.008,5.008,0,0,1,1.869-2.105,5.088,5.088,0,0,1,2.734-.741,4.9,4.9,0,0,1,3.84,1.644,6.323,6.323,0,0,1,1.466,4.372v.14a6.925,6.925,0,0,1-.65,3.045,4.935,4.935,0,0,1-1.858,2.1A5.146,5.146,0,0,1,668.2.215a4.889,4.889,0,0,1-3.83-1.644A6.291,6.291,0,0,1,662.9-5.779Zm2,.236a4.973,4.973,0,0,0,.9,3.1,2.871,2.871,0,0,0,2.4,1.171A2.853,2.853,0,0,0,670.6-2.594a5.437,5.437,0,0,0,.892-3.325,4.964,4.964,0,0,0-.908-3.1,2.886,2.886,0,0,0-2.412-1.187A2.854,2.854,0,0,0,665.8-9.034,5.4,5.4,0,0,0,664.9-5.683ZM669.077-16.5h2.406L668.6-13.342H667Zm8.776,4.877.064,1.461a4.235,4.235,0,0,1,3.48-1.676q3.685,0,3.717,4.157V0h-1.987V-7.691a2.676,2.676,0,0,0-.575-1.858,2.3,2.3,0,0,0-1.756-.6,2.868,2.868,0,0,0-1.7.516,3.5,3.5,0,0,0-1.139,1.354V0h-1.987V-11.623Zm15.222,5.715a6.809,6.809,0,0,1,1.268-4.3,4.008,4.008,0,0,1,3.319-1.627,4.031,4.031,0,0,1,3.233,1.4V-16.5h1.987V0h-1.826l-.1-1.246A4.047,4.047,0,0,1,697.641.215a3.97,3.97,0,0,1-3.292-1.654,6.886,6.886,0,0,1-1.273-4.318Zm1.987.226a5.156,5.156,0,0,0,.816,3.094,2.639,2.639,0,0,0,2.256,1.117,2.9,2.9,0,0,0,2.761-1.7V-8.508a2.921,2.921,0,0,0-2.739-1.644,2.652,2.652,0,0,0-2.277,1.128A5.676,5.676,0,0,0,695.063-5.683Zm15.727,5.9a5.078,5.078,0,0,1-3.846-1.552,5.761,5.761,0,0,1-1.482-4.152v-.365a6.975,6.975,0,0,1,.661-3.088,5.154,5.154,0,0,1,1.848-2.127,4.645,4.645,0,0,1,2.573-.768,4.353,4.353,0,0,1,3.523,1.493,6.465,6.465,0,0,1,1.257,4.275v.827h-7.874a4.132,4.132,0,0,0,1,2.777A3.157,3.157,0,0,0,710.9-1.407a3.461,3.461,0,0,0,1.783-.43,4.48,4.48,0,0,0,1.278-1.139l1.214.945A4.881,4.881,0,0,1,710.789.215Zm-.247-10.42a2.651,2.651,0,0,0-2.02.875,4.255,4.255,0,0,0-1.01,2.455h5.822v-.15a3.785,3.785,0,0,0-.816-2.347A2.5,2.5,0,0,0,710.542-10.205ZM725.227,0h-1.987V-16.5h1.987Zm10.355,0a4.175,4.175,0,0,1-.279-1.225A4.434,4.434,0,0,1,731.994.215a4.1,4.1,0,0,1-2.82-.972,3.145,3.145,0,0,1-1.1-2.465,3.286,3.286,0,0,1,1.38-2.82,6.508,6.508,0,0,1,3.883-1h1.934V-7.96a2.232,2.232,0,0,0-.623-1.66,2.5,2.5,0,0,0-1.837-.618,2.9,2.9,0,0,0-1.783.537,1.583,1.583,0,0,0-.72,1.3h-2a2.742,2.742,0,0,1,.618-1.681,4.216,4.216,0,0,1,1.676-1.284,5.638,5.638,0,0,1,2.326-.473,4.6,4.6,0,0,1,3.147,1,3.623,3.623,0,0,1,1.182,2.766v5.35a6.54,6.54,0,0,0,.408,2.546V0Zm-3.3-1.515A3.493,3.493,0,0,0,734.057-2a2.924,2.924,0,0,0,1.214-1.257V-5.64h-1.558q-3.652,0-3.652,2.138a1.809,1.809,0,0,0,.623,1.461A2.4,2.4,0,0,0,732.284-1.515Zm14.856-1.568a1.463,1.463,0,0,0-.607-1.251,5.842,5.842,0,0,0-2.116-.768,10.006,10.006,0,0,1-2.4-.773,3.408,3.408,0,0,1-1.311-1.074,2.569,2.569,0,0,1-.424-1.482A3.015,3.015,0,0,1,741.5-10.85a4.72,4.72,0,0,1,3.088-.988,4.857,4.857,0,0,1,3.207,1.021,3.241,3.241,0,0,1,1.23,2.61h-2a1.794,1.794,0,0,0-.693-1.407,2.6,2.6,0,0,0-1.746-.591,2.717,2.717,0,0,0-1.7.473,1.488,1.488,0,0,0-.612,1.235,1.205,1.205,0,0,0,.569,1.085,7,7,0,0,0,2.057.7,10.719,10.719,0,0,1,2.412.795,3.518,3.518,0,0,1,1.37,1.112,2.734,2.734,0,0,1,.446,1.584,2.975,2.975,0,0,1-1.246,2.5,5.227,5.227,0,0,1-3.233.94,5.853,5.853,0,0,1-2.471-.494A4.018,4.018,0,0,1,740.5-1.66a3.327,3.327,0,0,1-.607-1.917h1.987a2.058,2.058,0,0,0,.8,1.584,3.1,3.1,0,0,0,1.971.585,3.2,3.2,0,0,0,1.81-.457A1.4,1.4,0,0,0,747.141-3.083Zm11.9-8.54.064,1.461a4.235,4.235,0,0,1,3.48-1.676q3.685,0,3.717,4.157V0h-1.987V-7.691a2.676,2.676,0,0,0-.575-1.858,2.3,2.3,0,0,0-1.756-.6,2.868,2.868,0,0,0-1.7.516,3.5,3.5,0,0,0-1.139,1.354V0h-1.987V-11.623ZM776.478-1.149A4.221,4.221,0,0,1,773.072.215a3.613,3.613,0,0,1-2.831-1.08,4.673,4.673,0,0,1-.983-3.2v-7.562h1.987v7.509q0,2.643,2.148,2.643a2.975,2.975,0,0,0,3.029-1.7v-8.454h1.987V0h-1.891ZM786.253.215a5.078,5.078,0,0,1-3.846-1.552,5.761,5.761,0,0,1-1.482-4.152v-.365a6.975,6.975,0,0,1,.661-3.088,5.154,5.154,0,0,1,1.848-2.127,4.645,4.645,0,0,1,2.573-.768,4.353,4.353,0,0,1,3.523,1.493,6.465,6.465,0,0,1,1.257,4.275v.827h-7.874a4.132,4.132,0,0,0,1,2.777,3.157,3.157,0,0,0,2.444,1.058,3.461,3.461,0,0,0,1.783-.43,4.48,4.48,0,0,0,1.278-1.139l1.214.945A4.881,4.881,0,0,1,786.253.215Zm-.247-10.42a2.651,2.651,0,0,0-2.02.875,4.255,4.255,0,0,0-1.01,2.455H788.8v-.15a3.785,3.785,0,0,0-.816-2.347A2.5,2.5,0,0,0,786.006-10.205ZM796.78-2.7l2.879-8.927h2.03L797.521,0h-1.515L791.8-11.623h2.03ZM810.616,0a4.175,4.175,0,0,1-.279-1.225A4.434,4.434,0,0,1,807.028.215a4.1,4.1,0,0,1-2.82-.972,3.145,3.145,0,0,1-1.1-2.465,3.286,3.286,0,0,1,1.38-2.82,6.508,6.508,0,0,1,3.883-1H810.3V-7.96a2.232,2.232,0,0,0-.623-1.66,2.5,2.5,0,0,0-1.837-.618,2.9,2.9,0,0,0-1.783.537,1.583,1.583,0,0,0-.72,1.3h-2a2.742,2.742,0,0,1,.618-1.681,4.216,4.216,0,0,1,1.676-1.284,5.638,5.638,0,0,1,2.326-.473,4.6,4.6,0,0,1,3.147,1,3.623,3.623,0,0,1,1.182,2.766v5.35A6.54,6.54,0,0,0,812.7-.172V0Zm-3.3-1.515A3.493,3.493,0,0,0,809.091-2,2.924,2.924,0,0,0,810.3-3.255V-5.64h-1.558q-3.652,0-3.652,2.138a1.809,1.809,0,0,0,.623,1.461A2.4,2.4,0,0,0,807.318-1.515Zm14.856-1.568a1.463,1.463,0,0,0-.607-1.251,5.842,5.842,0,0,0-2.116-.768,10.006,10.006,0,0,1-2.4-.773,3.408,3.408,0,0,1-1.311-1.074,2.569,2.569,0,0,1-.424-1.482,3.015,3.015,0,0,1,1.208-2.417,4.72,4.72,0,0,1,3.088-.988,4.857,4.857,0,0,1,3.207,1.021,3.241,3.241,0,0,1,1.23,2.61h-2a1.794,1.794,0,0,0-.693-1.407,2.6,2.6,0,0,0-1.746-.591,2.717,2.717,0,0,0-1.7.473,1.488,1.488,0,0,0-.612,1.235,1.205,1.205,0,0,0,.569,1.085,7,7,0,0,0,2.057.7,10.719,10.719,0,0,1,2.412.795,3.518,3.518,0,0,1,1.37,1.112,2.734,2.734,0,0,1,.446,1.584,2.975,2.975,0,0,1-1.246,2.5,5.227,5.227,0,0,1-3.233.94,5.853,5.853,0,0,1-2.471-.494,4.018,4.018,0,0,1-1.681-1.38,3.327,3.327,0,0,1-.607-1.917h1.987a2.058,2.058,0,0,0,.8,1.584,3.1,3.1,0,0,0,1.971.585,3.2,3.2,0,0,0,1.81-.457A1.4,1.4,0,0,0,822.175-3.083Zm4.619,2.041A1.244,1.244,0,0,1,827.1-1.9a1.167,1.167,0,0,1,.918-.344,1.2,1.2,0,0,1,.929.344,1.22,1.22,0,0,1,.317.859,1.153,1.153,0,0,1-.317.827,1.223,1.223,0,0,1-.929.333,1.187,1.187,0,0,1-.918-.333A1.176,1.176,0,0,1,826.794-1.042Z" transform="translate(328 12616)" fill="#09347b"/>
      <path id="Trazado_10876" data-name="Trazado 10876" d="M-2867.5,9861.961h335" transform="translate(3195.501 2769)" fill="none" stroke="#ffa800" stroke-width="3"/>
      <path id="Trazado_10877" data-name="Trazado 10877" d="M-2867.5,9861.961h491" transform="translate(3543.5 2769)" fill="none" stroke="#ffa800" stroke-width="3"/>
      <path id="Trazado_11263" data-name="Trazado 11263" d="M.58-4.843a5.64,5.64,0,0,1,.545-2.522A3.989,3.989,0,0,1,2.694-9.079a4.577,4.577,0,0,1,2.377-.606A4.33,4.33,0,0,1,8.213-8.508a4.727,4.727,0,0,1,1.358,3.2l.018.65A4.97,4.97,0,0,1,8.367-1.147,4.247,4.247,0,0,1,5.089.176,4.268,4.268,0,0,1,1.806-1.143,5.058,5.058,0,0,1,.58-4.729Zm2.54.185a3.545,3.545,0,0,0,.51,2.07,1.682,1.682,0,0,0,1.459.716A1.686,1.686,0,0,0,6.53-2.58a3.879,3.879,0,0,0,.519-2.263A3.51,3.51,0,0,0,6.53-6.9a1.686,1.686,0,0,0-1.459-.729A1.659,1.659,0,0,0,3.63-6.9,3.944,3.944,0,0,0,3.12-4.658ZM16.5-7.128a6.9,6.9,0,0,0-.914-.07,1.86,1.86,0,0,0-1.89.976V0h-2.54V-9.51h2.4l.07,1.134a2.354,2.354,0,0,1,2.118-1.31,2.662,2.662,0,0,1,.791.114ZM22.966,0a2.821,2.821,0,0,1-.255-.853,3.073,3.073,0,0,1-2.4,1.028A3.376,3.376,0,0,1,18-.633a2.6,2.6,0,0,1-.918-2.039A2.687,2.687,0,0,1,18.2-4.992a5.529,5.529,0,0,1,3.239-.817h1.169v-.545a1.567,1.567,0,0,0-.338-1.055A1.331,1.331,0,0,0,21.2-7.8a1.513,1.513,0,0,0-1.006.308,1.045,1.045,0,0,0-.365.844h-2.54a2.551,2.551,0,0,1,.51-1.529,3.37,3.37,0,0,1,1.441-1.1,5.253,5.253,0,0,1,2.092-.4,4.15,4.15,0,0,1,2.791.883,3.09,3.09,0,0,1,1.033,2.483V-2.2a4.546,4.546,0,0,0,.378,2.048V0Zm-2.1-1.767a2.188,2.188,0,0,0,1.037-.25,1.645,1.645,0,0,0,.7-.672V-4.324h-.949q-1.907,0-2.03,1.318l-.009.149a1.017,1.017,0,0,0,.334.782A1.3,1.3,0,0,0,20.865-1.767Zm10.2-.105A1.666,1.666,0,0,0,32.2-2.259a1.355,1.355,0,0,0,.457-1.028h2.382a3.258,3.258,0,0,1-.527,1.771A3.48,3.48,0,0,1,33.1-.268,4.442,4.442,0,0,1,31.1.176a4.129,4.129,0,0,1-3.217-1.3A5.13,5.13,0,0,1,26.71-4.7v-.167a5.071,5.071,0,0,1,1.169-3.507,4.08,4.08,0,0,1,3.208-1.31A4,4,0,0,1,33.948-8.67a3.594,3.594,0,0,1,1.094,2.7H32.66a1.731,1.731,0,0,0-.457-1.2,1.528,1.528,0,0,0-1.16-.461,1.531,1.531,0,0,0-1.34.646,3.739,3.739,0,0,0-.453,2.1v.264A3.786,3.786,0,0,0,29.7-2.514,1.55,1.55,0,0,0,31.061-1.872ZM39.173,0H36.624V-9.51h2.549Zm-2.7-11.971a1.251,1.251,0,0,1,.382-.94A1.436,1.436,0,0,1,37.9-13.28a1.44,1.44,0,0,1,1.037.369,1.244,1.244,0,0,1,.387.94,1.247,1.247,0,0,1-.391.949,1.443,1.443,0,0,1-1.033.369,1.443,1.443,0,0,1-1.033-.369A1.247,1.247,0,0,1,36.475-11.971Zm4.395,7.128a5.64,5.64,0,0,1,.545-2.522,3.989,3.989,0,0,1,1.569-1.714,4.577,4.577,0,0,1,2.377-.606A4.33,4.33,0,0,1,48.5-8.508a4.727,4.727,0,0,1,1.358,3.2l.018.65a4.97,4.97,0,0,1-1.222,3.511A4.247,4.247,0,0,1,45.378.176,4.268,4.268,0,0,1,42.1-1.143a5.058,5.058,0,0,1-1.226-3.586Zm2.54.185a3.545,3.545,0,0,0,.51,2.07,1.682,1.682,0,0,0,1.459.716,1.686,1.686,0,0,0,1.441-.708,3.879,3.879,0,0,0,.519-2.263A3.51,3.51,0,0,0,46.819-6.9a1.686,1.686,0,0,0-1.459-.729,1.659,1.659,0,0,0-1.441.725A3.944,3.944,0,0,0,43.409-4.658ZM45.861-13.5H48.63L46.2-10.775H44.13ZM53.78-9.51l.079,1.1a3.32,3.32,0,0,1,2.733-1.274,2.759,2.759,0,0,1,2.25.888A4.142,4.142,0,0,1,59.6-6.144V0h-2.54V-6.082a1.648,1.648,0,0,0-.352-1.173,1.574,1.574,0,0,0-1.169-.365,1.747,1.747,0,0,0-1.608.914V0H51.39V-9.51ZM72.07,0H69.53V-9.791l-3.032.94v-2.065l5.3-1.9h.272Z" transform="translate(458 12657)" fill="#26c179"/>
      <path id="Trazado_11264" data-name="Trazado 11264" d="M.58-4.843a5.64,5.64,0,0,1,.545-2.522A3.989,3.989,0,0,1,2.694-9.079a4.577,4.577,0,0,1,2.377-.606A4.33,4.33,0,0,1,8.213-8.508a4.727,4.727,0,0,1,1.358,3.2l.018.65A4.97,4.97,0,0,1,8.367-1.147,4.247,4.247,0,0,1,5.089.176,4.268,4.268,0,0,1,1.806-1.143,5.058,5.058,0,0,1,.58-4.729Zm2.54.185a3.545,3.545,0,0,0,.51,2.07,1.682,1.682,0,0,0,1.459.716A1.686,1.686,0,0,0,6.53-2.58a3.879,3.879,0,0,0,.519-2.263A3.51,3.51,0,0,0,6.53-6.9a1.686,1.686,0,0,0-1.459-.729A1.659,1.659,0,0,0,3.63-6.9,3.944,3.944,0,0,0,3.12-4.658ZM16.5-7.128a6.9,6.9,0,0,0-.914-.07,1.86,1.86,0,0,0-1.89.976V0h-2.54V-9.51h2.4l.07,1.134a2.354,2.354,0,0,1,2.118-1.31,2.662,2.662,0,0,1,.791.114ZM22.966,0a2.821,2.821,0,0,1-.255-.853,3.073,3.073,0,0,1-2.4,1.028A3.376,3.376,0,0,1,18-.633a2.6,2.6,0,0,1-.918-2.039A2.687,2.687,0,0,1,18.2-4.992a5.529,5.529,0,0,1,3.239-.817h1.169v-.545a1.567,1.567,0,0,0-.338-1.055A1.331,1.331,0,0,0,21.2-7.8a1.513,1.513,0,0,0-1.006.308,1.045,1.045,0,0,0-.365.844h-2.54a2.551,2.551,0,0,1,.51-1.529,3.37,3.37,0,0,1,1.441-1.1,5.253,5.253,0,0,1,2.092-.4,4.15,4.15,0,0,1,2.791.883,3.09,3.09,0,0,1,1.033,2.483V-2.2a4.546,4.546,0,0,0,.378,2.048V0Zm-2.1-1.767a2.188,2.188,0,0,0,1.037-.25,1.645,1.645,0,0,0,.7-.672V-4.324h-.949q-1.907,0-2.03,1.318l-.009.149a1.017,1.017,0,0,0,.334.782A1.3,1.3,0,0,0,20.865-1.767Zm10.2-.105A1.666,1.666,0,0,0,32.2-2.259a1.355,1.355,0,0,0,.457-1.028h2.382a3.258,3.258,0,0,1-.527,1.771A3.48,3.48,0,0,1,33.1-.268,4.442,4.442,0,0,1,31.1.176a4.129,4.129,0,0,1-3.217-1.3A5.13,5.13,0,0,1,26.71-4.7v-.167a5.071,5.071,0,0,1,1.169-3.507,4.08,4.08,0,0,1,3.208-1.31A4,4,0,0,1,33.948-8.67a3.594,3.594,0,0,1,1.094,2.7H32.66a1.731,1.731,0,0,0-.457-1.2,1.528,1.528,0,0,0-1.16-.461,1.531,1.531,0,0,0-1.34.646,3.739,3.739,0,0,0-.453,2.1v.264A3.786,3.786,0,0,0,29.7-2.514,1.55,1.55,0,0,0,31.061-1.872ZM39.173,0H36.624V-9.51h2.549Zm-2.7-11.971a1.251,1.251,0,0,1,.382-.94A1.436,1.436,0,0,1,37.9-13.28a1.44,1.44,0,0,1,1.037.369,1.244,1.244,0,0,1,.387.94,1.247,1.247,0,0,1-.391.949,1.443,1.443,0,0,1-1.033.369,1.443,1.443,0,0,1-1.033-.369A1.247,1.247,0,0,1,36.475-11.971Zm4.395,7.128a5.64,5.64,0,0,1,.545-2.522,3.989,3.989,0,0,1,1.569-1.714,4.577,4.577,0,0,1,2.377-.606A4.33,4.33,0,0,1,48.5-8.508a4.727,4.727,0,0,1,1.358,3.2l.018.65a4.97,4.97,0,0,1-1.222,3.511A4.247,4.247,0,0,1,45.378.176,4.268,4.268,0,0,1,42.1-1.143a5.058,5.058,0,0,1-1.226-3.586Zm2.54.185a3.545,3.545,0,0,0,.51,2.07,1.682,1.682,0,0,0,1.459.716,1.686,1.686,0,0,0,1.441-.708,3.879,3.879,0,0,0,.519-2.263A3.51,3.51,0,0,0,46.819-6.9a1.686,1.686,0,0,0-1.459-.729,1.659,1.659,0,0,0-1.441.725A3.944,3.944,0,0,0,43.409-4.658ZM45.861-13.5H48.63L46.2-10.775H44.13ZM53.78-9.51l.079,1.1a3.32,3.32,0,0,1,2.733-1.274,2.759,2.759,0,0,1,2.25.888A4.142,4.142,0,0,1,59.6-6.144V0h-2.54V-6.082a1.648,1.648,0,0,0-.352-1.173,1.574,1.574,0,0,0-1.169-.365,1.747,1.747,0,0,0-1.608.914V0H51.39V-9.51ZM74.672,0H65.9V-1.74l4.14-4.412A10.212,10.212,0,0,0,71.3-7.778,2.612,2.612,0,0,0,71.71-9.1a1.955,1.955,0,0,0-.431-1.34,1.555,1.555,0,0,0-1.23-.488,1.677,1.677,0,0,0-1.358.593,2.35,2.35,0,0,0-.5,1.56H65.646a4.2,4.2,0,0,1,.558-2.136,3.934,3.934,0,0,1,1.578-1.516,4.8,4.8,0,0,1,2.312-.549,4.54,4.54,0,0,1,3.072.949,3.358,3.358,0,0,1,1.094,2.681,4.3,4.3,0,0,1-.492,1.934,10.745,10.745,0,0,1-1.687,2.294L69.17-2.048h5.5Z" transform="translate(870 12657)" fill="#26c179"/>
      <g id="Grupo_13528" data-name="Grupo 13528" transform="translate(-4258.235 11817.312)">
        <circle id="Elipse_503-2" data-name="Elipse 503" cx="8.579" cy="8.579" r="8.579" transform="translate(4540.235 783.529)" fill="#26c179"/>
        <g id="Grupo_10024-2" data-name="Grupo 10024" transform="translate(4543.576 784.48)">
          <path id="Trazado_1490-2" data-name="Trazado 1490" d="M4619.155,817.733a1.125,1.125,0,0,1-.8-.33l-3.577-3.576a1.125,1.125,0,0,1,1.592-1.592l2.78,2.781,10.036-10.036a1.125,1.125,0,0,1,1.592,1.591L4619.951,817.4A1.125,1.125,0,0,1,4619.155,817.733Z" transform="translate(-4614.454 -804.651)" fill="#02255f"/>
        </g>
      </g>
    </g>
  </g>
</svg>
