<svg xmlns="http://www.w3.org/2000/svg" width="261.001" height="223.001" viewBox="0 0 261.001 223.001">
  <g id="Grupo_13661" data-name="Grupo 13661" transform="translate(-597 -1758)">
    <path id="Unión_5" data-name="Unión 5" d="M6235-2377a5,5,0,0,1-5-5v-213a5,5,0,0,1,5-5h238a5,5,0,0,1,5,5v99.779l13,7.222-13,7.221V-2382a5,5,0,0,1-5,5Z" transform="translate(-5633 4358)" fill="#f0f0f0"/>
    <g id="Grupo_13637" data-name="Grupo 13637">
      <path id="Trazado_11236" data-name="Trazado 11236" d="M3.663,0H1.676V-11.623H3.663ZM1.515-14.706a1.186,1.186,0,0,1,.3-.816,1.109,1.109,0,0,1,.875-.333,1.126,1.126,0,0,1,.881.333,1.174,1.174,0,0,1,.3.816,1.135,1.135,0,0,1-.3.806,1.147,1.147,0,0,1-.881.322A1.129,1.129,0,0,1,1.81-13.9,1.147,1.147,0,0,1,1.515-14.706Zm7.208,3.083.064,1.461a4.236,4.236,0,0,1,3.48-1.676q3.685,0,3.717,4.157V0H14V-7.691a2.676,2.676,0,0,0-.575-1.858,2.3,2.3,0,0,0-1.756-.6,2.868,2.868,0,0,0-1.7.516A3.5,3.5,0,0,0,8.83-8.282V0H6.843V-11.623Zm12.955-2.814v2.814h2.17v1.536h-2.17v7.208a1.61,1.61,0,0,0,.29,1.047,1.221,1.221,0,0,0,.988.349,4.811,4.811,0,0,0,.945-.129V0a5.761,5.761,0,0,1-1.525.215,2.475,2.475,0,0,1-2.009-.806,3.461,3.461,0,0,1-.677-2.288v-7.208H17.574v-1.536H19.69v-2.814Zm10.108,4.6a5.955,5.955,0,0,0-.978-.075A2.619,2.619,0,0,0,28.155-8.25V0H26.168V-11.623H28.1l.032,1.343a3.094,3.094,0,0,1,2.771-1.558,2.03,2.03,0,0,1,.881.15Zm1.085,3.921a6.865,6.865,0,0,1,.671-3.072A5.008,5.008,0,0,1,35.412-11.1a5.088,5.088,0,0,1,2.734-.741,4.9,4.9,0,0,1,3.84,1.644,6.323,6.323,0,0,1,1.466,4.372v.14a6.925,6.925,0,0,1-.65,3.045,4.935,4.935,0,0,1-1.858,2.1,5.146,5.146,0,0,1-2.777.752,4.889,4.889,0,0,1-3.83-1.644,6.291,6.291,0,0,1-1.466-4.351Zm2,.236a4.972,4.972,0,0,0,.9,3.1,2.871,2.871,0,0,0,2.4,1.171,2.853,2.853,0,0,0,2.406-1.187,5.437,5.437,0,0,0,.892-3.325,4.964,4.964,0,0,0-.908-3.1,2.886,2.886,0,0,0-2.412-1.187,2.854,2.854,0,0,0-2.374,1.171A5.4,5.4,0,0,0,34.869-5.683Zm10.592-.226a6.809,6.809,0,0,1,1.268-4.3,4.008,4.008,0,0,1,3.319-1.627,4.031,4.031,0,0,1,3.233,1.4V-16.5h1.987V0H53.442l-.1-1.246A4.047,4.047,0,0,1,50.026.215a3.97,3.97,0,0,1-3.292-1.654,6.886,6.886,0,0,1-1.273-4.318Zm1.987.226a5.155,5.155,0,0,0,.816,3.094,2.639,2.639,0,0,0,2.256,1.117,2.9,2.9,0,0,0,2.761-1.7V-8.508a2.921,2.921,0,0,0-2.739-1.644,2.652,2.652,0,0,0-2.277,1.128A5.676,5.676,0,0,0,47.448-5.683ZM65.527-1.149A4.221,4.221,0,0,1,62.122.215a3.613,3.613,0,0,1-2.831-1.08,4.673,4.673,0,0,1-.983-3.2v-7.562H60.3v7.509q0,2.643,2.148,2.643a2.975,2.975,0,0,0,3.029-1.7v-8.454h1.987V0H65.57Zm9.614-.258A2.863,2.863,0,0,0,77-2.052a2.268,2.268,0,0,0,.881-1.611h1.88a3.6,3.6,0,0,1-.687,1.9A4.528,4.528,0,0,1,77.381-.322a4.882,4.882,0,0,1-2.24.537A4.788,4.788,0,0,1,71.366-1.37a6.311,6.311,0,0,1-1.4-4.334v-.333a7,7,0,0,1,.623-3.019,4.745,4.745,0,0,1,1.789-2.052,5.081,5.081,0,0,1,2.755-.73,4.662,4.662,0,0,1,3.25,1.171,4.185,4.185,0,0,1,1.38,3.04h-1.88a2.739,2.739,0,0,0-.854-1.853,2.657,2.657,0,0,0-1.9-.725,2.781,2.781,0,0,0-2.347,1.09,5.121,5.121,0,0,0-.833,3.153v.376a5.019,5.019,0,0,0,.827,3.094A2.8,2.8,0,0,0,75.142-1.407ZM98.448-6.993H87.684V-8.615H98.448Zm13.4,4.705a2.036,2.036,0,0,0,1.4-.473,1.656,1.656,0,0,0,.559-1.257h2.911a3.982,3.982,0,0,1-.645,2.165,4.253,4.253,0,0,1-1.735,1.525A5.43,5.43,0,0,1,111.9.215,5.046,5.046,0,0,1,107.97-1.37a6.27,6.27,0,0,1-1.439-4.377v-.2a6.2,6.2,0,0,1,1.429-4.286,4.987,4.987,0,0,1,3.921-1.6,4.889,4.889,0,0,1,3.5,1.241,4.393,4.393,0,0,1,1.337,3.3H113.8a2.116,2.116,0,0,0-.559-1.466,1.868,1.868,0,0,0-1.418-.564,1.871,1.871,0,0,0-1.638.79,4.57,4.57,0,0,0-.553,2.562v.322a4.628,4.628,0,0,0,.548,2.578A1.894,1.894,0,0,0,111.848-2.288ZM121.763,0h-3.115V-11.623h3.115Zm-3.3-14.631a1.529,1.529,0,0,1,.467-1.149,1.755,1.755,0,0,1,1.273-.451,1.759,1.759,0,0,1,1.268.451,1.52,1.52,0,0,1,.473,1.149,1.524,1.524,0,0,1-.478,1.16,1.764,1.764,0,0,1-1.262.451,1.764,1.764,0,0,1-1.262-.451A1.524,1.524,0,0,1,118.465-14.631Zm5.371,8.712A6.893,6.893,0,0,1,124.5-9a4.876,4.876,0,0,1,1.917-2.095,5.594,5.594,0,0,1,2.906-.741,5.293,5.293,0,0,1,3.84,1.439,5.777,5.777,0,0,1,1.66,3.91l.021.795A6.075,6.075,0,0,1,133.354-1.4,5.19,5.19,0,0,1,129.347.215,5.216,5.216,0,0,1,125.334-1.4a6.182,6.182,0,0,1-1.5-4.383Zm3.1.226a4.333,4.333,0,0,0,.623,2.53,2.056,2.056,0,0,0,1.783.875,2.061,2.061,0,0,0,1.762-.865,4.741,4.741,0,0,0,.634-2.766,4.29,4.29,0,0,0-.634-2.514,2.061,2.061,0,0,0-1.783-.892,2.028,2.028,0,0,0-1.762.886A4.821,4.821,0,0,0,126.94-5.693Zm3-10.807h3.384l-2.976,3.33h-2.524Zm9.679,4.877.1,1.343a4.058,4.058,0,0,1,3.341-1.558,3.372,3.372,0,0,1,2.75,1.085,5.062,5.062,0,0,1,.924,3.244V0h-3.1V-7.434a2.014,2.014,0,0,0-.43-1.434,1.924,1.924,0,0,0-1.429-.446A2.136,2.136,0,0,0,139.8-8.2V0h-3.1V-11.623ZM7.122,25.16a5.955,5.955,0,0,0-.978-.075A2.619,2.619,0,0,0,3.491,26.75V35H1.5V23.377H3.438L3.47,24.72a3.094,3.094,0,0,1,2.771-1.558,2.03,2.03,0,0,1,.881.15Zm6.445,10.055a5.078,5.078,0,0,1-3.846-1.552,5.761,5.761,0,0,1-1.482-4.152v-.365A6.975,6.975,0,0,1,8.9,26.057a5.154,5.154,0,0,1,1.848-2.127,4.645,4.645,0,0,1,2.573-.768,4.353,4.353,0,0,1,3.523,1.493A6.465,6.465,0,0,1,18.1,28.931v.827H10.227a4.132,4.132,0,0,0,1,2.777,3.157,3.157,0,0,0,2.444,1.058,3.461,3.461,0,0,0,1.783-.43,4.48,4.48,0,0,0,1.278-1.139l1.214.945A4.881,4.881,0,0,1,13.567,35.215Zm-.247-10.42a2.651,2.651,0,0,0-2.02.875,4.255,4.255,0,0,0-1.01,2.455h5.822v-.15a3.785,3.785,0,0,0-.816-2.347A2.5,2.5,0,0,0,13.32,24.795ZM23.1,20.563v2.814h2.17v1.536H23.1v7.208a1.61,1.61,0,0,0,.29,1.047,1.221,1.221,0,0,0,.988.349,4.811,4.811,0,0,0,.945-.129V35a5.761,5.761,0,0,1-1.525.215,2.475,2.475,0,0,1-2.009-.806,3.461,3.461,0,0,1-.677-2.288V24.913H18.992V23.377h2.116V20.563Zm9.313,14.652a5.078,5.078,0,0,1-3.846-1.552,5.761,5.761,0,0,1-1.482-4.152v-.365a6.975,6.975,0,0,1,.661-3.088,5.154,5.154,0,0,1,1.848-2.127,4.645,4.645,0,0,1,2.573-.768,4.353,4.353,0,0,1,3.523,1.493,6.465,6.465,0,0,1,1.257,4.275v.827H29.068a4.132,4.132,0,0,0,1,2.777,3.157,3.157,0,0,0,2.444,1.058,3.461,3.461,0,0,0,1.783-.43,4.48,4.48,0,0,0,1.278-1.139l1.214.945A4.881,4.881,0,0,1,32.409,35.215Zm-.247-10.42a2.651,2.651,0,0,0-2.02.875,4.255,4.255,0,0,0-1.01,2.455h5.822v-.15a3.785,3.785,0,0,0-.816-2.347A2.5,2.5,0,0,0,32.162,24.795Zm8.959-1.418.064,1.461a4.236,4.236,0,0,1,3.48-1.676q3.685,0,3.717,4.157V35H46.4V27.309a2.676,2.676,0,0,0-.575-1.858,2.3,2.3,0,0,0-1.756-.6,2.868,2.868,0,0,0-1.7.516,3.5,3.5,0,0,0-1.139,1.354V35H39.241V23.377Zm26.712,4.63H57.069V26.385H67.833Zm13.4,4.705a2.036,2.036,0,0,0,1.4-.473,1.656,1.656,0,0,0,.559-1.257H86.1a3.982,3.982,0,0,1-.645,2.165,4.253,4.253,0,0,1-1.735,1.525,5.43,5.43,0,0,1-2.433.542,5.046,5.046,0,0,1-3.932-1.584,6.27,6.27,0,0,1-1.439-4.377v-.2a6.2,6.2,0,0,1,1.429-4.286,4.987,4.987,0,0,1,3.921-1.6,4.889,4.889,0,0,1,3.5,1.241,4.393,4.393,0,0,1,1.337,3.3H83.188a2.116,2.116,0,0,0-.559-1.466,2.081,2.081,0,0,0-3.056.226,4.57,4.57,0,0,0-.553,2.562v.322a4.628,4.628,0,0,0,.548,2.578A1.894,1.894,0,0,0,81.232,32.712ZM91.147,35H88.032V23.377h3.115Zm-3.3-14.631a1.529,1.529,0,0,1,.467-1.149,2.014,2.014,0,0,1,2.541,0,1.64,1.64,0,0,1-.005,2.31,1.991,1.991,0,0,1-2.524,0A1.524,1.524,0,0,1,87.85,20.369Zm5.371,8.712A6.893,6.893,0,0,1,93.887,26,4.876,4.876,0,0,1,95.8,23.9a5.594,5.594,0,0,1,2.906-.741,5.293,5.293,0,0,1,3.84,1.439,5.777,5.777,0,0,1,1.66,3.91l.021.795a6.075,6.075,0,0,1-1.493,4.292,5.787,5.787,0,0,1-8.019.005,6.182,6.182,0,0,1-1.5-4.383Zm3.1.226a4.333,4.333,0,0,0,.623,2.53,2.24,2.24,0,0,0,3.545.011,4.741,4.741,0,0,0,.634-2.766,4.29,4.29,0,0,0-.634-2.514,2.061,2.061,0,0,0-1.783-.892,2.028,2.028,0,0,0-1.762.886A4.821,4.821,0,0,0,96.325,29.307Zm3-10.807h3.384L99.73,21.83H97.206ZM109,23.377l.1,1.343a4.058,4.058,0,0,1,3.341-1.558,3.372,3.372,0,0,1,2.75,1.085,5.062,5.062,0,0,1,.924,3.244V35h-3.1V27.566a2.014,2.014,0,0,0-.43-1.434,1.924,1.924,0,0,0-1.429-.446,2.136,2.136,0,0,0-1.966,1.117V35h-3.1V23.377ZM11.322,64.317a6.96,6.96,0,0,1-1.214,4.275,3.89,3.89,0,0,1-3.287,1.622,4.263,4.263,0,0,1-3.33-1.343v5.6H1.5V58.377H3.319l.1,1.289a4.094,4.094,0,0,1,3.373-1.5A3.963,3.963,0,0,1,10.1,59.741a7.036,7.036,0,0,1,1.219,4.394Zm-1.987-.226a5.135,5.135,0,0,0-.838-3.1,2.7,2.7,0,0,0-2.3-1.139,2.921,2.921,0,0,0-2.707,1.6V67a2.927,2.927,0,0,0,2.729,1.59,2.686,2.686,0,0,0,2.272-1.133A5.606,5.606,0,0,0,9.335,64.092ZM21.022,70a4.175,4.175,0,0,1-.279-1.225,4.434,4.434,0,0,1-3.309,1.439,4.1,4.1,0,0,1-2.82-.972,3.145,3.145,0,0,1-1.1-2.465,3.286,3.286,0,0,1,1.38-2.82,6.508,6.508,0,0,1,3.883-1h1.934V62.04a2.232,2.232,0,0,0-.623-1.66,2.5,2.5,0,0,0-1.837-.618,2.9,2.9,0,0,0-1.783.537,1.583,1.583,0,0,0-.72,1.3h-2a2.743,2.743,0,0,1,.618-1.681,4.216,4.216,0,0,1,1.676-1.284,5.638,5.638,0,0,1,2.326-.473,4.6,4.6,0,0,1,3.147,1A3.623,3.623,0,0,1,22.7,61.933v5.35a6.54,6.54,0,0,0,.408,2.546V70Zm-3.3-1.515A3.493,3.493,0,0,0,19.5,68a2.924,2.924,0,0,0,1.214-1.257V64.36H19.153Q15.5,64.36,15.5,66.5a1.809,1.809,0,0,0,.623,1.461A2.4,2.4,0,0,0,17.725,68.485ZM31.432,60.16a5.955,5.955,0,0,0-.978-.075A2.619,2.619,0,0,0,27.8,61.75V70H25.813V58.377h1.934l.032,1.343a3.094,3.094,0,0,1,2.771-1.558,2.03,2.03,0,0,1,.881.15Zm5.06-4.6v2.814h2.17v1.536h-2.17v7.208a1.61,1.61,0,0,0,.29,1.047,1.221,1.221,0,0,0,.988.349,4.811,4.811,0,0,0,.945-.129V70a5.762,5.762,0,0,1-1.525.215,2.475,2.475,0,0,1-2.009-.806,3.461,3.461,0,0,1-.677-2.288V59.913H32.388V58.377H34.5V55.563ZM43.141,70H41.153V58.377h1.987ZM40.992,55.294a1.186,1.186,0,0,1,.3-.816,1.109,1.109,0,0,1,.875-.333,1.126,1.126,0,0,1,.881.333,1.174,1.174,0,0,1,.3.816,1.135,1.135,0,0,1-.3.806,1.147,1.147,0,0,1-.881.322,1.129,1.129,0,0,1-.875-.322A1.147,1.147,0,0,1,40.992,55.294Zm9.99,13.3a2.863,2.863,0,0,0,1.858-.645,2.268,2.268,0,0,0,.881-1.611H55.6a3.6,3.6,0,0,1-.687,1.9,4.528,4.528,0,0,1-1.692,1.439,4.882,4.882,0,0,1-2.24.537,4.788,4.788,0,0,1-3.776-1.584A6.311,6.311,0,0,1,45.8,64.3v-.333a7,7,0,0,1,.623-3.019,4.745,4.745,0,0,1,1.789-2.052,5.081,5.081,0,0,1,2.755-.73,4.662,4.662,0,0,1,3.25,1.171,4.185,4.185,0,0,1,1.38,3.04h-1.88a2.739,2.739,0,0,0-.854-1.853,2.657,2.657,0,0,0-1.9-.725,2.781,2.781,0,0,0-2.347,1.09,5.121,5.121,0,0,0-.833,3.153v.376a5.019,5.019,0,0,0,.827,3.094A2.8,2.8,0,0,0,50.982,68.593ZM60,70H58.008V58.377H60ZM57.847,55.294a1.186,1.186,0,0,1,.3-.816,1.109,1.109,0,0,1,.875-.333,1.126,1.126,0,0,1,.881.333,1.174,1.174,0,0,1,.3.816,1.135,1.135,0,0,1-.3.806,1.147,1.147,0,0,1-.881.322,1.129,1.129,0,0,1-.875-.322A1.147,1.147,0,0,1,57.847,55.294Zm15.146,9.023a6.96,6.96,0,0,1-1.214,4.275,3.89,3.89,0,0,1-3.287,1.622,4.263,4.263,0,0,1-3.33-1.343v5.6H63.175V58.377H64.99l.1,1.289a4.094,4.094,0,0,1,3.373-1.5,3.963,3.963,0,0,1,3.314,1.579,7.036,7.036,0,0,1,1.219,4.394Zm-1.987-.226a5.135,5.135,0,0,0-.838-3.1,2.7,2.7,0,0,0-2.3-1.139,2.921,2.921,0,0,0-2.707,1.6V67a2.927,2.927,0,0,0,2.729,1.59,2.686,2.686,0,0,0,2.272-1.133A5.606,5.606,0,0,0,71.006,64.092ZM82.693,70a4.175,4.175,0,0,1-.279-1.225,4.434,4.434,0,0,1-3.309,1.439,4.1,4.1,0,0,1-2.82-.972,3.145,3.145,0,0,1-1.1-2.465,3.286,3.286,0,0,1,1.38-2.82,6.508,6.508,0,0,1,3.883-1h1.934V62.04a2.232,2.232,0,0,0-.623-1.66,2.5,2.5,0,0,0-1.837-.618,2.9,2.9,0,0,0-1.783.537,1.583,1.583,0,0,0-.72,1.3h-2a2.743,2.743,0,0,1,.618-1.681,4.216,4.216,0,0,1,1.676-1.284,5.638,5.638,0,0,1,2.326-.473,4.6,4.6,0,0,1,3.147,1,3.623,3.623,0,0,1,1.182,2.766v5.35a6.54,6.54,0,0,0,.408,2.546V70Zm-3.3-1.515A3.493,3.493,0,0,0,81.168,68a2.924,2.924,0,0,0,1.214-1.257V64.36H80.824q-3.652,0-3.652,2.138a1.809,1.809,0,0,0,.623,1.461A2.4,2.4,0,0,0,79.4,68.485Zm24.542-5.479H93.173V61.385h10.764Zm13.4,4.705a2.036,2.036,0,0,0,1.4-.473,1.656,1.656,0,0,0,.559-1.257H122.2a3.982,3.982,0,0,1-.645,2.165,4.253,4.253,0,0,1-1.735,1.525,5.43,5.43,0,0,1-2.433.542,5.046,5.046,0,0,1-3.932-1.584,6.27,6.27,0,0,1-1.439-4.377v-.2a6.2,6.2,0,0,1,1.429-4.286,4.987,4.987,0,0,1,3.921-1.6,4.889,4.889,0,0,1,3.5,1.241,4.393,4.393,0,0,1,1.337,3.3h-2.911a2.116,2.116,0,0,0-.559-1.466,2.081,2.081,0,0,0-3.056.226,4.57,4.57,0,0,0-.553,2.562v.322a4.628,4.628,0,0,0,.548,2.578A1.894,1.894,0,0,0,117.337,67.712ZM127.252,70h-3.115V58.377h3.115Zm-3.3-14.631a1.529,1.529,0,0,1,.467-1.149,2.014,2.014,0,0,1,2.541,0,1.64,1.64,0,0,1-.005,2.31,1.991,1.991,0,0,1-2.524,0A1.524,1.524,0,0,1,123.954,55.369Zm5.371,8.712A6.893,6.893,0,0,1,129.991,61a4.876,4.876,0,0,1,1.917-2.095,5.594,5.594,0,0,1,2.906-.741,5.293,5.293,0,0,1,3.84,1.439,5.777,5.777,0,0,1,1.66,3.91l.021.795a6.075,6.075,0,0,1-1.493,4.292,5.787,5.787,0,0,1-8.019.005,6.182,6.182,0,0,1-1.5-4.383Zm3.1.226a4.333,4.333,0,0,0,.623,2.53,2.24,2.24,0,0,0,3.545.011,4.741,4.741,0,0,0,.634-2.766,4.29,4.29,0,0,0-.634-2.514,2.061,2.061,0,0,0-1.783-.892,2.028,2.028,0,0,0-1.762.886A4.821,4.821,0,0,0,132.43,64.307Zm3-10.807h3.384l-2.976,3.33h-2.524Zm9.679,4.877.1,1.343a4.058,4.058,0,0,1,3.341-1.558,3.372,3.372,0,0,1,2.75,1.085,5.062,5.062,0,0,1,.924,3.244V70h-3.1V62.566a2.014,2.014,0,0,0-.43-1.434,1.924,1.924,0,0,0-1.429-.446,2.136,2.136,0,0,0-1.966,1.117V70h-3.1V58.377ZM6.327,105.215a5.078,5.078,0,0,1-3.846-1.552A5.761,5.761,0,0,1,1,99.511v-.365a6.975,6.975,0,0,1,.661-3.088A5.154,5.154,0,0,1,3.507,93.93a4.645,4.645,0,0,1,2.573-.768A4.353,4.353,0,0,1,9.6,94.655a6.465,6.465,0,0,1,1.257,4.275v.827H2.986a4.132,4.132,0,0,0,1,2.777,3.157,3.157,0,0,0,2.444,1.058,3.461,3.461,0,0,0,1.783-.43A4.481,4.481,0,0,0,9.5,102.024l1.214.945A4.881,4.881,0,0,1,6.327,105.215ZM6.08,94.795a2.651,2.651,0,0,0-2.02.875,4.255,4.255,0,0,0-1.01,2.455H8.873v-.15a3.785,3.785,0,0,0-.816-2.347A2.5,2.5,0,0,0,6.08,94.795ZM17.059,97.62l2.578-4.243h2.32l-3.8,5.747L22.075,105h-2.3l-2.686-4.351L14.405,105H12.1l3.921-5.876-3.8-5.747h2.3Zm16.822,1.7a6.96,6.96,0,0,1-1.214,4.275,3.89,3.89,0,0,1-3.287,1.622,4.263,4.263,0,0,1-3.33-1.343v5.6H24.063V93.377h1.815l.1,1.289a4.094,4.094,0,0,1,3.373-1.5,3.963,3.963,0,0,1,3.314,1.579,7.036,7.036,0,0,1,1.219,4.394Zm-1.987-.226a5.135,5.135,0,0,0-.838-3.1,2.7,2.7,0,0,0-2.3-1.139,2.921,2.921,0,0,0-2.707,1.6V102a2.927,2.927,0,0,0,2.729,1.59,2.686,2.686,0,0,0,2.272-1.133A5.606,5.606,0,0,0,31.894,99.092ZM38.564,105H36.577V88.5h1.987Zm5.339,0H41.916V93.377H43.9ZM41.755,90.294a1.186,1.186,0,0,1,.3-.816,1.109,1.109,0,0,1,.875-.333,1.126,1.126,0,0,1,.881.333,1.174,1.174,0,0,1,.3.816,1.135,1.135,0,0,1-.3.806,1.147,1.147,0,0,1-.881.322,1.129,1.129,0,0,1-.875-.322A1.147,1.147,0,0,1,41.755,90.294Zm9.99,13.3a2.863,2.863,0,0,0,1.858-.645,2.268,2.268,0,0,0,.881-1.611h1.88a3.6,3.6,0,0,1-.687,1.9,4.528,4.528,0,0,1-1.692,1.439,4.882,4.882,0,0,1-2.24.537,4.788,4.788,0,0,1-3.776-1.584,6.311,6.311,0,0,1-1.4-4.334v-.333a7,7,0,0,1,.623-3.019,4.745,4.745,0,0,1,1.789-2.052,5.081,5.081,0,0,1,2.755-.73,4.661,4.661,0,0,1,3.25,1.171,4.185,4.185,0,0,1,1.38,3.04h-1.88a2.739,2.739,0,0,0-.854-1.853,2.657,2.657,0,0,0-1.9-.725,2.781,2.781,0,0,0-2.347,1.09,5.121,5.121,0,0,0-.833,3.153v.376a5.019,5.019,0,0,0,.827,3.094A2.8,2.8,0,0,0,51.745,103.593ZM65.774,105a4.175,4.175,0,0,1-.279-1.225,4.434,4.434,0,0,1-3.309,1.439,4.1,4.1,0,0,1-2.82-.972,3.145,3.145,0,0,1-1.1-2.465,3.286,3.286,0,0,1,1.38-2.82,6.508,6.508,0,0,1,3.883-1h1.934V97.04a2.232,2.232,0,0,0-.623-1.66A2.5,2.5,0,0,0,63,94.763a2.9,2.9,0,0,0-1.783.537,1.583,1.583,0,0,0-.72,1.3h-2a2.743,2.743,0,0,1,.618-1.681A4.216,4.216,0,0,1,60.8,93.635a5.638,5.638,0,0,1,2.326-.473,4.6,4.6,0,0,1,3.147,1,3.623,3.623,0,0,1,1.182,2.766v5.35a6.54,6.54,0,0,0,.408,2.546V105Zm-3.3-1.515A3.493,3.493,0,0,0,64.249,103a2.924,2.924,0,0,0,1.214-1.257V99.36H63.905q-3.652,0-3.652,2.138a1.809,1.809,0,0,0,.623,1.461A2.4,2.4,0,0,0,62.477,103.485Zm24.542-5.479H76.255V96.385H87.018Zm13.4,4.705a2.036,2.036,0,0,0,1.4-.473,1.656,1.656,0,0,0,.559-1.257h2.911a3.982,3.982,0,0,1-.645,2.165,4.253,4.253,0,0,1-1.735,1.525,5.43,5.43,0,0,1-2.433.542,5.046,5.046,0,0,1-3.932-1.584A6.27,6.27,0,0,1,95.1,99.253v-.2a6.2,6.2,0,0,1,1.429-4.286,4.987,4.987,0,0,1,3.921-1.6,4.889,4.889,0,0,1,3.5,1.241,4.393,4.393,0,0,1,1.337,3.3h-2.911a2.116,2.116,0,0,0-.559-1.466,2.081,2.081,0,0,0-3.056.226,4.57,4.57,0,0,0-.553,2.562v.322a4.628,4.628,0,0,0,.548,2.578A1.894,1.894,0,0,0,100.418,102.712ZM110.333,105h-3.115V93.377h3.115Zm-3.3-14.631a1.529,1.529,0,0,1,.467-1.149,2.014,2.014,0,0,1,2.541,0,1.64,1.64,0,0,1-.005,2.31,1.991,1.991,0,0,1-2.524,0A1.524,1.524,0,0,1,107.035,90.369Zm5.371,8.712A6.893,6.893,0,0,1,113.072,96,4.876,4.876,0,0,1,114.99,93.9a5.594,5.594,0,0,1,2.906-.741,5.293,5.293,0,0,1,3.84,1.439,5.777,5.777,0,0,1,1.66,3.91l.021.795a6.075,6.075,0,0,1-1.493,4.292,5.787,5.787,0,0,1-8.019.005,6.182,6.182,0,0,1-1.5-4.383Zm3.1.226a4.333,4.333,0,0,0,.623,2.53,2.24,2.24,0,0,0,3.545.011,4.741,4.741,0,0,0,.634-2.766,4.29,4.29,0,0,0-.634-2.514,2.061,2.061,0,0,0-1.783-.892,2.028,2.028,0,0,0-1.762.886A4.821,4.821,0,0,0,115.511,99.307Zm3-10.807h3.384l-2.976,3.33h-2.524Zm9.679,4.877.1,1.343a4.058,4.058,0,0,1,3.341-1.558,3.372,3.372,0,0,1,2.75,1.085,5.062,5.062,0,0,1,.924,3.244V105h-3.1V97.566a2.014,2.014,0,0,0-.43-1.434,1.924,1.924,0,0,0-1.429-.446,2.136,2.136,0,0,0-1.966,1.117V105h-3.1V93.377Z" transform="translate(634 1822)" fill="#09347b"/>
    </g>
  </g>
</svg>
