<svg xmlns="http://www.w3.org/2000/svg" width="934" height="171" viewBox="0 0 934 171">
  <g id="Grupo_13664" data-name="Grupo 13664" transform="translate(-233 -2717)">
    <g id="Grupo_13640" data-name="Grupo 13640">
      <rect id="Rectángulo_2928" data-name="Rectángulo 2928" width="459" height="78" rx="5" transform="translate(233 2717)" fill="#f0f0f0"/>
      <path id="Trazado_11239" data-name="Trazado 11239" d="M7.3-7.922a11.021,11.021,0,0,1-4.388-2.13,4.07,4.07,0,0,1-1.373-3.119,4.3,4.3,0,0,1,1.678-3.473,6.671,6.671,0,0,1,4.364-1.373,7.281,7.281,0,0,1,3.265.708,5.369,5.369,0,0,1,2.222,1.953,4.994,4.994,0,0,1,.787,2.722H11.5a3.233,3.233,0,0,0-1.025-2.533,4.179,4.179,0,0,0-2.893-.922,4.275,4.275,0,0,0-2.7.763,2.543,2.543,0,0,0-.97,2.118,2.288,2.288,0,0,0,.922,1.837A9.047,9.047,0,0,0,7.965-10a14.528,14.528,0,0,1,3.467,1.373,5.261,5.261,0,0,1,1.855,1.752,4.471,4.471,0,0,1,.6,2.356,4.153,4.153,0,0,1-1.685,3.461A7.183,7.183,0,0,1,7.7.244a8.354,8.354,0,0,1-3.418-.7A5.752,5.752,0,0,1,1.837-2.38,4.692,4.692,0,0,1,.977-5.151H3.333a3.061,3.061,0,0,0,1.19,2.545,5.011,5.011,0,0,0,3.18.934,4.607,4.607,0,0,0,2.844-.757,2.458,2.458,0,0,0,.989-2.063,2.413,2.413,0,0,0-.916-2.02A10.555,10.555,0,0,0,7.3-7.922Zm17.4,6.616a4.8,4.8,0,0,1-3.87,1.55A4.106,4.106,0,0,1,17.609-.983a5.31,5.31,0,0,1-1.117-3.632v-8.594H18.75v8.533q0,3,2.441,3A3.38,3.38,0,0,0,24.634-3.6v-9.607h2.258V0H24.744ZM38.013-3.5a1.663,1.663,0,0,0-.69-1.422,6.639,6.639,0,0,0-2.4-.873A11.37,11.37,0,0,1,32.2-6.677,3.873,3.873,0,0,1,30.707-7.9a2.92,2.92,0,0,1-.482-1.685A3.426,3.426,0,0,1,31.6-12.329a5.363,5.363,0,0,1,3.51-1.123,5.519,5.519,0,0,1,3.644,1.16,3.683,3.683,0,0,1,1.4,2.966H37.878a2.039,2.039,0,0,0-.787-1.6,2.95,2.95,0,0,0-1.984-.671,3.087,3.087,0,0,0-1.929.537,1.691,1.691,0,0,0-.7,1.4,1.37,1.37,0,0,0,.647,1.233,7.96,7.96,0,0,0,2.338.793,12.18,12.18,0,0,1,2.74.9,4,4,0,0,1,1.556,1.263,3.106,3.106,0,0,1,.507,1.8A3.38,3.38,0,0,1,38.855-.824,5.94,5.94,0,0,1,35.181.244a6.651,6.651,0,0,1-2.808-.562,4.566,4.566,0,0,1-1.91-1.569,3.781,3.781,0,0,1-.69-2.179h2.258a2.338,2.338,0,0,0,.909,1.8,3.528,3.528,0,0,0,2.24.665,3.642,3.642,0,0,0,2.057-.519A1.594,1.594,0,0,0,38.013-3.5Zm8.264-12.9v3.2h2.466v1.746H46.277v8.191a1.829,1.829,0,0,0,.33,1.19,1.388,1.388,0,0,0,1.123.4A5.468,5.468,0,0,0,48.8-1.831V0A6.547,6.547,0,0,1,47.07.244a2.812,2.812,0,0,1-2.283-.916,3.933,3.933,0,0,1-.769-2.6v-8.191h-2.4v-1.746h2.4v-3.2ZM59.534,0a4.744,4.744,0,0,1-.317-1.392A5.039,5.039,0,0,1,55.457.244a4.662,4.662,0,0,1-3.2-1.1A3.574,3.574,0,0,1,51-3.662a3.734,3.734,0,0,1,1.569-3.2,7.4,7.4,0,0,1,4.413-1.141h2.2V-9.045a2.536,2.536,0,0,0-.708-1.886,2.845,2.845,0,0,0-2.087-.7,3.293,3.293,0,0,0-2.026.61,1.8,1.8,0,0,0-.818,1.477H51.27a3.117,3.117,0,0,1,.7-1.91,4.791,4.791,0,0,1,1.9-1.459,6.406,6.406,0,0,1,2.643-.537A5.221,5.221,0,0,1,60.1-12.311a4.117,4.117,0,0,1,1.343,3.143v6.079A7.432,7.432,0,0,0,61.9-.2V0ZM55.786-1.721A3.969,3.969,0,0,0,57.8-2.271,3.323,3.323,0,0,0,59.18-3.7v-2.71H57.41q-4.15,0-4.15,2.429a2.056,2.056,0,0,0,.708,1.66A2.721,2.721,0,0,0,55.786-1.721ZM67.114-13.208l.073,1.66a4.813,4.813,0,0,1,3.955-1.9q4.187,0,4.224,4.724V0H73.108V-8.74a3.041,3.041,0,0,0-.653-2.112,2.617,2.617,0,0,0-2-.684,3.259,3.259,0,0,0-1.929.586,3.979,3.979,0,0,0-1.294,1.538V0H64.978V-13.208Zm14.722-3.2v3.2H84.3v1.746H81.836v8.191a1.829,1.829,0,0,0,.33,1.19,1.388,1.388,0,0,0,1.123.4,5.468,5.468,0,0,0,1.074-.146V0a6.547,6.547,0,0,1-1.733.244,2.812,2.812,0,0,1-2.283-.916,3.933,3.933,0,0,1-.769-2.6v-8.191h-2.4v-1.746h2.4v-3.2ZM89.392,0H87.134V-13.208h2.258ZM86.951-16.711a1.348,1.348,0,0,1,.336-.928,1.26,1.26,0,0,1,.995-.378,1.28,1.28,0,0,1,1,.378,1.334,1.334,0,0,1,.342.928,1.29,1.29,0,0,1-.342.916,1.3,1.3,0,0,1-1,.366,1.283,1.283,0,0,1-.995-.366A1.3,1.3,0,0,1,86.951-16.711ZM97.363-3.064l3.271-10.144h2.307L98.206,0H96.484L91.7-13.208h2.307Zm6.97-3.662a7.8,7.8,0,0,1,.763-3.491,5.691,5.691,0,0,1,2.124-2.393,5.782,5.782,0,0,1,3.107-.842,5.57,5.57,0,0,1,4.364,1.868,7.186,7.186,0,0,1,1.666,4.968v.159A7.869,7.869,0,0,1,115.619-3,5.608,5.608,0,0,1,113.507-.61a5.848,5.848,0,0,1-3.156.854A5.556,5.556,0,0,1,106-1.624a7.149,7.149,0,0,1-1.666-4.944Zm2.271.269a5.65,5.65,0,0,0,1.019,3.528A3.262,3.262,0,0,0,110.352-1.6a3.242,3.242,0,0,0,2.734-1.349A6.179,6.179,0,0,0,114.1-6.726a5.641,5.641,0,0,0-1.031-3.522,3.279,3.279,0,0,0-2.74-1.349,3.243,3.243,0,0,0-2.7,1.331A6.133,6.133,0,0,0,106.6-6.458Zm25.537-3.491h4.407v3.186h-4.407v4.98h-3.357v-4.98h-4.419V-9.949h4.419v-4.773h3.357ZM152.905-3.5a1.663,1.663,0,0,0-.69-1.422,6.639,6.639,0,0,0-2.4-.873,11.37,11.37,0,0,1-2.722-.879A3.873,3.873,0,0,1,145.6-7.9a2.92,2.92,0,0,1-.482-1.685,3.426,3.426,0,0,1,1.373-2.747A5.363,5.363,0,0,1,150-13.452a5.519,5.519,0,0,1,3.644,1.16,3.683,3.683,0,0,1,1.4,2.966h-2.271a2.039,2.039,0,0,0-.787-1.6A2.95,2.95,0,0,0,150-11.6a3.087,3.087,0,0,0-1.929.537,1.691,1.691,0,0,0-.7,1.4,1.37,1.37,0,0,0,.647,1.233,7.96,7.96,0,0,0,2.338.793,12.18,12.18,0,0,1,2.74.9,4,4,0,0,1,1.556,1.263,3.106,3.106,0,0,1,.507,1.8,3.38,3.38,0,0,1-1.416,2.838A5.94,5.94,0,0,1,150.073.244a6.651,6.651,0,0,1-2.808-.562,4.566,4.566,0,0,1-1.91-1.569,3.781,3.781,0,0,1-.69-2.179h2.258a2.338,2.338,0,0,0,.909,1.8,3.528,3.528,0,0,0,2.24.665,3.642,3.642,0,0,0,2.057-.519A1.594,1.594,0,0,0,152.905-3.5Zm13.354,2.2a4.8,4.8,0,0,1-3.87,1.55,4.106,4.106,0,0,1-3.217-1.227,5.31,5.31,0,0,1-1.117-3.632v-8.594h2.258v8.533q0,3,2.441,3A3.38,3.38,0,0,0,166.2-3.6v-9.607h2.258V0h-2.148Zm13.318-2.2a1.663,1.663,0,0,0-.69-1.422,6.639,6.639,0,0,0-2.4-.873,11.37,11.37,0,0,1-2.722-.879A3.873,3.873,0,0,1,172.272-7.9a2.92,2.92,0,0,1-.482-1.685,3.426,3.426,0,0,1,1.373-2.747,5.363,5.363,0,0,1,3.51-1.123,5.519,5.519,0,0,1,3.644,1.16,3.683,3.683,0,0,1,1.4,2.966h-2.271a2.039,2.039,0,0,0-.787-1.6,2.95,2.95,0,0,0-1.984-.671,3.087,3.087,0,0,0-1.929.537,1.691,1.691,0,0,0-.7,1.4,1.37,1.37,0,0,0,.647,1.233,7.96,7.96,0,0,0,2.338.793,12.18,12.18,0,0,1,2.74.9,4,4,0,0,1,1.556,1.263,3.106,3.106,0,0,1,.507,1.8A3.38,3.38,0,0,1,180.42-.824,5.94,5.94,0,0,1,176.746.244a6.651,6.651,0,0,1-2.808-.562,4.566,4.566,0,0,1-1.91-1.569,3.781,3.781,0,0,1-.69-2.179H173.6a2.338,2.338,0,0,0,.909,1.8,3.528,3.528,0,0,0,2.24.665,3.642,3.642,0,0,0,2.057-.519A1.594,1.594,0,0,0,179.578-3.5Zm8.264-12.9v3.2h2.466v1.746h-2.466v8.191a1.829,1.829,0,0,0,.33,1.19,1.388,1.388,0,0,0,1.123.4,5.468,5.468,0,0,0,1.074-.146V0a6.547,6.547,0,0,1-1.733.244,2.812,2.812,0,0,1-2.283-.916,3.933,3.933,0,0,1-.769-2.6v-8.191h-2.4v-1.746h2.4v-3.2ZM201.1,0a4.744,4.744,0,0,1-.317-1.392,5.039,5.039,0,0,1-3.76,1.636,4.662,4.662,0,0,1-3.2-1.1,3.574,3.574,0,0,1-1.251-2.8,3.734,3.734,0,0,1,1.569-3.2,7.4,7.4,0,0,1,4.413-1.141h2.2V-9.045a2.536,2.536,0,0,0-.708-1.886,2.845,2.845,0,0,0-2.087-.7,3.293,3.293,0,0,0-2.026.61,1.8,1.8,0,0,0-.818,1.477h-2.271a3.117,3.117,0,0,1,.7-1.91,4.791,4.791,0,0,1,1.9-1.459,6.406,6.406,0,0,1,2.643-.537,5.221,5.221,0,0,1,3.577,1.141A4.117,4.117,0,0,1,203-9.167v6.079A7.432,7.432,0,0,0,203.467-.2V0Zm-3.748-1.721a3.969,3.969,0,0,0,2.014-.549A3.323,3.323,0,0,0,200.745-3.7v-2.71h-1.77q-4.15,0-4.15,2.429a2.056,2.056,0,0,0,.708,1.66A2.721,2.721,0,0,0,197.351-1.721Zm11.328-11.487.073,1.66a4.813,4.813,0,0,1,3.955-1.9q4.187,0,4.224,4.724V0h-2.258V-8.74a3.041,3.041,0,0,0-.653-2.112,2.617,2.617,0,0,0-2-.684,3.259,3.259,0,0,0-1.929.586A3.979,3.979,0,0,0,208.8-9.412V0h-2.258V-13.208Zm14.722-3.2v3.2h2.466v1.746H223.4v8.191a1.829,1.829,0,0,0,.33,1.19,1.388,1.388,0,0,0,1.123.4,5.468,5.468,0,0,0,1.074-.146V0a6.547,6.547,0,0,1-1.733.244,2.812,2.812,0,0,1-2.283-.916,3.933,3.933,0,0,1-.769-2.6v-8.191h-2.4v-1.746h2.4v-3.2ZM230.957,0H228.7V-13.208h2.258Zm-2.441-16.711a1.348,1.348,0,0,1,.336-.928,1.26,1.26,0,0,1,.995-.378,1.28,1.28,0,0,1,1,.378,1.334,1.334,0,0,1,.342.928,1.29,1.29,0,0,1-.342.916,1.3,1.3,0,0,1-1,.366,1.283,1.283,0,0,1-.995-.366A1.3,1.3,0,0,1,228.516-16.711ZM238.928-3.064,242.2-13.208h2.307L239.771,0h-1.721l-4.785-13.208h2.307Zm6.97-3.662a7.8,7.8,0,0,1,.763-3.491,5.691,5.691,0,0,1,2.124-2.393,5.782,5.782,0,0,1,3.107-.842,5.57,5.57,0,0,1,4.364,1.868,7.186,7.186,0,0,1,1.666,4.968v.159A7.869,7.869,0,0,1,257.184-3,5.608,5.608,0,0,1,255.072-.61a5.848,5.848,0,0,1-3.156.854,5.556,5.556,0,0,1-4.352-1.868A7.149,7.149,0,0,1,245.9-6.567Zm2.271.269a5.651,5.651,0,0,0,1.019,3.528A3.262,3.262,0,0,0,251.917-1.6a3.242,3.242,0,0,0,2.734-1.349,6.179,6.179,0,0,0,1.013-3.778,5.641,5.641,0,0,0-1.031-3.522,3.279,3.279,0,0,0-2.74-1.349,3.243,3.243,0,0,0-2.7,1.331A6.133,6.133,0,0,0,248.169-6.458Zm12.512,5.273a1.414,1.414,0,0,1,.348-.977,1.326,1.326,0,0,1,1.044-.391,1.365,1.365,0,0,1,1.056.391,1.386,1.386,0,0,1,.36.977,1.311,1.311,0,0,1-.36.94,1.39,1.39,0,0,1-1.056.378,1.349,1.349,0,0,1-1.044-.378A1.336,1.336,0,0,1,260.681-1.184Zm.012-10.779a1.414,1.414,0,0,1,.348-.977,1.326,1.326,0,0,1,1.044-.391,1.365,1.365,0,0,1,1.056.391,1.386,1.386,0,0,1,.36.977,1.311,1.311,0,0,1-.36.94,1.39,1.39,0,0,1-1.056.378,1.349,1.349,0,0,1-1.044-.378A1.336,1.336,0,0,1,260.693-11.963Zm23.853,5.481a8,8,0,0,1-1.355,4.95A4.488,4.488,0,0,1,279.407.244a4.124,4.124,0,0,1-3.43-1.648L275.818,0h-3.174V-18.75h3.528v6.726a4.018,4.018,0,0,1,3.21-1.428,4.525,4.525,0,0,1,3.79,1.776,8.009,8.009,0,0,1,1.373,5Zm-3.528-.256a5.254,5.254,0,0,0-.635-2.924,2.146,2.146,0,0,0-1.892-.922A2.327,2.327,0,0,0,276.172-9.2v5.212A2.359,2.359,0,0,0,278.516-2.6a2.178,2.178,0,0,0,2.246-1.685A8.69,8.69,0,0,0,281.018-6.738Zm5.151.012a7.833,7.833,0,0,1,.757-3.5,5.54,5.54,0,0,1,2.179-2.38,6.357,6.357,0,0,1,3.3-.842,6.014,6.014,0,0,1,4.364,1.636,6.565,6.565,0,0,1,1.886,4.443l.024.9a6.9,6.9,0,0,1-1.7,4.877A5.9,5.9,0,0,1,292.432.244a5.927,5.927,0,0,1-4.559-1.831,7.025,7.025,0,0,1-1.7-4.98Zm3.528.256a4.924,4.924,0,0,0,.708,2.875,2.337,2.337,0,0,0,2.026.995,2.342,2.342,0,0,0,2-.983,5.388,5.388,0,0,0,.72-3.143,4.875,4.875,0,0,0-.72-2.856,2.342,2.342,0,0,0-2.026-1.013,2.3,2.3,0,0,0-2,1.007A5.478,5.478,0,0,0,289.7-6.47Zm16.65,3.87a2.314,2.314,0,0,0,1.587-.537,1.882,1.882,0,0,0,.635-1.428h3.308a4.525,4.525,0,0,1-.732,2.46,4.833,4.833,0,0,1-1.971,1.733,6.17,6.17,0,0,1-2.765.616,5.734,5.734,0,0,1-4.468-1.8,7.125,7.125,0,0,1-1.636-4.974v-.232a7.044,7.044,0,0,1,1.624-4.871,5.667,5.667,0,0,1,4.456-1.819,5.555,5.555,0,0,1,3.973,1.41,4.992,4.992,0,0,1,1.52,3.754h-3.308a2.4,2.4,0,0,0-.635-1.666,2.122,2.122,0,0,0-1.611-.641,2.126,2.126,0,0,0-1.862.9,5.194,5.194,0,0,0-.629,2.911v.366a5.259,5.259,0,0,0,.623,2.93A2.153,2.153,0,0,0,306.348-2.6Zm15.2,2.6a3.918,3.918,0,0,1-.354-1.184A4.269,4.269,0,0,1,317.859.244a4.69,4.69,0,0,1-3.217-1.123,3.612,3.612,0,0,1-1.276-2.832,3.733,3.733,0,0,1,1.556-3.223,7.68,7.68,0,0,1,4.5-1.135h1.624v-.757a2.176,2.176,0,0,0-.47-1.465,1.849,1.849,0,0,0-1.483-.549,2.1,2.1,0,0,0-1.4.427,1.451,1.451,0,0,0-.507,1.172H313.66a3.544,3.544,0,0,1,.708-2.124,4.68,4.68,0,0,1,2-1.532,7.3,7.3,0,0,1,2.905-.555,5.764,5.764,0,0,1,3.876,1.227,4.292,4.292,0,0,1,1.434,3.448v5.725a6.315,6.315,0,0,0,.525,2.844V0Zm-2.917-2.454a3.038,3.038,0,0,0,1.44-.348,2.285,2.285,0,0,0,.977-.934V-6.006h-1.318q-2.649,0-2.82,1.831l-.012.208a1.412,1.412,0,0,0,.464,1.086A1.8,1.8,0,0,0,318.628-2.454Zm14.319.854a3.253,3.253,0,0,0,2.112-.732,2.577,2.577,0,0,0,1-1.831H338.2A4.1,4.1,0,0,1,337.415-2a5.145,5.145,0,0,1-1.923,1.636,5.548,5.548,0,0,1-2.545.61,5.441,5.441,0,0,1-4.291-1.8,7.171,7.171,0,0,1-1.593-4.926V-6.86a7.952,7.952,0,0,1,.708-3.43,5.393,5.393,0,0,1,2.032-2.332,5.774,5.774,0,0,1,3.131-.83,5.3,5.3,0,0,1,3.693,1.331A4.755,4.755,0,0,1,338.2-8.667H336.06a3.112,3.112,0,0,0-.97-2.106,3.019,3.019,0,0,0-2.155-.824,3.161,3.161,0,0,0-2.667,1.239,5.819,5.819,0,0,0-.946,3.583v.427a5.7,5.7,0,0,0,.94,3.516A3.176,3.176,0,0,0,332.947-1.6ZM348.889,0a4.744,4.744,0,0,1-.317-1.392,5.039,5.039,0,0,1-3.76,1.636,4.662,4.662,0,0,1-3.2-1.1,3.574,3.574,0,0,1-1.251-2.8,3.734,3.734,0,0,1,1.569-3.2,7.4,7.4,0,0,1,4.413-1.141h2.2V-9.045a2.536,2.536,0,0,0-.708-1.886,2.845,2.845,0,0,0-2.087-.7,3.293,3.293,0,0,0-2.026.61,1.8,1.8,0,0,0-.818,1.477h-2.271a3.117,3.117,0,0,1,.7-1.91,4.79,4.79,0,0,1,1.9-1.459,6.406,6.406,0,0,1,2.643-.537,5.221,5.221,0,0,1,3.577,1.141,4.117,4.117,0,0,1,1.343,3.143v6.079A7.432,7.432,0,0,0,351.257-.2V0Zm-3.748-1.721a3.969,3.969,0,0,0,2.014-.549A3.323,3.323,0,0,0,348.535-3.7v-2.71h-1.77q-4.15,0-4.15,2.429a2.056,2.056,0,0,0,.708,1.66A2.721,2.721,0,0,0,345.142-1.721ZM356.787,0h-2.258V-18.75h2.258Zm6.067,0H360.6V-18.75h2.258Zm9.094.244a5.771,5.771,0,0,1-4.37-1.764,6.547,6.547,0,0,1-1.685-4.718v-.415a7.926,7.926,0,0,1,.751-3.51,5.856,5.856,0,0,1,2.1-2.417,5.279,5.279,0,0,1,2.924-.873,4.947,4.947,0,0,1,4,1.7A7.346,7.346,0,0,1,377.1-6.9v.94h-8.948A4.7,4.7,0,0,0,369.293-2.8a3.588,3.588,0,0,0,2.777,1.2,3.933,3.933,0,0,0,2.026-.488,5.092,5.092,0,0,0,1.453-1.294l1.379,1.074A5.546,5.546,0,0,1,371.948.244ZM371.667-11.6a3.012,3.012,0,0,0-2.295.995,4.836,4.836,0,0,0-1.147,2.789h6.616v-.171a4.3,4.3,0,0,0-.928-2.667A2.836,2.836,0,0,0,371.667-11.6Z" transform="translate(255 2764)" fill="#02255f"/>
    </g>
    <g id="Grupo_13641" data-name="Grupo 13641">
      <rect id="Rectángulo_2929" data-name="Rectángulo 2929" width="459" height="78" rx="5" transform="translate(708 2717)" fill="#f0f0f0"/>
      <path id="Trazado_11240" data-name="Trazado 11240" d="M7.947-3.113l5.078-14.661h2.563L9,0H6.921L.342-17.773H2.893ZM22.559.244a5.771,5.771,0,0,1-4.37-1.764A6.547,6.547,0,0,1,16.5-6.238v-.415a7.926,7.926,0,0,1,.751-3.51,5.856,5.856,0,0,1,2.1-2.417,5.279,5.279,0,0,1,2.924-.873,4.947,4.947,0,0,1,4,1.7A7.346,7.346,0,0,1,27.71-6.9v.94H18.762A4.7,4.7,0,0,0,19.9-2.8a3.588,3.588,0,0,0,2.777,1.2,3.933,3.933,0,0,0,2.026-.488A5.091,5.091,0,0,0,26.16-3.381l1.379,1.074A5.546,5.546,0,0,1,22.559.244ZM22.278-11.6a3.012,3.012,0,0,0-2.295.995,4.836,4.836,0,0,0-1.147,2.789h6.616v-.171a4.3,4.3,0,0,0-.928-2.667A2.836,2.836,0,0,0,22.278-11.6Zm14.429.415a6.767,6.767,0,0,0-1.111-.085,2.976,2.976,0,0,0-3.015,1.892V0H30.322V-13.208h2.2l.037,1.526a3.516,3.516,0,0,1,3.149-1.77,2.307,2.307,0,0,1,1,.171ZM49.963-6.458a7.853,7.853,0,0,1-1.392,4.865A4.446,4.446,0,0,1,44.836.244a4.6,4.6,0,0,1-3.87-1.77L40.857,0H38.782V-18.75H41.04v6.995a4.578,4.578,0,0,1,3.772-1.7,4.474,4.474,0,0,1,3.778,1.819,8.089,8.089,0,0,1,1.373,4.98Zm-2.258-.256a6.1,6.1,0,0,0-.891-3.564,2.95,2.95,0,0,0-2.563-1.257A3.316,3.316,0,0,0,41.04-9.46v5.713a3.408,3.408,0,0,0,3.235,2.075A2.934,2.934,0,0,0,46.8-2.93,6.489,6.489,0,0,0,47.705-6.714Zm4.5-.012a7.8,7.8,0,0,1,.763-3.491A5.691,5.691,0,0,1,55.1-12.61a5.782,5.782,0,0,1,3.107-.842,5.57,5.57,0,0,1,4.364,1.868,7.186,7.186,0,0,1,1.666,4.968v.159A7.869,7.869,0,0,1,63.495-3,5.608,5.608,0,0,1,61.383-.61a5.848,5.848,0,0,1-3.156.854,5.556,5.556,0,0,1-4.352-1.868,7.149,7.149,0,0,1-1.666-4.944Zm2.271.269A5.651,5.651,0,0,0,55.5-2.93,3.262,3.262,0,0,0,58.228-1.6a3.242,3.242,0,0,0,2.734-1.349,6.179,6.179,0,0,0,1.013-3.778,5.641,5.641,0,0,0-1.031-3.522A3.279,3.279,0,0,0,58.2-11.6a3.243,3.243,0,0,0-2.7,1.331A6.133,6.133,0,0,0,54.48-6.458ZM80.017-9.949h4.407v3.186H80.017v4.98H76.66v-4.98H72.241V-9.949H76.66v-4.773h3.357ZM100.781-3.5a1.662,1.662,0,0,0-.69-1.422,6.639,6.639,0,0,0-2.4-.873,11.37,11.37,0,0,1-2.722-.879A3.873,3.873,0,0,1,93.475-7.9a2.92,2.92,0,0,1-.482-1.685,3.426,3.426,0,0,1,1.373-2.747,5.363,5.363,0,0,1,3.51-1.123,5.519,5.519,0,0,1,3.644,1.16,3.683,3.683,0,0,1,1.4,2.966h-2.271a2.039,2.039,0,0,0-.787-1.6,2.95,2.95,0,0,0-1.984-.671,3.088,3.088,0,0,0-1.929.537,1.691,1.691,0,0,0-.7,1.4A1.37,1.37,0,0,0,95.9-8.423a7.96,7.96,0,0,0,2.338.793,12.18,12.18,0,0,1,2.74.9,4,4,0,0,1,1.556,1.263,3.106,3.106,0,0,1,.507,1.8,3.38,3.38,0,0,1-1.416,2.838A5.94,5.94,0,0,1,97.949.244a6.651,6.651,0,0,1-2.808-.562,4.566,4.566,0,0,1-1.91-1.569,3.781,3.781,0,0,1-.69-2.179H94.8a2.338,2.338,0,0,0,.909,1.8,3.528,3.528,0,0,0,2.24.665,3.642,3.642,0,0,0,2.057-.519A1.594,1.594,0,0,0,100.781-3.5Zm13.354,2.2a4.8,4.8,0,0,1-3.87,1.55A4.106,4.106,0,0,1,107.05-.983a5.31,5.31,0,0,1-1.117-3.632v-8.594h2.258v8.533q0,3,2.441,3A3.38,3.38,0,0,0,114.075-3.6v-9.607h2.258V0h-2.148Zm13.318-2.2a1.662,1.662,0,0,0-.69-1.422,6.639,6.639,0,0,0-2.4-.873,11.37,11.37,0,0,1-2.722-.879A3.873,3.873,0,0,1,120.148-7.9a2.92,2.92,0,0,1-.482-1.685,3.426,3.426,0,0,1,1.373-2.747,5.363,5.363,0,0,1,3.51-1.123,5.519,5.519,0,0,1,3.644,1.16,3.683,3.683,0,0,1,1.4,2.966h-2.271a2.039,2.039,0,0,0-.787-1.6,2.95,2.95,0,0,0-1.984-.671,3.088,3.088,0,0,0-1.929.537,1.691,1.691,0,0,0-.7,1.4,1.37,1.37,0,0,0,.647,1.233,7.96,7.96,0,0,0,2.338.793,12.18,12.18,0,0,1,2.74.9,4,4,0,0,1,1.556,1.263,3.106,3.106,0,0,1,.507,1.8A3.38,3.38,0,0,1,128.3-.824,5.94,5.94,0,0,1,124.622.244a6.651,6.651,0,0,1-2.808-.562,4.566,4.566,0,0,1-1.91-1.569,3.781,3.781,0,0,1-.69-2.179h2.258a2.338,2.338,0,0,0,.909,1.8,3.528,3.528,0,0,0,2.24.665,3.642,3.642,0,0,0,2.057-.519A1.594,1.594,0,0,0,127.454-3.5Zm8.264-12.9v3.2h2.466v1.746h-2.466v8.191a1.829,1.829,0,0,0,.33,1.19,1.388,1.388,0,0,0,1.123.4,5.468,5.468,0,0,0,1.074-.146V0a6.547,6.547,0,0,1-1.733.244,2.812,2.812,0,0,1-2.283-.916,3.933,3.933,0,0,1-.769-2.6v-8.191h-2.4v-1.746h2.4v-3.2ZM148.975,0a4.744,4.744,0,0,1-.317-1.392A5.039,5.039,0,0,1,144.9.244a4.662,4.662,0,0,1-3.2-1.1,3.574,3.574,0,0,1-1.251-2.8,3.734,3.734,0,0,1,1.569-3.2,7.4,7.4,0,0,1,4.413-1.141h2.2V-9.045a2.536,2.536,0,0,0-.708-1.886,2.845,2.845,0,0,0-2.087-.7,3.293,3.293,0,0,0-2.026.61,1.8,1.8,0,0,0-.818,1.477H140.71a3.117,3.117,0,0,1,.7-1.91,4.791,4.791,0,0,1,1.9-1.459,6.406,6.406,0,0,1,2.643-.537,5.221,5.221,0,0,1,3.577,1.141,4.117,4.117,0,0,1,1.343,3.143v6.079A7.432,7.432,0,0,0,151.343-.2V0Zm-3.748-1.721a3.969,3.969,0,0,0,2.014-.549A3.323,3.323,0,0,0,148.621-3.7v-2.71h-1.77q-4.15,0-4.15,2.429a2.056,2.056,0,0,0,.708,1.66A2.721,2.721,0,0,0,145.227-1.721Zm11.328-11.487.073,1.66a4.813,4.813,0,0,1,3.955-1.9q4.187,0,4.224,4.724V0h-2.258V-8.74a3.041,3.041,0,0,0-.653-2.112,2.617,2.617,0,0,0-2-.684,3.259,3.259,0,0,0-1.929.586,3.979,3.979,0,0,0-1.294,1.538V0h-2.258V-13.208Zm14.722-3.2v3.2h2.466v1.746h-2.466v8.191a1.829,1.829,0,0,0,.33,1.19,1.388,1.388,0,0,0,1.123.4,5.468,5.468,0,0,0,1.074-.146V0a6.547,6.547,0,0,1-1.733.244,2.812,2.812,0,0,1-2.283-.916,3.933,3.933,0,0,1-.769-2.6v-8.191h-2.4v-1.746h2.4v-3.2ZM178.833,0h-2.258V-13.208h2.258Zm-2.441-16.711a1.348,1.348,0,0,1,.336-.928,1.26,1.26,0,0,1,.995-.378,1.28,1.28,0,0,1,1,.378,1.334,1.334,0,0,1,.342.928,1.29,1.29,0,0,1-.342.916,1.3,1.3,0,0,1-1,.366,1.283,1.283,0,0,1-.995-.366A1.3,1.3,0,0,1,176.392-16.711ZM186.8-3.064l3.271-10.144h2.307L187.646,0h-1.721L181.14-13.208h2.307Zm6.97-3.662a7.8,7.8,0,0,1,.763-3.491,5.691,5.691,0,0,1,2.124-2.393,5.782,5.782,0,0,1,3.107-.842,5.57,5.57,0,0,1,4.364,1.868A7.186,7.186,0,0,1,205.8-6.616v.159A7.869,7.869,0,0,1,205.06-3,5.608,5.608,0,0,1,202.948-.61a5.848,5.848,0,0,1-3.156.854,5.556,5.556,0,0,1-4.352-1.868,7.149,7.149,0,0,1-1.666-4.944Zm2.271.269a5.651,5.651,0,0,0,1.019,3.528A3.262,3.262,0,0,0,199.792-1.6a3.242,3.242,0,0,0,2.734-1.349,6.179,6.179,0,0,0,1.013-3.778,5.641,5.641,0,0,0-1.031-3.522,3.279,3.279,0,0,0-2.74-1.349,3.243,3.243,0,0,0-2.7,1.331A6.133,6.133,0,0,0,196.045-6.458Zm12.512,5.273a1.414,1.414,0,0,1,.348-.977,1.326,1.326,0,0,1,1.044-.391A1.365,1.365,0,0,1,211-2.161a1.386,1.386,0,0,1,.36.977,1.311,1.311,0,0,1-.36.94,1.39,1.39,0,0,1-1.056.378,1.349,1.349,0,0,1-1.044-.378A1.336,1.336,0,0,1,208.557-1.184Zm.012-10.779a1.414,1.414,0,0,1,.348-.977,1.326,1.326,0,0,1,1.044-.391,1.365,1.365,0,0,1,1.056.391,1.386,1.386,0,0,1,.36.977,1.311,1.311,0,0,1-.36.94,1.39,1.39,0,0,1-1.056.378,1.349,1.349,0,0,1-1.044-.378A1.336,1.336,0,0,1,208.569-11.963ZM229.078,0h-3.54V-18.75h3.54Zm6.628,0h-3.54V-13.208h3.54Zm-3.748-16.626a1.737,1.737,0,0,1,.531-1.306,2,2,0,0,1,1.447-.513,2,2,0,0,1,1.44.513,1.727,1.727,0,0,1,.537,1.306,1.732,1.732,0,0,1-.543,1.318,2,2,0,0,1-1.434.513,2,2,0,0,1-1.434-.513A1.732,1.732,0,0,1,231.959-16.626Zm9.961,3.418.11,1.477a4.642,4.642,0,0,1,3.8-1.721,3.523,3.523,0,0,1,3.5,2.014,4.535,4.535,0,0,1,3.967-2.014,3.94,3.94,0,0,1,3.2,1.251,5.751,5.751,0,0,1,1.05,3.766V0H254V-8.423a2.515,2.515,0,0,0-.439-1.642,1.948,1.948,0,0,0-1.55-.519,2.2,2.2,0,0,0-2.2,1.514L249.83,0H246.3V-8.411a2.484,2.484,0,0,0-.452-1.66,1.966,1.966,0,0,0-1.538-.513,2.286,2.286,0,0,0-2.173,1.245V0h-3.528V-13.208Zm30.225,6.726a7.921,7.921,0,0,1-1.385,4.889A4.442,4.442,0,0,1,267.018.244a4.115,4.115,0,0,1-3.235-1.392V5.078h-3.528V-13.208h3.271l.122,1.294a4.146,4.146,0,0,1,3.345-1.538,4.472,4.472,0,0,1,3.8,1.807,8.136,8.136,0,0,1,1.355,4.98Zm-3.528-.256a5.2,5.2,0,0,0-.653-2.844,2.127,2.127,0,0,0-1.9-1,2.31,2.31,0,0,0-2.283,1.27v5.408A2.349,2.349,0,0,0,266.09-2.6Q268.617-2.6,268.617-6.738ZM278.053,0h-3.54V-13.208h3.54Zm-3.748-16.626a1.737,1.737,0,0,1,.531-1.306,2,2,0,0,1,1.447-.513,2,2,0,0,1,1.44.513,1.727,1.727,0,0,1,.537,1.306,1.732,1.732,0,0,1-.543,1.318,2,2,0,0,1-1.434.513,2,2,0,0,1-1.434-.513A1.732,1.732,0,0,1,274.305-16.626ZM288.612,0a3.918,3.918,0,0,1-.354-1.184A4.269,4.269,0,0,1,284.925.244a4.69,4.69,0,0,1-3.217-1.123,3.612,3.612,0,0,1-1.276-2.832,3.733,3.733,0,0,1,1.556-3.223,7.68,7.68,0,0,1,4.5-1.135h1.624v-.757a2.176,2.176,0,0,0-.47-1.465,1.849,1.849,0,0,0-1.483-.549,2.1,2.1,0,0,0-1.4.427,1.451,1.451,0,0,0-.507,1.172h-3.528a3.544,3.544,0,0,1,.708-2.124,4.68,4.68,0,0,1,2-1.532,7.3,7.3,0,0,1,2.905-.555,5.764,5.764,0,0,1,3.876,1.227,4.292,4.292,0,0,1,1.434,3.448v5.725a6.315,6.315,0,0,0,.525,2.844V0Zm-2.917-2.454a3.038,3.038,0,0,0,1.44-.348,2.285,2.285,0,0,0,.977-.934V-6.006h-1.318q-2.649,0-2.82,1.831l-.012.208a1.412,1.412,0,0,0,.464,1.086A1.8,1.8,0,0,0,285.694-2.454Zm20.2-4a7.853,7.853,0,0,1-1.392,4.865A4.446,4.446,0,0,1,300.77.244a4.6,4.6,0,0,1-3.87-1.77L296.791,0h-2.075V-18.75h2.258v6.995a4.578,4.578,0,0,1,3.772-1.7,4.474,4.474,0,0,1,3.778,1.819,8.089,8.089,0,0,1,1.373,4.98Zm-2.258-.256a6.1,6.1,0,0,0-.891-3.564,2.95,2.95,0,0,0-2.563-1.257,3.316,3.316,0,0,0-3.21,2.075v5.713a3.408,3.408,0,0,0,3.235,2.075,2.934,2.934,0,0,0,2.527-1.257A6.49,6.49,0,0,0,303.639-6.714Zm4.5-.012a7.8,7.8,0,0,1,.763-3.491,5.692,5.692,0,0,1,2.124-2.393,5.782,5.782,0,0,1,3.107-.842,5.57,5.57,0,0,1,4.364,1.868,7.186,7.186,0,0,1,1.666,4.968v.159A7.869,7.869,0,0,1,319.428-3,5.608,5.608,0,0,1,317.317-.61a5.848,5.848,0,0,1-3.156.854,5.556,5.556,0,0,1-4.352-1.868,7.149,7.149,0,0,1-1.666-4.944Zm2.271.269a5.65,5.65,0,0,0,1.019,3.528A3.262,3.262,0,0,0,314.161-1.6,3.242,3.242,0,0,0,316.9-2.948a6.179,6.179,0,0,0,1.013-3.778,5.641,5.641,0,0,0-1.031-3.522,3.279,3.279,0,0,0-2.74-1.349,3.243,3.243,0,0,0-2.7,1.331A6.133,6.133,0,0,0,310.414-6.458Zm15.649-9.949v3.2h2.466v1.746h-2.466v8.191a1.829,1.829,0,0,0,.33,1.19,1.388,1.388,0,0,0,1.123.4,5.468,5.468,0,0,0,1.074-.146V0a6.547,6.547,0,0,1-1.733.244,2.812,2.812,0,0,1-2.283-.916,3.933,3.933,0,0,1-.769-2.6v-8.191h-2.4v-1.746h2.4v-3.2ZM339.32,0A4.744,4.744,0,0,1,339-1.392a5.039,5.039,0,0,1-3.76,1.636,4.662,4.662,0,0,1-3.2-1.1,3.574,3.574,0,0,1-1.251-2.8,3.734,3.734,0,0,1,1.569-3.2,7.4,7.4,0,0,1,4.413-1.141h2.2V-9.045a2.536,2.536,0,0,0-.708-1.886,2.845,2.845,0,0,0-2.087-.7,3.293,3.293,0,0,0-2.026.61,1.8,1.8,0,0,0-.818,1.477h-2.271a3.117,3.117,0,0,1,.7-1.91,4.79,4.79,0,0,1,1.9-1.459,6.406,6.406,0,0,1,2.643-.537,5.221,5.221,0,0,1,3.577,1.141,4.117,4.117,0,0,1,1.343,3.143v6.079A7.432,7.432,0,0,0,341.688-.2V0Zm-3.748-1.721a3.969,3.969,0,0,0,2.014-.549A3.323,3.323,0,0,0,338.966-3.7v-2.71H337.2q-4.15,0-4.15,2.429a2.056,2.056,0,0,0,.708,1.66A2.721,2.721,0,0,0,335.572-1.721ZM352.455-3.5a1.662,1.662,0,0,0-.69-1.422,6.639,6.639,0,0,0-2.4-.873,11.37,11.37,0,0,1-2.722-.879A3.873,3.873,0,0,1,345.149-7.9a2.92,2.92,0,0,1-.482-1.685,3.426,3.426,0,0,1,1.373-2.747,5.363,5.363,0,0,1,3.51-1.123,5.519,5.519,0,0,1,3.644,1.16,3.683,3.683,0,0,1,1.4,2.966H352.32a2.039,2.039,0,0,0-.787-1.6,2.95,2.95,0,0,0-1.984-.671,3.088,3.088,0,0,0-1.929.537,1.691,1.691,0,0,0-.7,1.4,1.37,1.37,0,0,0,.647,1.233,7.96,7.96,0,0,0,2.338.793,12.18,12.18,0,0,1,2.74.9,4,4,0,0,1,1.556,1.263,3.106,3.106,0,0,1,.507,1.8A3.38,3.38,0,0,1,353.3-.824,5.94,5.94,0,0,1,349.623.244a6.651,6.651,0,0,1-2.808-.562,4.566,4.566,0,0,1-1.91-1.569,3.781,3.781,0,0,1-.69-2.179h2.258a2.338,2.338,0,0,0,.909,1.8,3.528,3.528,0,0,0,2.24.665,3.642,3.642,0,0,0,2.057-.519A1.594,1.594,0,0,0,352.455-3.5Z" transform="translate(758 2764)" fill="#02255f"/>
    </g>
    <rect id="Rectángulo_2930" data-name="Rectángulo 2930" width="459" height="78" rx="5" transform="translate(233 2810)" fill="#f0f0f0"/>
    <path id="Trazado_11241" data-name="Trazado 11241" d="M11.877-4.639H4.431L2.759,0H.342L7.129-17.773H9.18L15.979,0h-2.4ZM5.139-6.567h6.042L8.154-14.88Zm12.329-.146a7.737,7.737,0,0,1,1.44-4.889,4.555,4.555,0,0,1,3.772-1.849,4.581,4.581,0,0,1,3.674,1.587V-18.75h2.258V0H26.538l-.11-1.416A4.6,4.6,0,0,1,22.656.244a4.511,4.511,0,0,1-3.741-1.88,7.825,7.825,0,0,1-1.447-4.907Zm2.258.256a5.858,5.858,0,0,0,.928,3.516,3,3,0,0,0,2.563,1.27A3.3,3.3,0,0,0,26.355-3.6V-9.668a3.32,3.32,0,0,0-3.113-1.868,3.013,3.013,0,0,0-2.588,1.282A6.45,6.45,0,0,0,19.727-6.458Zm14.722-6.75V1.526q0,3.809-3.455,3.809a4.19,4.19,0,0,1-1.379-.22V3.308a4.366,4.366,0,0,0,1.025.1A1.535,1.535,0,0,0,31.793,3a2.021,2.021,0,0,0,.4-1.422V-13.208Zm-2.49-3.5a1.354,1.354,0,0,1,.336-.922,1.234,1.234,0,0,1,.983-.385,1.28,1.28,0,0,1,1,.378,1.334,1.334,0,0,1,.342.928,1.29,1.29,0,0,1-.342.916,1.3,1.3,0,0,1-1,.366,1.263,1.263,0,0,1-.989-.366A1.318,1.318,0,0,1,31.958-16.711ZM43.567.244A5.771,5.771,0,0,1,39.2-1.52a6.547,6.547,0,0,1-1.685-4.718v-.415a7.926,7.926,0,0,1,.751-3.51,5.856,5.856,0,0,1,2.1-2.417,5.279,5.279,0,0,1,2.924-.873,4.947,4.947,0,0,1,4,1.7A7.346,7.346,0,0,1,48.718-6.9v.94H39.771A4.7,4.7,0,0,0,40.912-2.8a3.588,3.588,0,0,0,2.777,1.2,3.933,3.933,0,0,0,2.026-.488,5.091,5.091,0,0,0,1.453-1.294l1.379,1.074A5.546,5.546,0,0,1,43.567.244ZM43.286-11.6a3.012,3.012,0,0,0-2.295.995,4.836,4.836,0,0,0-1.147,2.789H46.46v-.171a4.3,4.3,0,0,0-.928-2.667A2.836,2.836,0,0,0,43.286-11.6Zm11.108-4.81v3.2H56.86v1.746H54.395v8.191a1.829,1.829,0,0,0,.33,1.19,1.388,1.388,0,0,0,1.123.4,5.468,5.468,0,0,0,1.074-.146V0a6.547,6.547,0,0,1-1.733.244,2.812,2.812,0,0,1-2.283-.916,3.933,3.933,0,0,1-.769-2.6v-8.191h-2.4v-1.746h2.4v-3.2ZM61.951,0H59.692V-13.208h2.258ZM59.509-16.711a1.348,1.348,0,0,1,.336-.928,1.26,1.26,0,0,1,.995-.378,1.28,1.28,0,0,1,1,.378,1.334,1.334,0,0,1,.342.928,1.29,1.29,0,0,1-.342.916,1.3,1.3,0,0,1-1,.366,1.283,1.283,0,0,1-.995-.366A1.3,1.3,0,0,1,59.509-16.711ZM69.922-3.064l3.271-10.144H75.5L70.764,0H69.043L64.258-13.208h2.307Zm6.97-3.662a7.8,7.8,0,0,1,.763-3.491,5.691,5.691,0,0,1,2.124-2.393,5.782,5.782,0,0,1,3.107-.842,5.57,5.57,0,0,1,4.364,1.868,7.186,7.186,0,0,1,1.666,4.968v.159A7.869,7.869,0,0,1,88.177-3,5.608,5.608,0,0,1,86.066-.61,5.848,5.848,0,0,1,82.91.244a5.556,5.556,0,0,1-4.352-1.868,7.149,7.149,0,0,1-1.666-4.944Zm2.271.269A5.65,5.65,0,0,0,80.182-2.93,3.262,3.262,0,0,0,82.91-1.6a3.242,3.242,0,0,0,2.734-1.349,6.179,6.179,0,0,0,1.013-3.778,5.641,5.641,0,0,0-1.031-3.522,3.279,3.279,0,0,0-2.74-1.349,3.243,3.243,0,0,0-2.7,1.331A6.133,6.133,0,0,0,79.163-6.458ZM104.7-9.949h4.407v3.186H104.7v4.98h-3.357v-4.98H96.924V-9.949h4.419v-4.773H104.7ZM125.928,0a4.744,4.744,0,0,1-.317-1.392,5.039,5.039,0,0,1-3.76,1.636,4.662,4.662,0,0,1-3.2-1.1,3.574,3.574,0,0,1-1.251-2.8,3.734,3.734,0,0,1,1.569-3.2,7.4,7.4,0,0,1,4.413-1.141h2.2V-9.045a2.536,2.536,0,0,0-.708-1.886,2.845,2.845,0,0,0-2.087-.7,3.293,3.293,0,0,0-2.026.61,1.8,1.8,0,0,0-.818,1.477h-2.271a3.117,3.117,0,0,1,.7-1.91,4.791,4.791,0,0,1,1.9-1.459,6.406,6.406,0,0,1,2.643-.537,5.221,5.221,0,0,1,3.577,1.141,4.117,4.117,0,0,1,1.343,3.143v6.079A7.432,7.432,0,0,0,128.3-.2V0ZM122.18-1.721a3.969,3.969,0,0,0,2.014-.549A3.323,3.323,0,0,0,125.574-3.7v-2.71H123.8q-4.15,0-4.15,2.429a2.056,2.056,0,0,0,.708,1.66A2.721,2.721,0,0,0,122.18-1.721Zm8.643-4.993a7.737,7.737,0,0,1,1.44-4.889,4.555,4.555,0,0,1,3.772-1.849,4.581,4.581,0,0,1,3.674,1.587V-18.75h2.258V0h-2.075l-.11-1.416a4.6,4.6,0,0,1-3.772,1.66,4.511,4.511,0,0,1-3.741-1.88,7.825,7.825,0,0,1-1.447-4.907Zm2.258.256a5.858,5.858,0,0,0,.928,3.516,3,3,0,0,0,2.563,1.27A3.3,3.3,0,0,0,139.709-3.6V-9.668a3.32,3.32,0,0,0-3.113-1.868,3.013,3.013,0,0,0-2.588,1.282A6.45,6.45,0,0,0,133.081-6.458Zm14.722-6.75V1.526q0,3.809-3.455,3.809a4.19,4.19,0,0,1-1.379-.22V3.308a4.366,4.366,0,0,0,1.025.1A1.535,1.535,0,0,0,145.148,3a2.021,2.021,0,0,0,.4-1.422V-13.208Zm-2.49-3.5a1.354,1.354,0,0,1,.336-.922,1.234,1.234,0,0,1,.983-.385,1.28,1.28,0,0,1,1,.378,1.334,1.334,0,0,1,.342.928,1.29,1.29,0,0,1-.342.916,1.3,1.3,0,0,1-1,.366,1.263,1.263,0,0,1-.989-.366A1.318,1.318,0,0,1,145.313-16.711ZM156.921.244a5.771,5.771,0,0,1-4.37-1.764,6.547,6.547,0,0,1-1.685-4.718v-.415a7.926,7.926,0,0,1,.751-3.51,5.856,5.856,0,0,1,2.1-2.417,5.279,5.279,0,0,1,2.924-.873,4.947,4.947,0,0,1,4,1.7A7.346,7.346,0,0,1,162.073-6.9v.94h-8.948A4.7,4.7,0,0,0,154.266-2.8a3.588,3.588,0,0,0,2.777,1.2,3.933,3.933,0,0,0,2.026-.488,5.091,5.091,0,0,0,1.453-1.294L161.9-2.307A5.546,5.546,0,0,1,156.921.244ZM156.641-11.6a3.012,3.012,0,0,0-2.295.995A4.836,4.836,0,0,0,153.2-7.812h6.616v-.171a4.3,4.3,0,0,0-.928-2.667A2.836,2.836,0,0,0,156.641-11.6Zm11.108-4.81v3.2h2.466v1.746h-2.466v8.191a1.829,1.829,0,0,0,.33,1.19,1.388,1.388,0,0,0,1.123.4,5.468,5.468,0,0,0,1.074-.146V0a6.547,6.547,0,0,1-1.733.244,2.812,2.812,0,0,1-2.283-.916,3.933,3.933,0,0,1-.769-2.6v-8.191h-2.4v-1.746h2.4v-3.2ZM175.305,0h-2.258V-13.208h2.258Zm-2.441-16.711a1.348,1.348,0,0,1,.336-.928,1.26,1.26,0,0,1,.995-.378,1.28,1.28,0,0,1,1,.378,1.334,1.334,0,0,1,.342.928,1.29,1.29,0,0,1-.342.916,1.3,1.3,0,0,1-1,.366,1.283,1.283,0,0,1-.995-.366A1.3,1.3,0,0,1,172.864-16.711ZM183.276-3.064l3.271-10.144h2.307L184.119,0H182.4l-4.785-13.208h2.307Zm6.97-3.662a7.8,7.8,0,0,1,.763-3.491,5.691,5.691,0,0,1,2.124-2.393,5.782,5.782,0,0,1,3.107-.842,5.57,5.57,0,0,1,4.364,1.868,7.186,7.186,0,0,1,1.666,4.968v.159A7.869,7.869,0,0,1,201.532-3,5.608,5.608,0,0,1,199.42-.61a5.848,5.848,0,0,1-3.156.854,5.556,5.556,0,0,1-4.352-1.868,7.149,7.149,0,0,1-1.666-4.944Zm2.271.269a5.651,5.651,0,0,0,1.019,3.528A3.262,3.262,0,0,0,196.265-1.6,3.242,3.242,0,0,0,199-2.948a6.179,6.179,0,0,0,1.013-3.778,5.641,5.641,0,0,0-1.031-3.522,3.279,3.279,0,0,0-2.74-1.349,3.243,3.243,0,0,0-2.7,1.331A6.133,6.133,0,0,0,192.517-6.458Zm12.512,5.273a1.414,1.414,0,0,1,.348-.977,1.326,1.326,0,0,1,1.044-.391,1.365,1.365,0,0,1,1.056.391,1.386,1.386,0,0,1,.36.977,1.311,1.311,0,0,1-.36.94,1.39,1.39,0,0,1-1.056.378,1.349,1.349,0,0,1-1.044-.378A1.336,1.336,0,0,1,205.029-1.184Zm.012-10.779a1.414,1.414,0,0,1,.348-.977,1.326,1.326,0,0,1,1.044-.391,1.365,1.365,0,0,1,1.056.391,1.386,1.386,0,0,1,.36.977,1.311,1.311,0,0,1-.36.94,1.39,1.39,0,0,1-1.056.378,1.349,1.349,0,0,1-1.044-.378A1.336,1.336,0,0,1,205.042-11.963ZM222.485-2.6a2.314,2.314,0,0,0,1.587-.537,1.882,1.882,0,0,0,.635-1.428h3.308a4.525,4.525,0,0,1-.732,2.46,4.833,4.833,0,0,1-1.971,1.733,6.17,6.17,0,0,1-2.765.616,5.734,5.734,0,0,1-4.468-1.8,7.125,7.125,0,0,1-1.636-4.974v-.232a7.044,7.044,0,0,1,1.624-4.871,5.667,5.667,0,0,1,4.456-1.819,5.555,5.555,0,0,1,3.973,1.41,4.992,4.992,0,0,1,1.52,3.754h-3.308a2.4,2.4,0,0,0-.635-1.666,2.122,2.122,0,0,0-1.611-.641,2.126,2.126,0,0,0-1.862.9,5.193,5.193,0,0,0-.629,2.911v.366a5.259,5.259,0,0,0,.623,2.93A2.153,2.153,0,0,0,222.485-2.6ZM233.752,0h-3.54V-18.75h3.54Zm10.559,0a3.917,3.917,0,0,1-.354-1.184A4.269,4.269,0,0,1,240.625.244a4.69,4.69,0,0,1-3.217-1.123,3.612,3.612,0,0,1-1.276-2.832,3.733,3.733,0,0,1,1.556-3.223,7.68,7.68,0,0,1,4.5-1.135h1.624v-.757a2.177,2.177,0,0,0-.47-1.465,1.849,1.849,0,0,0-1.483-.549,2.1,2.1,0,0,0-1.4.427,1.451,1.451,0,0,0-.507,1.172h-3.528a3.544,3.544,0,0,1,.708-2.124,4.68,4.68,0,0,1,2-1.532,7.3,7.3,0,0,1,2.905-.555,5.764,5.764,0,0,1,3.876,1.227,4.292,4.292,0,0,1,1.434,3.448v5.725a6.314,6.314,0,0,0,.525,2.844V0Zm-2.917-2.454a3.038,3.038,0,0,0,1.44-.348,2.285,2.285,0,0,0,.977-.934V-6.006h-1.318q-2.649,0-2.82,1.831l-.012.208a1.412,1.412,0,0,0,.464,1.086A1.8,1.8,0,0,0,241.394-2.454ZM257.483-9.9a9.584,9.584,0,0,0-1.27-.1,2.584,2.584,0,0,0-2.625,1.355V0h-3.528V-13.208h3.333l.1,1.575a3.269,3.269,0,0,1,2.942-1.819,3.7,3.7,0,0,1,1.1.159Zm.708,3.174a7.833,7.833,0,0,1,.757-3.5,5.54,5.54,0,0,1,2.179-2.38,6.357,6.357,0,0,1,3.3-.842,6.014,6.014,0,0,1,4.364,1.636,6.565,6.565,0,0,1,1.886,4.443l.024.9a6.9,6.9,0,0,1-1.7,4.877A5.9,5.9,0,0,1,264.453.244a5.927,5.927,0,0,1-4.559-1.831,7.025,7.025,0,0,1-1.7-4.98Zm3.528.256a4.924,4.924,0,0,0,.708,2.875,2.337,2.337,0,0,0,2.026.995,2.342,2.342,0,0,0,2-.983,5.388,5.388,0,0,0,.72-3.143,4.875,4.875,0,0,0-.72-2.856,2.342,2.342,0,0,0-2.026-1.013,2.3,2.3,0,0,0-2,1.007A5.478,5.478,0,0,0,261.719-6.47ZM280.92-3.5a1.662,1.662,0,0,0-.69-1.422,6.639,6.639,0,0,0-2.4-.873,11.37,11.37,0,0,1-2.722-.879A3.873,3.873,0,0,1,273.615-7.9a2.92,2.92,0,0,1-.482-1.685,3.426,3.426,0,0,1,1.373-2.747,5.363,5.363,0,0,1,3.51-1.123,5.519,5.519,0,0,1,3.644,1.16,3.683,3.683,0,0,1,1.4,2.966h-2.271a2.039,2.039,0,0,0-.787-1.6,2.95,2.95,0,0,0-1.984-.671,3.088,3.088,0,0,0-1.929.537,1.691,1.691,0,0,0-.7,1.4,1.37,1.37,0,0,0,.647,1.233,7.96,7.96,0,0,0,2.338.793,12.18,12.18,0,0,1,2.74.9,4,4,0,0,1,1.556,1.263,3.106,3.106,0,0,1,.507,1.8,3.38,3.38,0,0,1-1.416,2.838A5.94,5.94,0,0,1,278.088.244a6.651,6.651,0,0,1-2.808-.562,4.566,4.566,0,0,1-1.91-1.569,3.781,3.781,0,0,1-.69-2.179h2.258a2.338,2.338,0,0,0,.909,1.8,3.528,3.528,0,0,0,2.24.665,3.642,3.642,0,0,0,2.057-.519A1.594,1.594,0,0,0,280.92-3.5Zm10.5,1.9a3.253,3.253,0,0,0,2.112-.732,2.577,2.577,0,0,0,1-1.831h2.136A4.1,4.1,0,0,1,295.886-2a5.145,5.145,0,0,1-1.923,1.636,5.548,5.548,0,0,1-2.545.61,5.441,5.441,0,0,1-4.291-1.8,7.171,7.171,0,0,1-1.593-4.926V-6.86a7.952,7.952,0,0,1,.708-3.43,5.393,5.393,0,0,1,2.032-2.332,5.774,5.774,0,0,1,3.131-.83,5.3,5.3,0,0,1,3.693,1.331,4.755,4.755,0,0,1,1.569,3.455h-2.136a3.112,3.112,0,0,0-.97-2.106,3.019,3.019,0,0,0-2.155-.824,3.161,3.161,0,0,0-2.667,1.239,5.819,5.819,0,0,0-.946,3.583v.427a5.7,5.7,0,0,0,.94,3.516A3.176,3.176,0,0,0,291.418-1.6Zm15.942.293a4.8,4.8,0,0,1-3.87,1.55,4.106,4.106,0,0,1-3.217-1.227,5.31,5.31,0,0,1-1.117-3.632v-8.594h2.258v8.533q0,3,2.441,3A3.38,3.38,0,0,0,307.3-3.6v-9.607h2.258V0H307.41Zm12.012-9.875a6.767,6.767,0,0,0-1.111-.085,2.976,2.976,0,0,0-3.015,1.892V0h-2.258V-13.208h2.2l.037,1.526a3.516,3.516,0,0,1,3.149-1.77,2.307,2.307,0,0,1,1,.171Zm1.233,4.456a7.8,7.8,0,0,1,.763-3.491,5.692,5.692,0,0,1,2.124-2.393,5.782,5.782,0,0,1,3.107-.842,5.57,5.57,0,0,1,4.364,1.868,7.186,7.186,0,0,1,1.666,4.968v.159A7.869,7.869,0,0,1,331.891-3,5.608,5.608,0,0,1,329.779-.61a5.848,5.848,0,0,1-3.156.854,5.556,5.556,0,0,1-4.352-1.868,7.149,7.149,0,0,1-1.666-4.944Zm2.271.269A5.65,5.65,0,0,0,323.9-2.93,3.262,3.262,0,0,0,326.624-1.6a3.242,3.242,0,0,0,2.734-1.349,6.179,6.179,0,0,0,1.013-3.778,5.641,5.641,0,0,0-1.031-3.522A3.279,3.279,0,0,0,326.6-11.6a3.243,3.243,0,0,0-2.7,1.331A6.133,6.133,0,0,0,322.876-6.458Z" transform="translate(255 2856)" fill="#02255f"/>
    <g id="Grupo_13642" data-name="Grupo 13642">
      <rect id="Rectángulo_2931" data-name="Rectángulo 2931" width="459" height="78" rx="5" transform="translate(708 2810)" fill="#f0f0f0"/>
      <path id="Trazado_11242" data-name="Trazado 11242" d="M7.3-7.922a11.021,11.021,0,0,1-4.388-2.13,4.07,4.07,0,0,1-1.373-3.119,4.3,4.3,0,0,1,1.678-3.473,6.671,6.671,0,0,1,4.364-1.373,7.281,7.281,0,0,1,3.265.708,5.369,5.369,0,0,1,2.222,1.953,4.994,4.994,0,0,1,.787,2.722H11.5a3.233,3.233,0,0,0-1.025-2.533,4.179,4.179,0,0,0-2.893-.922,4.275,4.275,0,0,0-2.7.763,2.543,2.543,0,0,0-.97,2.118,2.288,2.288,0,0,0,.922,1.837A9.047,9.047,0,0,0,7.965-10a14.528,14.528,0,0,1,3.467,1.373,5.261,5.261,0,0,1,1.855,1.752,4.471,4.471,0,0,1,.6,2.356,4.153,4.153,0,0,1-1.685,3.461A7.183,7.183,0,0,1,7.7.244a8.354,8.354,0,0,1-3.418-.7A5.752,5.752,0,0,1,1.837-2.38,4.692,4.692,0,0,1,.977-5.151H3.333a3.061,3.061,0,0,0,1.19,2.545,5.011,5.011,0,0,0,3.18.934,4.607,4.607,0,0,0,2.844-.757,2.458,2.458,0,0,0,.989-2.063,2.413,2.413,0,0,0-.916-2.02A10.555,10.555,0,0,0,7.3-7.922Zm17.4,6.616a4.8,4.8,0,0,1-3.87,1.55A4.106,4.106,0,0,1,17.609-.983a5.31,5.31,0,0,1-1.117-3.632v-8.594H18.75v8.533q0,3,2.441,3A3.38,3.38,0,0,0,24.634-3.6v-9.607h2.258V0H24.744ZM38.013-3.5a1.663,1.663,0,0,0-.69-1.422,6.639,6.639,0,0,0-2.4-.873A11.37,11.37,0,0,1,32.2-6.677,3.873,3.873,0,0,1,30.707-7.9a2.92,2.92,0,0,1-.482-1.685A3.426,3.426,0,0,1,31.6-12.329a5.363,5.363,0,0,1,3.51-1.123,5.519,5.519,0,0,1,3.644,1.16,3.683,3.683,0,0,1,1.4,2.966H37.878a2.039,2.039,0,0,0-.787-1.6,2.95,2.95,0,0,0-1.984-.671,3.087,3.087,0,0,0-1.929.537,1.691,1.691,0,0,0-.7,1.4,1.37,1.37,0,0,0,.647,1.233,7.96,7.96,0,0,0,2.338.793,12.18,12.18,0,0,1,2.74.9,4,4,0,0,1,1.556,1.263,3.106,3.106,0,0,1,.507,1.8A3.38,3.38,0,0,1,38.855-.824,5.94,5.94,0,0,1,35.181.244a6.651,6.651,0,0,1-2.808-.562,4.566,4.566,0,0,1-1.91-1.569,3.781,3.781,0,0,1-.69-2.179h2.258a2.338,2.338,0,0,0,.909,1.8,3.528,3.528,0,0,0,2.24.665,3.642,3.642,0,0,0,2.057-.519A1.594,1.594,0,0,0,38.013-3.5Zm8.264-12.9v3.2h2.466v1.746H46.277v8.191a1.829,1.829,0,0,0,.33,1.19,1.388,1.388,0,0,0,1.123.4A5.468,5.468,0,0,0,48.8-1.831V0A6.547,6.547,0,0,1,47.07.244a2.812,2.812,0,0,1-2.283-.916,3.933,3.933,0,0,1-.769-2.6v-8.191h-2.4v-1.746h2.4v-3.2ZM59.534,0a4.744,4.744,0,0,1-.317-1.392A5.039,5.039,0,0,1,55.457.244a4.662,4.662,0,0,1-3.2-1.1A3.574,3.574,0,0,1,51-3.662a3.734,3.734,0,0,1,1.569-3.2,7.4,7.4,0,0,1,4.413-1.141h2.2V-9.045a2.536,2.536,0,0,0-.708-1.886,2.845,2.845,0,0,0-2.087-.7,3.293,3.293,0,0,0-2.026.61,1.8,1.8,0,0,0-.818,1.477H51.27a3.117,3.117,0,0,1,.7-1.91,4.791,4.791,0,0,1,1.9-1.459,6.406,6.406,0,0,1,2.643-.537A5.221,5.221,0,0,1,60.1-12.311a4.117,4.117,0,0,1,1.343,3.143v6.079A7.432,7.432,0,0,0,61.9-.2V0ZM55.786-1.721A3.969,3.969,0,0,0,57.8-2.271,3.323,3.323,0,0,0,59.18-3.7v-2.71H57.41q-4.15,0-4.15,2.429a2.056,2.056,0,0,0,.708,1.66A2.721,2.721,0,0,0,55.786-1.721ZM67.114-13.208l.073,1.66a4.813,4.813,0,0,1,3.955-1.9q4.187,0,4.224,4.724V0H73.108V-8.74a3.041,3.041,0,0,0-.653-2.112,2.617,2.617,0,0,0-2-.684,3.259,3.259,0,0,0-1.929.586,3.979,3.979,0,0,0-1.294,1.538V0H64.978V-13.208Zm14.722-3.2v3.2H84.3v1.746H81.836v8.191a1.829,1.829,0,0,0,.33,1.19,1.388,1.388,0,0,0,1.123.4,5.468,5.468,0,0,0,1.074-.146V0a6.547,6.547,0,0,1-1.733.244,2.812,2.812,0,0,1-2.283-.916,3.933,3.933,0,0,1-.769-2.6v-8.191h-2.4v-1.746h2.4v-3.2ZM89.392,0H87.134V-13.208h2.258ZM86.951-16.711a1.348,1.348,0,0,1,.336-.928,1.26,1.26,0,0,1,.995-.378,1.28,1.28,0,0,1,1,.378,1.334,1.334,0,0,1,.342.928,1.29,1.29,0,0,1-.342.916,1.3,1.3,0,0,1-1,.366,1.283,1.283,0,0,1-.995-.366A1.3,1.3,0,0,1,86.951-16.711ZM97.363-3.064l3.271-10.144h2.307L98.206,0H96.484L91.7-13.208h2.307Zm6.97-3.662a7.8,7.8,0,0,1,.763-3.491,5.691,5.691,0,0,1,2.124-2.393,5.782,5.782,0,0,1,3.107-.842,5.57,5.57,0,0,1,4.364,1.868,7.186,7.186,0,0,1,1.666,4.968v.159A7.869,7.869,0,0,1,115.619-3,5.608,5.608,0,0,1,113.507-.61a5.848,5.848,0,0,1-3.156.854A5.556,5.556,0,0,1,106-1.624a7.149,7.149,0,0,1-1.666-4.944Zm2.271.269a5.65,5.65,0,0,0,1.019,3.528A3.262,3.262,0,0,0,110.352-1.6a3.242,3.242,0,0,0,2.734-1.349A6.179,6.179,0,0,0,114.1-6.726a5.641,5.641,0,0,0-1.031-3.522,3.279,3.279,0,0,0-2.74-1.349,3.243,3.243,0,0,0-2.7,1.331A6.133,6.133,0,0,0,106.6-6.458Zm25.537-3.491h4.407v3.186h-4.407v4.98h-3.357v-4.98h-4.419V-9.949h4.419v-4.773h3.357ZM153.369,0a4.744,4.744,0,0,1-.317-1.392,5.039,5.039,0,0,1-3.76,1.636,4.662,4.662,0,0,1-3.2-1.1,3.574,3.574,0,0,1-1.251-2.8,3.734,3.734,0,0,1,1.569-3.2,7.4,7.4,0,0,1,4.413-1.141h2.2V-9.045a2.536,2.536,0,0,0-.708-1.886,2.845,2.845,0,0,0-2.087-.7,3.293,3.293,0,0,0-2.026.61,1.8,1.8,0,0,0-.818,1.477H145.1a3.117,3.117,0,0,1,.7-1.91,4.791,4.791,0,0,1,1.9-1.459,6.406,6.406,0,0,1,2.643-.537,5.221,5.221,0,0,1,3.577,1.141,4.117,4.117,0,0,1,1.343,3.143v6.079A7.432,7.432,0,0,0,155.737-.2V0Zm-3.748-1.721a3.969,3.969,0,0,0,2.014-.549A3.323,3.323,0,0,0,153.015-3.7v-2.71h-1.77q-4.15,0-4.15,2.429a2.056,2.056,0,0,0,.708,1.66A2.721,2.721,0,0,0,149.622-1.721Zm8.643-4.993A7.737,7.737,0,0,1,159.7-11.6a4.555,4.555,0,0,1,3.772-1.849,4.581,4.581,0,0,1,3.674,1.587V-18.75h2.258V0h-2.075l-.11-1.416a4.6,4.6,0,0,1-3.772,1.66,4.511,4.511,0,0,1-3.741-1.88,7.825,7.825,0,0,1-1.447-4.907Zm2.258.256a5.858,5.858,0,0,0,.928,3.516,3,3,0,0,0,2.563,1.27A3.3,3.3,0,0,0,167.151-3.6V-9.668a3.32,3.32,0,0,0-3.113-1.868,3.013,3.013,0,0,0-2.588,1.282A6.45,6.45,0,0,0,160.522-6.458Zm14.722-6.75V1.526q0,3.809-3.455,3.809a4.19,4.19,0,0,1-1.379-.22V3.308a4.366,4.366,0,0,0,1.025.1A1.535,1.535,0,0,0,172.589,3a2.021,2.021,0,0,0,.4-1.422V-13.208Zm-2.49-3.5a1.354,1.354,0,0,1,.336-.922,1.234,1.234,0,0,1,.983-.385,1.28,1.28,0,0,1,1,.378,1.334,1.334,0,0,1,.342.928,1.29,1.29,0,0,1-.342.916,1.3,1.3,0,0,1-1,.366,1.263,1.263,0,0,1-.989-.366A1.318,1.318,0,0,1,172.754-16.711ZM184.363.244a5.771,5.771,0,0,1-4.37-1.764,6.547,6.547,0,0,1-1.685-4.718v-.415a7.926,7.926,0,0,1,.751-3.51,5.856,5.856,0,0,1,2.1-2.417,5.279,5.279,0,0,1,2.924-.873,4.947,4.947,0,0,1,4,1.7A7.346,7.346,0,0,1,189.514-6.9v.94h-8.948A4.7,4.7,0,0,0,181.708-2.8a3.588,3.588,0,0,0,2.777,1.2,3.933,3.933,0,0,0,2.026-.488,5.091,5.091,0,0,0,1.453-1.294l1.379,1.074A5.546,5.546,0,0,1,184.363.244ZM184.082-11.6a3.012,3.012,0,0,0-2.295.995,4.836,4.836,0,0,0-1.147,2.789h6.616v-.171a4.3,4.3,0,0,0-.928-2.667A2.836,2.836,0,0,0,184.082-11.6Zm11.108-4.81v3.2h2.466v1.746H195.19v8.191a1.829,1.829,0,0,0,.33,1.19,1.388,1.388,0,0,0,1.123.4,5.468,5.468,0,0,0,1.074-.146V0a6.547,6.547,0,0,1-1.733.244A2.812,2.812,0,0,1,193.7-.671a3.933,3.933,0,0,1-.769-2.6v-8.191h-2.4v-1.746h2.4v-3.2ZM202.747,0h-2.258V-13.208h2.258Zm-2.441-16.711a1.348,1.348,0,0,1,.336-.928,1.26,1.26,0,0,1,.995-.378,1.28,1.28,0,0,1,1,.378,1.334,1.334,0,0,1,.342.928,1.29,1.29,0,0,1-.342.916,1.3,1.3,0,0,1-1,.366,1.283,1.283,0,0,1-.995-.366A1.3,1.3,0,0,1,200.305-16.711ZM210.718-3.064l3.271-10.144H216.3L211.56,0h-1.721l-4.785-13.208h2.307Zm6.97-3.662a7.8,7.8,0,0,1,.763-3.491,5.691,5.691,0,0,1,2.124-2.393,5.782,5.782,0,0,1,3.107-.842,5.57,5.57,0,0,1,4.364,1.868,7.186,7.186,0,0,1,1.666,4.968v.159A7.869,7.869,0,0,1,228.973-3,5.608,5.608,0,0,1,226.862-.61a5.848,5.848,0,0,1-3.156.854,5.556,5.556,0,0,1-4.352-1.868,7.149,7.149,0,0,1-1.666-4.944Zm2.271.269a5.651,5.651,0,0,0,1.019,3.528A3.262,3.262,0,0,0,223.706-1.6a3.242,3.242,0,0,0,2.734-1.349,6.179,6.179,0,0,0,1.013-3.778,5.641,5.641,0,0,0-1.031-3.522,3.279,3.279,0,0,0-2.74-1.349,3.243,3.243,0,0,0-2.7,1.331A6.133,6.133,0,0,0,219.958-6.458Zm12.512,5.273a1.414,1.414,0,0,1,.348-.977,1.326,1.326,0,0,1,1.044-.391,1.365,1.365,0,0,1,1.056.391,1.386,1.386,0,0,1,.36.977,1.311,1.311,0,0,1-.36.94,1.39,1.39,0,0,1-1.056.378,1.349,1.349,0,0,1-1.044-.378A1.336,1.336,0,0,1,232.471-1.184Zm.012-10.779a1.414,1.414,0,0,1,.348-.977,1.326,1.326,0,0,1,1.044-.391,1.365,1.365,0,0,1,1.056.391,1.386,1.386,0,0,1,.36.977,1.311,1.311,0,0,1-.36.94,1.39,1.39,0,0,1-1.056.378,1.349,1.349,0,0,1-1.044-.378A1.336,1.336,0,0,1,232.483-11.963Zm23.84,5.481a7.921,7.921,0,0,1-1.385,4.889A4.442,4.442,0,0,1,251.2.244a4.115,4.115,0,0,1-3.235-1.392V5.078h-3.528V-13.208h3.271l.122,1.294a4.146,4.146,0,0,1,3.345-1.538,4.472,4.472,0,0,1,3.8,1.807,8.136,8.136,0,0,1,1.355,4.98ZM252.8-6.738a5.2,5.2,0,0,0-.653-2.844,2.127,2.127,0,0,0-1.9-1,2.31,2.31,0,0,0-2.283,1.27v5.408A2.349,2.349,0,0,0,250.269-2.6Q252.8-2.6,252.8-6.738ZM264.587.244a6.484,6.484,0,0,1-4.73-1.782,6.335,6.335,0,0,1-1.825-4.749v-.342a7.979,7.979,0,0,1,.769-3.558A5.644,5.644,0,0,1,260.98-12.6a6.116,6.116,0,0,1,3.217-.848,5.482,5.482,0,0,1,4.266,1.709A6.944,6.944,0,0,1,270.02-6.9v1.44h-8.411a3.277,3.277,0,0,0,1.031,2.075,3.118,3.118,0,0,0,2.179.781,3.808,3.808,0,0,0,3.186-1.477l1.733,1.941A5.3,5.3,0,0,1,267.59-.385,7.049,7.049,0,0,1,264.587.244Zm-.4-10.84a2.209,2.209,0,0,0-1.7.708,3.658,3.658,0,0,0-.836,2.026h4.907v-.281a2.608,2.608,0,0,0-.635-1.813A2.28,2.28,0,0,0,264.185-10.6ZM275.745,0H272.2V-18.75h3.54Zm6.628,0h-3.54V-13.208h3.54Zm-3.748-16.626a1.737,1.737,0,0,1,.531-1.306,2,2,0,0,1,1.447-.513,2,2,0,0,1,1.44.513,1.727,1.727,0,0,1,.537,1.306,1.732,1.732,0,0,1-.543,1.318,2,2,0,0,1-1.434.513,2,2,0,0,1-1.434-.513A1.732,1.732,0,0,1,278.625-16.626Zm13.391,5.444a6.767,6.767,0,0,0-1.111-.085,2.976,2.976,0,0,0-3.015,1.892V0h-2.258V-13.208h2.2l.037,1.526a3.516,3.516,0,0,1,3.149-1.77,2.307,2.307,0,0,1,1,.171Zm8.459,0a6.767,6.767,0,0,0-1.111-.085,2.976,2.976,0,0,0-3.015,1.892V0h-2.258V-13.208h2.2l.037,1.526a3.516,3.516,0,0,1,3.149-1.77,2.307,2.307,0,0,1,1,.171Zm1.233,4.456a7.8,7.8,0,0,1,.763-3.491A5.692,5.692,0,0,1,304.6-12.61a5.782,5.782,0,0,1,3.107-.842,5.57,5.57,0,0,1,4.364,1.868,7.186,7.186,0,0,1,1.666,4.968v.159A7.869,7.869,0,0,1,312.994-3,5.608,5.608,0,0,1,310.883-.61a5.848,5.848,0,0,1-3.156.854,5.556,5.556,0,0,1-4.352-1.868,7.149,7.149,0,0,1-1.666-4.944Zm2.271.269A5.65,5.65,0,0,0,305-2.93,3.262,3.262,0,0,0,307.727-1.6a3.242,3.242,0,0,0,2.734-1.349,6.179,6.179,0,0,0,1.013-3.778,5.641,5.641,0,0,0-1.031-3.522A3.279,3.279,0,0,0,307.7-11.6a3.243,3.243,0,0,0-2.7,1.331A6.133,6.133,0,0,0,303.979-6.458Zm14.917-6.75V1.526q0,3.809-3.455,3.809a4.19,4.19,0,0,1-1.379-.22V3.308a4.366,4.366,0,0,0,1.025.1A1.535,1.535,0,0,0,316.241,3a2.021,2.021,0,0,0,.4-1.422V-13.208Zm-2.49-3.5a1.354,1.354,0,0,1,.336-.922,1.234,1.234,0,0,1,.983-.385,1.28,1.28,0,0,1,1,.378,1.334,1.334,0,0,1,.342.928,1.29,1.29,0,0,1-.342.916,1.3,1.3,0,0,1-1,.366,1.263,1.263,0,0,1-.989-.366A1.318,1.318,0,0,1,316.406-16.711Zm5.53,9.985a7.8,7.8,0,0,1,.763-3.491,5.692,5.692,0,0,1,2.124-2.393,5.782,5.782,0,0,1,3.107-.842,5.57,5.57,0,0,1,4.364,1.868,7.186,7.186,0,0,1,1.666,4.968v.159A7.869,7.869,0,0,1,333.221-3,5.608,5.608,0,0,1,331.11-.61a5.848,5.848,0,0,1-3.156.854A5.556,5.556,0,0,1,323.6-1.624a7.149,7.149,0,0,1-1.666-4.944Zm2.271.269a5.65,5.65,0,0,0,1.019,3.528A3.262,3.262,0,0,0,327.954-1.6a3.242,3.242,0,0,0,2.734-1.349A6.179,6.179,0,0,0,331.7-6.726a5.641,5.641,0,0,0-1.031-3.522,3.279,3.279,0,0,0-2.74-1.349,3.243,3.243,0,0,0-2.7,1.331A6.133,6.133,0,0,0,324.207-6.458Z" transform="translate(758 2859)" fill="#02255f"/>
    </g>
  </g>
</svg>
