<svg xmlns="http://www.w3.org/2000/svg" width="589.5" height="202.577" viewBox="0 0 589.5 202.577">
  <g id="Grupo_13208" data-name="Grupo 13208" transform="translate(-405.5 -5817)">
    <g id="Grupo_13189" data-name="Grupo 13189" transform="translate(321.459 4229.504)">
      <path id="Trazado_10114" data-name="Trazado 10114" d="M146.387,1779.635c-18.3,5.237-22.087-.467-21-7s19.363-17.137,17.11-27.532c-2.1-9.713.433-1.77-2.066,4.492-2.987,7.485-16.671,14.944-18.933,23.04-2.955,10.577,8.7,18.992,25.114,9.73S146.387,1779.635,146.387,1779.635Z" transform="translate(0 -89.591)" fill="#f7ad3a"/>
      <path id="Trazado_10115" data-name="Trazado 10115" d="M248.779,1743.784c.061,20.221-25.838,33.443-42.948,37.176a73.648,73.648,0,0,1-11.087,1.754c-7.734.467-15.313-1.339-16.445-10.931-1.711-14.466,24.266-23.332,28.621-38.731,0,0,37.15-5.556,41.454,8.037A8.91,8.91,0,0,1,248.779,1743.784Z" transform="translate(-33.467 -84.539)" fill="#f7ad3a"/>
      <path id="Trazado_10116" data-name="Trazado 10116" d="M321.328,1790.145c3.577,10.733,2.8,19.132,3.733,20.688s12.444,2.333,13.377,0-1.244-5.911-3.266-6.689a5.994,5.994,0,0,0-4.355.467s1.978-22.517-.156-27.221S321.328,1790.145,321.328,1790.145Z" transform="translate(-117.232 -110.678)" fill="#f7ad3a"/>
      <path id="Trazado_10117" data-name="Trazado 10117" d="M272.106,1756.715c.061,20.221-25.838,33.443-42.948,37.176a73.617,73.617,0,0,1-11.087,1.754c5.971-13.576,32.2-33.391,37.53-34.575,3.353-.743,10.482-4.934,16.1-7.051A8.908,8.908,0,0,1,272.106,1756.715Z" transform="translate(-56.793 -97.47)" fill="#fac074"/>
      <path id="Trazado_10118" data-name="Trazado 10118" d="M265.734,1784.548c5.321,5.425,7.343,25.334,8.9,27.045s14.622,1.089,15.711-1.555-1.711-7.622-4.822-7.933-4.044.933-4.044.933.163-25.75-1.4-28.925S265.734,1784.548,265.734,1784.548Z" transform="translate(-84.692 -108.95)" fill="#f7ad3a"/>
      <path id="Trazado_10119" data-name="Trazado 10119" d="M254.291,1668.129c19.443,1.072,35.62-24,33.754-42.805s-19.443-38.875-33.132-37.786-38.254,31.833-33.754,50.651c3.733,15.612,18.837,12.034,26.062,18.256S254.291,1668.129,254.291,1668.129Z" transform="translate(-58.284 0)" fill="#be6325"/>
      <path id="Trazado_10120" data-name="Trazado 10120" d="M328.08,1634.969a5.347,5.347,0,0,1,8.192-1.97c3.629,2.6,2.7,9.423-1.918,8.807S328.08,1634.969,328.08,1634.969Z" transform="translate(-121.185 -25.966)" fill="#f7ad3a"/>
      <path id="Trazado_10121" data-name="Trazado 10121" d="M269.546,1637.622c-3.4-3.571-8.026-3.427-9.506-.771-2.427,4.355.089,8.918,5.585,8.5S269.546,1637.622,269.546,1637.622Z" transform="translate(-80.818 -27.744)" fill="#f7ad3a"/>
      <path id="Trazado_10122" data-name="Trazado 10122" d="M333.05,1640.418c.894-2.1,3.616-2.45,4.472-.816s.155,3.889-2.022,3.733S333.05,1640.418,333.05,1640.418Z" transform="translate(-124.094 -29.898)" fill="#be6325"/>
      <path id="Trazado_10123" data-name="Trazado 10123" d="M273.594,1642.8c-3.108-2.468-4.586-1.03-5.208.254s-.35,4.536,3.422,3.882S273.594,1642.8,273.594,1642.8Z" transform="translate(-86.093 -31.58)" fill="#be6325"/>
      <path id="Trazado_10124" data-name="Trazado 10124" d="M297.173,1658.754c-2.013,4.977-7.164,10.43-16.453,10.8a37.468,37.468,0,0,1-15.391-2.489c-5.591-2.282-9.4-5.9-9.808-10.059-.726-7.363,13.169-30.9,20.221-31.732,11.856-1.391,21.881,22.814,22.4,28A12.057,12.057,0,0,1,297.173,1658.754Z" transform="translate(-78.698 -22.08)" fill="#f7ad3a"/>
      <path id="Trazado_10125" data-name="Trazado 10125" d="M375.343,1780.4" transform="translate(-148.849 -112.912)" fill="#be6325"/>
      <path id="Trazado_10126" data-name="Trazado 10126" d="M218.07,1775.4c13.161-5.782,17.724,1.848,17.724,6.18,0,5.289-4.148,11.326-8.346,14.377-2.2,1.6-2.646.622-2.646.622Z" transform="translate(-56.793 -108.764)" fill="#c28321"/>
      <path id="Trazado_10127" data-name="Trazado 10127" d="M196.293,1778.585c12-5.885,19.782-3.773,20.475,4.107.753,8.57-11.431,21.584-11.431,21.584s14.515.485,17.732,3.843c2.229,2.327.721,4.4-1.244,5.358-1.567.763-30.8.6-32.2-1.113s2.644-6.066,2.644-6.066Z" transform="translate(-39.972 -109.877)" fill="#f7ad3a"/>
      <path id="Trazado_10128" data-name="Trazado 10128" d="M146.123,1716.509c3.478,4.682.546,11.332,3.559,15.1,3.883,4.855,14.359.447,10.867-7.133C156.526,1715.739,146.123,1716.509,146.123,1716.509Z" transform="translate(-14.681 -75.504)" fill="#be6325"/>
      <path id="Trazado_10129" data-name="Trazado 10129" d="M311.056,1697c-2.013,4.977-7.164,10.43-16.453,10.8a37.466,37.466,0,0,1-15.391-2.489c.812-8.616,9.852-14.336,18.087-14.725C304.229,1690.262,309.941,1693.209,311.056,1697Z" transform="translate(-92.581 -60.329)" fill="#fac074"/>
      <path id="Trazado_10130" data-name="Trazado 10130" d="M311.521,1680.7c-2.022.3-7.691-3.025-8.538-5.1a1.267,1.267,0,0,1-.078-.234c-.484-2.057,2.083-13.411,4.571-14.345,2.722-1.02,8.357,9.609,8.849,12.47l.026.156C316.654,1676.265,313.621,1680.386,311.521,1680.7Z" transform="translate(-106.415 -42.996)" fill="#f7953a"/>
      <path id="Trazado_10131" data-name="Trazado 10131" d="M311.715,1697.838c-2.022.3-7.691-3.025-8.538-5.1,4.321-3.033,11.1-2.7,13.342-2.109l.026.156C316.848,1693.4,313.815,1697.526,311.715,1697.838Z" transform="translate(-106.608 -60.136)" fill="#be6325"/>
      <path id="Trazado_10132" data-name="Trazado 10132" d="M312.788,1708.569c-1.166,5.444-6.844,4.355-7.777,1.866" transform="translate(-107.682 -70.867)" fill="none" stroke="#be6325" stroke-linecap="round" stroke-miterlimit="10" stroke-width="1.042"/>
      <path id="Trazado_10133" data-name="Trazado 10133" d="M330.377,1707.588a3.362,3.362,0,0,1-6.611-.207" transform="translate(-118.659 -70.171)" fill="none" stroke="#be6325" stroke-linecap="round" stroke-miterlimit="10" stroke-width="1.042"/>
      <path id="Trazado_10134" data-name="Trazado 10134" d="M298.147,1663.809c.182,1.627-.19,3-.83,3.075s-1.307-1.189-1.489-2.816.19-3,.83-3.075S297.965,1662.182,298.147,1663.809Z" transform="translate(-102.28 -43.018)" fill="#be6325"/>
      <path id="Trazado_10135" data-name="Trazado 10135" d="M328.3,1661.017c.3,1.608.036,3.009-.6,3.129s-1.392-1.088-1.7-2.7-.036-3.009.6-3.129S328,1659.408,328.3,1661.017Z" transform="translate(-119.898 -41.451)" fill="#be6325"/>
    </g>
    <g id="Grupo_13193" data-name="Grupo 13193" transform="translate(-65.102 -9)">
      <g id="Grupo_13190" data-name="Grupo 13190" transform="translate(586.959 4238.504)">
        <path id="Trazado_10114-2" data-name="Trazado 10114" d="M146.387,1779.635c-18.3,5.237-22.087-.467-21-7s19.363-17.137,17.11-27.532c-2.1-9.713.433-1.77-2.066,4.492-2.987,7.485-16.671,14.944-18.933,23.04-2.955,10.577,8.7,18.992,25.114,9.73S146.387,1779.635,146.387,1779.635Z" transform="translate(0 -89.591)" fill="#f7ad3a"/>
        <path id="Trazado_10115-2" data-name="Trazado 10115" d="M248.779,1743.784c.061,20.221-25.838,33.443-42.948,37.176a73.648,73.648,0,0,1-11.087,1.754c-7.734.467-15.313-1.339-16.445-10.931-1.711-14.466,24.266-23.332,28.621-38.731,0,0,37.15-5.556,41.454,8.037A8.91,8.91,0,0,1,248.779,1743.784Z" transform="translate(-33.467 -84.539)" fill="#f7ad3a"/>
        <path id="Trazado_10116-2" data-name="Trazado 10116" d="M321.328,1790.145c3.577,10.733,2.8,19.132,3.733,20.688s12.444,2.333,13.377,0-1.244-5.911-3.266-6.689a5.994,5.994,0,0,0-4.355.467s1.978-22.517-.156-27.221S321.328,1790.145,321.328,1790.145Z" transform="translate(-117.232 -110.678)" fill="#f7ad3a"/>
        <path id="Trazado_10117-2" data-name="Trazado 10117" d="M272.106,1756.715c.061,20.221-25.838,33.443-42.948,37.176a73.617,73.617,0,0,1-11.087,1.754c5.971-13.576,32.2-33.391,37.53-34.575,3.353-.743,10.482-4.934,16.1-7.051A8.908,8.908,0,0,1,272.106,1756.715Z" transform="translate(-56.793 -97.47)" fill="#fac074"/>
        <path id="Trazado_10118-2" data-name="Trazado 10118" d="M265.734,1784.548c5.321,5.425,7.343,25.334,8.9,27.045s14.622,1.089,15.711-1.555-1.711-7.622-4.822-7.933-4.044.933-4.044.933.163-25.75-1.4-28.925S265.734,1784.548,265.734,1784.548Z" transform="translate(-84.692 -108.95)" fill="#f7ad3a"/>
        <path id="Trazado_10119-2" data-name="Trazado 10119" d="M254.291,1668.129c19.443,1.072,35.62-24,33.754-42.805s-19.443-38.875-33.132-37.786-38.254,31.833-33.754,50.651c3.733,15.612,18.837,12.034,26.062,18.256S254.291,1668.129,254.291,1668.129Z" transform="translate(-58.284 0)" fill="#be6325"/>
        <path id="Trazado_10120-2" data-name="Trazado 10120" d="M328.08,1634.969a5.347,5.347,0,0,1,8.192-1.97c3.629,2.6,2.7,9.423-1.918,8.807S328.08,1634.969,328.08,1634.969Z" transform="translate(-121.185 -25.966)" fill="#f7ad3a"/>
        <path id="Trazado_10121-2" data-name="Trazado 10121" d="M269.546,1637.622c-3.4-3.571-8.026-3.427-9.506-.771-2.427,4.355.089,8.918,5.585,8.5S269.546,1637.622,269.546,1637.622Z" transform="translate(-80.818 -27.744)" fill="#f7ad3a"/>
        <path id="Trazado_10122-2" data-name="Trazado 10122" d="M333.05,1640.418c.894-2.1,3.616-2.45,4.472-.816s.155,3.889-2.022,3.733S333.05,1640.418,333.05,1640.418Z" transform="translate(-124.094 -29.898)" fill="#be6325"/>
        <path id="Trazado_10123-2" data-name="Trazado 10123" d="M273.594,1642.8c-3.108-2.468-4.586-1.03-5.208.254s-.35,4.536,3.422,3.882S273.594,1642.8,273.594,1642.8Z" transform="translate(-86.093 -31.58)" fill="#be6325"/>
        <path id="Trazado_10124-2" data-name="Trazado 10124" d="M297.173,1658.754c-2.013,4.977-7.164,10.43-16.453,10.8a37.468,37.468,0,0,1-15.391-2.489c-5.591-2.282-9.4-5.9-9.808-10.059-.726-7.363,13.169-30.9,20.221-31.732,11.856-1.391,21.881,22.814,22.4,28A12.057,12.057,0,0,1,297.173,1658.754Z" transform="translate(-78.698 -22.08)" fill="#f7ad3a"/>
        <path id="Trazado_10125-2" data-name="Trazado 10125" d="M375.343,1780.4" transform="translate(-148.849 -112.912)" fill="#be6325"/>
        <path id="Trazado_10126-2" data-name="Trazado 10126" d="M218.07,1775.4c13.161-5.782,17.724,1.848,17.724,6.18,0,5.289-4.148,11.326-8.346,14.377-2.2,1.6-2.646.622-2.646.622Z" transform="translate(-56.793 -108.764)" fill="#c28321"/>
        <path id="Trazado_10127-2" data-name="Trazado 10127" d="M196.293,1778.585c12-5.885,19.782-3.773,20.475,4.107.753,8.57-11.431,21.584-11.431,21.584s14.515.485,17.732,3.843c2.229,2.327.721,4.4-1.244,5.358-1.567.763-30.8.6-32.2-1.113s2.644-6.066,2.644-6.066Z" transform="translate(-39.972 -109.877)" fill="#f7ad3a"/>
        <path id="Trazado_10128-2" data-name="Trazado 10128" d="M146.123,1716.509c3.478,4.682.546,11.332,3.559,15.1,3.883,4.855,14.359.447,10.867-7.133C156.526,1715.739,146.123,1716.509,146.123,1716.509Z" transform="translate(-14.681 -75.504)" fill="#be6325"/>
        <path id="Trazado_10129-2" data-name="Trazado 10129" d="M311.056,1697c-2.013,4.977-7.164,10.43-16.453,10.8a37.466,37.466,0,0,1-15.391-2.489c.812-8.616,9.852-14.336,18.087-14.725C304.229,1690.262,309.941,1693.209,311.056,1697Z" transform="translate(-92.581 -60.329)" fill="#fac074"/>
        <path id="Trazado_10130-2" data-name="Trazado 10130" d="M311.521,1680.7c-2.022.3-7.691-3.025-8.538-5.1a1.267,1.267,0,0,1-.078-.234c-.484-2.057,2.083-13.411,4.571-14.345,2.722-1.02,8.357,9.609,8.849,12.47l.026.156C316.654,1676.265,313.621,1680.386,311.521,1680.7Z" transform="translate(-106.415 -42.996)" fill="#f7953a"/>
        <path id="Trazado_10131-2" data-name="Trazado 10131" d="M311.715,1697.838c-2.022.3-7.691-3.025-8.538-5.1,4.321-3.033,11.1-2.7,13.342-2.109l.026.156C316.848,1693.4,313.815,1697.526,311.715,1697.838Z" transform="translate(-106.608 -60.136)" fill="#be6325"/>
        <path id="Trazado_10132-2" data-name="Trazado 10132" d="M312.788,1708.569c-1.166,5.444-6.844,4.355-7.777,1.866" transform="translate(-107.682 -70.867)" fill="none" stroke="#be6325" stroke-linecap="round" stroke-miterlimit="10" stroke-width="1.042"/>
        <path id="Trazado_10133-2" data-name="Trazado 10133" d="M330.377,1707.588a3.362,3.362,0,0,1-6.611-.207" transform="translate(-118.659 -70.171)" fill="none" stroke="#be6325" stroke-linecap="round" stroke-miterlimit="10" stroke-width="1.042"/>
        <path id="Trazado_10134-2" data-name="Trazado 10134" d="M298.147,1663.809c.182,1.627-.19,3-.83,3.075s-1.307-1.189-1.489-2.816.19-3,.83-3.075S297.965,1662.182,298.147,1663.809Z" transform="translate(-102.28 -43.018)" fill="#be6325"/>
        <path id="Trazado_10135-2" data-name="Trazado 10135" d="M328.3,1661.017c.3,1.608.036,3.009-.6,3.129s-1.392-1.088-1.7-2.7-.036-3.009.6-3.129S328,1659.408,328.3,1661.017Z" transform="translate(-119.898 -41.451)" fill="#be6325"/>
      </g>
      <g id="Grupo_13191" data-name="Grupo 13191" transform="translate(695.827 4238.504)">
        <path id="Trazado_10114-3" data-name="Trazado 10114" d="M146.387,1779.635c-18.3,5.237-22.087-.467-21-7s19.363-17.137,17.11-27.532c-2.1-9.713.433-1.77-2.066,4.492-2.987,7.485-16.671,14.944-18.933,23.04-2.955,10.577,8.7,18.992,25.114,9.73S146.387,1779.635,146.387,1779.635Z" transform="translate(0 -89.591)" fill="#f7ad3a"/>
        <path id="Trazado_10115-3" data-name="Trazado 10115" d="M248.779,1743.784c.061,20.221-25.838,33.443-42.948,37.176a73.648,73.648,0,0,1-11.087,1.754c-7.734.467-15.313-1.339-16.445-10.931-1.711-14.466,24.266-23.332,28.621-38.731,0,0,37.15-5.556,41.454,8.037A8.91,8.91,0,0,1,248.779,1743.784Z" transform="translate(-33.467 -84.539)" fill="#f7ad3a"/>
        <path id="Trazado_10116-3" data-name="Trazado 10116" d="M321.328,1790.145c3.577,10.733,2.8,19.132,3.733,20.688s12.444,2.333,13.377,0-1.244-5.911-3.266-6.689a5.994,5.994,0,0,0-4.355.467s1.978-22.517-.156-27.221S321.328,1790.145,321.328,1790.145Z" transform="translate(-117.232 -110.678)" fill="#f7ad3a"/>
        <path id="Trazado_10117-3" data-name="Trazado 10117" d="M272.106,1756.715c.061,20.221-25.838,33.443-42.948,37.176a73.617,73.617,0,0,1-11.087,1.754c5.971-13.576,32.2-33.391,37.53-34.575,3.353-.743,10.482-4.934,16.1-7.051A8.908,8.908,0,0,1,272.106,1756.715Z" transform="translate(-56.793 -97.47)" fill="#fac074"/>
        <path id="Trazado_10118-3" data-name="Trazado 10118" d="M265.734,1784.548c5.321,5.425,7.343,25.334,8.9,27.045s14.622,1.089,15.711-1.555-1.711-7.622-4.822-7.933-4.044.933-4.044.933.163-25.75-1.4-28.925S265.734,1784.548,265.734,1784.548Z" transform="translate(-84.692 -108.95)" fill="#f7ad3a"/>
        <path id="Trazado_10119-3" data-name="Trazado 10119" d="M254.291,1668.129c19.443,1.072,35.62-24,33.754-42.805s-19.443-38.875-33.132-37.786-38.254,31.833-33.754,50.651c3.733,15.612,18.837,12.034,26.062,18.256S254.291,1668.129,254.291,1668.129Z" transform="translate(-58.284 0)" fill="#be6325"/>
        <path id="Trazado_10120-3" data-name="Trazado 10120" d="M328.08,1634.969a5.347,5.347,0,0,1,8.192-1.97c3.629,2.6,2.7,9.423-1.918,8.807S328.08,1634.969,328.08,1634.969Z" transform="translate(-121.185 -25.966)" fill="#f7ad3a"/>
        <path id="Trazado_10121-3" data-name="Trazado 10121" d="M269.546,1637.622c-3.4-3.571-8.026-3.427-9.506-.771-2.427,4.355.089,8.918,5.585,8.5S269.546,1637.622,269.546,1637.622Z" transform="translate(-80.818 -27.744)" fill="#f7ad3a"/>
        <path id="Trazado_10122-3" data-name="Trazado 10122" d="M333.05,1640.418c.894-2.1,3.616-2.45,4.472-.816s.155,3.889-2.022,3.733S333.05,1640.418,333.05,1640.418Z" transform="translate(-124.094 -29.898)" fill="#be6325"/>
        <path id="Trazado_10123-3" data-name="Trazado 10123" d="M273.594,1642.8c-3.108-2.468-4.586-1.03-5.208.254s-.35,4.536,3.422,3.882S273.594,1642.8,273.594,1642.8Z" transform="translate(-86.093 -31.58)" fill="#be6325"/>
        <path id="Trazado_10124-3" data-name="Trazado 10124" d="M297.173,1658.754c-2.013,4.977-7.164,10.43-16.453,10.8a37.468,37.468,0,0,1-15.391-2.489c-5.591-2.282-9.4-5.9-9.808-10.059-.726-7.363,13.169-30.9,20.221-31.732,11.856-1.391,21.881,22.814,22.4,28A12.057,12.057,0,0,1,297.173,1658.754Z" transform="translate(-78.698 -22.08)" fill="#f7ad3a"/>
        <path id="Trazado_10125-3" data-name="Trazado 10125" d="M375.343,1780.4" transform="translate(-148.849 -112.912)" fill="#be6325"/>
        <path id="Trazado_10126-3" data-name="Trazado 10126" d="M218.07,1775.4c13.161-5.782,17.724,1.848,17.724,6.18,0,5.289-4.148,11.326-8.346,14.377-2.2,1.6-2.646.622-2.646.622Z" transform="translate(-56.793 -108.764)" fill="#c28321"/>
        <path id="Trazado_10127-3" data-name="Trazado 10127" d="M196.293,1778.585c12-5.885,19.782-3.773,20.475,4.107.753,8.57-11.431,21.584-11.431,21.584s14.515.485,17.732,3.843c2.229,2.327.721,4.4-1.244,5.358-1.567.763-30.8.6-32.2-1.113s2.644-6.066,2.644-6.066Z" transform="translate(-39.972 -109.877)" fill="#f7ad3a"/>
        <path id="Trazado_10128-3" data-name="Trazado 10128" d="M146.123,1716.509c3.478,4.682.546,11.332,3.559,15.1,3.883,4.855,14.359.447,10.867-7.133C156.526,1715.739,146.123,1716.509,146.123,1716.509Z" transform="translate(-14.681 -75.504)" fill="#be6325"/>
        <path id="Trazado_10129-3" data-name="Trazado 10129" d="M311.056,1697c-2.013,4.977-7.164,10.43-16.453,10.8a37.466,37.466,0,0,1-15.391-2.489c.812-8.616,9.852-14.336,18.087-14.725C304.229,1690.262,309.941,1693.209,311.056,1697Z" transform="translate(-92.581 -60.329)" fill="#fac074"/>
        <path id="Trazado_10130-3" data-name="Trazado 10130" d="M311.521,1680.7c-2.022.3-7.691-3.025-8.538-5.1a1.267,1.267,0,0,1-.078-.234c-.484-2.057,2.083-13.411,4.571-14.345,2.722-1.02,8.357,9.609,8.849,12.47l.026.156C316.654,1676.265,313.621,1680.386,311.521,1680.7Z" transform="translate(-106.415 -42.996)" fill="#f7953a"/>
        <path id="Trazado_10131-3" data-name="Trazado 10131" d="M311.715,1697.838c-2.022.3-7.691-3.025-8.538-5.1,4.321-3.033,11.1-2.7,13.342-2.109l.026.156C316.848,1693.4,313.815,1697.526,311.715,1697.838Z" transform="translate(-106.608 -60.136)" fill="#be6325"/>
        <path id="Trazado_10132-3" data-name="Trazado 10132" d="M312.788,1708.569c-1.166,5.444-6.844,4.355-7.777,1.866" transform="translate(-107.682 -70.867)" fill="none" stroke="#be6325" stroke-linecap="round" stroke-miterlimit="10" stroke-width="1.042"/>
        <path id="Trazado_10133-3" data-name="Trazado 10133" d="M330.377,1707.588a3.362,3.362,0,0,1-6.611-.207" transform="translate(-118.659 -70.171)" fill="none" stroke="#be6325" stroke-linecap="round" stroke-miterlimit="10" stroke-width="1.042"/>
        <path id="Trazado_10134-3" data-name="Trazado 10134" d="M298.147,1663.809c.182,1.627-.19,3-.83,3.075s-1.307-1.189-1.489-2.816.19-3,.83-3.075S297.965,1662.182,298.147,1663.809Z" transform="translate(-102.28 -43.018)" fill="#be6325"/>
        <path id="Trazado_10135-3" data-name="Trazado 10135" d="M328.3,1661.017c.3,1.608.036,3.009-.6,3.129s-1.392-1.088-1.7-2.7-.036-3.009.6-3.129S328,1659.408,328.3,1661.017Z" transform="translate(-119.898 -41.451)" fill="#be6325"/>
      </g>
      <g id="Grupo_13192" data-name="Grupo 13192" transform="translate(804.694 4238.504)">
        <path id="Trazado_10114-4" data-name="Trazado 10114" d="M146.387,1779.635c-18.3,5.237-22.087-.467-21-7s19.363-17.137,17.11-27.532c-2.1-9.713.433-1.77-2.066,4.492-2.987,7.485-16.671,14.944-18.933,23.04-2.955,10.577,8.7,18.992,25.114,9.73S146.387,1779.635,146.387,1779.635Z" transform="translate(0 -89.591)" fill="#f7ad3a"/>
        <path id="Trazado_10115-4" data-name="Trazado 10115" d="M248.779,1743.784c.061,20.221-25.838,33.443-42.948,37.176a73.648,73.648,0,0,1-11.087,1.754c-7.734.467-15.313-1.339-16.445-10.931-1.711-14.466,24.266-23.332,28.621-38.731,0,0,37.15-5.556,41.454,8.037A8.91,8.91,0,0,1,248.779,1743.784Z" transform="translate(-33.467 -84.539)" fill="#f7ad3a"/>
        <path id="Trazado_10116-4" data-name="Trazado 10116" d="M321.328,1790.145c3.577,10.733,2.8,19.132,3.733,20.688s12.444,2.333,13.377,0-1.244-5.911-3.266-6.689a5.994,5.994,0,0,0-4.355.467s1.978-22.517-.156-27.221S321.328,1790.145,321.328,1790.145Z" transform="translate(-117.232 -110.678)" fill="#f7ad3a"/>
        <path id="Trazado_10117-4" data-name="Trazado 10117" d="M272.106,1756.715c.061,20.221-25.838,33.443-42.948,37.176a73.617,73.617,0,0,1-11.087,1.754c5.971-13.576,32.2-33.391,37.53-34.575,3.353-.743,10.482-4.934,16.1-7.051A8.908,8.908,0,0,1,272.106,1756.715Z" transform="translate(-56.793 -97.47)" fill="#fac074"/>
        <path id="Trazado_10118-4" data-name="Trazado 10118" d="M265.734,1784.548c5.321,5.425,7.343,25.334,8.9,27.045s14.622,1.089,15.711-1.555-1.711-7.622-4.822-7.933-4.044.933-4.044.933.163-25.75-1.4-28.925S265.734,1784.548,265.734,1784.548Z" transform="translate(-84.692 -108.95)" fill="#f7ad3a"/>
        <path id="Trazado_10119-4" data-name="Trazado 10119" d="M254.291,1668.129c19.443,1.072,35.62-24,33.754-42.805s-19.443-38.875-33.132-37.786-38.254,31.833-33.754,50.651c3.733,15.612,18.837,12.034,26.062,18.256S254.291,1668.129,254.291,1668.129Z" transform="translate(-58.284 0)" fill="#be6325"/>
        <path id="Trazado_10120-4" data-name="Trazado 10120" d="M328.08,1634.969a5.347,5.347,0,0,1,8.192-1.97c3.629,2.6,2.7,9.423-1.918,8.807S328.08,1634.969,328.08,1634.969Z" transform="translate(-121.185 -25.966)" fill="#f7ad3a"/>
        <path id="Trazado_10121-4" data-name="Trazado 10121" d="M269.546,1637.622c-3.4-3.571-8.026-3.427-9.506-.771-2.427,4.355.089,8.918,5.585,8.5S269.546,1637.622,269.546,1637.622Z" transform="translate(-80.818 -27.744)" fill="#f7ad3a"/>
        <path id="Trazado_10122-4" data-name="Trazado 10122" d="M333.05,1640.418c.894-2.1,3.616-2.45,4.472-.816s.155,3.889-2.022,3.733S333.05,1640.418,333.05,1640.418Z" transform="translate(-124.094 -29.898)" fill="#be6325"/>
        <path id="Trazado_10123-4" data-name="Trazado 10123" d="M273.594,1642.8c-3.108-2.468-4.586-1.03-5.208.254s-.35,4.536,3.422,3.882S273.594,1642.8,273.594,1642.8Z" transform="translate(-86.093 -31.58)" fill="#be6325"/>
        <path id="Trazado_10124-4" data-name="Trazado 10124" d="M297.173,1658.754c-2.013,4.977-7.164,10.43-16.453,10.8a37.468,37.468,0,0,1-15.391-2.489c-5.591-2.282-9.4-5.9-9.808-10.059-.726-7.363,13.169-30.9,20.221-31.732,11.856-1.391,21.881,22.814,22.4,28A12.057,12.057,0,0,1,297.173,1658.754Z" transform="translate(-78.698 -22.08)" fill="#f7ad3a"/>
        <path id="Trazado_10125-4" data-name="Trazado 10125" d="M375.343,1780.4" transform="translate(-148.849 -112.912)" fill="#be6325"/>
        <path id="Trazado_10126-4" data-name="Trazado 10126" d="M218.07,1775.4c13.161-5.782,17.724,1.848,17.724,6.18,0,5.289-4.148,11.326-8.346,14.377-2.2,1.6-2.646.622-2.646.622Z" transform="translate(-56.793 -108.764)" fill="#c28321"/>
        <path id="Trazado_10127-4" data-name="Trazado 10127" d="M196.293,1778.585c12-5.885,19.782-3.773,20.475,4.107.753,8.57-11.431,21.584-11.431,21.584s14.515.485,17.732,3.843c2.229,2.327.721,4.4-1.244,5.358-1.567.763-30.8.6-32.2-1.113s2.644-6.066,2.644-6.066Z" transform="translate(-39.972 -109.877)" fill="#f7ad3a"/>
        <path id="Trazado_10128-4" data-name="Trazado 10128" d="M146.123,1716.509c3.478,4.682.546,11.332,3.559,15.1,3.883,4.855,14.359.447,10.867-7.133C156.526,1715.739,146.123,1716.509,146.123,1716.509Z" transform="translate(-14.681 -75.504)" fill="#be6325"/>
        <path id="Trazado_10129-4" data-name="Trazado 10129" d="M311.056,1697c-2.013,4.977-7.164,10.43-16.453,10.8a37.466,37.466,0,0,1-15.391-2.489c.812-8.616,9.852-14.336,18.087-14.725C304.229,1690.262,309.941,1693.209,311.056,1697Z" transform="translate(-92.581 -60.329)" fill="#fac074"/>
        <path id="Trazado_10130-4" data-name="Trazado 10130" d="M311.521,1680.7c-2.022.3-7.691-3.025-8.538-5.1a1.267,1.267,0,0,1-.078-.234c-.484-2.057,2.083-13.411,4.571-14.345,2.722-1.02,8.357,9.609,8.849,12.47l.026.156C316.654,1676.265,313.621,1680.386,311.521,1680.7Z" transform="translate(-106.415 -42.996)" fill="#f7953a"/>
        <path id="Trazado_10131-4" data-name="Trazado 10131" d="M311.715,1697.838c-2.022.3-7.691-3.025-8.538-5.1,4.321-3.033,11.1-2.7,13.342-2.109l.026.156C316.848,1693.4,313.815,1697.526,311.715,1697.838Z" transform="translate(-106.608 -60.136)" fill="#be6325"/>
        <path id="Trazado_10132-4" data-name="Trazado 10132" d="M312.788,1708.569c-1.166,5.444-6.844,4.355-7.777,1.866" transform="translate(-107.682 -70.867)" fill="none" stroke="#be6325" stroke-linecap="round" stroke-miterlimit="10" stroke-width="1.042"/>
        <path id="Trazado_10133-4" data-name="Trazado 10133" d="M330.377,1707.588a3.362,3.362,0,0,1-6.611-.207" transform="translate(-118.659 -70.171)" fill="none" stroke="#be6325" stroke-linecap="round" stroke-miterlimit="10" stroke-width="1.042"/>
        <path id="Trazado_10134-4" data-name="Trazado 10134" d="M298.147,1663.809c.182,1.627-.19,3-.83,3.075s-1.307-1.189-1.489-2.816.19-3,.83-3.075S297.965,1662.182,298.147,1663.809Z" transform="translate(-102.28 -43.018)" fill="#be6325"/>
        <path id="Trazado_10135-4" data-name="Trazado 10135" d="M328.3,1661.017c.3,1.608.036,3.009-.6,3.129s-1.392-1.088-1.7-2.7-.036-3.009.6-3.129S328,1659.408,328.3,1661.017Z" transform="translate(-119.898 -41.451)" fill="#be6325"/>
      </g>
    </g>
    <path id="Trazado_10136" data-name="Trazado 10136" d="M-5712,3843.531v33.781h181.66v-33.781" transform="translate(6118 2090.008)" fill="none" stroke="#26c179" stroke-width="1"/>
    <path id="Trazado_10137" data-name="Trazado 10137" d="M-5712,3843.531v33.781h380v-33.781" transform="translate(6326.5 2090.008)" fill="none" stroke="#26c179" stroke-width="1"/>
    <path id="Trazado_10144" data-name="Trazado 10144" d="M6.424-6.972A9.7,9.7,0,0,1,2.562-8.846a3.582,3.582,0,0,1-1.208-2.745,3.783,3.783,0,0,1,1.477-3.056,5.87,5.87,0,0,1,3.84-1.208,6.408,6.408,0,0,1,2.874.623A4.725,4.725,0,0,1,11.5-13.514a4.395,4.395,0,0,1,.693,2.4H10.119a2.845,2.845,0,0,0-.9-2.229,3.678,3.678,0,0,0-2.546-.811,3.762,3.762,0,0,0-2.379.671,2.238,2.238,0,0,0-.854,1.864,2.014,2.014,0,0,0,.811,1.617A7.962,7.962,0,0,0,7.009-8.8,12.785,12.785,0,0,1,10.06-7.589a4.63,4.63,0,0,1,1.633,1.542,3.934,3.934,0,0,1,.532,2.073A3.654,3.654,0,0,1,10.742-.929,6.321,6.321,0,0,1,6.778.215,7.352,7.352,0,0,1,3.771-.4,5.062,5.062,0,0,1,1.617-2.095,4.129,4.129,0,0,1,.859-4.533H2.933A2.694,2.694,0,0,0,3.98-2.293a4.41,4.41,0,0,0,2.8.822,4.054,4.054,0,0,0,2.5-.666,2.163,2.163,0,0,0,.87-1.815,2.124,2.124,0,0,0-.806-1.778A9.289,9.289,0,0,0,6.424-6.972ZM16.715,0H14.728V-11.623h1.987ZM14.566-14.706a1.186,1.186,0,0,1,.3-.816,1.109,1.109,0,0,1,.875-.333,1.126,1.126,0,0,1,.881.333,1.174,1.174,0,0,1,.3.816,1.135,1.135,0,0,1-.3.806,1.147,1.147,0,0,1-.881.322,1.129,1.129,0,0,1-.875-.322A1.147,1.147,0,0,1,14.566-14.706Zm7.208,3.083.064,1.461a4.236,4.236,0,0,1,3.48-1.676q3.685,0,3.717,4.157V0H27.049V-7.691a2.676,2.676,0,0,0-.575-1.858,2.3,2.3,0,0,0-1.756-.6,2.868,2.868,0,0,0-1.7.516,3.5,3.5,0,0,0-1.139,1.354V0H19.895V-11.623Zm9.786,5.715a6.831,6.831,0,0,1,1.257-4.324,4.019,4.019,0,0,1,3.33-1.606,4,4,0,0,1,3.319,1.5l.1-1.289h1.815V-.279a4.728,4.728,0,0,1-1.337,3.556,4.935,4.935,0,0,1-3.593,1.3,5.978,5.978,0,0,1-2.46-.537,4.235,4.235,0,0,1-1.837-1.472l1.031-1.192a3.886,3.886,0,0,0,3.126,1.579,3.045,3.045,0,0,0,2.261-.816,3.12,3.12,0,0,0,.811-2.3v-1A4.085,4.085,0,0,1,36.126.215a3.97,3.97,0,0,1-3.3-1.644A7.182,7.182,0,0,1,31.561-5.908Zm2,.226a5.211,5.211,0,0,0,.806,3.088A2.618,2.618,0,0,0,36.62-1.472,2.911,2.911,0,0,0,39.381-3.18V-8.486a2.945,2.945,0,0,0-2.739-1.665,2.641,2.641,0,0,0-2.267,1.128A5.676,5.676,0,0,0,33.559-5.683ZM51.552-1.149A4.221,4.221,0,0,1,48.146.215a3.613,3.613,0,0,1-2.831-1.08,4.673,4.673,0,0,1-.983-3.2v-7.562H46.32v7.509q0,2.643,2.148,2.643a2.975,2.975,0,0,0,3.029-1.7v-8.454h1.987V0H51.595ZM58.663,0H56.676V-16.5h1.987ZM69.019,0a4.175,4.175,0,0,1-.279-1.225A4.434,4.434,0,0,1,65.431.215a4.1,4.1,0,0,1-2.82-.972,3.145,3.145,0,0,1-1.1-2.465,3.286,3.286,0,0,1,1.38-2.82,6.508,6.508,0,0,1,3.883-1h1.934V-7.96a2.232,2.232,0,0,0-.623-1.66,2.5,2.5,0,0,0-1.837-.618,2.9,2.9,0,0,0-1.783.537,1.583,1.583,0,0,0-.72,1.3h-2a2.743,2.743,0,0,1,.618-1.681,4.216,4.216,0,0,1,1.676-1.284,5.638,5.638,0,0,1,2.326-.473,4.6,4.6,0,0,1,3.147,1,3.623,3.623,0,0,1,1.182,2.766v5.35A6.54,6.54,0,0,0,71.1-.172V0Zm-3.3-1.515A3.493,3.493,0,0,0,67.493-2a2.924,2.924,0,0,0,1.214-1.257V-5.64H67.149Q63.5-5.64,63.5-3.5a1.809,1.809,0,0,0,.623,1.461A2.4,2.4,0,0,0,65.721-1.515ZM79.428-9.84a5.955,5.955,0,0,0-.978-.075A2.619,2.619,0,0,0,75.8-8.25V0H73.81V-11.623h1.934l.032,1.343a3.094,3.094,0,0,1,2.771-1.558,2.03,2.03,0,0,1,.881.15Z" transform="translate(462.5 6015)" fill="#09347b"/>
    <path id="Trazado_10145" data-name="Trazado 10145" d="M3.878-6.123V0H1.815V-15.641H7.584a5.8,5.8,0,0,1,4.023,1.311,4.443,4.443,0,0,1,1.456,3.47,4.384,4.384,0,0,1-1.423,3.507,6.055,6.055,0,0,1-4.077,1.23Zm0-1.687H7.584a3.71,3.71,0,0,0,2.535-.779A2.845,2.845,0,0,0,11-10.839a2.939,2.939,0,0,0-.881-2.234,3.475,3.475,0,0,0-2.417-.87H3.878ZM17.542,0H15.555V-16.5h1.987ZM27.9-1.149A4.221,4.221,0,0,1,24.492.215a3.613,3.613,0,0,1-2.831-1.08,4.673,4.673,0,0,1-.983-3.2v-7.562h1.987v7.509q0,2.643,2.148,2.643a2.975,2.975,0,0,0,3.029-1.7v-8.454h1.987V0H27.94Zm10.57-8.69a5.955,5.955,0,0,0-.978-.075A2.619,2.619,0,0,0,34.837-8.25V0H32.85V-11.623h1.934l.032,1.343a3.094,3.094,0,0,1,2.771-1.558,2.03,2.03,0,0,1,.881.15ZM47.04,0a4.175,4.175,0,0,1-.279-1.225A4.434,4.434,0,0,1,43.452.215a4.1,4.1,0,0,1-2.82-.972,3.145,3.145,0,0,1-1.1-2.465,3.286,3.286,0,0,1,1.38-2.82,6.508,6.508,0,0,1,3.883-1h1.934V-7.96a2.232,2.232,0,0,0-.623-1.66,2.5,2.5,0,0,0-1.837-.618,2.9,2.9,0,0,0-1.783.537,1.583,1.583,0,0,0-.72,1.3h-2a2.743,2.743,0,0,1,.618-1.681,4.216,4.216,0,0,1,1.676-1.284,5.638,5.638,0,0,1,2.326-.473,4.6,4.6,0,0,1,3.147,1,3.623,3.623,0,0,1,1.182,2.766v5.35a6.54,6.54,0,0,0,.408,2.546V0Zm-3.3-1.515A3.493,3.493,0,0,0,45.515-2a2.924,2.924,0,0,0,1.214-1.257V-5.64H45.171q-3.652,0-3.652,2.138a1.809,1.809,0,0,0,.623,1.461A2.4,2.4,0,0,0,43.742-1.515ZM53.99,0H52V-16.5H53.99Z" transform="translate(779.5 6015)" fill="#09347b"/>
    <path id="Trazado_10140" data-name="Trazado 10140" d="M0,0H128V33H0Z" transform="translate(435 5950)" fill="#02255f"/>
    <path id="Trazado_10142" data-name="Trazado 10142" d="M10.494-12.8v8.7A4.082,4.082,0,0,1,9.356-1.134,4.586,4.586,0,0,1,6.293.158L5.845.176A4.79,4.79,0,0,1,2.5-.958,4.055,4.055,0,0,1,1.23-4.078V-12.8H2.9v8.666a2.927,2.927,0,0,0,.765,2.158,2.939,2.939,0,0,0,2.18.769,2.959,2.959,0,0,0,2.193-.765A2.921,2.921,0,0,0,8.8-4.122V-12.8ZM14.44-9.51l.053,1.2a3.465,3.465,0,0,1,2.848-1.371q3.015,0,3.041,3.4V0H18.756V-6.293a2.189,2.189,0,0,0-.47-1.521,1.884,1.884,0,0,0-1.437-.492,2.347,2.347,0,0,0-1.389.422,2.865,2.865,0,0,0-.932,1.107V0H12.9V-9.51ZM22.4-4.843a5.617,5.617,0,0,1,.549-2.514,4.1,4.1,0,0,1,1.529-1.723,4.163,4.163,0,0,1,2.237-.606,4.01,4.01,0,0,1,3.142,1.345,5.174,5.174,0,0,1,1.2,3.577v.114a5.666,5.666,0,0,1-.532,2.492A4.038,4.038,0,0,1,29.008-.439a4.211,4.211,0,0,1-2.272.615A4,4,0,0,1,23.6-1.169a5.147,5.147,0,0,1-1.2-3.56Zm1.635.193a4.068,4.068,0,0,0,.734,2.54,2.349,2.349,0,0,0,1.964.958,2.335,2.335,0,0,0,1.969-.971,4.449,4.449,0,0,0,.729-2.72,4.061,4.061,0,0,0-.743-2.536,2.361,2.361,0,0,0-1.973-.971,2.335,2.335,0,0,0-1.942.958A4.416,4.416,0,0,0,24.038-4.649Z" transform="translate(483 5973)" fill="#fff"/>
    <path id="Trazado_10141" data-name="Trazado 10141" d="M0,0H128V33H0Z" transform="translate(740 5950)" fill="#02255f"/>
    <path id="Trazado_10143" data-name="Trazado 10143" d="M5.722-2.241,9.378-12.8h1.846L6.478,0H4.983L.246-12.8H2.083ZM18.149,0a3.416,3.416,0,0,1-.229-1A3.628,3.628,0,0,1,15.214.176a3.357,3.357,0,0,1-2.307-.8,2.573,2.573,0,0,1-.9-2.017,2.688,2.688,0,0,1,1.129-2.307,5.325,5.325,0,0,1,3.177-.822h1.582v-.747a1.826,1.826,0,0,0-.51-1.358,2.049,2.049,0,0,0-1.5-.505,2.371,2.371,0,0,0-1.459.439,1.3,1.3,0,0,0-.589,1.063H12.2A2.244,2.244,0,0,1,12.7-8.249,3.449,3.449,0,0,1,14.076-9.3a4.613,4.613,0,0,1,1.9-.387,3.759,3.759,0,0,1,2.575.822A2.964,2.964,0,0,1,19.521-6.6v4.377a5.351,5.351,0,0,0,.334,2.083V0Zm-2.7-1.239a2.858,2.858,0,0,0,1.45-.4,2.392,2.392,0,0,0,.993-1.028V-4.614H16.62q-2.988,0-2.988,1.749a1.48,1.48,0,0,0,.51,1.2A1.959,1.959,0,0,0,15.451-1.239ZM26.666-8.051a4.873,4.873,0,0,0-.8-.062A2.143,2.143,0,0,0,23.7-6.75V0H22.069V-9.51h1.582l.026,1.1a2.532,2.532,0,0,1,2.268-1.274,1.661,1.661,0,0,1,.721.123ZM29.927,0H28.3V-9.51h1.626ZM28.169-12.032a.971.971,0,0,1,.242-.668.907.907,0,0,1,.716-.272.922.922,0,0,1,.721.272.96.96,0,0,1,.246.668.929.929,0,0,1-.246.659.938.938,0,0,1-.721.264.924.924,0,0,1-.716-.264A.938.938,0,0,1,28.169-12.032ZM32.1-4.843a5.617,5.617,0,0,1,.549-2.514,4.1,4.1,0,0,1,1.529-1.723,4.163,4.163,0,0,1,2.237-.606,4.01,4.01,0,0,1,3.142,1.345,5.174,5.174,0,0,1,1.2,3.577v.114a5.666,5.666,0,0,1-.532,2.492A4.038,4.038,0,0,1,38.7-.439a4.211,4.211,0,0,1-2.272.615A4,4,0,0,1,33.3-1.169a5.147,5.147,0,0,1-1.2-3.56Zm1.635.193a4.068,4.068,0,0,0,.734,2.54,2.349,2.349,0,0,0,1.964.958A2.335,2.335,0,0,0,38.4-2.123a4.449,4.449,0,0,0,.729-2.72,4.061,4.061,0,0,0-.743-2.536,2.361,2.361,0,0,0-1.973-.971,2.335,2.335,0,0,0-1.942.958A4.416,4.416,0,0,0,33.732-4.649Zm14.6,2.127a1.2,1.2,0,0,0-.5-1.024A4.78,4.78,0,0,0,46.1-4.175a8.186,8.186,0,0,1-1.96-.633,2.788,2.788,0,0,1-1.072-.879A2.1,2.1,0,0,1,42.724-6.9a2.467,2.467,0,0,1,.989-1.978,3.861,3.861,0,0,1,2.527-.809,3.974,3.974,0,0,1,2.624.835,2.652,2.652,0,0,1,1.006,2.136H48.234a1.468,1.468,0,0,0-.567-1.151,2.124,2.124,0,0,0-1.428-.483,2.223,2.223,0,0,0-1.389.387,1.217,1.217,0,0,0-.5,1.011.986.986,0,0,0,.466.888,5.731,5.731,0,0,0,1.683.571,8.77,8.77,0,0,1,1.973.65,2.878,2.878,0,0,1,1.121.91,2.237,2.237,0,0,1,.365,1.3,2.434,2.434,0,0,1-1.02,2.043,4.277,4.277,0,0,1-2.646.769,4.789,4.789,0,0,1-2.021-.4A3.288,3.288,0,0,1,42.9-1.358a2.722,2.722,0,0,1-.5-1.569h1.626a1.683,1.683,0,0,0,.655,1.3,2.54,2.54,0,0,0,1.613.479,2.622,2.622,0,0,0,1.481-.374A1.148,1.148,0,0,0,48.331-2.522Z" transform="translate(779 5973)" fill="#fff"/>
  </g>
</svg>
